<svg xmlns="http://www.w3.org/2000/svg" width="14" height="20" viewBox="0 0 14 20"><g fill="#FFF"><path d="M14 2.722C14 1.219 12.84 0 11.41 0H7.648C7.29 0 7 .305 7 .68c0 .376.29.681.648.681h3.762c.715 0 1.295.61 1.295 1.361v14.556c0 .752-.58 1.361-1.295 1.361H7.648c-.358 0-.648.305-.648.68 0 .376.29.681.648.681h3.762c1.43 0 2.59-1.219 2.59-2.722V2.722z"/><path d="M4.378 6.15a.573.573 0 0 0-.032.812l2.78 2.981H.575a.575.575 0 1 0 0 1.148h6.55l-2.78 2.983a.572.572 0 0 0 .062.771.578.578 0 0 0 .776.01l3.681-3.948.029-.037.032-.043a.573.573 0 0 0 .028-.052c0-.014.018-.029.023-.046a.572.572 0 0 0 .02-.063v-.043a.572.572 0 0 0 0-.106.572.572 0 0 0 0-.106v-.043a.572.572 0 0 0-.02-.064c0-.014-.014-.028-.023-.045a.573.573 0 0 0-.028-.052l-.032-.043-.029-.037-3.68-3.948a.578.578 0 0 0-.807-.029z"/></g></svg>