<svg width="21" height="32" viewBox="0 0 21 32" xmlns="http://www.w3.org/2000/svg"><title>Combined Shape</title><path d="M19.275 17.806c-.359-.281-4.106-4.441-5.12-5.029V1.979A1.978 1.978 0 0 0 12.179 0H1.978A1.977 1.977 0 0 0 0 1.976v18.907a1.978 1.978 0 0 0 1.975 1.98h4.446l-.182-1.555c-.059-.054-.099-.085-.157-.138H4.121a2.007 2.007 0 0 0-2.436-2.443V4.011a2.006 2.006 0 0 0 2.371-1.973 2.186 2.186 0 0 0-.034-.352h6.088a2 2 0 0 0 1.965 2.357h.008c.123 0 .245-.011.366-.032v18.491c-.694-.509-1.463-2.102-1.463-2.102s-.379-4.24-2.528-4.24a1.6 1.6 0 0 0-.17.006s-1.626.137-.282 4.787l.602 5.167a11.738 11.738 0 0 0 2.528 4.744v.574a.56.56 0 0 0 .561.562h6.043a.56.56 0 0 0 .556-.496c.212-2.011 1.051-9.494 1.541-10.628.082-.178.139-.368.169-.561.112-.641.151-1.816-.731-2.509M7.295 4.043a1.202 1.202 0 1 1 0 2.405 1.202 1.202 0 0 1 0-2.405m-2.82 7.14c.26 0 .266 0 .306-.262a2.58 2.58 0 0 1 .17-.58.166.166 0 0 1 .203-.118l.018.006c.163.046.321.091.484.144.15.045.17.098.106.241a1.804 1.804 0 0 0-.183.922.592.592 0 0 0 .054.241.348.348 0 0 0 .62.085 1.46 1.46 0 0 0 .222-.399c.107-.248.203-.496.327-.724a1.302 1.302 0 0 1 1.985-.419c.227.188.39.441.464.725.012.11.112.19.222.178h.007c.131-.008.255 0 .386 0a.152.152 0 0 1 .176.168c.007.138.007.275 0 .412 0 .124-.072.177-.189.177h-.28c-.21 0-.214.006-.249.21a2.672 2.672 0 0 1-.209.737c-.09.183-.137.202-.327.15-.143-.039-.287-.078-.426-.124-.163-.053-.183-.098-.107-.248.131-.255.215-.532.248-.816a.94.94 0 0 0-.072-.534.413.413 0 0 0-.73-.098 1.082 1.082 0 0 0-.178.307 7.628 7.628 0 0 1-.373.836 1.174 1.174 0 0 1-1.13.667 1.248 1.248 0 0 1-1.156-.907c-.079-.222-.079-.222-.315-.229h-.234c-.177-.006-.21-.033-.21-.209v-.163c-.003-.37-.003-.37.37-.376zm-1.738.385a4.349 4.349 0 0 0 3.39 4.24 2.93 2.93 0 0 1 .19-.313 2.507 2.507 0 0 1 2.154-1.15 3.336 3.336 0 0 1 1.574.391 4.341 4.341 0 1 0-7.306-3.168h-.002z" fill="#FFF" fill-rule="evenodd"/></svg>