<svg xmlns="http://www.w3.org/2000/svg" width="50" height="50" viewBox="0 0 50 50">
    <g fill="none">
        <circle cx="25" cy="25" r="25" style="fill-opacity:0.3;fill:#CBD8E6"/>
        <path d="M40.2 22.1C40.3 22.2 40.4 22.2 40.5 22.2 40.6 22.2 40.7 22.2 40.8 22.1 41 21.9 41 21.7 41 21.5L38.2 12.1C38.2 12 38 11.8 37.9 11.8L28.5 9C28.3 9 28.1 9 27.9 9.2 27.8 9.4 27.8 9.6 27.9 9.8L29.7 13 26.9 15.8C26.8 15.9 26.7 16 26.7 16.1L10.8 16.1C9.2 16.1 8 17.4 8 18.9L8 32.6 8 33.7C8 35.3 9.2 36.5 10.8 36.5L15.4 36.5 14.3 38.7 8.6 38.7C8.3 38.7 8.2 38.8 8.1 39 8 39.2 8 39.4 8.1 39.6L9.8 41.8C9.9 41.9 10 42 10.2 42L31.1 42C31.3 42 31.4 41.9 31.5 41.8L32.2 40.9 32.2 41.4C32.2 41.8 32.4 42 32.8 42L38.3 42C38.6 42 38.8 41.8 38.8 41.4L38.8 40.9 40.5 40.9C40.8 40.9 41 40.7 41 40.3L41 34.8C41 34.5 40.8 34.3 40.5 34.3L38.8 34.3 38.8 33.7C38.8 33.4 38.6 33.2 38.3 33.2L33.3 33.2 33.3 32.6 33.3 22.7C33.4 22.7 33.6 22.7 33.7 22.6L36.3 19.9 37.7 20.7 37.7 23.2 36.6 27C36.6 27.2 36.6 27.3 36.7 27.5L37.8 29.1C37.9 29.3 38.1 29.3 38.3 29.3 38.4 29.3 38.6 29.3 38.7 29.1L39.8 27.5C39.9 27.3 39.9 27.2 39.9 27L38.8 23.2 38.8 21.3 40.2 22.1ZM38.3 27.8L37.7 27.1 38.3 25.3 38.8 27.1 38.3 27.8ZM37.3 12.7L39.5 20.5 36.5 18.8C36.5 18.8 36.5 18.8 36.5 18.8L33.2 16.8 29.5 10.5 37.3 12.7ZM10.8 17.2L27.6 17.2 28.7 18.3 10.8 18.3C10.4 18.3 10.2 18.6 10.2 18.9L10.2 30.4C10.2 30.8 10.4 31 10.8 31L30.6 31C30.9 31 31.1 30.8 31.1 30.4L31.1 20.8 32.2 21.9 32.2 32.1 9.1 32.1 9.1 18.9C9.1 18 9.8 17.2 10.8 17.2ZM30 19.7L30 29.9 11.3 29.9 11.3 19.4 29.8 19.4 30 19.7ZM9.1 33.7L9.1 33.2 32.2 33.2 32.2 33.7C32.2 34.7 31.5 35.4 30.6 35.4L25.1 35.4 16.3 35.4 10.8 35.4C9.8 35.4 9.1 34.7 9.1 33.7ZM16.6 36.5L24.7 36.5 25.8 38.7 15.5 38.7 16.6 36.5ZM30.8 40.9L10.5 40.9 9.7 39.8 14.6 39.8 26.7 39.8 31.7 39.8 30.8 40.9ZM27 38.7L25.9 36.5 30.6 36.5C31.2 36.5 31.7 36.3 32.2 35.9L32.2 38.7 27 38.7ZM39.9 35.4L39.9 39.8 38.8 39.8 38.8 35.4 39.9 35.4ZM37.7 34.8L37.7 40.3 37.7 40.9 33.3 40.9 33.3 34.3 37.7 34.3 37.7 34.8ZM33.3 21.4L33.1 21.3 30.9 19.1 30.4 18.5 28.2 16.3 28 16.1 30.2 13.9 32.3 17.5C32.3 17.6 32.4 17.7 32.5 17.7L35.4 19.4 33.3 21.4ZM36.6 31L37.7 31 37.7 32.1 36.6 32.1 36.6 31ZM34.4 31L35.5 31 35.5 32.1 34.4 32.1 34.4 31ZM34.4 27.7L35.5 27.7 35.5 29.9 34.4 29.9 34.4 27.7Z" style="fill:#004385;stroke-width:0.3;stroke:#004385"/>
    </g>
</svg>