<svg xmlns="http://www.w3.org/2000/svg" width="50" height="50" viewBox="0 0 50 50">
    <g fill="none">
        <circle cx="25" cy="25" r="25" style="fill-opacity:0.3;fill:#CBD8E6"/>
        <path d="M15.5 20C17.6 20 19.3 18.3 19.3 16.3 19.3 14.2 17.6 12.5 15.5 12.5 13.4 12.5 11.8 14.2 11.8 16.3 11.8 18.3 13.4 20 15.5 20ZM15.5 13.8C16.9 13.8 18 14.9 18 16.3 18 17.6 16.9 18.8 15.5 18.8 14.1 18.8 13 17.6 13 16.3 13 14.9 14.1 13.8 15.5 13.8ZM35.5 20C37.6 20 39.3 18.3 39.3 16.3 39.3 14.2 37.6 12.5 35.5 12.5 33.4 12.5 31.8 14.2 31.8 16.3 31.8 18.3 33.4 20 35.5 20ZM35.5 13.8C36.9 13.8 38 14.9 38 16.3 38 17.6 36.9 18.8 35.5 18.8 34.1 18.8 33 17.6 33 16.3 33 14.9 34.1 13.8 35.5 13.8ZM41.8 21.3L41.8 29.4C41.8 30.4 40.9 31.3 39.9 31.3L39.9 24.4C39.9 22.7 38.5 21.3 36.8 21.3L33.6 21.3C33.3 21.3 33 21.5 33 21.9L33 24.4 33 25 33 25.6 28 25.6C27.7 25.6 27.4 25.9 27.4 26.3L27.4 28.1 23.6 28.1 23.6 26.3C23.6 25.9 23.3 25.6 23 25.6L18 25.6 18 25 18 24.4 18 21.9C18 21.5 17.7 21.3 17.4 21.3L14.3 21.3C12.5 21.3 11.1 22.7 11.1 24.4L11.1 31.3C10.1 31.3 9.3 30.4 9.3 29.4L9.3 21.3 8 21.3 8 29.4C8 30.7 8.8 31.8 9.9 32.2L9.9 40 11.1 40 11.1 32.5 11.8 32.5 12.4 32.5 17.4 32.5 17.4 39.4C17.4 39.7 17.7 40 18 40L19.9 40 20.5 40 21.1 40 21.1 39.4 21.1 30 21.1 29.4 23 29.4 28 29.4 29.9 29.4 29.9 30 29.9 39.4 29.9 40 30.5 40 31.1 40 33 40C33.3 40 33.6 39.7 33.6 39.4L33.6 32.5 38.6 32.5 39.3 32.5 39.9 32.5 39.9 40 41.1 40 41.1 32.2C42.2 31.8 43 30.7 43 29.4L43 21.3 41.8 21.3ZM20.5 28.1L19.3 28.1 15.5 28.1 15.5 24.4 14.3 24.4 14.3 28.8C14.3 29.1 14.5 29.4 14.9 29.4L19.3 29.4C19.6 29.4 19.9 29.7 19.9 30L19.9 38.8 18.6 38.8 18.6 31.9C18.6 31.5 18.3 31.3 18 31.3L12.4 31.3 12.4 24.4C12.4 23.3 13.2 22.5 14.3 22.5L16.8 22.5 16.8 24.4 16.8 25 16.8 26.3C16.8 26.6 17 26.9 17.4 26.9L22.4 26.9 22.4 28.1 20.5 28.1ZM33 31.3C32.7 31.3 32.4 31.5 32.4 31.9L32.4 38.8 31.1 38.8 31.1 30C31.1 29.7 31.4 29.4 31.8 29.4L36.1 29.4C36.5 29.4 36.8 29.1 36.8 28.8L36.8 24.4 35.5 24.4 35.5 28.1 31.8 28.1 30.5 28.1 28.6 28.1 28.6 26.9 33.6 26.9C34 26.9 34.3 26.6 34.3 26.3L34.3 25 34.3 24.4 34.3 22.5 36.8 22.5C37.8 22.5 38.6 23.3 38.6 24.4L38.6 31.3 33 31.3ZM19.9 11.3L19.9 13.1C19.9 13.4 20 13.6 20.3 13.7 20.4 13.7 20.4 13.8 20.5 13.8 20.7 13.8 20.9 13.7 21 13.5L22.7 11.3 27.4 11.3C28.4 11.3 29.3 10.4 29.3 9.4L29.3 6.9C29.3 5.8 28.4 5 27.4 5L19.9 5C18.8 5 18 5.8 18 6.9L18 9.4C18 10.4 18.8 11.3 19.9 11.3ZM19.3 6.9C19.3 6.5 19.5 6.3 19.9 6.3L27.4 6.3C27.7 6.3 28 6.5 28 6.9L28 9.4C28 9.7 27.7 10 27.4 10L22.4 10C22.2 10 22 10.1 21.9 10.3L21.1 11.3 21.1 10.6C21.1 10.3 20.8 10 20.5 10L19.9 10C19.5 10 19.3 9.7 19.3 9.4L19.3 6.9ZM20.5 7.5L26.8 7.5 26.8 8.8 20.5 8.8 20.5 7.5ZM24.9 20.6L28.6 20.6 28.6 21.9 24.9 21.9 24.9 20.6ZM24.3 18.1C23.2 18.1 22.4 19 22.4 20L22.4 22.5C22.4 23.5 23.2 24.4 24.3 24.4L29.3 24.4C30.3 24.4 31.1 23.5 31.1 22.5L31.1 22.1 32.3 20.3C32.4 20.2 32.4 19.9 32.3 19.7 32.2 19.5 32 19.4 31.8 19.4L31 19.4C30.8 18.6 30.1 18.1 29.3 18.1L24.3 18.1ZM29.9 20C29.9 20.3 30.2 20.6 30.5 20.6L30.6 20.6 30 21.5C29.9 21.6 29.9 21.8 29.9 21.9L29.9 22.5C29.9 22.8 29.6 23.1 29.3 23.1L24.3 23.1C23.9 23.1 23.6 22.8 23.6 22.5L23.6 20C23.6 19.7 23.9 19.4 24.3 19.4L29.3 19.4C29.6 19.4 29.9 19.7 29.9 20ZM22.4 15L23.6 15 23.6 16.3 22.4 16.3 22.4 15ZM24.9 15L26.1 15 26.1 16.3 24.9 16.3 24.9 15ZM27.4 15L28.6 15 28.6 16.3 27.4 16.3 27.4 15Z" style="fill:#004385;stroke-width:0.2;stroke:#004385"/>
    </g>
</svg>