<svg xmlns="http://www.w3.org/2000/svg" viewBox="-20188 -19885 54.885 60">
  <defs>
    <style>
      .cls-1 {
        fill: #004384;
      }
    </style>
  </defs>
  <g id="businessman" transform="translate(-20208.51 -19885)">
    <g id="Layer_2_16_" transform="translate(20.509)">
      <g id="group" transform="translate(0)">
        <path id="path" class="cls-1" d="M138.814,18.228c.389,5.108,2.421,2.906,2.84,5.145.7,3.721,3.991,6.412,6.042,7.342a9.27,9.27,0,0,0,3.724.836h.027a9.27,9.27,0,0,0,3.724-.836c2.051-.93,5.345-3.621,6.042-7.342.419-2.238,2.451-.037,2.84-5.145,0-2.036-1.109-2.542-1.109-2.542s.564-3.013.785-5.332C164,7.465,162.041,0,151.584,0c-.046,0-.088,0-.133,0h-.036c-.045,0-.087,0-.133,0-10.457,0-12.417,7.465-12.143,10.354.221,2.319.785,5.332.785,5.332S138.814,16.193,138.814,18.228Z" transform="translate(-124.066)"/>
        <path id="path-2" data-name="path" class="cls-1" d="M71.6,289.58c-5.274-2.683-12.919-6.035-13.286-6.153l-.011,0a2.051,2.051,0,0,0-2.624,1.255l0,0c-1.361,3.281-3.862,9.128-5.415,11.948l-.374-7.905s2.332-4.949,2.587-5.4c.6-1.063.06-1.968-1.067-1.968H44.5c-1.126,0-1.668.9-1.067,1.968.255.453,2.587,5.4,2.587,5.4l-.374,7.905c-1.553-2.82-4.053-8.667-5.415-11.948l0,0a2.051,2.051,0,0,0-2.624-1.255l-.011,0c-.367.118-8.012,3.47-13.286,6.153-2.369,1.2-3.8,2.7-3.8,4.281v12.414H75.4V293.861C75.4,292.283,73.966,290.785,71.6,289.58Z" transform="translate(-20.509 -246.275)"/>
      </g>
    </g>
  </g>
</svg>
