<svg xmlns="http://www.w3.org/2000/svg" viewBox="-20096 -20516 82.566 80">
  <defs>
    <style>
      .cls-1 {
        fill: #004385;
      }
    </style>
  </defs>
  <g id="_1476446491_social" data-name="1476446491_social" transform="translate(-20097 -20515)">
    <path id="path" class="cls-1" d="M49.574,32.419a12.628,12.628,0,0,1,6.533,4.553,12.5,12.5,0,0,1,2.512,7.518V57.067H25.94V44.489a12.529,12.529,0,0,1,2.512-7.518,12.662,12.662,0,0,1,6.533-4.553l.722-.209.543.525a8.657,8.657,0,0,0,12.064,0l.537-.525ZM61.907,64.805a1.289,1.289,0,1,1,0-2.578H73.518V73.839a1.289,1.289,0,1,1-2.578,0V66.894a39.977,39.977,0,0,1-59.612-2.56A1.289,1.289,0,1,1,13.321,62.7a37.38,37.38,0,0,0,56.05,2.106ZM22.927,13.2a1.289,1.289,0,0,1,0,2.578H11.316v-.489a1.291,1.291,0,0,1,0-1.605V4.161a1.289,1.289,0,0,1,2.578,0V10.82a39.968,39.968,0,0,1,59.332,2.852,1.289,1.289,0,0,1-1.993,1.635A37.368,37.368,0,0,0,15.189,13.2Zm50.5,18.532A5.686,5.686,0,0,1,77.462,33.4l.006.006a5.711,5.711,0,0,1,0,8.073,1.122,1.122,0,0,1,.394.054A8.012,8.012,0,0,1,81.979,44.4a7.857,7.857,0,0,1,1.587,4.737v7.924H63.291V49.137a7.96,7.96,0,0,1,5.7-7.6,1.318,1.318,0,0,1,.4-.054l-.006-.006a5.707,5.707,0,0,1,4.039-9.743Zm2.84,10.674a5.72,5.72,0,0,1-2.84.758,5.641,5.641,0,0,1-2.846-.764v.006a1.294,1.294,0,0,1-.871,1.6,5.392,5.392,0,0,0-2.78,1.939,5.328,5.328,0,0,0-1.062,3.192v5.346h1.223l-.012-2.494a1.286,1.286,0,0,1,2.572-.006l.012,2.506h7.542L77.193,52a1.286,1.286,0,0,1,2.572-.006l.012,2.506h1.211V49.149a5.315,5.315,0,0,0-1.062-3.192,5.417,5.417,0,0,0-2.78-1.939,1.284,1.284,0,0,1-.871-1.6h0Zm-.621-7.178a3.155,3.155,0,0,0-2.22-.913,3.135,3.135,0,0,0-2.22,5.346l.006.006a3.137,3.137,0,0,0,4.433-4.439Zm-64.511-3.5A5.686,5.686,0,0,1,15.171,33.4l.006.006a5.711,5.711,0,0,1,0,8.073,1.122,1.122,0,0,1,.394.054A8.012,8.012,0,0,1,19.687,44.4a7.857,7.857,0,0,1,1.587,4.737v7.924H1V49.137a7.96,7.96,0,0,1,5.7-7.6,1.318,1.318,0,0,1,.4-.054L7.1,41.476a5.707,5.707,0,0,1,4.039-9.743Zm2.84,10.674a5.72,5.72,0,0,1-2.84.758A5.641,5.641,0,0,1,8.291,42.4v.006a1.294,1.294,0,0,1-.871,1.6,5.392,5.392,0,0,0-2.78,1.939,5.328,5.328,0,0,0-1.062,3.192v5.346H4.8l-.012-2.494a1.286,1.286,0,0,1,2.572-.006l.012,2.506h7.542L14.9,52a1.286,1.286,0,0,1,2.572-.006l.012,2.506H18.7V49.149a5.315,5.315,0,0,0-1.062-3.192,5.417,5.417,0,0,0-2.78-1.939,1.284,1.284,0,0,1-.871-1.6h0Zm-.621-7.178a3.155,3.155,0,0,0-2.22-.913,3.135,3.135,0,0,0-2.22,5.346l.006.006a3.137,3.137,0,0,0,4.433-4.439ZM42.283,15.784a8.8,8.8,0,0,1,6.229,2.584l.006.006A8.814,8.814,0,1,1,36.054,30.838l-.006-.006a8.816,8.816,0,0,1,6.235-15.048Zm4.415,4.4a6.242,6.242,0,0,0-8.831,8.825l.006.006A6.242,6.242,0,0,0,46.7,20.187Zm2.912,34.3-.03-5.155a1.286,1.286,0,0,1,2.572-.006l.03,5.161h3.866v-10a9.9,9.9,0,0,0-1.993-5.973,10.13,10.13,0,0,0-4.535-3.4,11.068,11.068,0,0,1-3.013,1.82,11.217,11.217,0,0,1-8.437,0,11.373,11.373,0,0,1-3.013-1.82,10.13,10.13,0,0,0-4.535,3.4,9.939,9.939,0,0,0-1.993,5.973v10h3.884l-.03-5.155a1.286,1.286,0,1,1,2.572-.006l.03,5.161H49.61Z"/>
  </g>
</svg>
