<svg xmlns="http://www.w3.org/2000/svg" viewBox="-17653 -17122 64.045 60">
  <defs>
    <style>
      .cls-1 {
        fill: #004385;
      }
    </style>
  </defs>
  <g id="competitor-analysis" transform="translate(-17653 -17124.023)">
    <path id="path" class="cls-1" d="M49.931,17.7a1.635,1.635,0,0,1,1.343-1.566c3.135-.673,5.6-5.372,6.94-9.179l-.672.448a1.388,1.388,0,0,1-1.791-.225,1.356,1.356,0,0,1,.224-1.793l3.806-3.134c.226,0,.226-.225.449-.225h.447c.222,0,.225.225.448.225a.22.22,0,0,1,.224.227l2.464,4.476a1.171,1.171,0,0,1-.449,1.791.814.814,0,0,1-.672.226A1.235,1.235,0,0,1,61.573,8.3l-.9-1.791c-1.12,4.254-4.03,10.971-9.179,12.09h-.225A1.229,1.229,0,0,1,49.931,17.7ZM12.992,16.354c-3.358-.672-5.6-5.372-6.94-9.178l.672.446A1.183,1.183,0,0,0,8.515,7.4a1.183,1.183,0,0,0-.224-1.79l-3.8-3.133c-.224,0-.224-.225-.448-.225H3.591c-.224,0-.224,0-.448.225L2.918,2.7.457,7.174A1.056,1.056,0,0,0,.681,8.969c.224,0,.448.223.672.223A1.229,1.229,0,0,0,2.472,8.52l.9-1.79C4.71,10.759,7.62,17.7,12.545,18.819h.224a1.024,1.024,0,0,0,1.119-.9A1.275,1.275,0,0,0,12.992,16.354Zm-.447,29.1c-5.149,1.12-8.059,7.835-9.178,12.09l-.9-1.79a1.173,1.173,0,0,0-1.791-.449A1.211,1.211,0,0,0,.233,57.1L2.7,61.575a.219.219,0,0,0,.224.224c.224,0,.224.225.448.225h.224a1.341,1.341,0,0,0,.9-.225l3.806-3.133a1.356,1.356,0,0,0,.224-1.792,1.182,1.182,0,0,0-1.791-.224l-.672.444c1.342-3.808,3.806-8.5,6.939-9.179a1.272,1.272,0,0,0,.9-1.564A.986.986,0,0,0,12.545,45.456ZM63.36,55.084a1.4,1.4,0,0,0-1.79.446l-.9,1.792C59.331,53.291,56.421,46.349,51.5,45.23a1.273,1.273,0,0,0-1.566.9c0,.9.448,1.566,1.119,1.566,3.357.673,5.6,5.375,6.939,9.182l-.672-.226a1.276,1.276,0,1,0-1.566,2.015L59.555,61.8c.225.225.448.225.9.225h.224c.226,0,.226,0,.448-.225l.224-.226L63.811,57.1A1.408,1.408,0,0,0,63.36,55.084ZM38.289,42.1a15.3,15.3,0,0,1-20.595-5.6,15.3,15.3,0,0,1,5.6-20.6,15.3,15.3,0,0,1,20.6,5.6A14.856,14.856,0,0,1,38.289,42.1Zm-1.118-2.016a12.635,12.635,0,0,0-12.538-21.94,12.574,12.574,0,0,0-4.7,17.238A12.718,12.718,0,0,0,37.171,40.084Zm4.911.964-6.4,3.7,5.041,8.723,6.4-3.7Zm-.658,13.811a3.761,3.761,0,0,0,6.49-3.8ZM24.186,35.607H27.1V25.758h-2.91Zm5.149,0h2.91V29.338h-2.91V35.6Zm5.149,0h2.91V22.847h-2.91Z" transform="translate(0)"/>
  </g>
</svg>
