<svg xmlns="http://www.w3.org/2000/svg" viewBox="-19666 -20077 51.85 60">
  <defs>
    <style>
      .cls-1 {
        fill: #004385;
      }
    </style>
  </defs>
  <g id="help-operator" transform="translate(-19707.568 -20077)">
    <g id="group" transform="translate(41.568 0)">
      <path id="path" class="cls-1" d="M93.416,106.8c-.565-10.723-10.2-15.16-10.2-15.16-2.3-1.077-6.477-3.184-9.215-4.578,3.507-3.837,4.543-10.092,4.7-10.982a42.383,42.383,0,0,0,.364-9.012c-.669-9.694-10.456-9.846-11.481-9.836h-.171c-.929-.012-10.824.086-11.5,9.835a42.383,42.383,0,0,0,.364,9.012c.048.259.172.982.407,1.96a12.488,12.488,0,0,0,7.025,4.188,1.627,1.627,0,0,1,1.137-.463h4.257a1.632,1.632,0,0,1,0,3.263H64.851a1.632,1.632,0,0,1-1.5-.984,16.422,16.422,0,0,1-5.558-2.431,17.366,17.366,0,0,0,3.191,5.45c-2.737,1.393-6.91,3.5-9.215,4.577,0,0-9.637,4.436-10.2,15.16,0,0-.167,1.783,3.212,2.458a114.084,114.084,0,0,0,22.712,2.363,114.089,114.089,0,0,0,22.713-2.363C93.585,108.583,93.416,106.8,93.416,106.8Z" transform="translate(-41.568 -51.621)"/>
      <path id="path-2" data-name="path" class="cls-1" d="M111.989,27.935h1.029V15.855c0-.03.01-.059.01-.09V13.981a10.3,10.3,0,0,1,2.918-7.662c4-3.94,10.845-3.887,10.961-3.87.081-.006,6.865-.1,10.887,3.834a10.325,10.325,0,0,1,2.938,7.7v1.886c0,.019,0,.035,0,.054V27.935h1.029a4.583,4.583,0,0,0,4.583-4.582v-4.4a4.581,4.581,0,0,0-3.167-4.356v-.611a12.685,12.685,0,0,0-3.674-9.449C134.756-.117,127.167,0,126.9,0c-.319,0-7.915-.1-12.663,4.562a12.663,12.663,0,0,0-3.66,9.419v.608a4.583,4.583,0,0,0-3.171,4.358v4.4A4.583,4.583,0,0,0,111.989,27.935Z" transform="translate(-100.952 0)"/>
    </g>
  </g>
</svg>
