<svg xmlns="http://www.w3.org/2000/svg" viewBox="-20450 -19652 60 38.18">
  <defs>
    <style>
      .cls-1 {
        fill: #004385;
      }
    </style>
  </defs>
  <path id="inspection" class="cls-1" d="M59.544,81.4l-6.5-6.5a13.782,13.782,0,0,0-21.458-17.3V54.093a1.558,1.558,0,0,0-1.558-1.558H15.707a1.558,1.558,0,0,0-1.558,1.558v5.122H1.558A1.558,1.558,0,0,0,0,60.772V89.157a1.558,1.558,0,0,0,1.558,1.558H44.97a1.558,1.558,0,0,0,1.558-1.558V79.437a13.77,13.77,0,0,0,4.316-2.328l6.5,6.5a1.558,1.558,0,0,0,2.2-2.2ZM42.264,55.65A10.675,10.675,0,1,1,31.589,66.325,10.687,10.687,0,0,1,42.264,55.65ZM15.707,62.329H29.066a13.778,13.778,0,0,0,5.5,15.434V87.6H11.958V62.329Zm1.558-6.679H28.474v3.564H17.264ZM3.115,62.329H8.843V87.6H3.115Zm40.3,25.27H37.684V79.331a13.726,13.726,0,0,0,4.579.785c.387,0,.77-.02,1.149-.052Z" transform="translate(-20450 -19704.535)"/>
</svg>
