<svg xmlns="http://www.w3.org/2000/svg" viewBox="-19924 -20077 47.547 60">
  <defs>
    <style>
      .cls-1 {
        fill: #004385;
      }
    </style>
  </defs>
  <g id="dollar-symbol" transform="translate(-19974.85 -20077)">
    <g id="group" transform="translate(50.85)">
      <path id="path" class="cls-1" d="M121.215,138.531a17.265,17.265,0,1,0-17.265-17.278A17.269,17.269,0,0,0,121.215,138.531ZM115.191,128.1c.159-.563.306-1.139.49-1.69.208-.649.38-.735.98-.416a9.487,9.487,0,0,0,3.245.98,4.078,4.078,0,0,0,2.131-.282,1.659,1.659,0,0,0,.392-2.914,4.843,4.843,0,0,0-1.212-.71,26.922,26.922,0,0,1-3.318-1.494,4.688,4.688,0,0,1-2.657-4.494,4.956,4.956,0,0,1,3.624-4.592c.882-.318.894-.306.894-1.237v-.943c.012-.7.135-.82.833-.845.22-.012.429,0,.649,0,1.482,0,1.482,0,1.494,1.482,0,1.053,0,1.053,1.053,1.212a8.9,8.9,0,0,1,2.3.686.679.679,0,0,1,.441.894c-.184.637-.355,1.286-.563,1.922-.2.6-.38.686-.955.4a7.261,7.261,0,0,0-3.649-.722,2.739,2.739,0,0,0-.98.2A1.384,1.384,0,0,0,120.04,118a6.487,6.487,0,0,0,1.58.894,27.851,27.851,0,0,1,2.89,1.31,5.191,5.191,0,0,1,1.678,7.886,5.626,5.626,0,0,1-2.878,1.849.805.805,0,0,0-.7.918c.024.514,0,1.016,0,1.531a.632.632,0,0,1-.686.71c-.551.012-1.1.012-1.641,0a.661.661,0,0,1-.71-.747c0-.367-.012-.747-.012-1.114-.012-.82-.037-.857-.82-.98a10.051,10.051,0,0,1-2.927-.845C115.056,129.041,114.983,128.857,115.191,128.1Z" transform="translate(-97.448 -91.265)"/>
      <path id="path-2" data-name="path" class="cls-1" d="M93.315,379.635a26.5,26.5,0,0,1-36.343,1.016H60.3V377.1H50.85v9.453H54.4v-3.441a30.033,30.033,0,0,0,41.424-.967l1.261-1.261-2.51-2.51Z" transform="translate(-50.85 -330.924)"/>
      <path id="path-3" data-name="path" class="cls-1" d="M104.223,4.371V7.812A30.034,30.034,0,0,0,62.8,8.78L61.55,10.029l2.51,2.51,1.261-1.261a26.5,26.5,0,0,1,36.343-1.016H98.334v3.551h9.453V4.371Z" transform="translate(-60.24)"/>
    </g>
  </g>
</svg>
