<svg xmlns="http://www.w3.org/2000/svg" viewBox="-17294 -17468 50.471 60">
  <defs>
    <style>
      .cls-1 {
        fill: #004385;
      }
    </style>
  </defs>
  <path id="seo-expert" class="cls-1" d="M49.556,52.794a1.413,1.413,0,0,1-1.413,1.413H35.135a1.413,1.413,0,0,1-1.389-1.67l3.33-17.977c.946-5.109,5.424-8.679,11.409-9.1A15.033,15.033,0,0,1,56.4,27.033a10.622,10.622,0,0,1,5.325,6.077c.088.263.167.536.235.81a1.413,1.413,0,0,1-2.743.68c-.05-.2-.108-.4-.173-.594C57.593,29.654,52.794,28,48.68,28.283c-3.537.247-7.971,2.173-8.826,6.792l-3.02,16.306h11.31A1.413,1.413,0,0,1,49.556,52.794ZM42.589,19.5c-1.606-1.668-3.481-4.751-3.285-9.968.222-5.936,4.815-9,9.3-9.509A18.261,18.261,0,0,1,50.64.035c4.456.539,8.984,3.605,9.2,9.5.2,5.217-1.679,8.3-3.286,9.968a9.634,9.634,0,0,1-13.97,0ZM43.6,5.53a17.544,17.544,0,0,0,5.978,1.164A17.542,17.542,0,0,0,55.552,5.53a7.874,7.874,0,0,0-11.957,0Zm1.029,12.01a6.809,6.809,0,0,0,9.9,0c1.758-1.826,2.622-4.558,2.5-7.9A7.723,7.723,0,0,0,56.8,8.071a20.322,20.322,0,0,1-7.2,1.449h-.071a20.325,20.325,0,0,1-7.2-1.449,7.722,7.722,0,0,0-.216,1.567C42,12.982,42.866,15.715,44.624,17.54ZM78.39,57.174H52.331a1.413,1.413,0,0,0,0,2.826H78.39a1.413,1.413,0,0,0,0-2.826ZM53.023,38.613V53.2a1.41,1.41,0,0,0,1.4,1.427H76.3A1.454,1.454,0,0,0,77.749,53.2V50.886a1.413,1.413,0,1,0-2.826,0v.919H55.849V40.078h8.025a1.413,1.413,0,1,0,0-2.826H54.419A1.354,1.354,0,0,0,53.023,38.613Zm31.17.053a1.413,1.413,0,0,1-1.413,1.413h-1.5a8.869,8.869,0,0,1-.459,1.081l1.062,1.035a1.41,1.41,0,1,1-1.991,2l-1.053-1.061a4.389,4.389,0,0,1-1.091.46v1.5a1.413,1.413,0,1,1-2.826,0v-1.5a4.636,4.636,0,0,1-1.124-.459l-1.078,1.062a1.409,1.409,0,1,1-2-1.987l1.061-1.048a8.9,8.9,0,0,1-.46-1.081h-1.5a1.413,1.413,0,1,1,0-2.826h1.5a4.716,4.716,0,0,1,.461-1.134l-1.06-1.087a1.415,1.415,0,0,1,2-2l1.07,1.061a4.637,4.637,0,0,1,1.124-.46v-1.5a1.413,1.413,0,1,1,2.826,0v1.5a4.393,4.393,0,0,1,1.091.462l1.044-1.059a1.416,1.416,0,0,1,2,2.008l-1.061,1.074a4.714,4.714,0,0,1,.46,1.134h1.5A1.413,1.413,0,0,1,84.193,38.665Zm-5.54-.053a2.35,2.35,0,1,0-2.35,2.35A2.353,2.353,0,0,0,78.653,38.613Z" transform="translate(-17327.723 -17468)"/>
</svg>
