<svg xmlns="http://www.w3.org/2000/svg" viewBox="-19137 -18437 34.689 38">
  <defs>
    <style>
      .cls-1 {
        fill: #004385;
      }
    </style>
  </defs>
  <g id="group-32" transform="translate(-19137 -18437)">
    <g id="group">
      <g id="group-2" data-name="group" transform="translate(0 18.988)">
        <path id="path" class="cls-1" d="M17.333,97.657A17.363,17.363,0,0,1,0,80.3H1.419A15.935,15.935,0,0,0,17.333,96.214Z" transform="translate(0 -80.3)"/>
      </g>
      <g id="group-3" data-name="group" transform="translate(17.357 1.655)">
        <path id="path-2" data-name="path" class="cls-1" d="M90.733,24.333H89.314A15.935,15.935,0,0,0,73.4,8.419V7A17.358,17.358,0,0,1,90.733,24.333Z" transform="translate(-73.4 -7)"/>
      </g>
      <g id="group-4" data-name="group" transform="translate(14.968)">
        <path id="path-3" data-name="path" class="cls-1" d="M65.665,0,63.3,2.388l2.365,2.388Z" transform="translate(-63.3)"/>
      </g>
      <g id="group-5" data-name="group" transform="translate(17.333 33.247)">
        <path id="path-4" data-name="path" class="cls-1" d="M73.3,145.353l2.365-2.365L73.3,140.6Z" transform="translate(-73.3 -140.6)"/>
      </g>
    </g>
    <g id="group-6" data-name="group" transform="translate(6.337 10.286)">
      <g id="group-7" data-name="group" transform="translate(0 1.442)">
        <g id="group-8" data-name="group">
          <path id="path-5" data-name="path" class="cls-1" d="M36.873,62.133a6.1,6.1,0,0,1-3.05.8,5.538,5.538,0,0,1-4.493-2.057,5.746,5.746,0,0,1-1.253-2.956H26.8V56.718h1.111V56.41a6.7,6.7,0,0,1,.047-.709H26.8v-1.23h1.324a6.116,6.116,0,0,1,1.49-3,5.619,5.619,0,0,1,4.3-1.868,6.743,6.743,0,0,1,2.838.615l-.5,1.844a4.8,4.8,0,0,0-2.223-.544,3.3,3.3,0,0,0-2.53,1.088,3.843,3.843,0,0,0-.875,1.844h5.2v1.23H30.394a3.235,3.235,0,0,0-.047.686v.331h5.486V57.9H30.607a3.783,3.783,0,0,0,.851,1.939A3.546,3.546,0,0,0,34.13,60.9a5.1,5.1,0,0,0,2.341-.591Z" transform="translate(-26.8 -49.6)"/>
        </g>
      </g>
      <g id="group-9" data-name="group" transform="translate(12.675)">
        <g id="group-10" data-name="group">
          <path id="path-6" data-name="path" class="cls-1" d="M83.616,59.769V57.83a6.737,6.737,0,0,1-3.216-.875l.544-1.868a6.377,6.377,0,0,0,3.1.875c1.253,0,2.1-.615,2.1-1.561,0-.9-.686-1.466-2.175-2.01-2.081-.757-3.452-1.7-3.452-3.571a3.458,3.458,0,0,1,3.192-3.381V43.5h1.632v1.844a6.274,6.274,0,0,1,2.743.662l-.544,1.821a5.918,5.918,0,0,0-2.7-.686c-1.4,0-1.892.709-1.892,1.4,0,.8.709,1.277,2.412,1.939,2.223.828,3.216,1.915,3.216,3.689a3.628,3.628,0,0,1-3.358,3.547v2.057Z" transform="translate(-80.4 -43.5)"/>
        </g>
      </g>
    </g>
  </g>
</svg>
