<svg xmlns="http://www.w3.org/2000/svg" viewBox="-16942 -17122 50.506 60">
  <defs>
    <style>
      .cls-1 {
        fill: #004385;
      }
    </style>
  </defs>
  <path id="book-with-bookmark" class="cls-1" d="M67.235,0H27.141a8.512,8.512,0,0,0-8.5,8.5v43a8.512,8.512,0,0,0,8.5,8.5H67.236a1.91,1.91,0,0,0,1.91-1.91V1.91A1.91,1.91,0,0,0,67.235,0ZM36.852,3.82v9.7l-.614-.614a1.91,1.91,0,0,0-2.7,0l-.613.613V3.82Zm-9.711,0H29.1V18.132a1.911,1.911,0,0,0,3.263,1.35l2.522-2.523,2.522,2.523a1.909,1.909,0,0,0,1.351.56h0a1.91,1.91,0,0,0,1.91-1.91V3.82H65.325V43H27.141a8.452,8.452,0,0,0-4.68,1.41V8.5A4.688,4.688,0,0,1,27.141,3.82Zm0,52.36a4.682,4.682,0,0,1,0-9.364H65.325v2.772H27.141a1.91,1.91,0,1,0,0,3.82H65.325V56.18Z" transform="translate(-16960.641 -17122)"/>
</svg>
