<svg xmlns="http://www.w3.org/2000/svg" viewBox="-17651 -17470 60 60">
  <defs>
    <style>
      .cls-1 {
        fill: #004385;
      }
    </style>
  </defs>
  <g id="image" transform="translate(-17651 -17470)">
    <path id="path" class="cls-1" d="M271,120.544v8.324a.957.957,0,0,0,1.915,0v-8.324a.957.957,0,0,0-1.915,0Z" transform="translate(-236.402 -104.321)"/>
    <path id="path-2" data-name="path" class="cls-1" d="M243.783,239.72l-7.473-7.474a.958.958,0,0,0-1.354,0l-.677.677-1.384-1.384a12.46,12.46,0,1,0-1.354,1.354l1.384,1.384-.677.677a.958.958,0,0,0,0,1.354l7.473,7.473a.958.958,0,0,0,1.354,0l2.708-2.708a.957.957,0,0,0,0-1.354Zm-30.869-16.275a10.532,10.532,0,1,1,10.532,10.532A10.544,10.544,0,0,1,212.914,223.445ZM240.4,241.751l-6.12-6.12.677-.677.677-.677,6.12,6.12Z" transform="translate(-184.063 -184.062)"/>
    <path id="path-3" data-name="path" class="cls-1" d="M29.262,49.915H1.915v-48H26.989V12.394a.957.957,0,0,0,.957.957H38.425V24.064a.957.957,0,0,0,1.915,0V12.394a.954.954,0,0,0,0-.1c0-.023-.006-.047-.01-.07,0-.008,0-.016,0-.023-.005-.027-.013-.054-.02-.081l0-.01c-.008-.027-.018-.054-.029-.08l0-.008c-.01-.025-.022-.049-.034-.073l-.006-.012c-.012-.022-.025-.043-.038-.064l-.01-.016c-.013-.02-.028-.038-.042-.057l-.014-.019c-.018-.022-.038-.043-.058-.064l-.005-.006L28.623.28,28.616.274c-.02-.02-.04-.038-.062-.056L28.532.2c-.018-.014-.035-.027-.054-.04L28.459.15c-.02-.013-.04-.025-.061-.036L28.384.107c-.023-.012-.047-.023-.071-.033L28.3.07c-.026-.01-.052-.02-.079-.028l-.01,0c-.026-.008-.053-.015-.08-.02l-.025,0c-.023,0-.045-.008-.068-.01a.949.949,0,0,0-.1,0H.957A.957.957,0,0,0,0,.957V50.872a.957.957,0,0,0,.957.957h28.3a.957.957,0,0,0,0-1.915ZM28.9,3.269l8.168,8.168H28.9V3.269Z"/>
    <path id="path-4" data-name="path" class="cls-1" d="M249.615,241a8.617,8.617,0,1,0,8.617,8.617A8.627,8.627,0,0,0,249.615,241Zm0,15.319a6.7,6.7,0,1,1,6.7-6.7A6.71,6.71,0,0,1,249.615,256.317Z" transform="translate(-210.232 -210.232)"/>
    <path id="path-5" data-name="path" class="cls-1" d="M40.483,175.353l8.067,8.511a.957.957,0,0,0,1.39,0l5.606-5.915.477.5a.958.958,0,0,0,1.39-1.317L56.241,175.9a.957.957,0,0,0-1.39,0l-5.606,5.916L41.178,173.3a.957.957,0,0,0-1.39,0l-9.525,10.05a.957.957,0,0,0-.263.659v13.949a.957.957,0,0,0,.957.957H52.29a.957.957,0,1,0,0-1.915H31.915v-12.61Z" transform="translate(-26.17 -150.918)"/>
    <path id="path-6" data-name="path" class="cls-1" d="M149.146,133.3a4.034,4.034,0,1,0,4.034-4.034A4.039,4.039,0,0,0,149.146,133.3Zm6.153,0a2.119,2.119,0,1,1-2.119-2.119A2.122,2.122,0,0,1,155.3,133.3Z" transform="translate(-130.106 -112.764)"/>
    <path id="path-7" data-name="path" class="cls-1" d="M50.287,30H30.957a.957.957,0,0,0-.957.957V53.7a.957.957,0,0,0,1.915,0V31.915H50.287a.957.957,0,0,0,0-1.915Z" transform="translate(-26.17 -26.17)"/>
  </g>
</svg>
