<svg xmlns="http://www.w3.org/2000/svg" viewBox="-20450 -19884 60 60">
  <defs>
    <style>
      .cls-1 {
        fill: #004384;
      }
    </style>
  </defs>
  <g id="no-dollars-accepted" transform="translate(-20450 -19884)">
    <path id="path" class="cls-1" d="M30,0A30,30,0,1,0,60,30,30,30,0,0,0,30,0ZM6.859,21.956l15.22,6.813,4.767,2.09,3.536,1.606L33.276,33.7a2.3,2.3,0,0,1,.8,1.821,2.516,2.516,0,0,1-1.1,2.3,4.846,4.846,0,0,1-2.652.7,9.582,9.582,0,0,1-6.7-2.732l-4.124,4.178a13.905,13.905,0,0,0,9.106,3.589v4.609H32.1V43.554a9.849,9.849,0,0,0,5.384-2.062,7.728,7.728,0,0,0,2.865-4.634l11.121,4.954A24.5,24.5,0,0,1,6.859,21.956Zm31.614,7.616L33.65,27.429,31.025,26.25l-3.8-1.714a1.281,1.281,0,0,1-.268-.749,1.868,1.868,0,0,1,1.1-1.821,5.59,5.59,0,0,1,2.49-.537A8.87,8.87,0,0,1,35.685,23.2L39.6,19.179a13.258,13.258,0,0,0-7.5-2.786V11.787H28.613v4.606a9.488,9.488,0,0,0-4.875,1.58A7.036,7.036,0,0,0,20.9,21.75L9.476,16.627A24.5,24.5,0,0,1,53.664,36.347Z"/>
  </g>
</svg>
