<svg xmlns="http://www.w3.org/2000/svg" xmlns:xlink="http://www.w3.org/1999/xlink" viewBox="-19670 -19880.914 60 49.693">
  <defs>
    <style>
      .cls-1 {
        fill: #004385;
      }

      .cls-2 {
        fill: none;
        stroke: #004385;
        stroke-width: 4px;
      }

      .cls-3 {
        filter: url(#line-7);
      }
    </style>
    <filter id="line-7" x="-19665.445" y="-19880.914" width="48.891" height="47.891" filterUnits="userSpaceOnUse">
      <feOffset dx="-2" dy="1" input="SourceAlpha"/>
      <feGaussianBlur result="blur"/>
      <feFlood flood-color="#fff"/>
      <feComposite operator="in" in2="blur"/>
      <feComposite in="SourceGraphic"/>
    </filter>
  </defs>
  <g id="group-52" transform="translate(1159 15)">
    <path id="XMLID_490_" class="cls-1" d="M59.446,74.122,41.6,56.276a1.893,1.893,0,0,0-2.677,0L33.569,61.63h0l-4.015,4.015L25.539,61.63h0l-5.354-5.354a1.893,1.893,0,0,0-2.677,0L.554,73.23a1.893,1.893,0,0,0,0,2.677L5.908,81.26a1.887,1.887,0,0,0,2.153.368L26.43,100h0a5.678,5.678,0,0,0,9.685-3.7,5.665,5.665,0,0,0,5.351-5.353,5.655,5.655,0,0,0,3.7-1.651l0,0,6.768-6.768a1.885,1.885,0,0,0,2.153-.368L59.446,76.8a1.893,1.893,0,0,0,0-2.677ZM4.57,74.568,18.846,60.292l2.677,2.677-.564.564L7.247,77.245Zm32.569,17.4a1.9,1.9,0,0,1-2.676,0h0l-2.677-2.677a1.893,1.893,0,1,0-2.677,2.677l2.676,2.676h0a1.893,1.893,0,0,1-2.678,2.676h0L10.816,79.03,24.2,65.645l2.677,2.677-4.015,4.015h0a5.678,5.678,0,0,0,8.031,8.03h0l4.015-4.015L41.6,83.044h0l.894.894a1.892,1.892,0,0,1,0,2.674h0a1.9,1.9,0,0,1-2.675,0l0,0-2.676-2.676a1.893,1.893,0,0,0-2.677,2.677l2.675,2.675,0,0A1.9,1.9,0,0,1,37.138,91.968ZM46.507,82.6l-1.338-1.338h0l-.892-.892h0l-8.03-8.03a1.893,1.893,0,0,0-2.677,0l-5.354,5.354a1.893,1.893,0,1,1-2.677-2.677h0l5.352-5.352h0v0l4.014-4.014L49.184,79.922Zm6.246-4.462L37.584,62.968l2.677-2.677L55.43,75.46Z" transform="translate(-20829 -19947.879)"/>
    <g class="cls-3" transform="matrix(1, 0, 0, 1, -1159, -15)">
      <line id="line-7-2" data-name="line-7" class="cls-2" x2="44.063" y2="44.063" transform="translate(-19662.03 -19879.5)"/>
    </g>
  </g>
</svg>
