<svg xmlns="http://www.w3.org/2000/svg" viewBox="-20179 -20077 37.623 60">
  <defs>
    <style>
      .cls-1 {
        fill: #004385;
      }
    </style>
  </defs>
  <g id="payment-method" transform="translate(-20270.357 -20077)">
    <g id="group" transform="translate(91.358)">
      <g id="group-2" data-name="group" transform="translate(0)">
        <path id="path" class="cls-1" d="M127.5,33.386c-.674-.527-7.7-8.328-9.6-9.43V3.711A3.708,3.708,0,0,0,114.187,0H95.069a3.708,3.708,0,0,0-3.711,3.711V39.155a3.708,3.708,0,0,0,3.711,3.711H103.4l-.343-2.915c-.11-.1-.184-.159-.294-.257H99.086a3.765,3.765,0,0,0-4.568-4.581V7.52a4.2,4.2,0,0,0,.686.061,3.761,3.761,0,0,0,3.76-3.76A4.027,4.027,0,0,0,98.9,3.16h11.415a4.027,4.027,0,0,0-.061.661,3.753,3.753,0,0,0,3.76,3.76,4.2,4.2,0,0,0,.686-.061V34.452h0v7.74c-1.3-.955-2.743-3.944-2.743-3.944s-.71-7.949-4.74-7.949a2.768,2.768,0,0,0-.318.012s-3.05.257-.527,8.977l1.127,9.688a22,22,0,0,0,4.74,8.892v1.078A1.053,1.053,0,0,0,113.293,60h11.329a1.048,1.048,0,0,0,1.041-.931c.4-3.772,1.972-17.8,2.89-19.927a4.019,4.019,0,0,0,.318-1.053C129.08,36.889,129.153,34.685,127.5,33.386Z" transform="translate(-91.358)"/>
      </g>
      <g id="group-3" data-name="group" transform="translate(11.427 7.581)">
        <ellipse id="ellipse" class="cls-1" cx="2.254" cy="2.254" rx="2.254" ry="2.254"/>
      </g>
      <g id="group-4" data-name="group" transform="translate(5.132 13.546)">
        <g id="group-5" data-name="group">
          <path id="path-2" data-name="path" class="cls-1" d="M133.258,118.745a8.155,8.155,0,0,0,6.356,7.949,5.767,5.767,0,0,1,.355-.588,4.709,4.709,0,0,1,3.38-2.119,5.986,5.986,0,0,1,.661-.037,6.267,6.267,0,0,1,2.952.735,8.141,8.141,0,1,0-13.7-5.94Zm3.258-.723c.49,0,.5,0,.576-.49a4.838,4.838,0,0,1,.318-1.09.311.311,0,0,1,.416-.208c.306.086.6.171.906.269.282.086.318.184.2.453a3.368,3.368,0,0,0-.343,1.727,1.114,1.114,0,0,0,.1.453.654.654,0,0,0,1.164.159,2.786,2.786,0,0,0,.416-.747c.2-.465.38-.931.612-1.359a2.444,2.444,0,0,1,3.723-.784,2.644,2.644,0,0,1,.87,1.359.376.376,0,0,0,.429.331c.245-.012.478,0,.723,0a.289.289,0,0,1,.331.318q.018.386,0,.772c0,.233-.135.331-.355.331h-.527c-.392,0-.4.012-.465.392a4.965,4.965,0,0,1-.392,1.384c-.171.343-.257.38-.612.282-.269-.073-.539-.147-.8-.233-.306-.1-.343-.184-.2-.465a4.445,4.445,0,0,0,.465-1.531,1.77,1.77,0,0,0-.135-1,.778.778,0,0,0-1.372-.184,2.071,2.071,0,0,0-.331.576,13.859,13.859,0,0,1-.7,1.568,2.2,2.2,0,0,1-2.119,1.249,2.342,2.342,0,0,1-2.168-1.7c-.147-.416-.147-.416-.588-.429h-.441c-.331-.012-.392-.061-.392-.392v-.306C135.818,118.034,135.818,118.034,136.516,118.022Z" transform="translate(-133.258 -110.6)"/>
        </g>
      </g>
    </g>
  </g>
</svg>
