<svg xmlns="http://www.w3.org/2000/svg" viewBox="-20342 -20516 94.809 80">
  <defs>
    <style>
      .cls-1 {
        fill: #004385;
      }
    </style>
  </defs>
  <g id="_1476443425_page_setting" data-name="1476443425_page_setting" transform="translate(-20342 -20516)">
    <path id="path" class="cls-1" d="M1.48,0H93.329a1.481,1.481,0,0,1,1.48,1.48V78.52A1.481,1.481,0,0,1,93.329,80H1.48A1.481,1.481,0,0,1,0,78.52V1.485A1.481,1.481,0,0,1,1.48.006ZM62.187,19.462a10.518,10.518,0,0,1,.023,19.084V77.041H91.843V14.82H2.959V77.041h23.7V62.227A5.939,5.939,0,0,1,32.582,56.3V37.043a1.48,1.48,0,0,1-1.288-.762L28.521,31.91a1.48,1.48,0,0,1-.147-1.282l2.835-10.273a1.476,1.476,0,0,1,1.423-1.084v-.006H35.5a1.481,1.481,0,0,1,1.457,1.226l2.824,10.234a1.486,1.486,0,0,1-.181,1.192h0L36.733,36.36a1.473,1.473,0,0,1-1.192.678V56.3a5.911,5.911,0,0,1,4.179,1.74l.006.006.006-.006a5.9,5.9,0,0,1,1.74,4.185V77.041H53.32V38.551a10.527,10.527,0,0,1,.169-19.157,1.471,1.471,0,0,1,1.948.745,1.531,1.531,0,0,1,.13.6h.006v8.483h4.383V20.744a1.481,1.481,0,0,1,1.48-1.48,1.461,1.461,0,0,1,.745.2ZM64.119,24.9a7.591,7.591,0,0,0-1.192-1.423v7.24a1.481,1.481,0,0,1-1.48,1.48H54.1a1.481,1.481,0,0,1-1.48-1.48V23.478a7.568,7.568,0,0,0,2.558,12.651A1.483,1.483,0,0,1,56.3,37.563V77.041h2.959V37.557h.006a1.477,1.477,0,0,1,.994-1.395A7.586,7.586,0,0,0,64.124,24.9ZM34.378,22.224h-.616L31.379,30.87l2.033,3.208h1.293l2.067-3.208-2.383-8.641Zm1.175,37.038H32.587a2.97,2.97,0,0,0-2.959,2.959V77.035h8.884V62.221a2.95,2.95,0,0,0-.87-2.09l.006-.006a2.988,2.988,0,0,0-2.1-.87Zm31.113,1.48a1.48,1.48,0,1,1,0-2.959h14.7a1.48,1.48,0,1,1,0,2.959Zm5.924-7.4a1.48,1.48,0,1,1,0-2.959h14.7a1.48,1.48,0,0,1,0,2.959ZM7.41,40a1.48,1.48,0,1,1,0-2.959h14.7a1.48,1.48,0,1,1,0,2.959Zm5.924,7.4a1.48,1.48,0,0,1,0-2.959h14.7a1.48,1.48,0,1,1,0,2.959ZM22.224,5.93h2.959V8.9H22.224Zm-7.4,0h2.959V8.9H14.82Zm-7.4,0h2.959V8.9H7.415ZM2.971,11.855H91.855V2.971H2.971Z"/>
  </g>
</svg>
