<svg xmlns="http://www.w3.org/2000/svg" viewBox="-17605 -18685 117.84 128">
  <defs>
    <style>
      .cls-1 {
        fill: #004385;
      }
    </style>
  </defs>
  <g id="businessman_2_" data-name="businessman (2)" transform="translate(-17624.008 -18685)">
    <g id="group" transform="translate(19.008 0)">
      <path id="path" class="cls-1" d="M302.068,106.291a19.738,19.738,0,0,0,5.639,1.6c1.523.241,1.577.321,1.577,1.9,0,.722,0,1.443.027,2.138a1.275,1.275,0,0,0,1.363,1.443c1.042.027,2.111.027,3.18,0a1.212,1.212,0,0,0,1.31-1.363c0-.989.053-1.951,0-2.94a1.544,1.544,0,0,1,1.336-1.764,10.768,10.768,0,0,0,5.532-3.555,9.995,9.995,0,0,0-3.207-15.18,54.483,54.483,0,0,0-5.559-2.512,12.6,12.6,0,0,1-3.047-1.71,2.656,2.656,0,0,1,.668-4.73,4.971,4.971,0,0,1,1.871-.374,14.182,14.182,0,0,1,7.029,1.39c1.1.535,1.47.374,1.844-.775.4-1.229.722-2.459,1.1-3.688a1.282,1.282,0,0,0-.829-1.71,18.053,18.053,0,0,0-4.436-1.31c-2-.321-2-.321-2.031-2.352,0-2.86,0-2.86-2.86-2.86h-1.256c-1.336.027-1.577.267-1.6,1.6-.027.615,0,1.2,0,1.817,0,1.791-.027,1.764-1.737,2.379-4.142,1.5-6.681,4.33-6.975,8.846-.241,3.982,1.844,6.681,5.1,8.659a56.816,56.816,0,0,0,6.387,2.86,10.617,10.617,0,0,1,2.325,1.363,3.183,3.183,0,0,1-.748,5.586,7.738,7.738,0,0,1-4.116.535,18.4,18.4,0,0,1-6.254-1.871c-1.149-.615-1.5-.454-1.9.8-.347,1.069-.641,2.165-.935,3.261C300.518,105.249,300.652,105.623,302.068,106.291Z" transform="translate(-225.419 -49.783)"/>
      <path id="path-2" data-name="path" class="cls-1" d="M124.969,53.008h.267c23.813-.241,20.338-32.017,20.338-32.017C144.585-.23,126.84-.07,125.1.01c-1.737-.08-19.51-.241-20.472,20.98C104.631,20.99,101.183,52.767,124.969,53.008Z" transform="translate(-81.62 0)"/>
      <path id="path-3" data-name="path" class="cls-1" d="M55.355,252.919a10.969,10.969,0,0,1,15.5,0l.909.909,3.341,3.341,11.3,11.3,7.964-7.964,3.341-3.341,1.363-1.363,7-7c0-.347,0-.695-.027-1.016v-.508a.1.1,0,0,0-.027-.08c-.187-6.842-1.5-11.6-8.5-15.982-9.274-5.826-19.67-10.877-19.67-10.877l-8.2,26.138-4.837-13.684c8.472-11.813-.588-12.4-2.218-12.427h-.107c-1.6.027-10.69.615-2.218,12.427l-4.837,13.684-8.258-26.111s-10.37,5.024-19.67,10.877c-7,4.41-8.312,9.14-8.5,15.982l.027,23.118,18.868.027,16.543-16.543Z" transform="translate(-19.008 -161.453)"/>
      <path id="path-4" data-name="path" class="cls-1" d="M190.97,274.04H190.7c-5.506.267-11.038.508-16.543.775-.855.053-1.71.08-2.165,1.122-.481,1.016.053,1.6.641,2.191,1.684,1.71,3.367,3.421,5.1,5.078l-1.871,1.871-15.287,15.26L159.22,301.7l-3.341,3.341L142.73,318.191l-.775-.775L126.24,301.7,122.9,298.36l-.909-.909a3.58,3.58,0,0,0-2.566-1.069,3.536,3.536,0,0,0-2.566,1.069l-.909.909L96.9,317.416a3.662,3.662,0,0,0,0,5.158l.909.909a3.58,3.58,0,0,0,2.566,1.069,3.536,3.536,0,0,0,2.566-1.069l16.49-16.49.775.775,15.715,15.715,3.341,3.341.909.909a3.58,3.58,0,0,0,2.566,1.069,3.536,3.536,0,0,0,2.566-1.069l.909-.909,15.715-15.715,3.341-3.341,1.363-1.363,15.26-15.26,1.844-1.844,5,4.944a2.371,2.371,0,0,0,1.577.962,1.889,1.889,0,0,0,.829-.241,2.556,2.556,0,0,0,1.256-2.405c.241-5.372.508-10.77.748-16.142C193.215,274.762,192.547,274.04,190.97,274.04Z" transform="translate(-75.301 -200.801)"/>
    </g>
  </g>
</svg>
