<svg xmlns="http://www.w3.org/2000/svg" viewBox="-17301 -17295 64.516 60">
  <defs>
    <style>
      .cls-1 {
        fill: #004385;
      }
    </style>
  </defs>
  <g id="wifi-signal-waves" transform="translate(-17301 -17312.85)">
    <g id="wifi-tethering" transform="translate(0 17.85)">
      <path id="path" class="cls-1" d="M32.258,43.656a6.452,6.452,0,1,0,6.452,6.452A6.471,6.471,0,0,0,32.258,43.656Zm19.355,6.452a19.355,19.355,0,0,0-38.71,0,19.651,19.651,0,0,0,9.677,16.774L25.806,61.4A12.828,12.828,0,1,1,45.161,50.431,12.116,12.116,0,0,1,38.71,61.4l3.226,5.484A19.651,19.651,0,0,0,51.613,50.108ZM32.258,17.85A32.353,32.353,0,0,0,0,50.108,31.738,31.738,0,0,0,16.129,77.85l3.226-5.484a25.773,25.773,0,1,1,38.71-22.258,25.5,25.5,0,0,1-12.9,22.258l3.226,5.484a32.135,32.135,0,0,0-16.129-60Z" transform="translate(0 -17.85)"/>
    </g>
  </g>
</svg>
