<svg xmlns="http://www.w3.org/2000/svg" viewBox="-19930 -19665 60 55.488">
  <defs>
    <style>
      .cls-1 {
        fill: #004385;
      }
    </style>
  </defs>
  <g id="working-team" transform="translate(-19930 -19666.766)">
    <g id="Layer_1_21_" transform="translate(0 1.766)">
      <g id="group">
        <path id="path" class="cls-1" d="M24.361,24.737l.763-4.914L24.74,19.2a.225.225,0,0,1,.024-.273l1-1.082a.234.234,0,0,1,.332,0l1,1.082a.225.225,0,0,1,.024.273l-.384.619.763,4.913c6.028-.1,9.679-.789,9.679-1.506,0-3.5-2.382-3.658-5.029-4.524-1.631-.53-3.653-.828-3.219-3.639a6.344,6.344,0,0,0,1.449-3.006,3.08,3.08,0,0,0,1.6-2.1,1.8,1.8,0,0,0-.429-1.542V7.082a5.468,5.468,0,0,0-5.612-5.316,5.468,5.468,0,0,0-5.614,5.316V8.417A1.8,1.8,0,0,0,19.9,9.959a3.077,3.077,0,0,0,1.594,2.1,6.346,6.346,0,0,0,1.45,3.006c.431,2.809-1.589,3.109-3.22,3.639-2.649.865-5.029,1.02-5.029,4.524C14.683,23.946,18.333,24.635,24.361,24.737Z" transform="translate(4.061 -1.766)"/>
        <path id="path-2" data-name="path" class="cls-1" d="M17.464,44.182c-1.631-.531-3.653-.828-3.22-3.642a6.349,6.349,0,0,0,1.45-3,3.073,3.073,0,0,0,1.594-2.1,1.8,1.8,0,0,0-.428-1.543V32.558a5.469,5.469,0,0,0-5.614-5.318,5.469,5.469,0,0,0-5.614,5.318v1.334a1.8,1.8,0,0,0-.428,1.543,3.073,3.073,0,0,0,1.594,2.1,6.343,6.343,0,0,0,1.45,3c.431,2.811-1.589,3.111-3.22,3.642C2.38,45.045,0,45.2,0,48.7c0,.717,3.649,1.408,9.679,1.509l.763-4.914-.384-.62a.223.223,0,0,1,.024-.272l1-1.085a.239.239,0,0,1,.332,0l1,1.085a.223.223,0,0,1,.024.272l-.384.619.763,4.913c6.028-.1,9.679-.79,9.679-1.507C22.493,45.2,20.111,45.045,17.464,44.182Z" transform="translate(0 5.275)"/>
        <path id="path-3" data-name="path" class="cls-1" d="M46.838,44.182c-1.63-.531-3.652-.828-3.219-3.642a6.349,6.349,0,0,0,1.45-3,3.073,3.073,0,0,0,1.594-2.1,1.8,1.8,0,0,0-.428-1.543V32.558a5.621,5.621,0,0,0-11.226,0v1.334a1.8,1.8,0,0,0-.428,1.543,3.073,3.073,0,0,0,1.594,2.1,6.343,6.343,0,0,0,1.45,3c.431,2.811-1.588,3.111-3.22,3.642-2.647.864-5.028,1.02-5.028,4.522,0,.717,3.649,1.408,9.679,1.509l.765-4.914-.385-.619a.225.225,0,0,1,.024-.272l1-1.085a.239.239,0,0,1,.332,0l1,1.085a.223.223,0,0,1,.026.272l-.384.619.763,4.913c6.028-.1,9.679-.79,9.679-1.507C51.867,45.2,49.485,45.045,46.838,44.182Z" transform="translate(8.12 5.275)"/>
        <path id="path-4" data-name="path" class="cls-1" d="M34.692,40.521a1.5,1.5,0,0,0,.96-2.652l-8.395-6.987V22.65a1.5,1.5,0,0,0-3,0v8.232l-8.395,6.987a1.5,1.5,0,1,0,1.918,2.3l7.976-6.636,7.976,6.636A1.481,1.481,0,0,0,34.692,40.521Z" transform="translate(4.235 3.592)"/>
      </g>
    </g>
  </g>
</svg>
