<svg width="75" height="48" viewBox="0 0 75 48" xmlns="http://www.w3.org/2000/svg"><title>Virtual Money</title><g fill-rule="nonzero" fill="#004385"><path d="M74.223 0H6.983a.77.77 0 0 0-.776.78v2.338H3.88a.77.77 0 0 0-.776.78v2.335H.775a.777.777 0 0 0-.775.78V47.22c0 .43.347.78.776.78h67.246c.428 0 .776-.35.776-.78v-2.34h2.324a.77.77 0 0 0 .776-.78v-2.338h2.326a.77.77 0 0 0 .776-.78V.78a.771.771 0 0 0-.777-.78zm-6.977 46.441H1.55V7.792h1.554v.003h1.55v-.003h62.59v35.529h-.002v1.559h.003v1.561zm3.1-3.12h-1.548V7.012c0-.43-.348-.78-.776-.78H4.656V4.677H70.345V43.32zm3.102-3.118h-1.55V3.897a.77.77 0 0 0-.776-.78H7.758V1.56h65.69v38.644zm-9.252-30.115H4.606a.778.778 0 0 0-.776.78V43.37c0 .43.347.78.776.78h59.59c.428 0 .776-.35.776-.78V10.866a.777.777 0 0 0-.776-.778zM5.382 11.646h5.521c-.353 2.895-2.64 5.194-5.521 5.55v-5.55zm0 30.945v-5.549c2.88.355 5.168 2.653 5.521 5.55H5.382zm58.038 0h-5.539c.353-2.897 2.65-5.2 5.54-5.554v5.554zm0-7.12c-3.745.367-6.731 3.363-7.098 7.12H12.467c-.365-3.757-3.347-6.752-7.085-7.12V18.766c3.738-.367 6.719-3.364 7.085-7.12h43.856c.366 3.756 3.353 6.753 7.098 7.12V35.47zm0-18.276a6.378 6.378 0 0 1-5.534-5.549h5.534v5.55z"/><path d="M34.72 19.112v4.51h3.592c-.713-1.867-1.962-3.457-3.591-4.51zm-5.714 8.181c0 .728.076 1.437.218 2.119h4.05V25.07H29.25a10.387 10.387 0 0 0-.244 2.223zm.677-3.67h3.591v-4.51c-1.629 1.052-2.877 2.642-3.591 4.51zm-2.124 3.67c0-.757.077-1.5.215-2.223h-2.142a8.69 8.69 0 0 0-.284 2.171c0 .751.105 1.476.284 2.17h2.12a11.964 11.964 0 0 1-.193-2.118zm3.41-8.19a8.707 8.707 0 0 0-4.827 4.52h2.008a11.032 11.032 0 0 1 2.819-4.52zM26.145 30.86a8.696 8.696 0 0 0 4.746 4.476 10.674 10.674 0 0 1-2.777-4.476h-1.97zm7.129 4.516v-4.516h-3.629c.703 1.872 1.957 3.453 3.629 4.516zm3.753-16.271a11.035 11.035 0 0 1 2.819 4.518h2.007a8.705 8.705 0 0 0-4.826-4.518zm3.41 8.189c0 .725-.07 1.432-.195 2.119h2.12c.18-.695.285-1.42.285-2.17 0-.752-.105-1.477-.284-2.172h-2.141c.137.723.214 1.466.214 2.223zm-1.447 0c0-.76-.087-1.505-.244-2.223H34.72v4.342h4.05c.142-.682.219-1.391.219-2.119zm-4.27 3.566v4.516c1.673-1.063 2.927-2.643 3.63-4.516h-3.63zm2.384 4.476a8.7 8.7 0 0 0 4.746-4.476H39.88a10.677 10.677 0 0 1-2.777 4.476zm-3.107 2.036c-5.567 0-10.096-4.544-10.096-10.13 0-5.595 4.53-10.146 10.096-10.146 5.567 0 10.096 4.552 10.096 10.146 0 5.586-4.529 10.13-10.096 10.13z"/></g></svg>