<svg width="14" height="14" viewBox="0 0 14 14" xmlns="http://www.w3.org/2000/svg"><title>Question Mark</title><g fill-rule="nonzero" fill="#D2D2D2"><path d="M7 1.65a5.35 5.35 0 1 0 0 10.7 5.35 5.35 0 0 0 0-10.7zm0-.9a6.25 6.25 0 1 1 0 12.5A6.25 6.25 0 0 1 7 .75z"/><path d="M6.42 8.112v-.549c0-.89.067-1.048.733-1.734.486-.494.607-.703.607-1.015 0-.383-.24-.6-.68-.6-.512 0-.757.243-.81.823l-.148.136H5.5l-.15-.157c.055-1.138.689-1.766 1.79-1.766 1.03 0 1.689.601 1.689 1.56 0 .58-.186.906-.894 1.604-.504.504-.525.558-.525 1.343v.35l-.149.15-.69.005-.15-.15zM7.63 9.98a.725.725 0 1 1-1.45-.012.725.725 0 0 1 1.45.012z"/></g></svg>