<svg width="49" height="27" viewBox="0 0 49 27" xmlns="http://www.w3.org/2000/svg"><title>2 Sided Arrow</title><path d="M7.682 15.028c.256.059.426.215.426.4v3.182h21.728c.643 0 1.164.371 1.164.84v3.104c0 .458-.52.839-1.164.839H8.108v3.182c0 .176-.17.332-.426.4a.923.923 0 0 1-.72-.127L.507 21.861A.98.98 0 0 1 0 20.997a.98.98 0 0 1 .506-.864l6.438-4.978a.923.923 0 0 1 .738-.127zm33.636-15a.923.923 0 0 1 .738.127l6.438 4.978a.98.98 0 0 1 .506.864.98.98 0 0 1-.506.864l-6.457 4.987a.923.923 0 0 1-.72.127c-.255-.068-.425-.224-.425-.4V8.393H19.164c-.643 0-1.164-.38-1.164-.84V4.45c0-.469.52-.84 1.164-.84h21.728V.428c0-.185.17-.341.426-.4z" fill-rule="nonzero" fill="#000"/></svg>