<?xml version="1.0" encoding="UTF-8"?>
<svg width="125px" height="22px" viewBox="0 0 125 22" version="1.1" xmlns="http://www.w3.org/2000/svg" xmlns:xlink="http://www.w3.org/1999/xlink">
    <!-- Generator: Sketch 44.1 (41455) - http://www.bohemiancoding.com/sketch -->
    <title>Page 1</title>
    <desc>Created with Sketch.</desc>
    <defs></defs>
    <g id="Payment-Methods" stroke="none" stroke-width="1" fill="none" fill-rule="evenodd">
        <g id="Page-1">
            <path d="M22.4950032,9.4519636 C22.4815932,9.01981162 22.277251,8.79519476 21.879901,8.78034802 L19.7628831,8.78034802 C19.2611271,8.81099936 19.0036239,9.08654215 18.9902139,9.60346424 L18.9902139,13.4125319 C19.0036239,13.9458972 19.2884259,14.2179278 19.8460568,14.2345307 L21.7865102,14.2345307 C21.9881386,14.2345307 22.1556034,14.1596584 22.2892241,14.0060824 C22.4284323,13.8916188 22.4950032,13.7444285 22.4950032,13.5622765 L22.4950032,9.4519636 Z M16.2715038,8.91173372 C16.285712,7.95930715 16.4980364,7.23421137 16.9094349,6.73931992 C17.1244732,6.53146552 17.3953863,6.35761494 17.7231322,6.21409642 C18.0641284,6.06147829 18.3945881,5.98868135 18.7154693,5.98868135 L22.6016443,5.98868135 C24.3166826,6.00272989 25.1878512,6.94030971 25.2164272,8.80269796 L25.2164272,14.5359355 C25.2031769,15.1971743 24.9447158,15.771408 24.4424808,16.2514527 C23.9472701,16.7556034 23.3554757,17.0126277 22.6659802,17.0276341 L18.9902139,17.0276341 L18.9902139,21.1607759 L16.2715038,21.1607759 L16.2715038,8.91173372 Z" id="Fill-1" fill="#178ECC"></path>
            <path d="M30.1236909,13.6816252 C30.1236909,13.8407886 30.1968072,13.9675447 30.3414432,14.0607759 C30.4694764,14.1752395 30.6303959,14.2344668 30.8337803,14.2344668 L32.9228608,14.2344668 C33.3954023,14.2344668 33.6399745,14.0515166 33.654023,13.6816252 L33.654023,12.9011335 C33.654023,12.4756865 33.4051405,12.2612867 32.9030651,12.2612867 L30.8337803,12.2612867 C30.5623883,12.2612867 30.3748084,12.3064655 30.2697637,12.3913953 C30.1731801,12.4934068 30.1236909,12.6921616 30.1236909,12.9871807 L30.1236909,13.6816252 Z M33.654023,9.38532886 C33.667433,8.96722542 33.4249361,8.76751277 32.9219029,8.78124202 L27.4461686,8.78124202 L27.4461686,5.9886175 L33.6123563,5.9886175 C35.4076948,6.01719349 36.3195722,6.88564815 36.3499042,8.59829183 L36.3499042,14.4407248 C36.3348978,15.1805077 36.1086845,15.7889049 35.6699872,16.2737388 C35.210696,16.7756545 34.6189017,17.0282088 33.8933269,17.0282088 L30.165198,17.0282088 C28.3522989,17.0127235 27.432599,16.184818 27.404023,14.5377874 L27.404023,12.283477 C27.4182312,10.5633301 28.2973819,9.68928799 30.0366858,9.65911558 L33.654023,9.65911558 L33.654023,9.38532886 Z" id="Fill-3" fill="#178ECC"></path>
            <path d="M43.9874042,18.3683908 C44.20356,18.354023 44.3889049,18.2767561 44.5413633,18.1381865 C44.6869572,18.0083972 44.7600734,17.8594508 44.7600734,17.6907088 L44.7600734,17.4322478 L44.7600734,17.0281928 L41.2789112,17.0281928 C40.8244093,17.0281928 40.4609036,16.9697637 40.1899904,16.8545019 C39.9051884,16.7496169 39.6189496,16.5546935 39.3331897,16.277235 C39.0605204,15.9823755 38.8652778,15.6744253 38.7469828,15.3524266 C38.6229406,15.0594828 38.5592433,14.6838442 38.5592433,14.2344508 L38.5592433,5.98764368 L41.2789112,5.98764368 L41.2789112,13.3487548 C41.2789112,13.9395913 41.5198116,14.2344508 42.0071999,14.2344508 L43.9268997,14.2344508 C44.1548691,14.2344508 44.3536239,14.1595785 44.5194923,14.0061622 C44.6796137,13.8774904 44.7600734,13.7242337 44.7600734,13.5427203 L44.7600734,13.2413155 L44.7600734,5.98764368 L47.4559547,5.98764368 L47.4559547,18.1535121 C47.4407886,19.0534163 47.2097861,19.7746807 46.7645434,20.320977 C46.3117976,20.8679119 45.6944604,21.1469668 44.9067848,21.160696 L38.5592433,21.160696 L38.5592433,18.3683908 L43.9874042,18.3683908 Z" id="Fill-5" fill="#178ECC"></path>
            <path d="M49.5909483,14.2345307 L54.4362548,14.2345307 C54.8795817,14.2187261 55.1097861,14.041523 55.1227171,13.7010057 L55.1227171,13.4505268 C55.1227171,13.377251 55.1011654,13.2969508 55.0594987,13.2101054 C54.9507822,12.9990581 54.8181194,12.8944923 54.6600734,12.8944923 L54.3701628,12.8944923 L52.2574553,12.8944923 C51.5454502,12.8798052 50.9364144,12.6349138 50.4250798,12.1601373 C49.9081577,11.7228768 49.6428321,11.1837644 49.6287835,10.5514208 L49.6287835,8.46872605 C49.6560824,6.84324713 50.5387452,6.01629949 52.2782088,5.98868135 L57.8976213,5.98868135 L57.8976213,8.78034802 L53.1374042,8.78034802 C52.5775383,8.78034802 52.296408,8.95228289 52.296408,9.29359834 L52.296408,9.56467114 C52.296408,9.91875798 52.5844029,10.09644 53.1573595,10.09644 L55.5518359,10.09644 C56.1899266,10.1109674 56.7335089,10.3552203 57.1872126,10.8314336 C57.645546,11.3121169 57.8822957,11.8820402 57.8976213,12.5450351 L57.8976213,14.5825511 C57.8822957,15.1556673 57.6184068,15.7262292 57.1086686,16.2967912 C56.8594668,16.5760057 56.605795,16.7682152 56.3522829,16.8777299 C56.0887133,16.977666 55.7319125,17.0276341 55.2754949,17.0276341 L49.5909483,17.0276341 L49.5909483,14.2345307 Z" id="Fill-7" fill="#178ECC"></path>
            <path d="M62.5502714,13.6816252 C62.5502714,13.8407886 62.6235473,13.9675447 62.7710568,14.0607759 C62.8970147,14.1752395 63.0601692,14.2344668 63.2606801,14.2344668 L65.3523148,14.2344668 C65.8259738,14.2344668 66.0689496,14.0515166 66.0833174,13.6816252 L66.0833174,12.9011335 C66.0833174,12.4756865 65.8302842,12.2612867 65.3304438,12.2612867 L63.2606801,12.2612867 C62.9888091,12.2612867 62.8023467,12.3064655 62.6979406,12.3913953 C62.6016762,12.4934068 62.5502714,12.6921616 62.5502714,12.9871807 L62.5502714,13.6816252 Z M66.0833174,9.38532886 C66.0949713,8.96722542 65.8511973,8.76751277 65.3496009,8.78028416 L59.8740262,8.78028416 L59.8740262,5.9886175 L66.0410121,5.9886175 C67.8363506,6.01623563 68.7469508,6.88453065 68.7756865,8.59829183 L68.7756865,14.4407248 C68.7614783,15.1805077 68.53303,15.7889049 68.0965677,16.2737388 C67.6401501,16.7756545 67.0472382,17.0275702 66.3210249,17.0275702 L62.5920977,17.0275702 C60.77856,17.0127235 59.8583812,16.184818 59.8326788,14.5377874 L59.8326788,12.283477 C59.8449713,10.5633301 60.7226852,9.68848978 62.4653416,9.65911558 L66.0833174,9.65911558 L66.0833174,9.38532886 Z" id="Fill-9" fill="#178ECC"></path>
            <path d="M70.9858397,4.40351213 C71.0030811,3.64984036 71.2805396,3.04431673 71.8261973,2.5901341 C72.3541347,2.12956577 73.047302,1.89297573 73.9060185,1.87908685 L75.6328704,1.87908685 L75.6328704,4.5784802 L74.587053,4.5784802 C74.0120211,4.59029374 73.7185983,4.86583653 73.7072637,5.39776501 L73.7072637,5.98860153 L75.6328704,5.98860153 L75.6328704,8.78409962 L73.7072637,8.78409962 L73.7072637,17.0293103 L70.9858397,17.0293103 L70.9858397,4.40351213 Z" id="Fill-11" fill="#178ECC"></path>
            <path d="M83.366076,9.33263091 L83.366076,9.26765645 C83.366076,9.12429757 83.3086047,9.00233078 83.1904693,8.91181354 C83.0640326,8.82369093 82.9087005,8.78042784 82.7228768,8.78042784 L80.8296775,8.78042784 C80.5876596,8.78042784 80.3916188,8.84875479 80.2401181,8.98860153 C80.0518997,9.11711367 79.9561143,9.28617497 79.9561143,9.49626437 L79.9561143,10.6167944 L83.366076,9.33263091 Z M79.999537,13.2820243 L79.999537,13.454917 C79.999537,13.6795338 80.0573276,13.856258 80.1757822,13.9849298 C80.2615102,14.1503193 80.3761335,14.2346105 80.5290709,14.2346105 L80.8726213,14.2346105 L86.1149585,14.2346105 L86.1149585,17.0277139 L80.1757822,17.0277139 C79.6341156,17.0277139 79.2117018,16.9763091 78.9133301,16.8757344 C78.5867018,16.768295 78.2942369,16.5920498 78.0384898,16.3485951 C77.7393199,16.0527778 77.5354566,15.7520115 77.4334451,15.4423052 C77.3215358,15.1195083 77.2658206,14.6905492 77.2658206,14.1570243 L77.2431513,8.56586845 C77.2733238,6.87621328 78.1551884,6.01637931 79.890182,5.98764368 L83.5541347,5.98764368 C85.2484195,6.01637931 86.1068167,6.90686462 86.1336367,8.66005747 L86.1336367,10.8695083 L79.999537,13.2820243 Z" id="Fill-13" fill="#178ECC"></path>
            <path d="M91.888857,17.0282727 C91.4769796,17.0282727 91.1011814,16.9902778 90.7601852,16.920993 C90.4033844,16.8628831 90.0472222,16.6962165 89.6832375,16.4170019 C89.309355,16.0924489 89.0518519,15.7279853 88.910728,15.3248883 C88.7614623,14.9289751 88.6896232,14.4814974 88.6896232,13.9765485 L88.6896232,8.76358557 C88.6738186,8.33845785 88.7166028,7.96473499 88.8159004,7.6420977 C88.908014,7.3175447 89.0994253,7.00209132 89.3899745,6.69318327 C89.7204342,6.3668742 90.0585568,6.15135696 90.4153576,6.04519476 C90.7584291,5.95914751 91.1446041,5.91540549 91.5781928,5.91540549 L95.7451788,5.91540549 L95.7451788,6.56850255 L91.6739783,6.56850255 C90.9562261,6.56850255 90.3907727,6.71649106 89.9777778,7.01230843 C89.5548851,7.33510536 89.3400064,7.89082056 89.3400064,8.67402618 L89.3400064,13.8905013 C89.3400064,14.2578384 89.3957216,14.6136814 89.5069923,14.9585089 C89.6220945,15.2979087 89.81159,15.5938857 90.0852171,15.8539432 C90.3808748,16.0795179 90.6762133,16.2190453 90.9637292,16.2771552 C91.2640166,16.34197 91.5853768,16.3734195 91.9260536,16.3734195 L95.8103129,16.3734195 L95.8103129,17.0282727 L91.888857,17.0282727 Z" id="Fill-15" fill="#178ECC"></path>
            <path d="M106.463554,10.2645275 L100.999473,10.2645275 C100.345418,10.2795338 99.8340837,10.4819604 99.463394,10.8713282 C99.0820083,11.2661239 98.8929917,11.8097063 98.8929917,12.4988825 L98.8929917,14.162516 C98.8929917,14.4859515 98.9265166,14.7803321 98.995961,15.0456577 C99.0650862,15.3248723 99.2363825,15.574553 99.5074553,15.7899106 C99.9801564,16.1811941 100.501708,16.3740421 101.072749,16.3740421 L104.383413,16.3740421 C105.766874,16.3599936 106.463554,15.6310664 106.463554,14.1837484 L106.463554,10.2645275 Z M107.112181,14.0209132 C107.112181,14.4399745 107.08121,14.8097063 107.027091,15.1325032 C106.937851,15.4857918 106.757775,15.8261494 106.48319,16.1487867 C105.912308,16.7496807 105.205252,17.0431034 104.361542,17.0276181 L101.112181,17.0276181 C100.268471,17.0276181 99.5842433,16.7757024 99.0539112,16.2737867 C98.5128831,15.7771392 98.2381386,15.0882822 98.2381386,14.2030651 L98.2381386,12.5239464 C98.266076,10.627235 99.211159,9.65597063 101.071791,9.61254789 L106.48319,9.61254789 L106.48319,8.87675607 C106.48319,8.27091315 106.308062,7.74010217 105.958924,7.28320562 C105.736861,6.98722861 105.474888,6.79022989 105.177315,6.68678161 C104.876708,6.60807791 104.538586,6.56864623 104.16151,6.56864623 L98.2580939,6.56864623 L98.2580939,5.91538953 L103.854678,5.91538953 C104.36681,5.91538953 104.829933,5.95162835 105.248835,6.02282886 C105.463873,6.06545338 105.659754,6.14878672 105.841587,6.26979566 C106.031561,6.38521711 106.21052,6.55539591 106.376389,6.77650064 C106.878145,7.42385057 107.123835,8.17097701 107.112181,9.01245211 L107.112181,14.0209132 Z" id="Fill-17" fill="#178ECC"></path>
            <path d="M113.222941,6.56858238 C111.706976,6.59715837 110.960489,7.42378672 110.988745,9.05150064 L110.988745,17.0277139 L110.337085,17.0277139 L110.337085,9.05405492 C110.306913,6.96034483 111.303081,5.91660281 113.326708,5.91660281 L114.050527,5.91660281 L114.050527,6.56858238 L113.222941,6.56858238 Z" id="Fill-19" fill="#178ECC"></path>
            <path d="M124.228289,6.57209451 L119.078704,6.57209451 C118.707535,6.57209451 118.375,6.61376117 118.074872,6.69230524 C117.761654,6.76350575 117.458174,6.95427842 117.175447,7.26382503 C116.903416,7.54575351 116.733238,7.82512771 116.659962,8.10466156 C116.565294,8.3864304 116.522031,8.72598978 116.537995,9.11982759 L116.537995,14.2058748 C116.537995,15.0510217 116.782407,15.6271711 117.279215,15.935281 C117.523787,16.0794381 117.792625,16.1868774 118.094828,16.2588761 C118.396073,16.3385377 118.730364,16.378129 119.099777,16.378129 L121.350575,16.378129 C122.190932,16.378129 122.87963,16.184802 123.407886,15.7938378 C123.939176,15.4284163 124.210249,14.7957535 124.228289,13.8950511 L124.228289,6.57209451 Z M124.878831,13.9395913 C124.821201,16.0443167 123.706098,17.0751277 121.536718,17.031705 L119.123084,17.031705 C118.612867,17.031705 118.157407,16.9878033 117.753831,16.9031928 C117.33908,16.7949553 116.941252,16.5427203 116.559866,16.147765 C116.271711,15.7938378 116.087324,15.4357599 116.01341,15.0685824 C115.913633,14.702682 115.87037,14.294636 115.885696,13.8497126 L115.885696,9.10306513 C115.913633,6.9651341 116.9909,5.90271392 119.118455,5.91931673 L124.228289,5.91931673 L124.228289,2.31554917 L124.878831,2.31554917 L124.878831,13.9395913 Z" id="Fill-21" fill="#178ECC"></path>
            <path d="M1.16792784,5.56784802 C1.38105045,5.47349936 1.59529055,5.40038314 1.80777458,5.35424649 C2.20097382,3.48084291 3.85997765,2.07423372 5.85039911,2.07423372 C7.8409802,2.07423372 9.50189974,3.48259898 9.89302363,5.35600255 C10.5047733,5.4717433 11.0095626,5.71966794 11.40356,6.08652618 C11.4196839,5.72685185 11.4054757,5.38010856 11.3628512,5.05379949 C11.1099777,2.22206258 8.73609515,0.000798212005 5.8420977,0.000798212005 C2.86125479,0.000798212005 0.436127075,2.36254789 0.309849936,5.31561303 C0.29212963,5.57056194 0.287180715,5.83604725 0.295961047,6.11350575 C0.545641762,5.90357599 0.831880587,5.71392082 1.16792784,5.56784802" id="Fill-23" fill="#C32026"></path>
            <path d="M9.08528097,5.98769157 L2.44415709,5.98769157 C2.12423372,5.98769157 1.7936143,6.06144636 1.45277778,6.2140645 C1.12407407,6.35854087 0.853639847,6.53143359 0.638601533,6.73848978 C0.225766284,7.23417944 0.0143997446,7.95847701 3.19284802e-05,8.91106322 L3.19284802e-05,14.1032727 C0.0143997446,15.0576149 0.225766284,15.7806354 0.638601533,16.274569 C0.853639847,16.4841794 1.12407407,16.6588282 1.45277778,16.802666 C1.7936143,16.9525702 2.12423372,17.0282407 2.44415709,17.0282407 L9.08528097,17.0282407 C10.8001596,17.0127554 11.6730843,16.0719828 11.7003831,14.2123084 L11.7003831,8.80346424 C11.6730843,6.94027778 10.8001596,6.00349617 9.08528097,5.98769157" id="Fill-25" fill="#C32026"></path>
        </g>
    </g>
</svg>