<svg width="50" height="56" viewBox="0 0 50 56" xmlns="http://www.w3.org/2000/svg"><title>Advanced</title><g fill-rule="nonzero" fill="none"><path d="M44.01 50.461H.396L.18 48.953A18.234 18.234 0 0 1 0 46.443c0-10.989 9.96-19.93 22.199-19.93 12.237 0 22.207 8.941 22.207 19.93-.003.84-.063 1.68-.181 2.51l-.216 1.508zM3.992 47.038h36.42v-.595c0-9.1-8.176-16.506-18.223-16.506-10.047 0-18.214 7.397-18.214 16.506 0 .195.008.39.017.595zm18.027-23.09c-6.668 0-12.073-5.361-12.073-11.974S15.352 0 22.02 0c6.669 0 12.074 5.36 12.074 11.974 0 6.613-5.405 11.974-12.074 11.974zm.07-2.874c5.03 0 9.107-4.044 9.107-9.032s-4.078-9.031-9.108-9.031-9.107 4.043-9.107 9.031 4.078 9.032 9.107 9.032zm15.08 34.433c-6.69 0-12.111-5.422-12.111-12.11 0-6.689 5.422-12.111 12.11-12.111 6.689 0 12.111 5.422 12.111 12.11 0 6.69-5.422 12.111-12.11 12.111z" fill="#004385"/><path d="M42.396 43.185l-.362.006v5.473h.775a.184.184 0 0 1 .19.19v.955a.185.185 0 0 1-.19.19H31.191a.184.184 0 0 1-.19-.19v-.967a.185.185 0 0 1 .19-.191h.775v-5.473h-.388A.571.571 0 0 1 31 42.6v-.369a.637.637 0 0 1 .254-.483L36.68 38.1a.552.552 0 0 1 .635 0l5.406 3.652a.637.637 0 0 1 .254.484v.369a.585.585 0 0 1-.578.579zm-5.393-1.082a1.163 1.163 0 1 0-.002-2.327 1.163 1.163 0 0 0 .002 2.327zm.724 1.082v5.472h2.224v-5.472h-2.224zm-.94 0v5.472h.432v-5.472h-.432zm-2.738 0v5.472h2.224v-5.472h-2.224zm-.94 0v5.472h.432v-5.472h-.432zm7.35 0v5.472h.432v-5.472h-.432z" fill="#FFF"/></g></svg>