<svg width="75" height="48" viewBox="0 0 75 48" xmlns="http://www.w3.org/2000/svg"><title>Real Money</title><g fill="none" fill-rule="evenodd"><path d="M74.223 0H6.983a.77.77 0 0 0-.776.78v2.338H3.88a.77.77 0 0 0-.776.78v2.335H.775a.777.777 0 0 0-.775.78V47.22c0 .43.347.78.776.78h67.246c.428 0 .776-.35.776-.78v-2.34h2.324a.77.77 0 0 0 .776-.78v-2.338h2.326a.77.77 0 0 0 .776-.78V.78a.771.771 0 0 0-.777-.78zm-6.977 46.441H1.55V7.792h1.554v.003h1.55v-.003h62.59v35.529h-.002v1.559h.003v1.561zm3.1-3.12h-1.548V7.012c0-.43-.348-.78-.776-.78H4.656V4.677H70.345V43.32zm3.102-3.118h-1.55V3.897a.77.77 0 0 0-.776-.78H7.758V1.56h65.69v38.644zm-9.252-30.115H4.606a.778.778 0 0 0-.776.78V43.37c0 .43.347.78.776.78h59.59c.428 0 .776-.35.776-.78V10.866a.777.777 0 0 0-.776-.778zM5.382 11.646h5.521c-.353 2.895-2.64 5.194-5.521 5.55v-5.55zm0 30.945v-5.549c2.88.355 5.168 2.653 5.521 5.55H5.382zm58.038 0h-5.539c.353-2.897 2.65-5.2 5.54-5.554v5.554zm0-7.12c-3.745.367-6.731 3.363-7.098 7.12H12.467c-.365-3.757-3.347-6.752-7.085-7.12V18.766c3.738-.367 6.719-3.364 7.085-7.12h43.856c.366 3.756 3.353 6.753 7.098 7.12V35.47zm0-18.276a6.378 6.378 0 0 1-5.534-5.549h5.534v5.55z" fill="#D2D2D2" fill-rule="nonzero"/><circle fill="#D2D2D2" cx="34.138" cy="27.233" r="10.138"/><path d="M34.593 31.91v1.158H33.27v-1.159c-.993-.165-1.903-.662-2.483-1.49l-.165-.248.91-1.158.331.413c.248.332.745.828 1.407.994v-2.814c-1.076-.331-2.317-.91-2.317-2.566 0-1.324.91-2.4 2.317-2.648v-1.159h1.324v1.242c.828.165 1.573.58 2.152 1.324l.165.248-.91 1.076-.331-.414c-.248-.414-.662-.662-1.076-.827v2.4c.993.33 2.4.91 2.4 2.813 0 1.16-.662 2.483-2.4 2.814zm0-3.89v2.317c.828-.248.91-.91.91-1.242 0-.413-.248-.744-.91-1.075zm-2.234-3.062c0 .413.248.662.827.91v-1.986c-.496.165-.827.579-.827 1.076z" fill="#FFF" fill-rule="nonzero"/></g></svg>