<svg width="50" height="56" viewBox="0 0 50 56" xmlns="http://www.w3.org/2000/svg"><title>Standard</title><g fill-rule="nonzero" fill="none"><path d="M44.01 50.461H.396L.18 48.953A18.234 18.234 0 0 1 0 46.443c0-10.989 9.96-19.93 22.199-19.93 12.237 0 22.207 8.941 22.207 19.93-.003.84-.063 1.68-.181 2.51l-.216 1.508zM3.992 47.038h36.42v-.595c0-9.1-8.176-16.506-18.223-16.506-10.047 0-18.214 7.397-18.214 16.506 0 .195.008.39.017.595zm18.027-23.09c-6.668 0-12.073-5.361-12.073-11.974S15.352 0 22.02 0c6.669 0 12.074 5.36 12.074 11.974 0 6.613-5.405 11.974-12.074 11.974zm.07-2.874c5.03 0 9.107-4.044 9.107-9.032s-4.078-9.031-9.108-9.031-9.107 4.043-9.107 9.031 4.078 9.032 9.107 9.032zm15.08 34.433c-6.69 0-12.111-5.422-12.111-12.11 0-6.689 5.422-12.111 12.11-12.111 6.689 0 12.111 5.422 12.111 12.11 0 6.69-5.422 12.111-12.11 12.111z" fill="#004385"/><path d="M37.5 38c1.597.003 2.891 1.247 2.895 2.782 0 1.537-1.296 2.783-2.895 2.783s-2.895-1.246-2.895-2.783c0-1.536 1.296-2.782 2.895-2.782zm-.006 6.394c2.189-.005 4.243 1.014 5.506 2.732C41.792 48.918 39.722 50 37.5 50s-4.292-1.082-5.5-2.874c1.26-1.715 3.31-2.734 5.494-2.732z" fill="#FFF"/></g></svg>