<svg width="50" height="56" viewBox="0 0 50 56" xmlns="http://www.w3.org/2000/svg"><title>Cent</title><g fill-rule="nonzero" fill="none"><path d="M43.603 50H.393L.18 48.506A18.07 18.07 0 0 1 0 46.019C0 35.129 9.87 26.27 21.994 26.27c12.125 0 22.002 8.859 22.002 19.748a18.07 18.07 0 0 1-.18 2.487L43.604 50zM3.956 46.608H40.04v-.59c0-9.016-8.1-16.354-18.055-16.354-9.954 0-18.046 7.33-18.046 16.355 0 .193.009.387.017.589zm17.861-22.88c-6.606 0-11.962-5.311-11.962-11.864C9.855 5.312 15.21 0 21.817 0 28.424 0 33.78 5.312 33.78 11.864c0 6.553-5.356 11.865-11.963 11.865zm.069-2.847c4.983 0 9.023-4.006 9.023-8.949 0-4.942-4.04-8.949-9.023-8.949-4.984 0-9.023 4.007-9.023 8.95 0 4.942 4.04 8.948 9.023 8.948zm15.395 34.54c-6.627 0-11.999-5.373-11.999-12 0-6.628 5.372-12 11.999-12 6.627 0 11.999 5.372 11.999 12 0 6.627-5.372 12-11.999 12z" fill="#004385"/><path d="M37.773 40.763a2.43 2.43 0 0 1 1.76.78c.215.22.554.22.77 0a.631.631 0 0 0 0-.822 3.272 3.272 0 0 0-1.977-1.054v-1.695c-.003-.303-.231-.548-.514-.552-.274.023-.492.257-.514.552v1.695c-1.656.37-2.843 1.938-2.843 3.753 0 1.816 1.187 3.382 2.843 3.753v1.696a.549.549 0 0 0 .144.397c.098.105.232.16.37.154.283-.003.511-.248.514-.551v-1.702a3.815 3.815 0 0 0 1.977-1.054.631.631 0 0 0 0-.82.531.531 0 0 0-.77 0 2.36 2.36 0 0 1-1.76.778c-1.329 0-2.273-1.096-2.273-2.654-.044-.68.174-1.35.604-1.852a2.246 2.246 0 0 1 1.67-.802z" fill="#FFF"/></g></svg>