<svg width="81" height="82" viewBox="0 0 81 82" xmlns="http://www.w3.org/2000/svg"><title>Icon / Wallet</title><g stroke="#004385" fill-rule="nonzero" stroke-width=".5" fill="#004385"><path d="M10.451 72.638h1.844v1.836h-1.844zM25.204 72.638h1.844v1.836h-1.844zM20.286 72.638h1.844v1.836h-1.844zM15.368 72.638h1.844v1.836h-1.844z"/><path d="M80.283 43.142c-.123-2.08-1.844-3.794-3.934-3.794v-4.65c0-4.04-3.197-7.344-7.254-7.589L62.456 9.241l-3.688 1.346-4.057-7.099-4.426 2.448-4.55-5.263L12.91 27.11H8.484c-4.18 0-7.623 3.427-7.623 7.588v38.92c0 4.16 3.442 7.588 7.623 7.588h60.12c4.18 0 7.622-3.427 7.622-7.588V62.479c2.213-.244 4.057-2.203 4.057-4.528V43.142zm-1.844.367c0 1.224-.984 2.203-2.213 2.326v-4.529c1.23 0 2.213.98 2.213 2.203zm-44.383-16.4l19.671-7.098c.984 1.713 2.95 2.937 4.918 2.937.369 0 .738 0 1.106-.122l1.599 4.406H34.056v-.123zm32.95 0h-3.69L60.859 20.5l-.86.245c-.37.122-.861.245-1.353.245-1.598 0-3.074-.98-3.565-2.57l-.37-.857-26.064 9.424h-9.958L61.35 11.566l5.655 15.543zm-9.96-15.91l-33.81 12.239L53.974 5.936l3.074 5.263zm-8.36-4.284l-26.31 14.932L45.49 3.244l3.196 3.671zm25.696 66.702c0 3.182-2.582 5.752-5.779 5.752H8.483c-3.196 0-5.778-2.57-5.778-5.752v-38.92c0-3.182 2.582-5.752 5.779-5.752h4.303l.123.245H69.71v-.123c2.705.49 4.795 2.815 4.795 5.63v11.138H62.333c-4.18 0-7.745 3.427-7.745 7.71v1.469c0 4.16 3.442 7.71 7.745 7.71h12.049v10.893zm1.352-12.973H62.21c-3.196 0-5.901-2.57-5.901-5.875V53.3a5.89 5.89 0 0 1 5.901-5.874h14.016c.738 0 1.598-.245 2.213-.735v11.015c0 1.714-1.23 2.938-2.705 2.938z"/><path d="M62.825 50.75c-1.724 0-3.176 1.446-3.176 3.162 0 1.717 1.452 3.162 3.176 3.162 1.724 0 3.176-1.445 3.176-3.162 0-1.716-1.452-3.161-3.176-3.161zm0 4.969a1.816 1.816 0 0 1-1.815-1.807 1.816 1.816 0 0 1 3.63 0c0 .994-.817 1.807-1.815 1.807z"/></g></svg>