<svg width="53" height="41" viewBox="0 0 53 41" xmlns="http://www.w3.org/2000/svg"><title>Icon / MT5</title><g fill="none" fill-rule="evenodd"><rect stroke="#004385" stroke-width="2" x="1" y="1" width="51" height="39" rx="2"/><path d="M4.992 20.456h17.864v-15.4H4.992v15.4z" stroke="#004385"/><path fill="#004385" d="M28.708 6.833h19.875V4.556H28.708zM28.708 13.667h19.875v-2.278H28.708zM28.708 20.5h19.875v-2.278H28.708z"/><path d="M6.625 25.056h39.75c1.221 0 2.208 1.02 2.208 2.277v6.834c0 1.257-.987 2.277-2.208 2.277H6.625c-1.221 0-2.208-1.02-2.208-2.277v-6.834c0-1.257.987-2.277 2.208-2.277" stroke="#004385"/><path d="M13.924 6.378c1.738 0 3.144 1.392 3.144 3.108 0 1.715-1.406 3.107-3.144 3.107-1.739 0-3.144-1.392-3.144-3.107 0-1.716 1.405-3.108 3.144-3.108M19.426 15.307l-3.257-1.64c0 1.257-1.003 2.277-2.245 2.277-1.242 0-2.246-1.02-2.246-2.277l-3.256 1.64a2.28 2.28 0 0 0-1.236 2.027V20.5h13.475v-3.143a2.283 2.283 0 0 0-1.235-2.05M10.625 27.971v5.74h.898v-4.288l1.786 3.69h.623l1.787-3.69.008 4.288h.88v-5.74h-1.123l-1.86 3.813-1.867-3.813h-1.132zm6.808 0v.87h1.786v4.87h.954v-4.87h1.795v-.87h-4.535zm6.217 2.108v-1.247h2.708v-.87h-3.59v3.043c.405-.05 1.197-.082 1.56-.082.777 0 1.254.36 1.254.951 0 .64-.477 1.034-1.27 1.034-.533 0-1.123-.222-1.6-.607l-.388.787c.582.394 1.398.656 2.094.656 1.326 0 2.183-.763 2.183-1.935 0-1-.825-1.739-2.11-1.739-.219 0-.59 0-.841.009zm9.984 3.632h-.913v-.533c-.307.386-.8.574-1.423.574-.93 0-1.512-.582-1.512-1.353 0-.795.59-1.304 1.625-1.312h1.302v-.131c0-.55-.348-.877-1.027-.877-.412 0-.84.147-1.27.442l-.38-.656c.599-.36 1.035-.55 1.852-.55 1.108 0 1.73.575 1.738 1.534l.008 2.862zm-2.142-.705c.663 0 1.172-.353 1.22-.828v-.402h-1.164c-.606 0-.889.164-.889.582 0 .394.315.648.833.648zm6.42-2.37l.509-.607c-.397-.459-1.003-.713-1.78-.713-1.277 0-2.166.902-2.166 2.222 0 1.312.89 2.206 2.167 2.206.816 0 1.439-.295 1.827-.812l-.517-.525c-.291.345-.728.525-1.27.525-.744 0-1.277-.566-1.277-1.394s.533-1.394 1.277-1.394c.518-.008.93.18 1.23.492zm4.39 0l.509-.607c-.397-.459-1.003-.713-1.78-.713-1.277 0-2.166.902-2.166 2.222 0 1.312.89 2.206 2.167 2.206.816 0 1.439-.295 1.827-.812l-.517-.525c-.291.345-.728.525-1.27.525-.743 0-1.277-.566-1.277-1.394s.534-1.394 1.277-1.394c.518-.008.93.18 1.23.492z" fill="#004385"/></g></svg>