<svg width="69" height="61" viewBox="0 0 69 61" xmlns="http://www.w3.org/2000/svg"><title>Icon / Withdraw</title><g fill-rule="nonzero" fill="none"><path fill="#004385" d="M12 39.95l.01-2.95 14.99.05V40zM12 46.941L12.01 44l14.99.059V47zM12 52.941L12.01 50l14.99.059V53zM47 39.95l.01-2.95 14.99.05V40zM47 46.941L47.01 44l14.99.059V47zM47 52.941L47.01 50l14.99.059V53zM43 47.602c0-5.952-8.28-5.501-8.28-8.51 0-.959.717-1.677 1.996-1.677 1.32-.007 2.565.636 3.358 1.734l2.466-3.028a6.445 6.445 0 0 0-3.956-2.099V32H35.05v2.147c-2.433.495-4.213 2.68-4.287 5.26 0 5.895 8.28 5.502 8.28 8.463 0 .958-.745 1.811-2.31 1.811-1.728-.094-3.35-.901-4.508-2.242L30 50.803a8.123 8.123 0 0 0 5.051 2.28V55h3.533v-2.166c2.962-.767 4.416-2.97 4.416-5.232z"/><path d="M65.07 28H9.93a3.925 3.925 0 0 0-2.779 1.154A3.947 3.947 0 0 0 6 31.941V57.06c0 1.045.414 2.048 1.151 2.787A3.925 3.925 0 0 0 9.931 61H65.07a3.925 3.925 0 0 0 2.779-1.154A3.947 3.947 0 0 0 69 57.059V31.94A3.936 3.936 0 0 0 65.07 28zM66 56.901A1.097 1.097 0 0 1 64.897 58H10.103A1.1 1.1 0 0 1 9 56.901V32.1A1.1 1.1 0 0 1 10.103 31h54.794A1.105 1.105 0 0 1 66 32.099V56.9z" fill="#004385"/><path d="M4.701 48.171h-.77a1.108 1.108 0 0 1-1.11-1.112V21.94c0-.614.497-1.112 1.11-1.112H59.07a1.108 1.108 0 0 1 1.11 1.112v4.76H63v-4.76a3.947 3.947 0 0 0-1.151-2.787A3.925 3.925 0 0 0 59.069 18H3.93A3.936 3.936 0 0 0 0 21.941V47.06A3.936 3.936 0 0 0 3.93 51h.771v-2.829z" fill="#004385"/><path d="M36.682.028c.256.059.426.215.426.4V3.61h21.728c.643 0 1.164.371 1.164.84v3.104c0 .458-.52.839-1.164.839H37.108v3.182c0 .176-.17.332-.426.4a.923.923 0 0 1-.72-.127l-6.456-4.987A.98.98 0 0 1 29 5.997a.98.98 0 0 1 .506-.864L35.944.155a.923.923 0 0 1 .738-.127z" fill="#000"/></g></svg>