<?xml version="1.0" encoding="UTF-8"?>
<svg width="15px" height="8px" viewBox="0 0 15 8" version="1.1" xmlns="http://www.w3.org/2000/svg" xmlns:xlink="http://www.w3.org/1999/xlink">
    <!-- Generator: Sketch 44.1 (41455) - http://www.bohemiancoding.com/sketch -->
    <title>Path</title>
    <desc>Created with Sketch.</desc>
    <defs></defs>
    <g id="Payment-Methods" stroke="none" stroke-width="1" fill="none" fill-rule="evenodd">
        <g id="Payment-Methods---Interactions---C" transform="translate(-190.000000, -1152.000000)" fill="#004385">
            <g id="FAQ" transform="translate(170.000000, 1050.000000)">
                <path d="M23.9804377,98.6661801 C23.6813651,98.7039881 23.4320063,99.0063994 23.3591831,99.4196101 C23.2863599,99.8328207 23.4060601,100.266113 23.6574052,100.499119 L29.3765486,106.008349 L23.6574052,111.507164 C23.4478395,111.707479 23.3297944,112.051481 23.3479288,112.409025 C23.3660632,112.76657 23.517608,113.083057 23.7452302,113.238752 C23.9728525,113.394448 24.2417921,113.365575 24.4503031,113.163058 L31.0284193,106.831088 C31.2220827,106.645076 31.3380922,106.334911 31.3380922,106.003142 C31.3380922,105.671372 31.2220827,105.361207 31.0284193,105.175195 L24.4503031,98.8432253 C24.3134383,98.7070346 24.1469045,98.6442847 23.9804377,98.6661801 L23.9804377,98.6661801 Z" id="Path" transform="translate(27.338092, 106.000000) scale(1, -1) rotate(90.000000) translate(-27.338092, -106.000000) "></path>
            </g>
        </g>
    </g>
</svg>