<?xml version="1.0" encoding="UTF-8"?>
<svg width="15px" height="8px" viewBox="0 0 15 8" version="1.1" xmlns="http://www.w3.org/2000/svg" xmlns:xlink="http://www.w3.org/1999/xlink">
    <!-- Generator: Sketch 44.1 (41455) - http://www.bohemiancoding.com/sketch -->
    <title>Path</title>
    <desc>Created with Sketch.</desc>
    <defs></defs>
    <g id="Payment-Methods" stroke="none" stroke-width="1" fill="none" fill-rule="evenodd">
        <g id="Payment-Methods---Interactions---C" transform="translate(-190.000000, -1204.000000)" fill="#004385">
            <g id="FAQ" transform="translate(170.000000, 1050.000000)">
                <path d="M23.9804377,150.66618 C23.6813651,150.703988 23.4320063,151.006399 23.3591831,151.41961 C23.2863599,151.832821 23.4060601,152.266113 23.6574052,152.499119 L29.3765486,158.008349 L23.6574052,163.507164 C23.4478395,163.707479 23.3297944,164.051481 23.3479288,164.409025 C23.3660632,164.76657 23.517608,165.083057 23.7452302,165.238752 C23.9728525,165.394448 24.2417921,165.365575 24.4503031,165.163058 L31.0284193,158.831088 C31.2220827,158.645076 31.3380922,158.334911 31.3380922,158.003142 C31.3380922,157.671372 31.2220827,157.361207 31.0284193,157.175195 L24.4503031,150.843225 C24.3134383,150.707035 24.1469045,150.644285 23.9804377,150.66618 L23.9804377,150.66618 Z" id="Path" transform="translate(27.338092, 158.000000) rotate(90.000000) translate(-27.338092, -158.000000) "></path>
            </g>
        </g>
    </g>
</svg>