<?xml version="1.0" encoding="UTF-8"?>
<svg width="101px" height="47px" viewBox="0 0 101 47" version="1.1" xmlns="http://www.w3.org/2000/svg" xmlns:xlink="http://www.w3.org/1999/xlink">
    <!-- Generator: Sketch 44.1 (41455) - http://www.bohemiancoding.com/sketch -->
    <title>Bank wire</title>
    <desc>Created with Sketch.</desc>
    <defs></defs>
    <g id="Payment-Methods" stroke="none" stroke-width="1" fill="none" fill-rule="evenodd">
        <g transform="translate(-204.000000, -487.000000)" id="Types">
            <g transform="translate(170.000000, 460.000000)">
                <g id="Title">
                    <g id="Bank-wire" transform="translate(34.000000, 25.000000)">
                        <g id="Group-2">
                            <g id="bank" transform="translate(0.000000, 2.000000)" fill-rule="nonzero">
                                <circle id="Oval" fill="#013365" cx="23.3151059" cy="23.3151059" r="23.3151059"></circle>
                                <rect id="Rectangle-path" fill="#646B79" x="10.5554499" y="14.7776299" width="25.5503507" height="25.0226011"></rect>
                                <polygon id="Shape" fill="#F1F3F7" points="43.8981646 13.7220391 23.3151059 3.13555048 2.73195571 13.7220391"></polygon>
                                <polygon id="Shape" fill="#FCFCFD" points="11.5799104 11.5799104 23.3151059 5.55711911 35.0502099 11.5799104"></polygon>
                                <g id="Group" transform="translate(5.493577, 13.642382)" fill="#DEDEDF">
                                    <rect id="Rectangle-path" x="0.0014649538" y="0.0796568627" width="35.6401285" height="2.08005127"></rect>
                                    <rect id="Rectangle-path" x="0.0014649538" y="25.1332967" width="35.6401285" height="2.08005127"></rect>
                                </g>
                                <g id="Group" transform="translate(3.662384, 15.748253)" fill="#BDBDBE">
                                    <rect id="Rectangle-path" x="0.00100715574" y="25.0143608" width="39.3034286" height="2.08005127"></rect>
                                    <path d="M2.76400158,0.0848757606 L2.76400158,1.32669878 C2.76400158,2.16492703 3.44703629,2.84796174 4.28526454,2.84796174 L9.56294371,2.84796174 C10.401172,2.84796174 11.0842067,2.16492703 11.0842067,1.32669878 L11.0842067,0.0848757606 L2.76400158,0.0848757606 Z" id="Shape"></path>
                                    <path d="M11.0842067,23.0274256 L11.0842067,21.7856026 C11.0842067,20.9473744 10.401172,20.2643396 9.56294371,20.2643396 L4.28526454,20.2643396 C3.44703629,20.2643396 2.76400158,20.9473744 2.76400158,21.7856026 L2.76400158,23.0274256 L11.0842067,23.0274256 Z" id="Shape"></path>
                                </g>
                                <rect id="Rectangle-path" fill="#DEDEDF" x="7.88548005" y="18.5962151" width="5.43296428" height="17.4475082"></rect>
                                <g id="Group" transform="translate(19.135959, 15.748253)" fill="#BDBDBE">
                                    <path d="M0.0811218165,0.0848757606 L0.0811218165,1.32669878 C0.0811218165,2.16492703 0.764156525,2.84796174 1.60238478,2.84796174 L6.91110266,2.84796174 C7.74933091,2.84796174 8.43236562,2.16492703 8.43236562,1.32669878 L8.43236562,0.0848757606 L0.0811218165,0.0848757606 Z" id="Shape"></path>
                                    <path d="M8.40132691,23.0274256 L8.40132691,21.7856026 C8.40132691,20.9473744 7.7182922,20.2643396 6.88006395,20.2643396 L1.57134607,20.2643396 C0.733117816,20.2643396 0.050083108,20.9473744 0.050083108,21.7856026 L0.050083108,23.0274256 L8.40132691,23.0274256 Z" id="Shape"></path>
                                </g>
                                <rect id="Rectangle-path" fill="#DEDEDF" x="20.6451361" y="18.5962151" width="5.43296428" height="17.4475082"></rect>
                                <g id="Group" transform="translate(31.954305, 15.748253)" fill="#BDBDBE">
                                    <path d="M0.022432105,0.0848757606 L0.022432105,1.32669878 C0.022432105,2.16492703 0.705466813,2.84796174 1.54369506,2.84796174 L6.85241295,2.84796174 C7.6906412,2.84796174 8.37367591,2.16492703 8.37367591,1.32669878 L8.37367591,0.0848757606 L0.022432105,0.0848757606 Z" id="Shape"></path>
                                    <path d="M8.3426372,23.0274256 L8.3426372,21.7856026 C8.3426372,20.9473744 7.65960249,20.2643396 6.82137424,20.2643396 L1.54369506,20.2643396 C0.705466813,20.2643396 0.022432105,20.9473744 0.022432105,21.7856026 L0.022432105,23.0274256 L8.3426372,23.0274256 Z" id="Shape"></path>
                                </g>
                                <rect id="Rectangle-path" fill="#DEDEDF" x="33.4358308" y="18.5962151" width="5.43296428" height="17.4475082"></rect>
                            </g>
                            <text id="Bank-Wire" font-family="Roboto-Black, Roboto" font-size="22" font-weight="700" fill="#004385">
                                <tspan x="49.9599609" y="20">Bank </tspan>
                                <tspan x="52.6616211" y="45">Wire</tspan>
                            </text>
                        </g>
                    </g>
                </g>
            </g>
        </g>
    </g>
</svg>