<?xml version="1.0" encoding="UTF-8"?>
<svg width="125px" height="27px" viewBox="0 0 125 27" version="1.1" xmlns="http://www.w3.org/2000/svg" xmlns:xlink="http://www.w3.org/1999/xlink">
    <!-- Generator: Sketch 44.1 (41455) - http://www.bohemiancoding.com/sketch -->
    <title>Payment / Bitcoin</title>
    <desc>Created with Sketch.</desc>
    <defs></defs>
    <g id="Payment-Methods" stroke="none" stroke-width="1" fill="none" fill-rule="evenodd">
        <g id="Payment-Methods---Interactions---C" transform="translate(-954.000000, -497.000000)">
            <g id="Types" transform="translate(170.000000, 460.000000)">
                <g id="Title">
                    <g id="Payment-/-Bitcoin" transform="translate(784.000000, 37.000000)">
                        <g id="Page-1">
                            <path d="M25.6660423,16.1809039 C23.9258143,23.1617671 16.8557818,27.4089169 9.87532573,25.6690961 C2.8973127,23.9284609 -1.35105863,16.8584283 0.390390879,9.87878664 C2.12939739,2.89751629 9.19942997,-1.35044788 16.1778502,0.38978013 C23.1587134,2.13000814 27.4058632,9.20085505 25.6660423,16.1809039" id="Fill-1" fill="#F8931A"></path>
                            <path d="M15.9484935,11.1475977 C15.545399,12.7624186 13.0572068,11.9419788 12.2506107,11.7408388 L12.9623371,8.88660423 C13.7689332,9.0877443 16.3682818,9.46315147 15.9484935,11.1475977 M15.5063111,15.7530537 C15.0645358,17.5278909 12.0755293,16.5690147 11.1060668,16.3279723 L11.8914902,13.1809853 C12.8605456,13.422842 15.9680375,13.9020765 15.5063111,15.7530537 M18.7725977,11.1732492 C19.0319625,9.43953583 17.71193,8.50753257 15.9065554,7.8857899 L16.4924674,5.5372557 L15.0629072,5.18098534 L14.4928746,7.46763029 C14.1170603,7.37398208 13.7310668,7.28562704 13.3479235,7.19808632 L13.9216205,4.89637622 L12.4932818,4.54010586 L11.9073697,6.88782573 C11.5962948,6.81697883 11.2909202,6.74694625 10.9945033,6.67324919 L10.9961319,6.6659202 L9.02463355,6.17365635 L8.64434039,7.70052932 C8.64434039,7.70052932 9.70500814,7.94360749 9.68220684,7.95867264 C10.2616042,8.10321661 10.3662459,8.48635993 10.3487378,8.79010586 L9.68139251,11.4655945 C9.72170195,11.4757736 9.77341205,11.4908388 9.83041531,11.5132329 C9.78236971,11.5014251 9.73147394,11.4883958 9.67935668,11.4757736 L8.74450326,15.2237378 C8.67365635,15.3996336 8.49368893,15.66307 8.08937296,15.5633143 C8.10321661,15.5840798 7.05028502,15.3039495 7.05028502,15.3039495 L6.3401873,16.9407573 L8.20093648,17.4049267 C8.54662052,17.4916531 8.8857899,17.582044 9.22007329,17.6675489 L8.62805375,20.042956 L10.0559853,20.3992264 L10.6418974,18.0486564 C11.0319625,18.1545195 11.4102199,18.2522394 11.7811482,18.3446661 L11.197272,20.6834283 L12.6268322,21.0396987 L13.2184446,18.6691775 C15.655741,19.1304967 17.4892101,18.9444218 18.2607899,16.7400244 C18.8825326,14.9651873 18.2298453,13.9407573 16.947272,13.2725977 C17.8813111,13.0567997 18.5848941,12.442386 18.7725977,11.1732492" id="Fill-4" fill="#FFFFFF"></path>
                            <path d="M33.8960098,21.999715 C34.6655537,21.999715 35.3907166,21.8103827 36.0719055,21.4390472 C36.7547231,21.0668974 37.3447068,20.5644544 37.8385993,19.9386401 C38.3324919,19.3095684 38.7229642,18.6015065 39.0083876,17.8099756 C39.2934039,17.019259 39.4371336,16.1939332 39.4371336,15.335627 C39.4371336,14.2798453 39.2612378,13.4577769 38.9094463,12.8625 C38.5580619,12.2700733 37.9082248,11.9720277 36.9640065,11.9720277 C36.6541531,11.9720277 36.2559446,12.0310668 35.761645,12.1365228 C35.2653094,12.2484935 34.8214984,12.4809853 34.4241042,12.830741 L32.2490228,21.864943 C32.3797231,21.8885586 32.4961726,21.9101384 32.595114,21.9309039 C32.6920195,21.9537052 32.7991042,21.9695847 32.9053746,21.980171 C33.0185668,21.9927932 33.1476384,21.9993078 33.3035831,21.9993078 C33.4595277,21.9993078 33.6541531,21.999715 33.8960098,21.999715 M38.1818404,7.88326547 C39.2388436,7.88326547 40.1513029,8.07259772 40.9188111,8.44434039 C41.6895765,8.81974756 42.32557,9.32544788 42.8357492,9.96144137 C43.3385993,10.6006922 43.7131922,11.347842 43.955456,12.2041124 C44.195684,13.0628257 44.3162052,13.9858713 44.3162052,14.9736564 C44.3162052,16.4919788 44.0381107,17.9256107 43.4762215,19.2774023 C42.9147394,20.6312296 42.1529316,21.8054967 41.1838762,22.8075326 C40.2156352,23.8079397 39.0727199,24.5962134 37.754316,25.1792752 C36.4379479,25.76193 35.006759,26.0534609 33.470114,26.0534609 C33.2714169,26.0534609 32.9216612,26.0477606 32.4285831,26.0375814 C31.9350977,26.0278094 31.3679153,25.9769137 30.732329,25.8910016 C30.0934853,25.8018322 29.4175896,25.6699104 28.7038274,25.4927932 C27.9904723,25.3193404 27.3129479,25.0766694 26.6749186,24.7680375 L32.3797231,0.79531759 L37.489658,0.00337947883 L35.4473127,8.5103013 C35.8846091,8.3132329 36.3251629,8.1605456 36.7649023,8.04938925 C37.2050489,7.94026873 37.6773616,7.88326547 38.1818404,7.88326547" id="Fill-6" fill="#4D4D4D"></path>
                            <path d="M51.9902687,6.1377443 C51.3090798,6.1377443 50.691816,5.93497557 50.1433632,5.52862378 C49.5908388,5.12471498 49.3176303,4.50297231 49.3176303,3.66502443 C49.3176303,3.20411238 49.4108713,2.77170195 49.5965391,2.3637215 C49.785057,1.95655537 50.0313925,1.60598534 50.3400244,1.30793974 C50.6482492,1.01233713 51.0053339,0.776180782 51.4108713,0.598656352 C51.8188518,0.423167752 52.253298,0.33521987 52.7154316,0.33521987 C53.3962134,0.33521987 54.010627,0.537988599 54.5607085,0.944340391 C55.1087541,1.35272801 55.3844055,1.97447068 55.3844055,2.80793974 C55.3844055,3.27048046 55.2911645,3.70451954 55.1038681,4.11168567 C54.9177932,4.51885179 54.6714577,4.86942182 54.3628257,5.16746743 C54.057044,5.4634772 53.696702,5.69881922 53.2919788,5.87512215 C52.8835912,6.05346091 52.4511808,6.1377443 51.9902687,6.1377443 L51.9902687,6.1377443 Z M49.6152687,25.5949919 L44.7349756,25.5949919 L48.8567182,8.25093648 L53.770399,8.25093648 L49.6152687,25.5949919 Z" id="Fill-8" fill="#4D4D4D"></path>
                            <path d="M58.0476384,3.92972313 L63.1600163,3.13778502 L61.9047231,8.25016287 L67.3790717,8.25016287 L66.3904723,12.2721498 L60.9486971,12.2721498 L59.4991857,18.3393322 C59.3656352,18.8442182 59.2903094,19.3165309 59.2687296,19.755456 C59.2447068,20.1968241 59.3004886,20.5754886 59.4324104,20.8942997 C59.5639251,21.2139251 59.7996743,21.4606678 60.1416938,21.6337134 C60.4820847,21.8112378 60.9694625,21.9004072 61.6083062,21.9004072 C62.134772,21.9004072 62.6482085,21.8503257 63.1441368,21.7509772 C63.637215,21.6536645 64.1364007,21.517671 64.642101,21.3393322 L65.0065147,25.0999186 C64.3477199,25.3417752 63.6335505,25.5498371 62.8631922,25.7249186 C62.0928339,25.902443 61.1799674,25.9875407 60.1258143,25.9875407 C58.6091205,25.9875407 57.4336319,25.7623779 56.5964984,25.3144951 C55.759772,24.863355 55.1689739,24.2460912 54.8151466,23.4655537 C54.465798,22.6874593 54.3098534,21.7904723 54.3538274,20.7794788 C54.3986156,19.7668567 54.5513029,18.7013029 54.8151466,17.5803746 L58.0476384,3.92972313 Z" id="Fill-10" fill="#4D4D4D"></path>
                            <path d="M67.1647394,18.6696254 C67.1647394,17.1753257 67.4065961,15.7669381 67.8894951,14.4477199 C68.371987,13.1276873 69.0670195,11.9733713 69.9684853,10.9831433 C70.867101,9.99739414 71.9615635,9.21644951 73.2506515,8.64315961 C74.5328176,8.07312704 75.9692997,7.78566775 77.5515472,7.78566775 C78.5421824,7.78566775 79.4273616,7.87931596 80.2058632,8.06701954 C80.9880293,8.25635179 81.6948697,8.50105863 82.3345277,8.80806189 L80.6517101,12.6354235 C80.2119707,12.4570847 79.7555375,12.2999186 79.2832248,12.1574104 C78.8113192,12.0120521 78.2343648,11.9420195 77.5527687,11.9420195 C75.9232899,11.9420195 74.6358306,12.5035016 73.6773616,13.6223941 C72.7217427,14.7429153 72.2412866,16.2510586 72.2412866,18.1419381 C72.2412866,19.2632736 72.4835505,20.1692182 72.9688925,20.8626221 C73.4513844,21.5560261 74.3438925,21.9013029 75.6386808,21.9013029 C76.2779316,21.9013029 76.8947883,21.8341205 77.4859935,21.7042345 C78.0812704,21.5723127 78.6069218,21.4061889 79.0698697,21.2099349 L79.4346906,25.1333876 C78.8174267,25.3728013 78.1362378,25.5890065 77.3899023,25.7783388 C76.6411238,25.9611564 75.7506515,26.0564332 74.717671,26.0564332 C73.3544788,26.0564332 72.1997557,25.8565147 71.2559446,25.4640065 C70.3113192,25.0649837 69.5307818,24.5348534 68.9155537,23.8642508 C68.2970684,23.1916124 67.8536645,22.4057818 67.5796417,21.5047231 C67.3052117,20.6036645 67.1647394,19.6561889 67.1647394,18.6696254" id="Fill-12" fill="#4D4D4D"></path>
                            <path d="M91.2849756,11.9420603 C90.5618485,11.9420603 89.9217834,12.152158 89.3745521,12.5670603 C88.8244707,12.9868485 88.3631515,13.514943 87.9910016,14.1505293 C87.6147801,14.7901873 87.3366857,15.4876629 87.1481678,16.2449919 C86.9612785,17.0043567 86.8688518,17.7225977 86.8688518,18.404601 C86.8688518,19.5047638 87.0471906,20.3622557 87.3953176,20.9791124 C87.7487378,21.5923046 88.3855456,21.9009365 89.3085912,21.9009365 C90.0345684,21.9009365 90.6709691,21.6924674 91.2218648,21.2734935 C91.7682818,20.8569625 92.2304153,20.3288681 92.6050081,19.6908388 C92.9787866,19.0552524 93.2605456,18.355741 93.4486564,17.5967834 C93.6335098,16.8398616 93.727158,16.117956 93.727158,15.4371743 C93.727158,14.3394544 93.5504479,13.4803339 93.1982492,12.8642915 C92.847272,12.2506922 92.2084283,11.9420603 91.2849756,11.9420603 M88.8464577,26.0548453 C87.6811482,26.0548453 86.6689332,25.8773208 85.8110342,25.5259365 C84.9547638,25.1753664 84.246702,24.6814739 83.6860342,24.041816 C83.1237378,23.4062296 82.7039495,22.6525651 82.4160831,21.7840798 C82.1282166,20.9160016 81.9897801,19.9542752 81.9897801,18.9013436 C81.9897801,17.5804967 82.2015065,16.2596498 82.6302524,14.9416531 C83.0577769,13.6220277 83.6909202,12.4359528 84.5280537,11.3817997 C85.359487,10.3260179 86.3859528,9.46282573 87.5927932,8.78978013 C88.7992264,8.12121336 90.1868485,7.78489414 91.7454805,7.78489414 C92.8888029,7.78489414 93.8953176,7.96282573 94.7658388,8.3142101 C95.6318811,8.66478013 96.3452362,9.16192997 96.9091612,9.79792345 C97.467386,10.4371743 97.8912459,11.1875814 98.175855,12.0572883 C98.4629072,12.9237378 98.604601,13.8875 98.604601,14.9416531 C98.604601,16.2584283 98.3953176,17.5796824 97.9800081,18.9005293 C97.5646987,20.2156759 96.9474349,21.404601 96.1331026,22.4607899 C95.320399,23.5153502 94.3045195,24.3781352 93.0838355,25.0483306 C91.8651873,25.7189332 90.4506922,26.0548453 88.8464577,26.0548453" id="Fill-14" fill="#4D4D4D"></path>
                            <path d="M106.294463,6.1377443 C105.613681,6.1377443 104.996417,5.93497557 104.449593,5.52862378 C103.899104,5.12471498 103.623453,4.50297231 103.623453,3.66502443 C103.623453,3.20411238 103.718322,2.77170195 103.904397,2.3637215 C104.090472,1.95655537 104.338029,1.60598534 104.646661,1.30793974 C104.953664,1.01233713 105.314007,0.776180782 105.71873,0.598656352 C106.124267,0.423167752 106.558306,0.33521987 107.018811,0.33521987 C107.701629,0.33521987 108.318078,0.537988599 108.866938,0.944340391 C109.416205,1.35272801 109.693078,1.97447068 109.693078,2.80793974 C109.693078,3.27048046 109.594544,3.70451954 109.410098,4.11168567 C109.225651,4.51885179 108.977687,4.86942182 108.670684,5.16746743 C108.361238,5.4634772 108.004967,5.69881922 107.599837,5.87512215 C107.190635,6.05346091 106.758225,6.1377443 106.294463,6.1377443 L106.294463,6.1377443 Z M103.923127,25.5949919 L99.0391694,25.5949919 L103.160505,8.25093648 L108.076629,8.25093648 L103.923127,25.5949919 Z" id="Fill-16" fill="#4D4D4D"></path>
                            <path d="M111.594381,9.03961726 C111.964495,8.93131107 112.378583,8.80101792 112.828094,8.6593241 C113.280049,8.51763029 113.784528,8.38611564 114.348046,8.26722313 C114.905456,8.14425896 115.534528,8.04491042 116.226303,7.96795603 C116.917264,7.88937296 117.706352,7.85109935 118.581352,7.85109935 C121.155456,7.85109935 122.930293,8.60069218 123.909528,10.095399 C124.888355,11.5901059 125.057736,13.6353013 124.422964,16.2285423 L122.177443,25.5933632 L117.264984,25.5933632 L119.440879,16.4252036 C119.573616,15.8531352 119.67785,15.2993893 119.755212,14.7590798 C119.832573,14.222842 119.828502,13.7501221 119.737296,13.3417345 C119.65057,12.9378257 119.446173,12.6072068 119.129397,12.3510993 C118.807329,12.0990635 118.320765,11.9724349 117.660749,11.9724349 C117.024756,11.9724349 116.376954,12.0408388 115.716124,12.1727606 L112.517427,25.5921417 L107.602524,25.5921417 L111.594381,9.03961726 Z" id="Fill-18" fill="#4D4D4D"></path>
                        </g>
                    </g>
                </g>
            </g>
        </g>
    </g>
</svg>