<?xml version="1.0" encoding="UTF-8"?>
<svg width="125px" height="30px" viewBox="0 0 125 30" version="1.1" xmlns="http://www.w3.org/2000/svg" xmlns:xlink="http://www.w3.org/1999/xlink">
    <!-- Generator: Sketch 44.1 (41455) - http://www.bohemiancoding.com/sketch -->
    <title>Payment / EcoPayz</title>
    <desc>Created with Sketch.</desc>
    <defs></defs>
    <g id="Payment-Methods" stroke="none" stroke-width="1" fill="none" fill-rule="evenodd">
        <g transform="translate(-1038.000000, -495.000000)" id="Types">
            <g transform="translate(170.000000, 460.000000)">
                <g id="Title">
                    <g id="Payment-/-EcoPayz" transform="translate(868.000000, 35.000000)">
                        <g id="ecoPayz-logo">
                            <path d="M21.4978754,0.238668555 C9.61366856,0.238668555 0,5.87004249 0,12.8608357 C0,15.8218839 1.73902266,18.5403683 4.68590652,20.7252125 C3.23654391,18.9288244 2.41536827,16.9383853 2.41536827,14.8024079 C2.41536827,7.56905099 11.8360482,1.69475921 23.4302408,1.69475921 C30.9182011,1.69475921 37.4883144,4.12216714 41.2082153,7.81196884 C37.8746459,3.34560907 30.2900142,0.238668555 21.4978754,0.238668555" id="Fill-1" fill="#84C43F"></path>
                            <path d="M11.9313031,11.325779 C12.5495751,10.8123229 13.3172805,10.5552408 14.2340652,10.5552408 C15.1296034,10.5552408 15.8919972,10.8169263 16.5208924,11.3402975 C17.1497875,11.8636686 17.4964589,12.5322238 17.5605524,13.3463173 L10.7478754,13.3463173 C10.9185552,12.513102 11.3126771,11.8395892 11.9313031,11.325779 Z M19.6072946,16.4284703 C20.4812323,16.4284703 21.1848442,16.2443343 21.7181303,15.8760623 C22.3364023,15.4688385 22.6458924,14.8778329 22.6458924,14.1023371 C22.6458924,12.6682011 22.1763456,11.3402975 21.2386686,10.1189802 C20.2999292,8.898017 19.0956091,7.97733711 17.6242918,7.35694051 C16.6009207,6.9305949 15.4599858,6.71706799 14.2021955,6.71706799 C11.6646601,6.71706799 9.58073654,7.54143059 7.94936261,9.18873938 C6.31834278,10.8364023 5.50283286,12.8229462 5.50283286,15.1490793 C5.50283286,17.4946884 6.35516997,19.4667139 8.06161473,21.065864 C9.76699717,22.6650142 11.8994334,23.4645892 14.4582153,23.4645892 C15.822238,23.4645892 17.1334986,23.2708924 18.3919972,22.8831445 C19.8842068,22.4376771 20.9716714,21.7882436 21.6543909,20.9351983 C22.0378895,20.4699008 22.2298159,20.0046034 22.2298159,19.5396601 C22.2298159,18.3183428 21.5474504,17.7078612 20.1830737,17.7078612 C19.8842068,17.7078612 19.1165014,17.9649433 17.8803116,18.4783994 C16.6434136,18.9922096 15.5881728,19.2489377 14.713881,19.2489377 C13.6689093,19.2489377 12.7839943,19.006728 12.0594901,18.5219547 C11.3342776,18.0375354 10.9185552,17.3399433 10.8119688,16.4284703 L19.6072946,16.4284703 L19.6072946,16.4284703 Z" id="Fill-2" fill="#1A437C"></path>
                            <path d="M25.5237252,21.0223088 C27.1016289,22.6313739 29.190864,23.4355524 31.7924929,23.4355524 C33.348796,23.4355524 34.6494334,23.2029037 35.6944051,22.7379603 C37.1441218,22.078966 37.8693343,21.2744334 37.8693343,20.3247167 C37.8693343,19.7623938 37.6823654,19.282932 37.3094901,18.8852691 C36.9362606,18.4883144 36.4511331,18.2893059 35.8544618,18.2893059 C35.4490085,18.2893059 34.9373229,18.4054533 34.319051,18.638102 C33.7004249,18.8707507 33.0286827,18.9872521 32.3041785,18.9872521 C31.0672805,18.9872521 30.1080028,18.5995042 29.4256374,17.8240085 C28.8286119,17.1260623 28.5300992,16.1958215 28.5300992,15.032932 C28.5300992,13.9281161 28.8179887,13.0074363 29.3937677,12.2705382 C30.0332861,11.4564448 30.9394476,11.0495751 32.1122521,11.0495751 C32.8367564,11.0495751 33.5244334,11.1706799 34.1752833,11.4128895 C34.8254249,11.6554533 35.3530453,11.776204 35.7584986,11.776204 C36.3764164,11.776204 36.8884561,11.5828612 37.2935552,11.1947592 C37.6983003,10.8073654 37.901204,10.3325071 37.901204,9.77018414 C37.901204,8.68484419 37.1975921,7.87075071 35.7903683,7.32790368 C34.7453966,6.94015581 33.5194759,6.74610482 32.1122521,6.74610482 C29.4256374,6.74610482 27.2719547,7.52691218 25.6515581,9.08675637 C24.0311615,10.6473088 23.2209632,12.6586402 23.2209632,15.1200425 C23.2209632,17.5042493 23.9886686,19.4720255 25.5237252,21.0223088" id="Fill-3" fill="#1A437C"></path>
                            <path d="M44.1696176,12.3870397 C44.7878895,11.5538244 45.6618272,11.1366856 46.7924929,11.1366856 C47.9008499,11.1366856 48.7641643,11.5633853 49.3827904,12.4160765 C49.9373229,13.1529745 50.2145892,14.0442635 50.2145892,15.0910057 C50.2145892,16.1766997 49.9475921,17.0782578 49.4150142,17.7949717 C48.7963881,18.6483711 47.9220963,19.0743626 46.7924929,19.0743626 C45.6834278,19.0743626 44.8197592,18.6483711 44.2018414,17.7949717 C43.6469547,17.0584278 43.3700425,16.1572238 43.3700425,15.0910057 C43.3700425,14.0251416 43.6363314,13.1239377 44.1696176,12.3870397 Z M40.427762,21.0513456 C42.0906516,22.6993626 44.2121105,23.523017 46.7924929,23.523017 C49.3934136,23.523017 51.5148725,22.7085694 53.1568697,21.0803824 C54.7347734,19.4915014 55.5237252,17.5042493 55.5237252,15.1200425 C55.5237252,12.7167139 54.7241501,10.7106941 53.125,9.10127479 C51.5258499,7.49256374 49.4150142,6.68803116 46.7924929,6.68803116 C44.2121105,6.68803116 42.1069405,7.49787535 40.4755666,9.1157932 C38.8445467,10.7347734 38.0290368,12.7358357 38.0290368,15.1200425 C38.0290368,17.4851275 38.8286119,19.4624646 40.427762,21.0513456 L40.427762,21.0513456 Z" id="Fill-4" fill="#1A437C"></path>
                            <path d="M62.7839943,19.8735836 L62.7839943,16.2538952 L66.3657932,16.2538952 C68.881728,16.2538952 70.8643768,15.6242918 72.3148017,14.3640227 C73.7645184,13.1044618 74.4897309,11.3307365 74.4897309,9.04320113 C74.4897309,6.73689802 73.6901558,4.94369688 72.0910057,3.66430595 C70.5768414,2.44298867 68.529745,1.83250708 65.9500708,1.83250708 L61.1526204,1.83250708 C59.766289,1.83250708 58.8070113,2.08427762 58.2740793,2.58746459 C57.7411473,3.09100567 57.4745042,3.97167139 57.4745042,5.22981586 L57.4745042,19.8640227 C57.4745042,22.148017 58.3590652,23.2903683 60.1292493,23.2903683 C61.8987252,23.2903683 62.7839943,22.151204 62.7839943,19.8735836 Z M62.7839943,6.28116147 L65.0867564,6.28116147 C67.5173513,6.28116147 68.7326487,7.20184136 68.7326487,9.04320113 C68.7326487,10.9235127 67.5173513,11.8636686 65.0867564,11.8636686 L62.7839943,11.8636686 L62.7839943,6.28116147 L62.7839943,6.28116147 Z" id="Fill-5" fill="#84C43F"></path>
                            <path d="M89.4320113,23.2903683 C91.1373938,23.2903683 91.9904391,22.14483 91.9904391,19.8533994 L91.9904391,10.3866856 C91.9904391,8.11508499 91.1373938,6.97875354 89.4320113,6.97875354 C88.3870397,6.97875354 87.565864,7.47308782 86.9691926,8.46175637 C85.924221,7.3378187 84.5385977,6.77549575 82.8116147,6.77549575 C80.4447592,6.77549575 78.4936261,7.64766289 76.9585694,9.39199717 C75.5081445,11.0205382 74.7836402,12.9298867 74.7836402,15.1200425 C74.7836402,17.2910765 75.4762748,19.180949 76.8626062,20.7896601 C78.3764164,22.5343484 80.2953258,23.4065156 82.6196884,23.4065156 C84.4532578,23.4065156 85.9029745,22.8155099 86.9691926,21.6331445 C87.4808782,22.7379603 88.3016997,23.2903683 89.4320113,23.2903683 Z M80.9525496,12.4741501 C81.5676346,11.6795326 82.4058074,11.2822238 83.467068,11.2822238 C84.5488669,11.2822238 85.3870397,11.6795326 85.9812323,12.4741501 C86.4904391,13.1720963 86.7453966,14.0347025 86.7453966,15.0619688 C86.7453966,16.0895892 86.4904391,16.9617564 85.9812323,17.6788244 C85.3870397,18.4929178 84.5488669,18.8997875 83.467068,18.8997875 C82.3845609,18.8997875 81.5357649,18.4929178 80.9203258,17.6788244 C80.3898725,16.9617564 80.125,16.0895892 80.125,15.0619688 C80.125,14.0541785 80.4008499,13.1915722 80.9525496,12.4741501 L80.9525496,12.4741501 Z" id="Fill-6" fill="#84C43F"></path>
                            <path d="M103.984065,8.83958924 L100.817989,16.3413598 L97.8753541,9.24681303 C97.5555949,8.45219547 97.2677054,7.91926346 97.0116856,7.64766289 C96.5849858,7.20184136 95.9989377,6.97875354 95.2528329,6.97875354 C94.5276204,6.97875354 93.9252833,7.20184136 93.4458215,7.64766289 C92.9660057,8.09313031 92.7259207,8.64518414 92.7259207,9.30417847 C92.7259207,9.76912181 92.8218839,10.2053824 93.0138102,10.6126062 L98.2252125,21.6866147 L96.095255,25.8987252 C95.8105524,26.4964589 95.6685552,27.0265581 95.6685552,27.4893768 C95.6685552,28.1837819 95.9029745,28.7330028 96.3721671,29.138102 C96.8410057,29.5424929 97.4596317,29.7450425 98.2273371,29.7450425 C99.1437677,29.7450425 99.9008499,29.115085 100.497875,27.85517 L108.397663,10.8459632 C108.674575,10.2453966 108.813739,9.70254958 108.813739,9.2177762 C108.813739,7.72521246 107.960694,6.97875354 106.254958,6.97875354 C105.274079,6.97875354 104.516997,7.59950425 103.984065,8.83958924" id="Fill-8" fill="#84C43F"></path>
                            <path d="M121.520538,18.6961756 L116.413952,18.6961756 L123.278683,10.6756374 C123.978399,9.86048159 124.328258,9.17174221 124.328258,8.60906516 C124.328258,7.98796034 124.061261,7.59490085 123.528683,7.42988669 C122.995397,7.26522663 122.174221,7.18236544 121.065864,7.18236544 L112.782224,7.18236544 C110.586048,7.18236544 109.48796,7.89022663 109.48796,9.30488669 C109.48796,10.7397309 110.575425,11.4564448 112.750354,11.4564448 L117.195822,11.4564448 L110.095609,19.8013456 C109.583924,20.4022663 109.327904,21.003187 109.327904,21.6037535 C109.327904,22.5733003 110.234065,23.0577195 112.046742,23.0577195 L121.481586,23.0577195 C123.656516,23.0577195 124.74398,22.3406516 124.74398,20.9061615 C124.74398,19.4330737 123.669618,18.6961756 121.520538,18.6961756" id="Fill-10" fill="#84C43F"></path>
                        </g>
                    </g>
                </g>
            </g>
        </g>
    </g>
</svg>