<?xml version="1.0" encoding="UTF-8"?>
<svg width="125px" height="32px" viewBox="0 0 125 32" version="1.1" xmlns="http://www.w3.org/2000/svg" xmlns:xlink="http://www.w3.org/1999/xlink">
    <!-- Generator: Sketch 44.1 (41455) - http://www.bohemiancoding.com/sketch -->
    <title>Payment / Ethereum</title>
    <desc>Created with Sketch.</desc>
    <defs></defs>
    <g id="Payment-Methods" stroke="none" stroke-width="1" fill="none" fill-rule="evenodd">
        <g id="Payment-Methods---Interactions---C" transform="translate(-1123.000000, -493.000000)">
            <g id="Types" transform="translate(170.000000, 460.000000)">
                <g id="Title">
                    <g id="Payment-/-Ethereum" transform="translate(953.000000, 33.000000)">
                        <g id="Group-2">
                            <path d="M35.3634992,18.744528 C35.3634992,18.9608337 35.1815988,19.1368966 34.9643288,19.1368966 L27.2739819,19.1368966 C27.4659879,21.0283144 28.8959276,22.7537301 30.9069382,22.7537301 C32.2812971,22.7537301 33.3019608,22.2305719 34.0699849,21.1389824 C34.1811463,20.9880714 34.3478884,20.8924945 34.5601056,20.9830411 C34.6763198,21.0333447 34.7571644,21.1389824 34.7773756,21.2597112 C34.7975867,21.3854704 34.7622172,21.4558955 34.7268477,21.5263206 C33.9537707,22.8694285 32.4126697,23.5284065 30.9018854,23.5284065 C28.3148567,23.5284065 26.4705882,21.2244986 26.4705882,18.7596191 C26.4705882,16.2947395 28.3148567,13.9908316 30.9018854,13.9908316 C33.488914,13.9858013 35.3584465,16.2846788 35.3634992,18.744528 L35.3634992,18.744528 Z M34.5398944,18.3722808 C34.3731523,16.480863 32.9179487,14.7554473 30.9069382,14.7554473 C28.8959276,14.7554473 27.4659879,16.480863 27.2739819,18.3722808 L34.5398944,18.3722808 Z M44.696003,14.1769552 C44.9183258,14.1769552 45.0800151,14.3681091 45.0800151,14.559263 C45.0800151,14.7805992 44.913273,14.9415709 44.696003,14.9415709 L42.6344646,14.9415709 L42.6344646,22.9951877 C42.6344646,23.1863416 42.4677225,23.3774955 42.2504525,23.3774955 C42.0281297,23.3774955 41.8664404,23.1863416 41.8664404,22.9951877 L41.8664404,14.9415709 L39.8857466,14.9415709 C39.6634238,14.9415709 39.5017345,14.7755688 39.5017345,14.559263 C39.5017345,14.3681091 39.6684766,14.1769552 39.8857466,14.1769552 L41.8664404,14.1769552 L41.8664404,11.2291604 C41.8664404,11.0430369 41.9927602,10.8720044 42.1746606,10.8418222 C42.4323529,10.8015793 42.6344646,10.9776421 42.6344646,11.2190997 L42.6344646,14.1769552 L44.696003,14.1769552 Z M57.2723982,18.0704589 L57.2723982,22.9499144 C57.2723982,23.1712505 57.0803922,23.3322222 56.8883861,23.3322222 C56.6660633,23.3322222 56.5043741,23.1662201 56.5043741,22.9499144 L56.5043741,18.0704589 C56.5043741,16.425529 55.5696078,14.7805992 53.7253394,14.7805992 C51.3606335,14.7805992 50.3399698,16.8380191 50.4763952,18.9457426 C50.4763952,19.0010767 50.5016591,19.2475646 50.5016591,19.2727165 L50.5016591,22.9348233 C50.5016591,23.1209468 50.3753394,23.2919793 50.1934389,23.3221615 C49.9357466,23.3624044 49.733635,23.1863416 49.733635,22.944884 L49.733635,6.91813635 C49.733635,6.72698242 49.9003771,6.5358285 50.1176471,6.5358285 C50.3399698,6.5358285 50.5016591,6.72698242 50.5016591,6.91813635 L50.5016591,15.9878871 C51.1635747,14.8107814 52.3459276,14.0159835 53.7202866,14.0159835 C55.9788839,14.0159835 57.2723982,15.9878871 57.2723982,18.0704589 L57.2723982,18.0704589 Z M71.061463,18.744528 C71.061463,18.9608337 70.8795626,19.1368966 70.6622926,19.1368966 L62.9668929,19.1368966 C63.1588989,21.0283144 64.5888386,22.7537301 66.5998492,22.7537301 C67.9742081,22.7537301 68.9948718,22.2305719 69.7628959,21.1389824 C69.8740573,20.9880714 70.0407994,20.8924945 70.2530166,20.9830411 C70.3692308,21.0333447 70.4500754,21.1389824 70.4702866,21.2597112 C70.4904977,21.3854704 70.4551282,21.4558955 70.4197587,21.5263206 C69.6466817,22.8694285 68.1055807,23.5284065 66.5947964,23.5284065 C64.0077677,23.5284065 62.1634992,21.2244986 62.1634992,18.7596191 C62.1634992,16.2947395 64.0077677,13.9908316 66.5947964,13.9908316 C69.1868778,13.9858013 71.0564103,16.2846788 71.061463,18.744528 L71.061463,18.744528 Z M70.2328054,18.3722808 C70.0660633,16.480863 68.6108597,14.7554473 66.5998492,14.7554473 C64.5888386,14.7554473 63.1588989,16.480863 62.9668929,18.3722808 L70.2328054,18.3722808 Z M80.5000754,14.5341112 C80.5000754,14.7805992 80.3636501,14.9164191 80.1413273,14.9466013 C77.88273,15.2735751 76.8671192,17.1096589 76.8671192,19.2475646 L76.8671192,22.9096714 C76.8671192,23.095795 76.7407994,23.2668274 76.5588989,23.2970096 C76.3012066,23.3372526 76.099095,23.1611897 76.099095,22.9197322 L76.099095,14.5743541 C76.099095,14.3882306 76.2254148,14.2171981 76.4073152,14.1870159 C76.6650075,14.146773 76.8671192,14.3228358 76.8671192,14.5642934 L76.8671192,16.2645573 C77.4987179,15.1981196 78.7669683,14.1819856 80.0857466,14.1819856 C80.2777526,14.1769552 80.5000754,14.3178055 80.5000754,14.5341112 L80.5000754,14.5341112 Z M93.1320513,18.744528 C93.1320513,18.9608337 92.9501508,19.1368966 92.7328808,19.1368966 L85.0425339,19.1368966 C85.23454,21.0283144 86.6644796,22.7537301 88.6754902,22.7537301 C90.0498492,22.7537301 91.0705128,22.2305719 91.838537,21.1389824 C91.9496983,20.9880714 92.1164404,20.8924945 92.3286576,20.9830411 C92.4448718,21.0333447 92.5257164,21.1389824 92.5459276,21.2597112 C92.5661388,21.3854704 92.5307692,21.4558955 92.4953997,21.5263206 C91.7223228,22.8694285 90.1812217,23.5284065 88.6704374,23.5284065 C86.0834087,23.5284065 84.2391403,21.2244986 84.2391403,18.7596191 C84.2391403,16.2947395 86.0834087,13.9908316 88.6704374,13.9908316 C91.2574661,13.9858013 93.1269985,16.2846788 93.1320513,18.744528 L93.1320513,18.744528 Z M92.3084465,18.3722808 C92.1417044,16.480863 90.6865008,14.7554473 88.6754902,14.7554473 C86.6644796,14.7554473 85.23454,16.480863 85.0425339,18.3722808 L92.3084465,18.3722808 L92.3084465,18.3722808 Z M105.546757,14.6296882 L105.546757,22.9951877 C105.546757,23.2165238 105.354751,23.3774955 105.162745,23.3774955 C104.940422,23.3774955 104.778733,23.2114934 104.778733,22.9951877 L104.778733,21.4055918 C104.147134,22.6682138 103.015309,23.5686494 101.58537,23.5686494 C99.3015083,23.5686494 98.0332579,21.5967458 98.0332579,19.514174 L98.0332579,14.6095667 C98.0332579,14.4184128 98.2,14.2272589 98.41727,14.2272589 C98.6395928,14.2272589 98.8012821,14.4184128 98.8012821,14.6095667 L98.8012821,19.514174 C98.8012821,21.1591039 99.7360483,22.8040337 101.580317,22.8040337 C104.167345,22.8040337 104.77368,20.3944882 104.77368,17.7334243 L104.77368,14.6095667 C104.77368,14.3882306 104.996003,14.1618641 105.268854,14.24235 C105.435596,14.297684 105.546757,14.4586557 105.546757,14.6296882 L105.546757,14.6296882 Z M125,18.0402767 L125,22.944884 C125,23.1662201 124.807994,23.3271918 124.615988,23.3271918 C124.393665,23.3271918 124.231976,23.1611897 124.231976,22.944884 L124.231976,18.0402767 C124.231976,16.3953468 123.29721,14.7805992 121.452941,14.7805992 C119.138763,14.7805992 118.259578,17.2454788 118.259578,19.1620484 L118.259578,22.944884 C118.259578,23.1662201 118.067572,23.3271918 117.875566,23.3271918 C117.653243,23.3271918 117.491554,23.1611897 117.491554,22.944884 L117.491554,18.0402767 C117.491554,16.3953468 116.556787,14.7805992 114.712519,14.7805992 C112.373077,14.7805992 111.407994,16.6166829 111.493891,19.0564107 C111.493891,19.1117447 111.519155,19.2224128 111.493891,19.2475646 L111.493891,22.9348233 C111.493891,23.1209468 111.367572,23.2919793 111.180618,23.3221615 C110.922926,23.3624044 110.720814,23.1863416 110.720814,22.944884 L110.720814,14.5743541 C110.720814,14.3882306 110.847134,14.2171981 111.029035,14.1870159 C111.286727,14.146773 111.488839,14.3228358 111.488839,14.5642934 L111.488839,15.9627353 C112.150754,14.7856295 113.333107,14.0159835 114.707466,14.0159835 C116.273831,14.0159835 117.486501,15.0019353 117.981674,16.4557112 C118.613273,15.0321175 119.851207,14.0159835 121.447888,14.0159835 C123.706486,14.0159835 125,15.9577049 125,18.0402767 L125,18.0402767 Z" id="Shape" fill="#3C3C3B" fill-rule="nonzero"></path>
                            <g id="ethereum-seeklogo.com" fill-rule="nonzero" fill="#010101">
                                <g id="Group" opacity="0.6" transform="translate(0.297968, 11.546181)">
                                    <polygon id="Shape" points="9.64741947 0.0150930472 0.0226998105 4.38075695 9.64741947 10.0519694 19.2683558 4.38075695"></polygon>
                                </g>
                                <g id="Group" opacity="0.45" transform="translate(0.297968, 0.000000)">
                                    <polygon id="Shape" points="0.0226998105 15.9269381 9.64741947 21.5981505 9.64741947 0"></polygon>
                                </g>
                                <g id="Group" opacity="0.8" transform="translate(9.945387, 0.000000)">
                                    <polygon id="Shape" points="0 0 0 21.5981505 9.62093636 15.9269381"></polygon>
                                </g>
                                <g id="Group" opacity="0.45" transform="translate(0.297968, 17.734330)">
                                    <polygon id="Shape" points="0.0226998105 0.0113197854 9.64741947 13.5346901 9.64741947 5.68253227"></polygon>
                                </g>
                                <g id="Group" opacity="0.8" transform="translate(9.945387, 17.734330)">
                                    <polygon id="Shape" points="0 5.68253227 0 13.5346901 9.62850296 0.0113197854"></polygon>
                                </g>
                            </g>
                        </g>
                    </g>
                </g>
            </g>
        </g>
    </g>
</svg>