<?xml version="1.0" encoding="UTF-8"?>
<svg width="108px" height="65px" viewBox="0 0 108 65" version="1.1" xmlns="http://www.w3.org/2000/svg" xmlns:xlink="http://www.w3.org/1999/xlink">
    <!-- Generator: Sketch 44.1 (41455) - http://www.bohemiancoding.com/sketch -->
    <title>Payment / MasterCard</title>
    <desc>Created with Sketch.</desc>
    <defs></defs>
    <g id="Payment-Methods" stroke="none" stroke-width="1" fill="none" fill-rule="evenodd">
        <g transform="translate(-370.000000, -477.000000)" id="Types">
            <g transform="translate(170.000000, 460.000000)">
                <g id="Title">
                    <g id="Payment-/-MasterCard" transform="translate(200.000000, 17.000000)">
                        <polyline id="Fill-2" fill="#FF9901" points="75.405177 64.4495133 77.0669912 64.4057965 78.7075221 64.2867257 80.3158407 64.0807965 81.9126549 63.7977876 83.4657522 63.4394248 84.9981416 63.0045575 86.4971681 62.4943363 87.9639823 61.9185398 89.3974336 61.2668142 90.7883186 60.5604425 92.1354867 59.7781416 93.4498673 58.9417699 94.710177 58.0403982 95.9267699 57.0843805 97.1002212 56.0737168 98.2190265 54.9986283 99.2946903 53.8792478 100.304779 52.7057965 101.260796 51.4892035 102.162743 50.229469 102.999115 48.9145133 103.781416 47.5673451 104.487212 46.1770354 105.139513 44.7430088 105.71531 43.2761947 106.225531 41.7771681 106.660398 40.245354 107.018761 38.6916814 107.301195 37.0948673 107.507699 35.4871239 107.627345 33.8465929 107.670487 32.1847788 107.627345 30.5333186 107.507699 28.9037168 107.301195 27.2959735 107.018761 25.7204425 106.660398 24.1667699 106.225531 22.6464602 105.71531 21.1468584 105.139513 19.6909735 104.487212 18.2678761 103.781416 16.8775664 102.999115 15.5413274 102.162743 14.2269469 101.260796 12.9666372 100.304779 11.7603982 99.2946903 10.5875221 98.2190265 9.46871681 97.1002212 8.40340708 95.9267699 7.39331858 94.710177 6.43730088 93.4498673 5.5359292 92.1354867 4.6989823 90.7883186 3.92761062 89.3974336 3.22181416 87.9639823 2.5700885 86.4971681 1.99429204 84.9981416 1.48349558 83.4657522 1.04920354 81.9126549 0.690265487 80.3158407 0.407831858 78.7075221 0.201327434 77.0669912 0.0822566372 75.405177 0.038539823 73.7537168 0.0822566372 72.1137611 0.201327434 70.5054425 0.407831858 68.9195575 0.690265487 67.365885 1.04920354 65.8340708 1.48349558 64.3459735 1.99429204 62.8791593 2.5700885 61.4560619 3.22181416 60.0766814 3.92761062 58.7295133 4.6989823 57.4254867 5.5359292 56.165177 6.43730088 54.9485841 7.39331858 53.7860619 8.40340708 52.6672566 9.46871681 51.6025221 10.5875221 50.5924336 11.7603982 49.6364159 12.9666372 48.7453982 14.2269469 47.9090265 15.5413274 47.1376549 16.8775664 46.4209292 18.2678761 45.7795575 19.6909735 45.2037611 21.1468584 44.704469 22.6464602 44.2696018 24.1667699 43.9112389 25.7204425 43.6288053 27.2959735 43.4223009 28.9037168 43.3026549 30.5333186 43.2595133 32.1847788 43.3026549 33.8465929 43.4223009 35.4871239 43.6288053 37.0948673 43.9112389 38.6916814 44.2696018 40.245354 44.704469 41.7771681 45.2037611 43.2761947 45.7795575 44.7430088 46.4209292 46.1770354 47.1376549 47.5673451 47.9090265 48.9145133 48.7453982 50.229469 49.6364159 51.4892035 50.5924336 52.7057965 51.6025221 53.8792478 52.6672566 54.9986283 53.7860619 56.0737168 54.9485841 57.0843805 56.165177 58.0403982 57.4254867 58.9417699 58.7295133 59.7781416 60.0766814 60.5604425 61.4560619 61.2668142 62.8791593 61.9185398 64.3459735 62.4943363 65.8340708 63.0045575 67.365885 63.4394248 68.9195575 63.7977876 70.5054425 64.0807965 72.1137611 64.2867257 73.7537168 64.4057965 75.405177 64.4495133"></polyline>
                        <polyline id="Fill-3" fill="#CC0D00" points="32.3193805 64.4495133 33.9708407 64.4057965 35.6113717 64.2867257 37.219115 64.0807965 38.805 63.7977876 40.3586726 63.4394248 41.8904867 63.0045575 43.3785841 62.4943363 44.8453982 61.9185398 46.2684956 61.2668142 47.6484513 60.5604425 48.9956195 59.7781416 50.2990708 58.9417699 51.5593805 58.0403982 52.7759735 57.0843805 53.9384956 56.0737168 55.0573009 54.9986283 56.1220354 53.8792478 57.1321239 52.7057965 58.0881416 51.4892035 58.9791593 50.229469 59.815531 48.9145133 60.5869027 47.5673451 61.3042035 46.1770354 61.945 44.7430088 62.5207965 43.2761947 63.0206637 41.7771681 63.4549558 40.245354 63.8133186 38.6916814 64.0957522 37.0948673 64.3022566 35.4871239 64.4219027 33.8465929 64.4656195 32.1847788 64.4219027 30.5333186 64.3022566 28.9037168 64.0957522 27.2959735 63.8133186 25.7204425 63.4549558 24.1667699 63.0206637 22.6464602 62.5207965 21.1468584 61.945 19.6909735 61.3042035 18.2678761 60.5869027 16.8775664 59.815531 15.5413274 58.9791593 14.2269469 58.0881416 12.9666372 57.1321239 11.7603982 56.1220354 10.5875221 55.0573009 9.46871681 53.9384956 8.40340708 52.7759735 7.39331858 51.5593805 6.43730088 50.2990708 5.5359292 48.9956195 4.6989823 47.6484513 3.92761062 46.2684956 3.22181416 44.8453982 2.5700885 43.3785841 1.99429204 41.8904867 1.48349558 40.3586726 1.04920354 38.805 0.690265487 37.219115 0.407831858 35.6113717 0.201327434 33.9708407 0.0822566372 32.3193805 0.038539823 30.6575664 0.0822566372 29.0170354 0.201327434 27.409292 0.407831858 25.8119027 0.690265487 24.2588053 1.04920354 22.7269912 1.48349558 21.2279646 1.99429204 19.7611504 2.5700885 18.3271239 3.22181416 16.9362389 3.92761062 15.589646 4.6989823 14.2746903 5.5359292 13.0143805 6.43730088 11.7977876 7.39331858 10.6243363 8.40340708 9.50553097 9.46871681 8.42986726 10.5875221 7.41977876 11.7603982 6.46376106 12.9666372 5.56238938 14.2269469 4.72544248 15.5413274 3.94314159 16.8775664 3.23734513 18.2678761 2.58561947 19.6909735 2.00982301 21.1468584 1.49902655 22.6464602 1.06473451 24.1667699 0.70579646 25.7204425 0.423362832 27.2959735 0.216858407 28.9037168 0.0977876106 30.5333186 0.0540707965 32.1847788 0.0977876106 33.8465929 0.216858407 35.4871239 0.423362832 37.0948673 0.70579646 38.6916814 1.06473451 40.245354 1.49902655 41.7771681 2.00982301 43.2761947 2.58561947 44.7430088 3.23734513 46.1770354 3.94314159 47.5673451 4.72544248 48.9145133 5.56238938 50.229469 6.46376106 51.4892035 7.41977876 52.7057965 8.42986726 53.8792478 9.50553097 54.9986283 10.6243363 56.0737168 11.7977876 57.0843805 13.0143805 58.0403982 14.2746903 58.9417699 15.589646 59.7781416 16.9362389 60.5604425 18.3271239 61.2668142 19.7611504 61.9185398 21.2279646 62.4943363 22.7269912 63.0045575 24.2588053 63.4394248 25.8119027 63.7977876 27.409292 64.0807965 29.0170354 64.2867257 30.6575664 64.4057965 32.3193805 64.4495133"></polyline>
                        <polyline id="Fill-4" fill="#FF9901" points="50.0925664 12.3908407 67.2030973 12.3908407 67.2030973 10.6415929 51.5703097 10.6415929 50.0925664 12.3908407"></polyline>
                        <polyline id="Fill-5" fill="#FF9901" points="47.5288053 16.2799115 67.2030973 16.2799115 67.2030973 14.5312389 48.5607522 14.5312389 47.5288053 16.2799115"></polyline>
                        <polyline id="Fill-6" fill="#FF9901" points="45.6167699 20.1580531 67.2030973 20.1580531 67.2030973 18.4088053 46.3772124 18.4088053 45.6167699 20.1580531"></polyline>
                        <polyline id="Fill-7" fill="#FF9901" points="44.3023894 24.0471239 67.2030973 24.0471239 67.2030973 22.2984513 44.8453982 22.2984513 44.3023894 24.0471239"></polyline>
                        <polyline id="Fill-8" fill="#FF9901" points="45.0628319 42.8419027 67.2571681 42.8419027 67.2571681 41.0926549 44.519823 41.0926549 45.0628319 42.8419027"></polyline>
                        <polyline id="Fill-9" fill="#FF9901" points="46.7033628 46.7309735 67.2571681 46.7309735 67.2571681 44.9817257 45.8882743 44.9817257 46.7033628 46.7309735"></polyline>
                        <polyline id="Fill-10" fill="#FF9901" points="49.0065487 50.6096903 67.2571681 50.6096903 67.2571681 48.8604425 47.9090265 48.8604425 49.0065487 50.6096903"></polyline>
                        <polyline id="Fill-11" fill="#FF9901" points="52.1783186 54.4987611 67.2571681 54.4987611 67.2571681 52.7385841 50.6465044 52.7385841 52.1783186 54.4987611"></polyline>
                        <polyline id="Fill-12" fill="#FF9901" points="43.5310177 27.9258407 67.2030973 27.9258407 67.2030973 26.1765929 43.8675221 26.1765929 43.5310177 27.9258407"></polyline>
                        <polyline id="Fill-13" fill="#FF9901" points="57.9581416 38.9631858 66.9856637 38.9631858 66.9856637 37.2145133 58.2837168 37.2145133 57.9581416 38.9631858"></polyline>
                        <polyline id="Fill-14" fill="#FF9901" points="58.6748673 35.0850442 66.9856637 35.0850442 66.9856637 33.3248673 59.0010177 33.3248673 58.6748673 35.0850442"></polyline>
                        <polygon id="Fill-15" fill="#FF9901" points="45.2802655 33.3248673 45.2802655 35.0850442 43.0420796 35.0850442 42.9333628 33.3248673"></polygon>
                        <g id="Text" stroke-width="1" transform="translate(3.000000, 26.000000)">
                            <path d="M97.9507522,14.7096903 L94.9417699,14.7096903 L95.1592035,13.5040265 L95.1592035,13.3953097 L94.9849115,13.6121681 L94.8008407,13.8083186 L94.6156195,13.9820354 L94.4206195,14.1338938 L94.224469,14.2753982 L94.029469,14.394469 L93.8338938,14.4928319 L93.6273894,14.5900442 L93.420885,14.6665487 L93.2143805,14.7206195 L93.0078761,14.7746903 L92.7910177,14.8074779 L92.5735841,14.8402655 L92.3670796,14.8615487 L92.149646,14.8730531 L91.9322124,14.8730531 L91.3679204,14.8293363 L90.8461947,14.7096903 L90.3681858,14.5250442 L89.9333186,14.2753982 L89.5421681,13.960177 L89.1947345,13.590885 L88.8904425,13.1888053 L88.6298673,12.7326549 L88.4124336,12.2437168 L88.2387168,11.7329204 L88.1190708,11.2008407 L88.0322124,10.6469027 L88,10.0929646 L88.0109292,9.52752212 L88.065,8.97358407 L88.1627876,8.41964602 L88.3255752,7.77884956 L88.5211504,7.17026549 L88.7495133,6.61632743 L89.0210177,6.09517699 L89.3034513,5.60566372 L89.6296018,5.17137168 L89.9661062,4.78022124 L90.324469,4.42185841 L90.7052655,4.10663717 L91.1067699,3.83513274 L91.5197788,3.59641593 L91.9322124,3.41176991 L92.3670796,3.25933628 L92.8013717,3.16154867 L93.2362389,3.09654867 L93.6814602,3.07469027 L93.9966814,3.08561947 L94.3009735,3.11840708 L94.5834071,3.17247788 L94.8439823,3.24840708 L95.0942035,3.33526549 L95.3110619,3.4330531 L95.5284956,3.55269912 L95.7240708,3.67234513 L95.8977876,3.80234513 L96.0605752,3.94384956 L96.2020796,4.08535398 L96.3320796,4.22628319 L96.4407965,4.36721239 L96.5385841,4.50871681 L96.6254425,4.63929204 L96.6910177,4.76929204 L97.4514602,0.5 L100.406372,0.5 L97.9507522,14.7096903 Z" id="Combined-Shape" fill="#FFFFFF"></path>
                            <polyline id="Fill-26" fill="#FF9901" points="92.6443363 11.9884075 92.9486283 11.9665491 93.2310619 11.9015491 93.4916372 11.8250446 93.7418584 11.7059738 93.969646 11.5753986 94.1870796 11.412611 94.3935841 11.227965 94.5782301 11.0323898 94.7410177 10.8149561 94.8928761 10.5756641 95.0343805 10.3260181 95.1540265 10.0654429 95.2627434 9.79393843 95.3496018 9.51150481 95.425531 9.21814197 95.4796018 8.92477914 95.5342478 8.62048711 95.5664602 8.30526587 95.5664602 8.01190304 95.555531 7.70818622 95.5233186 7.42517737 95.4796018 7.15367295 95.4036726 6.89309773 95.3168142 6.64345171 95.2080973 6.42601808 95.0780973 6.21951366 94.9365929 6.04579684 94.7738053 5.89336321 94.5891593 5.76336321 94.3935841 5.67650481 94.1870796 5.62185879 93.9587168 5.60000038 93.665354 5.62185879 93.3944248 5.6655756 93.1442035 5.75243401 92.8939823 5.86115082 92.6771239 6.00265525 92.4596903 6.17637206 92.2750442 6.36101808 92.0903982 6.56694728 91.9270354 6.80623932 91.775177 7.05588534 91.6342478 7.31703578 91.5146018 7.59946941 91.405885 7.89225702 91.3190265 8.18561985 91.2321681 8.50084109 91.1671681 8.81606233 91.1125221 9.29407118 91.1343805 9.81522162 91.2103097 10.3478765 91.3518142 10.8580977 91.5686726 11.3038942 91.8511062 11.662257 92.2100442 11.9015491 92.6443363 11.9884075"></polyline>
                            <path d="M80.6619027,14.754646 L82.6930088,3.11964602 L85.7462832,3.11964602 L85.4201327,5.08575221 L85.5719912,4.86889381 L85.735354,4.67331858 L85.8981416,4.46681416 L86.0609292,4.28216814 L86.4083628,3.93473451 L86.5935841,3.78230088 L86.7885841,3.63044248 L86.9950885,3.49986726 L87.2125221,3.38022124 L87.440885,3.27150442 L87.6796018,3.18464602 L87.940177,3.10871681 L88.2116814,3.05464602 L88.5050442,3.02185841 L88.8093363,3 L88.3203982,5.79212389 L88.0488938,5.79212389 L87.625531,5.8139823 L87.2453097,5.8789823 L86.8973009,5.96584071 L86.5826549,6.07455752 L86.3002212,6.20513274 L86.05,6.36792035 L85.8325664,6.54163717 L85.6375664,6.72628319 L85.4632743,6.93278761 L85.3223451,7.15022124 L85.1917699,7.37800885 L85.0830531,7.61730088 L84.9961947,7.8560177 L84.8656195,8.33402655 L84.8224779,8.57331858 L83.7249558,14.754646 L80.6619027,14.754646 Z" id="Combined-Shape" fill="#FFFFFF"></path>
                            <path d="M79.8972566,12.3646018 L79.4623894,14.7765044 L76.7249115,14.7765044 L76.8008407,14.3312832 L76.8554867,13.9292035 L76.8986283,13.6249115 L76.9423451,13.4621239 L76.7899115,13.6358407 L76.6161947,13.8095575 L76.4102655,13.9729204 L76.1819027,14.1247788 L75.9207522,14.2766372 L75.6492478,14.4072124 L75.3668142,14.5377876 L75.0734513,14.6465044 L74.7588053,14.7437168 L74.4435841,14.8202212 L74.1283628,14.8852212 L73.8027876,14.9283628 L73.4875664,14.9502212 L73.1723451,14.9611504 L72.8680531,14.9283628 L72.5752655,14.8852212 L72.1950442,14.7874336 L71.8470354,14.6787168 L71.5427434,14.5377876 L71.2712389,14.3744248 L71.0325221,14.200708 L70.8150885,14.0051327 L70.6413717,13.7986283 L70.4889381,13.5817699 L70.3589381,13.3534071 L70.2502212,13.114115 L70.1633628,12.8753982 L70.0977876,12.6366814 L70.054646,12.3864602 L70.0218584,12.1368142 L70,11.8975221 L70,11.6588053 L70.0327876,11.2348673 L70.0977876,10.8327876 L70.2065044,10.4525664 L70.3480088,10.0832743 L70.5217257,9.73584071 L70.7173009,9.42061947 L70.9456637,9.11632743 L71.2062389,8.84482301 L71.4777434,8.59517699 L71.7820354,8.36681416 L72.0966814,8.16088496 L72.4228319,7.98659292 L72.7702655,7.83473451 L73.1292035,7.7150885 L73.4984956,7.61730088 L73.8787168,7.55230088 L73.9005752,7.55230088 L73.954646,7.54137168 L74.0311504,7.53044248 L74.1502212,7.51951327 L74.2807965,7.49765487 L74.4326549,7.48730088 L74.5954425,7.46544248 L74.7800885,7.44358407 L74.9653097,7.42172566 L75.1493805,7.39986726 L75.345531,7.38893805 L75.5192478,7.36765487 L75.6929646,7.35672566 L75.8557522,7.34579646 L76.0081858,7.33486726 L76.3774779,7.33486726 L76.6380531,7.34579646 L76.8767699,7.35672566 L77.1160619,7.35672566 L77.3116372,7.36765487 L77.4634956,7.37858407 L77.5722124,7.38893805 L77.605,7.38893805 L77.6268584,7.31300885 L77.6918584,7.11743363 L77.7459292,6.88964602 L77.7677876,6.68314159 L77.724646,6.44442478 L77.6268584,6.22699115 L77.4962832,6.03141593 L77.3225664,5.86862832 L77.1160619,5.72712389 L76.8876991,5.62933628 L76.6271239,5.56433628 L76.3446903,5.54247788 L76.0403982,5.53154867 L75.714823,5.52061947 L75.3777434,5.52061947 L75.0303097,5.53154867 L74.6719469,5.55340708 L74.3239381,5.58561947 L73.9765044,5.61840708 L73.6394248,5.66212389 L73.3138496,5.70526549 L72.9986283,5.75933628 L72.7161947,5.8139823 L72.4556195,5.86862832 L72.2163274,5.93362832 L72.0207522,5.99862832 L71.8688938,6.07455752 L71.7492478,6.14013274 L72.5206195,3.52172566 L72.7593363,3.42393805 L72.9986283,3.33707965 L73.2592035,3.26115044 L73.7809292,3.15243363 L74.0633628,3.10929204 L74.3457965,3.06557522 L74.6391593,3.04371681 L74.9434513,3.02185841 L75.2580973,3.0109292 L75.5842478,3 L76.6271239,3 L77.0073451,3.0109292 L77.3875664,3.02185841 L77.6918584,3.04371681 L78.0180088,3.09836283 L78.3545133,3.17429204 L78.7019469,3.27207965 L79.0390265,3.40207965 L79.3646018,3.55451327 L79.6907522,3.73915929 L79.9950442,3.94566372 L80.2665487,4.18438053 L80.5052655,4.44495575 L80.7226991,4.73831858 L80.8854867,5.06446903 L80.9942035,5.41190265 L81.0597788,5.78119469 L81.0597788,6.19420354 L80.9942035,6.6290708 L79.8972566,12.3646018 Z" id="Combined-Shape-Copy" fill="#FFFFFF"></path>
                            <path d="M70.819292,3.76942478 L70.6777876,3.69349558 L70.5368584,3.62849558 L70.3844248,3.55256637 L70.2216372,3.47606195 L70.0588496,3.41106195 L69.8742035,3.34606195 L69.6889823,3.28048673 L69.4939823,3.21548673 L69.2874779,3.16141593 L69.0809735,3.11769912 L68.8526106,3.07455752 L68.624823,3.04176991 L68.3746018,3.0199115 L68.1249558,2.9980531 L67.3207965,2.9980531 L67.0383628,3.0199115 L66.745,3.05269912 L66.4412832,3.10676991 L66.1369912,3.19362832 L65.8326991,3.31327434 L65.5284071,3.46570796 L65.224115,3.66070796 L64.9307522,3.9 L64.6483186,4.18243363 L64.3768142,4.52986726 L64.1162389,4.9319469 L63.8769469,5.40995575 L63.6491593,5.9529646 L63.4426549,6.56154867 L63.2689381,7.25699115 L63.2033628,7.64756637 L63.1602212,8.02778761 L63.1383628,8.40800885 L63.149292,8.77787611 L63.1820796,9.14716814 L63.2580088,9.49460177 L63.3557965,9.82075221 L63.4754425,10.1463274 L63.6382301,10.4396903 L63.8338053,10.7221239 L64.0615929,10.9723451 L64.3227434,11.2001327 L64.615531,11.395708 L64.9526106,11.5590708 L65.3219027,11.7 L65.7349115,11.7977876 L65.8758407,11.8305752 L66.0392035,11.8633628 L66.2347788,11.884646 L66.4516372,11.9065044 L66.6909292,11.9283628 L67.2120796,11.9283628 L67.4841593,11.9065044 L67.7665929,11.8737168 L68.0490265,11.819646 L68.320531,11.7437168 L68.5920354,11.6568584 L68.8635398,11.5372124 L69.1137611,11.395708 L69.3415487,11.2219912 L69.5589823,11.0264159 L69.0700442,13.9272566 L69.004469,13.9813274 L68.939469,14.0463274 L68.8526106,14.1228319 L68.754823,14.1878319 L68.635177,14.2746903 L68.4833186,14.3506195 L68.3096018,14.4265487 L68.1140265,14.4921239 L67.8643805,14.5680531 L67.5813717,14.6226991 L67.2557965,14.6658407 L66.8755752,14.7095575 L66.4516372,14.7308407 L65.9626991,14.7417699 L65.4087611,14.7308407 L64.8007522,14.6986283 L64.300885,14.6439823 L63.8010177,14.5358407 L63.3011504,14.3724779 L62.8018584,14.1550442 L62.3238496,13.894469 L61.8671239,13.5688938 L61.4328319,13.1886726 L61.0307522,12.7538053 L60.6723894,12.2648673 L60.3680973,11.7218584 L60.1075221,11.1132743 L59.9119469,10.4506195 L59.7813717,9.7229646 L59.7382301,8.95159292 L59.7595133,8.10429204 L59.8791593,7.20234513 L59.9660177,6.75712389 L60.0638053,6.32225664 L60.1725221,5.89889381 L60.2812389,5.49681416 L60.400885,5.11659292 L60.5418142,4.73637168 L60.6833186,4.37800885 L60.835177,4.0409292 L60.9985398,3.70442478 L61.1613274,3.38920354 L61.3459735,3.08548673 L61.5415487,2.80247788 L61.7371239,2.53097345 L61.9539823,2.27039823 L62.1714159,2.03110619 L62.3997788,1.80331858 L62.6494248,1.58588496 L62.8990708,1.37938053 L63.1602212,1.19473451 L63.4317257,1.0210177 L63.7250885,0.858230088 L64.0184513,0.716725664 L64.3227434,0.586725664 L64.6373894,0.467079646 L64.974469,0.358362832 L65.3109735,0.271504425 L65.6589823,0.195575221 L66.0282743,0.13 L66.3975664,0.0759292035 L66.7887168,0.0322123894 L67.1798673,0.0103539823 L67.5923009,0 L67.9403097,0.0103539823 L68.2768142,0.0322123894 L68.6029646,0.065 L68.9285398,0.108716814 L69.2328319,0.151858407 L69.5261947,0.216858407 L69.8086283,0.271504425 L70.0697788,0.336504425 L70.3194248,0.402079646 L70.5368584,0.467079646 L70.7427876,0.532079646 L70.9170796,0.597079646 L71.0689381,0.651725664 L71.1995133,0.695442478 L71.2973009,0.738584071 L71.3623009,0.760442478 L70.819292,3.76942478 Z" id="Combined-Shape" fill="#FFFFFF"></path>
                            <path d="M51.8945133,14.754646 L53.9261947,3.11964602 L57.0438938,3.11964602 L56.6527434,5.08575221 L56.9788938,4.65146018 L57.1307522,4.44495575 L57.2935398,4.26030973 L57.4569027,4.07566372 L57.6196903,3.91287611 L57.7934071,3.74951327 L57.9780531,3.60858407 L58.1736283,3.47800885 L58.3801327,3.36929204 L58.6079204,3.26115044 L58.8581416,3.17429204 L59.1187168,3.10871681 L59.4011504,3.05464602 L59.7054425,3.02185841 L60.0425221,3 L60.1184513,3 L60.1943805,3.0109292 L60.2812389,3.02185841 L60.3571681,3.02185841 L60.4330973,3.03278761 L60.4877434,3.04371681 L60.530885,3.05464602 L60.5418142,3.05464602 L60.5199558,3.08743363 L60.465885,3.16336283 L60.3899558,3.29336283 L60.2921681,3.45672566 L60.1834513,3.64137168 L59.9660177,4.05380531 L59.8791593,4.26030973 L59.7813717,4.56460177 L59.6835841,4.86889381 L59.6076549,5.17318584 L59.5317257,5.45561947 L59.4770796,5.69433628 L59.4339381,5.8899115 L59.4011504,6.02048673 L59.3902212,6.06362832 L59.379292,6.06362832 L59.3470796,6.05269912 L59.3033628,6.04176991 L59.249292,6.03084071 L59.194646,6.03084071 L59.1405752,6.02048673 L59.0968584,6.00955752 L59.064646,6.00955752 L58.640708,6.04176991 L58.2714159,6.09641593 L57.9343363,6.18327434 L57.6306195,6.28106195 L57.3700442,6.40070796 L57.1307522,6.53070796 L56.935177,6.69349558 L56.7614602,6.85685841 L56.6096018,7.04150442 L56.4790265,7.23707965 L56.3703097,7.44358407 L56.2834513,7.66044248 L56.2075221,7.87787611 L56.1528761,8.10623894 L56.0988053,8.33402655 L56.0550885,8.57331858 L55.0122124,14.754646 L51.8945133,14.754646 Z" id="Combined-Shape" fill="#FFFFFF"></path>
                            <polygon id="Fill-20" fill="#FFFFFF" points="44.8762389 9.96420354 44.865885 10.1592035 44.8871681 10.365708 44.930885 10.5722124 45.0068142 10.7787168 45.0936726 10.974292 45.2133186 11.1807965 45.3433186 11.3654425 45.4957522 11.5500885 45.6585398 11.7128761 45.8328319 11.8756637 46.0278319 12.0062389 46.2234071 12.125885 46.4408407 12.2236726 46.6582743 12.2996018 46.875708 12.3433186 47.1575664 12.3864602 47.429646 12.4192478 47.7120796 12.4514602 47.9945133 12.4733186 48.2769469 12.4842478 48.5703097 12.4842478 48.8527434 12.4733186 49.1461062 12.4514602 49.439469 12.4083186 49.7322566 12.3536726 50.0365487 12.2886726 50.3299115 12.190885 50.6342035 12.0712389 50.9494248 11.9412389 51.2537168 11.7675221 51.5683628 11.5828761 51.1340708 14.2547788 50.7860619 14.4290708 50.6123451 14.4940708 50.4495575 14.5590708 50.2867699 14.6137168 50.1124779 14.6677876 49.9393363 14.7115044 49.754115 14.7437168 49.5585398 14.7765044 49.3416814 14.7983628 49.1133186 14.8202212 48.8630973 14.8415044 48.5812389 14.8524336 48.2878761 14.8524336 47.9507965 14.8633628 47.5924336 14.8633628 47.0597788 14.8524336 46.5167699 14.7983628 45.9737611 14.7224336 45.430177 14.5918584 44.8980973 14.4290708 44.3873009 14.2225664 43.8989381 13.9510619 43.4422124 13.6358407 43.0188496 13.2665487 42.6495575 12.8207522 42.3343363 12.3214602 42.0737611 11.7456637 41.889115 11.104292 41.769469 10.3766372 41.7366814 9.5730531 41.7913274 8.6820354 41.834469 8.33460177 41.9000442 7.93252212 41.9869027 7.50858407 42.1059735 7.05243363 42.2693363 6.58535398 42.4649115 6.11827434 42.7145575 5.64026549 43.0188496 5.18411504 43.3662832 4.74924779 43.7902212 4.33623894 44.2682301 3.9669469 44.8112389 3.64137168 45.4411062 3.36986726 46.1474779 3.17429204 46.9297788 3.04371681 47.8098673 3 48.2332301 3.0109292 48.6790265 3.05464602 49.1242478 3.13057522 49.569469 3.23929204 50.0043363 3.40207965 50.4276991 3.59765487 50.8188496 3.85823009 51.1772124 4.16252212 51.5033628 4.53181416 51.7748673 4.96668142 51.9923009 5.46654867 52.1441593 6.04234513 52.2310177 6.6940708 52.2419469 7.43265487 52.1660177 8.25809735 52.0032301 9.17097345 51.9485841 9.83362832 44.930885 9.7789823 45.2133186 7.69323009 49.2870354 7.69323009 49.3088938 7.42172566 49.2979646 7.16115044 49.2761062 6.92185841 49.2329646 6.705 49.1564602 6.49849558 49.080531 6.31384956 48.9723894 6.15048673 48.8630973 5.99862832 48.7330973 5.8680531 48.5921681 5.75933628 48.4288053 5.66212389 48.2660177 5.57526549 48.0923009 5.50969027 47.9185841 5.46654867 47.7333628 5.43376106 47.5383628 5.41190265 47.3318584 5.42283186 47.1362832 5.45561947 46.9516372 5.49876106 46.7664159 5.56433628 46.5823451 5.65119469 46.4189823 5.7489823 46.2561947 5.8680531 46.1146903 5.99862832 45.9737611 6.15048673 45.8431858 6.31384956 45.7235398 6.48756637 45.6263274 6.67221239 45.5285398 6.86778761 45.4520354 7.08522124 45.3870354 7.30207965 45.3433186 7.53044248 44.9090265 9.7789823"></polygon>
                            <polyline id="Stroke-21" stroke="#FFFFFF" stroke-width="0.216" points="44.9090265 9.7789823 44.9090265 9.7789823 44.8762389 9.96420354 44.865885 10.1592035 44.8871681 10.365708 44.930885 10.5722124 45.0068142 10.7787168 45.0936726 10.974292 45.2133186 11.1807965 45.3433186 11.3654425 45.4957522 11.5500885 45.6585398 11.7128761 45.8328319 11.8756637 46.0278319 12.0062389 46.2234071 12.125885 46.4408407 12.2236726 46.6582743 12.2996018 46.875708 12.3433186 47.1575664 12.3864602 47.429646 12.4192478 47.7120796 12.4514602 47.9945133 12.4733186 48.2769469 12.4842478 48.5703097 12.4842478 48.8527434 12.4733186 49.1461062 12.4514602 49.439469 12.4083186 49.7322566 12.3536726 50.0365487 12.2886726 50.3299115 12.190885 50.6342035 12.0712389 50.9494248 11.9412389 51.2537168 11.7675221 51.5683628 11.5828761 51.1340708 14.2547788 50.7860619 14.4290708 50.6123451 14.4940708 50.4495575 14.5590708 50.2867699 14.6137168 50.1124779 14.6677876 49.9393363 14.7115044 49.754115 14.7437168 49.5585398 14.7765044 49.3416814 14.7983628 49.1133186 14.8202212 48.8630973 14.8415044 48.5812389 14.8524336 48.2878761 14.8524336 47.9507965 14.8633628 47.5924336 14.8633628 47.0597788 14.8524336 46.5167699 14.7983628 45.9737611 14.7224336 45.430177 14.5918584 44.8980973 14.4290708 44.3873009 14.2225664 43.8989381 13.9510619 43.4422124 13.6358407 43.0188496 13.2665487 42.6495575 12.8207522 42.3343363 12.3214602 42.0737611 11.7456637 41.889115 11.104292 41.769469 10.3766372 41.7366814 9.5730531 41.7913274 8.6820354 41.834469 8.33460177 41.9000442 7.93252212 41.9869027 7.50858407 42.1059735 7.05243363 42.2693363 6.58535398 42.4649115 6.11827434 42.7145575 5.64026549 43.0188496 5.18411504 43.3662832 4.74924779 43.7902212 4.33623894 44.2682301 3.9669469 44.8112389 3.64137168 45.4411062 3.36986726 46.1474779 3.17429204 46.9297788 3.04371681 47.8098673 3 48.2332301 3.0109292 48.6790265 3.05464602 49.1242478 3.13057522 49.569469 3.23929204 50.0043363 3.40207965 50.4276991 3.59765487 50.8188496 3.85823009 51.1772124 4.16252212 51.5033628 4.53181416 51.7748673 4.96668142 51.9923009 5.46654867 52.1441593 6.04234513 52.2310177 6.6940708 52.2419469 7.43265487 52.1660177 8.25809735 52.0032301 9.17097345 51.9485841 9.83362832 44.0289381 9.83362832 44.5288053 7.69323009 49.2870354 7.69323009 49.3088938 7.42172566 49.2979646 7.16115044 49.2761062 6.92185841 49.2329646 6.705 49.1564602 6.49849558 49.080531 6.31384956 48.9723894 6.15048673 48.8630973 5.99862832 48.7330973 5.8680531 48.5921681 5.75933628 48.4288053 5.66212389 48.2660177 5.57526549 48.0923009 5.50969027 47.9185841 5.46654867 47.7333628 5.43376106 47.5383628 5.41190265 47.3318584 5.42283186 47.1362832 5.45561947 46.9516372 5.49876106 46.7664159 5.56433628 46.5823451 5.65119469 46.4189823 5.7489823 46.2561947 5.8680531 46.1146903 5.99862832 45.9737611 6.15048673 45.8431858 6.31384956 45.7235398 6.48756637 45.6263274 6.67221239 45.5285398 6.86778761 45.4520354 7.08522124 45.3870354 7.30207965 45.3433186 7.53044248 44.9090265 9.7789823"></polyline>
                            <path d="M38.1300442,0.5 L41.1396018,0.5 L40.6938053,3.12876106 L42.5080531,3.12876106 L42.1169027,5.58380531 L40.2048673,5.52973451 L39.1619912,11.5914159 L39.1510619,11.8088496 L39.205708,11.9934956 L39.3144248,12.135 L39.455354,12.2540708 L39.6509292,12.3305752 L39.8683628,12.3955752 L40.1070796,12.4387168 L40.3676549,12.4605752 L40.6069469,12.449646 L40.8243805,12.4277876 L41.0199558,12.3955752 L41.1936726,12.3518584 L41.3346018,12.3087168 L41.4323894,12.2759292 L41.4979646,12.2540708 L41.519823,12.2437168 L41.1396018,14.2638938 L41.0630973,14.3185398 L40.9112389,14.4053982 L40.8353097,14.4485398 L40.7588053,14.4813274 L40.6725221,14.514115 L40.5741593,14.5469027 L40.4769469,14.579115 L40.3676549,14.6119027 L40.2595133,14.6337611 L40.1289381,14.6550442 L39.9989381,14.6769027 L39.8574336,14.6987611 L39.694646,14.7206195 L39.5209292,14.7419027 L39.335708,14.7637611 L38.5102655,14.7637611 L38.0759735,14.7309735 L37.695177,14.6878319 L37.3477434,14.6228319 L37.0543805,14.5469027 L36.8047345,14.4485398 L36.5982301,14.3403982 L36.4135841,14.209823 L36.2720796,14.0683186 L36.1639381,13.9164602 L36.0874336,13.7318142 L36.0333628,13.5471681 L36.0005752,13.3406637 L35.989646,13.1123009 L35.989646,12.8735841 L36.0224336,12.6239381 L36.0552212,12.3518584 L38.1300442,0.5 Z" id="Combined-Shape" fill="#FFFFFF"></path>
                            <path d="M35.555354,5.7380531 L35.4034956,5.72712389 L35.2510619,5.70526549 L35.1101327,5.68340708 L34.9686283,5.66212389 L34.8386283,5.64026549 L34.6971239,5.61840708 L34.5556195,5.59654867 L34.4037611,5.57526549 L34.2519027,5.55340708 L34.0781858,5.54247788 L33.8826106,5.53154867 L33.6761062,5.52061947 L33.4477434,5.52061947 L33.1980973,5.53154867 L32.9156637,5.55340708 L32.6004425,5.57526549 L32.3830088,5.60747788 L32.1765044,5.64026549 L31.9918584,5.70526549 L31.8290708,5.77026549 L31.6766372,5.84619469 L31.535708,5.93362832 L31.4269912,6.04234513 L31.3292035,6.13955752 L31.2642035,6.25920354 L31.2095575,6.37884956 L31.1882743,6.50942478 L31.1882743,6.63942478 L31.2204867,6.7809292 L31.2642035,6.92185841 L31.3510619,7.06336283 L31.4597788,7.20429204 L31.6766372,7.41079646 L31.9377876,7.57415929 L32.2420796,7.7150885 L32.5676549,7.83473451 L32.9156637,7.94345133 L33.2740265,8.06252212 L33.6323894,8.19309735 L33.979823,8.33460177 L34.3059735,8.51867257 L34.6102655,8.7470354 L34.8817699,9.01853982 L35.1101327,9.35561947 L35.2838496,9.7680531 L35.3925664,10.2569912 L35.435708,10.8437168 L35.3925664,11.5282301 L35.3160619,12.0390265 L35.1860619,12.4842478 L35.0123451,12.8972566 L34.7949115,13.2556195 L34.5452655,13.5708407 L34.2622566,13.8423451 L33.9585398,14.0810619 L33.6214602,14.2875664 L33.2740265,14.450354 L32.9156637,14.5918584 L32.5457965,14.7005752 L32.1661504,14.7874336 L31.7962832,14.8524336 L31.4379204,14.8852212 L31.0795575,14.9070796 L30.7424779,14.9174336 L30.2753982,14.9174336 L29.8411062,14.9070796 L29.460885,14.9070796 L29.1025221,14.8955752 L28.7763717,14.8852212 L28.4830088,14.8633628 L28.2224336,14.8415044 L27.9722124,14.809292 L27.7444248,14.7874336 L27.5379204,14.7437168 L27.3314159,14.7115044 L27.1467699,14.6568584 L26.9621239,14.6137168 L26.7884071,14.5481416 L26.614115,14.4831416 L26.4300442,14.4181416 L26.9184071,12.0171681 L27.0167699,12.0390265 L27.1358407,12.0712389 L27.2876991,12.1149558 L27.4729204,12.1580973 L27.6684956,12.2018142 L27.885354,12.245531 L28.124646,12.2996018 L28.3852212,12.3433186 L28.6567257,12.3864602 L28.9391593,12.430177 L29.2325221,12.4623894 L29.5368142,12.495177 L29.8520354,12.5061062 L30.1666814,12.5170354 L30.4819027,12.5170354 L30.7971239,12.5061062 L31.1123451,12.440531 L31.3619912,12.3536726 L31.5575664,12.2346018 L31.7094248,12.0821681 L31.8181416,11.9303097 L31.905,11.7565929 L31.959646,11.5828761 L32.0027876,11.4195133 L32.024646,11.104292 L31.9268584,10.8327876 L31.7422124,10.6159292 L31.470708,10.4312832 L31.1445575,10.2679204 L30.7643363,10.1051327 L30.3403982,9.95327434 L29.9170354,9.7789823 L29.4827434,9.5839823 L29.0697345,9.35561947 L28.6895133,9.07318584 L28.3420796,8.73610619 L28.07,8.32367257 L27.8744248,7.83473451 L27.7766372,7.24800885 L27.7875664,6.55256637 L27.8422124,6.12920354 L27.9181416,5.72712389 L28.0268584,5.35783186 L28.1568584,5.00982301 L28.3311504,4.68424779 L28.5267257,4.40181416 L28.7545133,4.13030973 L29.0265929,3.8910177 L29.3412389,3.68451327 L29.6886726,3.51079646 L30.079823,3.34800885 L30.5146903,3.22836283 L31.0036283,3.13057522 L31.535708,3.05464602 L32.1224336,3.0109292 L32.7632301,3 L33.1653097,3 L33.5346018,3.0109292 L33.8716814,3.02185841 L34.1753982,3.03278761 L34.4474779,3.05464602 L34.6971239,3.07650442 L34.9145575,3.09778761 L35.1101327,3.11964602 L35.2947788,3.14150442 L35.4466372,3.17429204 L35.5881416,3.19615044 L35.7181416,3.21743363 L35.8268584,3.23929204 L35.924646,3.25022124 L36.0224336,3.27207965 L36.109292,3.28300885 L35.555354,5.7380531 Z" id="Combined-Shape" fill="#FFFFFF"></path>
                            <path d="M25.8972566,12.3646018 L25.4623894,14.7765044 L22.7249115,14.7765044 L22.8008407,14.3312832 L22.8554867,13.9292035 L22.8986283,13.6249115 L22.9423451,13.4621239 L22.7899115,13.6358407 L22.6161947,13.8095575 L22.4102655,13.9729204 L22.1819027,14.1247788 L21.9207522,14.2766372 L21.6492478,14.4072124 L21.3668142,14.5377876 L21.0734513,14.6465044 L20.7588053,14.7437168 L20.4435841,14.8202212 L20.1283628,14.8852212 L19.8027876,14.9283628 L19.4875664,14.9502212 L19.1723451,14.9611504 L18.8680531,14.9283628 L18.5752655,14.8852212 L18.1950442,14.7874336 L17.8470354,14.6787168 L17.5427434,14.5377876 L17.2712389,14.3744248 L17.0325221,14.200708 L16.8150885,14.0051327 L16.6413717,13.7986283 L16.4889381,13.5817699 L16.3589381,13.3534071 L16.2502212,13.114115 L16.1633628,12.8753982 L16.0977876,12.6366814 L16.054646,12.3864602 L16.0218584,12.1368142 L16,11.8975221 L16,11.6588053 L16.0327876,11.2348673 L16.0977876,10.8327876 L16.2065044,10.4525664 L16.3480088,10.0832743 L16.5217257,9.73584071 L16.7173009,9.42061947 L16.9456637,9.11632743 L17.2062389,8.84482301 L17.4777434,8.59517699 L17.7820354,8.36681416 L18.0966814,8.16088496 L18.4228319,7.98659292 L18.7702655,7.83473451 L19.1292035,7.7150885 L19.4984956,7.61730088 L19.8787168,7.55230088 L19.9005752,7.55230088 L19.954646,7.54137168 L20.0311504,7.53044248 L20.1502212,7.51951327 L20.2807965,7.49765487 L20.4326549,7.48730088 L20.5954425,7.46544248 L20.7800885,7.44358407 L20.9653097,7.42172566 L21.1493805,7.39986726 L21.345531,7.38893805 L21.5192478,7.36765487 L21.6929646,7.35672566 L21.8557522,7.34579646 L22.0081858,7.33486726 L22.3774779,7.33486726 L22.6380531,7.34579646 L22.8767699,7.35672566 L23.1160619,7.35672566 L23.3116372,7.36765487 L23.4634956,7.37858407 L23.5722124,7.38893805 L23.605,7.38893805 L23.6268584,7.31300885 L23.6918584,7.11743363 L23.7459292,6.88964602 L23.7677876,6.68314159 L23.724646,6.44442478 L23.6268584,6.22699115 L23.4962832,6.03141593 L23.3225664,5.86862832 L23.1160619,5.72712389 L22.8876991,5.62933628 L22.6271239,5.56433628 L22.3446903,5.54247788 L22.0403982,5.53154867 L21.714823,5.52061947 L21.3777434,5.52061947 L21.0303097,5.53154867 L20.6719469,5.55340708 L20.3239381,5.58561947 L19.9765044,5.61840708 L19.6394248,5.66212389 L19.3138496,5.70526549 L18.9986283,5.75933628 L18.7161947,5.8139823 L18.4556195,5.86862832 L18.2163274,5.93362832 L18.0207522,5.99862832 L17.8688938,6.07455752 L17.7492478,6.14013274 L18.5206195,3.52172566 L18.7593363,3.42393805 L18.9986283,3.33707965 L19.2592035,3.26115044 L19.7809292,3.15243363 L20.0633628,3.10929204 L20.3457965,3.06557522 L20.6391593,3.04371681 L20.9434513,3.02185841 L21.2580973,3.0109292 L21.5842478,3 L22.6271239,3 L23.0073451,3.0109292 L23.3875664,3.02185841 L23.6918584,3.04371681 L24.0180088,3.09836283 L24.3545133,3.17429204 L24.7019469,3.27207965 L25.0390265,3.40207965 L25.3646018,3.55451327 L25.6907522,3.73915929 L25.9950442,3.94566372 L26.2665487,4.18438053 L26.5052655,4.44495575 L26.7226991,4.73831858 L26.8854867,5.06446903 L26.9942035,5.41190265 L27.0597788,5.78119469 L27.0597788,6.19420354 L26.9942035,6.6290708 L25.8972566,12.3646018 Z" id="Combined-Shape" fill="#FFFFFF"></path>
                            <polyline id="Fill-29" fill="#CC0D00" points="23.3117699 9.08504425 23.3008407 9.03097345 23.2576991 8.97632743 23.1921239 8.94353982 23.0839823 8.92225664 22.9643363 8.90039823 22.8228319 8.88946903 22.4972566 8.88946903 22.3235398 8.90039823 22.1383186 8.92225664 21.9646018 8.94353982 21.790885 8.96539823 21.6280973 8.98725664 21.4756637 9.02004425 21.3456637 9.05283186 21.2260177 9.08504425 21.1500885 9.10690265 21.0632301 9.13969027 20.9435841 9.18283186 20.8239381 9.23690265 20.6830088 9.30247788 20.5415044 9.37840708 20.389646 9.45433628 20.2481416 9.54119469 20.0962832 9.6499115 19.955354 9.75862832 19.8247788 9.88920354 19.7051327 10.0192035 19.5964159 10.160708 19.5204867 10.3125664 19.4554867 10.4862832 19.4226991 10.66 19.4117699 11.0298673 19.4658407 11.3232301 19.5745575 11.5400885 19.7160619 11.7034513 19.8788496 11.8121681 20.0640708 11.8771681 20.2372124 11.9093805 20.4115044 11.9203097 20.7370796 11.9093805 21.0304425 11.8771681 21.3128761 11.8334513 21.5625221 11.7684513 21.7799558 11.6925221 21.9864602 11.5947345 22.1711062 11.4969469 22.334469 11.3773009 22.4753982 11.2685841 22.6059735 11.1385841 22.7146903 11.0189381 22.8015487 10.8883628 22.8774779 10.7583628 22.9424779 10.6277876 22.9971239 10.5081416 23.0293363 10.3884956 23.1161947 10.0738496 23.1921239 9.71548673 23.2576991 9.36747788 23.3117699 9.08504425"></polyline>
                            <path d="M3.07261062,14.3322124 L0.117699115,14.3322124 L2.58367257,0.0684513274 L7.72212389,0.0684513274 L8.21106195,8.53110619 L11.7636283,0.0684513274 L17.1304425,0.0684513274 L14.609823,14.3322124 L11.6549115,14.3322124 L13.5238053,3.6750885 L13.4041593,3.6750885 L8.98243363,14.3322124 L5.64730088,14.3322124 L5.62544248,13.8869912 L5.54951327,12.7026106 L5.45172566,11.0189381 L5.23486726,7.14022124 L5.13707965,5.43469027 L5.06057522,4.19623894 L5.03871681,3.6750885 L4.8759292,3.6750885 L3.07261062,14.3322124 Z" id="Combined-Shape" fill="#FFFFFF"></path>
                            <polyline id="Fill-48" fill="#FF9901" points="77.2180531 9.08504425 77.1961947 9.02004425 77.1524779 8.96539823 77.0765487 8.93318584 76.9678319 8.90039823 76.8487611 8.88946903 76.7072566 8.87853982 76.544469 8.87853982 76.3811062 8.88946903 76.2079646 8.91132743 76.0336726 8.93318584 75.8599558 8.95446903 75.6965929 8.97632743 75.5338053 9.00911504 75.3928761 9.03097345 75.2513717 9.06318584 75.1426549 9.08504425 75.0667257 9.09597345 74.9798673 9.12876106 74.8717257 9.16097345 74.7515044 9.20469027 74.6105752 9.26969027 74.48 9.33469027 74.3281416 9.41119469 74.045708 9.60676991 73.9042035 9.72584071 73.7851327 9.84548673 73.6654867 9.98699115 73.5676991 10.1388496 73.4917699 10.3016372 73.4261947 10.4759292 73.3939823 10.66 73.3830531 11.0298673 73.4371239 11.3232301 73.5239823 11.5400885 73.6545575 11.7034513 73.8173451 11.8121681 74.0019912 11.8771681 74.1866372 11.9093805 74.3712832 11.9203097 74.6974336 11.9093805 75.0017257 11.8771681 75.2841593 11.8225221 75.5338053 11.7465929 75.7730973 11.6597345 75.9796018 11.5619469 76.175177 11.4532301 76.3488938 11.3232301 76.5007522 11.2035841 76.6313274 11.0620796 76.7503982 10.9320796 76.8487611 10.7905752 76.9246903 10.66 76.9787611 10.53 77.0224779 10.3994248 77.0546903 10.280354 77.0984071 9.97606195 77.1524779 9.66084071 77.1961947 9.35654867 77.2180531 9.08504425"></polyline>
                            <path d="M99.5970354,12.844115 L99.6188938,12.5938938 L99.7057522,12.300531 L99.8581858,12.0399558 L100.042832,11.8121681 L100.270619,11.6269469 L100.531195,11.4969469 L100.814204,11.4100885 L101.11792,11.3773009 L101.422212,11.4100885 L101.704646,11.4969469 L101.965221,11.6269469 L102.193584,11.8121681 L102.37823,12.0399558 L102.530664,12.300531 L102.617522,12.5938938 L102.638805,12.844115 L102.31323,12.844115 L102.302301,12.6485398 L102.237301,12.4092478 L102.128584,12.1923894 L101.98708,12.0071681 L101.813363,11.8553097 L101.606858,11.7465929 L101.368142,11.6706637 L101.11792,11.6488053 L100.868274,11.6706637 L100.628982,11.7465929 L100.423053,11.8553097 L100.248761,12.0071681 L100.107832,12.1923894 L99.999115,12.4092478 L99.934115,12.6485398 L99.9122566,12.844115 L99.5970354,12.844115 Z M100.574912,12.844115 L100.574912,12.1923894 L101.172566,12.1923894 L101.302566,12.2027434 L101.422212,12.2246018 L101.509071,12.2573894 L101.585,12.300531 L101.639646,12.3661062 L101.682788,12.4311062 L101.704646,12.5070354 L101.715575,12.5829646 L101.704646,12.6807522 L101.682788,12.7572566 L101.650575,12.8222566 L101.628717,12.844115 L101.172566,12.844115 L101.215708,12.8331858 L101.291637,12.8222566 L101.357212,12.8003982 L101.411283,12.779115 L101.455,12.7463274 L101.476858,12.7135398 L101.498142,12.659469 L101.498142,12.5829646 L101.487212,12.5288938 L101.465929,12.4857522 L101.433142,12.4638938 L101.400354,12.4420354 L101.346283,12.4311062 L101.291637,12.420177 L100.846416,12.420177 L100.846416,12.844115 L100.574912,12.844115 Z M100.574912,12.844115 L100.846416,12.844115 L100.846416,12.8550442 L101.11792,12.8550442 L101.172566,12.844115 L101.628717,12.844115 L101.606858,12.8763274 L101.552788,12.9200442 L101.487212,12.9419027 L101.411283,12.9631858 L101.335354,12.9631858 L101.661504,13.5067699 L101.444071,13.5067699 L101.11792,12.9631858 L100.846416,12.9631858 L100.846416,13.5067699 L100.574912,13.5067699 L100.574912,12.844115 Z M99.5970354,12.844115 L99.9122566,12.844115 L99.9122566,12.909115 L99.934115,13.1696903 L99.999115,13.4089823 L100.107832,13.6154867 L100.248761,13.7995575 L100.423053,13.9519912 L100.628982,14.0716372 L100.868274,14.1475664 L101.11792,14.1694248 L101.368142,14.1475664 L101.606858,14.0716372 L101.813363,13.9519912 L101.98708,13.7995575 L102.128584,13.6154867 L102.237301,13.4089823 L102.302301,13.1696903 L102.324159,12.909115 L102.31323,12.844115 L102.638805,12.844115 L102.649735,12.909115 L102.617522,13.2243363 L102.530664,13.5176991 L102.37823,13.7782743 L102.193584,13.995708 L101.965221,14.180354 L101.704646,14.3212832 L101.422212,14.4081416 L101.11792,14.4409292 L100.814204,14.4081416 L100.531195,14.3212832 L100.270619,14.180354 L100.042832,13.995708 L99.8581858,13.7782743 L99.7057522,13.5176991 L99.6188938,13.2243363 L99.5861062,12.909115 L99.5970354,12.844115 Z" id="Combined-Shape" fill="#FFFFFF"></path>
                        </g>
                    </g>
                </g>
            </g>
        </g>
    </g>
</svg>