<?xml version="1.0" encoding="UTF-8"?>
<svg width="125px" height="21px" viewBox="0 0 125 21" version="1.1" xmlns="http://www.w3.org/2000/svg" xmlns:xlink="http://www.w3.org/1999/xlink">
    <!-- Generator: Sketch 44.1 (41455) - http://www.bohemiancoding.com/sketch -->
    <title>Payment / Neteller</title>
    <desc>Created with Sketch.</desc>
    <defs></defs>
    <g id="Payment-Methods" stroke="none" stroke-width="1" fill="none" fill-rule="evenodd">
        <g transform="translate(-869.000000, -499.000000)" id="Types" fill="#8CC728">
            <g transform="translate(170.000000, 460.000000)">
                <g id="Title">
                    <g id="Payment-/-Neteller" transform="translate(699.000000, 39.000000)">
                        <path d="M116.707609,2.35074687 C116.051418,1.62699475 115.223921,1.15221337 114.315127,0.790337309 C113.362779,0.428461252 112.363976,0.237390694 111.344848,0.124485364 C111.048691,0.0897452622 110.755438,0.0665851945 110.447667,0.031845093 C110.322817,0.0202650592 110.186352,0.0665851945 110.061502,0 L101.194218,0 C101.04614,0.778757275 100.898061,1.54882952 100.749983,2.3275868 C100.39866,4.26145245 100.047336,6.18373807 99.684399,8.11760371 C99.3679177,9.84881877 99.0485329,11.5568738 98.7320516,13.2765088 C98.5955872,14.0089459 98.4591228,14.7442781 98.3226584,15.4796102 C98.2907199,15.7054209 98.2791059,15.7054209 98.0729575,15.7054209 L88.331721,15.7054209 C88.2533265,15.7054209 88.1836426,15.7170009 88.0936341,15.6735758 C88.1371866,15.4246051 88.1836426,15.1756343 88.2300986,14.9266636 C88.3868875,14.0784261 88.5465799,13.2301887 88.7062723,12.3819512 C88.7382108,12.1677205 88.7498247,12.1677205 88.9559731,12.1677205 L94.6148911,12.1677205 C94.9197585,12.1677205 94.899434,12.1995656 94.9546004,11.9071698 C95.1694593,10.6970563 95.3872217,9.49852275 95.6020805,8.29998925 C95.6369225,8.14076378 95.6369225,8.14076378 95.4656161,8.14076378 L94.3187343,8.14076378 L89.7370141,8.14076378 C89.4756993,8.14076378 89.4756993,8.14076378 89.5221553,7.88021302 C89.7137862,6.89591015 89.8967065,5.90292224 90.0767234,4.90703934 C90.1464074,4.59148341 90.0767234,4.62332851 90.4193362,4.62332851 L96.1450347,4.62332851 L96.3279551,4.62332851 C96.4528055,4.63490854 96.484744,4.57990338 96.507972,4.46699805 C96.6095944,3.88799636 96.7141204,3.31188968 96.8273568,2.73578299 C96.9725317,1.89912555 97.1322241,1.0624681 97.2919165,0.214230626 C97.3035305,0.144750423 97.3151445,0.0781652284 97.3151445,0 L84.3945774,0 C84.3829634,0.315555922 84.304569,0.61953181 84.2494025,0.926402706 C84.0664821,1.92228562 83.8864652,2.90658849 83.6919308,3.89957639 C83.477072,5.0662648 83.2622131,6.2300582 83.0473542,7.3938516 C82.7976534,8.78635067 82.5363386,10.1759547 82.2866377,11.5684538 C82.0833928,12.6309219 81.9004724,13.6702299 81.6972276,14.724013 C81.6623856,14.8919235 81.6623856,14.8919235 81.4794652,14.8919235 L77.1706738,14.8919235 C76.979043,14.8919235 76.967429,14.8803435 77.002271,14.7008529 C77.2722963,13.2533487 77.5452251,11.8058445 77.80654,10.3699203 C78.0678548,8.97742123 78.3291696,7.58781717 78.575967,6.20689813 C78.8488958,4.73623384 79.1334386,3.27714957 79.4063675,1.80938029 C79.5079899,1.2651187 79.6096124,0.700592047 79.7112348,0.144750423 C79.7228488,0.101325296 79.7228488,0.0434251269 79.7228488,0 L72.9751189,0 C72.6557341,1.72832005 72.3392528,3.45953511 72.0111575,5.19075016 C71.7150007,6.80616488 71.4217474,8.42447461 71.1255906,10.0398893 C70.8323372,11.6002989 70.5477944,13.1607084 70.2516376,14.724013 C70.2196991,14.8919235 70.2196991,14.8919235 70.0483927,14.8919235 L65.8412238,14.8919235 C65.6466894,14.8919235 65.6466894,14.8919235 65.6815314,14.7008529 C66.0328547,12.8219925 66.372564,10.969187 66.7238873,9.09032656 C67.078114,7.16804094 67.4410513,5.24575532 67.8039886,3.32346971 C67.9956195,2.29574171 68.1872504,1.2651187 68.3701707,0.237390694 C68.3933987,0.167910491 68.4137232,0.0781652284 68.3933987,0 L61.6427654,0 C61.6340549,0.303975888 61.5411429,0.610846785 61.4975905,0.903242639 C61.3262841,1.82096032 61.1549777,2.72420296 60.9865748,3.63902563 C60.7717159,4.81729407 60.5539535,5.96950744 60.3390947,7.13330084 C60.1126218,8.36657444 59.886149,9.59984804 59.6596761,10.8215416 C59.4215892,12.1214004 59.1835024,13.4096792 58.9454155,14.7008529 C58.8873456,14.9932488 58.8205651,15.2769596 58.7857231,15.5722505 C58.7624951,15.6851558 58.7073287,15.7170009 58.6057062,15.7054209 L58.4808558,15.7054209 L48.7831718,15.7054209 C48.4986289,15.7054209 48.463787,15.7749011 48.5334709,15.413025 C48.7251018,14.3939821 48.9080222,13.4009941 49.0880391,12.3935312 C49.1228811,12.1793006 49.1228811,12.1793006 49.3609679,12.1793006 L54.996658,12.1793006 C55.0547279,12.1793006 55.1215084,12.1677205 55.1795783,12.1793006 C55.2695868,12.1793006 55.3276568,12.1445605 55.3392707,12.0432352 C55.5657436,10.7636414 55.8038305,9.49852275 56.0303033,8.21892901 L56.0303033,8.19866395 C55.9402949,8.15234382 55.8589969,8.17550388 55.7689885,8.17550388 L50.1536229,8.17550388 C49.8719836,8.17550388 49.8719836,8.17550388 49.9155361,7.91495312 C50.1100705,6.86406505 50.3017013,5.82186201 50.4962357,4.78255397 C50.5078497,4.66964864 50.5514022,4.62332851 50.6762526,4.62332851 C50.9375674,4.63490854 51.1872683,4.62332851 51.4485831,4.62332851 L56.6313275,4.62332851 L56.7910199,4.62332851 C56.9042563,4.63490854 56.9478088,4.57990338 56.9710367,4.46699805 C57.0407207,4.05880186 57.1191152,3.65060566 57.1975096,3.23372445 C57.38043,2.2262615 57.5604469,1.21011354 57.7433673,0.191070558 C57.7549813,0.133170389 57.7549813,0.0665851945 57.7665953,0 L17.5937939,0 C17.5473379,0.39372115 17.4573295,0.778757275 17.3876455,1.1637934 C17.1263307,2.57655753 16.8766298,3.99221666 16.6182185,5.39340076 C16.3917456,6.62667436 16.1623693,7.86863299 15.9358964,9.10190659 C15.7558795,10.1093695 15.5613452,11.1052524 15.3813283,12.1098204 C15.3697143,12.1793006 15.3581003,12.2458858 15.3464863,12.315366 C15.2797058,12.315366 15.2797058,12.2574658 15.2564778,12.2227257 C14.4522088,10.0080442 13.6334223,7.77888773 12.8291533,5.55262622 C12.1700592,3.76351099 11.5138686,1.97729078 10.8547745,0.191070558 C10.8315466,0.133170389 10.8228361,0.0665851945 10.7996081,0.0115800338 L3.79056338,0.0115800338 C3.69765143,0.529786548 3.584415,1.05088807 3.49440656,1.57198959 C3.17792525,3.26846455 2.87015444,4.9620445 2.55367314,6.65851945 C2.23719183,8.36657444 1.91780703,10.0630494 1.60132572,11.7595244 C1.3051689,13.3894141 1.01191558,15.0279889 0.704144771,16.6578787 C0.500899896,17.7753519 0.29765502,18.8957202 0.079892654,20.0045084 C0.0682786612,20.0710936 0.0595681665,20.1405738 0.00149820215,20.183999 C0.00149820215,20.2534792 -0.0217297836,20.3548045 0.114734633,20.3200644 C0.137962618,20.3084843 0.172804597,20.3200644 0.204743077,20.3200644 L6.74922806,20.3200644 C6.71438608,20.207159 6.74922806,20.0942537 6.76084205,19.9929284 C6.98731492,18.7249147 7.21378778,17.459796 7.44026064,16.1917823 C7.68125099,14.8253383 7.92804834,13.4559993 8.17774919,12.0866603 C8.40712554,10.8099616 8.63359841,9.53326285 8.84845727,8.24208908 C8.88329925,8.06259855 8.92685173,7.88021302 8.95007971,7.68914246 C9.02847416,7.68914246 9.01686017,7.74414762 9.02847416,7.77888773 C9.33624497,8.63870524 9.62949829,9.51010278 9.93726911,10.3815003 C10.6631437,12.4948565 11.4006322,14.6082127 12.1381208,16.7360439 C12.512672,17.8448321 12.8959338,18.9420403 13.2820991,20.0595136 C13.305327,20.1405738 13.351783,20.2187391 13.351783,20.3084843 L37.3375818,20.3084843 C37.3491958,19.9929284 37.4304937,19.6860575 37.4856602,19.3820816 C37.7237471,18.0706428 37.9734479,16.7476239 38.2115348,15.4361851 C38.4612356,14.1334313 38.6993225,12.8335725 38.9374093,11.5337137 C39.1522682,10.3815003 39.3700305,9.22639195 39.5732754,8.08575862 C39.7765203,6.98855042 39.9913792,5.90292224 40.1859135,4.80571404 C40.2207555,4.62332851 40.2091415,4.62332851 40.4123864,4.62332851 L43.7136639,4.62332851 L43.8036723,4.62332851 C43.8936808,4.61174847 43.9285227,4.65806861 43.9169088,4.73623384 C43.8704528,4.95335947 43.8385143,5.1675901 43.8036723,5.37024069 C43.487191,7.08987571 43.1678062,8.81819576 42.8397109,10.5378308 C42.5319401,12.2343057 42.2154588,13.9307807 41.8989775,15.6272557 C41.6812151,16.779469 41.4663563,17.9345774 41.2631114,19.0983708 C41.1847169,19.506567 41.115033,19.9031831 41.0366385,20.3084843 L104.016418,20.3084843 C104.028032,19.9929284 104.106427,19.6976375 104.164497,19.3936617 C104.347417,18.3861987 104.527434,17.3700507 104.707451,16.3510078 C104.968766,14.9614037 105.230081,13.5689046 105.491395,12.1793006 C105.593018,11.635039 105.683026,11.0936724 105.787552,10.5609909 C105.854333,10.5609909 105.854333,10.627576 105.865947,10.6738962 C106.318892,12.1908806 106.771838,13.7165501 107.227687,15.2306395 C107.727089,16.8952694 108.214877,18.5570042 108.711375,20.2187391 C108.711375,20.2418991 108.722989,20.2766392 108.722989,20.2969043 L115.427166,20.2969043 C115.200694,19.6744775 114.962607,19.0317856 114.72452,18.4093588 C113.975417,16.417593 113.226315,14.4403022 112.477212,12.4601164 C112.387204,12.2227257 112.387204,12.2227257 112.636905,12.1677205 C113.272771,12.0432352 113.885409,11.8955898 114.474819,11.635039 C116.083357,10.9228669 117.14023,9.72433341 117.639632,8.02785845 C117.808035,7.4285917 117.889333,6.81774492 117.909657,6.1953181 C117.932885,5.58447131 117.898043,4.9967846 117.764482,4.40909788 C117.593176,3.63902563 117.241853,2.95001362 116.707609,2.35074687 Z M33.3133333,5.80159695 C33.1304129,6.81774492 32.938782,7.84836793 32.7442476,8.8645159 C32.5293887,10.0196243 32.3145299,11.1718376 32.099671,12.335631 C31.9051366,13.3894141 31.7135057,14.4518822 31.5189714,15.5027703 C31.4870329,15.6938408 31.4870329,15.7054209 31.2808845,15.7054209 L21.481578,15.7054209 C21.4264116,15.7054209 21.3683416,15.7170009 21.2899471,15.6735758 C21.4496395,14.8571834 21.597718,14.0552661 21.7428929,13.2533487 C21.8009628,12.9580579 21.8445153,12.677242 21.9025853,12.3819512 C21.9374272,12.1677205 21.9374272,12.1677205 22.1639001,12.1677205 L28.049291,12.1677205 C28.3454478,12.1677205 28.3454478,12.1677205 28.4006143,11.8724297 C28.6067626,10.7636414 28.7983935,9.65774821 29.0016384,8.54895997 C29.0248664,8.4563197 29.0364804,8.36657444 29.0597084,8.26524915 C29.0713224,8.12918375 29.0713224,8.12918375 28.923244,8.11760371 L23.0146251,8.11760371 C22.7416962,8.11760371 22.7416962,8.11760371 22.7881522,7.85705295 C22.9565551,6.85248502 23.1278615,5.85660211 23.3078784,4.84913917 C23.3427204,4.62332851 23.3427204,4.62332851 23.5808072,4.62332851 L33.3249473,4.62332851 C33.5049641,4.62332851 33.5165781,4.63490854 33.4817362,4.80571404 C33.4381837,5.14443003 33.3684997,5.47156598 33.3133333,5.80159695 Z M111.1387,7.73256759 C110.880288,8.37815448 110.412825,8.8297758 109.788573,9.12506666 C109.335627,9.33929728 108.836225,9.44062258 108.328113,9.49852275 C107.91872,9.55352791 107.509327,9.54194788 107.102837,9.55352791 L106.194042,9.55352791 C105.967569,9.54194788 105.967569,9.54194788 106.014025,9.33929728 C106.09242,8.899256 106.170814,8.4563197 106.252112,8.01627842 C106.478585,6.82932495 106.693444,5.65395152 106.919917,4.46699805 C106.977987,4.12538705 106.977987,4.12538705 107.317696,4.12538705 C107.79387,4.12538705 108.258429,4.12538705 108.722989,4.17170719 C109.167224,4.21802732 109.608556,4.29619255 110.029563,4.46699805 C110.845446,4.81729407 111.333234,5.55262622 111.333234,6.43270879 C111.344848,6.87564509 111.310006,7.31568637 111.1387,7.73256759 Z M121.483864,14.382402 C119.918878,14.6545328 118.818452,16.1367771 119.044925,17.7203468 C119.216232,18.9420403 119.918878,19.7439577 121.062856,20.1724189 C121.199321,20.2303191 121.347399,20.2418991 121.47225,20.3200644 L122.52622,20.3200644 C122.77592,20.2303191 123.025621,20.183999 123.252094,20.0710936 C124.126047,19.6657925 124.692229,18.9854655 124.94193,18.0590628 C124.965158,17.9461574 124.94193,17.8216721 125,17.7203468 L125,16.9271145 C124.930316,16.8026291 124.953544,16.6578787 124.918702,16.5218133 C124.500598,15.051149 123.048849,14.1131662 121.483864,14.382402 Z M122.015204,19.7989628 C120.801542,19.7989628 119.555941,18.817555 119.544327,17.3353106 C119.544327,15.9659716 120.644753,14.8687634 122.026818,14.8803435 C123.446628,14.8803435 124.523826,16.078877 124.47737,17.3353106 C124.53544,18.6004293 123.388558,19.8105429 122.015204,19.7989628 Z M122.822376,17.4018958 C123.4234,17.1760852 123.571479,16.417593 123.127244,15.9659716 C122.947227,15.7864811 122.741078,15.7285809 122.502992,15.7285809 C122.015204,15.7170009 121.527416,15.7749011 121.051242,15.7864811 C120.746375,15.7980612 120.746375,15.7980612 120.757989,16.1136171 C120.757989,16.1367771 120.769603,16.1715172 120.769603,16.1917823 C120.792831,16.6781437 120.82477,17.1529251 120.847998,17.6277065 C120.859612,18.0127426 120.871226,18.3861987 120.894454,18.7480748 C120.906068,19.0202056 120.917682,19.0086255 121.164479,18.9970455 C121.347399,18.9970455 121.347399,18.9738854 121.347399,18.8059749 C121.335785,18.499104 121.312557,18.1951282 121.300943,17.8882573 C121.300943,17.798512 121.245777,17.6856067 121.312557,17.6190215 C121.370627,17.5379612 121.483864,17.5842814 121.573872,17.5611213 C121.948423,17.4829561 122.24458,17.5958614 122.482667,17.9114173 C122.697526,18.1951282 122.889157,18.475944 123.104016,18.7596548 C123.138858,18.817555 123.1737,18.8957202 123.24048,18.8957202 C123.400172,18.8957202 123.571479,18.9420403 123.739882,18.829135 C123.376944,18.3514586 123.11563,17.8332521 122.607517,17.471376 C122.685912,17.4366359 122.752692,17.4250559 122.822376,17.4018958 Z M122.311361,17.1413451 C122.038432,17.1645051 121.768406,17.1529251 121.507092,17.1876652 L121.437408,17.1876652 C121.269005,17.1876652 121.280619,17.1760852 121.257391,17.0197547 C121.234163,16.8026291 121.257391,16.5883985 121.222549,16.3625878 C121.187707,16.1715172 121.210935,16.1599372 121.425794,16.1483572 C121.675495,16.1367771 121.913581,16.1483572 122.151668,16.102037 C122.288133,16.078877 122.412983,16.102037 122.549448,16.1483572 C122.764306,16.1917823 122.900771,16.3741678 122.912385,16.5768184 C122.923999,16.7910491 122.83399,16.9502745 122.65107,17.0400198 C122.537834,17.0979199 122.424597,17.12108 122.311361,17.1413451 Z" id="Neteller"></path>
                    </g>
                </g>
            </g>
        </g>
    </g>
</svg>