<?xml version="1.0" encoding="UTF-8"?>
<svg width="125px" height="42px" viewBox="0 0 125 42" version="1.1" xmlns="http://www.w3.org/2000/svg" xmlns:xlink="http://www.w3.org/1999/xlink">
    <!-- Generator: Sketch 44.1 (41455) - http://www.bohemiancoding.com/sketch -->
    <title>Payment / Skrill</title>
    <desc>Created with Sketch.</desc>
    <defs></defs>
    <g id="Payment-Methods" stroke="none" stroke-width="1" fill="none" fill-rule="evenodd">
        <g transform="translate(-699.000000, -484.000000)" id="Types" fill="#821965">
            <g transform="translate(170.000000, 460.000000)">
                <g id="Title">
                    <g id="Payment-/-Skrill" transform="translate(529.000000, 24.000000)">
                        <polygon id="Path" points="99.5130563 4.06220312 109.853042 2.25394969 109.853042 40.936141 99.5130563 40.936141"></polygon>
                        <polygon id="Path" points="124.951599 40.936141 114.598552 40.936141 114.598552 4.06220312 124.951599 2.25394969"></polygon>
                        <path d="M74.9887861,40.936141 L64.5791411,40.936141 L64.5791411,25.0184171 C64.5791411,16.7114877 69.4291388,12.5346769 78.9680481,12.2205672 C78.9680481,12.2205672 80.7008121,12.1696305 81.7239265,12.3691326 L81.7239265,20.6421043 C75.6679599,20.8416064 74.9887861,22.9809485 74.9887861,27.9557678 L74.9887861,40.936141 Z" id="Path"></path>
                        <path d="M45.0398326,40.936141 L34.3776743,40.936141 L34.3776743,4.30839725 L45.0398326,2.25394969 L45.0398326,22.4673366 C49.0539241,17.7387114 50.7039682,13.1798753 50.9390668,12.6153267 L63.1337199,12.6153267 C62.7767183,13.6934872 60.5998791,20.2261211 55.6366858,26.3639954 C55.6366858,26.3639954 61.1789183,35.8127563 62.4371314,40.936141 L49.663439,40.936141 C49.663439,40.936141 48.1352979,34.1233552 45.0398326,29.6112111 L45.0398326,40.936141 Z" id="Path"></path>
                        <path d="M84.884697,4.97057456 C84.884697,2.21999188 87.1486098,0 89.9697934,0 C92.7779159,0 95.0548897,2.21999188 95.0548897,4.97057456 C95.0548897,7.70842306 92.7779159,9.92841494 89.9697934,9.92841494 C87.1486098,9.92841494 84.884697,7.70842306 84.884697,4.97057456 Z" id="Path"></path>
                        <polygon id="Path" points="84.8019771 40.936141 95.1419633 40.936141 95.1419633 12.6492845 84.8019771 12.6492845"></polygon>
                        <path d="M31.7741746,28.8811181 C31.7741746,35.0826633 26.6716636,41.3521242 15.2780873,41.3521242 C10.0057828,41.3521242 5.49972568,40.8385123 1.50304894,39.8112885 L1.50304894,30.7742661 C4.17185378,31.8524266 8.56036157,32.9772791 13.1012481,32.9772791 C17.2328889,32.9772791 19.6840098,31.6359455 19.6840098,29.3650169 C19.6840098,26.6271684 16.6886791,26.4616241 15.552369,26.3937085 C2.19963748,25.4980712 0.771630976,17.8066271 0.771630976,14.5381878 C0.771630976,8.86723336 4.90327175,2.25394969 16.5537151,2.25394969 C23.3062702,2.25394969 26.9459453,3.28117347 30.0893011,4.35933397 L30.2590946,4.41027068 L30.2590946,13.1798753 L30.1415452,13.1459175 C28.8833322,12.6153267 27.3856668,12.1186937 27.3856668,12.1186937 C24.7342767,11.3376641 21.0249427,10.5099425 18.151515,10.5099425 C16.5188856,10.5099425 12.1652073,10.5099425 12.1652073,13.7104661 C12.1652073,16.3634201 15.1779527,16.5629222 16.4840562,16.643572 C26.0621486,17.2760363 31.7741746,21.8348724 31.7741746,28.8811181 Z" id="Path"></path>
                    </g>
                </g>
            </g>
        </g>
    </g>
</svg>