<?xml version="1.0" encoding="UTF-8"?>
<svg width="102px" height="65px" viewBox="0 0 102 65" version="1.1" xmlns="http://www.w3.org/2000/svg" xmlns:xlink="http://www.w3.org/1999/xlink">
    <!-- Generator: Sketch 44.1 (41455) - http://www.bohemiancoding.com/sketch -->
    <title>Payment / UnionPay</title>
    <desc>Created with Sketch.</desc>
    <defs></defs>
    <g id="Payment-Methods" stroke="none" stroke-width="1" fill="none" fill-rule="evenodd">
        <g transform="translate(-541.000000, -478.000000)" id="Types">
            <g transform="translate(170.000000, 460.000000)">
                <g id="Title">
                    <g id="Payment-/-UnionPay" transform="translate(371.000000, 18.000000)">
                        <g id="UnionPay_logo" stroke-width="1" fill-rule="evenodd" transform="translate(73.705300, 23.000000)"></g>
                        <path d="M96.9232615,0.163351842 L72.0299724,0.156936342 L72.0235569,0.156936342 C72.0043155,0.156936342 71.985497,0.160360816 71.9666836,0.160360816 C68.5469152,0.2651285 64.2877003,3.00795813 63.5119762,6.39009492 L51.7397099,58.479772 C50.9639856,61.8934902 53.0743464,64.6712581 56.4693142,64.7223734 L82.6206975,64.7223734 C85.9639181,64.5570004 89.2126341,61.8457159 89.9751047,58.5020095 L101.747804,6.41190447 C102.535926,2.96348239 100.374675,0.163351842 96.9232615,0.163351842" id="path22" fill="#00788B" fill-rule="nonzero"></path>
                        <path d="M51.7397099,58.479772 L63.5119814,6.39009492 C64.2877057,3.00795779 68.5469152,0.265128158 71.9666836,0.160360816 L62.0691528,0.153945316 L44.2369132,0.150520842 C40.8076076,0.220653105 36.4928926,2.98272924 35.7174658,6.39009492 L23.9417309,58.479772 C23.1631435,61.8934902 25.2765839,64.6712581 28.6694115,64.7223734 L56.4693138,64.7223734 C53.074346,64.6712581 50.9639852,61.8934902 51.7397096,58.479772" id="path20" fill="#004184" fill-rule="nonzero"></path>
                        <path d="M23.9417312,58.479772 L35.7174634,6.39010039 C36.4928874,2.98272924 40.8076052,0.220658579 44.2369108,0.150526316 L21.3926618,0.144538789 C17.9441983,0.144538789 13.5228717,2.93825932 12.7347901,6.39010039 L0.959039453,58.479772 C0.887377979,58.7976716 0.847621242,59.1092026 0.823901374,59.4140625 L0.823901374,60.3804254 C1.05442114,62.868858 2.95487745,64.6809468 5.68669506,64.7223737 L28.6694118,64.7223737 C25.2765842,64.6712584 23.1631438,61.8934906 23.9417312,58.4797723" id="path16" fill="#DF1022" fill-rule="nonzero"></path>
                        <g id="Text" stroke-width="1" fill-rule="evenodd" transform="translate(12.000000, 16.000000)" fill="#FFFFFF">
                            <path d="M32.7184246,22.1064631 L33.1507595,22.1064631 C33.5480309,22.1064631 33.8153007,21.97317 33.9405936,21.7092362 L35.0639825,20.0279609 L38.0723696,20.0279609 L37.4450375,21.1337737 L41.0521088,21.1337737 L40.5945451,22.8280914 L36.3024018,22.8280914 C35.8080625,23.5717852 35.1995434,23.9214178 34.4678665,23.8799806 L32.2322072,23.8799806 L32.718424,22.1064631 L32.7184246,22.1064631 Z M32.2245102,24.5348122 L40.1271411,24.5348122 L39.6233897,26.3752957 L36.4452342,26.3752957 L35.9603013,28.1518069 L39.0529305,28.1518069 L38.5491792,29.9921157 L35.45655,29.9921157 L34.7381269,32.6172214 C34.5602308,33.0560135 34.794149,33.2533234 35.4360247,33.2085504 L37.9564828,33.2085504 L37.4895074,34.9187322 L32.6504322,34.9187322 C31.7331594,34.9187322 31.4185091,34.3940276 31.706221,33.3421852 L32.6247702,29.9921157 L30.6479163,29.9921157 L31.1500858,28.1518069 L33.1272373,28.1518069 L33.6117473,26.3752957 L31.7220434,26.3752957 L32.2245105,24.5348122 L32.2245102,24.5348122 Z M44.8379322,20.0154296 L44.7134901,21.0928477 C44.7134901,21.0928477 46.2042131,19.9736503 47.558096,19.9736503 L52.5609575,19.9736503 L50.6477342,26.8993137 C50.4890795,27.6910743 49.8087214,28.0847961 48.6070722,28.0847961 L42.9366785,28.0847961 L41.6084575,32.9479466 C41.5319098,33.2085449 41.6401019,33.3421798 41.9261847,33.3421798 L43.0418741,33.3421798 L42.6317768,34.8517213 L39.7952983,34.8517213 C38.70655,34.8517213 38.2536844,34.5243262 38.4332927,33.8666706 L42.1866106,20.0154296 L44.8379264,20.0154296 L44.8379316,20.0154296 L44.8379322,20.0154296 Z M49.0744759,21.97317 L44.6091452,21.97317 L44.0750337,23.8419207 C44.0750337,23.8419207 44.8186857,23.3050296 46.0613855,23.2858272 C47.3006611,23.2664138 48.7152643,23.2858272 48.7152643,23.2858272 L49.0744759,21.97317 L49.0744759,21.97317 Z M47.4567473,26.3082852 C47.7868776,26.3530582 47.9716123,26.2224171 47.9938499,25.9140937 L48.2671071,24.9290036 L43.7949378,24.9290036 L43.4199042,26.3082852 L47.4567473,26.3082852 L47.4567473,26.3082852 Z M44.4402325,28.5458681 L47.017997,28.5458681 L46.9701026,29.6613433 L47.6564482,29.6613433 C48.0032567,29.6613433 48.1751657,29.5502908 48.1751657,29.3311297 L48.3782907,28.6095014 L50.5207238,28.6095014 L50.2346407,29.6613433 C49.9925999,30.5386719 49.3511525,30.996366 48.3085864,31.0411391 L46.9354621,31.0411391 L46.9290466,32.9479469 C46.9038177,33.2533183 47.180066,33.4089768 47.748818,33.4089768 L49.0394125,33.4089768 L48.6228946,34.9187325 L45.527274,34.9187325 C44.6596078,34.9599976 44.2341165,34.5465648 44.243095,33.6695755 L44.4402325,28.5458684 L44.4402325,28.5458681 Z" id="path24" fill-rule="nonzero"></path>
                            <path d="M13.2035862,10.7884668 C12.8539536,12.5016447 12.0434658,13.8174681 10.7862697,14.7518838 C9.54049372,15.6704799 7.93366772,16.1311681 5.96643451,16.1311681 C4.11508911,16.1311681 2.75782993,15.6607734 1.8917039,14.7168181 C1.29100982,14.0461224 0.9921819,13.1943644 0.9921819,12.1645434 C0.9921819,11.7387493 1.0431549,11.2810552 1.14488845,10.7884671 L3.24092532,0.681477868 L6.40659569,0.681477868 L4.33908287,10.6740315 C4.27545095,10.9506243 4.25004998,11.2080596 4.25338551,11.4400907 C4.25004998,11.9519226 4.3771414,12.3713457 4.63457629,12.6985684 C5.00960885,13.1849993 5.61829998,13.426398 6.46535193,13.426398 C7.43941182,13.426398 8.24203285,13.1882069 8.86496445,12.7081053 C9.48802401,12.2313812 9.89478682,11.5545256 10.0775131,10.6740312 L12.1515276,0.681477526 L15.3011605,0.681477526 L13.2035862,10.7884668" id="path28" fill-rule="nonzero"></path>
                            <path d="M26.4983947,6.81230455 L28.977674,6.81230455 L27.0356279,15.8325095 L24.5612243,15.8325095 L26.4983947,6.81230455 M27.2788223,3.52608347 L29.780167,3.52608347 L29.3129381,5.71555887 L26.8117631,5.71555887 L27.2788223,3.52608347" id="path34" fill-rule="nonzero"></path>
                            <path d="M31.1722796,15.1459474 C30.523819,14.5262233 30.196424,13.6903322 30.1932605,12.6287806 C30.1932605,12.4475069 30.2042931,12.2410464 30.2283266,12.0152138 C30.2522295,11.7863457 30.2824645,11.563849 30.3252276,11.3573885 C30.6192243,9.89223616 31.2454473,8.72894997 32.20997,7.87069305 C33.172997,7.00940063 34.3348741,6.57710753 35.6951674,6.57710753 C36.8091497,6.57710753 37.6926328,6.8886385 38.3396397,7.51157011 C38.9862183,8.13779311 39.3103665,8.98304934 39.3103665,10.0576458 C39.3103665,10.2416963 39.2962512,10.4547007 39.2723066,10.6835267 C39.2436535,10.9155582 39.2090178,11.1380549 39.168818,11.3573882 C38.881451,12.800303 38.2571099,13.9509302 37.2923703,14.7933234 C36.3276362,15.6419152 35.1691785,16.0643293 33.8182917,16.0643293 C32.6996112,16.0643293 31.8191141,15.7593418 31.1722796,15.145947 M35.8970081,13.3597292 C36.3340517,12.8861711 36.6470756,12.1677062 36.8377976,11.2112223 C36.8664506,11.061893 36.8916795,10.9060651 36.9075019,10.7503648 C36.9233239,10.5977 36.9297394,10.4547003 36.9297394,10.324401 C36.9297394,9.76813816 36.7881961,9.33601439 36.5038201,9.03081545 C36.2211563,8.72245032 35.8191816,8.57008587 35.2996082,8.57008587 C34.6128346,8.57008587 34.0534891,8.8113125 33.6151667,9.29457724 C33.172997,9.77784471 32.8599731,10.5087961 32.6628305,11.4813579 C32.6358893,11.6306872 32.613657,11.7801858 32.5931262,11.9263516 C32.5773042,12.0756809 32.5726006,12.2155171 32.5755971,12.3426086 C32.5755971,12.8957083 32.7171404,13.3216717 33.0015164,13.6234934 C33.2841802,13.9255293 33.6844427,14.0748582 34.2108599,14.0748582 C34.90063,14.0748582 35.45997,13.836495 35.8970081,13.3597289" id="path36" fill-rule="nonzero"></path>
                            <path d="M55.3961573,22.1828385 L55.9939856,20.0788904 L59.016488,20.0788904 L58.8860583,20.8509789 C58.8860583,20.8509789 60.4306632,20.0788904 61.5429336,20.0788904 L65.2804346,20.0788904 L64.6864537,22.1828385 L64.0984603,22.1828385 L61.2790829,32.1057286 L61.8670763,32.1057286 L61.3077359,34.0763418 L60.7197425,34.0763418 L60.4751386,34.9312604 L57.5479973,34.9312604 L57.7921784,34.0763418 L52.0174398,34.0763418 L52.5802044,32.1057286 L53.1587913,32.1057286 L55.9807317,22.1828385 L55.3961576,22.1828385 L55.3961573,22.1828385 Z M58.6572764,22.1828385 L57.8879675,24.8683641 C57.8879675,24.8683641 59.2042189,24.3632453 60.3387214,24.2202453 C60.5893179,23.2824496 60.91688,22.1828381 60.91688,22.1828381 L58.6572761,22.1828381 L58.6572764,22.1828385 Z M57.5317525,26.1272256 L56.7598754,28.9400596 C56.7598754,28.9400596 58.2185261,28.2217668 59.219613,28.1612973 C59.5086922,27.074175 59.7981998,26.1272259 59.7981998,26.1272259 L57.5317525,26.1272259 L57.5317525,26.1272256 Z M58.0975084,32.1057286 L58.6760898,30.0652858 L56.4199104,30.0652858 L55.8383273,32.1057286 L58.0975084,32.1057286 Z M65.4078682,19.9486332 L68.249478,19.9486332 L68.3700731,20.9971447 C68.3512546,21.2640727 68.5099093,21.3915476 68.8468834,21.3915476 L69.3489225,21.3915476 L68.8408958,23.1680589 L66.7523446,23.1680589 C65.9548107,23.2093239 65.5447082,22.9044668 65.5066535,22.2462993 L65.4078682,19.9486332 L65.4078682,19.9486332 Z M64.5752708,23.7593882 L73.7796126,23.7593882 L73.2395136,25.666496 L70.308953,25.666496 L69.8064859,27.439669 L72.7340551,27.439669 L72.190532,29.3436579 L68.9298412,29.3436579 L68.1921767,30.4595194 L69.7881008,30.4595194 L70.1567189,32.693722 C70.2007608,32.9162187 70.3979038,33.0242805 70.7348775,33.0242805 L71.2305011,33.0242805 L70.7096435,34.8642499 L68.9550752,34.8642499 C68.0459301,34.9090229 67.5759633,34.6038653 67.5374755,33.9460428 L67.1145472,31.9055949 L65.662312,34.0763421 C65.3189225,34.6896948 64.7912214,34.9758665 64.0796472,34.9312608 L61.4001064,34.9312608 L61.9213869,33.0907796 L62.7574087,33.0907796 C63.1007982,33.0907796 63.386453,32.9382427 63.6438882,32.6300473 L65.9167511,29.3436579 L62.9861905,29.3436579 L63.5292857,27.439669 L66.7078695,27.439669 L67.2133277,25.666496 L64.0317528,25.666496 L64.5752708,23.7593882 L64.5752708,23.7593882 Z" id="path26" fill-rule="nonzero"></path>
                            <path d="M16.119648,6.80914111 L18.3555187,6.80914111 L18.0997957,8.11221937 L18.4206918,7.74039337 C19.1454835,6.96496937 20.0258059,6.58027303 21.0651641,6.58027303 C22.0059536,6.58027303 22.6844769,6.85374411 23.1104404,7.40346382 C23.5298608,7.95339734 23.644296,8.71308553 23.4458743,9.68881318 L22.2140818,15.8356754 L19.9162042,15.8356754 L21.0285578,10.2641063 C21.1431655,9.68881353 21.1114348,9.25968353 20.9346951,8.983049 C20.7601345,8.70658655 20.426196,8.57008587 19.9447687,8.57008587 C19.3536118,8.57008587 18.8561483,8.75418092 18.450924,9.11984971 C18.0439901,9.48850953 17.7755668,10.0003418 17.6435997,10.6517961 L16.6186071,15.8356754 L14.3159401,15.8356754 L16.119648,6.80914111" id="path30" fill-rule="nonzero"></path>
                            <path d="M41.7606975,6.80914111 L43.9984918,6.80914111 L43.744481,8.11221937 L44.0617854,7.74039337 C44.7870468,6.96496937 45.670535,6.58027303 46.7066857,6.58027303 C47.6474751,6.58027303 48.3274104,6.85374411 48.7499052,7.40346382 C49.166846,7.95339734 49.2874412,8.71308553 49.0838879,9.68881318 L47.8570102,15.8356754 L45.5559274,15.8356754 L46.6686254,10.2641063 C46.7827996,9.68881353 46.7511552,9.25968353 46.5762556,8.983049 C46.3949402,8.70658655 46.067373,8.57008587 45.5879997,8.57008587 C44.996587,8.57008587 44.5009586,8.75418092 44.0908612,9.11984971 C43.6837553,9.48850953 43.4139222,10.0003418 43.2869118,10.6517961 L42.2571767,15.8356754 L39.9573727,15.8356754 L41.7606968,6.80914111" id="path32" fill-rule="nonzero"></path>
                            <path d="M52.8218121,1.21516071 L59.3183928,1.21516071 C60.5675029,1.21516071 61.5335213,1.49825247 62.1976345,2.05417353 C62.8587512,2.61693805 63.1897377,3.42430682 63.1897377,4.47628084 L63.1897377,4.50792524 C63.1897377,4.70805784 63.1764838,4.93384458 63.1576653,5.17845395 C63.125593,5.42006305 63.0841141,5.66466832 63.0306601,5.91910945 C62.744577,7.31126371 62.0800358,8.43011897 61.05372,9.27871108 C60.0235569,10.1240977 58.803523,10.5500615 57.3987543,10.5500615 L53.9148357,10.5500615 L52.8376341,15.835673 L49.8211193,15.835673 L52.8218118,1.21516105 M54.4455275,8.00749137 L57.3350372,8.00749137 C58.0880957,8.00749137 58.685496,7.83241934 59.1212498,7.48616674 C59.5535898,7.13653413 59.8396729,6.60267853 59.9983225,5.87805887 C60.0235566,5.74420984 60.0393786,5.62361739 60.05862,5.51243182 C60.0684548,5.40766276 60.0808575,5.30246574 60.0808575,5.20111466 C60.0808575,4.68282553 59.8969738,4.30779571 59.5279275,4.07259834 C59.1593094,3.8339765 58.5811556,3.71980229 57.7797692,3.71980229 L55.3260189,3.71980229 L54.4455268,8.00749137" id="path38" fill-rule="nonzero"></path>
                            <path d="M76.6909257,17.5807536 C75.7373052,19.6083677 74.8285881,20.7905145 74.2949046,21.3404063 C73.7603651,21.8841385 72.7024049,23.1491596 70.1532937,23.0536264 L70.3726691,21.5059415 C72.5176705,20.844822 73.6778353,17.8664115 74.338952,16.5475971 L73.5508246,6.83454242 L75.2100372,6.81230729 L76.6019749,6.81230729 L76.7516459,12.9052431 L79.3606265,6.81230729 L82.0021075,6.81230729 L76.6909253,17.5807536" id="path40" fill-rule="nonzero"></path>
                            <path d="M69.3048744,7.54646382 L68.2554648,8.26809211 C67.1590167,7.41000761 66.1579298,6.87914542 64.2258931,7.77533189 C61.5938187,8.99574966 59.3945122,18.356178 66.6411556,15.2730833 L67.0542491,15.7625079 L69.9052654,15.8356757 L71.7774378,7.33029674 L69.3048744,7.54646416 M67.6837217,12.1964434 C67.22573,13.5473326 66.2028332,14.4403556 65.4018803,14.1861283 C64.600927,13.9382303 64.3148391,12.6349382 64.778818,11.2810549 C65.2363869,9.92700466 66.266122,9.03714542 67.0606594,9.29141447 C67.8616178,9.5393125 68.1506971,10.8423908 67.6837217,12.1964434" id="path42" fill-rule="nonzero"></path>
                        </g>
                    </g>
                </g>
            </g>
        </g>
    </g>
</svg>