<?xml version="1.0" encoding="UTF-8"?>
<svg width="125px" height="40px" viewBox="0 0 125 40" version="1.1" xmlns="http://www.w3.org/2000/svg" xmlns:xlink="http://www.w3.org/1999/xlink">
    <!-- Generator: Sketch 44.1 (41455) - http://www.bohemiancoding.com/sketch -->
    <title>Payment / Visa</title>
    <desc>Created with Sketch.</desc>
    <defs></defs>
    <g id="Payment-Methods" stroke="none" stroke-width="1" fill="none" fill-rule="evenodd">
        <g transform="translate(-193.000000, -491.000000)" id="Types">
            <g transform="translate(170.000000, 460.000000)">
                <g id="Title">
                    <g id="Payment-/-Visa" transform="translate(23.000000, 31.000000)">
                        <path d="M50.9647436,0.510683761 L44.7067308,39.4519231 L54.7104701,39.4519231 L60.9642094,0.510683761 L50.9647436,0.510683761 Z M81.1362179,16.3733974 C77.6410256,14.6479701 75.4978632,13.4813034 75.4978632,11.7163462 C75.5395299,10.1116453 77.3092949,8.46741453 81.2612179,8.46741453 C84.5101496,8.38568376 86.8974359,9.14957265 88.7104701,9.90918803 L89.6185897,10.3141026 L90.9770299,2.16773504 C89.0026709,1.40384615 85.8685897,0.560897436 82,0.560897436 C72.1239316,0.560897436 65.1688034,5.69604701 65.125,13.0411325 C65.0438034,18.4620726 70.1036325,21.4690171 73.8910256,23.2740385 C77.7617521,25.125 79.0785256,26.3247863 79.0785256,27.9690171 C79.0347222,30.4941239 75.9487179,31.6586538 73.071047,31.6586538 C69.0811966,31.6586538 66.9364316,31.0598291 63.6832265,29.653312 L62.366453,29.0523504 L60.9684829,37.519765 C63.3178419,38.5630342 67.6394231,39.4834402 72.1239316,39.5293803 C82.6196581,39.5293803 89.4513889,34.4711538 89.536859,26.6442308 C89.5705128,22.3498932 86.9017094,19.0614316 81.1362179,16.3733974 Z M116.619658,0.631944444 L108.882479,0.631944444 C106.497329,0.631944444 104.684295,1.31623932 103.653312,3.76388889 L88.7964744,39.4519231 L99.2922009,39.4519231 L102.184295,31.7254274 L113.927885,31.7254274 L115.426282,39.4834402 L124.684829,39.4834402 L116.619658,0.631944444 Z M105.095085,23.9273504 C105.297543,23.9481838 109.122329,11.3157051 109.122329,11.3157051 L112.17094,23.9273504 L105.095085,23.9273504 Z M36.3498932,0.510683761 L26.5507479,26.9674145 L25.4823718,21.7510684 C23.6709402,15.7307692 17.9893162,9.18696581 11.6501068,5.93803419 L20.6244658,39.4123932 L31.2061966,39.4123932 L46.9332265,0.514957265 L36.3498932,0.514957265 L36.3498932,0.510683761 Z" id="Fill-1" fill="#222277"></path>
                        <path d="M22.1853632,5.53311966 C21.4220085,2.56410256 18.9866453,0.560897436 15.6794872,0.519230769 L0.160790598,0.519230769 L0,1.23878205 C12.1068376,4.22275641 22.2692308,13.4065171 25.5635684,22.045406 L22.1853632,5.53311966 Z" id="Fill-2" fill="#DC9902"></path>
                    </g>
                </g>
            </g>
        </g>
    </g>
</svg>