<svg width="32" height="21" viewBox="0 0 32 21" xmlns="http://www.w3.org/2000/svg"><title>Fill 1</title><path d="M23.178 18.719h-3.06v-4.413a7.353 7.353 0 0 0 2.445.419c.206 0 .411-.011.613-.028l.002 4.022zm-21.515.001h3.058V5.229H1.663V18.72zM9.217 1.663h5.984v1.903H9.217V1.663zm-.831 3.566h7.131a7.356 7.356 0 0 0 2.936 8.239v5.252H6.384V5.229h2.002zm14.177-3.566a5.7 5.7 0 0 1 0 11.398 5.697 5.697 0 0 1-5.698-5.698 5.704 5.704 0 0 1 5.698-5.7zm9.225 13.747l-3.47-3.47a7.356 7.356 0 0 0-1.183-10.337 7.358 7.358 0 0 0-10.272 1.101V.832A.831.831 0 0 0 16.031 0H8.386a.831.831 0 0 0-.832.832v2.735H.832A.832.832 0 0 0 0 4.398v15.153c0 .46.373.832.832.832h23.176a.831.831 0 0 0 .831-.832v-5.188a7.37 7.37 0 0 0 2.305-1.244l3.47 3.47a.832.832 0 0 0 1.174-1.174v-.005z" fill="#FFF" fill-rule="evenodd"/></svg>