<svg viewBox="0 0 153 34" xmlns="http://www.w3.org/2000/svg"><title>Transfer</title><g fill="none" fill-rule="evenodd"><path d="M2.547 23.496c.181-.566.972-.586 1.176-.028.433 1.176 1.019 2.718 1.525 3.881C45.484 6.205 82.183 7.098 106.032 11.657c19.118 3.656 33.23 10.18 39.564 13.502a4.345 4.345 0 0 1 6.091-.003 4.393 4.393 0 0 1 .069 6.196 4.35 4.35 0 0 1-6.17.068 4.38 4.38 0 0 1-1.2-4.073c-6.194-3.248-20.073-9.66-38.925-13.25-23.423-4.462-59.46-5.315-98.996 15.438.74 1.052 1.826 2.427 2.65 3.448a.624.624 0 0 1-.625 1L.484 32.148a.627.627 0 0 1-.454-.803l2.517-7.849z" fill="#000"/><path fill="#FFF" d="M48 0h57v27H48z"/></g></svg>