<svg width="153" height="139" viewBox="0 0 153 139" xmlns="http://www.w3.org/2000/svg"><title>Transfer</title><g fill="none" fill-rule="evenodd"><path d="M147.251 129.415c-.028-.593-.786-.817-1.128-.33-.722 1.023-1.687 2.36-2.477 3.353-33.393-30.838-69.072-39.474-93.29-41.242-19.411-1.417-34.73 1.231-41.709 2.801a4.345 4.345 0 0 0-5.883-1.579 4.393 4.393 0 0 0-1.67 5.967 4.35 4.35 0 0 0 5.942 1.663 4.38 4.38 0 0 0 2.213-3.624c6.824-1.533 21.89-4.135 41.028-2.724 23.78 1.753 58.81 10.255 91.628 40.534-.988.825-2.393 1.872-3.453 2.645-.48.35-.247 1.106.345 1.127l8.208.3a.627.627 0 0 0 .646-.658l-.4-8.233z" fill="#000"/><path fill="#FFF" d="M54.371 80.203l55.058 14.753-6.988 26.08-55.058-14.753z"/><path d="M150.453 70.496c-.181-.566-.972-.586-1.176-.028-.433 1.176-1.019 2.718-1.525 3.881-40.236-21.144-76.935-20.251-100.784-15.692-19.118 3.656-33.23 10.18-39.564 13.502a4.345 4.345 0 0 0-6.091-.003 4.393 4.393 0 0 0-.069 6.196 4.35 4.35 0 0 0 6.17.068 4.38 4.38 0 0 0 1.2-4.073c6.194-3.248 20.073-9.66 38.925-13.25 23.423-4.462 59.46-5.315 98.996 15.438-.74 1.052-1.826 2.427-2.65 3.448-.373.462.047 1.133.625 1l8.006-1.835a.627.627 0 0 0 .454-.803l-2.517-7.849z" fill="#000"/><path fill="#FFF" d="M48 47h57v27H48z"/><g><path d="M144.614 11.134c-.321-.5-1.09-.314-1.143.278-.113 1.247-.28 2.889-.468 4.143-44.338-10.01-79.555.351-101.412 10.928-17.52 8.479-29.462 18.432-34.72 23.28a4.345 4.345 0 0 0-5.885 1.575 4.393 4.393 0 0 0 1.537 6.002A4.35 4.35 0 0 0 8.5 55.81a4.38 4.38 0 0 0 .104-4.245c5.143-4.74 16.889-14.526 34.169-22.873 21.47-10.372 56.06-20.524 99.62-10.71-.444 1.207-1.137 2.817-1.669 4.016-.24.542.34 1.082.863.804l7.258-3.845a.627.627 0 0 0 .23-.892l-4.462-6.93z" fill="#000"/><path fill="#FFF" d="M39.571 14.956L94.63.203l6.988 26.08L46.56 41.036z"/></g></g></svg>