<svg viewBox="0 0 153 34" xmlns="http://www.w3.org/2000/svg"><title>Transfer</title><g fill="none" fill-rule="evenodd"><path d="M150.453 23.496c-.181-.566-.972-.586-1.176-.028-.433 1.176-1.019 2.718-1.525 3.881C107.516 6.205 70.817 7.098 46.968 11.657 27.85 15.313 13.738 21.837 7.404 25.16a4.345 4.345 0 0 0-6.091-.003 4.393 4.393 0 0 0-.069 6.196 4.35 4.35 0 0 0 6.17.068 4.38 4.38 0 0 0 1.2-4.073c6.194-3.248 20.073-9.66 38.925-13.25 23.423-4.462 59.46-5.315 98.996 15.438-.74 1.052-1.826 2.427-2.65 3.448a.624.624 0 0 0 .625 1l8.006-1.835a.627.627 0 0 0 .454-.803l-2.517-7.849z" fill="#000"/><path fill="#FFF" d="M48 0h57v27H48z"/></g></svg>