<svg viewBox="0 0 154 160" xmlns="http://www.w3.org/2000/svg"><title>Transfer</title><g fill="none" fill-rule="evenodd"><path d="M5.386 113.134c.321-.5 1.09-.314 1.143.278.113 1.247.28 2.889.468 4.143 44.338-10.01 79.555.351 101.412 10.928 17.52 8.479 29.462 18.432 34.72 23.28a4.345 4.345 0 0 1 5.885 1.575 4.393 4.393 0 0 1-1.537 6.002 4.35 4.35 0 0 1-5.978-1.53 4.38 4.38 0 0 1-.104-4.245c-5.143-4.74-16.889-14.526-34.169-22.873-21.47-10.372-56.06-20.524-99.62-10.71.444 1.207 1.137 2.817 1.669 4.016.24.542-.34 1.082-.863.804l-7.258-3.845a.627.627 0 0 1-.23-.892l4.462-6.93z" fill="#000"/><path fill="#FFF" d="M110.429 116.956L55.37 102.203l-6.988 26.08 55.058 14.753z"/><path d="M3.003 83.934c.13-.58.916-.668 1.169-.13.533 1.133 1.251 2.619 1.857 3.733 38.24-24.57 74.877-26.88 99.033-24.416 19.363 1.975 33.99 7.244 40.59 10.002a4.345 4.345 0 0 1 6.068-.534 4.393 4.393 0 0 1 .608 6.166 4.35 4.35 0 0 1-6.14.606 4.38 4.38 0 0 1-1.55-3.953c-6.455-2.695-20.84-7.873-39.932-9.807-23.723-2.403-59.698-.113-97.275 24.007.83.983 2.031 2.26 2.941 3.204.412.428.052 1.133-.535 1.05l-8.136-1.13a.627.627 0 0 1-.522-.76l1.824-8.038z" fill="#000"/><path fill="#FFF" d="M105 54H48v27h57z"/><g><path d="M.855 55.516c-.024-.594.712-.883 1.095-.428.809.956 1.887 2.205 2.76 3.125C35.288 24.583 70.08 12.869 94.05 8.997c19.214-3.104 34.706-1.8 41.795-.845a4.345 4.345 0 0 1 5.723-2.085 4.393 4.393 0 0 1 2.183 5.798 4.35 4.35 0 0 1-5.774 2.175 4.38 4.38 0 0 1-2.52-3.418c-6.932-.932-22.167-2.211-41.11.863C70.812 15.303 36.656 26.827 6.602 59.85c1.056.735 2.547 1.656 3.67 2.333.508.306.343 1.08-.245 1.153l-8.151 1.014a.627.627 0 0 1-.701-.599l-.32-8.236z" fill="#000"/><path fill="#FFF" d="M91.629.203L36.571 14.956l6.988 26.08 55.058-14.753z"/></g></g></svg>