<svg xmlns="http://www.w3.org/2000/svg" viewBox="0 0 116 33"><defs><style>.cls-1{fill:#fff;}.cls-2{fill:#e0e0e0;fill-rule:evenodd;}</style></defs><title>Champion FX MT5</title><g id="Layer_8" data-name="Layer 8"><path d="M116,29.69A3.32,3.32,0,0,1,112.66,33H3.34A3.35,3.35,0,0,1,0,29.66V3.33A3.34,3.34,0,0,1,3.33,0H112.67A3.33,3.33,0,0,1,116,3.33V29.69Z"/><path class="cls-1" d="M47.15,11a2.42,2.42,0,0,1-2.56,2.45h-2V8.58h2A2.41,2.41,0,0,1,47.15,11Zm-.83,0A1.67,1.67,0,0,0,44.6,9.33H43.43v3.42h1.21A1.64,1.64,0,0,0,46.32,11Z"/><path class="cls-1" d="M51.52,11.62a1.94,1.94,0,0,1-3.89,0,1.94,1.94,0,0,1,3.89,0Zm-3.08,0a1.14,1.14,0,1,0,2.28,0,1.14,1.14,0,1,0-2.28,0Z"/><path class="cls-1" d="M52.45,9.76l1,2.93.94-2.93h.83l.95,2.93,1-2.93h.82l-1.36,3.73h-.83l-.95-2.76-.95,2.76H53L51.63,9.76Z"/><path class="cls-1" d="M62.07,11.17v2.32h-.81V11.39a.83.83,0,0,0-.9-.9,1,1,0,0,0-1.06,1v2h-.8V9.76h.8v.71a1.41,1.41,0,0,1,1.37-.74A1.3,1.3,0,0,1,62.07,11.17Z"/><path class="cls-1" d="M64,8.29v5.2h-.81V8.29Z"/><path class="cls-1" d="M68.75,11.62a1.94,1.94,0,0,1-3.89,0,1.94,1.94,0,0,1,3.89,0Zm-3.08,0a1.14,1.14,0,1,0,2.28,0,1.14,1.14,0,1,0-2.28,0Z"/><path class="cls-1" d="M71.82,13.49V13a1.51,1.51,0,0,1-1.23.49,1.18,1.18,0,0,1-1.31-1.16c0-.68.51-1.11,1.41-1.12h1.13v-.11c0-.47-.3-.75-.89-.75a2,2,0,0,0-1.1.38l-.33-.56a2.73,2.73,0,0,1,1.6-.47c1,0,1.5.49,1.51,1.31v2.44Zm0-1.31v-.34h-1c-.53,0-.77.14-.77.5s.27.55.72.55S71.77,12.58,71.82,12.18Z"/><path class="cls-1" d="M77.24,8.29v5.2h-.81v-.64a1.44,1.44,0,0,1-1.31.67,1.76,1.76,0,0,1-1.79-1.91,1.74,1.74,0,0,1,1.77-1.88,1.47,1.47,0,0,1,1.32.68V8.29Zm-.81,3.35a1.13,1.13,0,0,0-1.14-1.23,1.15,1.15,0,0,0-1.15,1.23,1.15,1.15,0,1,0,2.29,0Z"/><path class="cls-1" d="M84.1,11.62a1.94,1.94,0,0,1-3.89,0,1.94,1.94,0,0,1,3.89,0Zm-3.08,0a1.14,1.14,0,1,0,2.28,0,1.14,1.14,0,1,0-2.28,0Z"/><path class="cls-1" d="M88.5,11.17v2.32H87.7V11.39a.83.83,0,0,0-.9-.9,1,1,0,0,0-1.06,1v2h-.8V9.76h.8v.71a1.41,1.41,0,0,1,1.37-.74A1.3,1.3,0,0,1,88.5,11.17Z"/><path class="cls-1" d="M93.79,13.25a1.79,1.79,0,0,1-.92.27,1,1,0,0,1-1-1.09V10.5H91.3V9.9h.53v-1h.8v1h1.1v.6h-1.1v1.79c0,.38.15.5.4.5a1.29,1.29,0,0,0,.56-.16Z"/><path class="cls-1" d="M98.13,11.17v2.32h-.81V11.39a.83.83,0,0,0-.9-.9,1.07,1.07,0,0,0-1.06,1.16v1.83h-.81V8.29h.81v2.2a1.41,1.41,0,0,1,1.38-.76A1.3,1.3,0,0,1,98.13,11.17Z"/><path class="cls-1" d="M102.49,11.93H99.67a1.13,1.13,0,0,0,1.16.93,1.45,1.45,0,0,0,1.05-.43l.43.46a2,2,0,0,1-1.54.63,1.79,1.79,0,0,1-1.91-1.88,1.81,1.81,0,0,1,1.88-1.9C102.05,9.73,102.59,10.59,102.49,11.93Zm-.7-.59a1,1,0,0,0-1-1,1.05,1.05,0,0,0-1.09,1Z"/><path class="cls-1" d="M47.4,22.43H43.87L43.2,24H42l3.09-7h1.21l3.06,7H48.07Zm-.45-1-1.32-3.11-1.32,3.11Z"/><path class="cls-1" d="M55.79,21.37a2.46,2.46,0,0,1-2.52,2.68,2.09,2.09,0,0,1-1.88-1V26H50.24V18.69h1.15v.92a2.08,2.08,0,0,1,1.86-1A2.5,2.5,0,0,1,55.79,21.37Zm-1.16,0a1.62,1.62,0,1,0-3.24,0,1.62,1.62,0,1,0,3.24,0Z"/><path class="cls-1" d="M62.58,21.37a2.46,2.46,0,0,1-2.52,2.68,2.09,2.09,0,0,1-1.88-1V26H57V18.69h1.15v.92a2.08,2.08,0,0,1,1.86-1A2.5,2.5,0,0,1,62.58,21.37Zm-1.16,0a1.62,1.62,0,1,0-3.24,0,1.62,1.62,0,1,0,3.24,0Z"/><path class="cls-1" d="M65,16.6V24H63.84V16.6Z"/><path class="cls-1" d="M71.42,21.79h-4A1.62,1.62,0,0,0,69,23.12a2.07,2.07,0,0,0,1.5-.62l.61.65a2.9,2.9,0,0,1-2.2.9,2.56,2.56,0,0,1-2.72-2.69,2.58,2.58,0,0,1,2.69-2.71C70.8,18.65,71.56,19.87,71.42,21.79Zm-1-.84a1.37,1.37,0,0,0-1.48-1.38A1.51,1.51,0,0,0,67.38,21Z"/><path class="cls-1" d="M77.9,18.08c-.69,0-1.14.26-1.14.73,0,1.53,3.78.71,3.77,3.23,0,1.25-1.1,2-2.64,2A4.31,4.31,0,0,1,75,22.94l.51-1a3.69,3.69,0,0,0,2.37,1c.82,0,1.31-.31,1.31-.85,0-1.56-3.78-.69-3.78-3.18,0-1.2,1-1.95,2.55-1.95a4.56,4.56,0,0,1,2.45.72l-.49,1A4.18,4.18,0,0,0,77.9,18.08Z"/><path class="cls-1" d="M84.85,23.67a2.55,2.55,0,0,1-1.31.39A1.4,1.4,0,0,1,82,22.51V19.75H81.3v-.86H82V17.44h1.14v1.46h1.57v.86H83.19V22.3c0,.55.21.72.57.72a1.85,1.85,0,0,0,.8-.23Z"/><path class="cls-1" d="M90.9,21.34a2.77,2.77,0,1,1-2.77-2.69A2.61,2.61,0,0,1,90.9,21.34Zm-4.4,0a1.63,1.63,0,1,0,3.25,0,1.63,1.63,0,1,0-3.25,0Z"/><path class="cls-1" d="M95.09,18.65v1.1a1.61,1.61,0,0,0-1.84,1.48V24H92.1V18.69h1.15v1.06A1.93,1.93,0,0,1,95.09,18.65Z"/><path class="cls-1" d="M100.72,21.79h-4a1.62,1.62,0,0,0,1.65,1.33,2.07,2.07,0,0,0,1.5-.62l.61.65a2.9,2.9,0,0,1-2.2.9,2.56,2.56,0,0,1-2.72-2.69,2.58,2.58,0,0,1,2.69-2.71C100.1,18.65,100.86,19.87,100.72,21.79Zm-1-.84a1.37,1.37,0,0,0-1.48-1.38A1.51,1.51,0,0,0,96.68,21Z"/><path class="cls-2" d="M28.32,5h.15a4.7,4.7,0,0,1-1.18,3.54,3.67,3.67,0,0,1-3.23,1.51,4.58,4.58,0,0,1,1.2-3.43A5.21,5.21,0,0,1,28.32,5Zm0,.29"/><path class="cls-2" d="M33,21.17v0a12.73,12.73,0,0,1-1.84,3.52c-.7,1-1.56,2.25-3.1,2.25-1.32,0-2.2-.85-3.56-.87s-2.23.71-3.54.89h-.45a4,4,0,0,1-2.31-1.58,13.83,13.83,0,0,1-3.21-8v-1a6.41,6.41,0,0,1,2.83-5.27,4.81,4.81,0,0,1,3.2-.74,8.55,8.55,0,0,1,1.57.45,4.28,4.28,0,0,0,1.57.47,3.83,3.83,0,0,0,1.1-.33,6.79,6.79,0,0,1,3.54-.63,4.9,4.9,0,0,1,3.61,2.14,4.6,4.6,0,0,0-2.35,4.56A4.71,4.71,0,0,0,33,21.17Zm0,.22"/></g></svg>