<svg xmlns="http://www.w3.org/2000/svg" viewBox="0 0 116 33"><defs><style>.cls-1{fill:#fff;}.cls-2{fill:#00d0ff;}.cls-3{fill:#00f16c;}.cls-4{fill:#ffd000;}.cls-5{fill:#fc3b42;}</style></defs><title>Champion FX MT5</title><g id="Layer_8" data-name="Layer 8"><path d="M116,29.69A3.32,3.32,0,0,1,112.66,33H3.34A3.35,3.35,0,0,1,0,29.66V3.33A3.33,3.33,0,0,1,3.33,0H112.67A3.33,3.33,0,0,1,116,3.33V29.69Z"/><path class="cls-1" d="M47.51,11.08h.72v1.81a3.33,3.33,0,0,1-1.91.64,2.48,2.48,0,1,1,0-5,3,3,0,0,1,1.88.69l-.47.61a2.13,2.13,0,0,0-1.42-.56,1.74,1.74,0,1,0,0,3.48,2.28,2.28,0,0,0,1.13-.34Z"/><path class="cls-1" d="M52.63,11.93H49.82a1.13,1.13,0,0,0,1.16.93A1.45,1.45,0,0,0,52,12.43l.43.46a2,2,0,0,1-1.54.63A1.79,1.79,0,0,1,49,11.63a1.81,1.81,0,0,1,1.88-1.9C52.2,9.73,52.73,10.58,52.63,11.93Zm-.7-.59a1,1,0,0,0-1-1,1.05,1.05,0,0,0-1.09,1Z"/><path class="cls-1" d="M55.58,13.25a1.79,1.79,0,0,1-.92.27,1,1,0,0,1-1-1.09V10.5h-.53V9.9h.53v-1h.8v1h1.1v.6h-1.1v1.79c0,.38.15.5.4.5a1.29,1.29,0,0,0,.56-.16Z"/><path class="cls-1" d="M59.29,8.69a.47.47,0,1,1-.47-.48A.46.46,0,0,1,59.29,8.69Zm-.07,1.07v3.73h-.8V9.76Z"/><path class="cls-1" d="M62.51,13.25a1.79,1.79,0,0,1-.92.27,1,1,0,0,1-1-1.09V10.5H60V9.9h.53v-1h.8v1h1.1v.6h-1.1v1.79c0,.38.15.5.4.5a1.29,1.29,0,0,0,.56-.16Z"/><path class="cls-1" d="M68.89,11.61a1.94,1.94,0,0,1-3.89,0,1.94,1.94,0,0,1,3.89,0Zm-3.08,0a1.14,1.14,0,1,0,2.28,0,1.14,1.14,0,1,0-2.28,0Z"/><path class="cls-1" d="M73.29,11.17v2.32h-.81V11.39a.83.83,0,0,0-.9-.9,1,1,0,0,0-1.06,1v2h-.8V9.76h.8v.71a1.41,1.41,0,0,1,1.37-.74A1.3,1.3,0,0,1,73.29,11.17Z"/><path class="cls-1" d="M49.22,20.57h1v2.58a4.74,4.74,0,0,1-2.72.91A3.54,3.54,0,1,1,47.6,17a4.2,4.2,0,0,1,2.69,1l-.67.87a3,3,0,0,0-2-.8,2.48,2.48,0,1,0,0,5,3.26,3.26,0,0,0,1.61-.48Z"/><path class="cls-1" d="M56.9,21.34a2.77,2.77,0,1,1-2.77-2.69A2.61,2.61,0,0,1,56.9,21.34Zm-4.4,0a1.63,1.63,0,1,0,3.25,0,1.63,1.63,0,1,0-3.25,0Z"/><path class="cls-1" d="M63.15,21.34a2.77,2.77,0,1,1-2.77-2.69A2.61,2.61,0,0,1,63.15,21.34Zm-4.4,0a1.63,1.63,0,1,0,3.25,0,1.63,1.63,0,1,0-3.25,0Z"/><path class="cls-1" d="M69.15,18.69v4.8A2.46,2.46,0,0,1,66.39,26a3.87,3.87,0,0,1-2.21-.7l.49-.83a2.69,2.69,0,0,0,1.67.58A1.5,1.5,0,0,0,68,23.52v-.67a2,2,0,0,1-1.76.9,2.36,2.36,0,0,1-2.4-2.57,2.33,2.33,0,0,1,2.36-2.53,2,2,0,0,1,1.8.9v-.86ZM68,21.21a1.51,1.51,0,0,0-1.53-1.63,1.64,1.64,0,0,0,0,3.27A1.52,1.52,0,0,0,68,21.21Z"/><path class="cls-1" d="M72,16.59V24H70.81V16.59Z"/><path class="cls-1" d="M78.38,21.79h-4A1.62,1.62,0,0,0,76,23.12a2.07,2.07,0,0,0,1.5-.62l.61.65a2.9,2.9,0,0,1-2.2.9,2.56,2.56,0,0,1-2.72-2.69,2.58,2.58,0,0,1,2.69-2.71C77.76,18.65,78.52,19.87,78.38,21.79Zm-1-.84a1.37,1.37,0,0,0-1.48-1.38A1.51,1.51,0,0,0,74.35,21Z"/><path class="cls-1" d="M88.21,19.4c0,1.58-1,2.5-2.77,2.5H83.83V24H82.66V17h2.79C87.2,17,88.21,17.88,88.21,19.4Zm-1.13,0c0-.92-.61-1.36-1.69-1.36H83.83v2.77h1.56C86.47,20.84,87.08,20.38,87.08,19.43Z"/><path class="cls-1" d="M90.51,16.59V24H89.37V16.59Z"/><path class="cls-1" d="M95.45,24v-.65a2.16,2.16,0,0,1-1.76.7,1.68,1.68,0,0,1-1.87-1.65c0-1,.73-1.59,2-1.6h1.61v-.16c0-.67-.43-1.07-1.27-1.07a2.8,2.8,0,0,0-1.57.54l-.47-.8a3.9,3.9,0,0,1,2.29-.67c1.37,0,2.14.7,2.15,1.87V24Zm0-1.87v-.49H94c-.75,0-1.1.2-1.1.71s.39.79,1,.79C94.75,23.15,95.38,22.72,95.44,22.14Z"/><path class="cls-1" d="M98.33,26a1.8,1.8,0,0,1-1.23-.45l.49-.89a1.13,1.13,0,0,0,.69.26.87.87,0,0,0,.81-.59l.18-.4-2.2-5.24h1.19l1.59,4,1.48-4h1.15l-2.42,6A1.77,1.77,0,0,1,98.33,26Z"/><path class="cls-2" d="M14.09,6.24a2.21,2.21,0,0,0-.09.62V25.75a2.25,2.25,0,0,0,.09.61l10.6-10L14.09,6.24Zm.25,0"/><path class="cls-3" d="M29.07,12.39,16.69,5.5a1.81,1.81,0,0,0-1.39-.27L26,15.35Zm0,0"/><path class="cls-4" d="M33.64,14.93l-3.3-1.84L26.95,16.3l3.45,3.28,3.21-1.77a1.56,1.56,0,0,0,0-2.88Zm0,0"/><path class="cls-5" d="M15.27,27.36a1.8,1.8,0,0,0,1.42-.26l12.42-6.82-3.18-3L15.27,27.36Zm0,0"/></g></svg>