<svg xmlns="http://www.w3.org/2000/svg" viewBox="0 0 116 33"><defs><style>.cls-1{fill:#fff;}.cls-2{fill:#f6bf00;}</style></defs><title>Champion FX MT5</title><g id="Layer_8" data-name="Layer 8"><path d="M116,29.69A3.32,3.32,0,0,1,112.66,33H3.35A3.36,3.36,0,0,1,0,29.65V3.33A3.33,3.33,0,0,1,3.33,0H112.66A3.35,3.35,0,0,1,116,3.34V29.69Z"/><path class="cls-1" d="M43.62,9.37v4.9h-.83V9.37Z"/><path class="cls-1" d="M48.42,12v2.32h-.81V12.18a.83.83,0,0,0-.9-.9,1,1,0,0,0-1.06,1v2h-.8V10.55h.8v.71A1.41,1.41,0,0,1,47,10.52,1.3,1.3,0,0,1,48.42,12Z"/><path class="cls-1" d="M50.54,11.16c-.31,0-.55.1-.55.37,0,.69,2,.31,2,1.67,0,.76-.68,1.11-1.43,1.11a2.3,2.3,0,0,1-1.5-.52l.29-.57a2,2,0,0,0,1.25.46c.34,0,.61-.12.61-.4,0-.76-2-.34-2-1.68,0-.76.66-1.08,1.37-1.08a2.35,2.35,0,0,1,1.3.38l-.29.6A2.19,2.19,0,0,0,50.54,11.16Z"/><path class="cls-1" d="M54.89,14a1.79,1.79,0,0,1-.92.27,1,1,0,0,1-1-1.09V11.29h-.53v-.6h.53v-1h.8v1h1.1v.6h-1.1v1.79c0,.38.15.5.4.5a1.29,1.29,0,0,0,.56-.16Z"/><path class="cls-1" d="M57.73,10.52v.77a1.13,1.13,0,0,0-1.29,1v1.95h-.8V10.55h.8v.74A1.36,1.36,0,0,1,57.73,10.52Z"/><path class="cls-1" d="M61.77,10.55v3.73H61v-.73a1.37,1.37,0,0,1-1.33.76,1.29,1.29,0,0,1-1.37-1.44V10.55h.8v2.09a.82.82,0,0,0,.87.9,1.05,1.05,0,0,0,1-1.16V10.55Z"/><path class="cls-1" d="M64.52,11.23a1.1,1.1,0,0,0-1.11,1.19,1.1,1.1,0,0,0,1.11,1.19,1.39,1.39,0,0,0,1.1-.45l.45.45a1.9,1.9,0,0,1-1.58.69,1.79,1.79,0,0,1-1.88-1.88,1.8,1.8,0,0,1,1.88-1.9,2,2,0,0,1,1.54.61l-.44.52A1.41,1.41,0,0,0,64.52,11.23Z"/><path class="cls-1" d="M69,14a1.79,1.79,0,0,1-.92.27,1,1,0,0,1-1-1.09V11.29h-.53v-.6h.53v-1h.8v1H69v.6h-1.1v1.79c0,.38.15.5.4.5a1.29,1.29,0,0,0,.56-.16Z"/><path class="cls-1" d="M70.63,9.48A.47.47,0,1,1,70.16,9,.46.46,0,0,1,70.63,9.48Zm-.07,1.07v3.73h-.8V10.55Z"/><path class="cls-1" d="M75.28,12.4a1.94,1.94,0,0,1-3.89,0,1.94,1.94,0,0,1,3.89,0Zm-3.08,0a1.14,1.14,0,1,0,2.28,0,1.14,1.14,0,1,0-2.28,0Z"/><path class="cls-1" d="M79.69,12v2.32h-.81V12.18a.83.83,0,0,0-.9-.9,1,1,0,0,0-1.06,1v2h-.8V10.55h.8v.71a1.41,1.41,0,0,1,1.37-.74A1.3,1.3,0,0,1,79.69,12Z"/><path class="cls-1" d="M81.81,11.16c-.31,0-.55.1-.55.37,0,.69,2,.31,2,1.67,0,.76-.68,1.11-1.43,1.11a2.3,2.3,0,0,1-1.5-.52l.29-.57a2,2,0,0,0,1.25.46c.34,0,.61-.12.61-.4,0-.76-2-.34-2-1.68,0-.76.66-1.08,1.37-1.08a2.35,2.35,0,0,1,1.3.38l-.29.6A2.19,2.19,0,0,0,81.81,11.16Z"/><path class="cls-1" d="M87.11,10.25v.44h1v.6h-1v3h-.8v-3h-.49v-.6h.49v-.36A1.22,1.22,0,0,1,87.59,9a1.42,1.42,0,0,1,.84.26l-.31.62a.9.9,0,0,0-.51-.17A.47.47,0,0,0,87.11,10.25Z"/><path class="cls-1" d="M92,12.4a1.94,1.94,0,0,1-3.89,0,1.94,1.94,0,0,1,3.89,0Zm-3.08,0a1.14,1.14,0,1,0,2.28,0,1.14,1.14,0,1,0-2.28,0Z"/><path class="cls-1" d="M95,10.52v.77a1.13,1.13,0,0,0-1.29,1v1.95h-.8V10.55h.8v.74A1.36,1.36,0,0,1,95,10.52Z"/><path class="cls-1" d="M44.24,17.8v5.93h3V24.8H43.06v-7Z"/><path class="cls-1" d="M49.57,18a.67.67,0,1,1-.67-.69A.66.66,0,0,1,49.57,18Zm-.1,1.52V24.8H48.33V19.48Z"/><path class="cls-1" d="M56.26,21.49V24.8H55.11v-3a1.18,1.18,0,0,0-1.28-1.29A1.49,1.49,0,0,0,52.32,22V24.8H51.17V19.48h1.15v1a2,2,0,0,1,2-1.06A1.86,1.86,0,0,1,56.26,21.49Z"/><path class="cls-1" d="M62.63,19.48V24.8H61.48v-1a2,2,0,0,1-1.9,1.08,1.85,1.85,0,0,1-1.95-2V19.48h1.15v3A1.17,1.17,0,0,0,60,23.76a1.5,1.5,0,0,0,1.46-1.66V19.48Z"/><path class="cls-1" d="M65.07,19.48l1.19,1.82,1.21-1.82h1.26L67,22.07l1.83,2.73H67.53l-1.27-1.95L64.9,24.8H63.62l1.88-2.73-1.75-2.59Z"/><path class="cls-2" d="M22.27,10.18s0,.07.06.06.07,0,.1-.12a.22.22,0,0,1,.19-.13H22.5c-.16,0-.23.09-.23.18Zm0,.32"/><path class="cls-2" d="M23.34,10.36a.2.2,0,0,1,.21.06c.06.06.11.09.14.08a.07.07,0,0,0,0-.11q-.1-.16-.39,0Zm0,0"/><path class="cls-2" d="M32.7,23.36l-.2-.12-.26-.16a1.83,1.83,0,0,1-.26-.23,1.42,1.42,0,0,1-.25-.35,2.86,2.86,0,0,1-.18-.49,3,3,0,0,1-.1-.69.8.8,0,0,0-.19.58,2,2,0,0,0,.18.89,1,1,0,0,0,.61.59,3,3,0,0,1,.63.29A.7.7,0,0,1,33,24q.07.2-.23.42a3.4,3.4,0,0,1-.94.45,8,8,0,0,0-1.27.52,8.68,8.68,0,0,0-1.1.81,1.77,1.77,0,0,1-1,.44,1,1,0,0,1-.89-.4A1.54,1.54,0,0,1,27.3,25a5.88,5.88,0,0,0,0-2.39,2.44,2.44,0,0,1-.09-1.19c.07-.34.19-.54.34-.6s.32.07.5.37l.11.24a1.72,1.72,0,0,0,.14.25l.17.19a.6.6,0,0,0,.28.16,1.64,1.64,0,0,0,.39.06,1.43,1.43,0,0,0,.75-.17,1.51,1.51,0,0,0,.49-.41l.33-.43a.58.58,0,0,1,.29-.23c.09,0,.17-.11.24-.27a2.13,2.13,0,0,0,.15-.68,4.29,4.29,0,0,0-.06-1,10.61,10.61,0,0,0-.73-2.34,6.93,6.93,0,0,0-1.22-2,6.76,6.76,0,0,1-1.63-2.67,7.87,7.87,0,0,1-.37-2.62A3.83,3.83,0,0,0,27,7.46,3.54,3.54,0,0,0,25.89,6a3.24,3.24,0,0,0-1.09-.51,4.58,4.58,0,0,0-1.3-.16,2.73,2.73,0,0,0-2.57,1.54,4.5,4.5,0,0,0-.29,1.85q0,2.42.2,3.79a9.41,9.41,0,0,1-1.52,2.39,3,3,0,0,0-.48.66,7.16,7.16,0,0,0-.37.75q-.13.33-.36,1l-.32.88a3.19,3.19,0,0,1-.27.51,3.58,3.58,0,0,0-.29.58,1.92,1.92,0,0,0-.12.64,2,2,0,0,0,0,.46c0,.2.09.26.18.18q.55-.42,1.38.49a26.12,26.12,0,0,1,2.07,3c.08.14.16.29.24.45a3.47,3.47,0,0,1,.23.64,2.22,2.22,0,0,1,.09.72.9.9,0,0,1-.28.59,1.32,1.32,0,0,1-.79.34,2,2,0,0,1-.68,0q-.4-.09-1-.28l-.91-.27-1.22-.25c-.53-.1-.87-.18-1-.23s-.43-.18-.45-.32a1.07,1.07,0,0,1,.17-.59,1.61,1.61,0,0,0,.21-.6,1,1,0,0,0,0-.27,1.13,1.13,0,0,0-.05-.21l-.1-.22a1.85,1.85,0,0,1-.1-.22c-.15-.34-.17-.58-.06-.7s.25-.15.53-.12a1.59,1.59,0,0,0,1-.18,1,1,0,0,0,.39-1.3,1.09,1.09,0,0,1-.15.62,1.69,1.69,0,0,1-.51.43,1.72,1.72,0,0,1-.73.15,1.24,1.24,0,0,0-.7.17.44.44,0,0,0-.13.33,1.59,1.59,0,0,0,.05.45c0,.15.08.32.12.52A1.92,1.92,0,0,1,15,24a3.62,3.62,0,0,1-.22.67,1.11,1.11,0,0,0-.09.81.59.59,0,0,0,.21.24,1.35,1.35,0,0,0,.41.18l.48.12.61.11.62.12a12.59,12.59,0,0,1,1.79.53,5.58,5.58,0,0,0,1.36.38,1.36,1.36,0,0,0,.66-.14,2.38,2.38,0,0,0,.53-.35,2.23,2.23,0,0,1,.66-.37,2.8,2.8,0,0,1,1-.18l.71,0,.7,0h1.59a1.4,1.4,0,0,1,.58.12.55.55,0,0,1,.27.24,1.54,1.54,0,0,0,.2.31,1,1,0,0,0,.36.29,2.16,2.16,0,0,0,1.09.18,1.41,1.41,0,0,0,.83-.24,11.81,11.81,0,0,1,.92-.78,6.51,6.51,0,0,1,1-.69l.33-.16.39-.19.39-.2a3.06,3.06,0,0,0,.37-.23L33,24.5a.64.64,0,0,0,.19-.27.71.71,0,0,0,0-.28.53.53,0,0,0-.15-.29,1.62,1.62,0,0,0-.38-.3ZM26.52,11.83l0,0,0,0,.07.08.09.1.12.1a.46.46,0,0,0,.18.07.38.38,0,0,1,.16.06.25.25,0,0,1,.08.14.34.34,0,0,1,0,.24.18.18,0,0,1-.18.1.94.94,0,0,1-.48-.39q-.26-.34-.09-.53ZM25,7.08a.4.4,0,0,0,.07-.13.28.28,0,0,0,0-.15.26.26,0,0,1,0-.16.15.15,0,0,1,.14-.09.5.5,0,0,1,.29.18l.12.07.11.09a.11.11,0,0,1,0,.06.15.15,0,0,1-.11.09l-.18,0h-.11a.63.63,0,0,0-.18.11l-.13.11a.08.08,0,0,1-.1,0s0-.08,0-.1L25,7.08Zm-6.37,9.16.12-.16a.72.72,0,0,0,.07-.16,1,1,0,0,1,.06-.15.06.06,0,0,1,.07,0l0,0a0,0,0,0,1,0,0v0a.3.3,0,0,1,0,0l0,.06A.34.34,0,0,0,19,16l0,.08a.6.6,0,0,1-.15.22c-.07.06-.12.09-.15.09s0-.07,0-.15Zm8.59,6.65a4.13,4.13,0,0,1,.08.9,8.85,8.85,0,0,1-.16,1.1q-.14.71-.18.94c-.17,0-.27-.07-.29-.19a.84.84,0,0,1,.07-.46A5.1,5.1,0,0,0,27,24.06c0-.38,0-.59-.12-.64s-.23.06-.42.37a2.72,2.72,0,0,1-2.17,1.06,2.22,2.22,0,0,1-2-.44.24.24,0,0,0-.24,0,.34.34,0,0,0-.16.12s0,0,0,.07l.12.15a1.1,1.1,0,0,1,.13.2q.48.83-.09,1.13a3.31,3.31,0,0,0-.09-.86,2.22,2.22,0,0,0-.34-.66,5.61,5.61,0,0,1-.35-.55.77.77,0,0,0,.73-.81.68.68,0,0,0-.22-.47q-.11-.11-1.14-.94a12.76,12.76,0,0,1-1.27-1.11l-.29-.24a1,1,0,0,1-.31-.34,2.22,2.22,0,0,1-.12-2l0-.06s0,.07,0,.22a2.41,2.41,0,0,0,0,.69A1.69,1.69,0,0,0,19.11,20q.26.26.35,0a1.8,1.8,0,0,0,.07-.72c0-.42,0-.7,0-.84a6.31,6.31,0,0,1,.58-1.73q.48-1,.77-1.1a1,1,0,0,1-.14-.77,2.12,2.12,0,0,1,.26-.71q.18-.29.36-.68a1.62,1.62,0,0,0,.18-.69.4.4,0,0,1,0-.12c0-.07.13,0,.31.27a3,3,0,0,0,.77.89.63.63,0,0,0,.6,0,5.07,5.07,0,0,0,.81-.53,5.52,5.52,0,0,1,.83-.54l.12-.06.12-.06.11-.05.1-.06.07-.06,0-.06a.15.15,0,0,0,0-.05.16.16,0,0,0-.1-.13.33.33,0,0,0-.21,0l-.3.15-.37.21-.41.22a3.66,3.66,0,0,1-.44.17,1.86,1.86,0,0,1-.44.08,1.12,1.12,0,0,1-.82-.27.93.93,0,0,1-.21-.23s0,0,.11,0a3.3,3.3,0,0,0,1,0,3.85,3.85,0,0,0,.86-.28l.56-.24a6.86,6.86,0,0,1,.69-.26.33.33,0,0,0,.2-.12.18.18,0,0,0,0-.15.17.17,0,0,0-.08-.1c-.09,0-.17,0-.24.1a.62.62,0,0,1-.26.21,2.39,2.39,0,0,1-.36.16l-.42.13-.28.09a3.73,3.73,0,0,1-1.25.18,1.3,1.3,0,0,1-.43-.08A.49.49,0,0,1,22,12a1.86,1.86,0,0,0-.2-.23,1.35,1.35,0,0,0-.31-.24.18.18,0,0,1-.09-.22.69.69,0,0,1,.19-.33l.25-.15a1,1,0,0,0,.34-.29,1.37,1.37,0,0,1,.38-.36,1.79,1.79,0,0,0,0-.27,1.05,1.05,0,0,0-.12-.48.37.37,0,0,0-.33-.26.44.44,0,0,0-.42.17.72.72,0,0,0-.11.45.87.87,0,0,0,.12.41c.07.12.13.18.19.18s.12,0,.09.1a.33.33,0,0,1-.2.17c-.06,0-.12,0-.19-.16a1.62,1.62,0,0,1-.16-.46,1.76,1.76,0,0,1,0-.45,1.89,1.89,0,0,1,.2-.73.53.53,0,0,1,.51-.34.65.65,0,0,1,.55.42,2.34,2.34,0,0,1,.2,1.1c0,.06.09.08.19.06a1.9,1.9,0,0,1,.4,0,.56.56,0,0,1,.36.13.53.53,0,0,0,0-.18Q23.65,8.5,25,8.41a1.66,1.66,0,0,1,.33.09,1.13,1.13,0,0,1,.29.18,1,1,0,0,1,.26.37,2.74,2.74,0,0,1,.16.61v.45c0,.26-.05.41-.16.44s-.29.06-.37,0-.06-.17,0-.32a.91.91,0,0,0,0-.71.57.57,0,0,0-.62-.37.48.48,0,0,0-.44.33,1.21,1.21,0,0,0-.1.62c0,.2.07.31.13.32a2.59,2.59,0,0,1,.43.2,2.43,2.43,0,0,0,.55.22q.48.1.54.31a1.08,1.08,0,0,1-.06.61,1.41,1.41,0,0,0-.07.66,1.43,1.43,0,0,0,.18.49,3.18,3.18,0,0,0,.29.4,2.94,2.94,0,0,1,.36.69A7.8,7.8,0,0,1,27,15.25l.09.09a1.12,1.12,0,0,1,.16.18,3.52,3.52,0,0,1,.19.3,3.45,3.45,0,0,1,.24.56,8,8,0,0,1,.24.84,6,6,0,0,1,.14,1.31,3.88,3.88,0,0,0,.1,1q.09.27.47.23a.63.63,0,0,0,.61-.51,4.61,4.61,0,0,0-.66-3.4,3.56,3.56,0,0,0-.7-1,2.9,2.9,0,0,1,.88.92A3.62,3.62,0,0,1,29.36,17l.07.32.06.31s0,.11,0,.25a1.85,1.85,0,0,1,0,.27s0,.12,0,.24a1.14,1.14,0,0,1,0,.28c0,.07,0,.15,0,.26a2.2,2.2,0,0,1-.06.32l-.09.34q.67.29.67.51a1.48,1.48,0,0,0-.73-.28,1.52,1.52,0,0,0-.89.13.69.69,0,0,0-.42.65.77.77,0,0,0-.62.22,1.34,1.34,0,0,0-.28.86,6.61,6.61,0,0,0,.09,1.19ZM22,9.6a.11.11,0,0,1-.06-.07q0-.11.11-.09s.1.08.14.18a.65.65,0,0,1,0,.37,0,0,0,0,1,0,0C22,10,22,10,22,9.79S22,9.6,22,9.6Zm3.17.2,0,0c-.06,0-.1,0-.1,0,0-.22-.11-.35-.22-.38l0,0q-.09-.07.09-.09s.06,0,.11,0a.48.48,0,0,1,.2.39Zm0,0"/></g></svg>