<svg xmlns="http://www.w3.org/2000/svg" viewBox="0 0 116 33"><defs><style>.cls-1{fill:#fff;}.cls-2{fill:#e0e0e0;fill-rule:evenodd;}</style></defs><title>Champion FX MT5</title><g id="Layer_8" data-name="Layer 8"><path d="M116,29.69A3.32,3.32,0,0,1,112.66,33H3.34A3.35,3.35,0,0,1,0,29.66V3.33A3.33,3.33,0,0,1,3.33,0H112.67A3.33,3.33,0,0,1,116,3.33V29.69Z"/><path class="cls-1" d="M46.81,11a2.42,2.42,0,0,1-2.56,2.45h-2V8.58h2A2.41,2.41,0,0,1,46.81,11ZM46,11a1.67,1.67,0,0,0-1.72-1.72H43.1v3.42H44.3A1.64,1.64,0,0,0,46,11Z"/><path class="cls-1" d="M51.18,11.62a1.94,1.94,0,0,1-3.89,0,1.94,1.94,0,0,1,3.89,0Zm-3.08,0a1.14,1.14,0,1,0,2.28,0,1.14,1.14,0,1,0-2.28,0Z"/><path class="cls-1" d="M52.12,9.76l1,2.93L54,9.76h.83l.95,2.93,1-2.93h.82l-1.36,3.73h-.83l-.95-2.76-.95,2.76h-.83L51.29,9.76Z"/><path class="cls-1" d="M61.74,11.17v2.32h-.81V11.39a.83.83,0,0,0-.9-.9,1,1,0,0,0-1.06,1v2h-.8V9.76H59v.71a1.41,1.41,0,0,1,1.37-.74A1.3,1.3,0,0,1,61.74,11.17Z"/><path class="cls-1" d="M63.65,8.29v5.2h-.81V8.29Z"/><path class="cls-1" d="M68.42,11.62a1.94,1.94,0,0,1-3.89,0,1.94,1.94,0,0,1,3.89,0Zm-3.08,0a1.14,1.14,0,1,0,2.28,0,1.14,1.14,0,1,0-2.28,0Z"/><path class="cls-1" d="M71.49,13.49V13a1.51,1.51,0,0,1-1.23.49,1.18,1.18,0,0,1-1.31-1.16c0-.68.51-1.11,1.41-1.12h1.13v-.11c0-.47-.3-.75-.89-.75a2,2,0,0,0-1.1.38l-.33-.56a2.73,2.73,0,0,1,1.6-.47c1,0,1.5.49,1.51,1.31v2.44Zm0-1.31v-.34h-1c-.53,0-.77.14-.77.5s.27.55.72.55S71.44,12.58,71.48,12.18Z"/><path class="cls-1" d="M76.91,8.29v5.2H76.1v-.64a1.44,1.44,0,0,1-1.31.67A1.76,1.76,0,0,1,73,11.61a1.74,1.74,0,0,1,1.77-1.88,1.47,1.47,0,0,1,1.32.68V8.29Zm-.81,3.35A1.13,1.13,0,0,0,75,10.41a1.15,1.15,0,0,0-1.15,1.23,1.15,1.15,0,1,0,2.29,0Z"/><path class="cls-1" d="M81.18,9.46V9.9h1v.6h-1v3h-.8v-3h-.49V9.9h.49V9.54a1.22,1.22,0,0,1,1.28-1.28,1.42,1.42,0,0,1,.84.26l-.31.62A.9.9,0,0,0,81.69,9,.47.47,0,0,0,81.18,9.46Z"/><path class="cls-1" d="M86.1,11.62a1.94,1.94,0,0,1-3.89,0,1.94,1.94,0,0,1,3.89,0Zm-3.08,0a1.14,1.14,0,1,0,2.28,0,1.14,1.14,0,1,0-2.28,0Z"/><path class="cls-1" d="M89,9.73v.77a1.13,1.13,0,0,0-1.29,1v1.95h-.8V9.76h.8v.74A1.36,1.36,0,0,1,89,9.73Z"/><path class="cls-1" d="M43.94,17l2.31,4.65L48.55,17h1.39v7H48.85V18.78l-2.21,4.5h-.77l-2.21-4.5V24H42.54V17Z"/><path class="cls-1" d="M54.91,24v-.65a2.16,2.16,0,0,1-1.76.7,1.68,1.68,0,0,1-1.87-1.65c0-1,.73-1.59,2-1.6H54.9v-.16c0-.67-.43-1.07-1.27-1.07a2.8,2.8,0,0,0-1.57.54l-.47-.8a3.9,3.9,0,0,1,2.29-.67c1.37,0,2.14.7,2.15,1.87V24Zm0-1.87v-.49H53.46c-.75,0-1.1.2-1.1.71s.39.79,1,.79C54.21,23.15,54.84,22.72,54.9,22.14Z"/><path class="cls-1" d="M59.81,19.66a1.57,1.57,0,0,0-1.58,1.7,1.57,1.57,0,0,0,1.58,1.7,2,2,0,0,0,1.57-.64l.64.64a2.71,2.71,0,0,1-2.26,1,2.56,2.56,0,0,1-2.68-2.69,2.57,2.57,0,0,1,2.68-2.71,2.81,2.81,0,0,1,2.2.87l-.63.74A2,2,0,0,0,59.81,19.66Z"/><path class="cls-2" d="M28,5h.15A4.7,4.7,0,0,1,27,8.54a3.67,3.67,0,0,1-3.23,1.51,4.58,4.58,0,0,1,1.2-3.43A5.21,5.21,0,0,1,28,5Zm0,.29"/><path class="cls-2" d="M33,21.17v0a12.73,12.73,0,0,1-1.84,3.52c-.7,1-1.56,2.25-3.1,2.25-1.32,0-2.2-.85-3.56-.87s-2.23.71-3.54.89h-.45a4,4,0,0,1-2.31-1.58,13.83,13.83,0,0,1-3.21-8v-1a6.41,6.41,0,0,1,2.83-5.27,4.81,4.81,0,0,1,3.2-.74,8.55,8.55,0,0,1,1.57.45,4.28,4.28,0,0,0,1.57.47,3.83,3.83,0,0,0,1.1-.33,6.79,6.79,0,0,1,3.54-.63,4.9,4.9,0,0,1,3.61,2.14,4.6,4.6,0,0,0-2.35,4.56A4.71,4.71,0,0,0,33,21.17Zm-.29.22"/></g></svg>