<?xml version="1.0" encoding="UTF-8"?>
<svg width="62px" height="48px" viewBox="0 0 62 48" version="1.1" xmlns="http://www.w3.org/2000/svg" xmlns:xlink="http://www.w3.org/1999/xlink">
    <!-- Generator: Sketch 45.1 (43504) - http://www.bohemiancoding.com/sketch -->
    <title>Back-office support</title>
    <desc>Created with Sketch.</desc>
    <defs></defs>
    <g id="Liquidity-Solution" stroke="none" stroke-width="1" fill="none" fill-rule="evenodd">
        <g transform="translate(-1101.000000, -539.000000)" id="Key-Features" fill-rule="nonzero" fill="#004385">
            <g transform="translate(185.000000, 452.000000)">
                <g id="Back-office-support" transform="translate(916.000000, 87.000000)">
                    <path d="M3.99999791,0 C1.80709233,0 0,1.807039 0,3.99999778 L0,46.6666674 C7.36238329e-05,47.4030162 0.596983833,47.9999264 1.33333259,48 L59.9999668,48 C60.7363156,47.9999264 61.3332258,47.4030162 61.3332994,46.6666674 L61.3332994,3.99999778 C61.3332994,1.807039 59.5262071,0 57.3333016,0 L3.99999791,0 Z M3.99999791,2.66666519 L57.3333016,2.66666519 C58.0951012,2.66666519 58.6666342,3.2381582 58.6666342,3.99999778 L58.6666342,11.9999933 L2.66666519,11.9999933 L2.66666519,3.99999778 C2.66666519,3.2381582 3.2381982,2.66666519 3.99999791,2.66666519 Z M7.33332939,5.33333037 C6.22875667,5.33333037 5.3333305,6.22872987 5.3333305,7.33332926 C5.3333305,8.43785531 6.22875667,9.33332815 7.33332939,9.33332815 C8.43789545,9.33332815 9.33332828,8.43785531 9.33332828,7.33332926 C9.33332828,6.22872987 8.43789545,5.33333037 7.33332939,5.33333037 Z M13.9999924,5.33333037 C12.8954196,5.33333037 11.9999935,6.22872987 11.9999935,7.33332926 C11.9999935,8.43785531 12.8954196,9.33332815 13.9999924,9.33332815 C15.1045584,9.33332815 15.9999912,8.43785531 15.9999912,7.33332926 C15.9999912,6.22872987 15.1045584,5.33333037 13.9999924,5.33333037 Z M20.6666553,5.33333037 C19.5620826,5.33333037 18.6666564,6.22872987 18.6666564,7.33332926 C18.6666564,8.43785531 19.5620826,9.33332815 20.6666553,9.33332815 C21.7712214,9.33332815 22.6666542,8.43785531 22.6666542,7.33332926 C22.6666542,6.22872987 21.7712214,5.33333037 20.6666553,5.33333037 Z M2.66666519,14.6666585 L58.6666342,14.6666585 L58.6666342,45.3333348 L2.66666519,45.3333348 L2.66666519,14.6666585 Z" id="Shape"></path>
                    <path d="M15.9090909,28.5454545 L14.2727273,30.5454545 L10.0909091,30.5454545 L10.5454545,31.5454545 C11.6363636,34.0909091 14.1818182,35.7272727 17,35.7272727 C19.4545455,35.7272727 21.7272727,34.4545455 23,32.3636364 L27.5454545,32.3636364 L27.5454545,33.8181818 C27.5454545,34.4545455 27.9090909,35.0909091 28.4545455,35.4545455 L30.6363636,37 L30.6363636,40.1818182 L32,40.1818182 L32,36.2727273 L29.0909091,34.3636364 C28.9090909,34.2727273 28.8181818,34 28.8181818,33.8181818 L28.8181818,24.8181818 C29.8181818,25.0909091 30.5454545,26 30.5454545,27.1818182 L30.5454545,27.4545455 L30.5454545,32.2727273 L31.9090909,32.2727273 L31.9090909,29.4545455 C32.1818182,29.5454545 32.4545455,29.6363636 32.7272727,29.6363636 C33.3636364,29.6363636 33.9090909,29.3636364 34.2727273,29 C34.6363636,29.3636364 35.1818182,29.6363636 35.8181818,29.6363636 C36.4545455,29.6363636 37,29.3636364 37.3636364,29 C37.7272727,29.3636364 38.2727273,29.6363636 38.9090909,29.6363636 C39.5454545,29.6363636 40.0909091,29.3636364 40.4545455,29 C40.8181818,29.3636364 41.3636364,29.6363636 42,29.6363636 C42.2727273,29.6363636 42.6363636,29.5454545 42.9090909,29.4545455 L42.9090909,32.3636364 L42.9090909,34.0909091 C42.9090909,34.3636364 42.8181818,34.5454545 42.7272727,34.7272727 L42.1818182,35.8181818 C42,36.2727273 41.8181818,36.8181818 41.8181818,37.3636364 L41.8181818,41 L43.1818182,41 L43.1818182,37.3636364 C43.1818182,37.0909091 43.2727273,36.7272727 43.3636364,36.4545455 L43.9090909,35.3636364 C44.0909091,35 44.1818182,34.5454545 44.1818182,34.0909091 L44.1818182,32.3636364 L47.9090909,32.3636364 C49.9090909,32.3636364 51.6363636,30.7272727 51.6363636,28.6363636 C51.6363636,26.5454545 50,24.9090909 47.9090909,24.9090909 L44.2727273,24.9090909 C44.2727273,23.7272727 43.2727273,22.7272727 42,22.7272727 C41.6363636,22.7272727 41.3636364,22.8181818 41.0909091,22.9090909 C40.9090909,21.8181818 40,21 38.9090909,21 C38.2727273,21 37.7272727,21.2727273 37.3636364,21.6363636 C37,21.2727273 36.4545455,21 35.8181818,21 C35.1818182,21 34.6363636,21.2727273 34.2727273,21.6363636 C33.9090909,21.2727273 33.2727273,21 32.7272727,21 C31.5454545,21 30.5454545,22 30.5454545,23.1818182 L30.5454545,24.2727273 C29.9090909,23.7272727 29.0909091,23.3636364 28.0909091,23.3636364 L27.3636364,23.3636364 L27.3636364,25 L22.8181818,25 C21.5454545,22.9090909 19.2727273,21.6363636 16.8181818,21.6363636 C14.0909091,21.6363636 11.6363636,23.1818182 10.4545455,25.6363636 L10,26.6363636 L14.2727273,26.6363636 L15.9090909,28.5454545 Z M50.3636364,28.6363636 C50.3636364,29.9090909 49.3636364,31 48,31 L44.2727273,31 L44.2727273,27.3636364 L44.2727273,27.2727273 L44.2727273,26.3636364 L48,26.3636364 C49.3636364,26.2727273 50.3636364,27.3636364 50.3636364,28.6363636 Z M42.0909091,24.0909091 C42.5454545,24.0909091 43,24.4545455 43,25 L43,27.2727273 L43,27.3636364 C43,27.8181818 42.6363636,28.2727273 42.0909091,28.2727273 C41.6363636,28.2727273 41.1818182,27.9090909 41.1818182,27.3636364 L41.1818182,25 C41.1818182,24.4545455 41.6363636,24.0909091 42.0909091,24.0909091 Z M39,22.3636364 C39.4545455,22.3636364 39.9090909,22.7272727 39.9090909,23.2727273 L39.9090909,25 L39.9090909,27.3636364 C39.9090909,27.8181818 39.5454545,28.2727273 39,28.2727273 C38.5454545,28.2727273 38.0909091,27.9090909 38.0909091,27.3636364 L38.0909091,23.2727273 C38.0909091,22.7272727 38.4545455,22.3636364 39,22.3636364 Z M35,23.1818182 C35,22.7272727 35.3636364,22.2727273 35.9090909,22.2727273 C36.3636364,22.2727273 36.8181818,22.6363636 36.8181818,23.1818182 L36.8181818,27.2727273 C36.8181818,27.7272727 36.4545455,28.1818182 35.9090909,28.1818182 C35.4545455,28.1818182 35,27.8181818 35,27.2727273 L35,27.2727273 L35,23.1818182 L35,23.1818182 Z M31.9090909,23.1818182 C31.9090909,22.7272727 32.2727273,22.3636364 32.7272727,22.3636364 C33.1818182,22.3636364 33.6363636,22.7272727 33.6363636,23.2727273 L33.6363636,27.3636364 C33.6363636,27.8181818 33.2727273,28.2727273 32.7272727,28.2727273 C32.2727273,28.2727273 31.9090909,27.9090909 31.9090909,27.4545455 L31.9090909,27.0909091 L31.9090909,23.1818182 Z M16.9090909,22.9090909 C19,22.9090909 20.9090909,24.0909091 21.9090909,25.9090909 L22.0909091,26.2727273 L27.3636364,26.2727273 L27.3636364,30.9090909 L22.0909091,30.9090909 L21.9090909,31.2727273 C20.9090909,33.0909091 19,34.2727273 16.9090909,34.2727273 C15,34.2727273 13.2727273,33.3636364 12.2727273,31.8181818 L14.9090909,31.8181818 L17.7272727,28.5454545 L14.9090909,25.2727273 L12.4545455,25.2727273 C13.4545455,23.8181818 15.1818182,22.9090909 16.9090909,22.9090909 Z" id="Shape"></path>
                </g>
            </g>
        </g>
    </g>
</svg>