<?xml version="1.0" encoding="UTF-8"?>
<svg width="277px" height="59px" viewBox="0 0 277 59" version="1.1" xmlns="http://www.w3.org/2000/svg" xmlns:xlink="http://www.w3.org/1999/xlink">
    <!-- Generator: Sketch 45.1 (43504) - http://www.bohemiancoding.com/sketch -->
    <title>IMAGE</title>
    <desc>Created with Sketch.</desc>
    <defs></defs>
    <g id="Liquidity-Solution" stroke="none" stroke-width="1" fill="none" fill-rule="evenodd">
        <g transform="translate(-948.000000, -1024.000000)" id="How-it-works">
            <g transform="translate(185.000000, 903.000000)">
                <g id="v2" transform="translate(0.000000, 67.000000)">
                    <g id="Fix-API" transform="translate(733.000000, 0.000000)">
                        <g id="IMAGE" transform="translate(31.000000, 54.000000)">
                            <path d="M227.806452,26.483948 L230.129032,26.483948 L230.129032,27.645264 L227.806452,27.645264 L227.806452,26.483948 Z M231.290323,27.645264 L233.612903,27.645264 L233.612903,26.483948 L231.290323,26.483948 L231.290323,27.645264 Z M235.935484,27.645264 L240.580645,27.645264 L240.580645,26.483948 L235.935484,26.483948 L235.935484,27.645264 Z M227.806452,36.9357921 L230.129032,36.9357921 L230.129032,35.7744761 L227.806452,35.7744761 L227.806452,36.9357921 Z M231.290323,36.9357921 L233.612903,36.9357921 L233.612903,35.7744761 L231.290323,35.7744761 L231.290323,36.9357921 Z M235.935484,36.9357921 L240.580645,36.9357921 L240.580645,35.7744761 L235.935484,35.7744761 L235.935484,36.9357921 Z M227.806452,46.2263202 L230.129032,46.2263202 L230.129032,45.0650042 L227.806452,45.0650042 L227.806452,46.2263202 Z M231.290323,46.2263202 L233.612903,46.2263202 L233.612903,45.0650042 L231.290323,45.0650042 L231.290323,46.2263202 Z M235.935484,46.2263202 L240.580645,46.2263202 L240.580645,45.0650042 L235.935484,45.0650042 L235.935484,46.2263202 Z M240,54.3555322 C239.36129,54.3555322 238.83871,54.8781244 238.83871,55.5168482 C238.83871,56.155572 239.36129,56.6781642 240,56.6781642 C240.63871,56.6781642 241.16129,56.155572 241.16129,55.5168482 C241.16129,54.8781244 240.63871,54.3555322 240,54.3555322 Z M258,55.5168482 C258,55.8071772 257.767742,56.0975062 257.477419,56.0975062 C257.477419,56.0975062 257.419355,56.0975062 257.419355,56.0975062 L243.425806,56.0975062 C243.135484,58.0136777 241.335484,59.2911253 239.419355,58.9427305 C237.967742,58.7104673 236.806452,57.5491512 236.574194,56.0975062 L222.580645,56.0975062 C222.232258,56.0975062 222,55.865243 222,55.5168482 C222,55.1684534 222.232258,54.9361902 222.580645,54.9361902 L236.574194,54.9361902 C236.806452,53.4845452 237.967742,52.3232292 239.419355,52.090966 L239.419355,49.7102682 L224.903226,49.7102682 C224.612903,49.7102682 224.322581,49.478005 224.322581,49.187676 C224.322581,49.187676 224.322581,49.1296102 224.322581,49.1296102 L224.322581,42.1617141 C224.322581,41.8713851 224.554839,41.5810561 224.845161,41.5810561 C224.845161,41.5810561 224.903226,41.5810561 224.903226,41.5810561 L239.419355,41.5810561 L239.419355,40.4197401 L224.903226,40.4197401 C224.612903,40.4197401 224.322581,40.1874769 224.322581,39.8971479 C224.322581,39.8971479 224.322581,39.8390821 224.322581,39.8390821 L224.322581,32.8711861 C224.322581,32.5808571 224.554839,32.2905281 224.845161,32.2905281 C224.845161,32.2905281 224.903226,32.2905281 224.903226,32.2905281 L239.419355,32.2905281 L239.419355,31.1292121 L224.903226,31.1292121 C224.612903,31.1292121 224.322581,30.8969489 224.322581,30.6066199 C224.322581,30.6066199 224.322581,30.5485541 224.322581,30.5485541 L224.322581,23.580658 C224.322581,23.290329 224.554839,23 224.845161,23 C224.845161,23 224.903226,23 224.903226,23 L255.096774,23 C255.387097,23 255.677419,23.2322632 255.677419,23.5225922 C255.677419,23.5225922 255.677419,23.580658 255.677419,23.580658 L255.677419,30.5485541 C255.677419,30.8388831 255.445161,31.1292121 255.154839,31.1292121 C255.154839,31.1292121 255.096774,31.1292121 255.096774,31.1292121 L240.580645,31.1292121 L240.580645,32.2905281 L255.096774,32.2905281 C255.387097,32.2905281 255.677419,32.5227913 255.677419,32.8131203 C255.677419,32.8131203 255.677419,32.8711861 255.677419,32.8711861 L255.677419,39.8390821 C255.677419,40.1294111 255.445161,40.4197401 255.154839,40.4197401 C255.154839,40.4197401 255.096774,40.4197401 255.096774,40.4197401 L240.580645,40.4197401 L240.580645,41.5810561 L255.096774,41.5810561 C255.387097,41.5810561 255.677419,41.8133193 255.677419,42.1036483 C255.677419,42.1036483 255.677419,42.1617141 255.677419,42.1617141 L255.677419,49.1296102 C255.677419,49.4199392 255.445161,49.7102682 255.154839,49.7102682 C255.154839,49.7102682 255.096774,49.7102682 255.096774,49.7102682 L240.580645,49.7102682 L240.580645,52.090966 C242.032258,52.3232292 243.193548,53.4845452 243.425806,54.9361902 L257.419355,54.9361902 C257.767742,54.9361902 258,55.1684534 258,55.5168482 Z M225.483871,29.9678961 L254.516129,29.9678961 L254.516129,24.161316 L225.483871,24.161316 L225.483871,29.9678961 Z M225.483871,39.2584241 L254.516129,39.2584241 L254.516129,33.4518441 L225.483871,33.4518441 L225.483871,39.2584241 Z M225.483871,48.5489522 L254.516129,48.5489522 L254.516129,42.7423721 L225.483871,42.7423721 L225.483871,48.5489522 Z M242.322581,55.5168482 C242.322581,54.2394006 241.277419,53.1942162 240,53.1942162 C238.722581,53.1942162 237.677419,54.2394006 237.677419,55.5168482 C237.677419,56.7942958 238.722581,57.8394803 240,57.8394803 C241.277419,57.8394803 242.322581,56.7942958 242.322581,55.5168482 Z" id="One-Zero" fill="#004385" fill-rule="nonzero"></path>
                            <rect id="BG---OZB" fill="#F2F2F2" fill-rule="nonzero" x="204" y="0" width="71.6054795" height="18"></rect>
                            <path d="M214.814905,9.07621325 C214.814905,9.81734293 214.571112,10.434951 214.144475,10.9290375 C213.65689,11.4231239 213.108356,11.6701671 212.376978,11.6701671 C211.6456,11.6701671 211.097067,11.4231239 210.67043,10.9290375 C210.243793,10.434951 210,9.81734293 210,9.07621325 L210,7.96451873 C210,7.22338905 210.243793,6.60578098 210.67043,6.11169452 C211.097067,5.61760807 211.706549,5.37056484 212.376978,5.37056484 C213.108356,5.37056484 213.717838,5.61760807 214.144475,6.11169452 C214.632061,6.60578098 214.814905,7.22338905 214.814905,7.96451873 L214.814905,9.07621325 Z M213.961631,8.02627954 C213.961631,7.47043227 213.839734,6.97634582 213.534994,6.66754178 C213.230253,6.29697694 212.803616,6.11169452 212.31603,6.11169452 C211.828445,6.11169452 211.462756,6.29697694 211.158015,6.66754178 C210.853274,7.03810663 210.731378,7.47043227 210.731378,8.02627954 L210.731378,9.13797406 C210.731378,9.69382132 210.853274,10.1879078 211.158015,10.5584726 C211.462756,10.9290375 211.828445,11.1143199 212.31603,11.1143199 C212.803616,11.1143199 213.230253,10.9290375 213.534994,10.5584726 C213.839734,10.1879078 213.961631,9.75558213 213.961631,9.13797406 L213.961631,8.02627954 Z M216.582402,7.03810663 L216.64335,7.7174755 C216.765246,7.47043227 217.009039,7.28514985 217.191883,7.16162824 C217.435676,7.03810663 217.679469,6.97634582 217.98421,6.97634582 C218.471795,6.97634582 218.837484,7.09986743 219.142225,7.40867147 C219.386017,7.7174755 219.568862,8.14980115 219.568862,8.76740922 L219.568862,11.6701671 L218.776536,11.6701671 L218.776536,8.82917002 C218.776536,8.39684438 218.715588,8.14980115 218.532743,7.96451873 C218.349899,7.77923631 218.106106,7.7174755 217.801365,7.7174755 C217.557572,7.7174755 217.374728,7.77923631 217.191883,7.90275792 C217.009039,8.02627954 216.887143,8.14980115 216.765246,8.39684438 L216.765246,11.7319279 L215.97292,11.7319279 L215.97292,7.16162824 L216.582402,7.16162824 L216.582402,7.03810663 Z M222.555322,11.7319279 C221.94584,11.7319279 221.458255,11.5466455 221.031618,11.1143199 C220.665929,10.6819942 220.483084,10.126147 220.483084,9.44677809 L220.483084,9.26149567 C220.483084,8.5821268 220.665929,8.08804034 221.031618,7.65571469 C221.397307,7.22338905 221.884892,7.03810663 222.372477,7.03810663 C222.981959,7.03810663 223.469544,7.22338905 223.774285,7.59395389 C224.079026,7.96451873 224.261871,8.45860518 224.261871,9.07621325 L224.261871,9.57029971 L221.336359,9.57029971 C221.336359,10.0026254 221.458255,10.3731902 221.641099,10.6202334 C221.823944,10.8672766 222.128685,11.0525591 222.555322,11.0525591 C222.860063,11.0525591 223.103855,10.9907983 223.2867,10.9290375 C223.469544,10.8672766 223.652389,10.743755 223.835233,10.6202334 L224.139974,11.1760807 C223.95713,11.3613631 223.774285,11.4848847 223.530493,11.6084063 C223.2867,11.6701671 222.981959,11.7319279 222.555322,11.7319279 Z M222.433426,7.65571469 C222.128685,7.65571469 221.94584,7.77923631 221.702048,8.02627954 C221.519203,8.27332276 221.397307,8.5821268 221.336359,8.89093083 L223.408596,8.89093083 L223.408596,8.76740922 C223.408596,8.45860518 223.347648,8.14980115 223.164804,7.96451873 C223.042907,7.7174755 222.799115,7.65571469 222.433426,7.65571469 Z M228.101605,10.9907983 L231.514702,10.9907983 L231.514702,11.6701671 L227.187382,11.6701671 L227.187382,11.0525591 L230.417635,6.17345533 L227.248331,6.17345533 L227.248331,5.49408645 L231.392806,5.49408645 L231.392806,6.11169452 L228.101605,10.9907983 Z M234.25737,11.7319279 C233.647888,11.7319279 233.160303,11.5466455 232.733665,11.1143199 C232.367976,10.6819942 232.185132,10.126147 232.185132,9.44677809 L232.185132,9.26149567 C232.185132,8.5821268 232.367976,8.08804034 232.733665,7.65571469 C233.099354,7.22338905 233.58694,7.03810663 234.074525,7.03810663 C234.684007,7.03810663 235.171592,7.22338905 235.476333,7.59395389 C235.781074,7.96451873 235.963918,8.45860518 235.963918,9.07621325 L235.963918,9.57029971 L233.038406,9.57029971 C233.038406,10.0026254 233.160303,10.3731902 233.343147,10.6202334 C233.525992,10.8672766 233.830732,11.0525591 234.25737,11.0525591 C234.56211,11.0525591 234.805903,10.9907983 234.988748,10.9290375 C235.171592,10.8672766 235.354436,10.743755 235.537281,10.6202334 L235.842022,11.1760807 C235.659177,11.3613631 235.476333,11.4848847 235.23254,11.6084063 C234.927799,11.6701671 234.623059,11.7319279 234.25737,11.7319279 Z M234.135473,7.65571469 C233.830732,7.65571469 233.647888,7.77923631 233.404095,8.02627954 C233.221251,8.27332276 233.099354,8.5821268 233.038406,8.89093083 L235.110644,8.89093083 L235.110644,8.76740922 C235.110644,8.45860518 235.049696,8.14980115 234.866851,7.96451873 C234.684007,7.7174755 234.440214,7.65571469 234.135473,7.65571469 Z M239.011326,7.77923631 L238.584689,7.77923631 C238.340897,7.77923631 238.158052,7.84099711 238.036156,7.96451873 C237.914259,8.08804034 237.792363,8.21156196 237.670467,8.39684438 L237.670467,11.6701671 L236.878141,11.6701671 L236.878141,7.09986743 L237.609519,7.09986743 L237.670467,7.77923631 C237.792363,7.53219308 237.975208,7.34691066 238.158052,7.22338905 C238.340897,7.09986743 238.584689,7.03810663 238.828482,7.03810663 C238.88943,7.03810663 238.950378,7.03810663 239.011326,7.03810663 C239.072275,7.03810663 239.133223,7.03810663 239.133223,7.09986743 L239.011326,7.77923631 Z M239.498912,9.32325648 C239.498912,8.6438876 239.681756,8.08804034 240.047445,7.65571469 C240.413134,7.22338905 240.900719,6.97634582 241.510201,6.97634582 C242.119683,6.97634582 242.607268,7.22338905 242.972957,7.65571469 C243.338646,8.08804034 243.521491,8.6438876 243.521491,9.32325648 L243.521491,9.44677809 C243.521491,10.126147 243.338646,10.6819942 242.972957,11.1143199 C242.607268,11.5466455 242.119683,11.7936888 241.510201,11.7936888 C240.900719,11.7936888 240.413134,11.5466455 240.047445,11.1143199 C239.681756,10.6819942 239.498912,10.126147 239.498912,9.44677809 L239.498912,9.32325648 Z M240.352186,9.38501729 C240.352186,9.87910374 240.474082,10.2496686 240.656927,10.5584726 C240.839771,10.8672766 241.144512,11.0525591 241.571149,11.0525591 C241.936838,11.0525591 242.241579,10.8672766 242.485372,10.5584726 C242.729164,10.2496686 242.790113,9.81734293 242.790113,9.38501729 L242.790113,9.32325648 C242.790113,8.82917002 242.668216,8.45860518 242.485372,8.14980115 C242.302527,7.84099711 241.997786,7.65571469 241.571149,7.65571469 C241.20546,7.65571469 240.900719,7.84099711 240.656927,8.14980115 C240.474082,8.45860518 240.352186,8.89093083 240.352186,9.32325648 L240.352186,9.38501729 Z M246.812691,11.6084063 L246.812691,5.43232565 L248.763033,5.43232565 C249.372514,5.43232565 249.921048,5.55584726 250.225789,5.8646513 C250.591478,6.11169452 250.774322,6.54402017 250.774322,7.09986743 C250.774322,7.34691066 250.713374,7.59395389 250.530529,7.84099711 C250.347685,8.02627954 250.103892,8.21156196 249.8601,8.33508357 C250.225789,8.39684438 250.530529,8.5821268 250.713374,8.89093083 C250.896218,9.19973487 251.018115,9.5085389 251.018115,9.87910374 C251.018115,10.434951 250.83527,10.8672766 250.469581,11.1760807 C250.103892,11.4848847 249.616307,11.6084063 249.006825,11.6084063 L246.812691,11.6084063 Z M247.665966,8.08804034 L249.006825,8.08804034 C249.311566,8.08804034 249.555359,8.02627954 249.738203,7.84099711 C249.921048,7.65571469 250.042944,7.40867147 250.042944,7.09986743 C250.042944,6.7910634 249.921048,6.54402017 249.738203,6.35873775 C249.555359,6.17345533 249.250618,6.11169452 248.823981,6.11169452 L247.665966,6.11169452 L247.665966,8.08804034 L247.665966,8.08804034 Z M247.665966,8.76740922 L247.665966,10.9907983 L249.067774,10.9907983 C249.433463,10.9907983 249.738203,10.8672766 249.921048,10.6819942 C250.103892,10.4967118 250.225789,10.2496686 250.225789,9.87910374 C250.225789,9.5085389 250.164841,9.26149567 249.981996,9.01445244 C249.799152,8.82917002 249.555359,8.70564841 249.18967,8.70564841 L247.665966,8.70564841 L247.665966,8.76740922 Z M254.248368,7.77923631 L253.82173,7.77923631 C253.577938,7.77923631 253.395093,7.84099711 253.273197,7.96451873 C253.151301,8.08804034 253.029404,8.21156196 252.907508,8.39684438 L252.907508,11.6701671 L252.115182,11.6701671 L252.115182,7.09986743 L252.84656,7.09986743 L252.907508,7.77923631 C253.029404,7.53219308 253.212249,7.34691066 253.395093,7.22338905 C253.577938,7.09986743 253.82173,7.03810663 254.065523,7.03810663 C254.126471,7.03810663 254.187419,7.03810663 254.248368,7.03810663 C254.309316,7.03810663 254.370264,7.03810663 254.370264,7.09986743 L254.248368,7.77923631 Z M255.954916,5.8646513 L255.16259,5.8646513 L255.16259,5 L255.954916,5 L255.954916,5.8646513 Z M255.954916,11.6084063 L255.16259,11.6084063 L255.16259,7.03810663 L255.954916,7.03810663 L255.954916,11.6084063 Z M257.051983,9.44677809 C257.051983,8.70564841 257.234828,8.14980115 257.539568,7.65571469 C257.844309,7.22338905 258.270946,6.97634582 258.81948,6.97634582 C259.063273,6.97634582 259.307065,7.03810663 259.550858,7.09986743 C259.733702,7.22338905 259.916547,7.34691066 260.099391,7.53219308 L260.099391,5 L260.891717,5 L260.891717,11.6084063 L260.221288,11.6084063 L260.099391,11.0525591 C259.977495,11.2378415 259.794651,11.4231239 259.550858,11.5466455 C259.307065,11.6701671 259.063273,11.7319279 258.81948,11.7319279 C258.270946,11.7319279 257.844309,11.5466455 257.539568,11.1143199 C257.234828,10.6819942 257.051983,10.1879078 257.051983,9.5085389 L257.051983,9.44677809 L257.051983,9.44677809 Z M257.844309,9.5085389 C257.844309,9.94086455 257.966206,10.3114294 258.14905,10.6202334 C258.331895,10.8672766 258.636635,11.0525591 259.002324,11.0525591 C259.246117,11.0525591 259.428962,10.9907983 259.611806,10.8672766 C259.794651,10.743755 259.916547,10.6202334 260.038443,10.3731902 L260.038443,8.21156196 C259.916547,8.02627954 259.794651,7.90275792 259.611806,7.77923631 C259.428962,7.65571469 259.246117,7.59395389 259.002324,7.59395389 C258.636635,7.59395389 258.331895,7.77923631 258.14905,8.08804034 C257.966206,8.39684438 257.844309,8.82917002 257.844309,9.38501729 L257.844309,9.5085389 Z M261.866888,9.44677809 C261.866888,8.70564841 262.049733,8.14980115 262.354473,7.65571469 C262.659214,7.22338905 263.085851,6.97634582 263.695333,6.97634582 C264.000074,6.97634582 264.243867,7.03810663 264.426711,7.16162824 C264.609556,7.28514985 264.853348,7.47043227 264.975245,7.65571469 L265.097141,7.03810663 L265.767571,7.03810663 L265.767571,11.6084063 C265.767571,12.1642536 265.584726,12.65834 265.279985,12.9671441 C264.975245,13.2759481 264.487659,13.4612305 263.817229,13.4612305 C263.573437,13.4612305 263.390592,13.4612305 263.085851,13.3994697 C262.842059,13.3377089 262.598266,13.2759481 262.415422,13.1524265 L262.598266,12.5348184 C262.720162,12.5965792 262.903007,12.65834 263.1468,12.7201009 C263.329644,12.7818617 263.573437,12.7818617 263.756281,12.7818617 C264.182918,12.7818617 264.426711,12.7201009 264.609556,12.5348184 C264.7924,12.349536 264.853348,12.040732 264.853348,11.6701671 L264.853348,11.1760807 C264.731452,11.3613631 264.548607,11.4848847 264.304815,11.6084063 C264.12197,11.7319279 263.878178,11.7319279 263.573437,11.7319279 C263.024903,11.7319279 262.598266,11.5466455 262.293525,11.1143199 C261.988784,10.6819942 261.80594,10.1879078 261.80594,9.5085389 L261.80594,9.44677809 L261.866888,9.44677809 Z M262.720162,9.5085389 C262.720162,9.94086455 262.842059,10.3114294 263.024903,10.6202334 C263.207748,10.9290375 263.512489,11.0525591 263.878178,11.0525591 C264.12197,11.0525591 264.304815,10.9907983 264.487659,10.8672766 C264.670504,10.743755 264.7924,10.6202334 264.914296,10.3731902 L264.914296,8.27332276 C264.7924,8.08804034 264.670504,7.90275792 264.487659,7.84099711 C264.304815,7.7174755 264.12197,7.65571469 263.878178,7.65571469 C263.512489,7.65571469 263.207748,7.84099711 263.024903,8.14980115 C262.842059,8.45860518 262.720162,8.89093083 262.720162,9.44677809 L262.720162,9.5085389 Z M268.814979,11.7319279 C268.205497,11.7319279 267.717912,11.5466455 267.291275,11.1143199 C266.925586,10.6819942 266.742741,10.126147 266.742741,9.44677809 L266.742741,9.26149567 C266.742741,8.5821268 266.925586,8.08804034 267.291275,7.65571469 C267.656964,7.22338905 268.144549,7.03810663 268.632134,7.03810663 C269.241616,7.03810663 269.729201,7.22338905 270.033942,7.59395389 C270.338683,7.96451873 270.521527,8.45860518 270.521527,9.07621325 L270.521527,9.57029971 L267.596016,9.57029971 C267.596016,10.0026254 267.717912,10.3731902 267.900756,10.6202334 C268.083601,10.8672766 268.388342,11.0525591 268.814979,11.0525591 C269.11972,11.0525591 269.363512,10.9907983 269.546357,10.9290375 C269.729201,10.8672766 269.912046,10.743755 270.09489,10.6202334 L270.399631,11.1760807 C270.216787,11.3613631 270.033942,11.4848847 269.79015,11.6084063 C269.485409,11.6701671 269.180668,11.7319279 268.814979,11.7319279 Z M268.632134,7.65571469 C268.327394,7.65571469 268.144549,7.77923631 267.900756,8.02627954 C267.717912,8.27332276 267.596016,8.5821268 267.535067,8.89093083 L269.607305,8.89093083 L269.607305,8.76740922 C269.607305,8.45860518 269.546357,8.14980115 269.363512,7.96451873 C269.241616,7.7174755 268.997823,7.65571469 268.632134,7.65571469 Z" id="One-Zero-Bridge" fill="#004385" fill-rule="nonzero"></path>
                            <path d="M177.487233,42.1320662 C177.669816,42.1754461 177.791538,42.2911257 177.791538,42.4284952 L177.791538,44.7854666 L193.31109,44.7854666 C193.770929,44.7854666 194.142857,45.0602055 194.142857,45.4072443 L194.142857,47.7063759 C194.142857,48.0461847 193.770929,48.3281536 193.31109,48.3281536 L177.791538,48.3281536 L177.791538,50.685125 C177.791538,50.8152645 177.669816,50.9309441 177.487233,50.9815539 C177.311057,51.0249339 177.125969,50.9910849 176.973296,50.8875643 L172.361385,47.1930478 C172.139149,47.0680461 172,46.8216747 172,46.5531951 C172,46.2847155 172.139149,46.0383441 172.361385,45.9133424 L176.959771,42.2260559 C177.116046,42.1185768 177.306802,42.0845857 177.487233,42.1320662 Z M201.512767,31.0209551 C201.693198,30.9734746 201.883954,31.0074657 202.040229,31.1149448 L206.638615,34.8022313 C206.860851,34.927233 207,35.1736044 207,35.442084 C207,35.7105635 206.860851,35.956935 206.638615,36.0819367 L202.026704,39.7764532 C201.874031,39.8799738 201.688943,39.9138228 201.512767,39.8704428 C201.330184,39.819833 201.208462,39.7041534 201.208462,39.5740139 L201.208462,37.2170425 L185.68891,37.2170425 C185.229071,37.2170425 184.857143,36.9350735 184.857143,36.5952648 L184.857143,34.2961332 C184.857143,33.9490944 185.229071,33.6743554 185.68891,33.6743554 L201.208462,33.6743554 L201.208462,31.317384 C201.208462,31.1800145 201.330184,31.064335 201.512767,31.0209551 Z" id="2-Sided-Arrow" fill="#000000" fill-rule="nonzero"></path>
                            <path d="M112,32.78 L112,59 L157,59 L157,23 L112,23 L112,32.78 Z M113.95138,25.04 L154.989488,25.04 L154.989488,30.8 L113.95138,30.8 L113.95138,25.04 Z M113.95138,32.78 L154.989488,32.78 L154.989488,57.02 L113.95138,57.02 L113.95138,32.78 Z M116.671485,29.6 C117.585912,29.6 118.327201,28.8478384 118.327201,27.92 C118.327201,26.9921616 117.585912,26.24 116.671485,26.24 C115.757058,26.24 115.015769,26.9921616 115.015769,27.92 C115.015769,28.8478384 115.757058,29.6 116.671485,29.6 Z M121.816032,29.6 C122.730458,29.6 123.471748,28.8478384 123.471748,27.92 C123.471748,26.9921616 122.730458,26.24 121.816032,26.24 C120.901605,26.24 120.160315,26.9921616 120.160315,27.92 C120.160315,28.8478384 120.901605,29.6 121.816032,29.6 Z M126.901445,29.6 C127.815872,29.6 128.557162,28.8478384 128.557162,27.92 C128.557162,26.9921616 127.815872,26.24 126.901445,26.24 C125.987019,26.24 125.245729,26.9921616 125.245729,27.92 C125.245729,28.8478384 125.987019,29.6 126.901445,29.6 Z M130.435055,47.9014056 L126.974844,44.960138 L130.435055,42.0380944 C130.680862,41.8266307 130.718679,41.4613753 130.510688,41.2114637 C130.397239,41.0768959 130.227064,41 130.05689,41 C129.924532,41 129.792174,41.0384479 129.678725,41.1345678 L125.707991,44.5179867 C125.575633,44.6333305 125.5,44.7871223 125.5,44.979362 C125.5,45.1716017 125.575633,45.3253935 125.707991,45.4407373 L129.697633,48.8241562 C129.811083,48.920276 129.924532,48.958724 130.075798,48.958724 C130.245973,48.958724 130.416147,48.8818281 130.529596,48.7472603 C130.718679,48.4781247 130.680862,48.1128692 130.435055,47.9014056 Z M143.433512,44.979362 C143.433512,44.8063462 143.357879,44.6333305 143.225521,44.5179867 L139.216971,41.1345678 C139.103521,41.0384479 138.971164,41 138.838806,41 C138.668631,41 138.498457,41.0768959 138.385008,41.2114637 C138.177017,41.4613753 138.214833,41.8266307 138.460641,42.0380944 L141.920852,44.979362 L138.479549,47.9206295 C138.233742,48.1320932 138.195925,48.4973487 138.403916,48.7472603 C138.517365,48.8818281 138.668631,48.958724 138.857714,48.958724 C138.990072,48.958724 139.12243,48.901052 139.235879,48.8241562 L143.225521,45.4407373 C143.357879,45.3253935 143.433512,45.1523777 143.433512,44.979362 Z M136.461188,38.019224 C136.404463,38 136.347738,38 136.291014,38 C136.045206,38 135.818307,38.1537918 135.742674,38.4229274 L131.526133,52.1488426 C131.431591,52.4564261 131.601766,52.7832336 131.904298,52.8793535 C131.961023,52.8985775 132.017747,52.8985775 132.074472,52.8985775 C132.339188,52.8985775 132.547179,52.7255617 132.622812,52.4756501 L136.820445,38.7305109 C136.933894,38.4421513 136.76372,38.1153438 136.461188,38.019224 Z" id="Fix-API" fill="#004385" fill-rule="nonzero"></path>
                            <rect id="BG---OZB-Copy" fill="#F2F2F2" fill-rule="nonzero" x="115" y="0" width="39.8712329" height="18"></rect>
                            <path d="M124.762959,10.0033337 L121.860979,10.0033337 L121.860979,12.8179045 L121,12.8179045 L121,6.45452697 L125.208745,6.45452697 L125.208745,7.13194697 L121.860979,7.13194697 L121.860979,9.32591369 L124.762959,9.32591369 L124.762959,10.0033337 Z M126.983148,12.8179045 L126.122169,12.8179045 L126.122169,8.08907588 L126.983148,8.08907588 L126.983148,12.8179045 Z M126.983148,6.87846078 L126.122169,6.87846078 L126.122169,6 L126.983148,6 L126.983148,6.87846078 Z M129.911351,9.83288608 L130.916555,8.08907588 L131.921759,8.08907588 L130.38773,10.4272675 L131.965463,12.8179045 L130.977741,12.8179045 L129.928833,11.0303898 L128.879924,12.8179045 L127.883461,12.8179045 L129.461194,10.4272675 L127.927166,8.08907588 L128.919258,8.08907588 L129.911351,9.83288608 Z M138.643513,11.1789852 L135.977538,11.1789852 L135.374415,12.8179045 L134.495955,12.8179045 L136.956519,6.45452697 L137.695125,6.45452697 L140.116355,12.8179045 L139.237895,12.8179045 L138.643513,11.1789852 Z M136.244135,10.4578607 L138.385657,10.4578607 L137.336748,7.56025123 L137.310525,7.56025123 L136.244135,10.4578607 Z M141.851425,10.2655608 L141.851425,12.8179045 L140.990446,12.8179045 L140.990446,6.45452697 L143.424787,6.45452697 C144.103668,6.45452697 144.63103,6.62934329 145.006891,6.97898116 C145.382752,7.32861904 145.570679,7.78896868 145.570679,8.36004388 C145.570679,8.93986003 145.382752,9.40239487 145.006891,9.74766227 C144.63103,10.0929297 144.103668,10.2655608 143.424787,10.2655608 L141.851425,10.2655608 Z M141.851425,9.59251124 L143.424787,9.59251124 C143.856007,9.59251124 144.177961,9.47669543 144.390657,9.24506033 C144.603353,9.01342524 144.7097,8.72133631 144.7097,8.36878478 C144.7097,8.01623325 144.602625,7.72195912 144.388472,7.48595355 C144.174319,7.24994799 143.853094,7.13194697 143.424787,7.13194697 L141.851425,7.13194697 L141.851425,9.59251124 Z M147.633532,12.8179045 L146.768183,12.8179045 L146.768183,6.45452697 L147.633532,6.45452697 L147.633532,12.8179045 Z" id="Fix-API" fill="#004385"></path>
                            <path d="M67.4872329,42.1320662 C67.6698159,42.1754461 67.7915379,42.2911257 67.7915379,42.4284952 L67.7915379,44.7854666 L83.3110903,44.7854666 C83.7709289,44.7854666 84.1428571,45.0602055 84.1428571,45.4072443 L84.1428571,47.7063759 C84.1428571,48.0461847 83.7709289,48.3281536 83.3110903,48.3281536 L67.7915379,48.3281536 L67.7915379,50.685125 C67.7915379,50.8152645 67.6698159,50.9309441 67.4872329,50.9815539 C67.3110567,51.0249339 67.1259694,50.9910849 66.9732957,50.8875643 L62.3613851,47.1930478 C62.1391492,47.0680461 62,46.8216747 62,46.5531951 C62,46.2847155 62.1391492,46.0383441 62.3613851,45.9133424 L66.959771,42.2260559 C67.1160462,42.1185768 67.3068016,42.0845857 67.4872329,42.1320662 Z M91.5127671,31.0209551 C91.6931984,30.9734746 91.8839538,31.0074657 92.040229,31.1149448 L96.6386149,34.8022313 C96.8608508,34.927233 97,35.1736044 97,35.442084 C97,35.7105635 96.8608508,35.956935 96.6386149,36.0819367 L92.0267043,39.7764532 C91.8740306,39.8799738 91.6889433,39.9138228 91.5127671,39.8704428 C91.3301841,39.819833 91.2084621,39.7041534 91.2084621,39.5740139 L91.2084621,37.2170425 L75.6889097,37.2170425 C75.2290711,37.2170425 74.8571429,36.9350735 74.8571429,36.5952648 L74.8571429,34.2961332 C74.8571429,33.9490944 75.2290711,33.6743554 75.6889097,33.6743554 L91.2084621,33.6743554 L91.2084621,31.317384 C91.2084621,31.1800145 91.3301841,31.064335 91.5127671,31.0209551 Z" id="2-Sided-Arrow" fill="#000000" fill-rule="nonzero"></path>
                            <path d="M9.15014145,36.5998308 C7.61916617,36.5998308 6.37424897,37.8210615 6.37424897,39.3229077 C6.37424897,40.8242923 7.61916617,42.0459846 9.15014145,42.0459846 C10.6806462,42.0459846 11.9255634,40.8242923 11.9255634,39.3229077 C11.9255634,37.8210615 10.6806462,36.5998308 9.15014145,36.5998308 M9.15014145,43.4306 C6.84144579,43.4306 4.96277821,41.5881385 4.96277821,39.3229077 C4.96277821,37.0581385 6.84144579,35.2152154 9.15014145,35.2152154 C11.4588371,35.2152154 13.3370342,37.0581385 13.3370342,39.3229077 C13.3370342,41.5881385 11.4588371,43.4306 9.15014145,43.4306 M37.8500467,36.5998308 C36.3190715,36.5998308 35.0741543,37.8210615 35.0741543,39.3229077 C35.0741543,40.8242923 36.3190715,42.0459846 37.8500467,42.0459846 C39.3805515,42.0459846 40.6254687,40.8242923 40.6254687,39.3229077 C40.6254687,37.8210615 39.3805515,36.5998308 37.8500467,36.5998308 M37.8500467,43.4306 C35.5413511,43.4306 33.6626835,41.5881385 33.6626835,39.3229077 C33.6626835,37.0581385 35.5413511,35.2152154 37.8500467,35.2152154 C40.1587424,35.2152154 42.0369395,37.0581385 42.0369395,39.3229077 C42.0369395,41.5881385 40.1587424,43.4306 37.8500467,43.4306 M46.853207,52.1871385 C46.0458458,47.7092923 42.2588697,44.4591385 37.8499056,44.4591385 C36.0850967,44.4591385 34.4252071,44.9866769 33.0109134,45.8982154 C33.3124976,46.2503692 33.5966737,46.6186769 33.8615597,47.0040615 C35.0349624,46.2674462 36.4012661,45.8437538 37.8499056,45.8437538 C41.303304,45.8437538 44.3083253,48.2257538 45.2751827,51.6152923 L35.8672597,51.6152923 C35.9100743,51.8040615 35.9486545,51.9946769 35.9834708,52.1871385 L36.1307342,52.9999077 L47,52.9999077 L46.853207,52.1871385 Z M11.1322698,51.6153846 L1.72528775,51.6153846 C2.69214522,48.2258462 5.69669596,45.8438462 9.1500944,45.8438462 C10.5982634,45.8438462 11.9655081,46.2675385 13.1389107,47.0041538 C13.4028558,46.6187692 13.6879729,46.25 13.9890866,45.8978462 C12.5747929,44.9867692 10.9144328,44.4592308 9.1500944,44.4592308 C4.74113026,44.4592308 0.954154229,47.7093846 0.146792958,52.1872308 L0,53 L10.8692658,53 L11.0165292,52.1872308 C11.050875,51.9947692 11.0899257,51.8041538 11.1322698,51.6153846 M23.5000941,30.3846154 C21.165051,30.3846154 19.2656818,32.2483077 19.2656818,34.5384615 C19.2656818,36.8286154 21.165051,38.6923077 23.5000941,38.6923077 C25.8351372,38.6923077 27.7345064,36.8286154 27.7345064,34.5384615 C27.7345064,32.2483077 25.8351372,30.3846154 23.5000941,30.3846154 M23.5000941,40.0769231 C20.3868601,40.0769231 17.8542111,37.5924615 17.8542111,34.5384615 C17.8542111,31.4844615 20.3868601,29 23.5000941,29 C26.6133281,29 29.1459771,31.4844615 29.1459771,34.5384615 C29.1459771,37.5924615 26.6133281,40.0769231 23.5000941,40.0769231 M12.5814268,51.6153846 L34.4187613,51.6153846 C33.1286771,46.4872308 28.6580787,42.8461538 23.5000941,42.8461538 C18.3421095,42.8461538 13.8715111,46.4872308 12.5814268,51.6153846 L12.5814268,51.6153846 Z M36.1308754,53 L10.8693128,53 L11.0165763,52.1872308 C12.1377545,45.9721538 17.3874848,41.4615385 23.5000941,41.4615385 C29.6127034,41.4615385 34.8624337,45.9721538 35.9836119,52.1872308 L36.1308754,53 Z" id="Combined-Shape" stroke="#004385" stroke-width="0.3" fill="#004385"></path>
                        </g>
                    </g>
                </g>
            </g>
        </g>
    </g>
</svg>