<?xml version="1.0" encoding="UTF-8"?>
<svg width="48px" height="48px" viewBox="0 0 48 48" version="1.1" xmlns="http://www.w3.org/2000/svg" xmlns:xlink="http://www.w3.org/1999/xlink">
    <!-- Generator: Sketch 45.1 (43504) - http://www.bohemiancoding.com/sketch -->
    <title>Magnifying Glass</title>
    <desc>Created with Sketch.</desc>
    <defs></defs>
    <g id="Liquidity-Solution" stroke="none" stroke-width="1" fill="none" fill-rule="evenodd">
        <g transform="translate(-834.000000, -539.000000)" id="Key-Features" fill-rule="nonzero" fill="#004385">
            <g transform="translate(185.000000, 452.000000)">
                <path d="M692.058743,135 C691.7344,135 691.424457,134.871065 691.194743,134.642684 L677.817143,121.2622 C677.630629,121.076341 677.509257,120.833558 677.472229,120.572258 L676.852343,116.230974 C676.797486,115.85034 676.925714,115.466962 677.197257,115.194689 C677.4688,114.923102 677.8528,114.79348 678.233371,114.849718 L682.573257,115.46902 C682.834514,115.50674 683.077257,115.627446 683.264457,115.814677 L696.642057,129.194475 C697.119314,129.671125 697.119314,130.445423 696.642057,130.922759 L692.922743,134.642684 C692.693714,134.87175 692.383086,135 692.058743,135 L692.058743,135 Z M679.832457,119.823335 L692.058743,132.05163 L694.051429,130.058617 L681.825143,117.830322 L679.500571,117.498382 L679.832457,119.823335 Z M678.061257,117.279603 C677.748571,117.279603 677.435886,117.160269 677.197257,116.922287 L674.299429,114.023297 C673.822171,113.546647 673.822171,112.77372 674.299429,112.296384 C674.776,111.819735 675.549486,111.819735 676.026743,112.296384 L678.925257,115.194689 C679.401829,115.672025 679.401829,116.444952 678.925257,116.922287 C678.685943,117.160269 678.373943,117.279603 678.061257,117.279603 M688.045943,130.986541 C687.733257,130.986541 687.420571,130.867207 687.181943,130.629225 C686.705371,130.152575 686.705371,129.378962 687.181943,128.901627 L690.901943,125.181015 C691.378514,124.704366 692.152,124.704366 692.629257,125.181015 C693.105829,125.657665 693.105829,126.431278 692.629257,126.908614 L688.909943,130.629225 C688.670629,130.867207 688.357943,130.986541 688.045943,130.986541 M664.831771,118.661544 C660.602971,118.661544 656.6272,117.014874 653.6368,114.023297 C650.647086,111.033777 649,107.056666 649,102.827172 C649,98.5976768 650.647086,94.6205662 653.637486,91.6303607 C659.8096,85.4565464 669.853943,85.4565464 676.026743,91.6303607 C679.017143,94.6205662 680.663543,98.5976768 680.663543,102.827172 C680.663543,107.056666 679.017143,111.033777 676.026743,114.023297 C673.036343,117.014874 669.060571,118.661544 664.831771,118.661544 M664.831771,89.4418869 C661.4032,89.4418869 657.974629,90.7463298 655.364114,93.357273 C652.8352,95.8866028 651.442514,99.2498982 651.442514,102.827172 C651.442514,106.404445 652.8352,109.767055 655.364114,112.29707 C657.893029,114.8264 661.255086,116.219315 664.831771,116.219315 C668.407771,116.219315 671.770514,114.8264 674.299429,112.29707 C676.828343,109.76774 678.221029,106.404445 678.221029,102.827172 C678.221029,99.2498982 676.828343,95.8872886 674.299429,93.357273 C671.6896,90.7470156 668.261029,89.4418869 664.831771,89.4418869" id="Magnifying-Glass"></path>
            </g>
        </g>
    </g>
</svg>