<?xml version="1.0" encoding="UTF-8"?>
<svg width="50px" height="48px" viewBox="0 0 50 48" version="1.1" xmlns="http://www.w3.org/2000/svg" xmlns:xlink="http://www.w3.org/1999/xlink">
    <!-- Generator: Sketch 45.1 (43504) - http://www.bohemiancoding.com/sketch -->
    <title>Icon / Payment Methods</title>
    <desc>Created with Sketch.</desc>
    <defs></defs>
    <g id="Liquidity-Solution" stroke="none" stroke-width="1" fill="none" fill-rule="evenodd">
        <g transform="translate(-558.000000, -539.000000)" id="Key-Features" fill-rule="nonzero" fill="#004385">
            <g transform="translate(185.000000, 452.000000)">
                <g id="Top-tier-liquidity" transform="translate(373.000000, 87.000000)">
                    <g id="noun_603839_cc_1_">
                        <g id="Icon-/-MT5-/-Payment-Methods">
                            <path d="M24.572636,3.18718244e-05 C24.3067547,0.0154985299 24.1164183,0.073242498 23.9716748,0.166698446 L1.53578975,15.1000235 C1.14486582,15.3481514 0.949897979,15.8743218 1.08506884,16.3166895 C1.22024505,16.7590519 1.67367429,17.0786891 2.13675096,17.0666891 L6.9444406,17.0666891 L6.9444406,37.3333392 L2.13675096,37.3333392 C1.54672791,37.3333981 1.06843447,37.8109263 1.06837548,38.4000053 L1.06837548,41.6000035 C0.478352432,41.6000624 5.8993456e-05,42.0775906 0,42.6666696 L0,46.9333339 C5.8993456e-05,47.5224129 0.478352432,47.9999411 1.06837548,48 L48.0768965,48 C48.6669195,47.9999411 49.145213,47.5224129 49.145272,46.9333339 L49.145272,42.6666696 C49.145213,42.0775906 48.6669195,41.6000624 48.0768965,41.6000035 L48.0768965,38.4000053 C48.0768375,37.8109263 47.5985441,37.3333981 47.008521,37.3333392 L42.2008314,37.3333392 L42.2008314,17.0666891 L47.008521,17.0666891 C47.4715977,17.0786891 47.9250269,16.7590519 48.0602031,16.3166895 C48.195374,15.8743218 48.0004062,15.3481514 47.6094822,15.1000235 L25.1735972,0.166698446 C24.9638911,0.0293438556 24.8016957,-0.00113612753 24.572636,3.18718244e-05 Z M24.572636,2.35003057 L43.4695272,14.9333569 L5.67574473,14.9333569 L24.572636,2.35003057 Z M24.572636,6.40002833 C22.8151476,6.40002833 21.3675096,7.8453502 21.3675096,9.60002656 C21.3675096,11.3547029 22.8151476,12.8000248 24.572636,12.8000248 C26.3301243,12.8000248 27.7777624,11.3547029 27.7777624,9.60002656 C27.7777624,7.8453502 26.3301243,6.40002833 24.572636,6.40002833 Z M24.572636,8.53336049 C25.1753386,8.53336049 25.6410115,8.99828823 25.6410115,9.60002656 C25.6410115,10.2017649 25.1753386,10.6666926 24.572636,10.6666926 C23.9699333,10.6666926 23.5042605,10.2017649 23.5042605,9.60002656 C23.5042605,8.99828823 23.9699333,8.53336049 24.572636,8.53336049 Z M9.08119156,17.0666891 L11.2179425,17.0666891 L11.2179425,37.3333392 L9.08119156,37.3333392 L9.08119156,17.0666891 Z M13.3546935,17.0666891 L16.5598199,17.0666891 L16.5598199,37.3333392 L13.3546935,37.3333392 L13.3546935,17.0666891 Z M18.6965709,17.0666891 L20.8333218,17.0666891 L20.8333218,37.3333392 L18.6965709,37.3333392 L18.6965709,17.0666891 Z M22.9700728,17.0666891 L26.1751992,17.0666891 L26.1751992,37.3333392 L22.9700728,37.3333392 L22.9700728,17.0666891 Z M28.3119502,17.0666891 L30.4487011,17.0666891 L30.4487011,37.3333392 L28.3119502,37.3333392 L28.3119502,17.0666891 Z M32.5854521,17.0666891 L35.7905785,17.0666891 L35.7905785,37.3333392 L32.5854521,37.3333392 L32.5854521,17.0666891 Z M37.9273295,17.0666891 L40.0640804,17.0666891 L40.0640804,37.3333392 L37.9273295,37.3333392 L37.9273295,17.0666891 Z M3.20512643,39.4666714 L45.9401455,39.4666714 L45.9401455,41.6000035 L3.20512643,41.6000035 L3.20512643,39.4666714 Z M2.13675096,43.7333357 L47.008521,43.7333357 L47.008521,45.8666678 L2.13675096,45.8666678 L2.13675096,43.7333357 Z" id="Shape"></path>
                        </g>
                    </g>
                </g>
            </g>
        </g>
    </g>
</svg>