<?xml version="1.0" encoding="UTF-8"?>
<svg width="252px" height="59px" viewBox="0 0 252 59" version="1.1" xmlns="http://www.w3.org/2000/svg" xmlns:xlink="http://www.w3.org/1999/xlink">
    <!-- Generator: Sketch 45.1 (43504) - http://www.bohemiancoding.com/sketch -->
    <title>IMAGE</title>
    <desc>Created with Sketch.</desc>
    <defs>
        <path d="M147.206371,23 L113.742382,23 C112.768698,23 112,23.7175758 112,24.6914286 L112,50.3703896 C112,51.3442424 112.768698,52.1130736 113.691136,52.1130736 C113.691136,52.1130736 113.691136,52.1130736 113.742382,52.1130736 L125.887812,52.1130736 L125.119114,57.1873593 L123.018006,57.1873593 C122.65928,57.1873593 122.351801,57.4948918 122.351801,57.8536797 C122.351801,58.2124675 122.65928,58.52 123.018006,58.52 L137.981994,58.52 C138.34072,58.52 138.648199,58.2124675 138.648199,57.8536797 C138.648199,57.4948918 138.34072,57.1873593 137.981994,57.1873593 C137.981994,57.1873593 137.981994,57.1873593 137.981994,57.1873593 L135.880886,57.1873593 L135.112188,52.1130736 L147.257618,52.1130736 C148.231302,52.1130736 149,51.3442424 149,50.421645 C149,50.421645 149,50.421645 149,50.3703896 L149,24.6914286 C148.948753,23.7688312 148.128809,23 147.206371,23 Z M126.400277,57.1873593 L127.168975,52.1130736 L133.677285,52.1130736 L134.445983,57.1873593 L126.400277,57.1873593 Z M147.616343,50.7804329 L113.33241,50.7804329 L113.33241,45.6548918 L147.616343,45.6548918 L147.616343,50.7804329 Z M147.616343,44.3735065 L113.33241,44.3735065 L113.33241,24.2813853 L147.616343,24.2813853 L147.616343,44.3735065 Z M130.448753,49.1915152 C131.012465,49.1915152 131.473684,48.7302165 131.473684,48.1664069 C131.473684,47.6025974 131.012465,47.1412987 130.448753,47.1412987 C129.885042,47.1412987 129.423823,47.6025974 129.423823,48.1664069 C129.423823,48.7302165 129.885042,49.1915152 130.448753,49.1915152 Z M120.340374,29.9579221 L123.05644,36.928658 L123.107687,36.928658 L125.875,29.9579221 L127.36115,29.9579221 L127.36115,38.5688312 L126.182479,38.5688312 L126.182479,35.185974 L126.284972,31.7006061 L126.233726,31.7006061 L123.466413,38.6200866 L122.697715,38.6200866 L119.930402,31.7518615 L119.879155,31.7518615 L119.981648,35.2372294 L119.981648,38.6200866 L118.802978,38.6200866 L118.802978,30.0091775 L120.340374,30.0091775 L120.340374,29.9579221 Z M135.150623,30.8805195 L132.38331,30.8805195 L132.38331,38.5688312 L131.20464,38.5688312 L131.20464,30.8805195 L128.437327,30.8805195 L128.437327,29.9579221 L135.150623,29.9579221 L135.150623,30.8805195 L135.150623,30.8805195 Z M136.38054,34.6734199 L136.893006,29.9579221 L141.197715,29.9579221 L141.197715,30.9830303 L137.86669,30.9830303 L137.559211,33.3920346 C137.764197,33.2382684 137.917936,33.1357576 138.174169,33.0332468 C138.379155,32.9307359 138.635388,32.8794805 138.942867,32.8794805 C139.711565,32.8794805 140.37777,33.1357576 140.787742,33.6483117 C141.248961,34.1608658 141.453947,34.8784416 141.453947,35.7497835 C141.453947,36.6211255 141.197715,37.2874459 140.736496,37.8512554 C140.275277,38.3638095 139.609072,38.6200866 138.737881,38.6200866 C138.020429,38.6200866 137.405471,38.4150649 136.893006,38.0050216 C136.431787,37.5949784 136.175554,37.0311688 136.175554,36.2623377 L136.175554,36.2110823 L137.251731,36.2110823 C137.251731,36.672381 137.405471,37.0311688 137.661704,37.2874459 C137.917936,37.5437229 138.276662,37.6974892 138.686634,37.6974892 C139.1991,37.6974892 139.557825,37.5437229 139.814058,37.1849351 C140.070291,36.8261472 140.22403,36.3648485 140.22403,35.7497835 C140.22403,35.185974 140.070291,34.7246753 139.814058,34.4171429 C139.557825,34.058355 139.147853,33.9045887 138.686634,33.9045887 C138.225416,33.9045887 137.917936,33.9558442 137.71295,34.1096104 C137.507964,34.2633766 137.354224,34.4683983 137.251731,34.7246753 L136.38054,34.6734199 Z" id="path-1"></path>
    </defs>
    <g id="Liquidity-Solution" stroke="none" stroke-width="1" fill="none" fill-rule="evenodd">
        <g transform="translate(-589.000000, -1024.000000)" id="How-it-works">
            <g transform="translate(185.000000, 903.000000)">
                <g id="v2" transform="translate(0.000000, 67.000000)">
                    <g id="MT5-Gateway" transform="translate(367.000000, 0.000000)">
                        <g id="IMAGE" transform="translate(38.000000, 54.000000)">
                            <g id="Icon-/-MT5-/-Payment-Methods" transform="translate(214.000000, 23.000000)" fill-rule="nonzero" fill="#004385">
                                <path d="M18.1837506,2.39038683e-05 C17.9869985,0.0116238975 17.8461495,0.0549318735 17.7390393,0.125023835 L1.13648441,11.3250176 C0.847200707,11.5111135 0.702924505,11.9057413 0.802950945,12.2375171 C0.902981338,12.569289 1.23851897,12.8090168 1.58119571,12.8000168 L5.13888605,12.8000168 L5.13888605,28.0000044 L1.58119571,28.0000044 C1.14457865,28.0000486 0.790641509,28.3581947 0.790597853,28.800004 L0.790597853,31.2000027 C0.3539808,31.2000468 4.36551575e-05,31.558193 0,32.0000022 L0,35.2000004 C4.36551575e-05,35.6418097 0.3539808,35.9999558 0.790597853,36 L35.5769034,36 C36.0135205,35.9999558 36.3674576,35.6418097 36.3675013,35.2000004 L36.3675013,32.0000022 C36.3674576,31.558193 36.0135205,31.2000468 35.5769034,31.2000027 L35.5769034,28.800004 C35.5768598,28.3581947 35.2229226,28.0000486 34.7863056,28.0000044 L31.2286152,28.0000044 L31.2286152,12.8000168 L34.7863056,12.8000168 C35.1289823,12.8090168 35.4645199,12.569289 35.5645503,12.2375171 C35.6645768,11.9057413 35.5203006,11.5111135 35.2310168,11.3250176 L18.6284619,0.125023835 C18.4732794,0.0220078917 18.3532548,-0.000852095647 18.1837506,2.39038683e-05 Z M18.1837506,1.76252293 L32.1674502,11.2000177 L4.2000511,11.2000177 L18.1837506,1.76252293 Z M18.1837506,4.80002125 C16.8832093,4.80002125 15.8119571,5.88401265 15.8119571,7.20001992 C15.8119571,8.5160272 16.8832093,9.6000186 18.1837506,9.6000186 C19.484292,9.6000186 20.5555442,8.5160272 20.5555442,7.20001992 C20.5555442,5.88401265 19.484292,4.80002125 18.1837506,4.80002125 Z M18.1837506,6.40002037 C18.6297506,6.40002037 18.9743485,6.74871617 18.9743485,7.20001992 C18.9743485,7.65132367 18.6297506,8.00001948 18.1837506,8.00001948 C17.7377507,8.00001948 17.3931528,7.65132367 17.3931528,7.20001992 C17.3931528,6.74871617 17.7377507,6.40002037 18.1837506,6.40002037 Z M6.72008175,12.8000168 L8.30127746,12.8000168 L8.30127746,28.0000044 L6.72008175,28.0000044 L6.72008175,12.8000168 Z M9.88247317,12.8000168 L12.2542667,12.8000168 L12.2542667,28.0000044 L9.88247317,28.0000044 L9.88247317,12.8000168 Z M13.8354624,12.8000168 L15.4166581,12.8000168 L15.4166581,28.0000044 L13.8354624,28.0000044 L13.8354624,12.8000168 Z M16.9978538,12.8000168 L19.3696474,12.8000168 L19.3696474,28.0000044 L16.9978538,28.0000044 L16.9978538,12.8000168 Z M20.9508431,12.8000168 L22.5320388,12.8000168 L22.5320388,28.0000044 L20.9508431,28.0000044 L20.9508431,12.8000168 Z M24.1132345,12.8000168 L26.4850281,12.8000168 L26.4850281,28.0000044 L24.1132345,28.0000044 L24.1132345,12.8000168 Z M28.0662238,12.8000168 L29.6474195,12.8000168 L29.6474195,28.0000044 L28.0662238,28.0000044 L28.0662238,12.8000168 Z M2.37179356,29.6000035 L33.9957077,29.6000035 L33.9957077,31.2000027 L2.37179356,31.2000027 L2.37179356,29.6000035 Z M1.58119571,32.8000018 L34.7863056,32.8000018 L34.7863056,34.4000009 L1.58119571,34.4000009 L1.58119571,32.8000018 Z" id="Shape"></path>
                            </g>
                            <path d="M169.487233,42.1320662 C169.669816,42.1754461 169.791538,42.2911257 169.791538,42.4284952 L169.791538,44.7854666 L185.31109,44.7854666 C185.770929,44.7854666 186.142857,45.0602055 186.142857,45.4072443 L186.142857,47.7063759 C186.142857,48.0461847 185.770929,48.3281536 185.31109,48.3281536 L169.791538,48.3281536 L169.791538,50.685125 C169.791538,50.8152645 169.669816,50.9309441 169.487233,50.9815539 C169.311057,51.0249339 169.125969,50.9910849 168.973296,50.8875643 L164.361385,47.1930478 C164.139149,47.0680461 164,46.8216747 164,46.5531951 C164,46.2847155 164.139149,46.0383441 164.361385,45.9133424 L168.959771,42.2260559 C169.116046,42.1185768 169.306802,42.0845857 169.487233,42.1320662 Z M193.512767,31.0209551 C193.693198,30.9734746 193.883954,31.0074657 194.040229,31.1149448 L198.638615,34.8022313 C198.860851,34.927233 199,35.1736044 199,35.442084 C199,35.7105635 198.860851,35.956935 198.638615,36.0819367 L194.026704,39.7764532 C193.874031,39.8799738 193.688943,39.9138228 193.512767,39.8704428 C193.330184,39.819833 193.208462,39.7041534 193.208462,39.5740139 L193.208462,37.2170425 L177.68891,37.2170425 C177.229071,37.2170425 176.857143,36.9350735 176.857143,36.5952648 L176.857143,34.2961332 C176.857143,33.9490944 177.229071,33.6743554 177.68891,33.6743554 L193.208462,33.6743554 L193.208462,31.317384 C193.208462,31.1800145 193.330184,31.064335 193.512767,31.0209551 Z" id="2-Sided-Arrow" fill="#000000" fill-rule="nonzero"></path>
                            <g id="MT5" fill-rule="nonzero">
                                <use fill="#004385" fill-rule="evenodd" xlink:href="#path-1"></use>
                                <path stroke="#004385" stroke-width="0.5" d="M147.206371,23.25 C147.997995,23.25 148.7066,23.9170377 148.750385,24.7052937 L148.75,50.3703896 C148.75,50.421645 148.75,50.421645 148.75,50.421645 C148.75,51.2128594 148.086355,51.8630736 147.257618,51.8630736 L134.821464,51.8630736 L135.665906,57.4373593 L137.981994,57.4373593 C138.202639,57.4373593 138.398199,57.6329533 138.398199,57.8536797 C138.398199,58.074406 138.202639,58.27 137.981994,58.27 L123.018006,58.27 C122.797361,58.27 122.601801,58.074406 122.601801,57.8536797 C122.601801,57.6329533 122.797361,57.4373593 123.018006,57.4373593 L125.334094,57.4373593 L126.178536,51.8630736 L113.742382,51.8630736 C113.691136,51.8630736 113.691136,51.8630736 113.691136,51.8630736 C112.900102,51.8630736 112.25,51.1993127 112.25,50.3703896 L112.25,24.6914286 C112.25,23.8679586 112.894143,23.25 113.742382,23.25 L147.206371,23.25 Z M126.109552,57.4373593 L126.953995,51.8630736 L133.892265,51.8630736 L134.736708,57.4373593 L126.109552,57.4373593 Z M147.866343,51.0304329 L113.08241,51.0304329 L113.08241,45.4048918 L147.866343,45.4048918 L147.866343,51.0304329 Z M147.866343,44.6235065 L113.08241,44.6235065 L113.08241,24.0313853 L147.866343,24.0313853 L147.866343,44.6235065 Z M130.448753,48.9415152 C130.023122,48.9415152 129.673823,48.592155 129.673823,48.1664069 C129.673823,47.7406589 130.023122,47.3912987 130.448753,47.3912987 C130.874384,47.3912987 131.223684,47.7406589 131.223684,48.1664069 C131.223684,48.592155 130.874384,48.9415152 130.448753,48.9415152 Z M126.044732,30.2079221 L126.10736,30.0501665 L125.875,30.2079221 L126.044732,30.2079221 Z M127.11115,30.2079221 L127.36115,30.2079221 L127.11115,29.9579221 L127.11115,30.2079221 Z M127.11115,38.3188312 L127.11115,38.5688312 L127.36115,38.3188312 L127.11115,38.3188312 Z M126.432479,38.3188312 L126.182479,38.3188312 L126.432479,38.5688312 L126.432479,38.3188312 Z M123.297144,38.3700866 L123.234288,38.5272528 L123.466413,38.3700866 L123.297144,38.3700866 Z M122.866516,38.3700866 L122.697715,38.3700866 L122.9296,38.5266564 L122.866516,38.3700866 Z M119.731656,38.3700866 L119.731648,38.6200866 L119.981648,38.3700866 L119.731656,38.3700866 Z M119.052978,38.3700866 L118.802978,38.3700866 L119.052978,38.6200866 L119.052978,38.3700866 Z M119.052978,30.2591775 L119.052978,30.0091775 L118.802978,30.2591775 L119.052978,30.2591775 Z M120.189448,30.2591775 L120.590374,30.2591775 L120.590374,29.9579221 L120.340374,29.9579221 L120.107432,30.0486853 L120.189448,30.2591775 Z M120.189448,30.2591775 L122.885543,37.178658 L123.277419,37.178658 L126.044732,30.2079221 L127.11115,30.2079221 L127.11115,38.3188312 L126.432479,38.3188312 L126.432479,35.185974 L126.534864,31.7079546 L126.542432,31.4506061 L126.064457,31.4506061 L123.297144,38.3700866 L122.866516,38.3700866 L120.099203,31.5018615 L119.621695,31.5018615 L119.731756,35.2445779 L119.731656,38.3700866 L119.052978,38.3700866 L119.052978,30.2591775 L120.189448,30.2591775 Z M126.284972,31.7211011 L126.284972,31.9506061 L126.233726,31.9506061 L126.233726,31.7006061 L126.284972,31.7211011 Z M119.879155,31.7725095 L119.930402,31.7518615 L119.930402,32.0018615 L119.879155,32.0018615 L119.879155,31.7725095 Z M134.900623,30.6305195 L134.900623,30.2079221 L128.687327,30.2079221 L128.687327,30.6305195 L131.20464,30.6305195 L131.45464,30.6305195 L131.45464,38.3188312 L132.13331,38.3188312 L132.13331,30.6305195 L134.900623,30.6305195 Z M136.657458,34.4392797 L137.095835,34.4650711 C137.211424,34.2422516 137.367444,34.0562654 137.562934,33.9096229 C137.813032,33.7220167 138.150113,33.6545887 138.686634,33.6545887 C139.250933,33.6545887 139.722703,33.8590578 140.006127,34.2571131 C140.309531,34.6212608 140.47403,35.1447589 140.47403,35.7497835 C140.47403,36.3872714 140.319391,36.907512 140.017503,37.330228 C139.714862,37.7539991 139.283305,37.9474892 138.686634,37.9474892 C138.220183,37.9474892 137.79481,37.7741591 137.484912,37.4642073 C137.222964,37.2022141 137.062455,36.8616359 137.015895,36.4610823 L136.43196,36.4610823 C136.470223,37.0398308 136.679498,37.4807354 137.049196,37.8098176 C137.51621,38.1834933 138.075892,38.3700866 138.737881,38.3700866 C139.54228,38.3700866 140.140332,38.1400264 140.542993,37.6929624 C140.986566,37.1507238 141.203947,36.5327962 141.203947,35.7497835 C141.203947,34.9083706 141.004479,34.2629191 140.592512,33.804469 C140.243172,33.3677185 139.65959,33.1294805 138.942867,33.1294805 C138.67176,33.1294805 138.453284,33.1731834 138.267031,33.2653604 C138.059411,33.3484224 137.932207,33.4247581 137.709227,33.5920222 L137.236384,33.9467158 L137.646571,30.7330303 L140.947715,30.7330303 L140.947715,30.2079221 L137.117308,30.2079221 L136.657458,34.4392797 Z"></path>
                            </g>
                            <rect id="BG---OZB-Copy" fill="#F2F2F2" fill-rule="nonzero" x="100" y="0" width="61" height="18"></rect>
                            <path d="M106.984375,5.08203125 L108.796875,9.703125 L108.820312,9.703125 L110.632812,5.08203125 L111.617188,5.08203125 L111.617188,10.7695312 L110.847656,10.7695312 L110.847656,8.51953125 L110.925781,6.20703125 L110.90625,6.203125 L109.0625,10.7695312 L108.550781,10.7695312 L106.714844,6.21484375 L106.695312,6.21875 L106.769531,8.51953125 L106.769531,10.7695312 L106,10.7695312 L106,5.08203125 L106.984375,5.08203125 Z M116.878906,5.6875 L115.050781,5.6875 L115.050781,10.7695312 L114.28125,10.7695312 L114.28125,5.6875 L112.457031,5.6875 L112.457031,5.08203125 L116.878906,5.08203125 L116.878906,5.6875 Z M117.695312,8.203125 L118.023438,5.08203125 L120.871094,5.08203125 L120.871094,5.765625 L118.675781,5.765625 L118.488281,7.36328125 C118.608074,7.27473914 118.741536,7.20117217 118.888672,7.14257812 C119.035808,7.08398408 119.205728,7.05208336 119.398438,7.046875 C119.921878,7.04166664 120.333983,7.21223785 120.634766,7.55859375 C120.935548,7.90494965 121.085938,8.37109082 121.085938,8.95703125 C121.085938,9.5273466 120.932944,9.98567535 120.626953,10.3320313 C120.320962,10.6783871 119.875003,10.8515625 119.289062,10.8515625 C118.807289,10.8515625 118.406252,10.7200534 118.085938,10.4570313 C117.765623,10.1940091 117.611979,9.80729422 117.625,9.296875 L117.632812,9.2734375 L118.328125,9.2734375 C118.328125,9.58333488 118.417317,9.82356686 118.595703,9.99414063 C118.774089,10.1647144 119.005207,10.25 119.289062,10.25 C119.614585,10.25 119.867187,10.1354178 120.046875,9.90625 C120.226563,9.67708219 120.316406,9.36328324 120.316406,8.96484375 C120.316406,8.60025859 120.225261,8.30078242 120.042969,8.06640625 C119.860676,7.83203008 119.609377,7.71484375 119.289062,7.71484375 C118.986978,7.71484375 118.76823,7.76041621 118.632812,7.8515625 C118.497395,7.94270879 118.398438,8.08203031 118.335938,8.26953125 L117.695312,8.203125 Z M128.328125,10.015625 C128.192708,10.2239594 127.957684,10.4153637 127.623047,10.5898438 C127.28841,10.7643238 126.855471,10.8515625 126.324219,10.8515625 C125.644528,10.8515625 125.082685,10.6341168 124.638672,10.1992188 C124.194659,9.76432074 123.972656,9.20182637 123.972656,8.51171875 L123.972656,7.33984375 C123.972656,6.64973613 124.179685,6.08724176 124.59375,5.65234375 C125.007815,5.21744574 125.541663,5 126.195312,5 C126.846357,5 127.358071,5.16015465 127.730469,5.48046875 C128.102866,5.80078285 128.292969,6.21353914 128.300781,6.71875 L128.292969,6.7421875 L127.558594,6.7421875 C127.535156,6.41145668 127.409506,6.13932398 127.181641,5.92578125 C126.953775,5.71223852 126.625002,5.60546875 126.195312,5.60546875 C125.760414,5.60546875 125.410158,5.76822754 125.144531,6.09375 C124.878905,6.41927246 124.746094,6.83202875 124.746094,7.33203125 L124.746094,8.51171875 C124.746094,9.01692961 124.89453,9.43294107 125.191406,9.75976563 C125.488283,10.0865902 125.865883,10.25 126.324219,10.25 C126.647137,10.25 126.911457,10.2070317 127.117188,10.1210938 C127.322918,10.0351558 127.470052,9.93750055 127.558594,9.828125 L127.558594,8.53515625 L126.3125,8.53515625 L126.3125,7.9296875 L128.328125,7.9296875 L128.328125,10.015625 Z M132.113281,10.7695312 C132.087239,10.6419264 132.067057,10.5292974 132.052734,10.4316406 C132.038411,10.3339839 132.029948,10.2356776 132.027344,10.1367188 C131.884114,10.3398448 131.697267,10.5097649 131.466797,10.6464844 C131.236327,10.7832038 130.988283,10.8515625 130.722656,10.8515625 C130.28255,10.8515625 129.947267,10.7389334 129.716797,10.5136719 C129.486327,10.2884103 129.371094,9.97786656 129.371094,9.58203125 C129.371094,9.1783834 129.534504,8.86263135 129.861328,8.63476562 C130.188153,8.4068999 130.631508,8.29296875 131.191406,8.29296875 L132.027344,8.29296875 L132.027344,7.875 C132.027344,7.62760293 131.951824,7.43164135 131.800781,7.28710938 C131.649739,7.1425774 131.436199,7.0703125 131.160156,7.0703125 C130.912759,7.0703125 130.711589,7.13346291 130.556641,7.25976562 C130.401692,7.38606834 130.324219,7.53775953 130.324219,7.71484375 L129.589844,7.71484375 L129.582031,7.69140625 C129.566406,7.38411305 129.711587,7.10286586 130.017578,6.84765625 C130.323569,6.59244664 130.718748,6.46484375 131.203125,6.46484375 C131.682294,6.46484375 132.067707,6.58658732 132.359375,6.83007812 C132.651043,7.07356893 132.796875,7.42447687 132.796875,7.8828125 L132.796875,9.91796875 C132.796875,10.0690112 132.804687,10.214843 132.820312,10.3554688 C132.835938,10.4960945 132.864583,10.6341139 132.90625,10.7695312 L132.113281,10.7695312 Z M130.835938,10.2070313 C131.114585,10.2070313 131.365884,10.1354174 131.589844,9.9921875 C131.813803,9.84895762 131.959635,9.68489676 132.027344,9.5 L132.027344,8.8125 L131.164062,8.8125 C130.854165,8.8125 130.606121,8.89062422 130.419922,9.046875 C130.233723,9.20312578 130.140625,9.3867177 130.140625,9.59765625 C130.140625,9.78515719 130.199218,9.9335932 130.316406,10.0429688 C130.433594,10.1523443 130.60677,10.2070313 130.835938,10.2070313 Z M134.929688,5.5234375 L134.929688,6.54296875 L135.730469,6.54296875 L135.730469,7.11328125 L134.929688,7.11328125 L134.929688,9.6796875 C134.929688,9.87760516 134.970703,10.0169267 135.052734,10.0976562 C135.134766,10.1783858 135.243489,10.21875 135.378906,10.21875 C135.423177,10.21875 135.472005,10.2135417 135.525391,10.203125 C135.578776,10.1927083 135.626302,10.1796876 135.667969,10.1640625 L135.769531,10.6914062 C135.712239,10.7382815 135.628256,10.7766926 135.517578,10.8066406 C135.4069,10.8365887 135.295573,10.8515625 135.183594,10.8515625 C134.871092,10.8515625 134.622397,10.7571624 134.4375,10.5683594 C134.252603,10.3795563 134.160156,10.0833354 134.160156,9.6796875 L134.160156,7.11328125 L133.488281,7.11328125 L133.488281,6.54296875 L134.160156,6.54296875 L134.160156,5.5234375 L134.929688,5.5234375 Z M138.433594,10.8515625 C137.845049,10.8515625 137.376955,10.6556009 137.029297,10.2636719 C136.681639,9.87174283 136.507812,9.36328437 136.507812,8.73828125 L136.507812,8.56640625 C136.507812,7.96484074 136.686847,7.46419471 137.044922,7.06445312 C137.402997,6.66471154 137.82682,6.46484375 138.316406,6.46484375 C138.886722,6.46484375 139.317707,6.63671703 139.609375,6.98046875 C139.901043,7.32422047 140.046875,7.78254922 140.046875,8.35546875 L140.046875,8.8359375 L137.304688,8.8359375 L137.292969,8.85546875 C137.300781,9.26172078 137.403645,9.59570182 137.601562,9.85742188 C137.79948,10.1191419 138.076821,10.25 138.433594,10.25 C138.694012,10.25 138.922525,10.212891 139.119141,10.1386719 C139.315756,10.0644528 139.485676,9.96224023 139.628906,9.83203125 L139.929688,10.3320312 C139.778645,10.4804695 139.579428,10.6041662 139.332031,10.703125 C139.084634,10.8020838 138.785158,10.8515625 138.433594,10.8515625 Z M138.316406,7.0703125 C138.058592,7.0703125 137.838543,7.17903537 137.65625,7.39648438 C137.473957,7.61393338 137.361979,7.88671711 137.320312,8.21484375 L137.328125,8.234375 L139.277344,8.234375 L139.277344,8.1328125 C139.277344,7.83072766 139.196615,7.57812602 139.035156,7.375 C138.873697,7.17187398 138.634116,7.0703125 138.316406,7.0703125 Z M141.992188,9.23046875 L142.082031,9.7421875 L142.105469,9.7421875 L142.214844,9.23046875 L143.058594,6.54296875 L143.675781,6.54296875 L144.523438,9.23046875 L144.644531,9.80078125 L144.667969,9.80078125 L144.78125,9.23046875 L145.445312,6.54296875 L146.210938,6.54296875 L144.984375,10.7695312 L144.363281,10.7695312 L143.546875,8.1953125 L143.371094,7.4765625 L143.347656,7.48046875 L143.179688,8.1953125 L142.375,10.7695312 L141.753906,10.7695312 L140.527344,6.54296875 L141.292969,6.54296875 L141.992188,9.23046875 Z M149.5625,10.7695312 C149.536458,10.6419264 149.516276,10.5292974 149.501953,10.4316406 C149.48763,10.3339839 149.479167,10.2356776 149.476562,10.1367188 C149.333333,10.3398448 149.146486,10.5097649 148.916016,10.6464844 C148.685546,10.7832038 148.437501,10.8515625 148.171875,10.8515625 C147.731769,10.8515625 147.396486,10.7389334 147.166016,10.5136719 C146.935546,10.2884103 146.820312,9.97786656 146.820312,9.58203125 C146.820312,9.1783834 146.983722,8.86263135 147.310547,8.63476562 C147.637371,8.4068999 148.080726,8.29296875 148.640625,8.29296875 L149.476562,8.29296875 L149.476562,7.875 C149.476562,7.62760293 149.401042,7.43164135 149.25,7.28710938 C149.098958,7.1425774 148.885418,7.0703125 148.609375,7.0703125 C148.361978,7.0703125 148.160808,7.13346291 148.005859,7.25976562 C147.850911,7.38606834 147.773438,7.53775953 147.773438,7.71484375 L147.039062,7.71484375 L147.03125,7.69140625 C147.015625,7.38411305 147.160806,7.10286586 147.466797,6.84765625 C147.772788,6.59244664 148.167966,6.46484375 148.652344,6.46484375 C149.131513,6.46484375 149.516926,6.58658732 149.808594,6.83007812 C150.100262,7.07356893 150.246094,7.42447687 150.246094,7.8828125 L150.246094,9.91796875 C150.246094,10.0690112 150.253906,10.214843 150.269531,10.3554688 C150.285156,10.4960945 150.313802,10.6341139 150.355469,10.7695312 L149.5625,10.7695312 Z M148.285156,10.2070313 C148.563803,10.2070313 148.815103,10.1354174 149.039062,9.9921875 C149.263022,9.84895762 149.408854,9.68489676 149.476562,9.5 L149.476562,8.8125 L148.613281,8.8125 C148.303384,8.8125 148.055339,8.89062422 147.869141,9.046875 C147.682942,9.20312578 147.589844,9.3867177 147.589844,9.59765625 C147.589844,9.78515719 147.648437,9.9335932 147.765625,10.0429688 C147.882813,10.1523443 148.055988,10.2070313 148.285156,10.2070313 Z M152.65625,9.203125 L152.792969,9.734375 L152.816406,9.734375 L153.855469,6.54296875 L154.710938,6.54296875 L152.933594,11.4179688 C152.826822,11.7018243 152.673829,11.9492177 152.474609,12.1601563 C152.27539,12.3710948 152.006512,12.4765625 151.667969,12.4765625 C151.605468,12.4765625 151.526042,12.4694011 151.429688,12.4550781 C151.333333,12.4407551 151.259115,12.4270834 151.207031,12.4140625 L151.285156,11.8085938 C151.269531,11.8059896 151.315755,11.8085937 151.423828,11.8164063 C151.531902,11.8242188 151.60026,11.828125 151.628906,11.828125 C151.79297,11.828125 151.927083,11.7552091 152.03125,11.609375 C152.135417,11.4635409 152.222656,11.3020842 152.292969,11.125 L152.476562,10.6835938 L150.90625,6.54296875 L151.765625,6.54296875 L152.65625,9.203125 Z" id="MT5-Gateway" fill="#004385"></path>
                            <path d="M67.4872329,42.1320662 C67.6698159,42.1754461 67.7915379,42.2911257 67.7915379,42.4284952 L67.7915379,44.7854666 L83.3110903,44.7854666 C83.7709289,44.7854666 84.1428571,45.0602055 84.1428571,45.4072443 L84.1428571,47.7063759 C84.1428571,48.0461847 83.7709289,48.3281536 83.3110903,48.3281536 L67.7915379,48.3281536 L67.7915379,50.685125 C67.7915379,50.8152645 67.6698159,50.9309441 67.4872329,50.9815539 C67.3110567,51.0249339 67.1259694,50.9910849 66.9732957,50.8875643 L62.3613851,47.1930478 C62.1391492,47.0680461 62,46.8216747 62,46.5531951 C62,46.2847155 62.1391492,46.0383441 62.3613851,45.9133424 L66.959771,42.2260559 C67.1160462,42.1185768 67.3068016,42.0845857 67.4872329,42.1320662 Z M91.5127671,31.0209551 C91.6931984,30.9734746 91.8839538,31.0074657 92.040229,31.1149448 L96.6386149,34.8022313 C96.8608508,34.927233 97,35.1736044 97,35.442084 C97,35.7105635 96.8608508,35.956935 96.6386149,36.0819367 L92.0267043,39.7764532 C91.8740306,39.8799738 91.6889433,39.9138228 91.5127671,39.8704428 C91.3301841,39.819833 91.2084621,39.7041534 91.2084621,39.5740139 L91.2084621,37.2170425 L75.6889097,37.2170425 C75.2290711,37.2170425 74.8571429,36.9350735 74.8571429,36.5952648 L74.8571429,34.2961332 C74.8571429,33.9490944 75.2290711,33.6743554 75.6889097,33.6743554 L91.2084621,33.6743554 L91.2084621,31.317384 C91.2084621,31.1800145 91.3301841,31.064335 91.5127671,31.0209551 Z" id="2-Sided-Arrow" fill="#000000" fill-rule="nonzero"></path>
                            <path d="M9.15014145,36.5998308 C7.61916617,36.5998308 6.37424897,37.8210615 6.37424897,39.3229077 C6.37424897,40.8242923 7.61916617,42.0459846 9.15014145,42.0459846 C10.6806462,42.0459846 11.9255634,40.8242923 11.9255634,39.3229077 C11.9255634,37.8210615 10.6806462,36.5998308 9.15014145,36.5998308 M9.15014145,43.4306 C6.84144579,43.4306 4.96277821,41.5881385 4.96277821,39.3229077 C4.96277821,37.0581385 6.84144579,35.2152154 9.15014145,35.2152154 C11.4588371,35.2152154 13.3370342,37.0581385 13.3370342,39.3229077 C13.3370342,41.5881385 11.4588371,43.4306 9.15014145,43.4306 M37.8500467,36.5998308 C36.3190715,36.5998308 35.0741543,37.8210615 35.0741543,39.3229077 C35.0741543,40.8242923 36.3190715,42.0459846 37.8500467,42.0459846 C39.3805515,42.0459846 40.6254687,40.8242923 40.6254687,39.3229077 C40.6254687,37.8210615 39.3805515,36.5998308 37.8500467,36.5998308 M37.8500467,43.4306 C35.5413511,43.4306 33.6626835,41.5881385 33.6626835,39.3229077 C33.6626835,37.0581385 35.5413511,35.2152154 37.8500467,35.2152154 C40.1587424,35.2152154 42.0369395,37.0581385 42.0369395,39.3229077 C42.0369395,41.5881385 40.1587424,43.4306 37.8500467,43.4306 M46.853207,52.1871385 C46.0458458,47.7092923 42.2588697,44.4591385 37.8499056,44.4591385 C36.0850967,44.4591385 34.4252071,44.9866769 33.0109134,45.8982154 C33.3124976,46.2503692 33.5966737,46.6186769 33.8615597,47.0040615 C35.0349624,46.2674462 36.4012661,45.8437538 37.8499056,45.8437538 C41.303304,45.8437538 44.3083253,48.2257538 45.2751827,51.6152923 L35.8672597,51.6152923 C35.9100743,51.8040615 35.9486545,51.9946769 35.9834708,52.1871385 L36.1307342,52.9999077 L47,52.9999077 L46.853207,52.1871385 Z M11.1322698,51.6153846 L1.72528775,51.6153846 C2.69214522,48.2258462 5.69669596,45.8438462 9.1500944,45.8438462 C10.5982634,45.8438462 11.9655081,46.2675385 13.1389107,47.0041538 C13.4028558,46.6187692 13.6879729,46.25 13.9890866,45.8978462 C12.5747929,44.9867692 10.9144328,44.4592308 9.1500944,44.4592308 C4.74113026,44.4592308 0.954154229,47.7093846 0.146792958,52.1872308 L0,53 L10.8692658,53 L11.0165292,52.1872308 C11.050875,51.9947692 11.0899257,51.8041538 11.1322698,51.6153846 M23.5000941,30.3846154 C21.165051,30.3846154 19.2656818,32.2483077 19.2656818,34.5384615 C19.2656818,36.8286154 21.165051,38.6923077 23.5000941,38.6923077 C25.8351372,38.6923077 27.7345064,36.8286154 27.7345064,34.5384615 C27.7345064,32.2483077 25.8351372,30.3846154 23.5000941,30.3846154 M23.5000941,40.0769231 C20.3868601,40.0769231 17.8542111,37.5924615 17.8542111,34.5384615 C17.8542111,31.4844615 20.3868601,29 23.5000941,29 C26.6133281,29 29.1459771,31.4844615 29.1459771,34.5384615 C29.1459771,37.5924615 26.6133281,40.0769231 23.5000941,40.0769231 M12.5814268,51.6153846 L34.4187613,51.6153846 C33.1286771,46.4872308 28.6580787,42.8461538 23.5000941,42.8461538 C18.3421095,42.8461538 13.8715111,46.4872308 12.5814268,51.6153846 L12.5814268,51.6153846 Z M36.1308754,53 L10.8693128,53 L11.0165763,52.1872308 C12.1377545,45.9721538 17.3874848,41.4615385 23.5000941,41.4615385 C29.6127034,41.4615385 34.8624337,45.9721538 35.9836119,52.1872308 L36.1308754,53 Z" id="Combined-Shape" stroke="#004385" stroke-width="0.3" fill="#004385"></path>
                        </g>
                    </g>
                </g>
            </g>
        </g>
    </g>
</svg>