<?xml version="1.0" encoding="UTF-8"?>
<svg width="56px" height="50px" viewBox="0 0 56 50" version="1.1" xmlns="http://www.w3.org/2000/svg" xmlns:xlink="http://www.w3.org/1999/xlink">
    <!-- Generator: Sketch 45.1 (43504) - http://www.bohemiancoding.com/sketch -->
    <title>Multi asset execution</title>
    <desc>Created with Sketch.</desc>
    <defs></defs>
    <g id="Liquidity-Solution" stroke="none" stroke-width="1" fill="none" fill-rule="evenodd">
        <g transform="translate(-280.000000, -538.000000)" id="Key-Features">
            <g transform="translate(185.000000, 452.000000)">
                <g id="Multi-asset-execution" transform="translate(95.000000, 87.000000)">
                    <path d="M35.875933,5.34013987 L34.0072672,5.34013987 L33.2053523,2.67006993 L31.3341326,2.67006993 L30.5319624,0 L26.3946948,0 L25.5958446,2.67006993 L23.7248802,2.67006993 L22.9229654,5.34013987 L21.0548103,5.34013987 L20.0930233,8.54498995 L36.8372093,8.54498995 L35.875933,5.34013987 Z M32.8082257,3.20485008 L33.4497576,5.34013987 L28.8236795,5.34013987 L29.4659775,3.20485008 L32.8082257,3.20485008 Z M28.4666486,4.67843244 L28.023297,3.20485008 L28.9066802,3.20485008 L28.4666486,4.67843244 Z M26.7941199,0.531460118 L30.134325,0.531460118 L30.776623,2.6667499 L26.1541203,2.6667499 L26.7941199,0.531460118 Z M24.1225176,3.20485008 L27.4642551,3.20485008 L28.1065531,5.34013987 L23.4802196,5.34013987 L24.1225176,3.20485008 Z M20.8101496,8.01352983 L21.4524477,5.87824004 L24.7941851,5.87824004 L25.4364832,8.01352983 L20.8101496,8.01352983 Z M25.3516947,5.87389847 L26.235078,5.87389847 L25.7950463,7.34748082 L25.3516947,5.87389847 Z M26.1536095,8.01250828 L26.7959076,5.8772185 L30.137645,5.8772185 L30.779943,8.01250828 L26.1536095,8.01250828 Z M30.6951546,5.87389847 L31.5785379,5.87389847 L31.1351862,7.34748082 L30.6951546,5.87389847 Z M32.1360474,5.87389847 L35.4777849,5.87389847 L36.1200829,8.00918825 L31.4937494,8.00918825 L32.1360474,5.87389847 Z" id="Gold" stroke="#004385" stroke-width="0.5" fill="#004385" fill-rule="nonzero"></path>
                    <g id="Group" transform="translate(0.000000, 29.023256)" fill-rule="nonzero" fill="#004385">
                        <path d="M11.2598884,10.0632156 C11.1688368,9.76599679 11.0209928,9.48926316 10.8245491,9.24834971 C10.6739786,9.06822616 10.5056957,8.90368283 10.3222344,8.75719765 C10.499364,8.73984785 10.6745189,8.70621812 10.8454788,8.65673473 C11.1013506,8.58860131 11.3381388,8.46256885 11.5375567,8.28837068 C11.7383493,8.10450129 11.8915609,7.87468386 11.9840586,7.61861786 C12.1008843,7.32665838 12.1132076,7.00329315 12.0189416,6.70328901 C11.9377052,6.42465949 11.7874925,6.17102561 11.5822069,5.96586325 C11.3797961,5.75035943 11.146571,5.56603631 10.890129,5.41889845 C10.7450159,5.32959808 10.5761824,5.2626228 10.421302,5.18448497 L10.9347792,3.79998032 L10.1324711,3.5097541 L9.62876121,4.89425875 L8.81459294,4.59252115 L9.31690756,3.2080165 L8.51250652,2.91813911 L8.0101919,4.30264376 L6.31488009,3.68835485 L6.01349132,4.52554587 L6.25767203,4.63717134 C6.32464732,4.6720543 6.42511024,4.72647171 6.54789825,4.793447 C6.64748408,4.85506172 6.74093288,4.92608281 6.82696193,5.00553539 C6.89393721,5.06134812 6.9162623,5.09483576 6.90509976,5.10599831 C6.91354492,5.15914996 6.90576448,5.21361303 6.88277466,5.26227397 L5.20839262,9.87310351 C5.19088783,9.91648365 5.16841269,9.95768807 5.14141734,9.99589153 C5.13025479,10.0070541 5.09676715,10.0182166 5.01862932,10.0182166 C4.91199891,10.0133414 4.80645983,9.99457885 4.70468269,9.96240389 C4.57575404,9.93883562 4.44886028,9.9052461 4.32515609,9.86194097 L4.06841752,9.79496568 L3.76702875,10.6321567 L5.5087349,11.2684219 L5.00642029,12.6529265 L5.80872835,12.9431528 L6.31104296,11.5586481 L7.12590889,11.8600369 L6.62359428,13.2445415 L7.42590234,13.5347677 L7.92821695,12.1394494 C8.17609799,12.2139546 8.43011761,12.2662527 8.68727014,12.295725 C9.02508166,12.3390654 9.36748074,12.3315402 9.70306191,12.2733999 C10.0326644,12.2234581 10.346076,12.0973291 10.6183908,11.9050359 C10.9097729,11.7032048 11.1302903,11.4148359 11.2487258,11.0807516 C11.3362143,10.7476716 11.3400488,10.3981348 11.2598884,10.0632156 Z M10.065147,7.17176715 C9.97211358,7.42809838 9.78091953,7.63688363 9.53374548,7.75206137 C9.28657143,7.86723911 9.00372889,7.87934463 8.74761766,7.78570724 L7.78763862,7.43966828 L8.49087908,5.49703628 L9.45085812,5.84307524 C9.97867633,6.04970934 10.249646,6.63581023 10.065147,7.17176715 Z M7.77647608,11.0807516 L6.60405982,10.6551795 L7.44125084,8.34418341 L8.6136671,8.7683602 C9.25183103,8.99954411 9.58175353,9.70428979 9.35056961,10.3424537 C9.11938569,10.9806177 8.41464001,11.3105402 7.77647608,11.0793562 L7.77647608,11.0807516 Z M11.2375633,0.505982481 C8.05577314,-0.653068854 4.48908547,0.21879732 2.20080887,2.71499017 C-0.0874677266,5.21118302 -0.646639971,8.8400586 0.784059574,11.9093073 C2.21475912,14.9785559 5.35354342,16.8836661 8.73665468,16.7361982 C12.1197659,16.5887304 15.0808749,14.4177295 16.239082,11.2356319 C17.0001126,9.14962379 16.9005926,6.84663436 15.9624481,4.83405336 C15.0243036,2.82147236 13.3245104,1.26443429 11.2375633,0.505982481 Z M5.87503615,15.2309127 C2.08733286,13.8515898 0.134914638,9.6629238 1.51415273,5.87518965 C2.89339083,2.08745549 7.08201314,0.13494353 10.8697782,1.51409686 C14.6575432,2.89325019 16.6101489,7.08182881 15.2310803,10.8696247 C13.8463368,14.6525345 9.66264628,16.6027475 5.87503615,15.2309127 Z" id="Bitcoin"></path>
                        <path d="M54.8916279,16.744186 L43.0684884,16.744186 L43.0684884,0 L54.9226744,0 L54.9226744,16.744186 L54.8916279,16.744186 Z M43.997093,15.8155814 L53.9940698,15.8155814 L53.9940698,0.928604651 L43.997093,0.928604651 L43.997093,15.8155814 Z M42.4186047,0 L55.5415116,0 L55.5415116,0.928604651 L42.4186047,0.928604651 L42.4186047,0 Z M42.4186047,15.8155814 L55.5415116,15.8155814 L55.5415116,16.744186 L42.4186047,16.744186 L42.4186047,15.8155814 Z M42.4186047,3.52848837 L55.5415116,3.52848837 L55.5415116,4.45709302 L42.4186047,4.45709302 L42.4186047,3.52848837 Z M42.4186047,12.0087209 L55.5415116,12.0087209 L55.5415116,12.9373256 L42.4186047,12.9373256 L42.4186047,12.0087209 Z M48.949186,6.80895349 C48.949186,6.80895349 47.8660465,7.73755814 47.7422093,8.60406977 C47.7422093,8.69686047 47.7111628,8.78965116 47.7111628,8.85174419 C47.7140357,9.534009 48.2669179,10.0861123 48.949186,10.0880233 L48.9802326,10.0880233 C49.6631786,10.086107 50.2163396,9.53294605 50.2182558,8.85 C50.2252803,8.76618039 50.2147053,8.68181797 50.1872093,8.60232558 C50.0633721,7.73755814 48.949186,6.80895349 48.949186,6.80895349 Z" id="Oil" stroke="#004385" stroke-width="0.3"></path>
                    </g>
                    <g id="Round" transform="translate(5.581395, 5.581395)" stroke="#004385">
                        <path d="M23.0575858,32.2701181 C16.5164267,32.2701181 11.1943522,26.9194352 11.1943522,20.3432078 C11.1943522,13.8020487 16.5164267,8.47997416 23.0575858,8.47997416 C29.5996678,8.47997416 34.9208195,13.8297342 34.9208195,20.4059616 C34.9208195,26.9480436 29.5996678,32.2701181 23.0575858,32.2701181 Z M23.0575858,13.8143226 C22.5749354,13.8143226 22.1827243,14.2056109 22.1827243,14.6891842 L22.1827243,15.2087486 C21.6059432,15.3204134 21.0780731,15.550203 20.6378738,15.9055002 C19.9835733,16.4352159 19.5581395,17.2740864 19.5581395,18.1877076 C19.5581395,19.1834625 20.1487634,19.9771133 20.802141,20.3748616 C21.4564415,20.7726098 22.1421189,20.9488741 22.7299742,21.1814323 C23.5328535,21.5007383 24.8017719,21.7794389 24.807309,22.5620155 C24.807309,22.9717608 24.6568845,23.2310816 24.3698782,23.4636397 C24.0819491,23.6961979 23.6269841,23.873385 23.0575858,23.873385 C22.1578073,23.873385 21.4684385,23.3076781 21.1851237,22.835179 C20.9488741,22.4411222 20.3757844,22.2980805 19.9817276,22.53433 C19.5885936,22.7705795 19.4455519,23.3436693 19.6818014,23.7368032 C20.157069,24.5286083 21.0365449,25.2548911 22.1827243,25.513289 L22.1827243,26.0605389 C22.1827243,26.5431894 22.5749354,26.9344777 23.0575858,26.9344777 C23.5402362,26.9344777 23.9324474,26.5431894 23.9324474,26.0605389 L23.9324474,25.5418974 C24.5092285,25.4256183 25.0370986,25.1866002 25.476375,24.8303802 C26.1315984,24.3006645 26.5561093,23.4756368 26.5561093,22.5620155 C26.5561093,21.5653378 25.9664083,20.7587671 25.3121078,20.3610188 C24.6587302,19.9632706 23.9730528,19.7870063 23.3851975,19.5544481 C22.5878553,19.236065 21.3133998,18.9545958 21.3078627,18.1877076 C21.3078627,17.7770395 21.4573643,17.5057217 21.7452935,17.2722407 C22.0332226,17.0396825 22.4881875,16.8754153 23.0575858,16.8754153 C23.9573643,16.8754153 24.6458103,17.4282023 24.930048,17.9007014 C25.1662975,18.2947582 25.7393872,18.4377999 26.1325212,18.2015504 C26.5265781,17.9653008 26.6696198,17.3922111 26.4333702,16.9990772 C25.9581026,16.2072721 25.0786268,15.4911406 23.9324474,15.2364341 L23.9324474,14.6891842 C23.9324474,14.2056109 23.5402362,13.8143226 23.0575858,13.8143226 Z" id="Fill-1" stroke-width="0.5" fill="#004385"></path>
                        <path d="M11.7972499,38.2775009 C15.0825951,40.2782392 18.9364157,41.4354928 23.0569398,41.4354928 C27.1783869,41.4354928 31.0312846,40.2782392 34.3175526,38.2765781 L34.3175526,38.8099852 C31.0146733,40.7664267 27.1673127,41.8969177 23.0569398,41.8969177 C18.9474898,41.8969177 15.1001292,40.7664267 11.7972499,38.8099852 L11.7972499,38.2775009 Z" id="Fill-7" stroke-width="2" fill="#014385"></path>
                        <path d="M33.61268,0.538851975 C36.9884644,2.38362865 39.9166667,5.14202658 41.9773902,8.7106866 C44.0381137,12.2802695 44.9628092,16.195921 44.8723699,20.0423588 L45.3337948,19.7756552 C45.3771687,15.9366002 44.4321705,12.0394057 42.3769841,8.47997416 C40.3227206,4.92146549 37.4203581,2.15383906 34.0741048,0.272148394 L33.61268,0.538851975 Z" id="Fill-9" stroke-width="2" fill="#014385"></path>
                        <path d="M12.5024917,0.538851975 C9.12670727,2.38362865 6.19758213,5.14202658 4.13778147,8.7106866 C2.07705795,12.2802695 1.1523625,16.195921 1.24280177,20.0423588 L0.780454042,19.7756552 C0.738002953,15.9366002 1.68300111,12.0394057 3.73818752,8.47997416 C5.79245109,4.92146549 8.69481358,2.15383906 12.0410668,0.272148394 L12.5024917,0.538851975 Z" id="Fill-11" stroke-width="2" fill="#014385"></path>
                    </g>
                </g>
            </g>
        </g>
    </g>
</svg>