<?xml version="1.0" encoding="UTF-8"?>
<svg width="282px" height="59px" viewBox="0 0 282 59" version="1.1" xmlns="http://www.w3.org/2000/svg" xmlns:xlink="http://www.w3.org/1999/xlink">
    <!-- Generator: Sketch 45.1 (43504) - http://www.bohemiancoding.com/sketch -->
    <title>IMAGE</title>
    <desc>Created with Sketch.</desc>
    <defs>
        <path d="M77.2063712,23 L43.7423823,23 C42.7686981,23 42,23.7175758 42,24.6914286 L42,50.3703896 C42,51.3442424 42.7686981,52.1130736 43.6911357,52.1130736 C43.6911357,52.1130736 43.6911357,52.1130736 43.7423823,52.1130736 L55.8878116,52.1130736 L55.1191136,57.1873593 L53.0180055,57.1873593 C52.6592798,57.1873593 52.3518006,57.4948918 52.3518006,57.8536797 C52.3518006,58.2124675 52.6592798,58.52 53.0180055,58.52 L67.9819945,58.52 C68.3407202,58.52 68.6481994,58.2124675 68.6481994,57.8536797 C68.6481994,57.4948918 68.3407202,57.1873593 67.9819945,57.1873593 C67.9819945,57.1873593 67.9819945,57.1873593 67.9819945,57.1873593 L65.8808864,57.1873593 L65.1121884,52.1130736 L77.2576177,52.1130736 C78.2313019,52.1130736 79,51.3442424 79,50.421645 C79,50.421645 79,50.421645 79,50.3703896 L79,24.6914286 C78.9487535,23.7688312 78.1288089,23 77.2063712,23 Z M56.400277,57.1873593 L57.1689751,52.1130736 L63.6772853,52.1130736 L64.4459834,57.1873593 L56.400277,57.1873593 Z M77.6163435,50.7804329 L43.33241,50.7804329 L43.33241,45.6548918 L77.6163435,45.6548918 L77.6163435,50.7804329 Z M77.6163435,44.3735065 L43.33241,44.3735065 L43.33241,24.2813853 L77.6163435,24.2813853 L77.6163435,44.3735065 Z M60.4487535,49.1915152 C61.0124654,49.1915152 61.4736842,48.7302165 61.4736842,48.1664069 C61.4736842,47.6025974 61.0124654,47.1412987 60.4487535,47.1412987 C59.8850416,47.1412987 59.4238227,47.6025974 59.4238227,48.1664069 C59.4238227,48.7302165 59.8850416,49.1915152 60.4487535,49.1915152 Z M50.340374,29.9579221 L53.0564404,36.928658 L53.107687,36.928658 L55.875,29.9579221 L57.3611496,29.9579221 L57.3611496,38.5688312 L56.1824792,38.5688312 L56.1824792,35.185974 L56.2849723,31.7006061 L56.2337258,31.7006061 L53.4664127,38.6200866 L52.6977147,38.6200866 L49.9304017,31.7518615 L49.8791551,31.7518615 L49.9816482,35.2372294 L49.9816482,38.6200866 L48.8029778,38.6200866 L48.8029778,30.0091775 L50.340374,30.0091775 L50.340374,29.9579221 Z M65.1506233,30.8805195 L62.3833102,30.8805195 L62.3833102,38.5688312 L61.2046399,38.5688312 L61.2046399,30.8805195 L58.4373269,30.8805195 L58.4373269,29.9579221 L65.1506233,29.9579221 L65.1506233,30.8805195 L65.1506233,30.8805195 Z M66.3805402,34.6734199 L66.8930055,29.9579221 L71.1977147,29.9579221 L71.1977147,30.9830303 L67.8666898,30.9830303 L67.5592105,33.3920346 C67.7641967,33.2382684 67.9179363,33.1357576 68.174169,33.0332468 C68.3791551,32.9307359 68.6353878,32.8794805 68.942867,32.8794805 C69.7115651,32.8794805 70.3777701,33.1357576 70.7877424,33.6483117 C71.2489612,34.1608658 71.4539474,34.8784416 71.4539474,35.7497835 C71.4539474,36.6211255 71.1977147,37.2874459 70.7364958,37.8512554 C70.275277,38.3638095 69.609072,38.6200866 68.7378809,38.6200866 C68.0204294,38.6200866 67.4054709,38.4150649 66.8930055,38.0050216 C66.4317867,37.5949784 66.175554,37.0311688 66.175554,36.2623377 L66.175554,36.2110823 L67.2517313,36.2110823 C67.2517313,36.672381 67.4054709,37.0311688 67.6617036,37.2874459 C67.9179363,37.5437229 68.276662,37.6974892 68.6866343,37.6974892 C69.1990997,37.6974892 69.5578255,37.5437229 69.8140582,37.1849351 C70.0702909,36.8261472 70.2240305,36.3648485 70.2240305,35.7497835 C70.2240305,35.185974 70.0702909,34.7246753 69.8140582,34.4171429 C69.5578255,34.058355 69.1478532,33.9045887 68.6866343,33.9045887 C68.2254155,33.9045887 67.9179363,33.9558442 67.7129501,34.1096104 C67.507964,34.2633766 67.3542244,34.4683983 67.2517313,34.7246753 L66.3805402,34.6734199 Z" id="path-1"></path>
    </defs>
    <g id="Liquidity-Solution" stroke="none" stroke-width="1" fill="none" fill-rule="evenodd">
        <g transform="translate(-213.000000, -1024.000000)" id="How-it-works" fill-rule="nonzero">
            <g transform="translate(185.000000, 903.000000)">
                <g id="v2" transform="translate(0.000000, 67.000000)">
                    <g id="One-Zero">
                        <g id="IMAGE" transform="translate(28.000000, 54.000000)">
                            <g id="Icon-/-MT5-/-Payment-Methods" transform="translate(245.000000, 23.000000)" fill="#004385">
                                <path d="M18.1837506,2.39038683e-05 C17.9869985,0.0116238975 17.8461495,0.0549318735 17.7390393,0.125023835 L1.13648441,11.3250176 C0.847200707,11.5111135 0.702924505,11.9057413 0.802950945,12.2375171 C0.902981338,12.569289 1.23851897,12.8090168 1.58119571,12.8000168 L5.13888605,12.8000168 L5.13888605,28.0000044 L1.58119571,28.0000044 C1.14457865,28.0000486 0.790641509,28.3581947 0.790597853,28.800004 L0.790597853,31.2000027 C0.3539808,31.2000468 4.36551575e-05,31.558193 0,32.0000022 L0,35.2000004 C4.36551575e-05,35.6418097 0.3539808,35.9999558 0.790597853,36 L35.5769034,36 C36.0135205,35.9999558 36.3674576,35.6418097 36.3675013,35.2000004 L36.3675013,32.0000022 C36.3674576,31.558193 36.0135205,31.2000468 35.5769034,31.2000027 L35.5769034,28.800004 C35.5768598,28.3581947 35.2229226,28.0000486 34.7863056,28.0000044 L31.2286152,28.0000044 L31.2286152,12.8000168 L34.7863056,12.8000168 C35.1289823,12.8090168 35.4645199,12.569289 35.5645503,12.2375171 C35.6645768,11.9057413 35.5203006,11.5111135 35.2310168,11.3250176 L18.6284619,0.125023835 C18.4732794,0.0220078917 18.3532548,-0.000852095647 18.1837506,2.39038683e-05 Z M18.1837506,1.76252293 L32.1674502,11.2000177 L4.2000511,11.2000177 L18.1837506,1.76252293 Z M18.1837506,4.80002125 C16.8832093,4.80002125 15.8119571,5.88401265 15.8119571,7.20001992 C15.8119571,8.5160272 16.8832093,9.6000186 18.1837506,9.6000186 C19.484292,9.6000186 20.5555442,8.5160272 20.5555442,7.20001992 C20.5555442,5.88401265 19.484292,4.80002125 18.1837506,4.80002125 Z M18.1837506,6.40002037 C18.6297506,6.40002037 18.9743485,6.74871617 18.9743485,7.20001992 C18.9743485,7.65132367 18.6297506,8.00001948 18.1837506,8.00001948 C17.7377507,8.00001948 17.3931528,7.65132367 17.3931528,7.20001992 C17.3931528,6.74871617 17.7377507,6.40002037 18.1837506,6.40002037 Z M6.72008175,12.8000168 L8.30127746,12.8000168 L8.30127746,28.0000044 L6.72008175,28.0000044 L6.72008175,12.8000168 Z M9.88247317,12.8000168 L12.2542667,12.8000168 L12.2542667,28.0000044 L9.88247317,28.0000044 L9.88247317,12.8000168 Z M13.8354624,12.8000168 L15.4166581,12.8000168 L15.4166581,28.0000044 L13.8354624,28.0000044 L13.8354624,12.8000168 Z M16.9978538,12.8000168 L19.3696474,12.8000168 L19.3696474,28.0000044 L16.9978538,28.0000044 L16.9978538,12.8000168 Z M20.9508431,12.8000168 L22.5320388,12.8000168 L22.5320388,28.0000044 L20.9508431,28.0000044 L20.9508431,12.8000168 Z M24.1132345,12.8000168 L26.4850281,12.8000168 L26.4850281,28.0000044 L24.1132345,28.0000044 L24.1132345,12.8000168 Z M28.0662238,12.8000168 L29.6474195,12.8000168 L29.6474195,28.0000044 L28.0662238,28.0000044 L28.0662238,12.8000168 Z M2.37179356,29.6000035 L33.9957077,29.6000035 L33.9957077,31.2000027 L2.37179356,31.2000027 L2.37179356,29.6000035 Z M1.58119571,32.8000018 L34.7863056,32.8000018 L34.7863056,34.4000009 L1.58119571,34.4000009 L1.58119571,32.8000018 Z" id="Shape"></path>
                            </g>
                            <path d="M200.487233,42.1320662 C200.669816,42.1754461 200.791538,42.2911257 200.791538,42.4284952 L200.791538,44.7854666 L216.31109,44.7854666 C216.770929,44.7854666 217.142857,45.0602055 217.142857,45.4072443 L217.142857,47.7063759 C217.142857,48.0461847 216.770929,48.3281536 216.31109,48.3281536 L200.791538,48.3281536 L200.791538,50.685125 C200.791538,50.8152645 200.669816,50.9309441 200.487233,50.9815539 C200.311057,51.0249339 200.125969,50.9910849 199.973296,50.8875643 L195.361385,47.1930478 C195.139149,47.0680461 195,46.8216747 195,46.5531951 C195,46.2847155 195.139149,46.0383441 195.361385,45.9133424 L199.959771,42.2260559 C200.116046,42.1185768 200.306802,42.0845857 200.487233,42.1320662 Z M224.512767,31.0209551 C224.693198,30.9734746 224.883954,31.0074657 225.040229,31.1149448 L229.638615,34.8022313 C229.860851,34.927233 230,35.1736044 230,35.442084 C230,35.7105635 229.860851,35.956935 229.638615,36.0819367 L225.026704,39.7764532 C224.874031,39.8799738 224.688943,39.9138228 224.512767,39.8704428 C224.330184,39.819833 224.208462,39.7041534 224.208462,39.5740139 L224.208462,37.2170425 L208.68891,37.2170425 C208.229071,37.2170425 207.857143,36.9350735 207.857143,36.5952648 L207.857143,34.2961332 C207.857143,33.9490944 208.229071,33.6743554 208.68891,33.6743554 L224.208462,33.6743554 L224.208462,31.317384 C224.208462,31.1800145 224.330184,31.064335 224.512767,31.0209551 Z" id="2-Sided-Arrow" fill="#000000"></path>
                            <path d="M149.806452,26.483948 L152.129032,26.483948 L152.129032,27.645264 L149.806452,27.645264 L149.806452,26.483948 Z M153.290323,27.645264 L155.612903,27.645264 L155.612903,26.483948 L153.290323,26.483948 L153.290323,27.645264 Z M157.935484,27.645264 L162.580645,27.645264 L162.580645,26.483948 L157.935484,26.483948 L157.935484,27.645264 Z M149.806452,36.9357921 L152.129032,36.9357921 L152.129032,35.7744761 L149.806452,35.7744761 L149.806452,36.9357921 Z M153.290323,36.9357921 L155.612903,36.9357921 L155.612903,35.7744761 L153.290323,35.7744761 L153.290323,36.9357921 Z M157.935484,36.9357921 L162.580645,36.9357921 L162.580645,35.7744761 L157.935484,35.7744761 L157.935484,36.9357921 Z M149.806452,46.2263202 L152.129032,46.2263202 L152.129032,45.0650042 L149.806452,45.0650042 L149.806452,46.2263202 Z M153.290323,46.2263202 L155.612903,46.2263202 L155.612903,45.0650042 L153.290323,45.0650042 L153.290323,46.2263202 Z M157.935484,46.2263202 L162.580645,46.2263202 L162.580645,45.0650042 L157.935484,45.0650042 L157.935484,46.2263202 Z M162,54.3555322 C161.36129,54.3555322 160.83871,54.8781244 160.83871,55.5168482 C160.83871,56.155572 161.36129,56.6781642 162,56.6781642 C162.63871,56.6781642 163.16129,56.155572 163.16129,55.5168482 C163.16129,54.8781244 162.63871,54.3555322 162,54.3555322 Z M180,55.5168482 C180,55.8071772 179.767742,56.0975062 179.477419,56.0975062 C179.477419,56.0975062 179.419355,56.0975062 179.419355,56.0975062 L165.425806,56.0975062 C165.135484,58.0136777 163.335484,59.2911253 161.419355,58.9427305 C159.967742,58.7104673 158.806452,57.5491512 158.574194,56.0975062 L144.580645,56.0975062 C144.232258,56.0975062 144,55.865243 144,55.5168482 C144,55.1684534 144.232258,54.9361902 144.580645,54.9361902 L158.574194,54.9361902 C158.806452,53.4845452 159.967742,52.3232292 161.419355,52.090966 L161.419355,49.7102682 L146.903226,49.7102682 C146.612903,49.7102682 146.322581,49.478005 146.322581,49.187676 C146.322581,49.187676 146.322581,49.1296102 146.322581,49.1296102 L146.322581,42.1617141 C146.322581,41.8713851 146.554839,41.5810561 146.845161,41.5810561 C146.845161,41.5810561 146.903226,41.5810561 146.903226,41.5810561 L161.419355,41.5810561 L161.419355,40.4197401 L146.903226,40.4197401 C146.612903,40.4197401 146.322581,40.1874769 146.322581,39.8971479 C146.322581,39.8971479 146.322581,39.8390821 146.322581,39.8390821 L146.322581,32.8711861 C146.322581,32.5808571 146.554839,32.2905281 146.845161,32.2905281 C146.845161,32.2905281 146.903226,32.2905281 146.903226,32.2905281 L161.419355,32.2905281 L161.419355,31.1292121 L146.903226,31.1292121 C146.612903,31.1292121 146.322581,30.8969489 146.322581,30.6066199 C146.322581,30.6066199 146.322581,30.5485541 146.322581,30.5485541 L146.322581,23.580658 C146.322581,23.290329 146.554839,23 146.845161,23 C146.845161,23 146.903226,23 146.903226,23 L177.096774,23 C177.387097,23 177.677419,23.2322632 177.677419,23.5225922 C177.677419,23.5225922 177.677419,23.580658 177.677419,23.580658 L177.677419,30.5485541 C177.677419,30.8388831 177.445161,31.1292121 177.154839,31.1292121 C177.154839,31.1292121 177.096774,31.1292121 177.096774,31.1292121 L162.580645,31.1292121 L162.580645,32.2905281 L177.096774,32.2905281 C177.387097,32.2905281 177.677419,32.5227913 177.677419,32.8131203 C177.677419,32.8131203 177.677419,32.8711861 177.677419,32.8711861 L177.677419,39.8390821 C177.677419,40.1294111 177.445161,40.4197401 177.154839,40.4197401 C177.154839,40.4197401 177.096774,40.4197401 177.096774,40.4197401 L162.580645,40.4197401 L162.580645,41.5810561 L177.096774,41.5810561 C177.387097,41.5810561 177.677419,41.8133193 177.677419,42.1036483 C177.677419,42.1036483 177.677419,42.1617141 177.677419,42.1617141 L177.677419,49.1296102 C177.677419,49.4199392 177.445161,49.7102682 177.154839,49.7102682 C177.154839,49.7102682 177.096774,49.7102682 177.096774,49.7102682 L162.580645,49.7102682 L162.580645,52.090966 C164.032258,52.3232292 165.193548,53.4845452 165.425806,54.9361902 L179.419355,54.9361902 C179.767742,54.9361902 180,55.1684534 180,55.5168482 Z M147.483871,29.9678961 L176.516129,29.9678961 L176.516129,24.161316 L147.483871,24.161316 L147.483871,29.9678961 Z M147.483871,39.2584241 L176.516129,39.2584241 L176.516129,33.4518441 L147.483871,33.4518441 L147.483871,39.2584241 Z M147.483871,48.5489522 L176.516129,48.5489522 L176.516129,42.7423721 L147.483871,42.7423721 L147.483871,48.5489522 Z M164.322581,55.5168482 C164.322581,54.2394006 163.277419,53.1942162 162,53.1942162 C160.722581,53.1942162 159.677419,54.2394006 159.677419,55.5168482 C159.677419,56.7942958 160.722581,57.8394803 162,57.8394803 C163.277419,57.8394803 164.322581,56.7942958 164.322581,55.5168482 Z" id="One-Zero" fill="#004385"></path>
                            <rect id="BG---OZB" fill="#F2F2F2" x="126" y="0" width="71.6054795" height="18"></rect>
                            <path d="M136.814905,9.07621325 C136.814905,9.81734293 136.571112,10.434951 136.144475,10.9290375 C135.65689,11.4231239 135.108356,11.6701671 134.376978,11.6701671 C133.6456,11.6701671 133.097067,11.4231239 132.67043,10.9290375 C132.243793,10.434951 132,9.81734293 132,9.07621325 L132,7.96451873 C132,7.22338905 132.243793,6.60578098 132.67043,6.11169452 C133.097067,5.61760807 133.706549,5.37056484 134.376978,5.37056484 C135.108356,5.37056484 135.717838,5.61760807 136.144475,6.11169452 C136.632061,6.60578098 136.814905,7.22338905 136.814905,7.96451873 L136.814905,9.07621325 Z M135.961631,8.02627954 C135.961631,7.47043227 135.839734,6.97634582 135.534994,6.66754178 C135.230253,6.29697694 134.803616,6.11169452 134.31603,6.11169452 C133.828445,6.11169452 133.462756,6.29697694 133.158015,6.66754178 C132.853274,7.03810663 132.731378,7.47043227 132.731378,8.02627954 L132.731378,9.13797406 C132.731378,9.69382132 132.853274,10.1879078 133.158015,10.5584726 C133.462756,10.9290375 133.828445,11.1143199 134.31603,11.1143199 C134.803616,11.1143199 135.230253,10.9290375 135.534994,10.5584726 C135.839734,10.1879078 135.961631,9.75558213 135.961631,9.13797406 L135.961631,8.02627954 Z M138.582402,7.03810663 L138.64335,7.7174755 C138.765246,7.47043227 139.009039,7.28514985 139.191883,7.16162824 C139.435676,7.03810663 139.679469,6.97634582 139.98421,6.97634582 C140.471795,6.97634582 140.837484,7.09986743 141.142225,7.40867147 C141.386017,7.7174755 141.568862,8.14980115 141.568862,8.76740922 L141.568862,11.6701671 L140.776536,11.6701671 L140.776536,8.82917002 C140.776536,8.39684438 140.715588,8.14980115 140.532743,7.96451873 C140.349899,7.77923631 140.106106,7.7174755 139.801365,7.7174755 C139.557572,7.7174755 139.374728,7.77923631 139.191883,7.90275792 C139.009039,8.02627954 138.887143,8.14980115 138.765246,8.39684438 L138.765246,11.7319279 L137.97292,11.7319279 L137.97292,7.16162824 L138.582402,7.16162824 L138.582402,7.03810663 Z M144.555322,11.7319279 C143.94584,11.7319279 143.458255,11.5466455 143.031618,11.1143199 C142.665929,10.6819942 142.483084,10.126147 142.483084,9.44677809 L142.483084,9.26149567 C142.483084,8.5821268 142.665929,8.08804034 143.031618,7.65571469 C143.397307,7.22338905 143.884892,7.03810663 144.372477,7.03810663 C144.981959,7.03810663 145.469544,7.22338905 145.774285,7.59395389 C146.079026,7.96451873 146.261871,8.45860518 146.261871,9.07621325 L146.261871,9.57029971 L143.336359,9.57029971 C143.336359,10.0026254 143.458255,10.3731902 143.641099,10.6202334 C143.823944,10.8672766 144.128685,11.0525591 144.555322,11.0525591 C144.860063,11.0525591 145.103855,10.9907983 145.2867,10.9290375 C145.469544,10.8672766 145.652389,10.743755 145.835233,10.6202334 L146.139974,11.1760807 C145.95713,11.3613631 145.774285,11.4848847 145.530493,11.6084063 C145.2867,11.6701671 144.981959,11.7319279 144.555322,11.7319279 Z M144.433426,7.65571469 C144.128685,7.65571469 143.94584,7.77923631 143.702048,8.02627954 C143.519203,8.27332276 143.397307,8.5821268 143.336359,8.89093083 L145.408596,8.89093083 L145.408596,8.76740922 C145.408596,8.45860518 145.347648,8.14980115 145.164804,7.96451873 C145.042907,7.7174755 144.799115,7.65571469 144.433426,7.65571469 Z M150.101605,10.9907983 L153.514702,10.9907983 L153.514702,11.6701671 L149.187382,11.6701671 L149.187382,11.0525591 L152.417635,6.17345533 L149.248331,6.17345533 L149.248331,5.49408645 L153.392806,5.49408645 L153.392806,6.11169452 L150.101605,10.9907983 Z M156.25737,11.7319279 C155.647888,11.7319279 155.160303,11.5466455 154.733665,11.1143199 C154.367976,10.6819942 154.185132,10.126147 154.185132,9.44677809 L154.185132,9.26149567 C154.185132,8.5821268 154.367976,8.08804034 154.733665,7.65571469 C155.099354,7.22338905 155.58694,7.03810663 156.074525,7.03810663 C156.684007,7.03810663 157.171592,7.22338905 157.476333,7.59395389 C157.781074,7.96451873 157.963918,8.45860518 157.963918,9.07621325 L157.963918,9.57029971 L155.038406,9.57029971 C155.038406,10.0026254 155.160303,10.3731902 155.343147,10.6202334 C155.525992,10.8672766 155.830732,11.0525591 156.25737,11.0525591 C156.56211,11.0525591 156.805903,10.9907983 156.988748,10.9290375 C157.171592,10.8672766 157.354436,10.743755 157.537281,10.6202334 L157.842022,11.1760807 C157.659177,11.3613631 157.476333,11.4848847 157.23254,11.6084063 C156.927799,11.6701671 156.623059,11.7319279 156.25737,11.7319279 Z M156.135473,7.65571469 C155.830732,7.65571469 155.647888,7.77923631 155.404095,8.02627954 C155.221251,8.27332276 155.099354,8.5821268 155.038406,8.89093083 L157.110644,8.89093083 L157.110644,8.76740922 C157.110644,8.45860518 157.049696,8.14980115 156.866851,7.96451873 C156.684007,7.7174755 156.440214,7.65571469 156.135473,7.65571469 Z M161.011326,7.77923631 L160.584689,7.77923631 C160.340897,7.77923631 160.158052,7.84099711 160.036156,7.96451873 C159.914259,8.08804034 159.792363,8.21156196 159.670467,8.39684438 L159.670467,11.6701671 L158.878141,11.6701671 L158.878141,7.09986743 L159.609519,7.09986743 L159.670467,7.77923631 C159.792363,7.53219308 159.975208,7.34691066 160.158052,7.22338905 C160.340897,7.09986743 160.584689,7.03810663 160.828482,7.03810663 C160.88943,7.03810663 160.950378,7.03810663 161.011326,7.03810663 C161.072275,7.03810663 161.133223,7.03810663 161.133223,7.09986743 L161.011326,7.77923631 Z M161.498912,9.32325648 C161.498912,8.6438876 161.681756,8.08804034 162.047445,7.65571469 C162.413134,7.22338905 162.900719,6.97634582 163.510201,6.97634582 C164.119683,6.97634582 164.607268,7.22338905 164.972957,7.65571469 C165.338646,8.08804034 165.521491,8.6438876 165.521491,9.32325648 L165.521491,9.44677809 C165.521491,10.126147 165.338646,10.6819942 164.972957,11.1143199 C164.607268,11.5466455 164.119683,11.7936888 163.510201,11.7936888 C162.900719,11.7936888 162.413134,11.5466455 162.047445,11.1143199 C161.681756,10.6819942 161.498912,10.126147 161.498912,9.44677809 L161.498912,9.32325648 Z M162.352186,9.38501729 C162.352186,9.87910374 162.474082,10.2496686 162.656927,10.5584726 C162.839771,10.8672766 163.144512,11.0525591 163.571149,11.0525591 C163.936838,11.0525591 164.241579,10.8672766 164.485372,10.5584726 C164.729164,10.2496686 164.790113,9.81734293 164.790113,9.38501729 L164.790113,9.32325648 C164.790113,8.82917002 164.668216,8.45860518 164.485372,8.14980115 C164.302527,7.84099711 163.997786,7.65571469 163.571149,7.65571469 C163.20546,7.65571469 162.900719,7.84099711 162.656927,8.14980115 C162.474082,8.45860518 162.352186,8.89093083 162.352186,9.32325648 L162.352186,9.38501729 Z M168.812691,11.6084063 L168.812691,5.43232565 L170.763033,5.43232565 C171.372514,5.43232565 171.921048,5.55584726 172.225789,5.8646513 C172.591478,6.11169452 172.774322,6.54402017 172.774322,7.09986743 C172.774322,7.34691066 172.713374,7.59395389 172.530529,7.84099711 C172.347685,8.02627954 172.103892,8.21156196 171.8601,8.33508357 C172.225789,8.39684438 172.530529,8.5821268 172.713374,8.89093083 C172.896218,9.19973487 173.018115,9.5085389 173.018115,9.87910374 C173.018115,10.434951 172.83527,10.8672766 172.469581,11.1760807 C172.103892,11.4848847 171.616307,11.6084063 171.006825,11.6084063 L168.812691,11.6084063 Z M169.665966,8.08804034 L171.006825,8.08804034 C171.311566,8.08804034 171.555359,8.02627954 171.738203,7.84099711 C171.921048,7.65571469 172.042944,7.40867147 172.042944,7.09986743 C172.042944,6.7910634 171.921048,6.54402017 171.738203,6.35873775 C171.555359,6.17345533 171.250618,6.11169452 170.823981,6.11169452 L169.665966,6.11169452 L169.665966,8.08804034 L169.665966,8.08804034 Z M169.665966,8.76740922 L169.665966,10.9907983 L171.067774,10.9907983 C171.433463,10.9907983 171.738203,10.8672766 171.921048,10.6819942 C172.103892,10.4967118 172.225789,10.2496686 172.225789,9.87910374 C172.225789,9.5085389 172.164841,9.26149567 171.981996,9.01445244 C171.799152,8.82917002 171.555359,8.70564841 171.18967,8.70564841 L169.665966,8.70564841 L169.665966,8.76740922 Z M176.248368,7.77923631 L175.82173,7.77923631 C175.577938,7.77923631 175.395093,7.84099711 175.273197,7.96451873 C175.151301,8.08804034 175.029404,8.21156196 174.907508,8.39684438 L174.907508,11.6701671 L174.115182,11.6701671 L174.115182,7.09986743 L174.84656,7.09986743 L174.907508,7.77923631 C175.029404,7.53219308 175.212249,7.34691066 175.395093,7.22338905 C175.577938,7.09986743 175.82173,7.03810663 176.065523,7.03810663 C176.126471,7.03810663 176.187419,7.03810663 176.248368,7.03810663 C176.309316,7.03810663 176.370264,7.03810663 176.370264,7.09986743 L176.248368,7.77923631 Z M177.954916,5.8646513 L177.16259,5.8646513 L177.16259,5 L177.954916,5 L177.954916,5.8646513 Z M177.954916,11.6084063 L177.16259,11.6084063 L177.16259,7.03810663 L177.954916,7.03810663 L177.954916,11.6084063 Z M179.051983,9.44677809 C179.051983,8.70564841 179.234828,8.14980115 179.539568,7.65571469 C179.844309,7.22338905 180.270946,6.97634582 180.81948,6.97634582 C181.063273,6.97634582 181.307065,7.03810663 181.550858,7.09986743 C181.733702,7.22338905 181.916547,7.34691066 182.099391,7.53219308 L182.099391,5 L182.891717,5 L182.891717,11.6084063 L182.221288,11.6084063 L182.099391,11.0525591 C181.977495,11.2378415 181.794651,11.4231239 181.550858,11.5466455 C181.307065,11.6701671 181.063273,11.7319279 180.81948,11.7319279 C180.270946,11.7319279 179.844309,11.5466455 179.539568,11.1143199 C179.234828,10.6819942 179.051983,10.1879078 179.051983,9.5085389 L179.051983,9.44677809 L179.051983,9.44677809 Z M179.844309,9.5085389 C179.844309,9.94086455 179.966206,10.3114294 180.14905,10.6202334 C180.331895,10.8672766 180.636635,11.0525591 181.002324,11.0525591 C181.246117,11.0525591 181.428962,10.9907983 181.611806,10.8672766 C181.794651,10.743755 181.916547,10.6202334 182.038443,10.3731902 L182.038443,8.21156196 C181.916547,8.02627954 181.794651,7.90275792 181.611806,7.77923631 C181.428962,7.65571469 181.246117,7.59395389 181.002324,7.59395389 C180.636635,7.59395389 180.331895,7.77923631 180.14905,8.08804034 C179.966206,8.39684438 179.844309,8.82917002 179.844309,9.38501729 L179.844309,9.5085389 Z M183.866888,9.44677809 C183.866888,8.70564841 184.049733,8.14980115 184.354473,7.65571469 C184.659214,7.22338905 185.085851,6.97634582 185.695333,6.97634582 C186.000074,6.97634582 186.243867,7.03810663 186.426711,7.16162824 C186.609556,7.28514985 186.853348,7.47043227 186.975245,7.65571469 L187.097141,7.03810663 L187.767571,7.03810663 L187.767571,11.6084063 C187.767571,12.1642536 187.584726,12.65834 187.279985,12.9671441 C186.975245,13.2759481 186.487659,13.4612305 185.817229,13.4612305 C185.573437,13.4612305 185.390592,13.4612305 185.085851,13.3994697 C184.842059,13.3377089 184.598266,13.2759481 184.415422,13.1524265 L184.598266,12.5348184 C184.720162,12.5965792 184.903007,12.65834 185.1468,12.7201009 C185.329644,12.7818617 185.573437,12.7818617 185.756281,12.7818617 C186.182918,12.7818617 186.426711,12.7201009 186.609556,12.5348184 C186.7924,12.349536 186.853348,12.040732 186.853348,11.6701671 L186.853348,11.1760807 C186.731452,11.3613631 186.548607,11.4848847 186.304815,11.6084063 C186.12197,11.7319279 185.878178,11.7319279 185.573437,11.7319279 C185.024903,11.7319279 184.598266,11.5466455 184.293525,11.1143199 C183.988784,10.6819942 183.80594,10.1879078 183.80594,9.5085389 L183.80594,9.44677809 L183.866888,9.44677809 Z M184.720162,9.5085389 C184.720162,9.94086455 184.842059,10.3114294 185.024903,10.6202334 C185.207748,10.9290375 185.512489,11.0525591 185.878178,11.0525591 C186.12197,11.0525591 186.304815,10.9907983 186.487659,10.8672766 C186.670504,10.743755 186.7924,10.6202334 186.914296,10.3731902 L186.914296,8.27332276 C186.7924,8.08804034 186.670504,7.90275792 186.487659,7.84099711 C186.304815,7.7174755 186.12197,7.65571469 185.878178,7.65571469 C185.512489,7.65571469 185.207748,7.84099711 185.024903,8.14980115 C184.842059,8.45860518 184.720162,8.89093083 184.720162,9.44677809 L184.720162,9.5085389 Z M190.814979,11.7319279 C190.205497,11.7319279 189.717912,11.5466455 189.291275,11.1143199 C188.925586,10.6819942 188.742741,10.126147 188.742741,9.44677809 L188.742741,9.26149567 C188.742741,8.5821268 188.925586,8.08804034 189.291275,7.65571469 C189.656964,7.22338905 190.144549,7.03810663 190.632134,7.03810663 C191.241616,7.03810663 191.729201,7.22338905 192.033942,7.59395389 C192.338683,7.96451873 192.521527,8.45860518 192.521527,9.07621325 L192.521527,9.57029971 L189.596016,9.57029971 C189.596016,10.0026254 189.717912,10.3731902 189.900756,10.6202334 C190.083601,10.8672766 190.388342,11.0525591 190.814979,11.0525591 C191.11972,11.0525591 191.363512,10.9907983 191.546357,10.9290375 C191.729201,10.8672766 191.912046,10.743755 192.09489,10.6202334 L192.399631,11.1760807 C192.216787,11.3613631 192.033942,11.4848847 191.79015,11.6084063 C191.485409,11.6701671 191.180668,11.7319279 190.814979,11.7319279 Z M190.632134,7.65571469 C190.327394,7.65571469 190.144549,7.77923631 189.900756,8.02627954 C189.717912,8.27332276 189.596016,8.5821268 189.535067,8.89093083 L191.607305,8.89093083 L191.607305,8.76740922 C191.607305,8.45860518 191.546357,8.14980115 191.363512,7.96451873 C191.241616,7.7174755 190.997823,7.65571469 190.632134,7.65571469 Z" id="One-Zero-Bridge" fill="#004385"></path>
                            <path d="M99.4872329,42.1320662 C99.6698159,42.1754461 99.7915379,42.2911257 99.7915379,42.4284952 L99.7915379,44.7854666 L115.31109,44.7854666 C115.770929,44.7854666 116.142857,45.0602055 116.142857,45.4072443 L116.142857,47.7063759 C116.142857,48.0461847 115.770929,48.3281536 115.31109,48.3281536 L99.7915379,48.3281536 L99.7915379,50.685125 C99.7915379,50.8152645 99.6698159,50.9309441 99.4872329,50.9815539 C99.3110567,51.0249339 99.1259694,50.9910849 98.9732957,50.8875643 L94.3613851,47.1930478 C94.1391492,47.0680461 94,46.8216747 94,46.5531951 C94,46.2847155 94.1391492,46.0383441 94.3613851,45.9133424 L98.959771,42.2260559 C99.1160462,42.1185768 99.3068016,42.0845857 99.4872329,42.1320662 Z M123.512767,31.0209551 C123.693198,30.9734746 123.883954,31.0074657 124.040229,31.1149448 L128.638615,34.8022313 C128.860851,34.927233 129,35.1736044 129,35.442084 C129,35.7105635 128.860851,35.956935 128.638615,36.0819367 L124.026704,39.7764532 C123.874031,39.8799738 123.688943,39.9138228 123.512767,39.8704428 C123.330184,39.819833 123.208462,39.7041534 123.208462,39.5740139 L123.208462,37.2170425 L107.68891,37.2170425 C107.229071,37.2170425 106.857143,36.9350735 106.857143,36.5952648 L106.857143,34.2961332 C106.857143,33.9490944 107.229071,33.6743554 107.68891,33.6743554 L123.208462,33.6743554 L123.208462,31.317384 C123.208462,31.1800145 123.330184,31.064335 123.512767,31.0209551 Z" id="2-Sided-Arrow" fill="#000000"></path>
                            <g id="MT5">
                                <use fill="#004385" fill-rule="evenodd" xlink:href="#path-1"></use>
                                <path stroke="#004385" stroke-width="0.5" d="M77.2063712,23.25 C77.9979955,23.25 78.7066004,23.9170377 78.7503848,24.7052937 L78.75,50.3703896 C78.75,50.421645 78.75,50.421645 78.75,50.421645 C78.75,51.2128594 78.0863546,51.8630736 77.2576177,51.8630736 L64.8214638,51.8630736 L65.6659063,57.4373593 L67.9819945,57.4373593 C68.2026393,57.4373593 68.3981994,57.6329533 68.3981994,57.8536797 C68.3981994,58.074406 68.2026393,58.27 67.9819945,58.27 L53.0180055,58.27 C52.7973607,58.27 52.6018006,58.074406 52.6018006,57.8536797 C52.6018006,57.6329533 52.7973607,57.4373593 53.0180055,57.4373593 L55.3340937,57.4373593 L56.1785362,51.8630736 L43.7423823,51.8630736 C43.6911357,51.8630736 43.6911357,51.8630736 43.6911357,51.8630736 C42.9001022,51.8630736 42.25,51.1993127 42.25,50.3703896 L42.25,24.6914286 C42.25,23.8679586 42.8941431,23.25 43.7423823,23.25 L77.2063712,23.25 Z M56.1095524,57.4373593 L56.953995,51.8630736 L63.8922654,51.8630736 L64.7367079,57.4373593 L56.1095524,57.4373593 Z M77.8663435,51.0304329 L43.08241,51.0304329 L43.08241,45.4048918 L77.8663435,45.4048918 L77.8663435,51.0304329 Z M77.8663435,44.6235065 L43.08241,44.6235065 L43.08241,24.0313853 L77.8663435,24.0313853 L77.8663435,44.6235065 Z M60.4487535,48.9415152 C60.0231224,48.9415152 59.6738227,48.592155 59.6738227,48.1664069 C59.6738227,47.7406589 60.0231224,47.3912987 60.4487535,47.3912987 C60.8743845,47.3912987 61.2236842,47.7406589 61.2236842,48.1664069 C61.2236842,48.592155 60.8743845,48.9415152 60.4487535,48.9415152 Z M56.0447322,30.2079221 L56.1073596,30.0501665 L55.875,30.2079221 L56.0447322,30.2079221 Z M57.1111496,30.2079221 L57.3611496,30.2079221 L57.1111496,29.9579221 L57.1111496,30.2079221 Z M57.1111496,38.3188312 L57.1111496,38.5688312 L57.3611496,38.3188312 L57.1111496,38.3188312 Z M56.4324792,38.3188312 L56.1824792,38.3188312 L56.4324792,38.5688312 L56.4324792,38.3188312 Z M53.2971436,38.3700866 L53.234288,38.5272528 L53.4664127,38.3700866 L53.2971436,38.3700866 Z M52.8665156,38.3700866 L52.6977147,38.3700866 L52.9296,38.5266564 L52.8665156,38.3700866 Z M49.7316562,38.3700866 L49.7316482,38.6200866 L49.9816482,38.3700866 L49.7316562,38.3700866 Z M49.0529778,38.3700866 L48.8029778,38.3700866 L49.0529778,38.6200866 L49.0529778,38.3700866 Z M49.0529778,30.2591775 L49.0529778,30.0091775 L48.8029778,30.2591775 L49.0529778,30.2591775 Z M50.1894477,30.2591775 L50.590374,30.2591775 L50.590374,29.9579221 L50.340374,29.9579221 L50.1074318,30.0486853 L50.1894477,30.2591775 Z M50.1894477,30.2591775 L52.8855431,37.178658 L53.2774191,37.178658 L56.0447322,30.2079221 L57.1111496,30.2079221 L57.1111496,38.3188312 L56.4324792,38.3188312 L56.4324792,35.185974 L56.5348643,31.7079546 L56.542432,31.4506061 L56.0644566,31.4506061 L53.2971436,38.3700866 L52.8665156,38.3700866 L50.0992026,31.5018615 L49.6216954,31.5018615 L49.7317562,35.2445779 L49.7316562,38.3700866 L49.0529778,38.3700866 L49.0529778,30.2591775 L50.1894477,30.2591775 Z M56.2849723,31.7211011 L56.2849723,31.9506061 L56.2337258,31.9506061 L56.2337258,31.7006061 L56.2849723,31.7211011 Z M49.8791551,31.7725095 L49.9304017,31.7518615 L49.9304017,32.0018615 L49.8791551,32.0018615 L49.8791551,31.7725095 Z M64.9006233,30.6305195 L64.9006233,30.2079221 L58.6873269,30.2079221 L58.6873269,30.6305195 L61.4546399,30.6305195 L61.4546399,38.3188312 L62.1333102,38.3188312 L62.1333102,30.6305195 L64.9006233,30.6305195 Z M66.6574578,34.4392797 L67.0958351,34.4650711 C67.2114241,34.2422516 67.367444,34.0562654 67.5629335,33.9096229 C67.8130318,33.7220167 68.1501131,33.6545887 68.6866343,33.6545887 C69.250933,33.6545887 69.7227029,33.8590578 70.0061271,34.2571131 C70.309531,34.6212608 70.4740305,35.1447589 70.4740305,35.7497835 C70.4740305,36.3872714 70.3193911,36.907512 70.0175034,37.330228 C69.7148622,37.7539991 69.2833052,37.9474892 68.6866343,37.9474892 C68.2201827,37.9474892 67.7948098,37.7741591 67.4849116,37.4642073 C67.2229638,37.2022141 67.0624546,36.8616359 67.0158947,36.4610823 L66.4319601,36.4610823 C66.470223,37.0398308 66.6794983,37.4807354 67.0491958,37.8098176 C67.5162096,38.1834933 68.0758923,38.3700866 68.7378809,38.3700866 C69.5422796,38.3700866 70.1403324,38.1400264 70.5429931,37.6929624 C70.986566,37.1507238 71.2039474,36.5327962 71.2039474,35.7497835 C71.2039474,34.9083706 71.0044787,34.2629191 70.592512,33.804469 C70.2431721,33.3677185 69.6595901,33.1294805 68.942867,33.1294805 C68.6717604,33.1294805 68.4532836,33.1731834 68.2670305,33.2653604 C68.0594115,33.3484224 67.9322073,33.4247581 67.7092271,33.5920222 L67.2363842,33.9467158 L67.6465709,30.7330303 L70.9477147,30.7330303 L70.9477147,30.2079221 L67.1173083,30.2079221 L66.6574578,34.4392797 Z"></path>
                            </g>
                            <path d="M35.2552011,23 L1.74479889,23 C0.769764216,23 0,23.7272727 0,24.7142857 L0,50.7402597 C0,51.7272727 0.769764216,52.5064935 1.69348128,52.5064935 C1.69348128,52.5064935 1.69348128,52.5064935 1.74479889,52.5064935 L13.8557559,52.5064935 L13.0859917,57.6493506 L10.9819695,57.6493506 C10.6227462,57.6493506 10.3148405,57.961039 10.3148405,58.3246753 C10.3148405,58.6883117 10.6227462,59 10.9819695,59 L25.9667129,59 C26.3259362,59 26.6338419,58.6883117 26.6338419,58.3246753 C26.6338419,57.961039 26.3259362,57.6493506 25.9667129,57.6493506 L23.8626907,57.6493506 L23.0929265,52.5064935 L35.2552011,52.5064935 C36.2302358,52.5064935 37,51.7272727 37,50.7922078 C37,50.7922078 37,50.7922078 37,50.7402597 L37,24.7142857 C36.9486824,23.7792208 36.1789182,23 35.2552011,23 Z M14.4202497,57.6493506 L15.1900139,52.5064935 L21.7073509,52.5064935 L22.4771151,57.6493506 L14.4202497,57.6493506 Z M35.665742,51.1558442 L1.33425798,51.1558442 L1.33425798,45.961039 L35.665742,45.961039 L35.665742,51.1558442 Z M35.665742,44.6623377 L1.33425798,44.6623377 L1.33425798,24.2987013 L35.665742,24.2987013 L35.665742,44.6623377 Z M8.77531207,29.961039 L11.5464632,37.025974 L11.5977809,37.025974 L14.3176144,29.961039 L15.8058252,29.961039 L15.8058252,38.6883117 L14.6255201,38.6883117 L14.6255201,35.2597403 L14.7281553,31.7272727 L14.6768377,31.7272727 L11.9056865,38.7402597 L11.1359223,38.7402597 L8.36477115,31.7792208 L8.31345354,31.7792208 L8.41608877,35.3116883 L8.41608877,38.7402597 L7.23578363,38.7402597 L7.23578363,30.012987 L8.77531207,30.012987 L8.77531207,29.961039 Z M23.554785,30.8961039 L20.7836338,30.8961039 L20.7836338,38.6883117 L19.6033287,38.6883117 L19.6033287,30.8961039 L16.8321775,30.8961039 L16.8321775,29.961039 L23.554785,29.961039 L23.554785,30.8961039 L23.554785,30.8961039 Z M29.148405,35.7272727 L30.3287101,35.7272727 L30.3287101,36.6623377 L29.148405,36.6623377 L29.148405,38.6883117 L27.9680999,38.6883117 L27.9680999,36.6623377 L24.1192788,36.6623377 L24.1192788,35.987013 L27.9167822,29.961039 L29.148405,29.961039 L29.148405,35.7272727 Z M25.3509015,35.7272727 L27.9680999,35.7272727 L27.9680999,31.6233766 L27.9167822,31.6233766 L27.814147,31.9350649 L25.3509015,35.7272727 Z M18.4743412,49.5454545 C19.038835,49.5454545 19.5006935,49.0779221 19.5006935,48.5064935 C19.5006935,47.9350649 19.038835,47.4675325 18.4743412,47.4675325 C17.9098474,47.4675325 17.4479889,47.9350649 17.4479889,48.5064935 C17.4479889,49.0779221 17.9098474,49.5454545 18.4743412,49.5454545 Z" id="MT4" fill="#004385"></path>
                        </g>
                    </g>
                </g>
            </g>
        </g>
    </g>
</svg>