<svg id="Layer_1" data-name="Layer 1" xmlns="http://www.w3.org/2000/svg" viewBox="0 0 375.63 66.54"><defs><style>.cls-1{fill:#004385;fill-rule:evenodd;}</style></defs><title>CFX_text</title><path class="cls-1" d="M31.71,30.72a18.45,18.45,0,0,1-1.38,1.54A14,14,0,1,1,10.51,12.44a14,14,0,0,1,18.77-1V3.91c-.27-.11-.61-.27-.88-.39a19.88,19.88,0,0,0-8-1.6,19.43,19.43,0,0,0-7.93,1.6A19.25,19.25,0,0,0,6,7.87a20.88,20.88,0,0,0-4.4,6.5,20.88,20.88,0,0,0-1.6,8A20.41,20.41,0,0,0,20.42,42.78a20.86,20.86,0,0,0,8-1.6,23.66,23.66,0,0,0,3.3-1.76v-8.7ZM66.94,1.93H60.56V19.38H44.26V1.93H37.88V42.78h6.39V25.16h16.3V42.78h6.39V1.93Zm34.13,40.85h7L90.34.06,72.56,42.78h7L83.08,34H97.61l3.47,8.75ZM85.39,28.3l5-12.44,5,12.44Zm66.78,14.48V.06L133,28.68,113.74.06V42.78h6.39V21.09l12.83,19,12.77-19V42.78ZM160.7,1.93V42.78h6.39V29h5.73c5.4,0,8.53-2.2,10.18-4.07a13.59,13.59,0,0,0,3.3-9.47A13.69,13.69,0,0,0,183,5.95c-1.65-1.82-4.79-4-10.18-4H160.7ZM178.76,21q-2,2.15-5.95,2.15h-5.73V7.65h5.73a7.73,7.73,0,0,1,5.95,2.2,8.4,8.4,0,0,1,1.82,5.56A8.45,8.45,0,0,1,178.76,21ZM198,42.78V1.93h-6.39V42.78Zm27.58,0a20.86,20.86,0,0,0,8-1.6,21.51,21.51,0,0,0,6.5-4.4,20.09,20.09,0,0,0,4.35-6.5,20.39,20.39,0,0,0,1.6-7.93,20.86,20.86,0,0,0-1.6-8A21.34,21.34,0,0,0,240,7.87a21.34,21.34,0,0,0-6.5-4.35,20.86,20.86,0,0,0-8-1.6,20.39,20.39,0,0,0-7.93,1.6,20.09,20.09,0,0,0-6.5,4.35,21.51,21.51,0,0,0-4.4,6.5,20.86,20.86,0,0,0-1.6,8,20.41,20.41,0,0,0,20.43,20.43Zm0-34.46a14.1,14.1,0,1,1-9.91,4.13,14,14,0,0,1,9.91-4.13Zm59.73,36.34V1.93h-6.44V28.13L253.19,0V42.78h6.39V16.52l25.71,28.13Zm31.44-37h18.17V1.93H310.34V42.78h6.39V24.33h14.92V18.55H316.72V7.65Zm58.91,35.12L360.71,20.92l13-19h-8l-9,13.1-8.92-13.1h-8l12.94,19L337.81,42.78h8l10.85-16,10.9,16Z"/><path class="cls-1" d="M21.52,52.78H19.27l-3.46,8.68L13.47,56l-1.15-2.68L11.25,56,9.07,61.45,5.36,52.78H3.09l6,13.75,3.26-7.93,3.48,7.93,5.66-13.75Zm15.24,0H34.7V58.4H29.45V52.78H27.4V65.94h2.06V60.26H34.7v5.68h2.06V52.78Zm8.57,1.84h5.84V52.78H43.28V65.94h7.89V64.08H45.34V60h4.81V58.14H45.34V54.62ZM63,61.19a3.68,3.68,0,0,0,1.53-1,4.88,4.88,0,0,0,0-6.09,4.19,4.19,0,0,0-3.28-1.31h-3.9V65.94h2.06V61.49h1.51l3.32,4.45h2.32L63,61.19Zm-3.6-1.54v-5h1.84a2.42,2.42,0,0,1,1.9.69,3.06,3.06,0,0,1,0,3.6,2.42,2.42,0,0,1-1.9.71Zm14.59-5h5.84V52.78H72V65.94h7.89V64.08H74V60h4.81V58.14H74V54.62Zm25.82-1.84H90.52v1.84h3.62V65.94h2.08V54.62h3.62V52.78Zm15,0H112.8V58.4h-5.25V52.78h-2.06V65.94h2.06V60.26h5.25v5.68h2.06V52.78Zm8.57,1.84h5.84V52.78h-7.89V65.94h7.89V64.08h-5.84V60h4.81V58.14h-4.81V54.62Zm27,7.43a5.86,5.86,0,0,1-.44.5,4.52,4.52,0,1,1-6.39-6.39,4.52,4.52,0,0,1,6-.32V53.42l-.28-.12a6.41,6.41,0,0,0-2.57-.51,6.27,6.27,0,0,0-2.55.51,6.2,6.2,0,0,0-2.09,1.4,6.51,6.51,0,0,0-1.93,4.67,6.58,6.58,0,0,0,6.58,6.58,6.72,6.72,0,0,0,2.57-.51,7.54,7.54,0,0,0,1.06-.57v-2.8Zm13.66,2h-5.5V52.78h-2.06V65.94h7.56V64.08Zm7.33,1.86V52.78h-2.06V65.94ZM180,54.62h5.84V52.78h-7.89V65.94h7.89V64.08H180V60h4.81V58.14H180V54.62Zm22.37,11.92V52.78H200.3v8.44L192,52.16V65.94h2.06V57.48l8.28,9.07Zm15-13.77H208v1.84h3.62V65.94h2.08V54.62h3.62V52.78Zm13,13.16V52.78h-2.06V65.94Zm13.36-4.49a3.94,3.94,0,0,0-1.15-1.72c-.28-.27-.67-.64-1-1h0l-2.2-2.11c-.55-.53-.57-.94-.5-1.19a1.21,1.21,0,0,1,1-.76,1.75,1.75,0,0,1,1.74.74l1.61-1.3a4.44,4.44,0,0,0-1.79-1.33,3.51,3.51,0,0,0-2-.14,3.43,3.43,0,0,0-1.58.75,3,3,0,0,0-1,1.47,2.81,2.81,0,0,0,0,1.67,3.75,3.75,0,0,0,1,1.58l1.61,1.53c.07.07,1,1,1.61,1.56a1.54,1.54,0,0,1,.6,1.49,1.74,1.74,0,0,1-1.38,1.1,2,2,0,0,1-1.21-.11,2.93,2.93,0,0,1-1.29-1L236.29,64a5.21,5.21,0,0,0,2.18,1.68,4.27,4.27,0,0,0,1.56.28,4.07,4.07,0,0,0,.8-.07,3.81,3.81,0,0,0,3-2.57,3.12,3.12,0,0,0,0-1.84Zm21.36,4.49-5.8-6.83,4.83-6.33h-2.59l-4.22,5.43V52.78h-2.06V65.94h2.06V60l5.22,6Zm7.56,0V52.78h-2.06V65.94Zm16.84.6V52.78h-2.08v8.44l-8.27-9.06V65.94h2.06V57.48l8.28,9.07Zm16.68-7.43h-4.54V61h2.48V63.4h0a3.67,3.67,0,0,1-.73.28l0,0a.11.11,0,0,0-.07,0,.06.06,0,0,0-.05,0h-.05a.11.11,0,0,1-.07,0l0,0-.39.07h-.11s0,0,0,0h-.27a.06.06,0,0,1-.05,0h-.12a4.53,4.53,0,0,1-4.35-3.3,4.73,4.73,0,0,1-.16-1,1.1,1.1,0,0,1,0-.23,1.18,1.18,0,0,1,0-.25v-.19c0-.18.05-.35.09-.53,0,0,0,0,0,0a4.24,4.24,0,0,1,.55-1.35.13.13,0,0,1,0-.07l.11-.16,0,0a3.71,3.71,0,0,1,.23-.32,0,0,0,0,0,0,0,2.89,2.89,0,0,1,.23-.23,3.81,3.81,0,0,1,.78-.64l.09-.05a4.4,4.4,0,0,1,2.32-.64h.28l.05,0h.16a.11.11,0,0,0,.07,0h0l.07,0h0l.23,0,0,0s.05,0,.07,0h.05a.07.07,0,0,0,.05,0,5.17,5.17,0,0,1,.82.3h0a4.18,4.18,0,0,1,.89.57V53.42h0l-.11-.05a0,0,0,0,1,0,0,6.46,6.46,0,0,0-2.22-.55h0a.49.49,0,0,0-.16,0h-.34a6.27,6.27,0,0,0-2.55.51,6.2,6.2,0,0,0-2.09,1.4A6.72,6.72,0,0,0,296,56.79a7,7,0,0,0-.52,2.24v.34c0,.21,0,.44,0,.66a6.33,6.33,0,0,0,.48,1.9A6.53,6.53,0,0,0,297.46,64a5.82,5.82,0,0,0,1.45,1.1,3.59,3.59,0,0,0,.64.32l.27.11.2.07h0a6.29,6.29,0,0,0,2.08.34h.34a6.65,6.65,0,0,0,2.36-.57l0,0,.12-.05h0l.09-.05h0l0,0a.14.14,0,0,0,.09,0l.05,0,.09,0,.05,0,.05,0,.07-.05a.09.09,0,0,0,.07,0s0,0,.05,0l.07,0,0,0h0l.46-.32V61h0V59.11Z"/></svg>