<?xml version="1.0" encoding="utf-8"?>
<!-- Generator: Adobe Illustrator 21.0.0, SVG Export Plug-In . SVG Version: 6.00 Build 0)  -->
<svg version="1.1" id="Layer_1" xmlns="http://www.w3.org/2000/svg" xmlns:xlink="http://www.w3.org/1999/xlink" x="0px" y="0px"
	 viewBox="0 0 119.5 151.5" style="enable-background:new 0 0 119.5 151.5;" xml:space="preserve">
<style type="text/css">
	.st0{fill:#FFFFFF;}
</style>
<title>CFX_symbol</title>
<g>
	<path class="st0" d="M0,70.9c22.3,6.9,43.2,17.6,61.9,31.6c0.9,0.6,1.8,1.4,2.7,2.1c-0.2-0.1-0.8-0.4-2.2-1.1
		c-3-1.5-9.1-4.6-14.5-7.3S37.8,91.4,32,89.1c-1.7-0.7-3.5-1.3-5.3-2c-1.6,5.8-3.2,13.6-2.6,19.2c1.3-2.6,6.5-7.2,10.9-8.3
		c-6,8.9-8.8,21.7,2.9,34c-0.2-0.5-1.6-12.8,4.4-18.5c-0.4,14,10.7,29.8,23.3,30.4c-3.6-4.4-5.5-9.9-5.3-15.6
		c8.5,12.6,28.8,20.9,28.9,20.8S76.5,133,75.7,118.9c7.2,13.8,12.9,13.1,23.4,29.2c1.7-5.7,0.4-9.2-1.3-15.1
		c9.2,6,14,11.5,19.5,18.5C111.4,124.2,43.8,72,0,70.9z"/>
	<path class="st0" d="M92.2,8.9c-1.2,1.7-2.5,3.2-3.9,4.7c-1.6,1.5-3.3,2.7-5.2,3.7c-1.1,0.7-2.3,1.1-3.6,1c-1.5-0.1-2.9-0.7-4-1.7
		c-1.6-1.5-2.9-3.3-3.7-5.3c-1.1-2.4-2-4.8-2.8-7.2c-0.7-2-1-3.1-1.2-3.6L67.5,0l-0.4,1.8C66.7,3.5,66,7,65.2,10.3
		c-0.6,2.9-1.5,5.8-2.6,8.6c-0.8,2-2,3.8-3.7,5.2c-1.3,1.1-3,1.8-4.7,2.1c-1.7,0.2-3.5-0.2-5-1.1c-2.2-1.3-4.3-2.8-6.2-4.5
		c-1.8-1.7-3.6-3.4-5.2-5.3c-1.5-1.6-2.7-3.1-3.4-3.9l-0.6-0.7c0,0,0,0,0.1,1.8c0.2,2.7,0.2,5.5,0.1,8.2c-0.1,2.2-0.7,4.4-1.6,6.4
		c-0.6,1.4-1.7,2.6-3,3.5c-1.3,0.7-2.7,1-4.1,1c-1.1,0-2.1-0.2-3.1-0.5l-0.6-0.2l3.5,3.2l14,12.6c3.5,3.2,3.5,3.2,4.7,2.9l4.9-0.8
		c1.2-0.2,1.2-0.2,1.5-1.1c0.5-1.6,1.2-3,2-4.5c1-1.7,2.4-3.2,4.1-4.3c1.6-0.8,3.3-1.3,5.1-1.3c1.8-0.1,3.5,0,4.4,0.1
		c0.6,0.1,1.3,0,1.8-0.4l4.2-2l3.8-1.8c1-0.5,1.9-0.9,3.5-1.5l0,0c1.5-0.6,3.7-1.4,5.4-2c1.7-0.6,3.1-0.9,3.7-1
		c0.7-0.1,0.7-0.2,0.8-1.7s0.6-4.7,1.1-7.6s1.1-5.4,1.6-7.3s0.8-3.1,1-3.7l0.2-0.6L92.2,8.9z M45.3,35.1c-1.1,0.8-3,0.1-4.1-1.5
		s-1-3.6,0.1-4.4l0,0c1.1-0.8,3-0.1,4.1,1.5C46.5,32.3,46.4,34.3,45.3,35.1z M70.9,26.2c-1.2,0.3-2.5-0.8-3-2.4s0.1-3.3,1.3-3.6
		c1.2-0.3,2.5,0.8,3,2.4C72.7,24.2,72.1,25.9,70.9,26.2z"/>
	<path class="st0" d="M82.5,15.1c-0.6,0.4-1.3,0.7-2.1,0.8c-0.9,0.1-1.8-0.1-2.7-0.5C77,15,76.5,14.5,76,13.9
		c-0.3-0.4-0.6-0.8-0.8-1.2L75,12.5l0.4-0.5c0.6-0.8,1.3-1.5,2-2.3c0.9-0.9,2-1.8,2.5-2.2s0.6-0.4,0.9,0.2s1.1,2,1.7,3.2
		c0.4,0.9,0.7,1.8,1,2.7l0.2,0.5l-0.2,0.1C83.2,14.6,82.8,14.9,82.5,15.1L82.5,15.1z"/>
	<path class="st0" d="M59,19.2c-0.6,1-1.4,1.9-2.2,2.8C56,22.8,55,23.3,54,23.4c-1.3,0.1-2.7-0.2-3.9-0.7c-1-0.4-1.8-1-2.7-1.6
		l-0.5-0.4l0.2-0.8c0.2-0.8,0.7-2.2,1.4-4.1s1.6-4,2.1-5.1s0.5-1.1,1.4-0.4s2.8,2,4.3,3.3c1.1,0.9,2.2,1.9,3.2,3l0.6,0.6L60,17.5
		C59.7,18.1,59.4,18.6,59,19.2z"/>
	<path class="st0" d="M30.4,26.5c-0.3,0.7-0.8,1.2-1.5,1.6c-0.8,0.5-1.7,0.8-2.6,0.9c-0.8,0-1.5-0.1-2.2-0.5
		c-0.5-0.2-0.9-0.4-1.3-0.6l-0.2-0.1l0.1-0.6c0.2-1,0.4-2,0.7-2.9c0.4-1.2,0.9-2.5,1.2-3.2s0.3-0.6,0.9-0.2s1.9,1.2,3,2
		c0.8,0.6,1.5,1.2,2.2,1.9l0.4,0.4L31,25.4C30.8,25.9,30.6,26.2,30.4,26.5L30.4,26.5z"/>
	<path class="st0" d="M101.1,110c-11.3-8.3-17-11.2-25.4-17.2C72,90,70,85.6,70.5,81c0.5-11,8.6-12,8.6-12c-9.7,6.8-6.6,22.9,3.5,25
		c8.4,1.8,13,0.7,19.4,8.3c1.3,1.7,2.1,4.1,6.2,0.9c-1.4-3.7,1.3-6.8,1.4-10.4l-0.2,0.2l-0.2,0.2c-1.1,1.2-2.2,1.2-3.9,1.3
		c-0.2-0.8-0.6-1.4-1.2-2c-2.2,0.8-6.2-0.6-6.5-2.9c0-0.2-0.1-0.4-0.1-0.6H98c1.6,0.1,2.8,0.2,4,0.2s2.4-0.1,3.5-0.4
		s2.1-0.6,3.1-1.1c0.7-0.3,0.8-0.5,0.6-0.6c-0.5-0.1-1-0.1-1.5-0.1c-0.9-0.1-2.1-0.2-3.3-0.4c-1.2-0.2-2.4-0.5-3.5-1
		c-1-0.5-1.9-1-2.7-1.7l-0.4-0.3c0.4-1,1-1.8,1.8-2.5c1.1-0.9,1.3-0.9,3-0.5c2,0.7,3.9,1.6,5.6,2.8l1-1.4c2.2,1.5,2.7,4.6,2.6,7.2
		c2.4-0.8,6-9.5,4.7-13.3c0.6-0.5,1.2-1.1,1.7-1.8c0.6-0.8,1-1.7,1.4-2.7l-17.6-10l1.1-2.8c-17.8-9.3,0.1-12.2-11.8-25.7
		c-1.4-1.6-19.2,5.9-23.6,8.5C52.9,39.6,54.3,51,53,51.2c-11.6,1.9-19,4.7-20.8,14.1c3.8-1.5,5.9-1.5,10.1-0.7c0,0-0.1,0-0.1,0.1
		c-2.6,1.9-5,4.1-7.1,6.5c-8.8-2.3-22.4-1.6-26.6-1.2c48.1,8.3,88.2,37.9,111.3,64.2C117.6,124,109.1,115.9,101.1,110z M97.5,62.1
		c0.5,0.2,0.3,0.1,0.5,0.2v1c-3,0-6.8,0.7-8.2,2.3C89.9,63,90,61,87,59.8l1.1-1C92.7,61.6,95.6,61.4,97.5,62.1z M75.1,42.9
		c0.9-0.4,2.6-1.3,4.5-2.2l0,0c1.9-0.9,3.9-1.8,5.5-2.3c1.1-0.4,2.2-0.7,3.3-0.9c0.6-0.1,0.6-0.1,0.9,0.5c0.5,0.9,0.9,1.9,1.2,2.9
		c0.2,1.1,0.3,2.2,0.2,3.4c0,0.4-0.1,0.9-0.3,1.3c-0.1,0.2-0.1,0.2-0.6-0.7l-2-3.4c-0.5-0.9-0.5-0.9-1.4-0.8
		c-1.6,0.1-3.2,0.4-4.8,0.7c-2.2,0.5-4.8,1.2-6.1,1.6S74.2,43.3,75.1,42.9z M36.7,61.4c4.5-7.2,27-4.6,26.8-11.2
		c0-1.8-1.8-2.9-2.4-3.8c4.3-0.6,12.2,0.8,14.8,5l0,0l0,0l0,0c-3-1.9-6.4-2.9-10-2.9C72.2,58.9,45.4,55.6,36.7,61.4z"/>
</g>
</svg>
