<svg id="Layer_1" data-name="Layer 1" xmlns="http://www.w3.org/2000/svg" viewBox="0 0 119.54 151.49"><defs><style>.cls-1{fill:#004385;fill-rule:evenodd;}</style></defs><title>CFX_symbol</title><path class="cls-1" d="M0,70.94a204.79,204.79,0,0,1,61.9,31.57,28,28,0,0,1,2.67,2.11c-.21-.11-.85-.39-2.25-1.1-3-1.54-9.11-4.62-14.5-7.26s-10.1-4.85-15.94-7.13c-1.7-.66-3.5-1.33-5.27-2C25,92.89,23.41,100.78,24,106.38c1.34-2.62,6.55-7.21,10.9-8.29-6,8.95-8.84,21.68,2.88,34-.24-.48-1.64-12.75,4.36-18.54-.43,14,10.69,29.82,23.29,30.4a23.33,23.33,0,0,1-5.29-15.61c8.49,12.62,28.79,20.92,28.87,20.81S76.48,133,75.71,118.92c7.23,13.76,12.88,13.14,23.41,29.22,1.66-5.7.42-9.2-1.31-15.15,9.15,6,14,11.49,19.48,18.5C111.37,124.25,43.79,72,0,70.94Z"/><path class="cls-1" d="M79.06,31.88c1.53-.61,3.69-1.42,5.43-2s3.06-.89,3.72-1,.66-.16.85-1.73.57-4.73,1.07-7.58,1.12-5.42,1.59-7.31.82-3.11,1-3.72l.17-.61-.74,1a35.54,35.54,0,0,1-3.93,4.66A25.91,25.91,0,0,1,83,17.31a6,6,0,0,1-3.6,1,7.17,7.17,0,0,1-4-1.7,15.6,15.6,0,0,1-3.71-5.26,71.69,71.69,0,0,1-2.81-7.22c-.68-2-1-3.07-1.21-3.61L67.48,0l-.38,1.75C66.72,3.5,66,7,65.17,10.26a56.37,56.37,0,0,1-2.59,8.63,13.15,13.15,0,0,1-3.66,5.17,9.49,9.49,0,0,1-4.72,2.09,8,8,0,0,1-5-1.12A35,35,0,0,1,43,20.49a66.69,66.69,0,0,1-5.2-5.27c-1.49-1.65-2.74-3.14-3.37-3.88l-.63-.74s0,0,.1,1.8A69.8,69.8,0,0,1,34,20.59,16.7,16.7,0,0,1,32.38,27a7.88,7.88,0,0,1-3,3.47,8.28,8.28,0,0,1-4.12,1A12.49,12.49,0,0,1,22.15,31l-.59-.15L25.07,34l14,12.6c3.51,3.15,3.51,3.15,4.74,2.94l4.94-.82c1.23-.2,1.23-.2,1.55-1.12a23.6,23.6,0,0,1,2-4.46,12.73,12.73,0,0,1,4.1-4.33,10.59,10.59,0,0,1,5.1-1.26c1.76-.07,3.52,0,4.41.07a2.43,2.43,0,0,0,1.77-.38l4.16-2L75.6,33.4c1-.51,1.94-.92,3.46-1.53ZM69.25,20.16c-1.21.34-1.82,2-1.35,3.64s1.83,2.75,3,2.41,1.82-2,1.35-3.64-1.83-2.75-3-2.41Zm-28,9.07C40.1,30,40,32,41.14,33.62s3,2.28,4.13,1.48,1.24-2.77.14-4.39-3-2.29-4.14-1.48Z"/><path class="cls-1" d="M82.46,15.09a4.71,4.71,0,0,1-2.07.76,5.45,5.45,0,0,1-2.69-.48A5,5,0,0,1,76,13.92a11.77,11.77,0,0,1-.85-1.2L75,12.5l.36-.46a25.56,25.56,0,0,1,2-2.26c.91-.9,2-1.8,2.54-2.25s.55-.45.92.22,1.13,2,1.67,3.16a23.82,23.82,0,0,1,1,2.74l.17.52-.17.15a7.45,7.45,0,0,1-1,.78Z"/><path class="cls-1" d="M59,19.18a15.44,15.44,0,0,1-2.24,2.76,4.44,4.44,0,0,1-2.85,1.35A9.29,9.29,0,0,1,50,22.6,11.86,11.86,0,0,1,47.34,21l-.48-.36.22-.75c.22-.75.67-2.25,1.36-4.08s1.62-4,2.09-5.07.47-1.08,1.41-.41,2.84,2,4.34,3.26a38.46,38.46,0,0,1,3.17,3l.56.58-.12.29A9.45,9.45,0,0,1,59,19.18Z"/><path class="cls-1" d="M30.35,26.55a4.72,4.72,0,0,1-1.46,1.65,5.42,5.42,0,0,1-2.59.85,5,5,0,0,1-2.22-.45A12.13,12.13,0,0,1,22.76,28l-.24-.13.1-.57a25.37,25.37,0,0,1,.67-2.93c.37-1.22.91-2.53,1.18-3.18s.27-.65.91-.25,1.93,1.21,3,2a23.72,23.72,0,0,1,2.22,1.91l.39.38-.08.22a7.89,7.89,0,0,1-.54,1.17Z"/><path class="cls-1" d="M79.08,69C69.4,75.78,72.47,91.86,82.61,94c8.41,1.79,13,.7,19.39,8.28,1.26,1.66,2.06,4.12,6.17.87-1.42-3.69,1.3-6.77,1.39-10.45l-.22.24-.2.23c-1.09,1.19-2.15,1.24-3.86,1.34a4.7,4.7,0,0,0-1.2-2c-2.21.83-6.19-.63-6.53-2.91q-.07-.3-.14-.61l.54,0c1.56.13,2.8.19,4,.19a15.26,15.26,0,0,0,3.52-.35,15.67,15.67,0,0,0,3.15-1.11c.68-.34.78-.55.59-.63a10.54,10.54,0,0,0-1.53-.11c-.86-.07-2.11-.23-3.35-.44a14.87,14.87,0,0,1-3.55-1,12.23,12.23,0,0,1-2.66-1.71l-.41-.34a6.16,6.16,0,0,1,1.75-2.51c1.09-.94,1.34-.94,3-.51a25,25,0,0,1,5.65,2.82l1-1.43c2.24,1.47,2.72,4.64,2.62,7.25,2.37-.84,6-9.5,4.68-13.32A11,11,0,0,0,118.14,74a11.81,11.81,0,0,0,1.36-2.66l-17.64-10L103,58.56c-17.76-9.27.1-12.2-11.82-25.68-1.37-1.55-19.2,5.93-23.62,8.49C52.76,39.56,54.13,51,52.82,51.18c-11.6,1.9-19,4.74-20.79,14.07,3.82-1.5,5.86-1.55,10.06-.72,0,0-.09,0-.11.13a53.25,53.25,0,0,0-7.15,6.46C26,68.85,12.46,69.53,8.25,69.91c48.1,8.26,88.19,37.9,111.29,64.17-1.9-10.06-10.42-18.2-18.43-24.09-11.28-8.3-17-11.15-25.37-17.2A13.18,13.18,0,0,1,70.52,81C71,70,79.08,69,79.08,69Zm.55-28.3c1.89-.87,3.92-1.75,5.5-2.3a22.4,22.4,0,0,1,3.27-.88c.56-.11.56-.11.87.45a12.35,12.35,0,0,1,1.21,2.92,10.64,10.64,0,0,1,.18,3.37,3.74,3.74,0,0,1-.31,1.3c-.07.16-.07.16-.56-.7l-2-3.43c-.49-.86-.49-.86-1.37-.77a43.8,43.8,0,0,0-4.83.71c-2.18.45-4.78,1.19-6.08,1.56s-1.3.37-.43-.06,2.61-1.29,4.5-2.16ZM75.86,51.54c-2.57-4.3-10.46-5.66-14.81-5.06.62.88,2.32,2,2.37,3.76.2,6.53-22.23,4-26.77,11.17,8.76-5.76,35.55-2.47,29.22-12.79a18.34,18.34,0,0,1,10,2.92ZM98,62.3c-.18-.11.08,0-.46-.24-1.91-.7-4.86-.44-9.41-3.22l-1.13,1C90,61,89.9,63,89.84,65.61,91.2,64,95,63.26,98,63.26l0-1Z"/></svg>