<svg id="artwork" xmlns="http://www.w3.org/2000/svg" viewBox="0 0 162 48"><defs><style>.cls-1{fill:#a6a6a6;}.cls-2{fill:#fff;}</style></defs><title>appstore</title><path class="cls-1" d="M156.24,48H5.68A5.69,5.69,0,0,1,0,42.32V5.68A5.68,5.68,0,0,1,5.68,0H156.24A5.76,5.76,0,0,1,162,5.68V42.32A5.76,5.76,0,0,1,156.24,48Z"/><path d="M160.8,42.32a4.6,4.6,0,0,1-4.6,4.6H5.68a4.6,4.6,0,0,1-4.61-4.58h0V5.66a4.61,4.61,0,0,1,4.61-4.6H156.24a4.6,4.6,0,0,1,4.56,4.6V42.32Z"/><path class="cls-2" d="M36.16,23.74a7,7,0,0,1,3.31-5.83,7.13,7.13,0,0,0-5.62-3c-2.4-.25-4.64,1.42-5.86,1.42s-3.08-1.39-5.08-1.34a7.48,7.48,0,0,0-6.29,3.84c-2.72,4.7-.7,11.63,1.92,15.43,1.31,1.86,2.83,3.95,4.8,3.88s2.68-1.2,5-1.2,3,1.2,5.05,1.2,3.41-1.87,4.67-3.76A15.4,15.4,0,0,0,40.24,30,6.72,6.72,0,0,1,36.16,23.74Z"/><path class="cls-2" d="M32.32,12.37a6.85,6.85,0,0,0,1.57-4.91,7,7,0,0,0-4.51,2.33,6.52,6.52,0,0,0-1.61,4.73A5.76,5.76,0,0,0,32.32,12.37Z"/><path class="cls-2" d="M64.38,37.8H61.64l-1.49-4.69H55L53.54,37.8H50.89l5.14-16h3.18Zm-4.67-6.6L58.37,27q-.23-.68-.77-3h0q-.24,1-.76,3L55.42,31.2h4.3Z"/><path class="cls-2" d="M77.59,31.91A6.54,6.54,0,0,1,76,36.55a4.64,4.64,0,0,1-3.53,1.51,3.53,3.53,0,0,1-3.26-1.63h0v6.06H66.6V30.08q0-1.85-.1-3.79h2.26l.14,1.82h0a4.55,4.55,0,0,1,7.28-.46A6.35,6.35,0,0,1,77.59,31.91ZM75,32a4.8,4.8,0,0,0-.76-2.77A2.62,2.62,0,0,0,72,28.09a2.66,2.66,0,0,0-1.72.62,2.92,2.92,0,0,0-1,1.64,3.35,3.35,0,0,0-.12.78v1.92a3.07,3.07,0,0,0,.77,2.12,2.56,2.56,0,0,0,2,.86,2.62,2.62,0,0,0,2.26-1.12A4.9,4.9,0,0,0,75,32Z"/><path class="cls-2" d="M90.84,31.91a6.54,6.54,0,0,1-1.58,4.64,4.63,4.63,0,0,1-3.53,1.51,3.53,3.53,0,0,1-3.26-1.63h0v6.06H79.85V30.08q0-1.85-.1-3.79H82l.14,1.82h0a4.55,4.55,0,0,1,7.28-.46A6.36,6.36,0,0,1,90.84,31.91Zm-2.6.1a4.8,4.8,0,0,0-.76-2.77,2.62,2.62,0,0,0-2.28-1.14,2.66,2.66,0,0,0-1.72.62,2.9,2.9,0,0,0-1,1.64,3.42,3.42,0,0,0-.12.78v1.92a3.08,3.08,0,0,0,.77,2.12A2.56,2.56,0,0,0,85.2,36a2.62,2.62,0,0,0,2.26-1.12A4.9,4.9,0,0,0,88.24,32Z"/><path class="cls-2" d="M105.6,33.32a4.26,4.26,0,0,1-1.42,3.31A6.29,6.29,0,0,1,99.84,38a7.62,7.62,0,0,1-4.14-1l.59-2.14a7,7,0,0,0,3.7,1,3.49,3.49,0,0,0,2.26-.65,2.14,2.14,0,0,0,.8-1.74,2.22,2.22,0,0,0-.66-1.63,6.17,6.17,0,0,0-2.21-1.2Q96,29.1,96,26.09a4.06,4.06,0,0,1,1.5-3.29,5.8,5.8,0,0,1,3.91-1.2,7.75,7.75,0,0,1,3.6.76l-.61,2.09a6.29,6.29,0,0,0-3.06-.73,3.1,3.1,0,0,0-2.11.66,1.9,1.9,0,0,0-.64,1.44,2,2,0,0,0,.73,1.56,8.29,8.29,0,0,0,2.33,1.2,7.88,7.88,0,0,1,3,1.94A4.06,4.06,0,0,1,105.6,33.32Z"/><path class="cls-2" d="M114.11,28.21h-2.82V33.8q0,2.14,1.49,2.14a4.55,4.55,0,0,0,1.14-.12l.08,1.93a5.8,5.8,0,0,1-2,.29,3.07,3.07,0,0,1-2.4-.92,4.54,4.54,0,0,1-.85-3.11v-5.8h-1.68V26.29h1.68V24.18l2.51-.76v2.87h2.82v1.92Z"/><path class="cls-2" d="M126.83,32a6.31,6.31,0,0,1-1.51,4.36,5.41,5.41,0,0,1-4.22,1.75,5.15,5.15,0,0,1-4-1.68,6.12,6.12,0,0,1-1.5-4.24,6.25,6.25,0,0,1,1.55-4.38,5.36,5.36,0,0,1,4.18-1.7,5.26,5.26,0,0,1,4.08,1.68A6,6,0,0,1,126.83,32Zm-2.65.08a5.18,5.18,0,0,0-.68-2.74,2.53,2.53,0,0,0-2.29-1.38,2.57,2.57,0,0,0-2.4,1.38,5.28,5.28,0,0,0-.68,2.78,5.17,5.17,0,0,0,.68,2.71,2.62,2.62,0,0,0,4.62,0A5.2,5.2,0,0,0,124.18,32Z"/><path class="cls-2" d="M135.14,28.54a4.44,4.44,0,0,0-.8-.07,2.4,2.4,0,0,0-2.09,1,3.83,3.83,0,0,0-.64,2.28v6h-2.56V29.88q0-2-.1-3.6h2.23l.1,2.21h.07a3.94,3.94,0,0,1,1.28-1.82,3.1,3.1,0,0,1,1.85-.61,4.1,4.1,0,0,1,.64,0v2.48Z"/><path class="cls-2" d="M146.59,31.5a6,6,0,0,1-.1,1.2h-7.68a3.34,3.34,0,0,0,1.12,2.6,3.8,3.8,0,0,0,2.51.8,8.48,8.48,0,0,0,3.11-.54l.4,1.78a9.6,9.6,0,0,1-3.86.71,5.59,5.59,0,0,1-4.21-1.57,5.82,5.82,0,0,1-1.52-4.22,6.6,6.6,0,0,1,1.43-4.33,4.91,4.91,0,0,1,4-1.85,4.3,4.3,0,0,1,3.77,1.85A6.23,6.23,0,0,1,146.59,31.5Zm-2.4-.66a3.48,3.48,0,0,0-.49-2,2.23,2.23,0,0,0-2-1.07,2.4,2.4,0,0,0-2,1,3.82,3.82,0,0,0-.76,2Z"/><path class="cls-2" d="M58.8,12a3.94,3.94,0,0,1-1.2,3.2,5.05,5.05,0,0,1-3.34,1,15.48,15.48,0,0,1-1.84-.1V8.4a13.57,13.57,0,0,1,2.17-.17,4.67,4.67,0,0,1,3.11.9A3.6,3.6,0,0,1,58.8,12Zm-1.32,0a2.87,2.87,0,0,0-.73-2.11,2.87,2.87,0,0,0-2.12-.73,5.33,5.33,0,0,0-1,.08v5.87a6.64,6.64,0,0,0,.85,0,3,3,0,0,0,2.28-.71,3.22,3.22,0,0,0,.78-2.4Z"/><path class="cls-2" d="M65.89,13.2a3.11,3.11,0,0,1-.74,2.14,2.66,2.66,0,0,1-2.08.86,2.53,2.53,0,0,1-2-.83,3,3,0,0,1-.74-2.09,3.07,3.07,0,0,1,.76-2.15,2.64,2.64,0,0,1,2.05-.84,2.59,2.59,0,0,1,2,.83A3,3,0,0,1,65.89,13.2Zm-1.31,0a2.56,2.56,0,0,0-.34-1.2,1.2,1.2,0,0,0-1.13-.67,1.26,1.26,0,0,0-1.2.67,2.59,2.59,0,0,0-.34,1.37,2.56,2.56,0,0,0,.34,1.34,1.27,1.27,0,0,0,1.2.67,1.2,1.2,0,0,0,1.13-.68,2.54,2.54,0,0,0,.34-1.42Z"/><path class="cls-2" d="M75.31,10.46l-1.76,5.65h-1.2l-.73-2.4a18.38,18.38,0,0,1-.46-1.82h0a13.38,13.38,0,0,1-.46,1.82l-.78,2.4h-1.2l-1.61-5.65H68.4L69,13.2q.23.95.38,1.81h0q.14-.71.47-1.8l.8-2.7h1.06l.77,2.64q.28,1,.46,1.86h0a17.8,17.8,0,0,1,.38-1.86l.68-2.64h1.2Z"/><path class="cls-2" d="M81.84,16.12h-1.2V12.88q0-1.5-1.14-1.5a1.2,1.2,0,0,0-.91.41,1.46,1.46,0,0,0-.35,1v3.36H77V10.46h1v.89h0a1.81,1.81,0,0,1,.65-.68,2.12,2.12,0,0,1,1.14-.32,1.8,1.8,0,0,1,1.32.52,2.48,2.48,0,0,1,.65,1.87v3.38Z"/><path class="cls-2" d="M85.31,16.12H84V7.87h1.2v8.26Z"/><path class="cls-2" d="M92.71,13.2A3.11,3.11,0,0,1,92,15.34a2.66,2.66,0,0,1-2.08.86,2.52,2.52,0,0,1-2-.83,3,3,0,0,1-.73-2.09,3.07,3.07,0,0,1,.77-2.15A2.64,2.64,0,0,1,90,10.34a2.59,2.59,0,0,1,2,.83A3,3,0,0,1,92.71,13.2Zm-1.31,0a2.56,2.56,0,0,0-.34-1.2,1.29,1.29,0,0,0-2.27,0,2.59,2.59,0,0,0-.34,1.37,2.56,2.56,0,0,0,.34,1.28,1.27,1.27,0,0,0,1.2.67,1.2,1.2,0,0,0,1.13-.68,2.53,2.53,0,0,0,.28-1.36Z"/><path class="cls-2" d="M98.8,16.12H97.67l-.1-.65h0a1.93,1.93,0,0,1-1.66.78,1.7,1.7,0,0,1-1.3-.52,1.61,1.61,0,0,1-.44-1.2A1.75,1.75,0,0,1,95,12.95a4.5,4.5,0,0,1,2.4-.54v0a1,1,0,0,0-1.2-1.12,2.63,2.63,0,0,0-1.44.42l-.24-.86a3.6,3.6,0,0,1,1.94-.49,2,2,0,0,1,2.22,2.34v2.09A8.83,8.83,0,0,0,98.8,16.12Zm-1.31-1.94v-.86q-2.08,0-2.08,1.14a.85.85,0,0,0,.24.66.88.88,0,0,0,.61.22,1.27,1.27,0,0,0,.77-.26A1.07,1.07,0,0,0,97.49,14.17Z"/><path class="cls-2" d="M105.95,16.12h-1.12V15.2h0a1.88,1.88,0,0,1-1.81,1,2.12,2.12,0,0,1-1.7-.8,3.13,3.13,0,0,1-.67-2.09,3.28,3.28,0,0,1,.73-2.22,2.26,2.26,0,0,1,1.75-.79,1.69,1.69,0,0,1,1.6.77h0V7.87h1.2V14.6Q105.9,15.42,105.95,16.12Zm-1.31-2.4v-.92a1.85,1.85,0,0,0,0-.4,1.43,1.43,0,0,0-.46-.77,1.2,1.2,0,0,0-.84-.31,1.3,1.3,0,0,0-1.1.56,2.4,2.4,0,0,0-.41,1.43,2.23,2.23,0,0,0,.38,1.37,1.3,1.3,0,0,0,1.1.56,1.2,1.2,0,0,0,1-.47,1.55,1.55,0,0,0,.32-1Z"/><path class="cls-2" d="M116.7,13.2a3.11,3.11,0,0,1-.74,2.14,2.65,2.65,0,0,1-2.08.86,2.53,2.53,0,0,1-2-.83,3,3,0,0,1-.73-2.09,3.07,3.07,0,0,1,.77-2.15,2.64,2.64,0,0,1,2.06-.79,2.58,2.58,0,0,1,2,.83A3,3,0,0,1,116.7,13.2Zm-1.31,0a2.56,2.56,0,0,0-.34-1.2,1.2,1.2,0,0,0-1.13-.67,1.26,1.26,0,0,0-1.13.67,2.59,2.59,0,0,0-.34,1.37,2.56,2.56,0,0,0,.34,1.28,1.28,1.28,0,0,0,2.27,0,2.56,2.56,0,0,0,.32-1.37Z"/><path class="cls-2" d="M123.46,16.12h-1.2V12.88q0-1.5-1.2-1.5a1.13,1.13,0,0,0-.91.41,1.45,1.45,0,0,0-.35,1v3.36h-1.2V10.46h1.1v.89h0a1.84,1.84,0,0,1,.65-.68,2.12,2.12,0,0,1,1.2-.32,1.8,1.8,0,0,1,1.32.52,2.48,2.48,0,0,1,.65,1.87v3.38Z"/><path class="cls-2" d="M131.93,11.4h-1.38v2.75c0,.7.25,1,.73,1a2.22,2.22,0,0,0,.56,0v1a2.82,2.82,0,0,1-1,.14,1.5,1.5,0,0,1-1.2-.46,2.22,2.22,0,0,1-.42-1.52V11.4h-.83v-.94h.83v-1l1.2-.37v1.4h1.38v.94h.1Z"/><path class="cls-2" d="M138.58,16.12h-1.2V12.9q0-1.52-1.14-1.52a1.2,1.2,0,0,0-1.2.88,1.58,1.58,0,0,0,0,.46v3.41h-1.2V7.87H135v3.41h0a1.9,1.9,0,0,1,1.7-.92,1.75,1.75,0,0,1,1.26.44,2.58,2.58,0,0,1,.64,1.9v3.36Z"/><path class="cls-2" d="M145.45,13a3,3,0,0,1,0,.58H141.6a1.64,1.64,0,0,0,.55,1.28,1.87,1.87,0,0,0,1.2.4,4.16,4.16,0,0,0,1.52-.26l.19.88a4.8,4.8,0,0,1-1.9.35,2.74,2.74,0,0,1-2.06-.77,2.86,2.86,0,0,1-.74-2.08,3.24,3.24,0,0,1,.7-2.12,2.4,2.4,0,0,1,2-.91,2.1,2.1,0,0,1,1.85.91A3,3,0,0,1,145.45,13Zm-1.2-.32a1.69,1.69,0,0,0-.24-1,1.1,1.1,0,0,0-1-.53,1.2,1.2,0,0,0-1,.52,1.91,1.91,0,0,0-.37,1h2.6Z"/></svg>