<svg id="artwork" xmlns="http://www.w3.org/2000/svg" xmlns:xlink="http://www.w3.org/1999/xlink" viewBox="0 0 162 48"><defs><style>.cls-1{fill:#a7a6a6;}.cls-2,.cls-3{fill:#fff;}.cls-2{stroke:#fff;stroke-miterlimit:10;stroke-width:0.24px;}.cls-4{fill:#5bc9f4;}.cls-5{fill:url(#linear-gradient);}.cls-6{fill:url(#linear-gradient-2);}.cls-7{fill:url(#linear-gradient-3);}</style><linearGradient id="linear-gradient" x1="37.31" y1="24" x2="8.29" y2="24" gradientTransform="matrix(1, 0, 0, -1, 0, 48)" gradientUnits="userSpaceOnUse"><stop offset="0" stop-color="#fee000"/><stop offset="0.42" stop-color="#fbbc0e"/><stop offset="0.78" stop-color="#faa418"/><stop offset="1" stop-color="#f99b1c"/></linearGradient><linearGradient id="linear-gradient-2" x1="29.78" y1="21.24" x2="2.49" y2="-6.04" gradientTransform="matrix(1, 0, 0, -1, 0, 48)" gradientUnits="userSpaceOnUse"><stop offset="0" stop-color="#ef4547"/><stop offset="1" stop-color="#c6186d"/></linearGradient><linearGradient id="linear-gradient-3" x1="2.36" y1="54.15" x2="24.65" y2="31.88" gradientTransform="matrix(1, 0, 0, -1, 0, 48)" gradientUnits="userSpaceOnUse"><stop offset="0" stop-color="#279e6f"/><stop offset="0.04" stop-color="#2ba06f"/><stop offset="0.46" stop-color="#53b26c"/><stop offset="0.8" stop-color="#6bbd6a"/><stop offset="1" stop-color="#74c169"/></linearGradient></defs><title>googleplay</title><rect width="162" height="48" rx="6" ry="6"/><path class="cls-1" d="M156,1a5,5,0,0,1,5,5V42a5,5,0,0,1-5,5H6a5,5,0,0,1-5-5H1V6A5,5,0,0,1,6,1H156m0-1H6A6,6,0,0,0,0,6V42a6,6,0,0,0,6,6H156a6,6,0,0,0,6-6V6a6,6,0,0,0-6-6Z"/><path class="cls-2" d="M56.9,12.29a3.25,3.25,0,0,1-.9,2.4,3.49,3.49,0,0,1-2.64,1.07,3.71,3.71,0,0,1-3.74-3.67s0-.06,0-.08a3.71,3.71,0,0,1,3.66-3.76h.08a3.72,3.72,0,0,1,1.48.3,3,3,0,0,1,1.13.8l-.64.64a2.4,2.4,0,0,0-2-.85,2.78,2.78,0,0,0-2.8,2.77s0,.06,0,.1a2.83,2.83,0,0,0,4.8,2.08,2.27,2.27,0,0,0,.6-1.46h-2.6v-.86h3.49A3,3,0,0,1,56.9,12.29Z"/><path class="cls-2" d="M62.4,9.29H59.16v2.28h3v.86h-3v2.28H62.4v.89H58.2V8.4h4.2Z"/><path class="cls-2" d="M66.34,15.6h-.92V9.29h-2V8.4h5v.89H66.34Z"/><path class="cls-2" d="M71.93,15.6V8.4h.92v7.2Z"/><path class="cls-2" d="M77,15.6H76V9.29H74V8.4H79v.89H77Z"/><path class="cls-2" d="M88.33,14.66a3.74,3.74,0,0,1-5.28,0A3.68,3.68,0,0,1,82,12a3.7,3.7,0,0,1,6.32-2.68l0,0A3.68,3.68,0,0,1,89.39,12,3.68,3.68,0,0,1,88.33,14.66Zm-4.6-.6a2.77,2.77,0,0,0,3.91,0,2.82,2.82,0,0,0,.8-2.06,2.82,2.82,0,0,0-.85-2.06,2.77,2.77,0,0,0-3.91,0A2.82,2.82,0,0,0,82.93,12,2.82,2.82,0,0,0,83.74,14.06Z"/><path class="cls-2" d="M90.7,15.6V8.4h1.13l3.5,5.6h0V8.4h.91v7.2h-1L91.62,9.73h0V15.6Z"/><path class="cls-3" d="M81.77,26.1a5.1,5.1,0,1,0,5.12,5.1,5,5,0,0,0-5-5.1Zm0,8.2A3.1,3.1,0,1,1,84.64,31q0,.1,0,.21a3,3,0,0,1-2.8,3.09ZM70.6,26.1a5.1,5.1,0,1,0,5.11,5.1,5,5,0,0,0-5-5.1H70.6Zm0,8.2A3.1,3.1,0,1,1,73.46,31q0,.11,0,.22a3,3,0,0,1-2.8,3.09H70.6ZM57.29,27.67v2.16h5.18a4.52,4.52,0,0,1-1.2,2.72,5.3,5.3,0,0,1-4,1.58,5.76,5.76,0,0,1,0-11.52,5.52,5.52,0,0,1,3.92,1.55l1.52-1.52a7.55,7.55,0,0,0-5.44-2.24,7.93,7.93,0,1,0-.62,15.85h.62A7,7,0,0,0,64.69,29a7,7,0,0,0-.12-1.36H57.29Zm54.37,1.68a4.7,4.7,0,0,0-9.18,1.54q0,.15,0,.31a5,5,0,0,0,4.88,5.1h.18A5.08,5.08,0,0,0,111.8,34l-1.74-1.2a2.92,2.92,0,0,1-2.51,1.42,2.59,2.59,0,0,1-2.47-1.55l6.83-2.82Zm-7,1.7a2.8,2.8,0,0,1,2.61-3h.06a2,2,0,0,1,1.9,1.08ZM99.16,36h2.24V21H99.16Zm-3.67-8.76H95.4A3.6,3.6,0,0,0,92.71,26a5.11,5.11,0,0,0,0,10.21,3.48,3.48,0,0,0,2.69-1.2h.07v.83c0,2-1,3-2.72,3a2.82,2.82,0,0,1-2.57-1.81l-2,.82a4.86,4.86,0,0,0,4.52,3c2.63,0,4.8-1.55,4.8-5.32V26.4H95.48ZM92.92,34.3a3.11,3.11,0,0,1,0-6.19,2.88,2.88,0,0,1,2.73,3v.07A2.86,2.86,0,0,1,93,34.29h-.12ZM122.17,21H116.8V36H119V30.31h3.13a4.67,4.67,0,1,0,0-9.31Zm0,7.2H119V23.09h3.18a2.57,2.57,0,0,1,0,5.14h0ZM136,26a4.2,4.2,0,0,0-4,2.29l2,.83a2.12,2.12,0,0,1,2-1.1,2.16,2.16,0,0,1,2.4,1.89v.19a5,5,0,0,0-2.34-.58c-2.15,0-4.32,1.2-4.32,3.37a3.47,3.47,0,0,0,3.62,3.31h.1a3.16,3.16,0,0,0,2.88-1.44h.07V36h2.16V30.23c0-2.63-2-4.15-4.55-4.15Zm-.28,8.22A1.56,1.56,0,0,1,134,33c0-1.2,1.27-1.6,2.4-1.6a4,4,0,0,1,2,.5,2.71,2.71,0,0,1-2.63,2.4Zm12.76-7.86-2.57,6.5h-.07l-2.66-6.5h-2.4l4,9.1-2.28,5.05h2.34L151,26.4h-2.5ZM128.32,36h2.24V21h-2.24Z"/><path class="cls-4" d="M12.53,9.06A2.4,2.4,0,0,0,12,10.8V37.2a2.4,2.4,0,0,0,.55,1.68l.08.08L27.47,24.18v-.36L12.61,9Z"/><path class="cls-5" d="M32.4,29.12l-5-5v-.35l5-4.94.11.06,5.89,3.34c1.68.95,1.68,2.51,0,3.47l-5.87,3.34Z"/><path class="cls-6" d="M32.53,29.06,27.47,24,12.53,38.94A2,2,0,0,0,15,39l17.52-9.95"/><path class="cls-7" d="M32.53,18.94,15,9a2,2,0,0,0-2.5.07L27.47,24Z"/></svg>