<svg xmlns="http://www.w3.org/2000/svg" width="110" height="121" viewBox="0 0 110 121"><g fill="none" fill-rule="evenodd"><g fill-rule="nonzero"><path fill="#76C5EF" d="M.146 39.573h86.941v58.542H.147z"/><path fill="#2E80AE" d="M43.617.122L.147 39.573 43.616 79.1l43.47-39.527"/><path fill="#FCFCFD" d="M10.224 48.706L42.64 78.202h1.956L77.01 48.706V12.1H10.224"/><path fill="#92E8E9" d="M20.603 22.13h45.952v3.145H20.603z"/><path fill="#F2F2F2" d="M20.603 30.89h45.952v3.144H20.603zm0 9.507h45.952v3.144H20.603zm0 9.507h45.952v3.144H20.603zm44.75 9.433H21.881l3.46 3.219h36.55m-6.994 6.288H32.336l3.46 3.144h15.642"/><path fill="#58ABD8" d="M50.912 72.213h-14.59L.146 98.19h86.941"/></g><path fill="#8D6FC8" d="M87.17 121c-12.609 0-22.83-10.186-22.83-22.752 0-12.566 10.221-22.752 22.83-22.752 12.609 0 22.83 10.186 22.83 22.752C110 110.814 99.779 121 87.17 121zm-9.41-23.508l-3.043 2.919 8.525 8.179 3.043-2.92 14.375-13.789-3.042-2.94-14.376 13.789-5.482-5.238z"/></g></svg>