<svg width="96" height="96" viewBox="0 0 96 96" xmlns="http://www.w3.org/2000/svg"><title>crown</title><g fill-rule="nonzero" fill="none"><path d="M61.467 36.777a2.756 2.756 0 0 1-1.181 1.758H35.038a2.758 2.758 0 0 1-.769-3.833l10.372-15.864V11.24h-2.754c-1.522 0-2.754-1.256-2.754-2.81 0-1.553 1.232-2.81 2.754-2.81h2.754V2.81C44.641 1.258 45.873 0 47.395 0c1.523 0 2.755 1.257 2.755 2.81v2.81h2.754c1.522 0 2.754 1.256 2.754 2.81 0 1.553-1.232 2.81-2.754 2.81H50.15v6.783l7.898 12.08 3.007 4.599a2.75 2.75 0 0 1 .412 2.075z" fill="#CBD8E6"/><path d="M79.994 42.853c6.34 1.123 11.587 6.515 12.477 12.974 0 .056.055.112.055.169.501 4.1-1.056 8.2-3.615 11.401l-5.858 5.617c-1-1.404-2.67-2.359-4.505-2.359h-16.35l7.062-8.874c2.559-3.202 4.116-7.302 3.615-11.402 0-.056-.055-.112-.055-.169-.278-2.19-1.112-4.268-2.28-6.122 2.78-1.348 6.062-1.853 9.454-1.235z" fill="#668DB5"/><path d="M70.584 44.345c1.169 1.859 2.003 3.943 2.281 6.14 0 .056.056.112.056.169.5 4.111-1.057 8.223-3.616 11.433l-7.065 8.899H48V40.74c2.948-2.478 6.898-3.886 11.125-3.492.445.056.946.169 1.447.225 4.172.732 7.787 3.323 10.012 6.871z" fill="#004384"/><path d="M47.324 40.74v30.246h-14.24l-7.065-8.899c-2.559-3.21-4.116-7.322-3.616-11.433 0-.057.056-.113.056-.17.278-2.196 1.112-4.28 2.28-6.139 2.226-3.548 5.841-6.139 10.013-6.87.501-.057 1.002-.17 1.447-.226 4.227-.394 8.177 1.014 11.125 3.492z" fill="#668DB5"/><path d="M24.784 44.088c-1.168 1.854-2.002 3.932-2.28 6.122 0 .057-.055.113-.055.169-.501 4.1 1.056 8.2 3.615 11.402l7.063 8.874H16.776c-1.836 0-3.504.955-4.505 2.36l-5.858-5.618c-2.559-3.201-4.116-7.301-3.615-11.401 0-.057.055-.113.055-.169.89-6.46 6.136-11.851 12.477-12.974 3.392-.618 6.674-.113 9.454 1.235z" fill="#33699C"/><path d="M67.606 81.803a2.678 2.678 0 0 1-2.705 2.704 2.678 2.678 0 0 1-2.704-2.704 2.678 2.678 0 0 1 2.704-2.704 2.678 2.678 0 0 1 2.705 2.704zM31.099 84.507a2.678 2.678 0 0 1-2.705-2.704 2.678 2.678 0 0 1 2.705-2.704 2.678 2.678 0 0 1 2.704 2.704 2.678 2.678 0 0 1-2.704 2.704z" fill="#000"/><path d="M95.868 55.216c-1.061-7.733-7.321-14.092-14.949-15.463a18.449 18.449 0 0 0-9.076.653c-2.684-3.213-6.396-5.542-10.627-6.302-4.629-.836-9.337.105-13.208 2.587a18.357 18.357 0 0 0-13.21-2.587c-4.216.758-7.918 3.076-10.604 6.31a18.455 18.455 0 0 0-9.1-.66C7.47 41.123 1.21 47.483.123 55.43c-.583 4.61.931 9.443 4.485 13.851l5.884 5.625c.547.54 1.261.811 1.973.811a2.8 2.8 0 0 0 2.007-.844 2.831 2.831 0 0 0-.033-3.994L8.775 65.5c-2.334-2.916-3.453-6.325-3.052-9.512.723-5.255 5.19-9.743 10.364-10.673 1.736-.309 3.436-.153 5.09.214-.53 1.355-.96 2.763-1.165 4.252-.582 4.61.932 9.443 4.266 13.606l7.128 8.908a2.812 2.812 0 0 0 3.955.433 2.827 2.827 0 0 0 .432-3.97l-7.128-8.907c-2.333-2.916-3.452-6.326-3.05-9.512.722-5.256 5.002-9.744 10.175-10.674 3.396-.601 6.661.155 9.404 2.017v28.844a2.818 2.818 0 0 0 2.814 2.825 2.818 2.818 0 0 0 2.815-2.825V41.683c2.747-1.863 6.024-2.62 9.4-2.018 5.177.93 9.457 5.418 10.196 10.828.385 3.032-.734 6.441-3.068 9.357l-7.127 8.908a2.827 2.827 0 0 0 .431 3.97 2.803 2.803 0 0 0 3.955-.433l7.128-8.908c3.335-4.163 4.85-8.996 4.239-13.82-.194-1.41-.604-2.75-1.11-4.047 1.647-.363 3.338-.516 5.06-.205 5.176.93 9.643 5.418 10.383 10.828.385 3.032-.734 6.441-2.848 9.112l-5.883 5.625a2.831 2.831 0 0 0-.033 3.994 2.8 2.8 0 0 0 2.006.844c.712 0 1.427-.27 1.974-.81l6.103-5.871c3.334-4.163 4.849-8.996 4.239-13.821z" fill="#98B3CD"/><path d="M79.412 96H17.264c-4.674 0-8.475-3.73-8.475-8.315V76.597c0-4.585 3.801-8.315 8.475-8.315h62.148c4.674 0 8.475 3.73 8.475 8.315v11.088c0 4.585-3.801 8.315-8.475 8.315z" fill="#CBD8E6"/><circle fill="#668DB5" cx="64.901" cy="81.803" r="2.704"/><circle fill="#668DB5" cx="31.099" cy="81.803" r="2.704"/><path d="M87.887 79.099H76.53c-1.57 0-2.84 1.21-2.84 2.704 0 1.495 1.27 2.704 2.84 2.704h11.357v-5.408zM20.146 79.099H8.79v5.408h11.357c1.57 0 2.84-1.21 2.84-2.704 0-1.495-1.27-2.704-2.84-2.704z" fill="#33699C"/><path d="M47.662 96c-4.817 0-8.45-5.958-8.45-13.86 0-7.9 3.633-13.858 8.45-13.858 4.817 0 8.45 5.957 8.45 13.859 0 7.901-3.633 13.859-8.45 13.859z" fill="#004384"/></g></svg>