<svg width="31" height="31" viewBox="0 0 31 31" xmlns="http://www.w3.org/2000/svg"><title>Combined Shape</title><path d="M6.01 14.21l5.227 5.206L24.942 5.711l2.901 2.923L14.138 22.34l-2.9 2.901-8.129-8.129 2.901-2.9zm22.121-2.755l1.73-1.687a15.473 15.473 0 0 1-1.412 14.145c-4.659 7.164-14.244 9.195-21.409 4.536-7.165-4.658-9.196-14.244-4.537-21.41 4.66-7.163 14.245-9.194 21.41-4.535l-1.605 1.604a13.317 13.317 0 0 0-10.922-1.262C4.384 5.093.53 12.59 2.777 19.59c2.247 7.002 9.744 10.856 16.745 8.609 7.002-2.246 10.856-9.744 8.61-16.745z" fill="#FFF" fill-rule="evenodd"/></svg>