<svg xmlns="http://www.w3.org/2000/svg" width="114" height="87" viewBox="0 0 114 87"><g fill="none" fill-rule="evenodd"><g fill-rule="nonzero"><path fill="#F2F2F2" d="M110.212 45H17.524c-2.217 0-4.349 1.8-4.349 4v34c0 2.2 2.132 4 4.349 4h40.299c2.216 0 4.03-1.8 4.03-4h4.03c0 2.2 1.814 4 4.03 4h40.299c2.217 0 3.712-1.8 3.712-4V49c0-2.2-1.495-4-3.712-4z"/><path fill="#D2D2D2" d="M69.913 85c-1.112 0-2.333-.897-2.333-2v-2h-8.06v2c0 1.103-.585 2-1.696 2h-40.3c-1.11 0-2.333-.897-2.333-2V49c0-1.103 1.222-2 2.334-2h92.688c1.112 0 1.697.897 1.697 2v34c0 1.103-.585 2-1.697 2h-40.3z"/><path fill="#4699C7" d="M23.251 49h80.599v2H23.25z"/><path fill="#F2F2F2" d="M19.221 56h36.27v26H19.22z"/><path fill="#000" d="M22.562 77h12.09c0-3.028-1.665-5.602-3.99-6.576 1.177-.698 1.975-1.963 1.975-3.424 0-2.209-1.805-4-4.03-4-2.226 0-4.03 1.791-4.03 4 0 1.461.798 2.726 1.976 3.424-2.326.974-3.991 3.548-3.991 6.576z"/><path fill="#4699C7" d="M38.363 69h6.045v2h-6.045zm0 4h11.083v2H38.363zm35.257-9h34.255v2H73.62z"/><path fill="#92E8E9" d="M75.64 66v-6c0-1.1 1.225-2 2.332-2h26.195c1.11 0 1.698.9 1.698 2v6H75.64z"/><path fill="#4699C7" d="M73.62 74h34.255v2H73.62z"/><path fill="#8D6FC8" d="M75.64 76v-6c0-1.1 1.225-2 2.332-2h26.195c1.11 0 1.698.9 1.698 2v6H75.64z"/><path fill="#FFF" d="M100.137 62c0-.504.193-.959.504-1.311A2.005 2.005 0 0 0 99.13 60c-1.113 0-2.015.896-2.015 2s.902 2 2.015 2c.606 0 1.142-.271 1.51-.689a1.985 1.985 0 0 1-.503-1.311zm1.008 0a1.97 1.97 0 0 0-.504-1.311c.37-.42.906-.689 1.511-.689 1.112 0 2.015.896 2.015 2s-.903 2-2.015 2a2.012 2.012 0 0 1-1.511-.689 1.97 1.97 0 0 0 .504-1.311z"/><path fill="#000" d="M75.635 71h30.225v2H75.635z"/></g><path fill="#F2F2F2" d="M21.064 23.676s1.134-8.586 7.562-8.902c6.428-.315 5.43 5.078.62 4.022 0 0 4.115 3.196 2.003 4.484-2.111 1.286-4.585-.378-4.585-.378s4.932 4.174 1.763 5.23c-3.168 1.057-7.363-4.456-7.363-4.456M12.2 29.448s-7.761-2.882-10.98 2.988c-3.217 5.87 1.79 7.413 3.107 2.428 0 0 .807 5.319 2.861 3.933 2.055-1.385 1.788-4.463 1.788-4.463s1.255 6.53 3.6 4.05c2.347-2.479-.376-8.936-.376-8.936"/><path fill="#98B3CD" d="M27.05 27.45c2.062 4.599.34 9.968-3.845 11.993-4.186 2.025-9.25-.061-11.311-4.66-2.061-4.6-.34-9.97 3.845-11.994 4.185-2.025 9.25.062 11.311 4.66"/><path fill="#F2F2F2" d="M25.79 27.878c1.763 3.934.29 8.528-3.29 10.26-3.582 1.734-7.914-.052-9.678-3.987-1.764-3.935-.291-8.528 3.29-10.261 3.58-1.733 7.914.053 9.677 3.988"/><path fill="#98B3CD" d="M18.509 36.755l-.581-1.057 3.8-2.309c.468-.284.838-.708 1.017-1.162.09-.23.209-.676-.008-1.07-.217-.396-.644-.51-.88-.542-.463-.065-.998.062-1.465.346l-1.645.999c-.677.41-1.438.583-2.144.485-.76-.106-1.394-.527-1.74-1.156l-.125-.227c-.689-1.252-.068-2.989 1.385-3.871l3.8-2.309.582 1.057-3.8 2.308c-.91.553-1.372 1.576-1.01 2.234l.125.226c.217.395.644.509.879.541.464.065.998-.062 1.467-.345l1.644-1c.677-.41 1.438-.583 2.144-.484.76.105 1.394.527 1.74 1.156.346.628.378 1.417.085 2.16a3.542 3.542 0 0 1-1.47 1.71l-3.8 2.31"/><path fill="#98B3CD" d="M20.91 37.016l-5.788-10.522.957-.582 5.79 10.523-.959.581m1.67-1.059l-5.789-10.521.958-.582 5.789 10.522-.957.581"/><path fill="#F2F2F2" d="M42.88 6.015s4.862-4.02 7.973-1.065c3.11 2.956-.075 5.342-1.749 2.442 0 0 .273 3.702-1.347 3.362-1.62-.341-1.914-2.43-1.914-2.43s.154 4.62-1.835 3.642c-1.99-.977-1.128-5.951-1.128-5.951m-6.987-1.233s-2.106-5.307-6.551-3.745c-4.446 1.563-2.927 4.817.199 2.802 0 0-2.32 3.224-.676 3.485 1.644.26 3.077-1.508 3.077-1.508s-2.725 4.087-.395 3.907c2.331-.18 4.346-4.941 4.346-4.941"/><path fill="#98B3CD" d="M43.72 10.934c-1.378 3.45-4.884 5.473-7.829 4.517-2.945-.956-4.215-4.528-2.836-7.978S37.939 2 40.885 2.955c2.945.956 4.214 4.528 2.836 7.979"/><path fill="#F2F2F2" d="M42.925 10.549c-1.18 2.952-4.178 4.682-6.698 3.864-2.52-.817-3.607-3.873-2.427-6.825 1.18-2.953 4.179-4.683 6.699-3.866 2.52.818 3.606 3.874 2.426 6.827"/><path fill="#98B3CD" d="M35.094 11.738l.268-.846 2.912.618c.359.076.743.03 1.055-.125.158-.079.437-.258.537-.574.1-.316-.038-.584-.13-.716-.18-.26-.49-.452-.847-.528l-1.26-.267c-.52-.11-.956-.388-1.23-.784a1.662 1.662 0 0 1-.215-1.46l.058-.182c.316-1.001 1.48-1.625 2.593-1.389l2.912.618-.267.845-2.912-.617c-.697-.148-1.426.172-1.593.699l-.057.18c-.1.317.038.584.13.716.18.26.49.452.848.529l1.26.267c.518.11.955.388 1.23.784.295.425.373.957.214 1.46-.16.504-.543.938-1.054 1.192a2.36 2.36 0 0 1-1.54.197l-2.912-.617"/><path fill="#98B3CD" d="M36.065 13.044l2.663-8.416.733.155L36.8 13.2l-.734-.156m1.302.248l2.662-8.416.734.155-2.663 8.416-.733-.155"/></g></svg>