<svg xmlns="http://www.w3.org/2000/svg" viewBox="0 0 64 64">
    <defs>
        <style>
            .cls-1{fill:#004385;}
            .cls-2{fill:#fff;}
        </style>
    </defs>
    <path class="cls-1" d="M32,0A31.67,31.67,0,0,0,7.54,51.82V45.15A27.92,27.92,0,1,1,59.93,31.69a27.74,27.74,0,0,1-3.84,14.1v6.45A31.66,31.66,0,0,0,32,0Z"/>
    <path class="cls-1" d="M45,17.17,34.29,27.65a4.62,4.62,0,0,0-4.53,0L23.1,21a1.55,1.55,0,0,0-2.19,2.19l6.78,6.78a4.65,4.65,0,1,0,8.63.06l10.87-10.6A1.55,1.55,0,0,0,45,17.17ZM32,33.24a1.55,1.55,0,1,1,1.55-1.55A1.55,1.55,0,0,1,32,33.24Z"/>
    <circle class="cls-2" cx="32" cy="31.69" r="1.55"/>
    <rect class="cls-1" x="10.64" y="45.92" width="42.35" height="18.08"/>
    <path class="cls-2" d="M25,59.94H18.65V58.73l3-3.2a7.22,7.22,0,0,0,.92-1.25,2,2,0,0,0,.27-.95,1.43,1.43,0,0,0-.31-1,1.1,1.1,0,0,0-.89-.37,1.15,1.15,0,0,0-1,.43,1.86,1.86,0,0,0-.33,1.16h-1.8v0a2.79,2.79,0,0,1,.82-2.12,3.08,3.08,0,0,1,2.3-.87,3.21,3.21,0,0,1,2.24.74,2.55,2.55,0,0,1,.82,2,2.78,2.78,0,0,1-.46,1.54,15.25,15.25,0,0,1-1.52,1.86l-1.64,1.79v0H25Z"/>
    <path class="cls-2" d="M31.53,56.51h1v1.43h-1v2H29.68v-2H25.92l-.08-1.11,3.83-6.12h1.87Zm-4,0h2.13V53.18h0l-.15.26Z"/>
    <path class="cls-2" d="M34.64,60.73h-1.8l3.39-10H38Z"/>
    <path class="cls-2" d="M39,55.85l.53-5.14h5.15v1.48H41.07l-.25,2.13a2.21,2.21,0,0,1,.62-.31,2.89,2.89,0,0,1,2.86.68A3.34,3.34,0,0,1,45,57a3.16,3.16,0,0,1-.8,2.21,3,3,0,0,1-2.31.88,3.47,3.47,0,0,1-2.18-.7,2.2,2.2,0,0,1-.88-1.92v0l1.78-.09a1.29,1.29,0,0,0,.35,1,1.24,1.24,0,0,0,.91.35,1.07,1.07,0,0,0,1-.46,2.12,2.12,0,0,0,.31-1.2,2.23,2.23,0,0,0-.33-1.28,1.11,1.11,0,0,0-1-.48,1.42,1.42,0,0,0-.82.2,1.07,1.07,0,0,0-.4.53Z"/>
</svg>