<svg xmlns="http://www.w3.org/2000/svg" viewBox="-16947 -17295 60.434 60">
  <defs>
    <style>
      .cls-1 {
        fill: #004385;
      }
    </style>
  </defs>
  <g id="stock-data-analysis" transform="translate(-16947 -17295.369)">
    <g id="group" transform="translate(0 0.369)">
      <path id="path" class="cls-1" d="M66.743,60.362,54.513,48.132a4.25,4.25,0,0,0-3.853-1.159l-2.846-2.846A16.415,16.415,0,1,0,44.5,47.445l2.846,2.846A4.237,4.237,0,0,0,48.5,54.144L60.731,66.373a4.25,4.25,0,0,0,6.011-6.011ZM42.958,42.589a11.726,11.726,0,1,1,0-16.583A11.738,11.738,0,0,1,42.958,42.589Z" transform="translate(-7.554 -7.618)"/>
      <path id="path-2" data-name="path" class="cls-1" d="M9.247,52.055.257,61.077A.88.88,0,0,0,1.5,62.319l8.431-8.462A17.475,17.475,0,0,1,9.3,52.015C9.285,52.031,9.264,52.038,9.247,52.055Z" transform="translate(0 -21.736)"/>
      <path id="path-3" data-name="path" class="cls-1" d="M63.018,5.366l7.073-2.619L64.974,14.2a17.243,17.243,0,0,1,1.234,1.55l5.4-12.091,2.645,6.681a.88.88,0,0,0,1.636-.647L72.424.925A.879.879,0,0,0,71.3.424L62.409,3.717a.879.879,0,1,0,.61,1.649Z" transform="translate(-25.582 -0.369)"/>
      <path id="path-4" data-name="path" class="cls-1" d="M42.149,33.97a.879.879,0,0,0-1.452.275L34.914,48.459a10.54,10.54,0,0,0,1.559.835l5.34-13.124,6.1,6.413a.88.88,0,0,0,1.44-.247l1.775-3.972a10.481,10.481,0,0,0-.7-2.747l-2.146,4.8Z" transform="translate(-14.444 -14.157)"/>
    </g>
  </g>
</svg>
