<svg xmlns="http://www.w3.org/2000/svg" viewBox="0 0 24 24">
    <defs>
        <style>
            .cls-1{fill:#99b4ce;}
            .cls-2{fill:#004385;}
        </style>
    </defs>
    <path class="cls-1" d="M16,4.13A8,8,0,0,0,1,8v3H2V8A7,7,0,0,1,16,8v3h1V8A8,8,0,0,0,16,4.13Z"/>
    <path class="cls-2" d="M1,23.8A.8.8,0,0,1,.2,23V11a.8.8,0,0,1,.8-.8H17a.8.8,0,0,1,.8.8v.94a5.2,5.2,0,0,0,0,10.12V23a.8.8,0,0,1-.8.8Zm6.8-2.6h2.4V17.88a2.45,2.45,0,1,0-2.4,0Z"/>
    <path class="cls-2" d="M17,10.4a.6.6,0,0,1,.6.6v.78a5.4,5.4,0,0,0,0,10.44V23a.6.6,0,0,1-.6.6H1A.6.6,0,0,1,.4,23V11a.6.6,0,0,1,.6-.6H17M7.6,18V21.4H10.4V18A2.65,2.65,0,1,0,7.6,18M17,10H1a1,1,0,0,0-1,1V23a1,1,0,0,0,1,1H17a1,1,0,0,0,1-1V21.9a5,5,0,0,1,0-9.8V11a1,1,0,0,0-1-1ZM8,21V17.76a2.25,2.25,0,1,1,2,0V21Z"/>
    <path class="cls-1" d="M22.34,14.16l-.5-.5a.85.85,0,0,0-1.2,0L17,17.3V19h1.7l3.64-3.64A.85.85,0,0,0,22.34,14.16Z"/>
</svg>