<svg xmlns="http://www.w3.org/2000/svg" viewBox="0 0 24 24">
    <defs>
        <style>
            .cls-1{fill:#99b4ce;}.cls-2{fill:#fff;}.cls-3{fill:#004385;}.cls-4{fill:#ccd9e7;}
        </style>
    </defs>
    <rect class="cls-1" x="1" y="4.79" width="22" height="12"/>
    <rect class="cls-2" x="2" y="5.79" width="20" height="11"/>
    <path class="cls-1" d="M17.55,4.79a4,4,0,0,0-.55,2,4,4,0,0,0,4,4,4,4,0,0,0,2-.55V4.79ZM22,9.42a2.64,2.64,0,0,1-1.33.37,2.65,2.65,0,0,1-2.3-4H22Z"/>
    <path class="cls-1" d="M6.45,4.79H1v5.45a4,4,0,0,0,2,.55,4,4,0,0,0,4-4A4,4,0,0,0,6.45,4.79Zm-3.11,5A2.64,2.64,0,0,1,2,9.42V5.79H5.63a2.65,2.65,0,0,1-2.3,4Z"/>
    <rect class="cls-3" x="2.1" y="5.14" width="19.8" height="11.31" rx="1" ry="1" transform="translate(-4.12 11.65) rotate(-45)"/>
    <circle class="cls-2" cx="18" cy="7.79" r="2"/><rect class="cls-2" x="10.07" y="4.84" width="6.36" height="1.41" transform="translate(-0.04 10.99) rotate(-45)"/>
    <rect class="cls-4" y="6.79" width="22" height="12"/><rect class="cls-2" x="1" y="7.79" width="20" height="11"/><path class="cls-4" d="M16.55,6.79a4,4,0,0,0-.55,2,4,4,0,0,0,4,4,4,4,0,0,0,2-.55V6.79ZM21,11.42a2.64,2.64,0,0,1-1.33.37,2.65,2.65,0,0,1-2.3-4H21Z"/>
    <path class="cls-4" d="M5.45,6.79H0v5.45a4,4,0,0,0,2,.55,4,4,0,0,0,4-4A4,4,0,0,0,5.45,6.79Zm-3.11,5A2.64,2.64,0,0,1,1,11.42V7.79H4.63A2.64,2.64,0,0,1,5,9.13,2.67,2.67,0,0,1,2.33,11.79Z"/>
    <path class="cls-3" d="M22,8.79H0v14a1,1,0,0,0,1,1H22a1,1,0,0,0,1-1v-13A1,1,0,0,0,22,8.79Z"/><path class="cls-4" d="M17,17.79h7v-3H17a1,1,0,0,0-1,1v1A1,1,0,0,0,17,17.79Z"/>
</svg>