<svg xmlns="http://www.w3.org/2000/svg" viewBox="-22950 -20542 120.865 100">
  <defs>
    <style>
      .cls-1 {
        fill: #004385;
      }
    </style>
  </defs>
  <g id="Group_118" data-name="Group 118" transform="translate(-23232 -22085)">
    <path id="Path_81" data-name="Path 81" class="cls-1" d="M80.789,100H2.29A2.281,2.281,0,0,1,0,97.71V2.29A2.281,2.281,0,0,1,2.29,0h78.5a2.281,2.281,0,0,1,2.29,2.29V50a2.29,2.29,0,1,1-4.58,0V4.707H4.707V95.42H78.5V88.168a2.29,2.29,0,1,1,4.58,0V97.71A2.281,2.281,0,0,1,80.789,100Z" transform="translate(282 1543)"/>
    <path id="Path_82" data-name="Path 82" class="cls-1" d="M57.207,75.161a2.68,2.68,0,0,1-1.654-.636,2.361,2.361,0,0,1-.509-2.672l5.089-9.8c.127-.254.254-.382.382-.636L97.284,24.143a2.38,2.38,0,0,1,3.308,0l4.58,4.453a2.051,2.051,0,0,1,.763,1.654A2.419,2.419,0,0,1,105.3,31.9L68.4,69.181c-.127.127-.382.254-.509.382l-9.669,5.344A1.371,1.371,0,0,1,57.207,75.161Zm6.87-10.687-1.4,2.672,2.672-1.527L100.21,30.25l-1.272-1.272Z" transform="translate(296.93 1549.391)"/>
    <path id="Path_83" data-name="Path 83" class="cls-1" d="M66.934,22.95H11.081A1.739,1.739,0,0,1,9.3,21.169V11.881A1.739,1.739,0,0,1,11.081,10.1H66.934a1.739,1.739,0,0,1,1.781,1.781v9.288A1.739,1.739,0,0,1,66.934,22.95ZM12.862,19.515h52.29V13.662H12.862Z" transform="translate(284.532 1545.75)"/>
    <path id="Path_84" data-name="Path 84" class="cls-1" d="M66.934,39.25H11.081A1.739,1.739,0,0,1,9.3,37.469V28.181A1.739,1.739,0,0,1,11.081,26.4H66.934a1.739,1.739,0,0,1,1.781,1.781v9.288A1.739,1.739,0,0,1,66.934,39.25ZM12.862,35.815h52.29V29.962H12.862Z" transform="translate(284.532 1550.188)"/>
    <path id="Path_85" data-name="Path 85" class="cls-1" d="M67.034,55.55H11.181A1.739,1.739,0,0,1,9.4,53.769V44.481A1.739,1.739,0,0,1,11.181,42.7H67.034a1.739,1.739,0,0,1,1.781,1.781v9.288A1.82,1.82,0,0,1,67.034,55.55ZM12.962,52.115h52.29V46.262H12.962Z" transform="translate(284.559 1554.626)"/>
    <path id="Path_86" data-name="Path 86" class="cls-1" d="M22.814,72.595H12.381A1.739,1.739,0,0,1,10.6,70.814V60.381A1.739,1.739,0,0,1,12.381,58.6H22.814a1.739,1.739,0,0,1,1.781,1.781V70.814A1.912,1.912,0,0,1,22.814,72.595ZM14.035,69.16h7v-7h-7Z" transform="translate(284.886 1558.955)"/>
    <path id="Path_87" data-name="Path 87" class="cls-1" d="M38.914,72.595H28.481A1.739,1.739,0,0,1,26.7,70.814V60.381A1.739,1.739,0,0,1,28.481,58.6H38.914a1.739,1.739,0,0,1,1.781,1.781V70.814A1.82,1.82,0,0,1,38.914,72.595ZM30.135,69.16h7v-7h-7Z" transform="translate(289.269 1558.955)"/>
    <path id="Path_88" data-name="Path 88" class="cls-1" d="M53.6,72.595H45.581A1.739,1.739,0,0,1,43.8,70.814V60.381A1.739,1.739,0,0,1,45.581,58.6h7.888a1.781,1.781,0,1,1,0,3.562H47.235v7H53.6a1.739,1.739,0,0,1,1.781,1.781A1.71,1.71,0,0,1,53.6,72.595Z" transform="translate(293.925 1558.955)"/>
  </g>
</svg>
