<svg id="Layer_1" data-name="Layer 1" xmlns="http://www.w3.org/2000/svg" viewBox="0 0 16 16"><defs><style>.cls-1{fill:#004385;}</style></defs><title>lowcost</title><path class="cls-1" d="M14,13.29A8,8,0,0,0,2.71,2l0,0L2,2.7l0,0A8,8,0,0,0,13.29,14l0,0,.35-.35h0L14,13.3ZM8,1a7,7,0,0,1,5.29,11.58l-3-3s0-.05,0-.08c0-1.24-1-1.67-2-1.94L6.93,6.22A1.2,1.2,0,0,1,8,5.73c.79,0,1.08.38,1.11.93h1A1.77,1.77,0,0,0,8.71,5V4H7.37V5a2.25,2.25,0,0,0-1.13.58L3.42,2.71A7,7,0,0,1,8,1ZM8,15A7,7,0,0,1,2.71,3.42L5.82,6.53s0,0,0,0c0,.94.72,1.45,1.79,1.75L9.13,9.84A1.19,1.19,0,0,1,8,10.27c-.92,0-1.28-.41-1.32-.93h-1A1.86,1.86,0,0,0,7.37,11v1H8.71V11a2.21,2.21,0,0,0,1.11-.52l2.76,2.76A7,7,0,0,1,8,15Z"/></svg>
