<svg xmlns="http://www.w3.org/2000/svg" viewBox="0 0 24 24">
    <defs>
        <style>
            .cls-1{fill:#ccd9e7;}.cls-2{fill:#004385;}
        </style>
    </defs>
    <path class="cls-1" d="M17.49,7.73l-.71.71a4.45,4.45,0,0,1,0,6.12l.71.71a5.48,5.48,0,0,0,0-7.55Z"/>
    <path class="cls-1" d="M16.08,9.15l-.71.71a2.46,2.46,0,0,1,0,3.29l.71.71a3.46,3.46,0,0,0,0-4.71Z"/>
    <path class="cls-1" d="M13.94,11.28l-.22.22.22.22.72.72a1.47,1.47,0,0,0,0-1.88Z"/>
    <polygon class="cls-1" points="10 7 8 7 8 6 7 6 7 7 5 7 4 7 4 8 4 10 4 11 5 11 10 11 10 13 8 13 7 13 5 13 5 12 4 12 4 13 4 14 5 14 7 14 7 15 8 15 8 14 10 14 11 14 11 13 11 11 11 10 10 10 5 10 5 8 7 8 8 8 10 8 10 9 11 9 11 8 11 7 10 7"/>
    <path class="cls-2" d="M15,6V1a1,1,0,0,0-1-1H1A1,1,0,0,0,0,1V23a1,1,0,0,0,1,1H14a1,1,0,0,0,1-1V16H13v3H2V2H13V6ZM5,21h5v1H5Z"/>
</svg>