<svg width="20" height="20" viewBox="0 0 20 20" xmlns="http://www.w3.org/2000/svg"><title>Email</title><g fill-rule="nonzero" fill="none"><path d="M18 0H2C.9 0 0 .9 0 2v16c0 1.1.9 2 2 2h16c1.1 0 2-.9 2-2V2c0-1.1-.9-2-2-2z" fill="#FFF"/><path d="M17.5 10.64v5.34c0 .844-.701 1.52-1.557 1.52H5.066c-.315 0-.622-.094-.88-.267l-.168-.123a1.504 1.504 0 0 1-.518-1.13V10.65a1.5 1.5 0 0 1 .413-1.037.668.668 0 0 1 .086-.103l6.043-5.828a.655.655 0 0 1 .906.001l6.073 5.86c.311.305.478.692.479 1.099zM5.396 9.973l5.108 4.922 5.1-4.922-5.1-4.922-5.108 4.922zm2.525 4.24l-2.072 1.997h4.152l-2.08-1.998zm7.232 1.997l-2.08-2.003-2.076 2.003h4.156zm-8.168-2.903L4.811 11.21v4.192l2.174-2.096zm9.213-2.106l-2.185 2.106 2.185 2.105V11.2z" fill="#000"/><path d="M10.514 7H10.5a3 3 0 0 0-3 3.014C7.508 11.66 8.888 13 10.578 13h.11a.375.375 0 0 0 0-.75h-.11c-1.278 0-2.322-1.005-2.328-2.24a2.25 2.25 0 0 1 2.25-2.26h.01c1.235.006 2.24 1.05 2.24 2.328v.86a.375.375 0 1 1-.75 0V10a1.505 1.505 0 1 0-.7 1.267 1.125 1.125 0 0 0 2.2-.33v-.86c0-1.689-1.34-3.07-2.986-3.077zm-.014 3.75a.75.75 0 1 1 0-1.5.75.75 0 0 1 0 1.5z" fill="#000"/></g></svg>