<?xml version="1.0" encoding="UTF-8"?>
<svg width="20px" height="20px" viewBox="0 0 20 20" version="1.1" xmlns="http://www.w3.org/2000/svg" xmlns:xlink="http://www.w3.org/1999/xlink">
    <!-- Generator: Sketch 46.2 (44496) - http://www.bohemiancoding.com/sketch -->
    <title>Linkedin</title>
    <desc>Created with Sketch.</desc>
    <defs></defs>
    <g id="About-Us" stroke="none" stroke-width="1" fill="none" fill-rule="evenodd">
        <g id="About-Us-v2" transform="translate(-758.000000, -3146.000000)" fill-rule="nonzero" fill="#FFFFFF">
            <g id="ChampionFX-Management" transform="translate(185.000000, 2366.000000)">
                <g id="Athol-Nourse" transform="translate(0.000000, 563.000000)">
                    <g id="Black-Line" transform="translate(0.000000, 198.000000)">
                        <path d="M591,19 L575,19 C573.9,19 573,19.9 573,21 L573,37 C573,38.1 573.9,39 575,39 L591,39 C592.1,39 593,38.1 593,37 L593,21 C593,19.9 592.1,19 591,19 Z M579,36 L576,36 L576,27 L579,27 L579,36 Z M577.5,25.3 C576.5,25.3 575.7,24.5 575.7,23.5 C575.7,22.5 576.5,21.7 577.5,21.7 C578.5,21.7 579.3,22.5 579.3,23.5 C579.3,24.5 578.5,25.3 577.5,25.3 Z M590,36 L587,36 L587,30.7 C587,29.9000392 586.3,29.2 585.5,29.2 C584.7,29.2 584,29.9000392 584,30.7 L584,36 L581,36 L581,27 L584,27 L584,28.2 C584.5,27.4 585.6,26.8 586.5,26.8 C588.4,26.8 590,28.4 590,30.3 L590,36 Z" id="Linkedin"></path>
                    </g>
                </g>
            </g>
        </g>
    </g>
</svg>