<svg xmlns="http://www.w3.org/2000/svg" width="51" height="60" viewBox="0 0 51 60">
    <g fill="none">
        <g fill="#BFD0E0">
            <path d="M40.4 19.8L10 19.8C9.3 19.8 8.8 20.4 8.8 21L8.8 46.6C8.8 47.2 9.3 47.8 10 47.8L15.4 47.8 15.4 56.4C15.4 58.4 17 60 19 60L19 60C21 60 22.6 58.4 22.6 56.4L22.6 47.8 27.7 47.8 27.7 56.4C27.7 58.4 29.3 60 31.3 60L31.3 60C33.3 60 34.9 58.4 34.9 56.4L34.9 47.8 40.4 47.8C41.1 47.8 41.7 47.2 41.7 46.6L41.7 21C41.7 20.4 41.1 19.8 40.4 19.8ZM3.6 19.8L3.6 19.8C1.6 19.8 0 21.4 0 23.4L0 38.1C0 40.1 1.6 41.7 3.6 41.7L3.6 41.7C5.6 41.7 7.2 40.1 7.2 38.1L7.2 23.4C7.2 21.4 5.6 19.8 3.6 19.8ZM46.8 19.8L46.8 19.8C44.8 19.8 43.2 21.4 43.2 23.4L43.2 38.1C43.2 40.1 44.8 41.7 46.8 41.7L46.8 41.7C48.8 41.7 50.4 40.1 50.4 38.1L50.4 23.4C50.4 21.4 48.8 19.8 46.8 19.8ZM10.2 18L40.1 18C40.9 18 41.5 17.3 41.3 16.5 40.3 11.8 37.3 7.9 33.3 5.6L35.8 1C36 0.6 35.9 0.3 35.6 0.1 35.2-0.1 34.9 0 34.7 0.3L32.1 5C30 4 27.7 3.5 25.2 3.5 22.7 3.5 20.4 4 18.2 5L15.7 0.3C15.5 0 15.1-0.1 14.8 0.1 14.5 0.3 14.4 0.6 14.5 1L17.1 5.6C13 7.9 10 11.8 9 16.5 8.9 17.3 9.5 18 10.2 18ZM34.1 11.2C34.1 11.9 33.5 12.5 32.7 12.5 31.9 12.5 31.3 11.9 31.3 11.2 31.3 10.4 31.9 9.8 32.7 9.8 33.5 9.8 34.1 10.4 34.1 11.2ZM17.7 9.8C18.4 9.8 19 10.4 19 11.2 19 11.9 18.4 12.5 17.7 12.5 16.9 12.5 16.3 11.9 16.3 11.2 16.3 10.4 16.9 9.8 17.7 9.8Z"/>
        </g>
    </g>
</svg>