<svg xmlns="http://www.w3.org/2000/svg" width="100" height="100" viewBox="0 0 100 100">
    <style>
        .a{
        fill:#004385;
        }
    </style>
    <g fill="none">
        <path d="M100 50C100 77.6 77.6 100 50 100 22.4 100 0 77.6 0 50 0 22.4 22.4 0 50 0 77.6 0 100 22.4 100 50" fill="#F2F2F2"/>
        <path d="M19.8 71.6L62.1 71.6C62.1 71.4 62.1 71.1 62.1 70.9 62.1 60.6 52.6 52.3 40.9 52.3 29.3 52.3 19.8 60.6 19.8 70.9 19.8 71.1 19.8 71.4 19.8 71.6L19.8 71.6ZM66.2 75.4L15.7 75.4 15.4 73.7C15.3 72.8 15.2 71.8 15.2 70.9 15.2 58.5 26.8 48.4 40.9 48.4 55.1 48.4 66.7 58.5 66.7 70.9 66.7 71.8 66.6 72.8 66.5 73.7L66.2 75.4Z" class="a"/>
        <path d="M19.8 71.6L62.1 71.6C62.1 71.4 62.1 71.1 62.1 70.9 62.1 60.6 52.6 52.3 40.9 52.3 29.3 52.3 19.8 60.6 19.8 70.9 19.8 71.1 19.8 71.4 19.8 71.6ZM66.2 75.4L15.7 75.4 15.4 73.7C15.3 72.8 15.2 71.8 15.2 70.9 15.2 58.5 26.8 48.4 40.9 48.4 55.1 48.4 66.7 58.5 66.7 70.9 66.7 71.8 66.6 72.8 66.5 73.7L66.2 75.4Z" stroke="#004385"/>
        <path d="M40.9 22.5C36 22.5 32 26.5 32 31.5 32 36.4 36 40.4 40.9 40.4 45.9 40.4 49.9 36.4 49.9 31.5 49.9 26.5 45.9 22.5 40.9 22.5M40.9 45.4C33.3 45.4 27 39.1 27 31.5 27 23.8 33.3 17.5 40.9 17.5 48.6 17.5 54.9 23.8 54.9 31.5 54.9 39.1 48.6 45.4 40.9 45.4" class="a"/>
        <g transform="translate(-1037 -661)translate(185 440)translate(733 191)translate(119 30)translate(50 47)">
            <path d="M34.8 18.2C34.8 27.8 27.1 35.5 17.5 35.5 8 35.5 0.2 27.8 0.2 18.2 0.2 8.7 8 0.9 17.5 0.9 27.1 0.9 34.8 8.7 34.8 18.2" class="a"/>
            <path d="M26 16.9C26.5 16.9 26.9 16.5 26.9 16L26.9 15.4C26.9 15.1 26.8 14.8 26.5 14.7L18 8.9C17.7 8.7 17.3 8.7 17 8.9L8.5 14.7C8.2 14.8 8.1 15.1 8.1 15.4L8.1 16C8.1 16.5 8.5 16.9 9 16.9L9.6 16.9 9.6 25.5 8.4 25.5C8.2 25.5 8.1 25.6 8.1 25.8L8.1 27.4C8.1 27.5 8.2 27.7 8.4 27.7L26.7 27.7C26.8 27.7 27 27.5 27 27.4L27 25.8C27 25.6 26.8 25.5 26.7 25.5L25.4 25.5 25.4 16.9 26 16.9Z" fill="#FFF"/>
            <path d="M17.5 11.6C16.5 11.6 15.7 12.4 15.7 13.4 15.7 14.4 16.5 15.2 17.5 15.2 18.5 15.2 19.3 14.4 19.3 13.4 19.3 12.4 18.5 11.6 17.5 11.6" class="a"/>
            <polygon points="18.6 25.5 22.1 25.5 22.1 16.9 18.6 16.9" class="a"/>
            <polygon points="17.2 25.5 17.8 25.5 17.8 16.9 17.2 16.9" class="a"/>
            <polygon points="12.9 25.5 16.4 25.5 16.4 16.9 12.9 16.9" class="a"/>
            <polygon points="11.4 25.5 12.1 25.5 12.1 16.9 11.4 16.9" class="a"/>
            <polygon points="23 25.5 23.6 25.5 23.6 16.9 23 16.9" class="a"/>
        </g>
    </g>
</svg>
 