<?xml version="1.0" encoding="UTF-8"?>
<svg width="40px" height="40px" viewBox="0 0 40 40" version="1.1" xmlns="http://www.w3.org/2000/svg" xmlns:xlink="http://www.w3.org/1999/xlink">
    <!-- Generator: Sketch 44.1 (41455) - http://www.bohemiancoding.com/sketch -->
    <title>Icon / Call Back</title>
    <desc>Created with Sketch.</desc>
    <defs></defs>
    <g id="Contact-Us" stroke="none" stroke-width="1" fill="none" fill-rule="evenodd">
        <g transform="translate(-500.000000, -233.000000)" id="Banner" fill="#FFFFFF">
            <g transform="translate(0.000000, 80.000000)">
                <g id="Text-v2" transform="translate(335.000000, 153.000000)">
                    <g id="Call-Back">
                        <g id="Icon-/-Call-Back" transform="translate(165.000000, 0.000000)">
                            <g id="Icon">
                                <path d="M14.0332874,22.4224046 C13.0778989,21.5112276 12.4474483,20.4084 12.3264966,19.3541931 C12.2289333,18.3321563 12.5386667,17.2645425 13.9825057,15.9710529 C14.4604598,15.5428736 15.0852368,15.0152092 15.3946575,14.0915632 C15.7041057,13.1678897 15.4966437,12.1018759 14.9273333,11.0436736 C13.3400598,9.07661609 11.8889379,6.85050575 10.4571172,5.19175632 C9.47468966,4.20932414 8.05511724,3.90851494 7.00284138,4.23677241 C6.00927356,4.54382529 5.24314943,5.22195402 4.6052,5.84196782 C1.00861149,9.43855632 -0.499954023,13.1386621 0.145144828,16.8651126 C0.79023908,20.5915678 3.35355402,24.0967172 7.20605057,27.9492138 C8.72976552,29.4729287 10.4051034,31.1482667 11.7575402,32.500708 C15.6100368,36.3532046 19.1151908,38.9165241 22.841646,39.5616184 C26.5681011,40.206708 30.2682023,38.6981471 33.8647908,35.1015586 C34.4848,34.4636046 35.1629379,33.6974851 35.4699862,32.7039126 C35.7982575,31.651646 35.4974345,30.232069 34.5150069,29.2496414 C32.8562529,27.8178161 30.6301471,26.3666989 28.6630851,24.7794253 C27.604892,24.2100966 26.5388736,24.0026529 25.6152,24.3121011 C24.691554,24.6215218 24.1639034,25.2463126 23.7357057,25.7242483 C22.4422161,27.168092 21.3746023,27.4778299 20.3525655,27.3802621 C19.2983586,27.2593103 18.1953977,26.6289885 17.284354,25.6734667 L14.0332874,22.4224046 Z M8.476,7.11191724 L12.5093701,12.3847218 C12.8206161,12.9868092 12.7924506,13.1612506 12.7735172,13.2178115 C12.7535632,13.2773195 12.5870253,13.5114299 12.1436046,13.9086759 C10.2195816,15.6323448 9.40156322,17.7133701 9.58341149,19.6183448 C9.76427586,21.5133609 10.8024,23.1262805 12.0826483,24.3730437 C13.2704138,25.5608092 14.1793747,26.4697701 15.3337149,27.6241103 C16.5803172,28.9045241 18.1933977,29.9424828 20.0884138,30.1233471 C21.9933885,30.3051954 24.0744138,29.487177 25.7980828,27.5631494 C26.1953011,27.1197103 26.4294391,26.9531862 26.4889379,26.933223 C26.5455218,26.9142805 26.7199356,26.8861287 27.3220184,27.1973839 L32.5948414,31.2307724 C32.9712184,31.6136506 32.9193103,31.622469 32.8386713,31.8809793 C32.7552966,32.1482621 32.3895172,32.660777 31.9141517,33.1509287 C29.8076506,35.2654851 26.3194667,37.6398851 23.3191586,36.8490023 C20.5582621,36.3710667 17.3923862,34.2342897 13.7081793,30.5500736 C12.1844644,29.0263632 10.5091264,27.3510253 9.15668966,25.9985839 C5.47247816,22.314377 3.33569655,19.1485011 2.85776552,16.3876046 C2.06687816,13.3872966 4.44126437,9.89910345 6.55583448,7.79261609 C7.04611494,7.31745747 7.55850575,6.95148046 7.82578391,6.86809655 C8.04081839,6.79742529 8.22307586,6.80655632 8.476,7.11191724 L8.476,7.11191724 Z" id="Shape" fill-rule="nonzero"></path>
                                <path d="M29.8850575,0.166528736 C29.1232874,0.166528736 28.5057471,0.784045977 28.5057471,1.54583908 C28.5057471,2.30758621 29.1232874,2.92514943 29.8850575,2.92514943 L34.8275862,2.92514943 L23.3908046,14.361931 C22.8521517,14.9005977 22.8521333,15.7772874 23.3908046,16.315954 C23.9294391,16.8545747 24.8061747,16.8546207 25.3448276,16.315954 L36.7816092,4.87917241 L36.7816092,9.82170115 C36.7816092,10.5834943 37.3991724,11.2010115 38.1609195,11.2010115 C38.9227126,11.2010115 39.5402299,10.5834943 39.5402299,9.82170115 L39.5402299,1.54583908 C39.5402299,0.784045977 38.9226897,0.166528736 38.1609195,0.166528736 L29.8850575,0.166528736 Z" id="Shape" fill-rule="nonzero"></path>
                            </g>
                        </g>
                    </g>
                </g>
            </g>
        </g>
    </g>
</svg>