<?xml version="1.0" encoding="UTF-8"?>
<svg width="42px" height="42px" viewBox="0 0 42 42" version="1.1" xmlns="http://www.w3.org/2000/svg" xmlns:xlink="http://www.w3.org/1999/xlink">
    <!-- Generator: Sketch 44.1 (41455) - http://www.bohemiancoding.com/sketch -->
    <title>Icon / Hour</title>
    <desc>Created with Sketch.</desc>
    <defs></defs>
    <g id="Contact-Us" stroke="none" stroke-width="1" fill="none" fill-rule="evenodd">
        <g transform="translate(-894.000000, -232.000000)" id="Banner" stroke="#FFFFFF" fill="#FFFFFF">
            <g transform="translate(0.000000, 80.000000)">
                <g id="Text-v2" transform="translate(335.000000, 153.000000)">
                    <g id="Working-Hours" transform="translate(400.000000, 0.000000)">
                        <g id="Icon-/-Hour" transform="translate(160.000000, 0.000000)">
                            <g id="Icon">
                                <path d="M20,0 C8.972,0 0,8.972 0,20 C0,31.028 8.972,40 20,40 C31.028,40 40,31.028 40,20 C40,8.972 31.028,0 20,0 Z M20,37.7777778 C10.1973333,37.7777778 2.22222222,29.8026667 2.22222222,20 C2.22222222,10.1973333 10.1973333,2.22222222 20,2.22222222 C29.8026667,2.22222222 37.7777778,10.1973333 37.7777778,20 C37.7777778,29.8026667 29.8026667,37.7777778 20,37.7777778 Z" id="Shape" fill-rule="nonzero"></path>
                                <path d="M27.2911111,22.9266667 L21.1111111,19.3586667 L21.1111111,7.77777778 C21.1111111,7.164 20.6137778,6.66666667 20,6.66666667 C19.3862222,6.66666667 18.8888889,7.164 18.8888889,7.77777778 L18.8888889,20 C18.8888889,20.3968889 19.1008889,20.7635556 19.4444444,20.9622222 L26.18,24.8511111 C26.3551111,24.9524444 26.5457778,25 26.7346667,25 C27.1182222,25 27.492,24.8004444 27.6977778,24.4444444 C28.0048889,23.9128889 27.8226667,23.2333333 27.2911111,22.9266667 Z" id="Shape" fill-rule="nonzero"></path>
                            </g>
                        </g>
                    </g>
                </g>
            </g>
        </g>
    </g>
</svg>