<svg id="Layer_1" data-name="Layer 1" xmlns="http://www.w3.org/2000/svg" viewBox="0 0 300 88.6"><defs><style>.cls-1{fill:#004385;fill-rule:evenodd;}</style></defs><title>Artboard 3</title><path class="cls-1" d="M0,41.49A119.78,119.78,0,0,1,36.21,60a16.4,16.4,0,0,1,1.56,1.23c-.12-.06-.5-.23-1.31-.64-1.78-.9-5.33-2.7-8.48-4.25s-5.9-2.83-9.32-4.17c-1-.39-2-.78-3.08-1.15-.95,3.35-1.87,8-1.52,11.24a12.27,12.27,0,0,1,6.38-4.85c-3.51,5.23-5.17,12.68,1.69,19.88-.14-.28-1-7.45,2.55-10.84-.25,8.18,6.25,17.44,13.62,17.78a13.65,13.65,0,0,1-3.09-9.13c5,7.38,16.84,12.23,16.89,12.17s-7.34-9.42-7.79-17.67c4.23,8,7.53,7.68,13.69,17.09,1-3.33.25-5.38-.77-8.86A43.25,43.25,0,0,1,68.6,88.6C65.14,72.67,25.61,42.12,0,41.49Z"/><path class="cls-1" d="M46.24,18.64c.89-.36,2.16-.83,3.18-1.17s1.79-.52,2.18-.61.38-.09.5-1,.33-2.76.63-4.43.65-3.17.93-4.27.48-1.82.58-2.17l.1-.36-.43.59a20.79,20.79,0,0,1-2.3,2.72,15.15,15.15,0,0,1-3,2.2,3.52,3.52,0,0,1-2.1.61,4.19,4.19,0,0,1-2.37-1,9.12,9.12,0,0,1-2.17-3.08,41.93,41.93,0,0,1-1.64-4.22c-.4-1.16-.6-1.8-.71-2.11L39.47,0l-.23,1c-.22,1-.67,3.07-1.12,5a33,33,0,0,1-1.52,5,7.69,7.69,0,0,1-2.14,3,5.55,5.55,0,0,1-2.76,1.22,4.67,4.67,0,0,1-2.94-.65A20.48,20.48,0,0,1,25.15,12a39,39,0,0,1-3-3.08c-.87-1-1.6-1.83-2-2.27l-.37-.43.06,1.05a40.82,40.82,0,0,1,0,4.79,9.77,9.77,0,0,1-.94,3.73,4.61,4.61,0,0,1-1.75,2,4.85,4.85,0,0,1-2.41.6A7.3,7.3,0,0,1,13,18.12L12.61,18l2.05,1.84,8.21,7.37c2.05,1.84,2.05,1.84,2.77,1.72l2.89-.48c.72-.12.72-.12.9-.65a13.81,13.81,0,0,1,1.16-2.61A7.45,7.45,0,0,1,33,22.7,6.19,6.19,0,0,1,36,22c1,0,2.06,0,2.58,0a1.42,1.42,0,0,0,1-.22L42,20.61l2.18-1.07c.61-.3,1.13-.54,2-.89ZM40.5,11.79a1.65,1.65,0,0,0-.79,2.13c.27,1,1.07,1.61,1.78,1.41a1.65,1.65,0,0,0,.79-2.13c-.27-1-1.07-1.61-1.78-1.41Zm-16.36,5.3a1.86,1.86,0,0,0-.08,2.57,1.86,1.86,0,0,0,2.42.87A1.86,1.86,0,0,0,26.56,18a1.86,1.86,0,0,0-2.42-.87Z"/><path class="cls-1" d="M48.23,8.83A2.75,2.75,0,0,1,47,9.27,3.19,3.19,0,0,1,45.45,9a2.93,2.93,0,0,1-1-.85,6.89,6.89,0,0,1-.5-.7l-.09-.14L44.06,7a15,15,0,0,1,1.16-1.32c.53-.53,1.17-1.05,1.49-1.31s.32-.26.54.13.66,1.16,1,1.85A13.93,13.93,0,0,1,48.83,8l.1.3-.1.09a4.36,4.36,0,0,1-.6.45Z"/><path class="cls-1" d="M34.52,11.22a9,9,0,0,1-1.31,1.61,2.59,2.59,0,0,1-1.67.79,5.44,5.44,0,0,1-2.29-.4,6.93,6.93,0,0,1-1.56-.92l-.28-.21.13-.44c.13-.44.39-1.31.79-2.38s.95-2.33,1.22-3,.27-.63.83-.24S32,7.24,32.92,8a22.49,22.49,0,0,1,1.85,1.74l.33.34-.07.17a5.53,5.53,0,0,1-.52,1Z" /><path class="cls-1" d="M17.75,15.53a2.76,2.76,0,0,1-.86,1,3.17,3.17,0,0,1-1.52.5,2.94,2.94,0,0,1-1.3-.26,7.1,7.1,0,0,1-.77-.38l-.14-.08.06-.33a14.84,14.84,0,0,1,.39-1.71c.22-.72.53-1.48.69-1.86s.16-.38.53-.15,1.13.71,1.74,1.16a13.87,13.87,0,0,1,1.3,1.12l.23.22,0,.13a4.62,4.62,0,0,1-.31.68Z"/><path class="cls-1" d="M46.25,40.33c-5.66,4-3.87,13.39,2.07,14.66,4.92,1,7.61.41,11.34,4.84.74,1,1.21,2.41,3.61.51-.83-2.16.76-4,.81-6.11l-.13.14-.11.13a2.77,2.77,0,0,1-2.26.78,2.75,2.75,0,0,0-.7-1.16c-1.29.48-3.62-.37-3.82-1.7q0-.18-.08-.36l.32,0c.91.08,1.64.11,2.33.11a8.93,8.93,0,0,0,2.06-.2,9.17,9.17,0,0,0,1.84-.65c.4-.2.46-.32.34-.37a6.17,6.17,0,0,0-.89-.07c-.5,0-1.23-.14-2-.26a8.69,8.69,0,0,1-2.08-.56,7.15,7.15,0,0,1-1.56-1l-.24-.2a3.6,3.6,0,0,1,1-1.47c.64-.55.78-.55,1.77-.3a14.6,14.6,0,0,1,3.31,1.65l.56-.83c1.31.86,1.59,2.72,1.53,4.24,1.39-.49,3.5-5.56,2.74-7.79a6.46,6.46,0,0,0,1-1.13,6.91,6.91,0,0,0,.8-1.55L59.58,35.84l.66-1.59c-10.39-5.42.06-7.14-6.91-15-.8-.91-11.23,3.47-13.81,5-8.65-1.06-7.85,5.62-8.62,5.74C24.11,31,19.75,32.71,18.73,38.17a8.67,8.67,0,0,1,5.88-.42s-.06,0-.07.07a31.15,31.15,0,0,0-4.18,3.78c-5.14-1.32-13.08-.93-15.54-.7C33,45.72,56.41,63.06,69.91,78.42c-1.11-5.88-6.1-10.64-10.78-14.09-6.6-4.85-9.93-6.52-14.84-10.06a7.71,7.71,0,0,1-3.05-6.87c.31-6.44,5-7.07,5-7.07Zm.32-16.55c1.1-.51,2.29-1,3.22-1.35a13.1,13.1,0,0,1,1.91-.52c.33-.06.33-.06.51.27a7.22,7.22,0,0,1,.71,1.71,6.22,6.22,0,0,1,.11,2,2.19,2.19,0,0,1-.18.76c0,.09,0,.09-.33-.41l-1.15-2c-.29-.5-.29-.5-.8-.45a25.62,25.62,0,0,0-2.82.42c-1.28.27-2.79.69-3.55.91s-.76.22-.25,0,1.53-.75,2.63-1.26Zm-2.2,6.36c-1.5-2.52-6.12-3.31-8.66-3,.36.52,1.36,1.16,1.39,2.2.11,3.82-13,2.35-15.66,6.53,5.13-3.37,20.79-1.44,17.09-7.48a10.73,10.73,0,0,1,5.84,1.71Zm13,6.29c-.1-.06,0,0-.27-.14-1.12-.41-2.84-.26-5.51-1.88l-.66.61c1.72.66,1.69,1.83,1.65,3.35.8-1,3-1.37,4.76-1.37v-.56Z"/><path class="cls-1" d="M98.85,58a10.79,10.79,0,0,1-.8.9A8.2,8.2,0,1,1,86.45,47.27a8.2,8.2,0,0,1,11-.58V42.28l-.52-.23a11.63,11.63,0,0,0-4.67-.93,12,12,0,0,0-8.44,3.48,11.81,11.81,0,0,0-3.51,8.47A11.94,11.94,0,0,0,92.25,65a12.2,12.2,0,0,0,4.67-.93,13.84,13.84,0,0,0,1.93-1V58Zm20.61-16.84h-3.73V51.33h-9.53V41.12h-3.74V65h3.74V54.71h9.53V65h3.73V41.12Zm20,23.89h4.09L133.14,40l-10.4,25h4.12l2-5.12h8.5l2,5.12Zm-9.18-8.47,2.9-7.28,2.9,7.28ZM169.3,65V40L158.06,56.77,146.83,40V65h3.74V52.33l7.5,11.14,7.47-11.14V65Zm5-23.89V65H178V56.93h3.35a7.59,7.59,0,0,0,6-2.38A8,8,0,0,0,189.27,49a8,8,0,0,0-1.93-5.54,7.7,7.7,0,0,0-6-2.35h-7.08ZM184.85,52.3a4.51,4.51,0,0,1-3.48,1.26H178V44.47h3.35a4.52,4.52,0,0,1,3.48,1.29,5.56,5.56,0,0,1,0,6.54ZM196.09,65V41.12h-3.74V65Zm16.13,0a12.2,12.2,0,0,0,4.67-.93,12.58,12.58,0,0,0,3.8-2.58,11.75,11.75,0,0,0,2.54-3.8,11.92,11.92,0,0,0,.93-4.64,12.2,12.2,0,0,0-.93-4.67,11.77,11.77,0,0,0-6.34-6.34,12.2,12.2,0,0,0-4.67-.93,11.92,11.92,0,0,0-4.64.93,11.75,11.75,0,0,0-3.8,2.54,12.58,12.58,0,0,0-2.58,3.8,12.2,12.2,0,0,0-.93,4.67A11.94,11.94,0,0,0,212.22,65Zm0-20.16a8.25,8.25,0,1,1-5.8,2.42,8.16,8.16,0,0,1,5.8-2.42Zm34.94,21.25v-25h-3.77V56.45L228.39,40V65h3.74V49.66l15,16.45Zm18.39-21.64h10.63V41.12H261.81V65h3.74V54.23h8.73V50.85h-8.73V44.47ZM300,65l-8.73-12.78,7.6-11.11h-4.7l-5.25,7.66-5.22-7.66H279l7.57,11.11L277.88,65h4.7l6.34-9.34L295.3,65Z"/><path class="cls-1" d="M92.89,70.86H91.57l-2,5.07-1.37-3.22-.67-1.57-.62,1.59-1.28,3.2-2.17-5.07H82.11l3.53,8,1.91-4.64,2,4.64,3.31-8Zm8.91,0h-1.2v3.29H97.53V70.86h-1.2v7.7h1.2V75.24h3.07v3.32h1.2v-7.7Zm5,1.08h3.41V70.86h-4.62v7.7h4.62V77.47h-3.41V75.09h2.81V74h-2.81V71.94Zm10.35,3.84a2.15,2.15,0,0,0,.89-.59,2.86,2.86,0,0,0,0-3.56,2.45,2.45,0,0,0-1.92-.77h-2.28v7.7h1.2V76h.88l1.94,2.6h1.36l-2.08-2.78Zm-2.11-.9V72h1.08a1.41,1.41,0,0,1,1.11.41,1.79,1.79,0,0,1,0,2.11,1.42,1.42,0,0,1-1.11.42Zm8.53-2.94H127V70.86h-4.62v7.7H127V77.47h-3.41V75.09h2.81V74h-2.81V71.94Zm15.1-1.08h-5.45v1.08h2.12v6.62h1.21V71.94h2.12V70.86Zm8.79,0h-1.2v3.29h-3.07V70.86H142v7.7h1.2V75.24h3.07v3.32h1.2v-7.7Zm5,1.08h3.41V70.86h-4.62v7.7h4.62V77.47h-3.41V75.09h2.81V74h-2.81V71.94Zm15.8,4.35a3.43,3.43,0,0,1-.26.29,2.64,2.64,0,1,1-3.74-3.74,2.64,2.64,0,0,1,3.54-.19V71.24l-.17-.07a3.75,3.75,0,0,0-1.5-.3,3.67,3.67,0,0,0-1.49.3,3.63,3.63,0,0,0-1.22.82,3.81,3.81,0,0,0-1.13,2.73,3.85,3.85,0,0,0,3.85,3.85,3.93,3.93,0,0,0,1.5-.3,4.41,4.41,0,0,0,.62-.33V76.29Zm8,1.18h-3.22V70.86h-1.2v7.7h4.42V77.47Zm4.29,1.09v-7.7h-1.2v7.7Zm5-6.62H189V70.86h-4.62v7.7H189V77.47h-3.41V75.09h2.81V74h-2.81V71.94Zm13.09,7V70.86h-1.21V75.8l-4.83-5.3v8.06h1.2V73.61l4.85,5.3Zm8.76-8.05H202v1.08h2.12v6.62h1.21V71.94h2.12V70.86Zm7.63,7.7v-7.7h-1.2v7.7Zm7.82-2.63a2.3,2.3,0,0,0-.67-1l-.58-.56h0l-1.29-1.23c-.32-.31-.33-.55-.29-.7a.71.71,0,0,1,.56-.45,1,1,0,0,1,1,.44l.94-.76a2.6,2.6,0,0,0-1-.78,2.05,2.05,0,0,0-1.14-.08,2,2,0,0,0-.92.44,1.75,1.75,0,0,0-.57.86,1.65,1.65,0,0,0,0,1,2.19,2.19,0,0,0,.59.92l.94.89.94.91a.9.9,0,0,1,.35.87,1,1,0,0,1-.81.64,1.18,1.18,0,0,1-.71-.06,1.71,1.71,0,0,1-.76-.6l-1,.75a3,3,0,0,0,1.28,1,2.5,2.5,0,0,0,.91.17,2.38,2.38,0,0,0,.47,0,2.23,2.23,0,0,0,1.73-1.5,1.82,1.82,0,0,0,0-1.08Zm12.5,2.63-3.39-4,2.82-3.7h-1.51L230.81,74V70.86h-1.2v7.7h1.2V75.08l3.05,3.49Zm4.42,0v-7.7h-1.2v7.7Zm9.85.35V70.86h-1.21V75.8l-4.83-5.3v8.06h1.2V73.61l4.85,5.3Zm9.76-4.35h-2.66v1.09h1.45v1.42h0a2.15,2.15,0,0,1-.43.17h-.19l-.23,0h-.06s0,0,0,0H257a2.65,2.65,0,0,1-2.54-1.93,2.76,2.76,0,0,1-.09-.58.64.64,0,0,1,0-.13.69.69,0,0,1,0-.15v-.11c0-.1,0-.21.05-.31s0,0,0,0a2.48,2.48,0,0,1,.32-.79.08.08,0,0,1,0,0l.06-.09,0,0L255,73a0,0,0,0,0,0,0l.14-.13a2.23,2.23,0,0,1,.46-.37l.05,0a2.57,2.57,0,0,1,1.36-.37h.41l.14,0h.12a3,3,0,0,1,.48.18h0a2.45,2.45,0,0,1,.52.33V71.24h0l-.06,0a0,0,0,0,1,0,0,3.78,3.78,0,0,0-1.3-.32H257a3.67,3.67,0,0,0-1.49.3,3.63,3.63,0,0,0-1.22.82,3.93,3.93,0,0,0-.83,1.22,4.08,4.08,0,0,0-.3,1.31v.2c0,.12,0,.26,0,.38a3.7,3.7,0,0,0,.28,1.11,3.82,3.82,0,0,0,.83,1.22,3.4,3.4,0,0,0,.85.64,2.1,2.1,0,0,0,.37.19l.16.06.11,0h0a3.68,3.68,0,0,0,1.21.2h.2a3.89,3.89,0,0,0,1.38-.33h0l.07,0h0l.05,0h0l0,0,.05,0,0,0,.05,0,0,0,0,0,0,0a.05.05,0,0,0,0,0l0,0,0,0h0l.27-.19V75.66h0V74.57Z"/></svg>