<svg xmlns="http://www.w3.org/2000/svg" height="48px" width="61px" viewBox="0 0 61 48">
  <path fill="#004385" fill-rule="nonzero" d="M3.978261 0C1.797272 0 0 1.807039 0 3.9999978v42.6666696C.000073 47.4030162.59374 47.9999264 1.326087 48h58.347826c.732347-.0000736 1.326014-.5969838 1.326087-1.3333326V3.9999978C61 1.807039 59.202728 0 57.021739 0H3.978261zm0 2.6666652h53.043478c.75766 0 1.326087.571493 1.326087 1.3333326v7.9999955H2.652174V3.9999978c0-.7618396.568427-1.3333326 1.326087-1.3333326zm3.315217 2.6666652c-1.09857 0-1.98913.8953995-1.98913 1.9999989 0 1.104526.89056 1.9999988 1.98913 1.9999988 1.098564 0 1.989131-.8954728 1.989131-1.9999988 0-1.1045994-.890567-1.9999989-1.989131-1.9999989zm6.630435 0c-1.09857 0-1.98913.8953995-1.98913 1.9999989 0 1.104526.89056 1.9999988 1.98913 1.9999988 1.098564 0 1.989131-.8954728 1.989131-1.9999988 0-1.1045994-.890567-1.9999989-1.989131-1.9999989zm6.630435 0c1.098563 0 1.98913.8953995 1.98913 1.9999989 0 1.104526-.890567 1.9999988-1.98913 1.9999988-1.09857 0-1.989131-.8954728-1.989131-1.9999988 0-1.1045994.890561-1.9999989 1.989131-1.9999989zM.994566 30v-1h58.67938v1H.994566zm4.478263 11h49.722854c.276142 0 .5.2238576.5.5s-.223858.5-.5.5H5.472829c-.276143 0-.5-.2238576-.5-.5s.223857-.5.5-.5zm0-4h49.722854c.276142 0 .5.2238576.5.5s-.223858.5-.5.5H5.472829c-.276143 0-.5-.2238576-.5-.5s.223857-.5.5-.5zm0-4h49.722854c.276142 0 .5.2238576.5.5s-.223858.5-.5.5H5.472829c-.276143 0-.5-.2238576-.5-.5s.223857-.5.5-.5zM2.652174 14.6666585h55.695652v30.6666763H2.652174V14.6666585zm22.634384 5.1906789c.165107.0640219.342413.1023536.529886.1023536.192354 0 .374947-.039555.543307-.1068393l5.176049 5.1906732c-.067506.1696379-.10736.3535481-.10736.547653.000407.8176054.660427 1.4794377 1.475793 1.4798454.815366-.0004077 1.475385-.66224 1.475792-1.4798454 0-.1867648-.038227-.3641505-.10126-.5284871l4.677477-4.6903232c.172426.0709543.360713.1113249.558759.1113249.815366-.0004078 1.475386-.6622401 1.475793-1.4798455-.000407-.8176055-.660427-1.4794377-1.475793-1.4798455-.815366.0004078-1.475385.66224-1.475792 1.4798455 0 .1822791.037413.3547714.0976.5158458l-4.686423 4.6988866c-.169174-.067692-.35258-.107247-.546153-.1076548-.186253 0-.362747.0383316-.52704.101538l-5.187436-5.2012755c.063846-.16556.102073-.3433535.102073-.5313416C27.291423 17.66224 26.631404 17.0004078 25.816038 17c-.815366.0004078-1.475386.66224-1.475792 1.4798455 0 .1928815.039446.3759761.106546.5447984l-2.581111 2.5882004c-.156567-.0566819-.322893-.0925668-.498573-.0929746-.815366.0004078-1.475386.6622401-1.475793 1.4798455.000407.8176055.660427 1.4794377 1.475793 1.4798455.815366-.0004078 1.475385-.66224 1.475792-1.4798455 0-.2042994-.04148-.3992198-.116307-.5761977l2.559965-2.5661801z"/>
</svg>