<svg xmlns="http://www.w3.org/2000/svg" width="50" height="60" viewBox="0 0 50 60">
    <g fill="none">
        <g fill="#BFD0E0">
            <path d="M35.4 0L35.9 0C36.2 4.2 34.6 7.4 32.6 9.7 30.7 11.9 28.1 14.1 23.8 13.8 23.5 9.6 25.2 6.7 27.1 4.4 28.9 2.3 32.2 0.4 35.4 0ZM49.1 44.1L49.1 44.2C47.9 47.8 46.2 50.9 44.1 53.8 42.2 56.4 39.8 59.9 35.6 59.9 32 59.9 29.6 57.6 25.9 57.6 22 57.5 19.8 59.5 16.3 60L15 60C12.4 59.6 10.3 57.6 8.7 55.7 4.2 50.2 0.7 43.1 0 34L0 31.3C0.3 24.8 3.5 19.5 7.7 16.9 9.9 15.5 13 14.4 16.4 14.9 17.9 15.1 19.4 15.6 20.7 16.1 22 16.6 23.5 17.4 25 17.4 26 17.3 27 16.8 28 16.5 30.9 15.4 33.8 14.2 37.7 14.8 42.2 15.5 45.5 17.5 47.5 20.6 43.6 23 40.6 26.7 41.1 33 41.5 38.8 44.9 42.1 49.1 44.1Z"/>
        </g>
    </g>
</svg>