<svg xmlns="http://www.w3.org/2000/svg" width="100" height="100" viewBox="0 0 100 100">
    <style>
        .a{
        fill:#004385;
        }
    </style>
    <g fill="none">
        <path d="M100 50C100 77.6 77.6 100 50 100 22.4 100 0 77.6 0 50 0 22.4 22.4 0 50 0 77.6 0 100 22.4 100 50" fill="#F2F2F2"/>
        <path d="M19.8 71.6L62.1 71.6C62.1 71.4 62.1 71.1 62.1 70.9 62.1 60.6 52.6 52.3 40.9 52.3 29.3 52.3 19.8 60.6 19.8 70.9 19.8 71.1 19.8 71.4 19.8 71.6L19.8 71.6ZM66.2 75.4L15.7 75.4 15.4 73.7C15.3 72.8 15.2 71.8 15.2 70.9 15.2 58.5 26.8 48.4 40.9 48.4 55.1 48.4 66.7 58.5 66.7 70.9 66.7 71.8 66.6 72.8 66.5 73.7L66.2 75.4Z" class="a"/>
        <path d="M19.8 71.6L62.1 71.6C62.1 71.4 62.1 71.1 62.1 70.9 62.1 60.6 52.6 52.3 40.9 52.3 29.3 52.3 19.8 60.6 19.8 70.9 19.8 71.1 19.8 71.4 19.8 71.6ZM66.2 75.4L15.7 75.4 15.4 73.7C15.3 72.8 15.2 71.8 15.2 70.9 15.2 58.5 26.8 48.4 40.9 48.4 55.1 48.4 66.7 58.5 66.7 70.9 66.7 71.8 66.6 72.8 66.5 73.7L66.2 75.4Z" stroke="#004385"/>
        <path d="M40.9 22.5C36 22.5 32 26.5 32 31.5 32 36.4 36 40.4 40.9 40.4 45.9 40.4 49.9 36.4 49.9 31.5 49.9 26.5 45.9 22.5 40.9 22.5M40.9 45.4C33.3 45.4 27 39.1 27 31.5 27 23.8 33.3 17.5 40.9 17.5 48.6 17.5 54.9 23.8 54.9 31.5 54.9 39.1 48.6 45.4 40.9 45.4" class="a"/>
        <path d="M84.8 65.3C84.8 74.8 77.1 82.5 67.5 82.5 58 82.5 50.2 74.8 50.2 65.3 50.2 55.8 58 48.2 67.5 48.2 77.1 48.2 84.8 55.8 84.8 65.3" class="a"/>
        <path d="M68.1 60.9C69.2 60.9 70.4 61.4 71.2 62.2 71.6 62.6 72.2 62.6 72.6 62.2 73 61.8 73 61.2 72.6 60.8 71.6 59.8 70.4 59.2 69.1 59.1L69.1 56.2C69.1 55.7 68.6 55.3 68.1 55.3 67.7 55.3 67.2 55.8 67.2 56.2L67.2 59.1C64.2 59.5 62.1 62 62.1 65.3 62.1 68.6 64.2 71.1 67.2 71.6L67.2 74.4C67.1 74.9 67.6 75.3 68.1 75.3 68.7 75.3 69.1 74.9 69.1 74.4L69.1 71.6C70.4 71.4 71.6 70.7 72.6 69.8 73 69.5 73 68.8 72.6 68.5 72.2 68.1 71.6 68.1 71.2 68.5 70.4 69.3 69.3 69.8 68.1 69.8 65.7 69.8 64 67.9 64 65.3 64 62.8 65.7 60.9 68.1 60.9" fill="#FFF"/>
    </g>
</svg>