<?xml version="1.0" encoding="UTF-8"?>
<svg width="100px" height="100px" viewBox="0 0 100 100" version="1.1" xmlns="http://www.w3.org/2000/svg" xmlns:xlink="http://www.w3.org/1999/xlink">
    <!-- Generator: Sketch 45.2 (43514) - http://www.bohemiancoding.com/sketch -->
    <title>Icon / Cent</title>
    <desc>Created with Sketch.</desc>
    <defs></defs>
    <g id="MT5---Types-of-Account" stroke="none" stroke-width="1" fill="none" fill-rule="evenodd">
        <g id="MT5---Types-of-accounts" transform="translate(-304.000000, -661.000000)">
            <g id="Types-of-accounts" transform="translate(185.000000, 440.000000)">
                <g id="Cent" transform="translate(0.000000, 191.000000)">
                    <g id="Icon-/-Account-/-Cent" transform="translate(119.000000, 30.000000)">
                        <g id="Page-1">
                            <path d="M100,50 C100,77.614 77.614,100 50,100 C22.386,100 0,77.614 0,50 C0,22.386 22.386,0 50,0 C77.614,0 100,22.386 100,50" id="Fill-1" fill="#F2F2F2"></path>
                            <path d="M19.8296,71.5806 L62.0626,71.5806 C62.0726,71.3536 62.0776,71.1296 62.0776,70.9056 C62.0776,60.6436 52.5986,52.2946 40.9456,52.2946 C29.2936,52.2946 19.8146,60.6436 19.8146,70.9056 C19.8146,71.1296 19.8196,71.3536 19.8296,71.5806 L19.8296,71.5806 Z M66.2326,75.4376 L15.6596,75.4376 L15.4146,73.7396 C15.2746,72.7716 15.2046,71.8176 15.2046,70.9056 C15.2046,58.5166 26.7516,48.4376 40.9456,48.4376 C55.1406,48.4376 66.6876,58.5166 66.6876,70.9056 C66.6876,71.8176 66.6176,72.7716 66.4776,73.7396 L66.2326,75.4376 Z" id="Fill-3" fill="#004385"></path>
                            <path d="M19.8296,71.5806 L62.0626,71.5806 C62.0726,71.3536 62.0776,71.1296 62.0776,70.9056 C62.0776,60.6436 52.5986,52.2946 40.9456,52.2946 C29.2936,52.2946 19.8146,60.6436 19.8146,70.9056 C19.8146,71.1296 19.8196,71.3536 19.8296,71.5806 Z M66.2326,75.4376 L15.6596,75.4376 L15.4146,73.7396 C15.2746,72.7716 15.2046,71.8176 15.2046,70.9056 C15.2046,58.5166 26.7516,48.4376 40.9456,48.4376 C55.1406,48.4376 66.6876,58.5166 66.6876,70.9056 C66.6876,71.8176 66.6176,72.7716 66.4776,73.7396 L66.2326,75.4376 Z" id="Stroke-5" stroke="#004385"></path>
                            <path d="M40.9458,22.5352 C36.0288,22.5352 32.0278,26.5362 32.0278,31.4542 C32.0278,36.3712 36.0288,40.3722 40.9458,40.3722 C45.8638,40.3722 49.8648,36.3712 49.8648,31.4542 C49.8648,26.5362 45.8638,22.5352 40.9458,22.5352 M40.9458,45.4082 C33.2518,45.4082 26.9918,39.1482 26.9918,31.4542 C26.9918,23.7602 33.2518,17.5002 40.9458,17.5002 C48.6398,17.5002 54.8998,23.7602 54.8998,31.4542 C54.8998,39.1482 48.6398,45.4082 40.9458,45.4082" id="Fill-7" fill="#004385"></path>
                            <path d="M84.7915,65.3267 C84.7915,74.8117 77.0525,82.4997 67.5055,82.4997 C57.9595,82.4997 50.2205,74.8117 50.2205,65.3267 C50.2205,55.8427 57.9595,48.1537 67.5055,48.1537 C77.0525,48.1537 84.7915,55.8427 84.7915,65.3267" id="Fill-9" fill="#004385"></path>
                            <path d="M68.0537,60.8975 C69.2067,60.8975 70.3597,61.3555 71.2047,62.1955 C71.5897,62.5775 72.2047,62.5775 72.5887,62.1955 C72.9727,61.8135 72.9727,61.2025 72.5887,60.8205 C71.5897,59.8285 70.3597,59.2165 69.0527,59.0645 L69.0527,56.2385 C69.0527,55.7045 68.5917,55.3225 68.1307,55.3225 C67.6687,55.3225 67.2077,55.7805 67.2077,56.2385 L67.2077,59.0645 C64.2097,59.5225 62.1347,62.0435 62.1347,65.3265 C62.1347,68.6105 64.2097,71.1315 67.2077,71.5895 L67.2077,74.4155 C67.1307,74.8735 67.5927,75.3315 68.1307,75.3315 C68.6687,75.3315 69.0527,74.8735 69.0527,74.4155 L69.0527,71.5895 C70.3597,71.3605 71.5897,70.7495 72.5887,69.8335 C72.9727,69.4515 72.9727,68.8395 72.5887,68.4585 C72.2047,68.0765 71.5897,68.0765 71.2047,68.4585 C70.3597,69.2985 69.2837,69.7565 68.0537,69.7565 C65.6707,69.7565 63.9797,67.9235 63.9797,65.3265 C63.9797,62.8065 65.6707,60.8975 68.0537,60.8975" id="Fill-11" fill="#FFFFFF"></path>
                        </g>
                    </g>
                </g>
            </g>
        </g>
    </g>
</svg>