<svg xmlns="http://www.w3.org/2000/svg" height="48px" width="52px" viewBox="0 0 52 49">
  <path fill="#004385" fill-rule="nonzero" d="M42.66911 32.0696085c-.251501-.2502813-.592992-.3909411-.949119-.3909411-.356126 0-.697617.1406598-.949118.3909411l-1.496067 1.4850535-4.0056-3.976111c4.382608-5.0722153 5.486258-12.1735284 2.847354-18.3209831l5.179933-5.1417983v2.4484753c0 .7349216.60019 1.3306932 1.340562 1.3306932s1.340562-.5957716 1.340562-1.3306932V2.900815c0-.7349216-.60019-1.3306932-1.340562-1.3306932h-5.700071c-.740372 0-1.340562.5957716-1.340562 1.3306932 0 .7349215.60019 1.3306931 1.340562 1.3306931h2.466635l-4.584723 4.5509705C31.798527 1.0490623 21.617314-1.5288991 13.478565 2.8725272 5.339815 7.2739535 2.001319 17.1633576 5.825096 25.5438894L.393138 30.935858c-.524184.5203244-.524184 1.363937 0 1.8842614.524183.5203245 1.374052.5203245 1.898236 0l4.906458-4.8703368c.629185.9355544 1.34745 1.8089517 2.144899 2.6081585 6.541262 6.4785467 17.003034 6.8703804 24.017514.8995486l4.0056 3.9761111-1.496067 1.4850535c-.252138.2496494-.393841.5886261-.393841.9421307 0 .3535047.141703.6924814.393841.9421308l7.96294 7.8883489c1.869472 1.8530885 4.897686 1.8530885 6.767158 0 1.866832-1.8557093 1.866832-4.8616297 0-6.717339l-7.930766-7.9043172zm-10.225809-3.3959289c-5.861111 5.8068173-15.351947 5.8068173-21.213058 0-4.300028-4.2601952-5.589866-10.6728098-3.267626-16.2454726 2.32224-5.5726627 7.798818-9.2069407 13.874155-9.2069407 6.075336 0 11.551915 3.634278 13.874154 9.2069407 2.32224 5.5726628 1.032402 11.9852774-3.267625 16.2454726zm16.279788 16.1173553c-.822493.8141331-2.153556.8141331-2.976048 0l-6.970924-6.9196043 2.992135-2.9701071 6.997735 6.9196043c.393233.3984156.609889.9362189.601834 1.4939237-.008055.5577049-.240155 1.0891218-.644732 1.4761834zM32.813296 16.5164671l-6.193398 6.1531251c-.251501.2502813-.592992.3909411-.949118.3909411-.356127 0-.697617-.1406598-.949118-.3909411l-3.539085-3.5023843-2.579241-2.5602536-5.249642 5.2109943c-.339088.3365909-.833318.4680446-1.29652.3448438-.463202-.1232008-.825003-.4823391-.949118-.9421308-.124114-.4597917.008314-.9503836.347401-1.2869745l6.214847-6.1478023c.251501-.2502813.592992-.3909411.949118-.3909411.356127 0 .697617.1406598.949118.3909411l3.52836 3.5023843 2.579242 2.5602536 5.249642-5.2109943c.524183-.5203244 1.374053-.5203244 1.898236 0 .524184.5203245.524184 1.3639371 0 1.8842615l-.010724-.0053228z"/>
</svg>