<svg xmlns="http://www.w3.org/2000/svg" height="48px" width="96px" viewBox="0 0 96 48">
  <g fill="#004385">
    <path d="M21.5747348 0C19.3956791 0 17.6 1.807039 17.6 3.99999778V46.6666674c.0000732.7363488.5932134 1.333259 1.3249115 1.3333326h58.2961081c.7316982-.0000736 1.3248384-.5969838 1.3249116-1.3333326V3.99999778C78.5459312 1.807039 76.7502521 0 74.5711966 0H21.5747348zm0 2.6666652h52.9964618c.7569882 0 1.3249115.571493 1.3249115 1.33333258v7.99999552h-55.646285V3.99999778c0-.76183958.5679233-1.3333326 1.3249117-1.3333326zm3.3122788 2.66666517c-1.0975964 0-1.9873673.8953995-1.9873673 1.9999989 0 1.10452604.8897709 1.99999888 1.9873673 1.99999888 1.0975899 0 1.9873673-.89547284 1.9873673-1.9999989 0-1.10459938-.8897774-1.99999888-1.9873673-1.99999888zm6.6245578 0c-1.0975965 0-1.9873674.8953995-1.9873674 1.9999989 0 1.10452604.8897709 1.99999888 1.9873674 1.99999888 1.0975898 0 1.9873673-.89547284 1.9873673-1.9999989 0-1.10459938-.8897775-1.99999888-1.9873673-1.99999888zm6.6245577 0c-1.0975965 0-1.9873673.8953995-1.9873673 1.9999989 0 1.10452604.8897708 1.99999888 1.9873673 1.99999888 1.0975898 0 1.9873673-.89547284 1.9873673-1.9999989 0-1.10459938-.8897775-1.99999888-1.9873673-1.99999888zm-17.886306 9.33332813h55.646285v30.6666763h-55.646285V14.6666585z"/>
    <path d="M85.41917668 33.19064482l-.17298485.09987285c-1.77369494 1.02404325-2.4147534 3.24695324-1.4288426 4.95460084l2.30001336 3.98374 2.4025669-1.3871226-2.3000134-3.98374c-.2497329-.43255002-.0875342-.9949842.3617458-1.2543761l2.7485365-1.5868683c.440871-.254537 1.0212012-.11077874 1.2665939.3142538l2.3000133 3.98374 2.4025668-1.3871226-2.30001335-3.98374c-.9859108-1.7076476-3.2309358-2.26427653-5.0046308-1.24023323l-.17298486.09987286-3.83279915-6.63860287-6.63065595-.9730178-.4933787 2.66734745 5.35247745.78573365 3.20178953 5.5456622zM8.17825646 31.8035222l-.17238417-.09952606c-1.773695-1.02404328-4.0193207-.46776115-5.0052315 1.23988644L.7006274 36.92762256l2.4025669 1.38712264 2.30001336-3.98374c.24539265-.42503255.82572286-.5687908 1.26719452-.313907l2.74853645 1.58686826c.4414717.2548838.60713852.82934364.36174587 1.25437618l-2.30001335 3.98373998 2.40256682 1.3871226 2.30001334-3.98373998c.9859108-1.7076476.3448525-3.93055754-1.4288426-4.95460084l-.1735854-.1002196 3.2017896-5.54566217 5.3524774-.78573364-.49457993-2.668041-6.62945472.9737113-3.83279913 6.6386028z"/>
    <path stroke="#004385" d="M54.030836 17.016527c-2.0536667-.137676-4.1532253.5851229-5.7250261 2.1569237-2.0766127 2.0766127-2.6158438 5.0595924-1.7209498 7.6639629L35.9379176 37.484356c-1.2505568 1.2620298-1.2505568 3.3156965 0 4.5777264 1.2620298 1.2505568 3.3156966 1.2505568 4.5777264 0l10.6469424-10.6469425c2.6043705.8948937 5.5873502.3556629 7.6639628-1.7209498 2.0995586-2.0995586 2.6732087-5.1284301 1.7438958-7.7557469-.149149-.4015547-.757218-.5392308-1.066989-.2409328l-3.8434543 3.8434544-2.4896408-.7113261-.7113257-2.4896404 3.8434544-3.8434545c.298298-.309771.1606219-.9178399-.2409332-1.0669889-.6539608-.2294599-1.3423406-.3671359-2.0307204-.4130279zm-.0803112 1.2849758c.2065142.011473.4015551.080311.596596.11473l-3.2698046 3.2583314c-.160622.1606219-.2294598.424501-.172095.6424878l.929313 3.2124398c.0573652.2065139.2294601.3786088.435974.4359737l3.2124394.9293129c.2179869.0573652.4818659-.011472.6424879-.1720949l3.2583317-3.2698043c.309771 1.8815714-.2065142 3.8664003-1.6635849 5.323471-1.8242066 1.8242069-4.4859423 2.2601806-6.7231769 1.3308677-.2294602-.0917838-.5162849-.0344189-.6883798.137676L39.6092771 41.1442424c-.768691.768691-1.9848287.768691-2.7535196 0-.7686909-.7686909-.7686909-1.9848288 0-2.7535195l10.8993483-10.8993485c.1720949-.1720949.2294601-.4589199.137676-.6883798-.9293129-2.2372346-.4933389-4.8989703 1.3308677-6.7231771 1.296449-1.3079218 3.0288718-1.8930447 4.7268753-1.7783147z"/>
  </g>
</svg>