<svg xmlns="http://www.w3.org/2000/svg" width="51" height="60" viewBox="0 0 51 60">
    <style>
        .a{
        fill:#004385;
        }
    </style>
    <g fill="none">
        <path d="M13 13.7C13 13.8 13 13.8 13.1 13.8 13.2 13.8 13.3 13.7 13.4 13.5 13.5 13.3 13.7 13.2 14 13.1L13.6 13.1C13.2 13.2 13 13.4 13 13.7" class="a"/>
        <path d="M16 14.2C16.2 14.1 16.4 14.1 16.6 14.3 16.8 14.5 16.9 14.6 17 14.5 17.1 14.5 17.2 14.4 17.1 14.2 16.9 13.9 16.5 13.9 16 14.2" class="a"/>
        <path d="M28.8 12.3L28.7 12.4C28.5 12.5 28.5 12.6 28.5 12.5 28.4 11.9 28.2 11.5 27.8 11.5 27.8 11.4 27.8 11.4 27.7 11.4 27.6 11.2 27.6 11.2 27.9 11.1 28 11.1 28.1 11.2 28.2 11.2 28.4 11.3 28.5 11.5 28.6 11.7 28.7 11.9 28.8 12.1 28.8 12.3M20.1 11.8C20 11.8 20 11.7 19.9 11.6 19.9 11.4 20 11.3 20.2 11.4 20.4 11.4 20.5 11.6 20.6 11.9 20.8 12.1 20.8 12.5 20.7 12.9 20.7 12.9 20.7 13 20.6 13 20.4 13 20.3 12.7 20.3 12.3 20.4 12 20.3 11.8 20.1 11.8M34.5 48.1C34.7 49.3 34.8 50.1 34.7 50.6 34.7 51.3 34.5 52.3 34.3 53.6 34 54.9 33.9 55.8 33.8 56.2 33.3 56.2 33.1 56 33 55.7 32.9 55.3 33 54.9 33.2 54.4 33.7 52.9 33.9 51.9 34 51.3 34 50.3 33.9 49.7 33.6 49.6 33.4 49.4 33 49.7 32.5 50.6 31.5 52.2 29.5 53.2 26.6 53.5 23.9 53.9 22 53.5 21 52.3 20.8 52.1 20.6 52.1 20.3 52.2 20.1 52.3 20 52.4 19.9 52.5 19.9 52.6 19.9 52.6 20 52.7 20 52.8 20.1 53 20.3 53.1 20.4 53.3 20.5 53.5 20.6 53.7 21.5 55.2 21.4 56.2 20.4 56.8 20.4 55.7 20.3 54.9 20.2 54.4 20 53.8 19.7 53.2 19.2 52.6 18.8 51.9 18.4 51.4 18.3 51.1 18.9 51 19.4 50.8 19.8 50.3 20.1 49.9 20.3 49.4 20.3 48.9 20.2 48.4 20 47.9 19.7 47.6 19.5 47.4 18.4 46.6 16.6 45.1 14.7 43.5 13.5 42.5 13.1 42 13 41.9 12.7 41.7 12.3 41.4 11.8 41 11.5 40.7 11.4 40.4 10.4 38.2 10.3 36.3 11.1 34.9L11.2 34.7C11.3 34.7 11.4 34.9 11.3 35.3 11.1 35.9 11.1 36.5 11.1 37.2 11.2 38.6 11.6 39.6 12.3 40.3 12.8 40.8 13.1 40.7 13.3 40.2 13.4 40 13.5 39.4 13.5 38.2 13.5 37.1 13.5 36.3 13.5 35.9 13.7 34.7 14.3 33.1 15.1 31.2 16 29.3 16.7 28.3 17.2 28.2 16.8 27.5 16.7 26.8 16.8 26.1 17 25.3 17.2 24.7 17.5 24.1 17.9 23.6 18.2 23 18.5 22.3 18.9 21.6 19 20.9 19 20.4 19 20.2 19 20.1 19.1 20.1 19.1 19.9 19.4 20.1 19.9 20.8 20.8 22.2 21.5 23 22 23.2 22.5 23.5 23 23.5 23.7 23.2 24.3 22.9 25 22.4 25.9 21.8 26.8 21.1 27.5 20.6 28.1 20.3 28.2 20.3 28.3 20.2 28.5 20.1 28.6 20.1 28.7 20 28.8 20 28.9 19.9 29 19.9 29.1 19.8 29.2 19.8 29.3 19.7 29.4 19.7 29.4 19.6 29.5 19.6 29.6 19.5 29.6 19.4 29.7 19.4 29.7 19.3 29.7 19.3 29.7 19.2 29.7 19.2 29.7 19 29.6 18.9 29.5 18.8 29.3 18.8 29.1 18.8 28.9 18.9 28.6 19 28.4 19.1 28.1 19.3 27.8 19.5 27.4 19.7 27 19.9 26.7 20.1 26.3 20.3 25.9 20.5 25.5 20.6 25.1 20.8 24.7 20.9 24.3 21.1 23.9 21.1 23.5 21.2 22.6 21.2 21.8 20.9 21.3 20.4 20.9 20.1 20.7 19.9 20.7 19.8 20.7 19.7 20.8 19.7 21 19.7 22.2 19.9 23.1 19.9 23.7 19.8 24.2 19.7 25 19.4 26 19 26.2 18.9 26.7 18.7 27.5 18.4 28.3 18 29 17.8 29.4 17.6 29.7 17.6 29.9 17.5 30 17.3 30.1 17.2 30.1 17.1 30.1 16.9 30 16.8 30 16.7 29.8 16.6 29.6 16.5 29.4 16.6 29.2 16.9 29.1 17.1 28.8 17.3 28.5 17.5 28.1 17.7 27.8 17.8 27.5 17.9 27.2 18 26.8 18.1 26.3 18.3 25.9 18.4 25.6 18.5 25.6 18.5 24.3 18.9 23.2 19.1 22.1 19 21.7 19 21.3 18.9 21 18.8 20.7 18.7 20.4 18.5 20.3 18.4 20.2 18.2 20 18 19.8 17.7 19.6 17.5 19.3 17.3 19 17.1 18.7 17 18.7 16.8 18.7 16.5 18.8 16.2 18.9 15.9 19.2 15.6 19.3 15.5 19.5 15.4 19.9 15.2 20.4 14.9 20.7 14.6 20.8 14.4 21 14.1 21.4 13.7 21.9 13.4 21.9 13.3 21.9 13.1 21.9 12.7 21.9 12.3 21.8 11.8 21.6 11.4 21.4 10.9 21.1 10.7 20.7 10.7 20.2 10.6 19.8 10.8 19.6 11.1 19.3 11.5 19.2 11.9 19.3 12.4 19.3 12.8 19.4 13.2 19.6 13.5 19.8 13.8 19.9 14 20.1 14 20.3 13.9 20.4 14 20.3 14.2 20.2 14.5 20 14.6 19.8 14.7 19.6 14.7 19.5 14.6 19.3 14.3 19.1 13.9 18.9 13.5 18.8 13 18.7 12.5 18.7 12.1 18.7 11.8 18.8 11.1 19 10.4 19.3 9.8 19.6 9.1 20.1 8.8 20.7 8.8 21.3 8.9 21.8 9.2 22.2 10 22.6 10.7 22.7 11.7 22.7 13 22.8 13.2 23 13.2 23.2 13.2 23.5 13.1 23.9 13.1 24.3 13.1 24.8 13.2 25.1 13.3 25.3 13.5 25.3 13.5 25.4 13.3 25.4 13 25 10.2 25.9 8.7 28.3 8.5 28.7 8.6 29 8.7 29.2 8.8 29.5 8.9 29.8 9 30 9.3 30.3 9.5 30.5 9.8 30.7 10.3 30.9 10.7 31.1 11.3 31.2 12L31.2 13.2C31.2 13.9 31 14.3 30.7 14.4 30.3 14.6 29.9 14.5 29.7 14.4 29.5 14.2 29.6 13.9 29.8 13.5 30 12.9 30 12.3 29.7 11.6 29.4 10.8 28.8 10.5 28 10.6 27.4 10.6 27 10.9 26.8 11.5 26.5 12 26.4 12.6 26.5 13.2 26.6 13.7 26.7 14 26.9 14 27 14.1 27.4 14.2 28.1 14.6 28.7 14.9 29.2 15.1 29.5 15.2 30.4 15.3 30.9 15.6 31 16 31.2 16.4 31.1 16.9 30.9 17.7 30.7 18.4 30.6 19 30.7 19.5 30.8 19.9 30.9 20.4 31.2 20.8 31.4 21.2 31.7 21.6 32 21.9 32.3 22.2 32.6 22.9 33 23.8 33.3 24.7 33.7 25.8 34 27.2 34 27.2 34.1 27.3 34.2 27.5 34.4 27.6 34.5 27.8 34.7 28 34.8 28.2 35 28.4 35.2 28.8 35.4 29.1 35.6 29.6 35.9 30.3 36.1 31 36.3 31.7 36.5 32.6 36.8 33.6 36.9 34.8 36.9 36.2 36.9 37.6 37 38.5 37.2 39 37.3 39.5 37.8 39.7 38.4 39.6 39.3 39.6 39.9 39.1 40.1 38.2 40.9 35.6 40.3 32.5 38.3 28.9 37.6 27.5 36.9 26.6 36.4 26.1 37.2 26.6 38 27.4 38.8 28.6 39.6 29.9 40.2 31 40.4 32.1 40.4 32.2 40.5 32.5 40.6 33 40.7 33.4 40.7 33.7 40.7 33.8 40.8 33.9 40.8 34.1 40.9 34.5 41 34.9 41 35.1 41 35.2 41 35.3 41 35.6 41 35.9 41 36.2 41 36.5 41 36.6 41 36.8 40.9 37.1 40.9 37.4 40.9 37.7 40.8 37.9 40.7 38.2 40.7 38.5 40.6 38.8 40.5 39.1 41.7 39.7 42.3 40.1 42.3 40.5 41.9 40.2 41.2 39.9 40.3 39.8 39.5 39.7 38.6 39.8 37.9 40.1 37.1 40.5 36.8 41.1 36.7 41.9 35.9 41.9 35.4 42.1 35 42.5 34.5 43.1 34.3 43.9 34.3 44.9 34.2 45.9 34.3 47 34.5 48.1M11 29.9C11.2 29.8 11.3 29.6 11.4 29.5 11.4 29.4 11.5 29.2 11.5 29 11.6 28.9 11.7 28.7 11.7 28.6 11.7 28.5 11.8 28.5 11.9 28.5 11.9 28.6 12 28.6 12 28.6 12 28.6 12 28.6 12 28.7L12 28.8C12 28.8 12 28.9 12 28.9 12 29 12 29 12 29.1 11.9 29.1 11.9 29.2 11.9 29.3 11.9 29.4 11.9 29.4 11.8 29.5 11.7 29.7 11.6 29.9 11.4 30.1 11.2 30.3 11.1 30.4 11 30.3 10.9 30.3 10.9 30.2 11 29.9M28.5 4.9C28.6 4.7 28.6 4.6 28.7 4.5 28.7 4.4 28.7 4.2 28.7 4.1 28.6 4 28.6 3.8 28.7 3.7 28.8 3.5 28.9 3.4 29.1 3.4 29.3 3.4 29.6 3.6 29.9 3.9 30 4 30.1 4 30.2 4.1 30.4 4.2 30.5 4.3 30.5 4.4 30.6 4.4 30.6 4.5 30.6 4.5 30.5 4.6 30.4 4.7 30.3 4.8 30.1 4.8 30 4.8 29.8 4.8 29.6 4.8 29.5 4.8 29.5 4.9 29.3 4.9 29.1 5 29 5.2 28.8 5.3 28.7 5.4 28.6 5.5 28.5 5.5 28.4 5.5 28.3 5.5 28.3 5.3 28.2 5.2 28.2 5.2 28.3 5.1 28.3 5 28.5 4.9M32.6 17.9C32.7 17.8 32.7 17.8 32.7 17.8 32.8 17.8 32.8 17.9 32.9 18 32.9 18 33 18.1 33.1 18.2 33.1 18.2 33.2 18.3 33.3 18.4 33.4 18.6 33.5 18.6 33.6 18.7 33.7 18.8 33.9 18.9 34.1 18.9 34.3 18.9 34.4 19 34.5 19.1 34.6 19.1 34.7 19.3 34.7 19.4 34.8 19.7 34.8 19.9 34.6 20.1 34.5 20.3 34.3 20.4 34.1 20.4 33.7 20.3 33.3 19.9 32.8 19.3 32.4 18.7 32.3 18.2 32.6 17.9M49.5 49.4C49.4 49.4 49.3 49.3 49 49.1 48.7 48.9 48.4 48.8 48.2 48.7 48.1 48.5 47.8 48.3 47.5 48 47.2 47.7 47 47.4 46.9 47.1 46.7 46.7 46.5 46.3 46.4 45.7 46.2 45.2 46.1 44.5 46.1 43.8 45.8 44.1 45.6 44.6 45.6 45.4 45.5 46.2 45.7 47 46.1 47.8 46.4 48.7 47 49.2 47.7 49.5 48.5 49.7 49 50 49.5 50.2 49.9 50.5 50.2 50.8 50.3 51.2 50.4 51.6 50.2 51.9 49.7 52.4 49.1 52.8 48.3 53.2 47.1 53.6 45.5 54.1 44.3 54.6 43.6 55 43 55.4 42 56.1 40.6 57.2 39.7 58 38.8 58.4 37.8 58.4 36.8 58.5 36 58.1 35.3 57.3 34.7 56.5 34.5 55.4 34.7 53.9 35.2 51.1 35.2 49 34.7 47.4 34.4 46.2 34.3 45.1 34.5 44.2 34.7 43.2 35 42.7 35.4 42.5 35.8 42.4 36.3 42.7 36.8 43.5 36.8 43.6 36.9 43.9 37.1 44.2 37.2 44.5 37.4 44.7 37.5 44.9 37.6 45 37.7 45.2 37.9 45.4 38.1 45.6 38.4 45.7 38.7 45.8 39 45.9 39.3 46 39.7 46 40.5 46 41.2 45.9 41.8 45.5 42.4 45.2 42.8 44.8 43.1 44.4 43.4 44 43.7 43.6 44 43.2 44.3 42.8 44.6 42.6 44.8 42.6 45.1 42.5 45.3 42.3 45.5 41.9 45.7 41.4 45.8 40.8 45.9 40 46 39.2 45.9 38.3 45.7 37.2 45.4 35.2 44.7 33.1 43.7 30.8 42.7 28.4 41.6 26.6 40.4 25.3 38.2 23 36.7 20.5 35.9 18 35.2 15.4 34.8 13 34.9 10.8 35.1 9.3 34.7 7.7 34 5.9 33.2 4.1 32.2 2.8 30.9 1.8 30.1 1.2 29.1 0.8 27.9 0.5 26.7 0.1 25.5 0 24.4 0 22.9 0 21.8 0.2 20.9 0.7 19.1 1.7 17.9 2.8 17.3 4.2 16.8 5.6 16.5 7.3 16.5 9.3 16.6 13.7 16.8 17.2 17.1 19.7 16.8 20.8 15.4 23 12.9 26.2 12.5 26.6 12 27.2 11.6 28 11.2 28.8 10.8 29.4 10.6 30 10.4 30.6 10 31.5 9.6 32.6 9.2 33.8 8.9 34.6 8.7 35.1 8.6 35.5 8.3 35.9 8 36.5 7.7 37 7.4 37.5 7.2 38 7 38.5 6.9 39.1 6.9 39.8 6.8 40.3 6.9 40.7 6.9 41 7 41.6 7.2 41.8 7.4 41.6 8.4 40.8 9.7 41.2 11.2 42.9 12.3 44.1 14.2 46.8 16.9 51 17.1 51.4 17.3 51.8 17.5 52.2 17.8 52.7 18 53.2 18.2 54 18.4 54.7 18.5 55.3 18.4 55.9 18.4 56.5 18.1 57 17.7 57.5 17.2 58 16.5 58.3 15.5 58.5 15 58.5 14.4 58.5 13.6 58.3 12.9 58.2 12 57.9 10.9 57.6 9.8 57.2 8.9 57 8.4 56.8 7.6 56.6 6.5 56.4 5.1 56.1 3.6 55.9 2.7 55.6 2.2 55.5 1.5 55.3 1.1 55 1 54.6 0.9 54.3 1.1 53.8 1.5 53 1.8 52.3 2 51.7 2 51.4 2.1 51.1 2 50.9 2 50.7 2 50.4 1.9 50.2 1.8 50.1 1.8 50 1.7 49.8 1.6 49.5 1.4 49.2 1.3 49 1.3 48.9 0.9 47.9 0.8 47.3 1.1 47 1.3 46.7 1.8 46.6 2.6 46.6 3.7 46.8 4.6 46.6 5.4 46.1 6.5 45.4 6.9 44.2 6.4 42.6 6.4 43.4 6.3 43.9 6 44.3 5.7 44.7 5.3 45.1 4.6 45.5 4.2 45.7 3.6 45.8 2.6 45.9 1.6 45.9 1 46.1 0.7 46.3 0.5 46.5 0.4 46.8 0.3 47.2 0.3 47.6 0.4 48.1 0.5 48.5 0.6 48.9 0.7 49.4 0.8 49.9 0.9 50.4 1 50.9 1 51.2 0.9 51.5 0.7 52.1 0.4 53.1 0 54-0.1 54.8 0.1 55.3 0.2 55.5 0.4 55.7 0.7 55.9 1 56.1 1.3 56.3 1.8 56.4 2.3 56.6 2.7 56.7 3.1 56.7 3.5 56.8 4.1 56.9 4.8 57 5.5 57.2 6.1 57.3 6.5 57.4 7.9 57.6 9.6 58.1 11.4 58.8 13.2 59.5 14.5 59.8 15.1 59.8 15.7 59.9 16.3 59.7 16.9 59.5 17.5 59.2 18 58.8 18.4 58.5 18.8 58.1 19.4 57.8 20.2 57.5 21 57.2 21.8 57 22.8 57 23.3 57 23.9 56.9 24.8 56.9 25.6 56.9 26.2 56.9 26.7 56.9 28.6 56.9 30 56.9 31 56.9 31.7 56.9 32.2 57 32.6 57.2 33 57.4 33.2 57.6 33.3 57.9 33.4 58.1 33.6 58.4 33.9 58.7 34.1 59 34.5 59.3 34.9 59.5 35.7 59.9 36.7 60.1 37.9 60 39 59.9 39.8 59.7 40.1 59.3 40.8 58.7 41.6 58 42.7 57.2 43.7 56.4 44.7 55.7 45.5 55.3 45.7 55.2 46 55.1 46.4 54.9 46.9 54.7 47.2 54.5 47.5 54.4 47.8 54.2 48.1 54 48.6 53.8 49 53.6 49.3 53.4 49.6 53.2 49.8 53 50.1 52.8 50.3 52.5 50.6 52.3 50.8 52 50.9 51.8 50.9 51.5 51 51.3 50.9 51 50.9 50.8 50.8 50.5 50.5 50.2 50.3 50 50 49.7 49.5 49.4" fill="#BFD0E0"/>
    </g>
</svg>