
<svg xmlns="http://www.w3.org/2000/svg" height="48px" width="55px" viewBox="0 0 55 48">
  <path fill="#004385" fill-rule="nonzero" d="M0 2.2828482C0 1.022066 1.02545 0 2.293259 0h50.413483C53.973273 0 55 1.0025482 55 2.2828482v43.4343036C55 46.9779339 53.97455 48 52.706742 48H2.293259C1.026727 48 0 46.9974519 0 45.7171518V2.2828482zm2.291667.0028661v43.4285714h50.416666V2.2857143H2.291667zM6.875 6.8571429h6.875v2.2857142H6.875V6.8571429zm9.166667 0H27.5v2.2857142H16.041667V6.8571429zM6.875 11.4285714h6.875v2.2857143H6.875v-2.2857143zm9.166667 0H27.5v2.2857143H16.041667v-2.2857143zM6.875 16h6.875v2.2857143H6.875V16zm9.166667 0H27.5v2.2857143H16.041667V16zM6.875 20.5714286h6.875v2.2857143H6.875v-2.2857143zm27.5 9.1428571h4.583333V32H34.375v-2.2857143zm0 4.5714286h4.583333v2.2857143H34.375v-2.2857143zm0 4.5714286h4.583333v2.2857142H34.375v-2.2857142zm6.875-9.1428572h6.875V32H41.25v-2.2857143zm-4.183358-7.4507252c-2.923716-1.1941032-4.983309-4.0603634-4.983309-7.4064176 0-2.3646447 1.028602-4.4896706 2.663878-5.9542474l4.122397 6.1675344-1.802966 7.1931306zm2.223611.5529018c.26764.026902.539164.0406806.813914.0406806 4.429784 0 8.020833-3.5817221 8.020833-8 0-.2740364-.013814-.5448546-.040786-.8117997l-7.035169 1.7542238-1.758792 7.0168953zM36.652987 7.6335045c1.045329-.4977189 2.215629-.7763616 3.45118-.7763616 3.354768 0 6.228492 2.0542427 7.425705 4.9703654l-6.92023 1.7255637-3.956655-5.9195675zM0 2.2828482C0 1.022066 1.02545 0 2.293259 0h50.413483C53.973273 0 55 1.0025482 55 2.2828482v43.4343036C55 46.9779339 53.97455 48 52.706742 48H2.293259C1.026727 48 0 46.9974519 0 45.7171518V2.2828482zm2.291667.0028661v43.4285714h50.416666V2.2857143H2.291667zm38.958333 32h6.875v2.2857143H41.25v-2.2857143zm0 4.5714286h6.875v2.2857142H41.25v-2.2857142zM6.875 27.4285714h2.291667v13.7142857H6.875V27.4285714zm4.583333 9.1428572H13.75v4.5714285h-2.291667v-4.5714285zM16.041667 32h2.291666v9.1428571h-2.291666V32zM20.625 32h2.291667v9.1428571H20.625V32zm4.583333 2.2857143H27.5v6.8571428h-2.291667v-6.8571428zm-9.166666-13.7142857H27.5v2.2857143H16.041667v-2.2857143z"/>
</svg>