<svg xmlns="http://www.w3.org/2000/svg" height="48px" width="34px" viewBox="0 0 34 48">
  <path fill="#004385" fill-rule="nonzero" d="M13.04339.0065624c-.564935.0617315-.988832.5424031-.976609 1.1074098v5.4518637c-.005592.3932276.202176.7589881.543746.9572248.341571.1982367.764024.1982367 1.105595 0 .34157-.1982367.549338-.5639972.543746-.9572248V1.1139722c.006802-.3140232-.122896-.6157135-.35588-.8278081-.232983-.2120946-.546624-.313994-.860598-.2796017zM5.418989 2.7324942c-.406069.0232291-.765856.2680322-.934707.6359863-.168852.3679542-.11903.7986138.129433 1.1188324l3.289629 4.3614909c.226048.3364016.620819.5207054 1.025504.4787695.404684-.041936.752757-.3032179.904194-.6787368.151437-.375519.081344-.8035436-.182082-1.1118874L6.361331 3.1754582c-.218962-.2961418-.573226-.4626694-.942342-.442964zm15.351603 0c-.320758.0231014-.615152.1850413-.805274.442964l-3.289629 4.3614909c-.263426.3083438-.333519.7363684-.182082 1.1118874.151437.3755189.49951.6368008.904194.6787368.404685.0419359.799456-.1423679 1.025504-.4787695l3.289629-4.3614909c.264029-.339686.303051-.8018089.099683-1.1805188-.203368-.37871-.611277-.6035239-1.042025-.5742999zm-7.607268 7.1044599c-2.415562 0-4.386172 1.9472967-4.386172 4.361491v11.7896552l-.102801-.238519c-.010215-.0288606-.021648-.0572809-.034267-.0851854-.977178-1.8026587-2.06021-2.8148245-3.289629-3.1518587-1.22942-.3370342-2.350309.0830373-3.152562.5451864-.017451.0108758-.034592.0222384-.0514.0340741-.886125.5876019-1.698204 1.3477825-2.004618 2.4363016-.306414 1.0885736-.102963 2.2909277.479738 3.7822305.005511.0114563.011223.0228161.017133.0340741l1.644815 3.8163046c.005511.0114564.011223.0228162.017133.0340741 3.121708 6.536403 6.120906 11.0645029 8.926547 14.4133647.2078.2476461.515187.3911181.83954.3918527h14.803332c.2353-.0024568.463566-.0801081.651073-.221482 3.11672-2.2958888 5.335923-7.646157 6.168055-12.7266943.416065-2.5402959.461124-5.0137519-.154202-7.0533486-.615325-2.0395968-2.111743-3.7259127-4.351905-3.9866754-.039948-.0021754-.079986-.0021754-.119935 0-.388613 0-.87966.0174187-1.387812.1192595-.027019.0054519-.058437.0115853-.085667.0170371-.281203-.666981-.659325-1.2395357-1.147944-1.5844479-.819674-.5786008-1.654331-.7436778-2.330154-.7325942-.641099.0106857-1.244993.2195357-1.764749.5792606-.234015-.3516561-.482688-.6993433-.78814-.920002-.812684-.5870894-1.677682-.7496313-2.364421-.7496313-.568114 0-1.117984.1395623-1.644815.3577786-.003125-2.2992745-.003674-4.765594 0-6.900015.004276-2.4164514-1.970614-4.361491-4.386173-4.361491zm0 2.1807455c1.292989 0 2.195382.8693269 2.193087 2.1637084-.004935 2.8599496-.014897 6.6040878 0 9.2852054.000676.510924.358007.9528821.859683 1.0632842.501677.1104021 1.013182-.1403549 1.230602-.6032832.242471-.5012444 1.154719-1.0051874 1.747616-1.0051874.266099 0 .760066.0929815 1.079409.3237044.319344.2306683.565405.5177362.565405 1.3118547.008736.5004.3589.9306488.84925 1.0434797.49035.1128309.994991-.1207249 1.223902-.5664416.445945-.8870728.684699-1.0130653 1.233611-1.0222245.151884 0 .68437.0810965 1.028009.3237044.343639.2425534.599672.5385079.599672 1.3118547.009415.427004.268657.8092345.663261.9779225.394603.1686881.851918.0927764 1.170022-.1942171-.026333.0245334.191704-.0922728.496871-.1533336.288948-.0577353.641264-.082623.908075-.0851854 1.296271.1820377 1.965262.9428181 2.415822 2.4363016.461265 1.5289207.484056 3.7374161.1028 6.0651984-.74015 4.5189407-3.077565 9.4318605-5.122912 11.1252093H12.632186c-2.594176-3.1559203-5.378952-7.3611609-8.326874-13.5274368-.005861-.0125393-.011272-.02208-.017133-.0340741l-1.610548-3.7481563c-.005916-.0152652-.011344-.0193541-.017133-.0340742-.482052-1.2484222-.52517-1.9632979-.411204-2.3681533.113927-.4047463.414286-.7198913 1.096543-1.1755581.008421-.0054518.008586-.0115852.017133-.017037.533733-.2965814.979746-.4232827 1.404946-.3066674.442268.1211949 1.122915.5882561 1.936084 2.0785231.005044.0092681.012079.0077689.017134.017037l2.141685 4.8385291c.203824.4821275.723174.7524743 1.237759.6443124.514585-.1081619.879485-.5643718.86966-1.0872764V14.1984451c0-1.2966386.900091-2.1807455 2.193086-2.1807455z"/>
</svg>