<svg xmlns="http://www.w3.org/2000/svg" height="48px" width="95px" viewBox="0 0 95 48">
  <g fill="#004385">
    <path d="M20.9999979 0C18.8070923 0 17 1.807039 17 3.99999778V46.6666674c.0000736.7363488.5969838 1.333259 1.3333326 1.3333326h58.6666342c.7363488-.0000736 1.333259-.5969838 1.3333326-1.3333326V3.99999778C78.3332994 1.807039 76.5262071 0 74.3333016 0H20.9999979zm0 2.6666652h53.3333037c.7617996 0 1.3333326.571493 1.3333326 1.33333258v7.99999552h-55.999969V3.99999778c0-.76183958.571533-1.3333326 1.3333327-1.3333326zm3.3333315 2.66666517c-1.1045727 0-1.9999989.8953995-1.9999989 1.9999989 0 1.10452604.8954262 1.99999888 1.9999989 1.99999888 1.104566 0 1.9999989-.89547284 1.9999989-1.9999989 0-1.10459938-.8954329-1.99999888-1.9999989-1.99999888zm6.666663 0c-1.1045728 0-1.9999989.8953995-1.9999989 1.9999989 0 1.10452604.8954261 1.99999888 1.9999989 1.99999888 1.104566 0 1.9999988-.89547284 1.9999988-1.9999989 0-1.10459938-.8954328-1.99999888-1.9999988-1.99999888zm6.6666629 0c-1.1045727 0-1.9999989.8953995-1.9999989 1.9999989 0 1.10452604.8954262 1.99999888 1.9999989 1.99999888 1.1045661 0 1.9999989-.89547284 1.9999989-1.9999989 0-1.10459938-.8954328-1.99999888-1.9999989-1.99999888zM19.6666652 14.6666585h55.999969v30.6666763h-55.999969V14.6666585zM38.9817724 26.2042c.2442601.0942.5065691.1506.7839187.1506.2845691 0 .5546991-.0582.8037723-.1572l7.6574959 7.6374c-.0998699.2496-.1588292.5202-.1588292.8058.0006016 1.203.9770406 2.1768 2.1833008 2.1774 1.2062602-.0006 2.1826992-.9744 2.1833008-2.1774 0-.2748-.0565528-.5358-.1498049-.7776l6.9199025-6.9012c.2550894.1044.5336422.1638.8266341.1638 1.2062602-.0006 2.1826992-.9744 2.1833008-2.1774-.0006016-1.203-.9770406-2.1768-2.1833008-2.1774-1.2062601.0006-2.1826992.9744-2.1833008 2.1774 0 .2682.0553496.522.1443902.759l-6.9331382 6.9138c-.2502764-.0996-.5216097-.1578-.8079837-.1584-.2755447 0-.5366504.0564-.7797073.1494l-7.6743415-7.653c.0944553-.2436.1510081-.5052.1510081-.7818-.0006016-1.203-.9770406-2.1768-2.1833008-2.1774-1.2062601.0006-2.1826992.9744-2.1833008 2.1774 0 .2838.0583577.5532.157626.8016l-3.8185203 3.8082c-.231626-.0834-.477691-.1362-.7375935-.1368-1.2062601.0006-2.1826992.9744-2.1833008 2.1774.0006016 1.203.9770407 2.1768 2.1833008 2.1774 1.2062602-.0006 2.1826992-.9744 2.1833008-2.1774 0-.3006-.0613658-.5874-.172065-.8478l3.7872358-3.7758z"/>
    <path d="M84.34613036 33.19453057l-.17408427.1005076c-1.78496854 1.03055205-2.4352007 3.2587585-1.4492899 4.9664061l2.30001334 3.98373997 2.41783745-1.3959391-2.30001335-3.98373998c-.2497329-.43255007-.08521314-.99632428.36692253-1.25736493l2.76600597-1.5969543c.44367312-.2561548 1.0263741-.1137653 1.27176675.31126723l2.30001335 3.98373998 2.41783744-1.3959391-2.30001335-3.98373998c-.9859108-1.7076476-3.24010578-2.25898224-5.0250743-1.2284302l-.17408426.1005076-3.83279915-6.63860286-6.65958605-.956315-.50307166 2.6729437 5.37582988.7722511 3.20178956 5.54566217zm-76.11009814-1.3959391l-.17347984-.10015862c-1.78496847-1.03055203-4.03976795-.4795664-5.02567875 1.2280812l-2.30001335 3.98374L3.1546977 38.3061931l2.30001335-3.98373998c.24539265-.42503254.8280936-.56742203 1.27237123-.31091822l2.76600602 1.5969543c.4442776.2565038.61231518.8323324.36692253 1.25736494l-2.30001335 3.98373998 2.41783745 1.3959391 2.30001335-3.98373998c.9859108-1.7076476.33567863-3.93585404-1.44928988-4.9664061l-.17468876-.1008566 3.20178955-5.54566217 5.37582985-.7722511-.50428056-2.67364164-6.65837714.95701296-3.83279915 6.63860284z"/>
  </g>
</svg>