<?xml version="1.0" encoding="UTF-8"?>
<svg width="100px" height="100px" viewBox="0 0 100 100" version="1.1" xmlns="http://www.w3.org/2000/svg" xmlns:xlink="http://www.w3.org/1999/xlink">
    <!-- Generator: Sketch 45.2 (43514) - http://www.bohemiancoding.com/sketch -->
    <title>Icon / Standard</title>
    <desc>Created with Sketch.</desc>
    <defs></defs>
    <g id="MT5---Types-of-Account" stroke="none" stroke-width="1" fill="none" fill-rule="evenodd">
        <g id="MT5---Types-of-accounts" transform="translate(-669.000000, -661.000000)">
            <g id="Types-of-accounts" transform="translate(185.000000, 440.000000)">
                <g id="Standard" transform="translate(366.000000, 191.000000)">
                    <g id="Icon-/-Account-/-Standard" transform="translate(118.000000, 30.000000)">
                        <g id="Page-1">
                            <path d="M100,50 C100,77.614 77.614,100 50,100 C22.386,100 0,77.614 0,50 C0,22.386 22.386,0 50,0 C77.614,0 100,22.386 100,50" id="Fill-1" fill="#F2F2F2"></path>
                            <path d="M19.8296,71.5806 L62.0626,71.5806 C62.0726,71.3536 62.0776,71.1296 62.0776,70.9056 C62.0776,60.6436 52.5986,52.2946 40.9456,52.2946 C29.2936,52.2946 19.8146,60.6436 19.8146,70.9056 C19.8146,71.1296 19.8196,71.3536 19.8296,71.5806 L19.8296,71.5806 Z M66.2326,75.4376 L15.6596,75.4376 L15.4146,73.7396 C15.2746,72.7716 15.2046,71.8176 15.2046,70.9056 C15.2046,58.5166 26.7516,48.4376 40.9456,48.4376 C55.1406,48.4376 66.6876,58.5166 66.6876,70.9056 C66.6876,71.8176 66.6176,72.7716 66.4776,73.7396 L66.2326,75.4376 Z" id="Fill-3" fill="#004385"></path>
                            <path d="M19.8296,71.5806 L62.0626,71.5806 C62.0726,71.3536 62.0776,71.1296 62.0776,70.9056 C62.0776,60.6436 52.5986,52.2946 40.9456,52.2946 C29.2936,52.2946 19.8146,60.6436 19.8146,70.9056 C19.8146,71.1296 19.8196,71.3536 19.8296,71.5806 Z M66.2326,75.4376 L15.6596,75.4376 L15.4146,73.7396 C15.2746,72.7716 15.2046,71.8176 15.2046,70.9056 C15.2046,58.5166 26.7516,48.4376 40.9456,48.4376 C55.1406,48.4376 66.6876,58.5166 66.6876,70.9056 C66.6876,71.8176 66.6176,72.7716 66.4776,73.7396 L66.2326,75.4376 Z" id="Stroke-5" stroke="#004385"></path>
                            <path d="M40.9458,22.5352 C36.0288,22.5352 32.0278,26.5362 32.0278,31.4542 C32.0278,36.3712 36.0288,40.3722 40.9458,40.3722 C45.8638,40.3722 49.8648,36.3712 49.8648,31.4542 C49.8648,26.5362 45.8638,22.5352 40.9458,22.5352 M40.9458,45.4082 C33.2518,45.4082 26.9918,39.1482 26.9918,31.4542 C26.9918,23.7602 33.2518,17.5002 40.9458,17.5002 C48.6398,17.5002 54.8998,23.7602 54.8998,31.4542 C54.8998,39.1482 48.6398,45.4082 40.9458,45.4082" id="Fill-7" fill="#004385"></path>
                            <path d="M84.7915,65.2144 C84.7915,74.7614 77.0525,82.5004 67.5055,82.5004 C57.9595,82.5004 50.2205,74.7614 50.2205,65.2144 C50.2205,55.6684 57.9595,47.9294 67.5055,47.9294 C77.0525,47.9294 84.7915,55.6684 84.7915,65.2144" id="Fill-9" fill="#004385"></path>
                            <path d="M67.6611,55.1445 C65.0301,55.1445 62.8801,57.2935 62.8801,59.9255 C62.8801,62.5565 65.0301,64.7055 67.6611,64.7055 C70.2921,64.7055 72.4421,62.5565 72.4421,59.9255 C72.4421,57.2935 70.2921,55.1445 67.6611,55.1445" id="Fill-11" fill="#FFFFFF"></path>
                            <path d="M67.6611,66.4946 C63.7441,66.4946 60.2821,68.4326 58.1751,71.3996 C60.1961,74.4956 63.6881,76.5436 67.6611,76.5436 C71.6341,76.5436 75.1261,74.4956 77.1471,71.3996 C75.0391,68.4326 71.5781,66.4946 67.6611,66.4946" id="Fill-13" fill="#FFFFFF"></path>
                        </g>
                    </g>
                </g>
            </g>
        </g>
    </g>
</svg>