<svg xmlns="http://www.w3.org/2000/svg" width="100" height="100" viewBox="0 0 100 100">
    <style>
        .a{
        fill:#004385;
        }
        .b{
        fill:#FFF;
        }
    </style>
    <g fill="none">
        <path d="M100 50C100 77.6 77.6 100 50 100 22.4 100 0 77.6 0 50 0 22.4 22.4 0 50 0 77.6 0 100 22.4 100 50" fill="#F2F2F2"/>
        <path d="M19.8 71.6L62.1 71.6C62.1 71.4 62.1 71.1 62.1 70.9 62.1 60.6 52.6 52.3 40.9 52.3 29.3 52.3 19.8 60.6 19.8 70.9 19.8 71.1 19.8 71.4 19.8 71.6L19.8 71.6ZM66.2 75.4L15.7 75.4 15.4 73.7C15.3 72.8 15.2 71.8 15.2 70.9 15.2 58.5 26.8 48.4 40.9 48.4 55.1 48.4 66.7 58.5 66.7 70.9 66.7 71.8 66.6 72.8 66.5 73.7L66.2 75.4Z" class="a"/>
        <path d="M19.8 71.6L62.1 71.6C62.1 71.4 62.1 71.1 62.1 70.9 62.1 60.6 52.6 52.3 40.9 52.3 29.3 52.3 19.8 60.6 19.8 70.9 19.8 71.1 19.8 71.4 19.8 71.6ZM66.2 75.4L15.7 75.4 15.4 73.7C15.3 72.8 15.2 71.8 15.2 70.9 15.2 58.5 26.8 48.4 40.9 48.4 55.1 48.4 66.7 58.5 66.7 70.9 66.7 71.8 66.6 72.8 66.5 73.7L66.2 75.4Z" stroke="#004385"/>
        <path d="M40.9 22.5C36 22.5 32 26.5 32 31.5 32 36.4 36 40.4 40.9 40.4 45.9 40.4 49.9 36.4 49.9 31.5 49.9 26.5 45.9 22.5 40.9 22.5M40.9 45.4C33.3 45.4 27 39.1 27 31.5 27 23.8 33.3 17.5 40.9 17.5 48.6 17.5 54.9 23.8 54.9 31.5 54.9 39.1 48.6 45.4 40.9 45.4" class="a"/>
        <path d="M84.8 65.2C84.8 74.8 77.1 82.5 67.5 82.5 58 82.5 50.2 74.8 50.2 65.2 50.2 55.7 58 47.9 67.5 47.9 77.1 47.9 84.8 55.7 84.8 65.2" class="a"/>
        <path d="M67.7 55.1C65 55.1 62.9 57.3 62.9 59.9 62.9 62.6 65 64.7 67.7 64.7 70.3 64.7 72.4 62.6 72.4 59.9 72.4 57.3 70.3 55.1 67.7 55.1" class="b"/>
        <path d="M67.7 66.5C63.7 66.5 60.3 68.4 58.2 71.4 60.2 74.5 63.7 76.5 67.7 76.5 71.6 76.5 75.1 74.5 77.1 71.4 75 68.4 71.6 66.5 67.7 66.5" class="b"/>
    </g>
</svg>