<?xml version="1.0" encoding="UTF-8"?>
<svg width="100px" height="100px" viewBox="0 0 100 100" version="1.1" xmlns="http://www.w3.org/2000/svg" xmlns:xlink="http://www.w3.org/1999/xlink">
    <!-- Generator: Sketch 45.2 (43514) - http://www.bohemiancoding.com/sketch -->
    <title>Icon / STP</title>
    <desc>Created with Sketch.</desc>
    <defs></defs>
    <g id="MT5---Types-of-Account" stroke="none" stroke-width="1" fill="none" fill-rule="evenodd">
        <g id="MT5---Types-of-accounts" transform="translate(-1037.000000, -661.000000)">
            <g id="Types-of-accounts" transform="translate(185.000000, 440.000000)">
                <g id="STP" transform="translate(733.000000, 191.000000)">
                    <g id="Icon-/-Account-/-STP" transform="translate(119.000000, 30.000000)">
                        <g id="Page-1">
                            <path d="M100,50 C100,77.614 77.614,100 50,100 C22.386,100 0,77.614 0,50 C0,22.386 22.386,0 50,0 C77.614,0 100,22.386 100,50" id="Fill-1" fill="#F2F2F2"></path>
                            <path d="M19.8291,71.5806 L62.0621,71.5806 C62.0721,71.3536 62.0771,71.1296 62.0771,70.9056 C62.0771,60.6436 52.5981,52.2946 40.9461,52.2946 C29.2941,52.2946 19.8141,60.6436 19.8141,70.9056 C19.8141,71.1296 19.8191,71.3536 19.8291,71.5806 L19.8291,71.5806 Z M66.2321,75.4376 L15.6591,75.4376 L15.4141,73.7396 C15.2741,72.7716 15.2041,71.8176 15.2041,70.9056 C15.2041,58.5166 26.7521,48.4376 40.9461,48.4376 C55.1411,48.4376 66.6881,58.5166 66.6881,70.9056 C66.6881,71.8176 66.6171,72.7716 66.4771,73.7396 L66.2321,75.4376 Z" id="Fill-3" fill="#004385"></path>
                            <path d="M19.8291,71.5806 L62.0621,71.5806 C62.0721,71.3536 62.0771,71.1296 62.0771,70.9056 C62.0771,60.6436 52.5981,52.2946 40.9461,52.2946 C29.2941,52.2946 19.8141,60.6436 19.8141,70.9056 C19.8141,71.1296 19.8191,71.3536 19.8291,71.5806 Z M66.2321,75.4376 L15.6591,75.4376 L15.4141,73.7396 C15.2741,72.7716 15.2041,71.8176 15.2041,70.9056 C15.2041,58.5166 26.7521,48.4376 40.9461,48.4376 C55.1411,48.4376 66.6881,58.5166 66.6881,70.9056 C66.6881,71.8176 66.6171,72.7716 66.4771,73.7396 L66.2321,75.4376 Z" id="Stroke-5" stroke="#004385"></path>
                            <path d="M40.9463,22.5352 C36.0283,22.5352 32.0273,26.5362 32.0273,31.4542 C32.0273,36.3712 36.0283,40.3722 40.9463,40.3722 C45.8643,40.3722 49.8653,36.3712 49.8653,31.4542 C49.8653,26.5362 45.8643,22.5352 40.9463,22.5352 M40.9463,45.4082 C33.2523,45.4082 26.9923,39.1482 26.9923,31.4542 C26.9923,23.7602 33.2523,17.5002 40.9463,17.5002 C48.6393,17.5002 54.8993,23.7602 54.8993,31.4542 C54.8993,39.1482 48.6393,45.4082 40.9463,45.4082" id="Fill-7" fill="#004385"></path>
                            <g id="Group-2" transform="translate(50.000000, 47.000000)">
                                <path d="M34.791,18.2144 C34.791,27.7614 27.053,35.5004 17.506,35.5004 C7.959,35.5004 0.221,27.7614 0.221,18.2144 C0.221,8.6684 7.959,0.9294 17.506,0.9294 C27.053,0.9294 34.791,8.6684 34.791,18.2144" id="Fill-9" fill="#004385"></path>
                                <path d="M26.0127,16.9224 C26.5317,16.9224 26.9277,16.4954 26.9277,16.0074 L26.9277,15.4284 C26.9277,15.1234 26.7757,14.8494 26.5317,14.6664 L17.9937,8.9334 C17.6887,8.7204 17.2917,8.7204 16.9877,8.9334 L8.4507,14.6664 C8.2057,14.8494 8.0537,15.1234 8.0537,15.4284 L8.0537,16.0074 C8.0537,16.5264 8.4507,16.9224 8.9687,16.9224 L9.5777,16.9224 L9.5777,25.5214 L8.3587,25.5214 C8.1757,25.5214 8.0537,25.6434 8.0537,25.8254 L8.0537,27.3504 C8.0537,27.5334 8.1757,27.6554 8.3587,27.6554 L26.6537,27.6554 C26.8357,27.6554 26.9577,27.5334 26.9577,27.3504 L26.9577,25.8254 C26.9577,25.6434 26.8357,25.5214 26.6537,25.5214 L25.4337,25.5214 L25.4337,16.9224 L26.0127,16.9224 Z" id="Fill-11" fill="#FFFFFF"></path>
                                <path d="M17.5059,11.5562 C16.4999,11.5562 15.6769,12.3792 15.6769,13.3862 C15.6769,14.3912 16.4999,15.2152 17.5059,15.2152 C18.5119,15.2152 19.3349,14.3912 19.3349,13.3862 C19.3349,12.3792 18.5119,11.5562 17.5059,11.5562" id="Fill-13" fill="#004385"></path>
                                <polygon id="Fill-15" fill="#004385" points="18.649 25.521 22.148 25.521 22.148 16.922 18.649 16.922"></polygon>
                                <polygon id="Fill-17" fill="#004385" points="17.167 25.521 17.845 25.521 17.845 16.922 17.167 16.922"></polygon>
                                <polygon id="Fill-18" fill="#004385" points="12.863 25.521 16.362 25.521 16.362 16.922 12.863 16.922"></polygon>
                                <polygon id="Fill-19" fill="#004385" points="11.381 25.521 12.059 25.521 12.059 16.922 11.381 16.922"></polygon>
                                <polygon id="Fill-20" fill="#004385" points="22.953 25.521 23.631 25.521 23.631 16.922 22.953 16.922"></polygon>
                            </g>
                        </g>
                    </g>
                </g>
            </g>
        </g>
    </g>
</svg>