<svg xmlns="http://www.w3.org/2000/svg" height="48px" width="48px" viewBox="0 0 48 48">
  <path fill="#004385" fill-rule="nonzero" d="M12.84 46.7368421C12.84 47.4344649 12.274465 48 11.576842 48H6.644211c-.697623 0-1.263158-.5655351-1.263158-1.2631579s.565535-1.2631579 1.263158-1.2631579h4.932631c.697623 0 1.263158.5655351 1.263158 1.2631579zM6.063158 13.1178947c0-.6976228-.565535-1.2631579-1.263158-1.2631579-2.32309.012069-4.306889 1.6798413-4.717895 3.9663158-.080102.4445136.083025.8979955.427934 1.1896232.344908.2916278.819199.3770964 1.24421.2242106.425011-.1528859.736175-.5208991.816277-.9654127.192485-1.0923044 1.139296-1.8901787 2.248421-1.8947369.687761-.0103093 1.240849-.5690122 1.244211-1.2568421zm-4.8 23.9305264c.697623 0 1.263158-.5655351 1.263158-1.2631579v-4.9326316c0-.6976229-.565535-1.2631579-1.263158-1.2631579S0 30.1550087 0 30.8526316v4.9326316c0 .6976228.565535 1.2631579 1.263158 1.2631579zm0-9.8905264c.697623 0 1.263158-.565535 1.263158-1.2631579v-4.9136842c0-.6976228-.565535-1.2631579-1.263158-1.2631579S0 20.2834298 0 20.9810526v4.9136842c0 .6976229.565535 1.2631579 1.263158 1.2631579zm1.263158 15.9978948v-2.4378948c0-.6976228-.565535-1.2631579-1.263158-1.2631579S0 40.0202719 0 40.7178947v2.4568421c.002316 1.1292156.400081 2.2219516 1.124211 3.0884211.454079.5056414 1.226837.5613816 1.748784.1261426.521946-.4352391.605976-1.2054341.190163-1.7429847-.346682-.4095161-.536903-.9287075-.536842-1.4652632v-.0252631zm18.947368 2.3178947h-4.957895c-.697622 0-1.263157.5655351-1.263157 1.2631579S15.818167 48 16.515789 48h4.957895c.697623 0 1.263158-.5655351 1.263158-1.2631579s-.565535-1.2631579-1.263158-1.2631579zm4.357895-32.3494737c0-.6976228-.565535-1.2631579-1.263158-1.2631579h-4.989474c-.697622 0-1.263158.5655351-1.263158 1.2631579 0 .6976229.565536 1.2631579 1.263158 1.2631579h4.932632c.340448.0085139.66991-.1208003.913672-.3586175.243763-.2378171.381171-.5639862.381065-.9045404h.025263zM31.32 45.4736842h-4.938947c-.697623 0-1.263158.5655351-1.263158 1.2631579S25.68343 48 26.381053 48h4.976842c.697623 0 1.263158-.5655351 1.263158-1.2631579.000153-.3416805-.138118-.6688488-.383267-.9068569-.245148-.2380082-.576259-.3665514-.917786-.356301zm3.562105-7.8757895c-.697623 0-1.263158.5655351-1.263158 1.2631579v4.32c.000872.1332906-.009693.2664103-.031579.3978948-.118273.6870858.342492 1.3400724 1.029474 1.4589473h.214737c.621701.0090391 1.157523-.4356936 1.263158-1.048421.046701-.2733048.069944-.5501028.069474-.8273684v-4.3010527c.000067-.3394337-.136477-.6646115-.378858-.9022394-.24238-.2376278-.570198-.3677071-.909564-.3609185h.006316zm-1.263158-18.48v4.9326316c0 .6976229.565535 1.2631579 1.263158 1.2631579s1.263158-.565535 1.263158-1.2631579v-4.9326316c0-.6976228-.565535-1.2631579-1.263158-1.2631579s-1.263158.5655351-1.263158 1.2631579zm1.263158-3.7894736c.255543-.2168566.414428-.5263812.441673-.8604273.027245-.3340461-.079384-.665226-.29641-.9206254-.915362-1.0850114-2.26255-1.7112343-3.682105-1.7115789h-1.869474c-.697622 0-1.263157.565535-1.263157 1.2631579 0 .6976228.565535 1.2631579 1.263157 1.2631579H31.32c.676835-.0009091 1.319483.2972983 1.755789.8147368.216857.2555432.526382.4144276.860428.4416725.334046.0272449.665226-.0793835.920625-.2964093l.025263.0063158zM43.174737 0H16.686316c-2.664919 0-4.825263 2.1603439-4.825263 4.8252632v7.0357894H9.738947c-.697622 0-1.263158.5655351-1.263158 1.2631579 0 .6976229.565536 1.2631579 1.263158 1.2631579h4.932632c.697623 0 1.263158-.565535 1.263158-1.2631579 0-.6976228-.565535-1.2631579-1.263158-1.2631579h-.284211V4.8252632c0-1.2696736 1.029274-2.2989474 2.298948-2.2989474h26.488421c.609719 0 1.194465.2422098 1.625601.6733461.431136.4311362.673346 1.0158825.673346 1.6256013v26.488421c0 1.2696736-1.029274 2.2989474-2.298947 2.2989474h-7.03579v-4.6231579c0-.6976229-.565535-1.2631579-1.263158-1.2631579-.697622 0-1.263157.565535-1.263157 1.2631579v4.9326316c.001618.1603914.03377.3190069.094736.4673684-.160066.3896287-.11538.8334083.119151 1.1833036.234532.3498954.628044.55986 1.04927.5598543h8.298948c2.662455.0000023 4.821778-2.1564949 4.825263-4.8189474V4.8252632C48 2.1603439 45.839656 0 43.174737 0zM12.369806 27.8371867c.164328.0635705.340798.1016318.527388.1016318.191446 0 .373178-.039276.540744-.1060858L18.589584 32.9868c-.067188.1684415-.106853.3510548-.106853.5437908.000404.8118395.657312 1.4690043 1.468834 1.4694092.811522-.0004049 1.46843-.6575697 1.468834-1.4694092 0-.1854477-.038046-.3615824-.100782-.5247601l4.655423-4.6572459c.171614.0704539.359013.1105398.556126.1105398.811522-.0004049 1.468429-.6575698 1.468834-1.4694092-.000405-.8118395-.657312-1.4690044-1.468834-1.4694093-.811522.0004049-1.46843.6575698-1.468835 1.4694093 0 .1809936.037237.3522695.09714.5122079l-4.664328 4.6657489c-.168376-.0672147-.350917-.1064907-.543578-.1068956-.185375 0-.361036.0380613-.524555.100822l-5.162979-5.1645949c.063546-.1643925.101592-.3409321.101592-.5275945-.000404-.8118395-.657312-1.4690043-1.468834-1.4694092-.811522.0004049-1.46843.6575697-1.468834 1.4694092 0 .1915213.03926.3733247.106044.5409564l-2.568942 2.5699478c-.155829-.0562821-.321371-.091914-.496223-.0923189-.811522.0004049-1.468429.6575697-1.468834 1.4694092.000405.8118395.657312 1.4690044 1.468834 1.4694093.811522-.0004049 1.46843-.6575698 1.468835-1.4694093 0-.2028586-.041285-.3964044-.115759-.5721342l2.547896-2.5480828z"/>
</svg>