<svg xmlns="http://www.w3.org/2000/svg" viewBox="-19923.703 -20953.611 210.703 229.207"><defs><style>.a{fill:#fff;stroke:#004385;stroke-width:2px;}.b,.c{fill:#004385;}.b{fill-rule:evenodd;}.d{stroke:none;}.e{fill:none;}</style></defs><g transform="translate(-20669 -21302)"><g class="a" transform="translate(745.297 348.388)"><rect class="d" width="210.703" height="210.703"/><rect class="e" x="1" y="1" width="208.703" height="208.703"/></g><g transform="translate(782.989 368.236)"><g transform="translate(38.039 0)"><path class="b" d="M0,70.9A105.845,105.845,0,0,1,31.81,87.139,15.011,15.011,0,0,1,33.2,88.218c-.1-.051-.462-.206-1.131-.565-1.542-.771-4.676-2.364-7.451-3.751-2.775-1.336-5.19-2.467-8.171-3.649-.874-.36-1.8-.668-2.724-1.028-.822,2.929-1.644,6.989-1.336,9.867a10.692,10.692,0,0,1,5.6-4.265C14.9,89.4,13.464,95.978,19.476,102.3c-.1-.257-.822-6.526,2.261-9.507-.206,7.194,5.5,15.314,11.974,15.622a12.142,12.142,0,0,1-2.724-8.017c4.368,6.475,14.8,10.74,14.851,10.689.051-.1-6.475-8.274-6.835-15.519,3.7,7.092,6.629,6.732,12.025,15.005.874-2.929.206-4.728-.668-7.811a38.836,38.836,0,0,1,10.021,9.507C57.247,98.342,22.508,71.465,0,70.9Z" transform="translate(0 -34.465)"/><path class="b" d="M51.148,16.393c.771-.308,1.9-.719,2.775-1.028a12.181,12.181,0,0,1,1.9-.514c.36-.1.36-.1.463-.874.1-.822.308-2.415.565-3.906s.565-2.775.822-3.751.411-1.593.514-1.9l.1-.308-.36.514a19.426,19.426,0,0,1-2,2.415,13.438,13.438,0,0,1-2.672,1.953,3.082,3.082,0,0,1-1.85.514,3.732,3.732,0,0,1-2.056-.874,7.248,7.248,0,0,1-1.9-2.724,38.675,38.675,0,0,1-1.439-3.7C45.65,1.182,45.5.617,45.393.36L45.187,0l-.206.874c-.206.925-.565,2.724-.976,4.419a28.64,28.64,0,0,1-1.336,4.419,6.743,6.743,0,0,1-1.9,2.672,4.655,4.655,0,0,1-2.415,1.079,4.135,4.135,0,0,1-2.569-.565A19.8,19.8,0,0,1,32.6,10.586a32.887,32.887,0,0,1-2.672-2.724c-.771-.874-1.387-1.593-1.747-2l-.308-.36.051.925a36.626,36.626,0,0,1,.051,4.214,8.51,8.51,0,0,1-.822,3.289,4.482,4.482,0,0,1-1.542,1.8,4.4,4.4,0,0,1-2.107.514,5.363,5.363,0,0,1-1.593-.257l-.308-.1,1.8,1.644c1.8,1.644,5.4,4.882,7.194,6.475,1.8,1.644,1.8,1.644,2.415,1.49.617-.1,1.9-.308,2.518-.411s.617-.1.771-.565A11.054,11.054,0,0,1,37.325,22.2a6.223,6.223,0,0,1,2.107-2.21,5.834,5.834,0,0,1,2.621-.668,14.727,14.727,0,0,1,2.261.051,1.527,1.527,0,0,0,.925-.206c.463-.206,1.387-.668,2.158-1.028s1.388-.668,1.9-.925a13.013,13.013,0,0,1,1.85-.822ZM46.061,10.38c-.617.154-.925,1.028-.719,1.85.257.874.925,1.439,1.542,1.233.617-.154.925-1.028.719-1.85-.206-.874-.874-1.439-1.542-1.233ZM31.724,15.005a1.634,1.634,0,0,0-.1,2.261c.565.822,1.542,1.182,2.107.771a1.638,1.638,0,0,0,.051-2.261,1.56,1.56,0,0,0-2.056-.771Z" transform="translate(-10.5 0)"/><path class="b" d="M78.854,11.27a2.632,2.632,0,0,1-1.079.411,2.582,2.582,0,0,1-1.387-.257,2.157,2.157,0,0,1-.874-.771,4.091,4.091,0,0,1-.411-.617l-.1-.1.206-.257A13.535,13.535,0,0,1,76.233,8.5a16.76,16.76,0,0,1,1.285-1.131c.257-.206.257-.206.462.1.206.36.565,1.028.874,1.644a10.311,10.311,0,0,1,.514,1.387l.1.257-.1.1a2.5,2.5,0,0,1-.514.411Z" transform="translate(-36.459 -3.51)"/><path class="b" d="M53.069,14.639a9.216,9.216,0,0,1-1.131,1.439,2.022,2.022,0,0,1-1.49.668,4.609,4.609,0,0,1-2-.36,6.105,6.105,0,0,1-1.387-.822l-.257-.206.1-.36c.1-.36.36-1.131.719-2.107.36-.925.822-2.056,1.079-2.621s.257-.565.719-.206,1.439,1.028,2.21,1.7A17.938,17.938,0,0,1,53.275,13.3l.308.308-.051.154a3.6,3.6,0,0,1-.462.874Z" transform="translate(-22.75 -4.772)"/><path class="b" d="M26.608,23.706a1.928,1.928,0,0,1-.771.822,2.966,2.966,0,0,1-1.336.462,3.418,3.418,0,0,1-1.131-.206,3.534,3.534,0,0,1-.668-.36l-.1-.051.051-.308a9.849,9.849,0,0,1,.36-1.49c.206-.617.462-1.285.617-1.644s.154-.36.462-.1c.308.206.976.617,1.542,1.028.514.411.925.771,1.131.976l.206.206-.051.1c-.1.051-.154.257-.308.565Z" transform="translate(-10.986 -10.037)"/><path class="b" d="M44.78,51.392c-4.985,3.494-3.392,11.768,1.8,12.9,4.317.925,6.681.36,9.969,4.265.668.874,1.079,2.107,3.186.462-.719-1.9.668-3.494.719-5.4l-.1.1-.1.1c-.565.617-1.131.617-2,.668a2.885,2.885,0,0,0-.617-1.028c-1.131.411-3.186-.308-3.34-1.49,0-.1-.051-.206-.051-.308h.257c.822.051,1.439.1,2.056.1a10.627,10.627,0,0,0,1.8-.154,9.1,9.1,0,0,0,1.593-.565c.36-.154.411-.257.308-.308s-.36,0-.771-.051c-.462-.051-1.079-.1-1.7-.206a7.6,7.6,0,0,1-1.85-.514,8.15,8.15,0,0,1-1.387-.874.709.709,0,0,1-.206-.154,3.574,3.574,0,0,1,.874-1.285c.565-.463.668-.463,1.542-.257a14.134,14.134,0,0,1,2.929,1.439l.514-.719c1.131.771,1.387,2.364,1.336,3.7,1.233-.411,3.083-4.882,2.415-6.835a8.729,8.729,0,0,0,.925-.976,7.109,7.109,0,0,0,.719-1.388l-9.044-5.139.565-1.387c-9.147-4.779.051-6.269-6.064-13.207-.719-.822-9.867,3.032-12.128,4.368-7.606-.925-6.886,4.933-7.554,5.036-5.961.976-9.764,2.415-10.689,7.246a7.783,7.783,0,0,1,5.19-.36.05.05,0,0,0-.051.051,23.116,23.116,0,0,0-3.649,3.34c-4.522-1.182-11.511-.822-13.669-.617,24.718,4.265,45.325,19.476,57.2,32.991-.976-5.19-5.344-9.353-9.455-12.385C50.433,68.3,47.5,66.809,43.187,63.725a6.77,6.77,0,0,1-2.672-6.064c.1-5.756,4.265-6.269,4.265-6.269Zm.257-14.543a23.989,23.989,0,0,1,2.826-1.182,8.637,8.637,0,0,1,1.7-.463c.308-.051.308-.051.463.257a7.248,7.248,0,0,1,.617,1.49,5.217,5.217,0,0,1,.1,1.747,2.032,2.032,0,0,1-.154.668c-.051.1-.051.1-.308-.36s-.771-1.336-1.028-1.747c-.257-.462-.257-.462-.719-.411s-1.336.154-2.467.36c-1.131.257-2.467.617-3.135.822s-.668.206-.206-.051a24.74,24.74,0,0,1,2.312-1.131Zm-1.9,5.55c-1.336-2.21-5.4-2.929-7.606-2.621.308.462,1.182,1.028,1.233,1.953.1,3.34-11.408,2.056-13.772,5.756C27.514,44.506,41.235,46.2,38,40.909a9.835,9.835,0,0,1,5.139,1.49Zm11.357,5.55c-.1-.051.051,0-.257-.1-.976-.36-2.518-.206-4.831-1.644l-.565.514c1.49.565,1.49,1.593,1.439,2.929.719-.874,2.621-1.182,4.162-1.182l.051-.514Z" transform="translate(-4.132 -15.934)"/></g><path class="b" d="M148.943,79.675a3.657,3.657,0,0,1-.514.551,5.142,5.142,0,0,1-7.272-7.272,5.022,5.022,0,0,1,3.636-1.506,5.2,5.2,0,0,1,3.269,1.139V69.832c-.11-.037-.22-.11-.331-.147a7.242,7.242,0,0,0-2.938-.588,6.95,6.95,0,0,0-2.9.588,7.518,7.518,0,0,0-2.387,1.579,7.425,7.425,0,0,0-1.616,2.387,7.911,7.911,0,0,0-.588,2.938,7.578,7.578,0,0,0,.588,2.9,7.619,7.619,0,0,0,4,4,7.87,7.87,0,0,0,2.9.588,8.061,8.061,0,0,0,2.938-.588,6.393,6.393,0,0,0,1.212-.661V79.675ZM161.871,69.1H159.52v6.427h-5.987V69.1h-2.351V84.083h2.351V77.619h5.987v6.464h2.351V69.1Zm12.561,15.021H177l-6.5-15.683-6.537,15.683h2.571l1.285-3.232h5.325l1.285,3.232Zm-5.766-5.325L170.5,74.24l1.836,4.554ZM193.2,84.119V68.4l-7.052,10.5-7.088-10.5V84.083h2.351V76.149l4.7,6.978,4.7-6.978v7.97ZM196.321,69.1V84.083h2.351V79.014h2.093a4.776,4.776,0,0,0,3.746-1.506,5.045,5.045,0,0,0,1.212-3.489,5.109,5.109,0,0,0-1.212-3.489,4.9,4.9,0,0,0-3.746-1.469h-4.444Zm6.648,7.015a2.836,2.836,0,0,1-2.167.771h-2.093V71.191H200.8a2.851,2.851,0,0,1,2.167.808,3.113,3.113,0,0,1,.661,2.057,3.2,3.2,0,0,1-.661,2.057Zm7.052,8.007V69.1h-2.351V84.083h2.351Zm10.137,0a8.06,8.06,0,0,0,2.938-.588,7.424,7.424,0,0,0,2.387-1.616,6.949,6.949,0,0,0,1.579-2.387,7.87,7.87,0,0,0,.588-2.9,8.061,8.061,0,0,0-.588-2.938,7.95,7.95,0,0,0-1.579-2.387,7.314,7.314,0,0,0-2.387-1.579,7.911,7.911,0,0,0-2.938-.588,7.617,7.617,0,0,0-5.289,2.167,7.425,7.425,0,0,0-1.616,2.387,7.91,7.91,0,0,0-.588,2.938,7.577,7.577,0,0,0,.588,2.9,7.619,7.619,0,0,0,4,4,7.578,7.578,0,0,0,2.9.588Zm0-12.671a5.141,5.141,0,1,1-3.636,1.506,5.11,5.11,0,0,1,3.636-1.506ZM242.083,84.78V69.1h-2.351V78.72L230.294,68.4V84.119h2.351V74.46l9.439,10.32Zm11.532-13.589H260.3V69.1h-9V84.083h2.351V77.325h5.472v-2.13h-5.509v-4Zm21.632,12.928-5.472-8.043L274.55,69.1h-2.938l-3.305,4.811L265.038,69.1H262.1l4.738,6.978-5.472,8.043H264.3l3.967-5.876,4,5.876Z" transform="translate(-137.3 19.438)"/><path class="b" d="M147.031,120.694h-.845l-1.285,3.2-.845-2.02-.441-.992-.4.992-.808,2.02-1.359-3.2H140.2l2.2,5.032,1.212-2.9,1.285,2.9,2.13-5.032Zm5.619,0h-.771v2.057h-1.947v-2.057h-.771v4.848h.771v-2.093h1.947v2.093h.771v-4.848Zm3.122.661h2.13v-.661H155v4.848h2.9v-.7h-2.13v-1.506h1.763v-.7h-1.763v-1.285Zm6.5,2.424a1.308,1.308,0,0,0,.551-.367,1.626,1.626,0,0,0,.4-1.1,1.722,1.722,0,0,0-.4-1.139,1.5,1.5,0,0,0-1.212-.477H160.18v4.848h.771v-1.653h.551l1.212,1.653h.845l-1.285-1.763Zm-1.322-.588v-1.836h.661a.818.818,0,0,1,.7.257,1.1,1.1,0,0,1,0,1.322.818.818,0,0,1-.7.257Zm5.362-1.836h2.13v-.661h-2.9v4.848h2.9v-.7h-2.13v-1.506h1.763v-.7h-1.763v-1.285Zm9.476-.661h-3.416v.661H173.7v4.15h.771v-4.15h1.322v-.661Zm5.546,0h-.771v2.057h-1.947v-2.057h-.771v4.848h.771v-2.093h1.947v2.093h.771v-4.848Zm3.122.661h2.13v-.661h-2.9v4.848h2.9v-.7h-2.13v-1.506h1.763v-.7h-1.763v-1.285Zm9.953,2.718c-.037.073-.11.11-.147.184a1.608,1.608,0,0,1-1.175.477,1.769,1.769,0,0,1-1.175-.477,1.608,1.608,0,0,1-.477-1.175,1.769,1.769,0,0,1,.477-1.175,1.608,1.608,0,0,1,1.175-.477,1.777,1.777,0,0,1,1.065.367v-.881c-.037,0-.073-.037-.11-.037a2.113,2.113,0,0,0-.955-.184,2.758,2.758,0,0,0-.955.184,2.363,2.363,0,0,0-1.285,1.285,2.574,2.574,0,0,0,0,1.91,2.363,2.363,0,0,0,1.285,1.285,2.575,2.575,0,0,0,1.91,0c.147-.073.257-.147.4-.22v-1.065Zm4.995.771h-2.02v-4.15h-.771v4.848h2.755v-.7Zm2.681.661v-4.848h-.771v4.848Zm3.159-4.15h2.13v-.661h-2.9v4.848h2.9v-.7h-2.13v-1.506h1.763v-.7h-1.763v-1.285Zm8.227,4.371v-5.068H212.7v3.085l-3.048-3.342v5.068h.771v-3.122l3.048,3.379Zm5.509-5.032h-3.416v.661h1.322v4.15h.771v-4.15h1.322v-.661Zm4.775,4.811v-4.848h-.771v4.848Zm4.921-1.653a1.4,1.4,0,0,0-.441-.624,3.46,3.46,0,0,1-.367-.367h0l-.808-.771c-.22-.184-.22-.331-.184-.441a.446.446,0,0,1,.367-.294.579.579,0,0,1,.624.257l.588-.477a1.4,1.4,0,0,0-.661-.477,1.241,1.241,0,0,0-.735-.037,1.687,1.687,0,0,0-.588.257,1.128,1.128,0,0,0-.367.551,1.2,1.2,0,0,0,0,.624,1.438,1.438,0,0,0,.367.588l.588.551.588.588a.549.549,0,0,1,.22.551.664.664,0,0,1-.514.4.614.614,0,0,1-.441-.037,1.121,1.121,0,0,1-.477-.367l-.588.477a1.927,1.927,0,0,0,.808.624,1.523,1.523,0,0,0,.588.11.809.809,0,0,0,.294-.037,1.464,1.464,0,0,0,1.1-.955.922.922,0,0,0,.037-.7Zm7.823,1.653-2.13-2.5,1.763-2.314h-.955l-1.542,1.983v-1.983h-.771v4.848h.771v-2.2l1.91,2.2h.955Zm2.791,0v-4.848h-.771v4.848Zm6.17.22v-5.068h-.771v3.085l-3.048-3.342v5.068h.771v-3.122l3.048,3.379Zm6.133-2.718h-1.653v.7h.918v.881h0c-.073.037-.184.073-.257.11h-.147c-.037,0-.11.037-.147.037h-.257a1.769,1.769,0,0,1-1.175-.477,1.874,1.874,0,0,1-.441-.735c-.037-.11-.037-.257-.073-.367v-.22a1.592,1.592,0,0,1,.037-.184h0a1.138,1.138,0,0,1,.22-.477v-.037c0-.037.037-.037.037-.073h0c.037-.037.037-.073.073-.11h0l.073-.073a.885.885,0,0,1,.294-.22.036.036,0,0,0,.037-.037,1.707,1.707,0,0,1,.845-.22h.477c.11.037.184.073.294.11h0a1.727,1.727,0,0,1,.331.22v-.881h0a.036.036,0,0,1-.037-.037h0a2.149,2.149,0,0,0-.808-.184h-.184a2.759,2.759,0,0,0-.955.184,2.363,2.363,0,0,0-1.285,1.285,2.149,2.149,0,0,0-.184.808v.367a2.5,2.5,0,0,0,.7,1.469,2.139,2.139,0,0,0,.551.4l.22.11c.037,0,.074.037.11.037s.037.037.073.037h0a2.8,2.8,0,0,0,.771.11h.11a2.593,2.593,0,0,0,.881-.22h0a.036.036,0,0,0,.037-.037h0a.036.036,0,0,0,.037-.037h.184a.036.036,0,0,0,.037-.037h.11l.184-.11v-1.322h0v-.771Z" transform="translate(-139.135 -13.463)"/></g><path class="c" d="M46.6,25.658l3.423-5.705L44.454,16.3l.617-6.63-6.6-.879L36.143,2.544,29.821,4.626,25.01,0l-4.8,4.61L13.877,2.544,11.565,8.789l-6.6.879.617,6.63L0,19.953l3.439,5.705L0,31.363l5.566,3.654-.617,6.63,6.6.879,2.328,6.245,6.337-2.066,4.8,4.61,4.811-4.61,6.322,2.066,2.328-6.245,6.6-.879-.617-6.63,5.566-3.654ZM31.008,51.9l-2.822,2.714L25.01,57.669l-3.176-3.053L19.012,51.9,15.3,53.12l-3.731,1.234V78.947l13.214-8.3,13.692,8.3V54.353L34.725,53.12Z" transform="translate(827.027 498.649)"/></g></svg>