<svg width="120" height="120" viewBox="0 0 120 120" xmlns="http://www.w3.org/2000/svg"><title>ic_congratulations</title><g fill="none" fill-rule="evenodd"><path d="M118.038 54.92a8.536 8.536 0 0 0-.679-.693l-2.31-2.081c-2.518-2.276-3.327-5.941-2.01-9.1l1.197-2.888c1.681-4.062-.183-8.745-4.164-10.46a8.13 8.13 0 0 0-.932-.332l-2.954-.858c-3.23-.939-5.51-3.873-5.673-7.293l-.14-3.135c-.195-4.25-3.625-7.597-7.795-7.605-.407.025-.812.08-1.213.17l-3.033.533c-3.302.585-6.608-1.046-8.205-4.058L78.66 4.312c-2.034-3.88-6.77-5.34-10.571-3.263-.311.17-.609.361-.893.573l-2.55 1.819a7.691 7.691 0 0 1-9.122 0l-2.407-1.898C49.638-1.06 44.75-.291 42.2 3.259c-.2.283-.384.577-.55.883l-1.452 2.822c-1.613 2.993-4.91 4.608-8.206 4.018l-3.032-.559a7.742 7.742 0 0 0-1.388-.13c-4.156.009-7.578 3.324-7.8 7.554l-.18 3.199c-.176 3.42-2.473 6.347-5.706 7.267l-2.969.845c-4.16 1.196-6.582 5.604-5.41 9.848.084.313.192.62.313.918l1.186 2.9c1.306 3.167.482 6.835-2.052 9.102l-2.268 1.989c-3.259 2.894-3.6 7.937-.763 11.263.212.247.435.48.674.699l2.293 2.081c2.52 2.277 3.332 5.943 2.014 9.1l-1.2 2.889c-1.677 4.061.188 8.745 4.168 10.459.303.13.613.241.932.331l2.956.859c3.227.939 5.51 3.874 5.668 7.295l.14 3.133c.196 4.252 3.628 7.597 7.8 7.606.44-.02.88-.076 1.311-.17l3.032-.533c3.306-.578 6.61 1.058 8.205 4.071l1.466 2.755c2.037 3.881 6.77 5.343 10.572 3.265.311-.17.61-.363.893-.573l2.55-1.821a7.697 7.697 0 0 1 9.122 0l2.55 1.834c3.476 2.603 8.364 1.832 10.914-1.718.203-.281.386-.578.551-.883l1.48-2.756c1.598-2.915 4.805-4.504 8.038-3.98l3.033.546c.457.087.923.13 1.39.13 4.152-.007 7.573-3.324 7.796-7.554l.18-3.186c.178-3.42 2.475-6.346 5.708-7.267l2.967-.845c4.16-1.197 6.583-5.605 5.412-9.848a7.848 7.848 0 0 0-.314-.918l-1.183-2.9c-1.31-3.167-.484-6.835 2.05-9.1l2.27-1.99c3.234-2.921 3.539-7.966.677-11.269z" fill="#FFF"/><path d="M36.175 81.39c0 1.028-.785 1.86-1.752 1.86H29.75c-.966 0-1.751-.832-1.751-1.86V59.222c0-1.027.785-1.86 1.751-1.86h4.672c.967 0 1.752.834 1.752 1.86V81.39zm53.848-19.979c-.913 1.292-1.225 2.381-.775 4.095.45 1.714.26 3.856-.972 5.284-.704.816-.555 1.364-.291 2.115.751 2.144-.036 4.651-1.658 6.174-.802.753-.793.797-.552 1.757 1.294 5.144-3.127 8.48-8.337 8.937-7.373.645-15.348-.04-22.195-2.624-1.63-.616-11.719-1.979-13.457-2.24-1.914-.289-2.586-1.205-2.597-3.344-.02-3.859-.006-7.717-.006-11.574 0-3.768.015-7.533-.008-11.298-.01-1.86.473-3.13 2.545-3.772 1.938-.6 3.013-2.513 4.293-4.02 2.11-2.488 3.961-5.197 6.142-7.631a8.878 8.878 0 0 0 2.236-6.097c-.145-6.699 3.353-8.314 5.925-6.455 5.43 3.92 3.46 19.32 5.153 19.36 3.076.067 15.596-.19 18.67.147 5.447.593 9.094 6.644 5.884 11.186z" fill="#013365"/></g></svg>