<svg xmlns="http://www.w3.org/2000/svg" width="56" height="50" viewBox="0 0 56 50">
  <g fill="none" fill-rule="evenodd">
    <path fill="#004385" fill-rule="nonzero" stroke="#004385" stroke-width=".5" d="M35.875933 6.34013987h-1.8686658l-.8019149-2.67006994h-1.8712197L30.5319624 1h-4.1372676l-.7988502 2.67006993h-1.8709644l-.8019148 2.67006994h-1.8681551l-.961787 3.20485008h16.744186l-.9612763-3.20485008zm-3.0677073-2.1352898l.6415319 2.1352898h-4.6260781l.642298-2.1352898h3.3422482zm-4.3415771 1.47358237l-.4433516-1.47358236h.8833832l-.4400316 1.47358236zm-1.6725287-4.14697232h3.3402051l.642298 2.13528978h-4.6225027l.6399996-2.13528978zm-2.6716023 2.67338996h3.3417375l.642298 2.1352898h-4.6263335l.642298-2.1352898zm-3.312368 4.80867975l.6422981-2.1352898h3.3417374l.6422981 2.1352898h-4.6263336zm4.5415451-2.13963136h.8833833l-.4400317 1.47358235-.4433516-1.47358235zm.8019148 2.1386098l.6422981-2.13528977h3.3417374l.642298 2.13528978h-4.6263335zm4.5415451-2.1386098h.8833833l-.4433517 1.47358235-.4400316-1.47358235zm1.4408928 0h3.3417375l.642298 2.13528978h-4.6263335l.642298-2.13528978z"/>
    <g fill="#004385" fill-rule="nonzero">
      <path d="M11.2598884 40.0864716c-.0910516-.2972188-.2388956-.57395244-.4353393-.8148659-.1505705-.18012354-.3188534-.34466687-.5023147-.49115205.1771296-.0173498.3522845-.05097953.5232444-.10046292.2558718-.06813342.49266-.19416588.6920779-.36836405.2007926-.1838694.3540042-.41368682.4465019-.66975282.1168257-.29195948.129149-.6153247.034883-.91532885-.0812364-.2786295-.2314491-.5322634-.4367347-.73742573-.2024108-.21550382-.4356359-.39982694-.6920779-.5469648-.1451131-.08930037-.3139466-.15627565-.468827-.23441348l.5134772-1.38450466-.8023081-.29022622-.5037099 1.38450466-.81416826-.3017376.50231462-1.38450465-.80440104-.2898774-.50231462 1.38450467-1.6953118-.6142889-.30138878.837191.2441807.11162548c.0669753.03488296.16743822.08930037.29022623.15627566.09958583.06161473.19303463.1326358.27906368.2120884.06697528.05581273.08930037.08930037.07813783.1004629.00844516.05315167.00066472.10761474-.0223251.15627568L5.20839262 39.8963595c-.0175048.04338015-.03997993.08458457-.06697528.12278803-.01116255.01116257-.0446502.02232507-.12278802.02232507-.1066304-.0048752-.2121695-.02363775-.31394663-.0558127-.12892868-.02356828-.25582244-.0571578-.3795266-.10046293l-.2567386-.0669753-.30138877.83719103 1.74170615.6362652-.5023146 1.3845046.80230804.2902263.5023146-1.3845047.81486594.3013888-.50231462 1.3845046.80230806.2902262.5023146-1.3953183c.24788105.0745052.50190067.1268033.7590532.1562756.33781152.0433404.6802106.0358152 1.01579177-.0223251.3296025-.0499418.6430141-.1760708.9153289-.368364.2913821-.2018311.5118995-.4902.630335-.8242843.0874885-.33308.091323-.6826168.0111626-1.017536zm-1.1947414-2.89144845c-.09303342.25633123-.28422747.46511648-.53140152.58029422-.24717405.11517774-.5300166.12728326-.78612782.03364587l-.95997904-.34603896.70324046-1.942632.95997904.34603896c.5278182.2066341.79878788.792735.61428888 1.3286919zM7.77647608 41.1040076l-1.17241626-.4255721.83719102-2.3109961 1.17241626.4241768c.63816393.2311839.96808643.9359296.7369025 1.5740935-.2311839.638164-.9359296.9680865-1.57409352.7369025v.0013954zm3.46108722-10.57476912c-3.18179016-1.15905133-6.74847783-.28718516-9.03675443 2.2090077C-.08746773 35.234439-.64663997 38.8633146.78405957 41.9325633c1.43069955 3.0692486 4.56948385 4.9743588 7.9525951 4.8268909 3.38311123-.1474678 6.34422023-2.3184687 7.50242733-5.5005663.7610306-2.0860081.6615106-4.38899754-.2766339-6.40157854-.9381445-2.012581-2.6379377-3.56961907-4.7248848-4.32807088zM5.87503615 45.2541687c-3.7877033-1.3793229-5.7401215-5.5679889-4.36088342-9.35572305 1.3792381-3.78773416 5.5678604-5.74024612 9.35562547-4.3610928 3.787765 1.37915334 5.7403707 5.56773196 4.3613021 9.35552785-1.3847435 3.7829098-5.56843402 5.7331228-9.35604415 4.361288z"/>
      <path stroke="#004385" stroke-width=".3" d="M54.8916279 46.767442H43.0684884V30.023256h11.854186v16.744186h-.0310465zm-10.8945349-.9286046h9.9969768V30.95186065H43.997093V45.8388374zM42.4186047 30.023256h13.1229069v.92860465H42.4186047V30.023256zm0 15.8155814h13.1229069v.9286046H42.4186047v-.9286046zm0-12.28709303h13.1229069v.92860465H42.4186047v-.92860465zm0 8.48023253h13.1229069v.9286047H42.4186047v-.9286047zm6.5305813-5.1997674s-1.0831395.92860464-1.2069767 1.79511627c0 .0927907-.0310465.1855814-.0310465.24767442.0028729.6822648.5557551 1.2343681 1.2380232 1.2362791h.0310466c.682946-.0019163 1.236107-.55507727 1.2380232-1.2380233.0070245-.0838196-.0035505-.16818205-.0310465-.24767444-.1238372-.86476744-1.2380233-1.7933721-1.2380233-1.7933721z"/>
    </g>
    <g stroke="#004385">
      <path fill="#004385" stroke-width=".5" d="M28.6389808 38.8515131c-6.5411591 0-11.8632336-5.3506829-11.8632336-11.9269103 0-6.5411591 5.3220745-11.86323364 11.8632336-11.86323364 6.542082 0 11.8632337 5.34976004 11.8632337 11.92598744 0 6.542082-5.3211517 11.8641565-11.8632337 11.8641565zm0-18.4557955c-.4826504 0-.8748615.3912883-.8748615.8748616v.5195644c-.5767811.1116648-1.1046512.3414544-1.5448505.6967516-.6543005.5297157-1.0797343 1.3685862-1.0797343 2.2822074 0 .9957549.5906239 1.7894057 1.2440015 2.187154.6543005.3977482 1.3399779.5740125 1.9278332.8065707.8028793.319306 2.0717977.5980066 2.0773348 1.3805832 0 .4097453-.1504245.6690661-.4374308.9016242-.2879291.2325582-.7428941.4097453-1.3122924.4097453-.8997785 0-1.5891473-.5657069-1.8724621-1.038206-.2362496-.3940568-.8093393-.5370985-1.2033961-.300849-.393134.2362495-.5361757.8093393-.2999262 1.2024732.4752676.7918051 1.3547435 1.5180879 2.5009229 1.7764858v.5472499c0 .4826505.3922111.8739388.8748615.8739388s.8748616-.3912883.8748616-.8739388v-.5186415c.5767811-.1162791 1.1046512-.3552972 1.5439276-.7115172.6552234-.5297157 1.0797343-1.3547434 1.0797343-2.2683647 0-.9966777-.589701-1.8032484-1.2440015-2.2009967-.6533776-.3977482-1.339055-.5740125-1.9269103-.8065707-.7973422-.3183831-2.0717977-.5998523-2.0773348-1.3667405 0-.4106681.1495016-.6819859.4374308-.9154669.2879291-.2325582.742894-.3968254 1.3122923-.3968254.8997785 0 1.5882245.552787 1.8724622 1.0252861.2362495.3940568.8093392.5370985 1.2024732.300849.3940569-.2362496.5370986-.8093393.300849-1.2024732-.4752676-.7918051-1.3547434-1.5079366-2.5009228-1.7626431v-.5472499c0-.4835733-.3922112-.8748616-.8748616-.8748616z"/>
      <path fill="#014385" stroke-width="2" d="M17.3786449 44.8588959c3.2853452 2.0007383 7.1391658 3.1579919 11.2596899 3.1579919 4.1214471 0 7.9743448-1.1572536 11.2606128-3.1589147v.5334071c-3.3028793 1.9564415-7.1502399 3.0869325-11.2606128 3.0869325-4.10945 0-7.9568106-1.130491-11.2596899-3.0869325v-.5324843zM39.194075 7.12024697c3.3757844 1.84477668 6.3039867 4.6031746 8.3647102 8.17183463 2.0607235 3.5695829 2.985419 7.4852344 2.8949797 11.3316722l.4614249-.2667036c.0433739-3.839055-.9016243-7.7362495-2.9568107-11.29568104-2.0542635-3.55850867-4.956626-6.3261351-8.3028793-8.20782577l-.4614248.26670355zm-21.1101883 0c-3.37578443 1.84477668-6.30490957 4.6031746-8.36471023 8.17183463-2.06072352 3.5695829-2.98541897 7.4852344-2.8949797 11.3316722l-.46234773-.2667036c-.0424511-3.839055.90254707-7.7362495 2.95773348-11.29568104 2.05426357-3.55850867 4.95662606-6.3261351 8.30287928-8.20782577l.4614249.26670355z"/>
    </g>
  </g>
</svg>