<svg xmlns="http://www.w3.org/2000/svg" viewBox="-23286 -16216 197 197">
  <defs>
    <style>
      .cls-1 {
        fill: #f2f2f2;
      }

      .cls-2 {
        fill: #0080ff;
      }

      .cls-3 {
        fill: #ccd9e7;
      }

      .cls-4 {
        fill: #004385;
      }
    </style>
  </defs>
  <g id="Group_372" data-name="Group 372" transform="translate(-24119 -17159)">
    <circle id="Ellipse_106" data-name="Ellipse 106" class="cls-1" cx="98.5" cy="98.5" r="98.5" transform="translate(833 943)"/>
    <g id="Group_371" data-name="Group 371" transform="translate(879.12 992)">
      <g id="Group_366" data-name="Group 366" transform="translate(39.482 10.889)">
        <circle id="Ellipse_107" data-name="Ellipse 107" class="cls-2" cx="4.097" cy="4.097" r="4.097" transform="translate(8.491)"/>
        <path id="Path_655" data-name="Path 655" class="cls-2" d="M186,141.416s12.63,9.552,24.942-.637C210.942,140.779,199.479,123.373,186,141.416Z" transform="translate(-186 -115.838)"/>
      </g>
      <g id="Group_367" data-name="Group 367" transform="translate(70.091 68.053)">
        <circle id="Ellipse_108" data-name="Ellipse 108" class="cls-3" cx="4.097" cy="4.097" r="4.097" transform="translate(8.491)"/>
        <path id="Path_656" data-name="Path 656" class="cls-3" d="M330.2,410.716s12.63,9.552,24.942-.637C355.142,410.079,343.679,392.673,330.2,410.716Z" transform="translate(-330.2 -385.138)"/>
      </g>
      <g id="Group_368" data-name="Group 368" transform="translate(9 68.053)">
        <circle id="Ellipse_109" data-name="Ellipse 109" class="cls-3" cx="4.097" cy="4.097" r="4.097" transform="translate(8.491)"/>
        <path id="Path_657" data-name="Path 657" class="cls-3" d="M42.4,410.716s12.63,9.552,24.942-.637C67.342,410.079,55.879,392.673,42.4,410.716Z" transform="translate(-42.4 -385.138)"/>
      </g>
      <g id="Group_370" data-name="Group 370">
        <g id="Group_369" data-name="Group 369">
          <path id="Path_658" data-name="Path 658" class="cls-4" d="M217.114,51.529a7.6,7.6,0,0,0,7.514-7.514,7.514,7.514,0,1,0-7.514,7.514Zm0-11.08a3.248,3.248,0,0,1,3.311,3.311,3.4,3.4,0,0,1-3.311,3.311,3.311,3.311,0,1,1,0-6.623Z" transform="translate(-165.108 -28.752)"/>
          <path id="Path_659" data-name="Path 659" class="cls-4" d="M73.214,305.4a7.514,7.514,0,1,0,0,15.029,7.583,7.583,0,0,0,7.514-7.514A7.448,7.448,0,0,0,73.214,305.4Zm0,10.613A3.4,3.4,0,0,1,69.9,312.7a3.261,3.261,0,0,1,3.311-3.311,3.4,3.4,0,0,1,3.311,3.311A3.248,3.248,0,0,1,73.214,316.013Z" transform="translate(-51.754 -240.573)"/>
          <path id="Path_660" data-name="Path 660" class="cls-4" d="M82.551,57.079a21.338,21.338,0,0,0-17.066,8.385L54,55V42.836A21.638,21.638,0,0,0,73.466,21.46,21.46,21.46,0,1,0,50.011,42.815V54.85L38.484,65.379A21.531,21.531,0,1,0,42.921,78.54a21.707,21.707,0,0,0-2.165-9.488L51.921,58.777,63.235,69.094A21.538,21.538,0,0,0,82.551,100a21.46,21.46,0,0,0,0-42.921ZM11.8,92.825a8.025,8.025,0,0,1,7.684-5.668h3.991a8.064,8.064,0,0,1,7.684,5.668,17.25,17.25,0,0,1-19.359,0ZM34.43,89.917a12.493,12.493,0,0,0-10.953-6.75H19.486A12.164,12.164,0,0,0,8.427,89.79,17.246,17.246,0,0,1,21.482,61.261,17.25,17.25,0,0,1,34.43,89.917ZM52.006,38.7a17.152,17.152,0,0,1-9.658-2.972,8.025,8.025,0,0,1,7.684-5.668h3.991a8.064,8.064,0,0,1,7.684,5.668A17.228,17.228,0,0,1,52.006,38.7ZM34.748,21.439A17.258,17.258,0,1,1,64.954,32.817,12.493,12.493,0,0,0,54,26.067H50.011a12.164,12.164,0,0,0-11.059,6.623A17.081,17.081,0,0,1,34.748,21.439ZM72.872,92.825a8.025,8.025,0,0,1,7.684-5.668h3.991a8.064,8.064,0,0,1,7.684,5.668,17.25,17.25,0,0,1-19.359,0ZM95.5,89.917a12.493,12.493,0,0,0-10.953-6.75H80.556A12.164,12.164,0,0,0,69.5,89.79a17.255,17.255,0,1,1,26,.127Z"/>
          <path id="Path_661" data-name="Path 661" class="cls-4" d="M361.014,305.4a7.514,7.514,0,1,0,7.514,7.514A7.448,7.448,0,0,0,361.014,305.4Zm0,10.613A3.4,3.4,0,0,1,357.7,312.7a3.311,3.311,0,1,1,3.311,3.311Z" transform="translate(-278.463 -240.573)"/>
        </g>
      </g>
    </g>
  </g>
</svg>
