<svg xmlns="http://www.w3.org/2000/svg" viewBox="0 0 32 32">
  <defs>
    <style>.cls-1{fill:#fff;}.cls-2{fill:#004385;}</style>
  </defs>
  <g id="Group_207" data-name="Group 207">
    <g id="Group_202" data-name="Group 202">
      <circle id="Ellipse_61" data-name="Ellipse 61" class="cls-1" cx="16.04" cy="5.24" r="1.26"/>
      <path id="Path_290" data-name="Path 290" class="cls-1" d="M12.17,11.84s3.88,2.93,7.66-.2C19.84,11.65,16.32,6.3,12.17,11.84Z"/>
    </g>
    <g id="Group_203" data-name="Group 203">
      <circle id="Ellipse_62" data-name="Ellipse 62" class="cls-1" cx="25.45" cy="22.81" r="1.26"/>
      <path id="Path_291" data-name="Path 291" class="cls-1" d="M21.58,29.41s3.88,2.93,7.66-.2C29.24,29.21,25.72,23.86,21.58,29.41Z"/>
    </g>
    <g id="Group_204" data-name="Group 204">
      <circle id="Ellipse_63" data-name="Ellipse 63" class="cls-1" cx="6.68" cy="22.81" r="1.26"/>
      <path id="Path_292" data-name="Path 292" class="cls-1" d="M2.81,29.41s3.88,2.93,7.66-.2C10.47,29.21,7,23.86,2.81,29.41Z"/>
    </g>
    <g id="Group_206" data-name="Group 206">
      <g id="Group_205" data-name="Group 205">
        <path id="Path_293" data-name="Path 293" class="cls-2" d="M16,7.64a2.34,2.34,0,0,0,2.31-2.31A2.31,2.31,0,1,0,16,7.64Zm0-3.4a1,1,0,0,1,1,1s0,0,0,0a1,1,0,0,1-1,1,1,1,0,0,1,0-2Z"/>
        <path id="Path_294" data-name="Path 294" class="cls-2" d="M6.64,20.56a2.31,2.31,0,1,0,2.31,2.31,2.31,2.31,0,0,0-2.31-2.31Zm0,3.26a1,1,0,0,1-1-1,1,1,0,0,1,1-1h0a1,1,0,0,1,1,1,1,1,0,0,1-1,1Z"/>
        <path id="Path_295" data-name="Path 295" class="cls-2" d="M25.41,18.18a6.56,6.56,0,0,0-5.24,2.58l-3.53-3.21V13.8a6.63,6.63,0,1,0-1.23,0v3.7l-3.54,3.23a6.59,6.59,0,1,0,.7,1.13L16,18.7l3.48,3.17a6.6,6.6,0,1,0,5.93-3.69Zm-21.74,11A2.47,2.47,0,0,1,6,27.42H7.26a2.48,2.48,0,0,1,2.36,1.74A5.3,5.3,0,0,1,3.67,29.16Zm7-.89a3.84,3.84,0,0,0-3.37-2.07H6a3.74,3.74,0,0,0-3.4,2,5.3,5.3,0,1,1,8,0ZM16,12.53a5.27,5.27,0,0,1-3-.91,2.47,2.47,0,0,1,2.36-1.74h1.23A2.48,2.48,0,0,1,19,11.62,5.29,5.29,0,0,1,16,12.53Zm-5.3-5.3A5.3,5.3,0,1,1,20,10.72a3.84,3.84,0,0,0-3.37-2.07H15.41a3.74,3.74,0,0,0-3.4,2A5.25,5.25,0,0,1,10.72,7.23ZM22.43,29.16a2.47,2.47,0,0,1,2.36-1.74H26a2.48,2.48,0,0,1,2.36,1.74A5.3,5.3,0,0,1,22.43,29.16Zm7-.89A3.84,3.84,0,0,0,26,26.19H24.79a3.74,3.74,0,0,0-3.4,2,5.3,5.3,0,1,1,8,0Z"/>
        <path id="Path_296" data-name="Path 296" class="cls-2" d="M25.41,20.56a2.31,2.31,0,1,0,2.31,2.31,2.31,2.31,0,0,0-2.31-2.31Zm0,3.26a1,1,0,0,1-1-1,1,1,0,1,1,1,1Z"/>
      </g>
    </g>
  </g>
</svg>