<svg xmlns="http://www.w3.org/2000/svg" viewBox="-23223 -15609 50 50">
  <defs>
    <style>
      .cls-1 {
        fill: #004385;
      }

      .cls-2 {
        fill: #0080ff;
      }
    </style>
  </defs>
  <g id="Group_378" data-name="Group 378" transform="translate(-23223 -15609)">
    <path id="Path_642" data-name="Path 642" class="cls-1" d="M25,0A25,25,0,1,0,50,25,25.073,25.073,0,0,0,25,0Zm0,46.875A21.74,21.74,0,0,1,3.125,25,21.74,21.74,0,0,1,25,3.125,21.74,21.74,0,0,1,46.875,25,21.74,21.74,0,0,1,25,46.875Z"/>
    <path id="Path_643" data-name="Path 643" class="cls-2" d="M18.987,27.687V9.563a9.061,9.061,0,0,1,4.688,2.813h3.75a11.945,11.945,0,0,0-8.437-5.938V3H15.862V6.125a12.538,12.538,0,0,0,0,25V34.25h3.125V30.812a11.945,11.945,0,0,0,8.437-5.937h-3.75A9.061,9.061,0,0,1,18.987,27.687ZM7.425,18.625A9.473,9.473,0,0,1,15.862,9.25V28A9.473,9.473,0,0,1,7.425,18.625Z" transform="translate(9.138 6.375)"/>
  </g>
</svg>
