<svg xmlns="http://www.w3.org/2000/svg" viewBox="-23320 -16176.047 139.574 104.599">
  <defs>
    <style>
      .cls-1 {
        fill: #fafafa;
      }

      .cls-2 {
        fill: #ccd9e7;
      }

      .cls-3 {
        fill: #99b4ce;
      }

      .cls-4 {
        fill: #33699d;
      }

      .cls-5 {
        fill: #004385;
      }
    </style>
  </defs>
  <g id="Group_362" data-name="Group 362" transform="translate(-24132 -16651.047)">
    <g id="Group_361" data-name="Group 361" transform="translate(812 475)">
      <path id="Path_635" data-name="Path 635" class="cls-1" d="M143.213,8H8V108.237H123.094l20.118-20.091Z" transform="translate(-5.819 -5.819)"/>
      <path id="Path_636" data-name="Path 636" class="cls-2" d="M8,8V108.237h97.375L26.374,8Z" transform="translate(-5.819 -5.819)"/>
      <path id="Path_637" data-name="Path 637" class="cls-2" d="M430.2,322.091,450.318,302H430.2Z" transform="translate(-312.925 -219.673)"/>
      <path id="Path_638" data-name="Path 638" class="cls-3" d="M146.346,241.992l-9.323-6.979-9.323,6.979V204.7h18.646Z" transform="translate(-92.888 -148.898)"/>
      <path id="Path_639" data-name="Path 639" class="cls-4" d="M146.346,224.737V204.7H127.7v19.437l9.323,4.171Z" transform="translate(-92.888 -148.898)"/>
      <path id="Path_640" data-name="Path 640" class="cls-3" d="M81.087,42.2l7.033,4.062h8.124l4.062,7.033,7.033,4.062v8.124l4.062,7.033-4.062,7.033v8.124l-7.033,4.062-4.062,7.033H88.12l-7.033,4.062-7.033-4.062h-8.1L61.9,91.732l-7.033-4.062V79.547L50.8,72.514l4.062-7.033V57.357L61.9,53.3l4.062-7.033h8.1Z" transform="translate(-36.952 -30.696)"/>
      <circle id="Ellipse_105" data-name="Ellipse 105" class="cls-3" cx="20.991" cy="20.991" r="20.991" transform="translate(23.144 20.827)"/>
      <circle id="Ellipse_106" data-name="Ellipse 106" class="cls-1" cx="15.729" cy="15.729" r="15.729" transform="translate(28.406 26.088)"/>
      <path id="Path_641" data-name="Path 641" class="cls-5" d="M139.574,2.181A2.187,2.187,0,0,0,137.393,0H2.181A2.187,2.187,0,0,0,0,2.181V72.1a2.181,2.181,0,0,0,4.362,0V4.362H135.213V80.119H117.3a2.187,2.187,0,0,0-2.181,2.181v17.91H4.362V86.089a2.181,2.181,0,0,0-4.362,0v16.329A2.187,2.187,0,0,0,2.181,104.6H117.275a2.332,2.332,0,0,0,1.554-.627l20.118-20.118a2.208,2.208,0,0,0,.627-1.554ZM119.456,97.157V84.508H132.1Z"/>
      <path id="Path_642" data-name="Path 642" class="cls-5" d="M102.646,49.693,96.131,45.9l-3.762-6.515a2.164,2.164,0,0,0-1.881-1.09H82.964l-6.515-3.762a2.22,2.22,0,0,0-2.181,0L67.7,38.3H60.174a2.132,2.132,0,0,0-1.881,1.09L54.5,45.9l-6.515,3.789a2.164,2.164,0,0,0-1.09,1.881V59.1l-3.762,6.515a2.22,2.22,0,0,0,0,2.181L46.9,74.309v7.578a2.132,2.132,0,0,0,1.09,1.881L54.5,87.531l3.762,6.515a2.164,2.164,0,0,0,1.881,1.09H63.8v22.844a2.195,2.195,0,0,0,3.489,1.745l8.015-6,8.015,6a2.2,2.2,0,0,0,3.489-1.745V95.137h3.653a2.132,2.132,0,0,0,1.881-1.09L96.1,87.531l6.515-3.762a2.164,2.164,0,0,0,1.09-1.881V74.364l3.762-6.515a2.22,2.22,0,0,0,0-2.181l-3.762-6.515V51.574A2.055,2.055,0,0,0,102.646,49.693ZM76.612,109.258a2.208,2.208,0,0,0-2.617,0l-5.834,4.362V95.409L74.213,98.9a2.22,2.22,0,0,0,2.181,0l6.052-3.489v18.21ZM99.675,72.674a2.185,2.185,0,0,0-.3,1.09v6.87l-5.943,3.435a2.2,2.2,0,0,0-.791.791L89.207,90.8h-6.87a2.185,2.185,0,0,0-1.09.3L75.3,94.537,69.361,91.1a2.185,2.185,0,0,0-1.09-.3H61.428l-3.435-5.943a2.2,2.2,0,0,0-.791-.791L51.26,80.634v-6.87a2.185,2.185,0,0,0-.3-1.09l-3.435-5.943,3.435-5.943a2.185,2.185,0,0,0,.3-1.09v-6.87L57.2,49.393a2.2,2.2,0,0,0,.791-.791l3.435-5.943H68.3a2.185,2.185,0,0,0,1.09-.3l5.943-3.435,5.943,3.435a2.185,2.185,0,0,0,1.09.3h6.87L92.669,48.6a2.2,2.2,0,0,0,.791.791L99.4,52.828V59.7a2.185,2.185,0,0,0,.3,1.09l3.435,5.943Z" transform="translate(-31.169 -24.913)"/>
      <path id="Path_643" data-name="Path 643" class="cls-5" d="M100.071,68.4a23.171,23.171,0,1,0,23.171,23.171A23.187,23.187,0,0,0,100.071,68.4Zm0,41.954a18.783,18.783,0,1,1,18.783-18.783A18.8,18.8,0,0,1,100.071,110.354Z" transform="translate(-55.937 -49.754)"/>
      <path id="Path_644" data-name="Path 644" class="cls-3" d="M301.481,115.562h23.09a2.181,2.181,0,1,0,0-4.362h-23.09a2.181,2.181,0,0,0,0,4.362Z" transform="translate(-217.709 -80.886)"/>
      <path id="Path_645" data-name="Path 645" class="cls-3" d="M427.376,115.562a2.181,2.181,0,0,0,0-4.362h-10.5a2.181,2.181,0,1,0,0,4.362Z" transform="translate(-301.65 -80.886)"/>
      <path id="Path_646" data-name="Path 646" class="cls-3" d="M301.481,158.362h41.954a2.181,2.181,0,0,0,0-4.362H301.481a2.181,2.181,0,0,0,0,4.362Z" transform="translate(-217.709 -112.019)"/>
      <path id="Path_647" data-name="Path 647" class="cls-3" d="M301.481,201.062h14.693a2.181,2.181,0,0,0,0-4.362H301.481a2.181,2.181,0,0,0,0,4.362Z" transform="translate(-217.709 -143.078)"/>
      <path id="Path_648" data-name="Path 648" class="cls-3" d="M407.226,198.881a2.187,2.187,0,0,0-2.181-2.181H386.181a2.181,2.181,0,1,0,0,4.362h18.892A2.164,2.164,0,0,0,407.226,198.881Z" transform="translate(-279.319 -143.078)"/>
      <path id="Path_649" data-name="Path 649" class="cls-3" d="M339.981,256.5a2.181,2.181,0,0,0,0,4.362h20.991a2.181,2.181,0,0,0,0-4.362Z" transform="translate(-245.714 -186.577)"/>
      <g id="Group_360" data-name="Group 360" transform="translate(35.384 31.65)">
        <path id="Path_650" data-name="Path 650" class="cls-5" d="M129.8,151.5a28.009,28.009,0,0,1,8.424,4.307,4.006,4.006,0,0,1,.354.273,1.7,1.7,0,0,0-.3-.136c-.409-.218-1.227-.627-1.963-.981s-1.363-.654-2.181-.981c-.245-.082-.463-.191-.709-.273a7.973,7.973,0,0,0-.354,2.617,2.862,2.862,0,0,1,1.472-1.118,3.479,3.479,0,0,0,.382,4.634,3.17,3.17,0,0,1,.6-2.508c-.055,1.908,1.445,4.062,3.162,4.144a3.185,3.185,0,0,1-.709-2.126,10.214,10.214,0,0,0,3.926,2.835,9.05,9.05,0,0,1-1.8-4.116c.981,1.854,1.745,1.8,3.189,3.98a3.071,3.071,0,0,0-.191-2.072,9.66,9.66,0,0,1,2.644,2.508C144.957,158.751,135.743,151.664,129.8,151.5Z" transform="translate(-129.8 -141.85)"/>
        <path id="Path_651" data-name="Path 651" class="cls-5" d="M150.05,117.327a3.908,3.908,0,0,1-.545.627,3.386,3.386,0,0,1-.709.518.79.79,0,0,1-.491.136,1,1,0,0,1-.545-.245,2.268,2.268,0,0,1-.518-.709c-.136-.327-.273-.654-.382-.981-.082-.273-.136-.409-.164-.491l-.027-.082-.055.245c-.055.245-.164.709-.273,1.172a8.328,8.328,0,0,1-.354,1.172,1.844,1.844,0,0,1-.491.709,1.168,1.168,0,0,1-.654.273.985.985,0,0,1-.682-.164,5.954,5.954,0,0,1-.845-.6,8.69,8.69,0,0,1-.709-.709,5.544,5.544,0,0,0-.463-.518l-.082-.109.027.245a7.646,7.646,0,0,1,0,1.118,2.419,2.419,0,0,1-.218.872.962.962,0,0,1-.409.463,1.267,1.267,0,0,1-.572.136,2.1,2.1,0,0,1-.409-.055l-.082-.027.463.436,1.908,1.717c.463.436.463.436.654.409l.682-.109c.164-.027.164-.027.218-.164a4.016,4.016,0,0,1,.273-.6,1.446,1.446,0,0,1,.572-.572,1.591,1.591,0,0,1,.709-.164h.6a.405.405,0,0,0,.245-.055l.572-.273.518-.245a3.751,3.751,0,0,1,.463-.218h.027c.218-.082.491-.191.736-.273a5.082,5.082,0,0,1,.518-.136c.082-.027.082-.027.109-.245s.082-.654.136-1.036c.082-.382.164-.736.218-.981s.109-.436.136-.518l.027-.082Zm-6.379,3.544a.469.469,0,0,1-.572-.191.429.429,0,0,1,.027-.6h0a.469.469,0,0,1,.572.191A.456.456,0,0,1,143.671,120.871Zm3.489-1.2c-.164.055-.354-.082-.409-.327a.37.37,0,0,1,.191-.491c.164-.055.354.082.409.327A.37.37,0,0,1,147.161,119.671Z" transform="translate(-137.51 -116.1)"/>
        <path id="Path_652" data-name="Path 652" class="cls-5" d="M168.209,120.907a1.138,1.138,0,0,1-.273.109.748.748,0,0,1-.354-.055,1.5,1.5,0,0,1-.245-.191.57.57,0,0,1-.109-.164l-.027-.027.055-.082a1.43,1.43,0,0,1,.273-.3,2.584,2.584,0,0,1,.354-.3c.082-.055.082-.055.136.027s.164.273.245.436a2.135,2.135,0,0,1,.136.382l.027.082-.027.027c-.082-.027-.136.027-.191.055Z" transform="translate(-157.005 -118.835)"/>
        <path id="Path_653" data-name="Path 653" class="cls-5" d="M154.836,122.326a2.059,2.059,0,0,1-.3.382.727.727,0,0,1-.382.191,1.889,1.889,0,0,1-.545-.082,1.545,1.545,0,0,1-.354-.218l-.055-.055.027-.109a3.322,3.322,0,0,1,.191-.545c.082-.245.218-.545.273-.709s.055-.136.191-.055a5.2,5.2,0,0,1,.6.463c.164.136.3.273.436.409l.082.082-.027.027a.594.594,0,0,1-.136.218Z" transform="translate(-146.821 -119.709)"/>
        <path id="Path_654" data-name="Path 654" class="cls-5" d="M142.063,127.189a1.5,1.5,0,0,1-.191.245.548.548,0,0,1-.354.109.98.98,0,0,1-.3-.055,1.329,1.329,0,0,0-.191-.082l-.027-.055.027-.082.082-.409c.055-.164.136-.354.164-.436s.027-.082.136-.027c.082.055.273.164.409.273a1.429,1.429,0,0,1,.3.273l.055.055v.027a.57.57,0,0,1-.109.164Z" transform="translate(-137.947 -123.564)"/>
        <path id="Path_655" data-name="Path 655" class="cls-5" d="M146.522,142.625c-1.527-1.118-2.317-1.527-3.462-2.344a1.835,1.835,0,0,1-.709-1.608c.082-1.5,1.172-1.636,1.172-1.636h0a1.947,1.947,0,0,0,.491,3.408c1.145.245,1.772.082,2.644,1.118.164.245.273.572.845.109-.191-.491.164-.927.191-1.418l-.027.027-.027.027a.72.72,0,0,1-.518.191.566.566,0,0,0-.164-.273c-.3.109-.845-.082-.9-.409a.1.1,0,0,0-.027-.082h.082a4.031,4.031,0,0,0,.545.027,1.509,1.509,0,0,0,.491-.055,1.425,1.425,0,0,0,.436-.164q.123-.082.082-.082c-.082,0-.136-.027-.218-.027a4.073,4.073,0,0,1-.463-.055,1.655,1.655,0,0,1-.491-.136,1.037,1.037,0,0,1-.354-.245l-.055-.055a1.037,1.037,0,0,1,.245-.354c.136-.136.191-.136.409-.082a2.861,2.861,0,0,1,.763.382l.136-.191a1.066,1.066,0,0,1,.354.981,2.045,2.045,0,0,0,.627-1.8,2.459,2.459,0,0,0,.245-.273,2.252,2.252,0,0,0,.191-.354l-2.372-1.363.164-.382c-2.426-1.254.027-1.663-1.608-3.489-.191-.218-2.617.818-3.217,1.172-2.017-.245-1.826,1.309-2.017,1.336-1.581.245-2.59.627-2.835,1.908a2.141,2.141,0,0,1,1.363-.109.027.027,0,0,0-.027.027,7.48,7.48,0,0,0-.981.872,13.3,13.3,0,0,0-3.626-.164,27.141,27.141,0,0,1,15.13,8.723A5.987,5.987,0,0,0,146.522,142.625Zm-.463-6.515c.055.027.027.027.055.027h0v.136A1.568,1.568,0,0,0,145,136.6c0-.354.027-.627-.382-.791l.164-.136A4.27,4.27,0,0,0,146.058,136.109Zm-3.053-2.59c.109-.055.354-.164.6-.3v-.027c.245-.109.545-.245.736-.327a2.55,2.55,0,0,1,.436-.109c.082-.027.082-.027.109.055a1.076,1.076,0,0,1,.164.409,1.33,1.33,0,0,1,.027.463.387.387,0,0,1-.055.164c0,.027,0,.027-.082-.082l-.273-.463c-.055-.109-.055-.109-.191-.109a5.461,5.461,0,0,0-.654.109,6.708,6.708,0,0,0-.818.218ZM137.771,136c.627-.981,3.68-.627,3.653-1.527,0-.245-.245-.382-.327-.518a2.347,2.347,0,0,1,2.017.682h0v-.027a2.611,2.611,0,0,0-1.336-.382C142.6,135.673,138.97,135.237,137.771,136Z" transform="translate(-132.782 -127.659)"/>
      </g>
    </g>
  </g>
</svg>
