<svg xmlns="http://www.w3.org/2000/svg" viewBox="0 0 24 24">
    <defs>
        <style>
            .cls-1{fill:#99b4ce;}
            .cls-2{fill:#668eb6;}
            .cls-3{fill:#004385;}
            .cls-4{fill:#fff;}
        </style>
    </defs>
    <path class="cls-1" d="M21,21V9a1,1,0,0,0-1-1H4A1,1,0,0,0,3,9V21l1.7,2.55a1,1,0,0,0,.83.45H18.46a1,1,0,0,0,.83-.45Z"/>
    <rect class="cls-2" x="5" y="14" width="4" height="1"/>
    <rect class="cls-2" x="10" y="14" width="4" height="1"/>
    <rect class="cls-2" x="15" y="14" width="4" height="1"/>
    <rect class="cls-2" x="5" y="16" width="4" height="1"/>
    <rect class="cls-2" x="10" y="16" width="4" height="1"/>
    <rect class="cls-2" x="15" y="16" width="4" height="1"/>
    <rect class="cls-2" x="5" y="18" width="4" height="1"/>
    <rect class="cls-2" x="10" y="18" width="4" height="1"/>
    <rect class="cls-3" x="8" y="20" width="8" height="2" rx="1" ry="1"/>
    <rect class="cls-2" x="15" y="18" width="4" height="1"/>
    <rect class="cls-4" x="5" y="10" width="14" height="3"/>
    <rect class="cls-3" x="7" y="11" width="1" height="1"/>
    <rect class="cls-3" x="9" y="11" width="1" height="1"/>
    <rect class="cls-3" x="11" y="11" width="1" height="1"/>
    <rect class="cls-3" x="13" y="11" width="1" height="1"/>
    <polygon class="cls-2" points="19 3 18 3 18 8 6 8 6 3 5 3 4 8 5 8 5 9 19 9 19 8 20 8 19 3"/>
    <path class="cls-3" d="M7,0H17a1,1,0,0,1,1,1V9a0,0,0,0,1,0,0H6A0,0,0,0,1,6,9V1A1,1,0,0,1,7,0Z"/>
    <rect class="cls-4" x="8" y="2" width="2" height="7"/>
    <circle class="cls-4" cx="14.5" cy="3.5" r="1.5"/>
    <circle class="cls-4" cx="14.5" cy="5.5" r="1.5"/>
</svg>