<svg xmlns="http://www.w3.org/2000/svg" viewBox="-23879.998 -15609 43.207 50">
  <defs>
    <style>
      .cls-1 {
        fill: #004385;
      }

      .cls-2 {
        fill: #0080ff;
      }
    </style>
  </defs>
  <g id="group" transform="translate(-23879.998 -15609)">
    <path id="path" class="cls-1" d="M84.775,98.539c-.47-8.936-8.5-12.633-8.5-12.633-1.919-.9-5.4-2.654-7.679-3.815,2.922-3.2,3.786-8.41,3.92-9.152a35.319,35.319,0,0,0,.3-7.51c-.558-8.078-8.713-8.2-9.568-8.2h-.142c-.774-.01-9.02.072-9.581,8.2a35.319,35.319,0,0,0,.3,7.51c.04.216.143.818.339,1.633a10.407,10.407,0,0,0,5.854,3.49,1.356,1.356,0,0,1,.948-.386h3.548a1.36,1.36,0,0,1,0,2.719H60.97a1.36,1.36,0,0,1-1.248-.82A13.684,13.684,0,0,1,55.09,77.55a14.472,14.472,0,0,0,2.66,4.542c-2.281,1.161-5.759,2.917-7.679,3.814,0,0-8.03,3.7-8.5,12.633,0,0-.139,1.486,2.677,2.049a95.071,95.071,0,0,0,18.927,1.969A95.075,95.075,0,0,0,82.1,100.588C84.916,100.025,84.775,98.539,84.775,98.539Z" transform="translate(-41.568 -52.557)"/>
    <path id="path-2" data-name="path" class="cls-2" d="M111.226,23.279h.857V13.212c0-.025.008-.049.008-.075V11.651a8.587,8.587,0,0,1,2.431-6.385c3.337-3.284,9.038-3.239,9.134-3.225.068,0,5.72-.086,9.073,3.195a8.6,8.6,0,0,1,2.448,6.416v1.572c0,.016,0,.03,0,.045V23.279h.857a3.819,3.819,0,0,0,3.819-3.819v-3.67a3.818,3.818,0,0,0-2.639-3.63v-.509a10.571,10.571,0,0,0-3.061-7.874C130.2-.1,123.874,0,123.652,0c-.266,0-6.6-.08-10.553,3.8a10.553,10.553,0,0,0-3.05,7.849v.507a3.819,3.819,0,0,0-2.643,3.632v3.67A3.819,3.819,0,0,0,111.226,23.279Z" transform="translate(-102.028 0)"/>
  </g>
</svg>
