<svg xmlns="http://www.w3.org/2000/svg" viewBox="0 0 32 32">
  <defs>
    <style>.cls-1{fill:#004385;}</style>
  </defs>
  <path class="cls-1" d="M31.79,21.22l-3.47-3.47A7.36,7.36,0,0,0,16.86,8.51V6.64A.83.83,0,0,0,16,5.81H8.39a.83.83,0,0,0-.83.83V9.37H.83a.83.83,0,0,0-.83.83V25.36a.83.83,0,0,0,.83.83H24a.83.83,0,0,0,.83-.83V20.17a7.35,7.35,0,0,0,2.3-1.24l3.47,3.47a.83.83,0,0,0,1.17-1.17ZM22.56,7.47a5.7,5.7,0,1,1-5.7,5.7h0A5.71,5.71,0,0,1,22.56,7.47ZM8.39,11h7.13a7.36,7.36,0,0,0,2.94,8.24v5.25H6.38V11Zm.83-3.57h6v1.9h-6ZM1.66,11H4.72V24.53H1.66ZM23.18,24.53H20.12V20.11a7.33,7.33,0,0,0,2.44.42l.61,0Z"/>
</svg>
