<svg xmlns="http://www.w3.org/2000/svg" viewBox="-23897 -15396 78.576 50">
  <defs>
    <style>
      .cls-1 {
        fill: #0080ff;
      }

      .cls-2 {
        fill: #004385;
      }
    </style>
  </defs>
  <g id="Group_365" data-name="Group 365" transform="translate(-24424 -17025)">
    <path id="Subtraction_3" data-name="Subtraction 3" class="cls-1" d="M22247,22514h-55v-36h38.252a15.008,15.008,0,0,0,16.748,20.7v15.3Z" transform="translate(-21662 -20837)"/>
    <path id="inspection" class="cls-2" d="M77.979,90.34,69.47,81.832a18.049,18.049,0,0,0-28.1-22.655v-4.6a2.04,2.04,0,0,0-2.04-2.04H20.57a2.04,2.04,0,0,0-2.04,2.04v6.707H2.04A2.04,2.04,0,0,0,0,63.322V100.5a2.04,2.04,0,0,0,2.04,2.04H58.893a2.04,2.04,0,0,0,2.04-2.04V87.767a18.033,18.033,0,0,0,5.653-3.049l8.508,8.508a2.04,2.04,0,0,0,2.885-2.885ZM55.349,56.615a13.98,13.98,0,1,1-13.98,13.98A14,14,0,0,1,55.349,56.615ZM20.57,65.362h17.5a18.043,18.043,0,0,0,7.207,20.213V98.455H15.661V65.362Zm2.04-8.747h14.68v4.667H22.609ZM4.08,65.362h7.5V98.455H4.08ZM56.853,98.455h-7.5V87.626a17.975,17.975,0,0,0,6,1.028c.507,0,1.008-.026,1.5-.067Z" transform="translate(527 1576.465)"/>
  </g>
</svg>
