<svg xmlns="http://www.w3.org/2000/svg" viewBox="-23438 -15396 39.621 50">
  <defs>
    <style>
      .cls-1 {
        fill: #004385;
      }

      .cls-2 {
        fill: #0080ff;
      }
    </style>
  </defs>
  <g id="dollar-symbol" transform="translate(-23488.85 -15396)">
    <g id="group" transform="translate(50.85)">
      <path id="path" class="cls-1" d="M118.338,132.776a14.388,14.388,0,1,0-14.388-14.4A14.391,14.391,0,0,0,118.338,132.776Zm-5.02-8.694c.133-.469.255-.949.408-1.408.173-.541.316-.612.816-.347a7.906,7.906,0,0,0,2.7.816,3.4,3.4,0,0,0,1.776-.235,1.382,1.382,0,0,0,.327-2.429,4.035,4.035,0,0,0-1.01-.592,22.437,22.437,0,0,1-2.765-1.245,3.907,3.907,0,0,1-2.214-3.745,4.13,4.13,0,0,1,3.02-3.827c.735-.265.745-.255.745-1.031v-.786c.01-.582.112-.684.694-.7.184-.01.357,0,.541,0,1.235,0,1.235,0,1.245,1.235,0,.878,0,.878.878,1.01a7.42,7.42,0,0,1,1.918.571.566.566,0,0,1,.367.745c-.153.531-.3,1.071-.469,1.6-.163.5-.316.571-.8.337a6.051,6.051,0,0,0-3.041-.6,2.283,2.283,0,0,0-.816.163,1.154,1.154,0,0,0-.286,2.051,5.406,5.406,0,0,0,1.316.745,23.207,23.207,0,0,1,2.408,1.092,4.326,4.326,0,0,1,1.4,6.571,4.688,4.688,0,0,1-2.4,1.541.671.671,0,0,0-.582.765c.02.429,0,.847,0,1.275a.527.527,0,0,1-.571.592c-.459.01-.918.01-1.367,0a.551.551,0,0,1-.592-.622c0-.306-.01-.622-.01-.929-.01-.684-.031-.714-.684-.816a8.375,8.375,0,0,1-2.439-.7C113.205,124.867,113.144,124.714,113.317,124.082Z" transform="translate(-98.532 -93.388)"/>
      <path id="path-2" data-name="path" class="cls-2" d="M86.238,379.212a22.08,22.08,0,0,1-30.286.847h2.776V377.1H50.85v7.878h2.959V382.11a25.028,25.028,0,0,0,34.52-.806l1.051-1.051-2.092-2.092Z" transform="translate(-50.85 -338.62)"/>
      <path id="path-3" data-name="path" class="cls-2" d="M97.111,3.643V6.51a25.028,25.028,0,0,0-34.52.806L61.55,8.357l2.092,2.092L64.693,9.4a22.08,22.08,0,0,1,30.286-.847H92.2V11.51h7.878V3.643Z" transform="translate(-60.458)"/>
    </g>
  </g>
</svg>
