<svg xmlns="http://www.w3.org/2000/svg" viewBox="-16950 -17468 66.879 60">
  <defs>
    <style>
      .cls-1 {
        fill: #004385;
      }
    </style>
  </defs>
  <path id="devices" class="cls-1" d="M64.219,44.513V28.257a4.725,4.725,0,0,0-4.72-4.72H4.72A4.725,4.725,0,0,0,0,28.257V61.373a4.725,4.725,0,0,0,4.72,4.72H20.245l-1.777,1.913H15.8a1.1,1.1,0,1,0,0,2.192h15.25v10.57a2.772,2.772,0,0,0,2.769,2.769H45.606a2.772,2.772,0,0,0,2.769-2.769V78.542h14.75a3.759,3.759,0,0,0,3.754-3.755V48.105a3.761,3.761,0,0,0-2.659-3.592Zm.468,3.592v.3H39.482v-.3a1.565,1.565,0,0,1,1.564-1.564h22.08A1.565,1.565,0,0,1,64.687,48.105ZM45.606,57.364H39.482V50.6H64.687v21.7H48.375V60.133a2.772,2.772,0,0,0-2.769-2.769Zm.577,4.21H33.247V60.133a.578.578,0,0,1,.577-.577H45.606a.578.578,0,0,1,.577.577v1.441ZM62.027,29.353v15H41.045a3.76,3.76,0,0,0-3.755,3.755v9.259H33.824a2.772,2.772,0,0,0-2.769,2.766H2.192V29.353ZM33.247,63.766H46.183v13.37H33.247ZM4.72,25.729H59.5a2.528,2.528,0,0,1,2.274,1.432H2.445A2.529,2.529,0,0,1,4.72,25.729ZM2.378,62.322H31.055V63.9H4.72A2.531,2.531,0,0,1,2.378,62.322Zm19.081,5.684,1.777-1.913h7.818v1.913ZM45.606,81.345H33.824a.578.578,0,0,1-.577-.577v-1.44H46.183v1.44A.578.578,0,0,1,45.606,81.345Zm17.519-5H48.375V74.487H64.687v.3A1.565,1.565,0,0,1,63.125,76.35Z" transform="translate(-16950 -17491.537)"/>
</svg>
