<svg xmlns="http://www.w3.org/2000/svg" viewBox="-22152 -20542 100.24 100">
  <defs>
    <style>
      .cls-1 {
        fill: #004385;
      }
    </style>
  </defs>
  <g id="Group_119" data-name="Group 119" transform="translate(-23689 -22045)">
    <path id="Path_89" data-name="Path 89" class="cls-1" d="M99.029,25.725l-.647-.971a7.719,7.719,0,0,0-7.443-3.56,6.179,6.179,0,0,0-2.589.971L68.608,33.816c-.324-4.531-3.883-7.443-9.385-7.443H50.809a17.37,17.37,0,0,1-6.149-1.618,20.454,20.454,0,0,0-6.8-1.618H29.45c-3.56,0-6.472,1.294-9.061,1.942A13.418,13.418,0,0,1,16.5,26.372h-.324V24.431A4.628,4.628,0,0,0,11.65,19.9H4.207C1.618,19.9,0,21.842,0,24.431V50.968A4.361,4.361,0,0,0,4.207,55.5H11.65a4.468,4.468,0,0,0,4.207-3.236H68.608a5.322,5.322,0,0,0,2.913-.647c.324,0,.647-.324,1.294-.647L96.44,36.081a6.691,6.691,0,0,0,3.236-4.531A5.5,5.5,0,0,0,99.029,25.725ZM11.65,52.262H4.207c-.647,0-.971-.647-.971-1.294V24.431c0-.647.324-1.294.971-1.294H11.65a1.392,1.392,0,0,1,1.294,1.294V50.968A1.392,1.392,0,0,1,11.65,52.262ZM96.764,30.9a5.033,5.033,0,0,1-1.942,2.589L71.2,48.379c-.324,0-.324.324-.647.324h-.324a2.425,2.425,0,0,1-1.618.324H16.181V29.609H16.5a17.311,17.311,0,0,0,5.178-1.294,19.623,19.623,0,0,1,7.767-1.942h8.414a17.77,17.77,0,0,1,5.825,1.618,22.107,22.107,0,0,0,7.12,1.618h8.414c3.883,0,6.149,1.618,6.149,4.854a4.1,4.1,0,0,1-.324,1.942c-1.294,1.942-2.913,2.589-5.825,2.589H42.071V42.23H59.547c5.178,0,7.767-1.942,8.738-4.531a.317.317,0,0,1,.324-.324L90.291,24.431c.324-.324.971-.324,1.294-.647a3.9,3.9,0,0,1,4.207,1.942l.647.971A6.534,6.534,0,0,1,96.764,30.9Z" transform="translate(1537 1547.501)"/>
    <path id="Path_90" data-name="Path 90" class="cls-1" d="M28.936,48.071A21.272,21.272,0,0,0,50.295,27.036,21.272,21.272,0,0,0,28.936,6a21.036,21.036,0,0,0,0,42.071Zm0-39.159a18.027,18.027,0,0,1,18.123,17.8,17.962,17.962,0,1,1-18.123-17.8Z" transform="translate(1554.666 1516.417)"/>
    <path id="Path_91" data-name="Path 91" class="cls-1" d="M18.2,26.052A2.378,2.378,0,0,1,16.26,25.4l-1.294-.971L12.7,26.7l1.294.971a5.815,5.815,0,0,0,2.913,1.294V31.23h3.236V28.641a5.247,5.247,0,0,0,3.883-5.178,5.267,5.267,0,0,0-5.5-5.5A2.2,2.2,0,0,1,16.26,15.7a2.5,2.5,0,0,1,2.589-2.265,3.47,3.47,0,0,1,1.942.647l1.294.971,1.942-2.589-1.294-.971a3.956,3.956,0,0,0-2.913-.971V8.9H16.583v1.942A5.247,5.247,0,0,0,12.7,16.02a5.455,5.455,0,0,0,5.5,5.5,2.021,2.021,0,0,1,2.265,2.265C20.791,25.081,19.5,26.052,18.2,26.052Z" transform="translate(1565.4 1522.903)"/>
    <path id="Path_92" data-name="Path 92" class="cls-1" d="M32.945,25.89A12.945,12.945,0,1,0,20,12.945,12.983,12.983,0,0,0,32.945,25.89Zm0-22.654a9.535,9.535,0,0,1,9.709,9.709,9.954,9.954,0,0,1-9.709,9.709,9.736,9.736,0,0,1-9.709-9.709A9.535,9.535,0,0,1,32.945,3.236Z" transform="translate(1581.725 1503)"/>
    <path id="Path_93" data-name="Path 93" class="cls-1" d="M29.472,3.9H26.236V7.46H23V10.7h6.472Z" transform="translate(1588.434 1511.721)"/>
    <path id="Path_94" data-name="Path 94" class="cls-1" d="M29.472,5.136V1.9H23V8.372h3.236V5.136Z" transform="translate(1588.434 1507.249)"/>
  </g>
</svg>
