<svg xmlns="http://www.w3.org/2000/svg" viewBox="-22551 -20542 106.383 100">
  <defs>
    <style>
      .cls-1 {
        fill: #004385;
      }
    </style>
  </defs>
  <path id="Path_80" data-name="Path 80" class="cls-1" d="M32.27,63.475l21.395,17.73h0ZM53.664,77.069,34.279,60.993,53.664,77.069Zm52.719-41.962V100H0V35.106L11.348,27.66V9.811H38.534L53.546,0,68.322,9.811H95.035v17.73ZM95.035,42.08l7.092-6.028-7.092-4.728ZM44.444,9.811H62.53L53.546,3.783ZM14.539,44.563l19.74,16.43L53.546,77.069h0l38.18-32.506V13H14.539v31.56ZM4.374,36.052l7.092,5.91V31.442Zm98.818,3.428L53.664,81.324h0L32.27,63.593,3.191,39.362V96.809h99.882l.118-57.329ZM52.955,59.929c-8.392,0-15.485-6.147-15.485-15.839,0-10.52,7.329-19.5,18.558-19.5,8.983-.118,14.894,6.147,14.894,14.657,0,7.683-4.255,12.175-9.1,12.175-2.009,0-3.9-1.418-3.783-4.492H57.92c-1.773,2.955-4.137,4.492-7.21,4.492-2.955,0-5.556-2.364-5.556-6.383A12.027,12.027,0,0,1,57.21,32.979a13.418,13.418,0,0,1,5.437,1.064l-1.773,9.22c-.709,3.9-.118,5.674,1.537,5.674,2.6,0,5.556-3.428,5.556-9.338,0-7.329-4.374-12.648-12.293-12.648-8.274,0-15.248,6.619-15.248,16.9,0,8.511,5.556,13.712,13.121,13.712a15.7,15.7,0,0,0,7.683-1.773l.827,2.246A19.362,19.362,0,0,1,52.955,59.929Zm6.265-24a10.41,10.41,0,0,0-2.6-.355c-4.492,0-8.156,4.255-8.156,9.22,0,2.246,1.064,3.9,3.31,3.9,2.955,0,5.674-3.783,6.265-6.974Z" transform="translate(-22551 -20542)"/>
</svg>
