<svg xmlns="http://www.w3.org/2000/svg" viewBox="0 0 32 32">
  <defs>
    <style>.cls-1{fill:#004385;}</style>
  </defs>
  <g id="target">
    <g id="group">
      <path id="path" class="cls-1" d="M15.71,14.16A3,3,0,1,0,18,17.1a3,3,0,0,0-.11-.81L26.33,7.8,27.7,8,32,3.69l-3.25-.43L28.32,0,24,4.3l.18,1.37Z"/>
      <path id="path-2" class="cls-1" d="M15.23,11.25l2.51-2.51a8.83,8.83,0,1,0,5.53,5.52l-2.51,2.51a5.87,5.87,0,1,1-5.53-5.52Z"/>
      <path id="path-3" class="cls-1" d="M25.43,12.1a11.66,11.66,0,1,1-5.53-5.53l2.4-2.4a14.9,14.9,0,1,0,5.52,5.52Z"/>
    </g>
  </g>
</svg>