<svg xmlns="http://www.w3.org/2000/svg" viewBox="-21068 -14821 39.992 40">
  <defs>
    <style>
      .cls-1 {
        fill: #4e598f;
      }

      .cls-2 {
        fill: #364270;
      }

      .cls-3 {
        fill: #fff;
      }

      .cls-4 {
        fill: #d1d1d1;
      }
    </style>
  </defs>
  <g id="Group_355" data-name="Group 355" transform="translate(-21068 -14821)">
    <ellipse id="Ellipse_102" data-name="Ellipse 102" class="cls-1" cx="19.996" cy="19.996" rx="19.996" ry="19.996"/>
    <path id="Path_625" data-name="Path 625" class="cls-2" d="M151.141,129.278l-9.42-9.42c-.156.047-.547-.133-.719-.1-4.038.672-7.944,0-11.849,1.078-1.882.539-2.023,2.828-2.695,4.312-.945,2.695-.8,5.655-2.023,8.217-.8,1.75-2.695,2.828-3.367,4.851-.227.844-.211,1.906-.469,2.71l9.451,9.443c.367.023.742.031,1.117.031a20,20,0,0,0,20-20Q151.176,129.829,151.141,129.278Z" transform="translate(-111.18 -110.399)"/>
    <g id="Group_354" data-name="Group 354" transform="translate(8.553 8.553)">
      <path id="Path_626" data-name="Path 626" class="cls-3" d="M129.3,109.5H112.585a3.087,3.087,0,0,0-3.085,3.085V129.3a3.087,3.087,0,0,0,3.085,3.085h8.248l.016-8.178h-2.125a.5.5,0,0,1-.5-.5l-.008-2.64a.5.5,0,0,1,.5-.5h2.125v-2.546c0-2.96,1.8-4.569,4.444-4.569h2.164a.5.5,0,0,1,.5.5v2.226a.5.5,0,0,1-.5.5h-1.328c-1.437,0-1.711.68-1.711,1.679v2.2h3.156a.51.51,0,0,1,.5.562l-.312,2.64a.506.506,0,0,1-.5.445h-2.828l-.016,8.178h4.89a3.087,3.087,0,0,0,3.085-3.085V112.585A3.077,3.077,0,0,0,129.3,109.5Z" transform="translate(-109.5 -109.5)"/>
      <path id="Path_627" data-name="Path 627" class="cls-3" d="M254.316,305.978l.016-8.178H254.3v8.178Z" transform="translate(-242.99 -283.092)"/>
    </g>
    <path id="Path_628" data-name="Path 628" class="cls-4" d="M262.791,109.5H254.3v11.068h.023v-2.546c0-2.96,1.8-4.569,4.444-4.569h2.164a.5.5,0,0,1,.5.5v2.226a.5.5,0,0,1-.5.5H259.6c-1.437,0-1.711.68-1.711,1.679v2.2h3.156a.51.51,0,0,1,.5.562l-.312,2.64a.506.506,0,0,1-.5.445h-2.828l-.016,8.178h4.9a3.087,3.087,0,0,0,3.085-3.085V112.585A3.077,3.077,0,0,0,262.791,109.5Z" transform="translate(-234.437 -100.947)"/>
  </g>
</svg>
