<svg xmlns="http://www.w3.org/2000/svg" viewBox="0 0 32 32">
  <defs>
    <style>.cls-1{fill:#004385;}</style>
  </defs>
  <rect class="cls-1" x="14.04" y="21.96" width="2" height="2"/>
  <path class="cls-1" d="M26.56,4A16,16,0,0,0,5.47,4L4.05,5.38A16,16,0,0,0,26.61,27.95l.7-.7.72-.7v0A16,16,0,0,0,26.56,4ZM16,29.95A14,14,0,0,1,5.47,6.81l9.83,9.83a4.28,4.28,0,0,0-.78,1.06A6.85,6.85,0,0,0,14.24,20H16.4a6.65,6.65,0,0,1,.12-1.52A1.77,1.77,0,0,1,16.7,18l8.49,8.49A14,14,0,0,1,16,29.95ZM13.18,11.69a2,2,0,0,1,.64-1.36,2.62,2.62,0,0,1,1.7-.56,2.32,2.32,0,0,1,1.76.64,2.58,2.58,0,0,1,.62,1.84A3.12,3.12,0,0,1,17.44,14a10.68,10.68,0,0,1-.84,1.14ZM26.61,25.11,18,16.5a13.6,13.6,0,0,0,1.28-1.64A4.89,4.89,0,0,0,20,12.19,4.2,4.2,0,0,0,18.86,9a4.63,4.63,0,0,0-3.34-1,4.75,4.75,0,0,0-3.24,1.1,3.5,3.5,0,0,0-.8,1L6.89,5.5A13.94,13.94,0,0,1,26.61,25.11Z"/>
</svg>