<svg xmlns="http://www.w3.org/2000/svg" viewBox="0 0 64 64">
    <defs>
        <style>
            .cls-1{fill:#004385;}
        </style>
    </defs>
    <path class="cls-1" d="M32,50.42A18.42,18.42,0,1,0,13.58,32,18.42,18.42,0,0,0,32,50.42ZM25.57,39.29c.17-.6.33-1.21.52-1.8s.4-.78,1-.44a10.12,10.12,0,0,0,3.46,1,4.35,4.35,0,0,0,2.27-.3,1.77,1.77,0,0,0,.42-3.11A5.17,5.17,0,0,0,32,33.92a28.72,28.72,0,0,1-3.54-1.59,5,5,0,0,1-2.83-4.79,5.29,5.29,0,0,1,3.87-4.9c.94-.34,1-.33,1-1.32v-1c0-.74.14-.88.89-.9.24,0,.46,0,.69,0,1.58,0,1.58,0,1.59,1.58,0,1.12,0,1.12,1.12,1.29a9.5,9.5,0,0,1,2.46.73.72.72,0,0,1,.47,1c-.2.68-.38,1.37-.6,2.05s-.4.73-1,.43a7.74,7.74,0,0,0-3.89-.77,2.92,2.92,0,0,0-1,.21,1.48,1.48,0,0,0-.37,2.63,6.92,6.92,0,0,0,1.68,1,29.71,29.71,0,0,1,3.08,1.4,5.54,5.54,0,0,1,1.79,8.41,6,6,0,0,1-3.07,2,.86.86,0,0,0-.74,1c0,.55,0,1.08,0,1.63a.67.67,0,0,1-.73.76c-.59,0-1.18,0-1.75,0a.71.71,0,0,1-.76-.8c0-.39,0-.8,0-1.19,0-.88,0-.91-.88-1a10.72,10.72,0,0,1-3.12-.9C25.42,40.29,25.35,40.1,25.57,39.29Z"/>
    <path class="cls-1" d="M51.94,52A28.26,28.26,0,0,1,13.17,53h3.55V49.25H6.64V59.34h3.79V55.67a32,32,0,0,0,44.19-1L56,53.29l-2.68-2.68Z"/>
    <path class="cls-1" d="M53.56,4.66V8.33a32,32,0,0,0-44.19,1L8,10.7l2.68,2.68L12.06,12a28.26,28.26,0,0,1,38.77-1.08H47.28v3.79H57.36V4.66Z"/>
</svg>