<svg xmlns="http://www.w3.org/2000/svg" viewBox="0 0 32 32">
  <defs>
    <style>.cls-1{fill:#004385;}</style>
  </defs>
  <g id="crown">
    <g id="group">
      <path id="path" class="cls-1" d="M28.8,8.54A3.2,3.2,0,0,0,25.86,13l-4.53,1.94L17.55,8.13a3.2,3.2,0,1,0-3.09,0l-3.79,6.81L6.14,13A3.2,3.2,0,1,0,3.2,14.94a3.27,3.27,0,0,0,.72-.09L6.4,25.61v2.13a2.13,2.13,0,0,0,2.13,2.13H23.47a2.13,2.13,0,0,0,2.13-2.13V25.61l2.48-10.75a3.13,3.13,0,0,0,.72.09,3.2,3.2,0,1,0,0-6.4ZM3.2,12.81a1.07,1.07,0,1,1,1.07-1.07A1.07,1.07,0,0,1,3.2,12.81ZM16,4.28a1.07,1.07,0,1,1-1.07,1.07A1.07,1.07,0,0,1,16,4.28Zm7.47,23.47H8.53V25.61H23.47Zm.44-4.27H8.1L6.22,15.36l3.6,1.54A2.13,2.13,0,0,0,12.53,16L16,9.74,19.47,16a2.13,2.13,0,0,0,2.7.92l3.6-1.54Zm4.9-10.67a1.07,1.07,0,1,1,1.07-1.07A1.07,1.07,0,0,1,28.8,12.81Z" />
    </g>
  </g>
</svg>