<svg xmlns="http://www.w3.org/2000/svg" viewBox="-20450 -20073 60 52">
  <defs>
    <style>
      .cls-1 {
        fill: #004385;
      }
    </style>
  </defs>
  <g id="crown" transform="translate(-20454 -20085)">
    <g id="group" transform="translate(4 12)">
      <path id="path" class="cls-1" d="M58,24a6,6,0,0,0-5.514,8.364L44,36,36.9,23.223a6,6,0,1,0-5.8,0L24,36l-8.486-3.636A6,6,0,1,0,10,36a6.139,6.139,0,0,0,1.347-.164L16,56v4a4,4,0,0,0,4,4H48a4,4,0,0,0,4-4V56l4.654-20.164A5.876,5.876,0,0,0,58,36a6,6,0,1,0,0-12ZM10,32a2,2,0,1,1,2-2A2,2,0,0,1,10,32ZM34,16a2,2,0,1,1-2,2A2,2,0,0,1,34,16ZM48,60H20V56H48Zm.816-8H19.183L15.67,36.782l6.754,2.894A4,4,0,0,0,27.5,37.941l6.5-11.7,6.5,11.7a4,4,0,0,0,5.072,1.734l6.754-2.895ZM58,32a2,2,0,1,1,2-2A2,2,0,0,1,58,32Z" transform="translate(-4 -12)"/>
    </g>
  </g>
</svg>
