<svg xmlns="http://www.w3.org/2000/svg" viewBox="-24107 -15609 57.691 50">
  <defs>
    <style>
      .cls-1 {
        fill: #0080ff;
      }

      .cls-2 {
        fill: #004385;
      }
    </style>
  </defs>
  <g id="Group_360" data-name="Group 360" transform="translate(-24563 -17235)">
    <path id="Path_635" data-name="Path 635" class="cls-1" d="M-21940.963-21014.117l-1.152,5.158h30.287v-5.158Z" transform="translate(22412 22682)"/>
    <circle id="Ellipse_105" data-name="Ellipse 105" class="cls-1" cx="3" cy="3" r="3" transform="translate(459 1640)"/>
    <circle id="Ellipse_106" data-name="Ellipse 106" class="cls-1" cx="3" cy="3" r="3" transform="translate(482 1629)"/>
    <circle id="Ellipse_107" data-name="Ellipse 107" class="cls-1" cx="3" cy="3" r="3" transform="translate(505 1641)"/>
    <g id="crown" transform="translate(452 1614)">
      <g id="group" transform="translate(4 12)">
        <path id="path" class="cls-2" d="M55.923,23.538a5.767,5.767,0,0,0-5.3,8.042l-8.16,3.5L35.635,22.791a5.769,5.769,0,1,0-5.578,0L23.231,35.077l-8.16-3.5a5.768,5.768,0,1,0-5.3,3.5,5.9,5.9,0,0,0,1.3-.158l4.474,19.388v3.846A3.845,3.845,0,0,0,19.385,62H46.308a3.845,3.845,0,0,0,3.846-3.846V54.308l4.475-19.388a5.65,5.65,0,0,0,1.294.158,5.769,5.769,0,1,0,0-11.538ZM9.769,31.231a1.923,1.923,0,1,1,1.923-1.923A1.926,1.926,0,0,1,9.769,31.231ZM32.846,15.846a1.923,1.923,0,1,1-1.923,1.923A1.926,1.926,0,0,1,32.846,15.846ZM46.308,58.154H19.385V54.308H46.308Zm.785-7.692H18.6L15.221,35.828l6.494,2.783a3.843,3.843,0,0,0,4.877-1.668l6.254-11.253L39.1,36.944a3.843,3.843,0,0,0,4.877,1.668l6.494-2.783Zm8.83-19.231a1.923,1.923,0,1,1,1.923-1.923A1.926,1.926,0,0,1,55.923,31.231Z" transform="translate(-4 -12)"/>
      </g>
    </g>
  </g>
</svg>
