<svg xmlns="http://www.w3.org/2000/svg" viewBox="-18616.504 -18430.5 39.008 25.512">
  <defs>
    <style>
      .cls-1 {
        fill: #004385;
        stroke: #004385;
        stroke-width: 1px;
      }
    </style>
  </defs>
  <path id="gold-stack" class="cls-1" d="M37.445,61H26.855a.555.555,0,0,1-.54-.679l1.128-4.886a.92.92,0,0,1,.9-.716h7.614a.92.92,0,0,1,.9.717l1.127,4.886a.555.555,0,0,1-.54.679Zm-9.893-1.109h9.2l-.938-4.064H28.49ZM24.295,61H13.7a.555.555,0,0,1-.54-.679l1.128-4.886a.919.919,0,0,1,.9-.716h7.614a.92.92,0,0,1,.9.717l1.127,4.886a.555.555,0,0,1-.54.679ZM14.4,59.891h9.2l-.938-4.064H15.34ZM11.144,61H.554a.555.555,0,0,1-.54-.679l1.128-4.886a.919.919,0,0,1,.9-.716H9.657a.92.92,0,0,1,.9.717l1.128,4.886a.555.555,0,0,1-.54.679ZM1.251,59.891h9.2l-.938-4.064H2.189Zm29.633-8.006H20.295a.555.555,0,0,1-.54-.679l1.128-4.886a.92.92,0,0,1,.9-.716H29.4a.92.92,0,0,1,.9.716l1.128,4.886a.555.555,0,0,1-.54.679Zm-9.893-1.109h9.2l-.938-4.064H21.93ZM17.7,51.885H7.115a.555.555,0,0,1-.54-.679L7.7,46.319a.92.92,0,0,1,.9-.716h7.614a.92.92,0,0,1,.9.716l1.128,4.886a.555.555,0,0,1-.54.679ZM7.812,50.776h9.2l-.938-4.064H8.75ZM24.3,42.77H13.7a.555.555,0,0,1-.54-.679L14.292,37.2a.919.919,0,0,1,.9-.716h7.614a.92.92,0,0,1,.9.716l1.113,4.824a.555.555,0,0,1-.522.741Zm-9.9-1.109h9.2L22.66,37.6H15.34Z" transform="translate(-18616 -18466.488)"/>
</svg>
