<svg xmlns="http://www.w3.org/2000/svg" viewBox="0 0 24 24">
    <defs>
        <style>
            .cls-1{fill:#004385;}
            .cls-2{fill:#fff;}
            .cls-3{fill:#99b4ce;
            .cls-4{fill:#ccd9e7;}
            .cls-5,
            .cls-6,
            .cls-7{fill:none;stroke-miterlimit:10;stroke-width:0.1px;}
            .cls-5{stroke:#99b4ce;}
            .cls-6,.cls-7{stroke:#ccd9e7;}
            .cls-7{stroke-dasharray:0.3 0.3;}
        </style>
    </defs>
    <rect class="cls-1" width="24" height="17" rx="1" ry="1"/>
    <rect class="cls-2" x="1" y="1" width="22" height="14"/>
    <polygon class="cls-3" points="15 22 9 22 10 17 14 17 15 22"/>
    <rect class="cls-4" x="3" y="22" width="18" height="2"/>
    <polygon class="cls-4" points="2 15 8 11 10 12 12 11 14 8 15 8 17 7 20 6 23 4 23 15 2 15"/>
    <polyline class="cls-5" points="2 15 8 11 10 12 12 11 14 8 15 8 17 7 20 6 23 4"/>
    <line class="cls-6" x1="1" y1="6" x2="1.15" y2="6"/><line class="cls-7" x1="1.45" y1="6" x2="22.7" y2="6"/>
    <line class="cls-6" x1="22.85" y1="6" x2="23" y2="6"/><line class="cls-5" x1="2" y1="15" x2="2" y2="1"/>
    <polygon class="cls-1" points="12 4 11 4 11 5 12 5 12 9 13 9 13 5 14 5 14 4 13 4 12 4"/>
    <polygon class="cls-1" points="18 5 18 4 16 4 15 4 15 5 15 6 15 7 16 7 17 7 17 8 15 8 15 9 17 9 18 9 18 8 18 7 18 6 17 6 16 6 16 5 18 5"/>
    <polygon class="cls-1" points="8 6 7 4 6 4 6 9 7 9 7 6.5 8 8 9 6.5 9 9 10 9 10 4 9 4 8 6"/>
</svg>