<svg xmlns="http://www.w3.org/2000/svg" viewBox="-20823.301 -15393.3 50.602 50.107">
  <defs>
    <style>
      .cls-1 {
        fill: #004385;
        stroke: #004385;
        stroke-width: 0.6px;
      }
    </style>
  </defs>
  <g id="Group_2538" data-name="Group 2538" transform="translate(-22412 -17243)">
    <path id="Path_2794" data-name="Path 2794" class="cls-1" d="M20.936,0a20.936,20.936,0,0,0,0,41.872A21.248,21.248,0,0,0,29.8,39.9c0-.493-.246-1.232-.246-1.724v-.985a16.639,16.639,0,0,1-8.621,2.217A18.607,18.607,0,0,1,2.463,20.936,18.607,18.607,0,0,1,20.936,2.463,18.607,18.607,0,0,1,39.409,20.936a16.639,16.639,0,0,1-2.217,8.621h.985A4.192,4.192,0,0,1,39.9,29.8a21.248,21.248,0,0,0,1.97-8.867A20.918,20.918,0,0,0,20.936,0Z" transform="translate(1589 1850)"/>
    <path id="Path_2795" data-name="Path 2795" class="cls-1" d="M13.1,26.167V23.951a4.73,4.73,0,0,0,4.187-4.68c0-5.665-8.374-4.68-8.374-8.128,0-1.478,1.232-2.463,3.2-2.463a5.653,5.653,0,0,1,3.695,1.478l.985-1.97A6.932,6.932,0,0,0,12.85,6.463V4H10.633V6.217A4.725,4.725,0,0,0,6.693,10.9c0,5.419,8.374,4.433,8.374,8.128,0,1.724-1.478,2.463-2.956,2.463a7.132,7.132,0,0,1-4.433-1.97L6.2,21.241a7.788,7.788,0,0,0,4.433,2.217v2.709Z" transform="translate(1598.071 1855.852)"/>
    <path id="Path_2796" data-name="Path 2796" class="cls-1" d="M22.384,11.1A11.084,11.084,0,1,0,33.467,22.184,11.038,11.038,0,0,0,22.384,11.1Zm0,19.7A8.621,8.621,0,1,1,31,22.184,8.727,8.727,0,0,1,22.384,30.8Z" transform="translate(1605.532 1866.24)"/>
    <path id="Path_2797" data-name="Path 2797" class="cls-1" d="M13.7,18.272,15.424,20l2.217-2.217v7.635H20.1V17.78L22.321,20l1.724-1.724L18.872,13.1Z" transform="translate(1609.044 1869.166)"/>
    <rect id="Rectangle_1554" data-name="Rectangle 1554" class="cls-1" width="50.985" height="2.463" transform="translate(1591.127 1888.004) rotate(-45)"/>
  </g>
</svg>
