<svg xmlns="http://www.w3.org/2000/svg" viewBox="-24103 -15396 50 50">
  <defs>
    <style>
      .cls-1 {
        fill: #0080ff;
      }

      .cls-2 {
        fill: #004385;
      }
    </style>
  </defs>
  <g id="Group_362" data-name="Group 362" transform="translate(-24103 -15396)">
    <path id="Path_636" data-name="Path 636" class="cls-1" d="M13.512,14.937C10.388,14,9.45,13.375,9.45,11.812s1.25-2.5,3.75-2.5,3.438,1.25,3.438,2.812h3.125a5.32,5.32,0,0,0-4.375-5.313V4H11.013V7.125c-2.813.313-5,2.188-5,5,0,3.125,2.5,4.688,6.563,5.625,3.438.938,4.063,2.188,4.063,3.438,0,.938-.625,2.5-3.75,2.5-2.812,0-4.063-1.25-4.063-2.812H5.7c.312,3.125,2.5,4.688,5,5.312v3.125h4.063V26.188c2.812-.625,5-2.187,5-5C20.075,17.125,16.638,15.875,13.512,14.937Z" transform="translate(12.112 8.5)"/>
    <path id="Path_637" data-name="Path 637" class="cls-2" d="M25,0A25,25,0,1,0,50,25,25.073,25.073,0,0,0,25,0Zm0,46.875A21.74,21.74,0,0,1,3.125,25,21.74,21.74,0,0,1,25,3.125,21.74,21.74,0,0,1,46.875,25,21.74,21.74,0,0,1,25,46.875Z"/>
    <rect id="Rectangle_280" data-name="Rectangle 280" class="cls-2" width="3.125" height="50" transform="translate(6.217 8.427) rotate(-45)"/>
  </g>
</svg>
