<svg xmlns="http://www.w3.org/2000/svg" viewBox="0 0 32 32">
  <defs>
    <style>.cls-1{fill:#004385;}</style>
  </defs>
  <path class="cls-1" d="M28,26.53A16,16,0,0,0,5.47,4h0L4.05,5.38h0A16,16,0,0,0,26.61,27.95h0l.7-.7h0l.72-.7ZM16,2A14,14,0,0,1,26.61,25.11l-6-6V19c0-2.48-2-3.34-4-3.88L13.9,12.41a2.4,2.4,0,0,1,2.14-1c1.58,0,2.16.76,2.22,1.86h2A3.54,3.54,0,0,0,17.46,10V8H14.78v2a4.49,4.49,0,0,0-2.26,1.16L6.89,5.4A14,14,0,0,1,16,2Zm0,28A14,14,0,0,1,5.47,6.81L11.69,13h0c0,1.88,1.44,2.9,3.58,3.5l3,3.12A2.38,2.38,0,0,1,16,20.5c-1.84,0-2.56-.82-2.64-1.86h-2A3.72,3.72,0,0,0,14.78,22v2h2.68V22a4.41,4.41,0,0,0,2.22-1l5.51,5.51A14,14,0,0,1,16,29.95Z"/>
</svg>