<svg xmlns="http://www.w3.org/2000/svg" xmlns:xlink="http://www.w3.org/1999/xlink" viewBox="-23669 -15396.914 62.139 51.411">
  <defs>
    <style>
      .cls-1 {
        fill: #004385;
      }

      .cls-2 {
        fill: none;
        stroke: #0080ff;
        stroke-width: 4px;
      }

      .cls-3 {
        filter: url(#line-7);
      }
    </style>
    <filter id="line-7" x="-23664.162" y="-15396.914" width="50.461" height="49.46" filterUnits="userSpaceOnUse">
      <feOffset dx="-2" dy="1" input="SourceAlpha"/>
      <feGaussianBlur result="blur"/>
      <feFlood flood-color="#fff"/>
      <feComposite operator="in" in2="blur"/>
      <feComposite in="SourceGraphic"/>
    </filter>
  </defs>
  <g id="group-52" transform="translate(-2840 4499)">
    <path id="XMLID_490_" class="cls-1" d="M61.564,74.777,43.082,56.3a1.96,1.96,0,0,0-2.772,0L34.765,61.84h0L30.607,66,26.449,61.84h0L20.9,56.3a1.96,1.96,0,0,0-2.772,0L.574,73.853a1.96,1.96,0,0,0,0,2.772L6.119,82.17a1.954,1.954,0,0,0,2.23.381l19.024,19.023h0A5.88,5.88,0,0,0,37.4,97.74,5.867,5.867,0,0,0,42.944,92.2a5.857,5.857,0,0,0,3.835-1.71l0,0,7.009-7.009a1.952,1.952,0,0,0,2.229-.381l5.545-5.544a1.96,1.96,0,0,0,0-2.772Zm-56.832.462L19.518,60.454l2.772,2.772-.584.584L7.5,78.011ZM38.462,93.258a1.963,1.963,0,0,1-2.771,0h0l-2.772-2.772a1.96,1.96,0,1,0-2.772,2.772l2.772,2.772h0A1.96,1.96,0,0,1,30.145,98.8h0L11.2,79.859,25.063,66l2.772,2.772-4.158,4.158h0a5.881,5.881,0,0,0,8.318,8.315h0l4.158-4.158,6.93,6.929h0l.926.926a1.96,1.96,0,0,1,0,2.769h0a1.963,1.963,0,0,1-2.771,0l0,0-2.772-2.771a1.96,1.96,0,0,0-2.772,2.772l2.771,2.77,0,0A1.962,1.962,0,0,1,38.462,93.258Zm9.7-9.7L46.779,82.17h0l-.924-.924h0l-8.316-8.316a1.96,1.96,0,0,0-2.772,0l-5.544,5.544A1.96,1.96,0,1,1,26.449,75.7h0l5.543-5.543h0v0L36.152,66,50.937,80.783Zm6.469-4.62L38.924,63.226,41.7,60.454,57.405,76.163Z" transform="translate(-20829 -19947.797)"/>
    <g class="cls-3" transform="matrix(1, 0, 0, 1, 2840, -4499)">
      <line id="line-7-2" data-name="line-7" class="cls-2" x2="45.633" y2="45.631" transform="translate(-23660.75 -15395.5)"/>
    </g>
  </g>
</svg>
