<svg xmlns="http://www.w3.org/2000/svg" viewBox="0 0 32 32">
  <defs>
    <style>.cls-1{fill:#004385;}</style>
  </defs>
  <path class="cls-1" d="M15.69,18.07,13.92,16.3a.93.93,0,0,1-.51-.51L11.64,14a3,3,0,0,0,4,4Z"/>
  <path class="cls-1" d="M18.38,20.85l1.43,1.43a1,1,0,0,1,0,1.43h0a1,1,0,0,1-1.43,0L17,22.28a1,1,0,0,0-1.44,1.42h0L17,25.13a1,1,0,0,1-1.43,1.43L5.77,16.8l4.33-4.33L8.67,11l-4.8,4.8L2.44,14.42l4.8-4.8L5.81,8.19.3,13.71a1,1,0,0,0,0,1.43L3.15,18a1,1,0,0,0,1.15.2L14.1,28a3,3,0,0,0,5.17-2,3,3,0,0,0,2.59-1.78L18.22,20.6A1,1,0,0,0,18.38,20.85Z"/>
  <path class="cls-1" d="M31.7,14.19h0L22.19,4.67a1,1,0,0,0-1.43,0L17.9,7.52,15.76,9.67,13.62,7.52,10.77,4.67a1,1,0,0,0-1.43,0l-1,1L5,2.37,3.5,3.88,27,27.38l1.51-1.51-4-4,3.2-3.2a1,1,0,0,0,1.15-.2l2.86-2.86A1,1,0,0,0,31.7,14.19ZM14.33,11.09l-.3.3L12.6,10l.3-.3ZM10.05,6.81l1.43,1.43-.3.3h0L9.75,7.11Zm8.26,8.87.3-.3,3.57,3.57.48.48a1,1,0,0,1,.26.87Zm6.49,3L24.09,18l-.48-.48-4.28-4.28a1,1,0,0,0-1.43,0l-1,1-1.43-1.43,1-1,2.14-2.14,7.62,7.61Zm3.33-2.38L20,8.24l1.43-1.43,8.09,8.09Z"/>
</svg>