<svg xmlns="http://www.w3.org/2000/svg" viewBox="0 0 32 32">
  <defs>
    <style>.cls-1{fill:#004385;}</style>
  </defs>
  <g id="payment-method">
    <g id="group">
      <g id="group-2">
        <path id="path" class="cls-1" d="M25.24,17.81c-.36-.28-4.11-4.44-5.12-5V2a2,2,0,0,0-2-2H7.95A2,2,0,0,0,6,2H6v18.9a2,2,0,0,0,2,2h4.45l-.18-1.55-.16-.14h-2a2,2,0,0,0-2.44-2.44V4A2.24,2.24,0,0,0,8,4a2,2,0,0,0,2-2,2.15,2.15,0,0,0,0-.35h6.09A2.15,2.15,0,0,0,16,2a2,2,0,0,0,2,2h0a2.24,2.24,0,0,0,.37,0V18.37h0V22.5A7.47,7.47,0,0,1,17,20.4s-.38-4.24-2.53-4.24h-.17S12.63,16.3,14,21l.6,5.17a11.73,11.73,0,0,0,2.53,4.74v.57a.56.56,0,0,0,.56.56h6a.56.56,0,0,0,.56-.5c.21-2,1.05-9.49,1.54-10.63a2.14,2.14,0,0,0,.17-.56A2.58,2.58,0,0,0,25.24,17.81Z"/>
      </g>
      <g id="group-3">
        <circle id="ellipse" class="cls-1" cx="13.26" cy="5.25" r="1.2"/>
      </g>
      <g id="group-4">
        <g id="group-5">
          <path id="path-2" class="cls-1" d="M8.7,11.57a4.35,4.35,0,0,0,3.39,4.24,3.08,3.08,0,0,1,.19-.31,2.51,2.51,0,0,1,1.8-1.13l.35,0a3.34,3.34,0,0,1,1.57.39,4.34,4.34,0,1,0-7.31-3.17Zm1.74-.39c.26,0,.27,0,.31-.26a2.58,2.58,0,0,1,.17-.58.17.17,0,0,1,.2-.12h0l.48.14c.15,0,.17.1.11.24a1.8,1.8,0,0,0-.18.92.59.59,0,0,0,.05.24.35.35,0,0,0,.62.08,1.49,1.49,0,0,0,.22-.4c.11-.25.2-.5.33-.72a1.3,1.3,0,0,1,2-.42,1.41,1.41,0,0,1,.46.72.2.2,0,0,0,.22.18h.39a.15.15,0,0,1,.18.17q0,.21,0,.41c0,.12-.07.18-.19.18h-.28c-.21,0-.21,0-.25.21a2.65,2.65,0,0,1-.21.74c-.09.18-.14.2-.33.15L14.33,13c-.16-.05-.18-.1-.11-.25a2.37,2.37,0,0,0,.25-.82.94.94,0,0,0-.07-.53.41.41,0,0,0-.73-.1,1.1,1.1,0,0,0-.18.31,7.39,7.39,0,0,1-.37.84,1.17,1.17,0,0,1-1.13.67,1.25,1.25,0,0,1-1.16-.91c-.08-.22-.08-.22-.31-.23h-.24c-.18,0-.21,0-.21-.21v-.16c0-.37,0-.37.37-.38Z"/>
        </g>
      </g>
    </g>
  </g>
</svg>