<svg xmlns="http://www.w3.org/2000/svg" viewBox="-23434 -15609 31.352 50">
  <defs>
    <style>
      .cls-1 {
        fill: #004385;
      }

      .cls-2 {
        fill: #0080ff;
      }
    </style>
  </defs>
  <g id="payment-method" transform="translate(-23525.357 -15609)">
    <g id="group" transform="translate(91.358)">
      <g id="group-2" data-name="group">
        <path id="path" class="cls-1" d="M121.476,27.822c-.561-.439-6.42-6.94-8-7.859V3.092A3.09,3.09,0,0,0,110.382,0H94.45a3.09,3.09,0,0,0-3.092,3.092V32.629a3.09,3.09,0,0,0,3.092,3.092h6.94l-.286-2.429c-.092-.082-.153-.133-.245-.214H97.8a3.138,3.138,0,0,0-3.807-3.817V6.267a3.5,3.5,0,0,0,.572.051A3.134,3.134,0,0,0,97.7,3.184a3.356,3.356,0,0,0-.051-.551h9.512a3.354,3.354,0,0,0-.051.551,3.127,3.127,0,0,0,3.133,3.133,3.5,3.5,0,0,0,.572-.051V28.71h0v6.45a11.716,11.716,0,0,1-2.286-3.286s-.592-6.624-3.95-6.624a2.306,2.306,0,0,0-.265.01s-2.541.214-.439,7.481l.939,8.073a18.335,18.335,0,0,0,3.95,7.41v.9a.878.878,0,0,0,.878.878h9.441a.873.873,0,0,0,.868-.776c.337-3.143,1.643-14.83,2.409-16.605a3.35,3.35,0,0,0,.265-.878A4.034,4.034,0,0,0,121.476,27.822Z" transform="translate(-91.358)"/>
      </g>
      <g id="group-3" data-name="group" transform="translate(9.522 6.318)">
        <ellipse id="ellipse" class="cls-2" cx="1.878" cy="1.878" rx="1.878" ry="1.878"/>
      </g>
      <g id="group-4" data-name="group" transform="translate(4.276 11.288)">
        <g id="group-5" data-name="group">
          <path id="path-2" data-name="path" class="cls-2" d="M133.258,117.387a6.8,6.8,0,0,0,5.3,6.624,4.805,4.805,0,0,1,.3-.49,3.924,3.924,0,0,1,2.817-1.766,4.982,4.982,0,0,1,.551-.031,5.222,5.222,0,0,1,2.46.612,6.784,6.784,0,1,0-11.421-4.95Zm2.715-.6c.408,0,.418,0,.48-.408a4.035,4.035,0,0,1,.265-.908.259.259,0,0,1,.347-.173c.255.071.5.143.755.225.235.071.265.153.163.378a2.806,2.806,0,0,0-.286,1.439.927.927,0,0,0,.082.378.545.545,0,0,0,.97.133,2.323,2.323,0,0,0,.347-.623c.163-.388.316-.776.51-1.133a2.037,2.037,0,0,1,3.1-.653,2.2,2.2,0,0,1,.725,1.133.314.314,0,0,0,.357.276c.2-.01.4,0,.6,0a.241.241,0,0,1,.276.265q.015.322,0,.643c0,.194-.112.276-.3.276h-.439c-.327,0-.337.01-.388.327a4.138,4.138,0,0,1-.327,1.153c-.143.286-.214.316-.51.235-.225-.061-.449-.122-.663-.194-.255-.082-.286-.153-.163-.388a3.7,3.7,0,0,0,.388-1.276,1.476,1.476,0,0,0-.112-.837.648.648,0,0,0-1.143-.153,1.725,1.725,0,0,0-.276.48,11.559,11.559,0,0,1-.582,1.306,1.831,1.831,0,0,1-1.766,1.041,1.952,1.952,0,0,1-1.806-1.419c-.122-.347-.122-.347-.49-.357h-.367c-.276-.01-.327-.051-.327-.327v-.255C135.391,116.8,135.391,116.8,135.973,116.785Z" transform="translate(-133.258 -110.6)"/>
        </g>
      </g>
    </g>
  </g>
</svg>
