<svg id="Group_376" data-name="Group 376" xmlns="http://www.w3.org/2000/svg" viewBox="-22830 -16216 197 197">
  <defs>
    <style>
      .cls-1 {
        fill: #f2f2f2;
      }

      .cls-2 {
        fill: #004385;
      }

      .cls-3 {
        fill: #0080ff;
      }

      .cls-4 {
        fill: #ccd9e7;
      }
    </style>
  </defs>
  <circle id="Ellipse_110" data-name="Ellipse 110" class="cls-1" cx="98.5" cy="98.5" r="98.5" transform="translate(-22830 -16216)"/>
  <g id="Group_375" data-name="Group 375" transform="translate(-22781.955 -16168)">
    <g id="Group_374" data-name="Group 374" transform="translate(-0.044 0)">
      <path id="Path_662" data-name="Path 662" class="cls-2" d="M96.618,57.848l-5.849-3.38a42.565,42.565,0,0,0,0-8.936l5.849-3.38a5.377,5.377,0,0,0,2.528-3.292,5.435,5.435,0,0,0-.529-4.115L87.329,15.226a5.431,5.431,0,0,0-4.7-2.7,5.492,5.492,0,0,0-2.7.735l-5.879,3.38a40.155,40.155,0,0,0-7.7-4.468V5.409A5.413,5.413,0,0,0,60.933,0H38.387a5.413,5.413,0,0,0-5.409,5.409v6.761a40.155,40.155,0,0,0-7.7,4.468l-5.908-3.38a5.492,5.492,0,0,0-2.7-.735,5.431,5.431,0,0,0-4.7,2.7L.7,34.774a5.3,5.3,0,0,0-.529,4.115,5.412,5.412,0,0,0,2.5,3.292l5.879,3.38a42.563,42.563,0,0,0,0,8.936L2.673,57.848A5.377,5.377,0,0,0,.145,61.141a5.435,5.435,0,0,0,.529,4.115L11.962,84.774a5.431,5.431,0,0,0,4.7,2.7,5.492,5.492,0,0,0,2.7-.735l5.879-3.38a40.155,40.155,0,0,0,7.7,4.468v6.761A5.419,5.419,0,0,0,38.358,100H60.9a5.413,5.413,0,0,0,5.409-5.409V87.831a40.154,40.154,0,0,0,7.7-4.468l5.879,3.38a5.492,5.492,0,0,0,2.7.735,5.431,5.431,0,0,0,4.7-2.7L98.587,65.256a5.3,5.3,0,0,0,.529-4.115A5.412,5.412,0,0,0,96.618,57.848ZM49.645,79.394A29.394,29.394,0,1,1,79.04,50,29.405,29.405,0,0,1,49.645,79.394Z" transform="translate(0.044 0)"/>
      <path id="Path_663" data-name="Path 663" class="cls-3" d="M138.78,104.173a.418.418,0,0,0-.47.147l-5.32,5.32a8.726,8.726,0,0,1-2.616-2.058A8.816,8.816,0,0,1,128.316,105l5.32-5.32a.509.509,0,0,0,.118-.5.478.478,0,0,0-.353-.353,7.97,7.97,0,0,0-2.352-.323,8.43,8.43,0,0,0-8.436,8.436,8.493,8.493,0,0,0,.676,3.322l-6.437,6.437-6.555-6.614a.029.029,0,0,0-.029-.029l-3.028-5.173a.792.792,0,0,0-.206-.235l-5.085-3.527a.715.715,0,0,0-.911.088l-2.263,2.263a.75.75,0,0,0-.088.911l3.527,5.085a.792.792,0,0,0,.235.206l5.173,3h.029l6.584,6.584-4.968,4.968a8.493,8.493,0,0,0-3.322-.676,8.412,8.412,0,0,0-8.083,10.788.53.53,0,0,0,.353.353.418.418,0,0,0,.47-.147l5.32-5.32a8.726,8.726,0,0,1,2.616,2.058,8.817,8.817,0,0,1,2.058,2.587l-5.32,5.32a.473.473,0,0,0-.118.47.478.478,0,0,0,.353.353,7.97,7.97,0,0,0,2.352.323,8.43,8.43,0,0,0,8.436-8.436,8.493,8.493,0,0,0-.676-3.322l4.968-4.968,2.087,2.087-1.44,1.44a1.619,1.619,0,0,0-.47,1.176,1.748,1.748,0,0,0,.47,1.176l10.112,10.112a1.619,1.619,0,0,0,1.176.47,1.748,1.748,0,0,0,1.176-.47l5.467-5.467a1.619,1.619,0,0,0,.47-1.176,1.748,1.748,0,0,0-.47-1.176L127.14,121.663a1.619,1.619,0,0,0-1.176-.47,1.748,1.748,0,0,0-1.176.47l-1.44,1.44-2.087-2.087,6.437-6.437a8.493,8.493,0,0,0,3.322.676h0a8.412,8.412,0,0,0,8.083-10.788C139.1,104.35,138.956,104.2,138.78,104.173Zm-12.9,21.164a.923.923,0,0,1,1.293,0l6.5,6.5a.915.915,0,1,1-1.293,1.293l-6.5-6.467A.959.959,0,0,1,125.876,125.337Zm-2.91,2.939a.923.923,0,0,1,1.293,0l6.5,6.5a.915.915,0,0,1-1.293,1.293l-6.5-6.5A.873.873,0,0,1,122.966,128.277Z" transform="translate(-68.838 -69.546)"/>
    </g>
    <path id="Path_664" data-name="Path 664" class="cls-4" d="M86.392,53.1a34.392,34.392,0,1,0,34.392,34.392A34.4,34.4,0,0,0,86.392,53.1Zm0,63.786a29.394,29.394,0,1,1,29.394-29.394A29.405,29.405,0,0,1,86.392,116.886Z" transform="translate(-36.746 -37.492)"/>
  </g>
</svg>
