<svg xmlns="http://www.w3.org/2000/svg" viewBox="0 0 32 32">
  <defs>
    <style>.cls-1{fill:#004385;}</style>
  </defs>
  <path class="cls-1" d="M31,18.51l-1.87-1.08a13.62,13.62,0,0,0,0-2.86L31,13.49a1.72,1.72,0,0,0,.81-1.05,1.74,1.74,0,0,0-.17-1.32L28.06,4.87A1.74,1.74,0,0,0,26.55,4a1.76,1.76,0,0,0-.86.24L23.81,5.33A12.85,12.85,0,0,0,21.35,3.9V1.73A1.73,1.73,0,0,0,19.61,0H12.4a1.73,1.73,0,0,0-1.73,1.73V3.89A12.85,12.85,0,0,0,8.2,5.32L6.31,4.24A1.76,1.76,0,0,0,5.45,4a1.74,1.74,0,0,0-1.5.86L.34,11.13a1.7,1.7,0,0,0-.17,1.32A1.73,1.73,0,0,0,1,13.5l1.88,1.08a13.62,13.62,0,0,0,0,2.86L1,18.51a1.72,1.72,0,0,0-.81,1.05,1.74,1.74,0,0,0,.17,1.32l3.61,6.25a1.74,1.74,0,0,0,1.5.86,1.76,1.76,0,0,0,.86-.24l1.88-1.08a12.85,12.85,0,0,0,2.46,1.43v2.16A1.73,1.73,0,0,0,12.39,32H19.6a1.73,1.73,0,0,0,1.73-1.73V28.11a12.85,12.85,0,0,0,2.46-1.43l1.88,1.08a1.76,1.76,0,0,0,.86.24,1.74,1.74,0,0,0,1.5-.86l3.62-6.25a1.7,1.7,0,0,0,.17-1.32A1.73,1.73,0,0,0,31,18.51Zm-5.64-2A9.7,9.7,0,0,1,25,18.8c-.07.23-.16.46-.25.68s-.17.4-.26.6-.26.51-.41.75l0,0c-.12.2-.25.4-.39.59s-.26.35-.4.52L23.2,22c-.17.21-.36.41-.55.6l-.1.09c-.18.18-.37.35-.57.52l-.23.18-.13.1c-.18.14-.38.27-.57.39l-.34.21-.47.25-.17.09h0q-.41.2-.83.35l-.18.06L18.8,25l-.14,0c-.25.07-.51.14-.76.19l-.23,0-.23,0h0a9.48,9.48,0,0,1-1.39.1c-.26,0-.52,0-.77,0H15l-.69-.1c-.24,0-.47-.09-.7-.15L13.41,25,13.2,25c-.28-.09-.56-.19-.83-.3h0L12,24.52l-.09,0-.18-.09-.22-.11h0q-.39-.21-.76-.46l-.35-.25h0c-.17-.13-.34-.27-.51-.41l-.37-.34-.39-.39L9,22.32l-.1-.11c-.17-.19-.33-.38-.48-.59l-.2-.28-.06-.09q-.25-.37-.46-.76v0l-.11-.22-.09-.18a9.35,9.35,0,0,1-.42-1c-.08-.23-.15-.47-.22-.71l0-.14c0-.1-.05-.21-.07-.32v-.07a9.42,9.42,0,0,1-.17-1.35c0-.1,0-.19,0-.29s0-.13,0-.2c0-.26,0-.52,0-.77,0-.06,0-.13,0-.19,0-.23.06-.46.1-.69s.09-.47.15-.7L7,13.41,7,13.2c.09-.28.19-.56.3-.83v0L7.48,12l0-.09.09-.18.11-.22v0q.21-.39.46-.76l.25-.35v0c.13-.17.27-.34.41-.51l.34-.37.39-.39L9.68,9l.11-.1c.19-.17.38-.33.59-.48h0l.35-.25h0L11.12,8l.15-.09.25-.14.13-.07.28-.14c.24-.12.49-.22.75-.32l.09,0,.11,0c.25-.09.51-.17.77-.24l.11,0a9.39,9.39,0,0,1,1.75-.26H16c.26,0,.52,0,.77,0H17l.12,0,.35,0,.27,0,.2,0c.25.05.49.11.73.18l.17,0a9.34,9.34,0,0,1,1.27.5h0l.17.09a9.4,9.4,0,0,1,1,.59l.21.15.16.11.13.1.23.18.46.41a9.46,9.46,0,0,1,.82.87l.08.1.3.39q.19.26.36.53l.05.08,0,0a9.52,9.52,0,0,1,.87,1.92l.1.33q.05.19.1.37A9.42,9.42,0,0,1,25.41,16Q25.41,16.24,25.39,16.48Z"/>
  <path class="cls-1" d="M20,14.63a2.69,2.69,0,0,0,2.59-3.45.12.12,0,0,0-.1-.09.13.13,0,0,0-.15,0l-1.7,1.7a2.79,2.79,0,0,1-.84-.66,2.82,2.82,0,0,1-.66-.83l1.7-1.7a.16.16,0,0,0,0-.16.15.15,0,0,0-.11-.11,2.55,2.55,0,0,0-.75-.1,2.7,2.7,0,0,0-2.7,2.7h0A2.72,2.72,0,0,0,17.52,13l-2.06,2.06L13.37,13h0l-1-1.66a.25.25,0,0,0-.07-.08L10.69,10.1a.23.23,0,0,0-.29,0l-.72.72a.24.24,0,0,0,0,.29l1.13,1.63.08.07,1.66,1h0l2.11,2.11L13,17.5a2.69,2.69,0,0,0-3.65,3.24.17.17,0,0,0,.11.11.13.13,0,0,0,.15,0l1.7-1.7a2.79,2.79,0,0,1,.84.66,2.82,2.82,0,0,1,.66.83l-1.7,1.7a.15.15,0,0,0,0,.15.15.15,0,0,0,.11.11,2.55,2.55,0,0,0,.75.1,2.7,2.7,0,0,0,2.7-2.7h0a2.72,2.72,0,0,0-.22-1.06L16,17.3l.67.67-.46.46a.52.52,0,0,0-.15.38.56.56,0,0,0,.15.38l3.24,3.24a.52.52,0,0,0,.38.15.56.56,0,0,0,.38-.15L22,20.67a.52.52,0,0,0,.15-.38.56.56,0,0,0-.15-.38l-3.24-3.24a.52.52,0,0,0-.38-.15.56.56,0,0,0-.38.15l-.46.46-.67-.67,2.06-2.06A2.72,2.72,0,0,0,20,14.63Zm-1.65,3.23h0a.3.3,0,0,1,.41,0l2.08,2.08a.29.29,0,1,1-.4.43l0,0-2.08-2.07A.31.31,0,0,1,18.35,17.85Zm-.95,1,0,0h0a.3.3,0,0,1,.41,0l2.08,2.08a.29.29,0,0,1-.41.41l-2.08-2.08A.28.28,0,0,1,17.4,18.81Z"/>
</svg>