<svg id="Group_377" data-name="Group 377" xmlns="http://www.w3.org/2000/svg" viewBox="-23708 -16216 197 197">
  <defs>
    <style>
      .cls-1 {
        fill: #f2f2f2;
      }

      .cls-2 {
        fill: #003264;
      }

      .cls-3 {
        fill: #004385;
      }

      .cls-4 {
        fill: #fff;
      }

      .cls-5 {
        fill: #e5e5e5;
      }

      .cls-6 {
        fill: #b9dbfd;
      }

      .cls-7 {
        fill: #4fa5fa;
      }

      .cls-8 {
        fill: #0080ff;
      }

      .cls-9 {
        fill: #ffd652;
      }
    </style>
  </defs>
  <g id="Group_364" data-name="Group 364" transform="translate(-24234 -17159)">
    <circle id="Ellipse_105" data-name="Ellipse 105" class="cls-1" cx="98.5" cy="98.5" r="98.5" transform="translate(526 943)"/>
    <g id="Group_363" data-name="Group 363" transform="translate(577 992)">
      <path id="Path_635" data-name="Path 635" class="cls-2" d="M195.8,393.447l-13.046-11.874v-12.03a1.543,1.543,0,0,0-3.086,0V381.2L166.6,393.467a1.542,1.542,0,0,0,2.109,2.246l10.956-10.292v8.339a1.543,1.543,0,0,0,3.086,0v-8.027l10.976,10A1.543,1.543,0,0,0,195.8,393.447Z" transform="translate(-133.675 -296.13)"/>
      <path id="Path_636" data-name="Path 636" class="cls-3" d="M110.408,7.695A7.71,7.71,0,0,0,102.714,0h-69.8A7.714,7.714,0,0,0,25.2,7.695v3.359h85.208Z" transform="translate(-20.278)"/>
      <rect id="Rectangle_279" data-name="Rectangle 279" class="cls-2" width="85.208" height="2.422" transform="translate(4.922 8.632)"/>
      <path id="Path_637" data-name="Path 637" class="cls-4" d="M25.2,56.6v62.339a1.534,1.534,0,0,0,1.543,1.543h82.123a1.534,1.534,0,0,0,1.543-1.543V56.6Z" transform="translate(-20.278 -45.546)"/>
      <path id="Path_638" data-name="Path 638" class="cls-5" d="M35.8,56.6H25.2v62.339a1.534,1.534,0,0,0,1.543,1.543H99.237Z" transform="translate(-20.278 -45.546)"/>
      <g id="Group_360" data-name="Group 360" transform="translate(24.647 19.383)">
        <path id="Path_639" data-name="Path 639" class="cls-6" d="M135.945,178.887a1.7,1.7,0,0,1-.8-.215l-8.2-4.922a1.537,1.537,0,1,1,1.582-2.637l8.222,4.922a1.548,1.548,0,0,1,.527,2.109A1.528,1.528,0,0,1,135.945,178.887Z" transform="translate(-126.2 -156.906)"/>
        <path id="Path_640" data-name="Path 640" class="cls-6" d="M213.823,147.108a1.605,1.605,0,0,1-1.094-.449,1.544,1.544,0,0,1,0-2.187l9.042-9.042a1.547,1.547,0,1,1,2.187,2.187l-9.042,9.042A1.536,1.536,0,0,1,213.823,147.108Z" transform="translate(-195.465 -127.997)"/>
        <path id="Path_641" data-name="Path 641" class="cls-6" d="M302.181,104.394a1.548,1.548,0,0,1-.371-3.047l8.222-2.051a1.542,1.542,0,1,1,.762,2.988l-8.222,2.051A.908.908,0,0,1,302.181,104.394Z" transform="translate(-266.578 -99.247)"/>
      </g>
      <path id="Path_642" data-name="Path 642" class="cls-7" d="M174.254,177.1a6.054,6.054,0,1,0,6.054,6.054A6.059,6.059,0,0,0,174.254,177.1Z" transform="translate(-135.351 -142.513)"/>
      <path id="Path_643" data-name="Path 643" class="cls-8" d="M176.617,190.084a6.059,6.059,0,0,1-6.054-6.054,5.951,5.951,0,0,1,.762-2.929,6.051,6.051,0,1,0,8.222,8.222A5.9,5.9,0,0,1,176.617,190.084Z" transform="translate(-135.351 -145.732)"/>
      <path id="Path_644" data-name="Path 644" class="cls-7" d="M262.554,97.2a6.054,6.054,0,1,0,6.054,6.054A6.059,6.059,0,0,0,262.554,97.2Z" transform="translate(-206.406 -78.217)"/>
      <path id="Path_645" data-name="Path 645" class="cls-8" d="M264.8,110.62a6.046,6.046,0,0,1-5.214-9.12,6.05,6.05,0,1,0,8.281,8.281A5.876,5.876,0,0,1,264.8,110.62Z" transform="translate(-206.487 -81.677)"/>
      <path id="Path_646" data-name="Path 646" class="cls-7" d="M350.854,76.2a6.054,6.054,0,1,0,6.054,6.054A6.059,6.059,0,0,0,350.854,76.2Z" transform="translate(-277.461 -61.318)"/>
      <path id="Path_647" data-name="Path 647" class="cls-8" d="M353,89.879a6.059,6.059,0,0,1-6.054-6.054,5.883,5.883,0,0,1,.879-3.125,6.048,6.048,0,1,0,8.3,8.3A5.933,5.933,0,0,1,353,89.879Z" transform="translate(-277.542 -64.939)"/>
      <path id="SVGCleanerId_0_3_" class="cls-9" d="M85.954,141.4a6.054,6.054,0,1,0,6.054,6.054A6.059,6.059,0,0,0,85.954,141.4Z" transform="translate(-64.296 -113.785)"/>
      <g id="Group_361" data-name="Group 361" transform="translate(15.604 27.615)">
        <path id="SVGCleanerId_0_2_" class="cls-7" d="M85.954,141.4a6.054,6.054,0,1,0,6.054,6.054A6.059,6.059,0,0,0,85.954,141.4Z" transform="translate(-79.9 -141.4)"/>
      </g>
      <path id="Path_648" data-name="Path 648" class="cls-8" d="M88.317,154.284a6.059,6.059,0,0,1-6.054-6.054,5.95,5.95,0,0,1,.762-2.929,6.051,6.051,0,1,0,8.222,8.222A5.9,5.9,0,0,1,88.317,154.284Z" transform="translate(-64.296 -116.923)"/>
      <g id="Group_362" data-name="Group 362" transform="translate(16.835 30.076)">
        <path id="Path_649" data-name="Path 649" class="cls-8" d="M93.485,229.7H87.743a1.534,1.534,0,0,0-1.543,1.543v13.964a1.534,1.534,0,0,0,1.543,1.543h5.742a1.534,1.534,0,0,0,1.543-1.543V231.243A1.534,1.534,0,0,0,93.485,229.7Z" transform="translate(-86.2 -214.916)"/>
        <path id="Path_650" data-name="Path 650" class="cls-8" d="M272.885,179.2h-5.742a1.534,1.534,0,0,0-1.543,1.543V204.55a1.534,1.534,0,0,0,1.543,1.543h5.742a1.534,1.534,0,0,0,1.543-1.543V180.743A1.546,1.546,0,0,0,272.885,179.2Z" transform="translate(-230.564 -174.279)"/>
        <path id="Path_651" data-name="Path 651" class="cls-8" d="M362.685,154h-5.742a1.534,1.534,0,0,0-1.543,1.543v28.748a1.534,1.534,0,0,0,1.543,1.543h5.742a1.534,1.534,0,0,0,1.543-1.543V155.543A1.559,1.559,0,0,0,362.685,154Z" transform="translate(-302.826 -154)"/>
        <path id="Path_652" data-name="Path 652" class="cls-8" d="M183.185,250.7h-5.742a1.534,1.534,0,0,0-1.543,1.543v9.863a1.534,1.534,0,0,0,1.543,1.543h5.742a1.534,1.534,0,0,0,1.543-1.543v-9.863A1.546,1.546,0,0,0,183.185,250.7Z" transform="translate(-158.382 -231.815)"/>
      </g>
      <path id="Path_653" data-name="Path 653" class="cls-2" d="M127.452,304.286H57.243a1.543,1.543,0,1,1,0-3.086h70.21a1.543,1.543,0,1,1,0,3.086Z" transform="translate(-44.822 -242.376)"/>
      <path id="Path_654" data-name="Path 654" class="cls-3" d="M93.528,334.3H1.543A1.534,1.534,0,0,0,0,335.843V342.4a1.534,1.534,0,0,0,1.543,1.543H93.528a1.534,1.534,0,0,0,1.543-1.543v-6.562A1.559,1.559,0,0,0,93.528,334.3Z" transform="translate(0 -269.012)"/>
    </g>
  </g>
</svg>
