<svg xmlns="http://www.w3.org/2000/svg" viewBox="0 0 30 30">
    <style>
        .a{
        fill:#FFF;
        }
    </style>
    <g fill="none">
        <circle cx="15" cy="15" r="15" fill="#33AAE0"/>
        <path d="M30 14.6L23.3 8 12.5 21.2 20.3 29C26 26.8 30 21.4 30 14.9 30 14.8 30 14.7 30 14.6Z" fill="#269BD0"/>
        <path d="M22.5 7.8C23.1 7.6 23.8 8.1 23.6 8.7L21 21.5C20.8 22.1 20.1 22.4 19.6 22L15.6 19 13.5 21.1C13.1 21.5 12.5 21.3 12.4 20.9L10.9 16.1 6.9 15C6.3 14.8 6.3 14.1 6.8 13.9L22.5 7.8ZM20.6 10.6C20.8 10.5 20.6 10.2 20.4 10.3L11.7 15.6C11.6 15.7 11.5 15.9 11.6 16.1L12.7 21.2C12.8 21.3 12.9 21.3 12.9 21.2L13.1 17.3C13.2 17.2 13.2 17.1 13.3 17.1L20.6 10.6Z" class="a"/>
        <path d="M20.4 10.4C20.6 10.3 20.8 10.6 20.6 10.7L13.3 17.2C13.2 17.3 13.2 17.4 13.1 17.4L12.9 21.4C12.9 21.5 12.8 21.5 12.7 21.4L11.6 16.2C11.5 16.1 11.6 15.9 11.7 15.8L20.4 10.4Z" fill="#9EC2E5"/>
        <path d="M12.8 21.3C12.6 21.3 12.4 21.1 12.4 20.9L10.9 16.2 6.9 15C6.3 14.8 6.3 14.1 6.8 13.9L22.6 7.8C22.9 7.6 23.3 7.8 23.5 8.1 23.5 8.1 23.5 8 23.4 8L12.7 16.7 12.7 17 12.7 17 12.7 19.4 12.7 21.3C12.8 21.3 12.8 21.3 12.8 21.3L12.8 21.3 12.8 21.3Z" class="a"/>
        <g fill="#D1D1D1">
            <path d="M23.6 8.5C23.6 8.6 23.6 8.7 23.6 8.7L20.9 21.6C20.8 22.2 20.1 22.4 19.6 22.1L15.5 19.1 12.7 17.1 12.7 16.7 23.4 8C23.4 8 23.5 8.1 23.5 8.1 23.5 8.1 23.5 8.2 23.5 8.2 23.5 8.2 23.5 8.2 23.5 8.2 23.5 8.2 23.6 8.2 23.6 8.2 23.6 8.3 23.6 8.3 23.6 8.3 23.6 8.3 23.6 8.3 23.6 8.3 23.6 8.4 23.6 8.4 23.6 8.4 23.6 8.5 23.6 8.5 23.6 8.5Z"/>
            <path d="M15.5 19.1L13.5 21.2C13.5 21.2 13.4 21.2 13.4 21.3 13.4 21.3 13.4 21.3 13.4 21.3 13.4 21.3 13.4 21.3 13.4 21.3 13.3 21.3 13.3 21.3 13.3 21.4 13.2 21.4 13.2 21.4 13.2 21.4 13.1 21.4 13 21.4 12.9 21.4 12.9 21.4 12.9 21.4 12.9 21.4 12.9 21.4 12.9 21.4 12.8 21.4 12.8 21.4 12.8 21.4 12.8 21.4 12.8 21.4 12.8 21.4 12.8 21.4L12.7 19.4 12.7 17.1 15.5 19.1Z"/>
        </g>
        <path d="M20.6 10.7L13.3 17.2C13.2 17.3 13.2 17.3 13.1 17.4L12.9 21.4C12.9 21.5 12.8 21.5 12.7 21.4L11.6 16.2C11.5 16.1 11.6 15.9 11.7 15.8L20.4 10.4C20.6 10.3 20.8 10.6 20.6 10.7Z" fill="#ADBCC9"/>
    </g>
</svg>