<svg xmlns="http://www.w3.org/2000/svg" viewBox="-20742.5 -15393.5 51 43.728">
  <defs>
    <style>
      .cls-1, .cls-2 {
        fill: #004385;
      }

      .cls-1 {
        stroke: #004385;
      }
    </style>
  </defs>
  <g id="Group_2539" data-name="Group 2539" transform="translate(-22412 -17243)">
    <g id="Group_2537" data-name="Group 2537" transform="translate(15 23)">
      <path id="Path_2798" data-name="Path 2798" class="cls-1" d="M49.091,0H.909A.859.859,0,0,0,0,.909V32.727a.859.859,0,0,0,.909.909H23.636v7.273H10.818a.909.909,0,0,0,0,1.818H38.273a.909.909,0,0,0,0-1.818H25.455V33.636H49.091A.859.859,0,0,0,50,32.727V.909A.859.859,0,0,0,49.091,0Zm-.909,31.818H1.818v-30H48.182Z" transform="translate(1655 1827)"/>
      <path id="Path_2799" data-name="Path 2799" class="cls-2" d="M6.909,16.909H16A.859.859,0,0,0,16.909,16V6.909A.859.859,0,0,0,16,6H6.909A.859.859,0,0,0,6,6.909V16A.859.859,0,0,0,6.909,16.909Zm.909-9.091h7.273v7.273H7.818Z" transform="translate(1654.455 1826.455)"/>
      <path id="Path_2800" data-name="Path 2800" class="cls-2" d="M13.273,9.971l-1.636,2-1.091-1.091a.9.9,0,0,0-1.273,1.273l1.818,1.818a.825.825,0,0,0,.636.273h0a.686.686,0,0,0,.636-.364l2.273-2.727a.878.878,0,0,0-.091-1.273A.974.974,0,0,0,13.273,9.971Z" transform="translate(1654.182 1826.119)"/>
      <path id="Path_2801" data-name="Path 2801" class="cls-2" d="M6.909,30.909H16A.859.859,0,0,0,16.909,30V20.909A.859.859,0,0,0,16,20H6.909A.859.859,0,0,0,6,20.909V30A.859.859,0,0,0,6.909,30.909Zm.909-9.091h7.273v7.273H7.818Z" transform="translate(1654.455 1825.182)"/>
      <path id="Path_2802" data-name="Path 2802" class="cls-2" d="M21.909,9.818H45.545a.859.859,0,0,0,.909-.909A.859.859,0,0,0,45.545,8H21.909A.859.859,0,0,0,21,8.909.859.859,0,0,0,21.909,9.818Z" transform="translate(1653.091 1826.273)"/>
      <path id="Path_2803" data-name="Path 2803" class="cls-2" d="M21.909,14.818H41A.909.909,0,0,0,41,13H21.909a.909.909,0,0,0,0,1.818Z" transform="translate(1653.091 1825.818)"/>
      <path id="Path_2804" data-name="Path 2804" class="cls-2" d="M21.909,23.818H45.545a.909.909,0,1,0,0-1.818H21.909a.909.909,0,0,0,0,1.818Z" transform="translate(1653.091 1825)"/>
      <path id="Path_2805" data-name="Path 2805" class="cls-2" d="M21.909,28.818H45.545a.909.909,0,1,0,0-1.818H21.909a.909.909,0,0,0,0,1.818Z" transform="translate(1653.091 1824.545)"/>
    </g>
  </g>
</svg>
