<svg xmlns="http://www.w3.org/2000/svg" viewBox="-23665 -15609 54.066 50">
  <defs>
    <style>
      .cls-1 {
        fill: #004385;
      }

      .cls-2 {
        fill: #0080ff;
      }
    </style>
  </defs>
  <g id="working-team" transform="translate(-23665 -15610.766)">
    <g id="Layer_1_21_" transform="translate(0 1.766)">
      <g id="group">
        <path id="path" class="cls-1" d="M23.4,22.466l.688-4.428-.346-.558a.2.2,0,0,1,.022-.246l.9-.975a.211.211,0,0,1,.3,0l.9.975a.2.2,0,0,1,.022.246l-.346.558.688,4.427c5.432-.091,8.722-.711,8.722-1.357,0-3.157-2.146-3.3-4.532-4.076-1.47-.477-3.292-.746-2.9-3.279a5.716,5.716,0,0,0,1.305-2.709,2.776,2.776,0,0,0,1.438-1.894,1.622,1.622,0,0,0-.386-1.389v-1.2a4.927,4.927,0,0,0-5.057-4.79,4.927,4.927,0,0,0-5.058,4.79v1.2a1.623,1.623,0,0,0-.385,1.389,2.772,2.772,0,0,0,1.437,1.894,5.718,5.718,0,0,0,1.307,2.709c.389,2.532-1.432,2.8-2.9,3.279-2.387.78-4.532.919-4.532,4.076C14.684,21.752,17.972,22.374,23.4,22.466Z" transform="translate(2.206 -1.766)"/>
        <path id="path-2" data-name="path" class="cls-1" d="M15.737,42.506c-1.47-.478-3.292-.746-2.9-3.281a5.721,5.721,0,0,0,1.307-2.707,2.769,2.769,0,0,0,1.437-1.893,1.625,1.625,0,0,0-.385-1.391v-1.2a4.928,4.928,0,0,0-5.058-4.792,4.928,4.928,0,0,0-5.058,4.792v1.2a1.625,1.625,0,0,0-.385,1.391,2.769,2.769,0,0,0,1.437,1.893,5.716,5.716,0,0,0,1.307,2.707c.389,2.533-1.432,2.8-2.9,3.281C2.145,43.284,0,43.425,0,46.581c0,.646,3.288,1.269,8.722,1.359l.688-4.428-.346-.559a.2.2,0,0,1,.022-.245l.9-.978a.215.215,0,0,1,.3,0l.9.978a.2.2,0,0,1,.022.245l-.346.558.688,4.427c5.432-.09,8.722-.712,8.722-1.358C20.268,43.425,18.122,43.284,15.737,42.506Z" transform="translate(0 2.059)"/>
        <path id="path-3" data-name="path" class="cls-1" d="M45.111,42.506c-1.469-.478-3.291-.746-2.9-3.281a5.721,5.721,0,0,0,1.307-2.707,2.769,2.769,0,0,0,1.437-1.893,1.625,1.625,0,0,0-.385-1.391v-1.2a5.065,5.065,0,0,0-10.116,0v1.2a1.621,1.621,0,0,0-.385,1.391A2.769,2.769,0,0,0,35.5,36.517a5.716,5.716,0,0,0,1.307,2.707c.389,2.533-1.431,2.8-2.9,3.281-2.385.779-4.531.919-4.531,4.075,0,.646,3.288,1.269,8.722,1.359l.689-4.428-.347-.558a.2.2,0,0,1,.022-.245l.9-.978a.215.215,0,0,1,.3,0l.9.978a.2.2,0,0,1,.023.245l-.346.558.688,4.427c5.432-.09,8.722-.712,8.722-1.358C49.643,43.425,47.5,43.284,45.111,42.506Z" transform="translate(4.412 2.059)"/>
        <path id="path-4" data-name="path" class="cls-2" d="M32.776,38.6a1.352,1.352,0,0,0,.865-2.39l-7.565-6.3V22.5a1.351,1.351,0,1,0-2.7,0v7.417l-7.565,6.3a1.35,1.35,0,1,0,1.729,2.075l7.187-5.98,7.187,5.98A1.335,1.335,0,0,0,32.776,38.6Z" transform="translate(2.301 1.145)"/>
      </g>
    </g>
  </g>
</svg>
