<svg xmlns="http://www.w3.org/2000/svg" viewBox="0 0 32 32">
  <defs>
    <style>.cls-1{fill:#004385;}</style>
  </defs>
  <g id="working-team">
    <g id="Layer_1-2" data-name="Layer 1">
      <g id="group">
        <path id="path" class="cls-1" d="M15.16,13.46l.41-2.62-.2-.33a.12.12,0,0,1,0-.15l.53-.58a.12.12,0,0,1,.18,0h0l.53.58a.12.12,0,0,1,0,.15l-.2.33.41,2.62C20,13.4,22,13,22,12.65c0-1.87-1.27-2-2.68-2.41C18.44,10,17.36,9.8,17.6,8.3a3.38,3.38,0,0,0,.77-1.6,1.64,1.64,0,0,0,.85-1.12A1,1,0,0,0,19,4.75V4a3,3,0,0,0-6,0v.71a1,1,0,0,0-.23.82,1.64,1.64,0,0,0,.85,1.12,3.38,3.38,0,0,0,.77,1.6c.23,1.5-.85,1.66-1.72,1.94-1.41.46-2.68.54-2.68,2.41C10,13,11.94,13.4,15.16,13.46Z"/>
        <path id="path-2" class="cls-1" d="M9.31,27.58c-.87-.28-1.95-.44-1.72-1.94A3.39,3.39,0,0,0,8.37,24a1.64,1.64,0,0,0,.85-1.12A1,1,0,0,0,9,22.1v-.71a2.92,2.92,0,0,0-3-2.84,2.92,2.92,0,0,0-3,2.84v.71a1,1,0,0,0-.23.82A1.64,1.64,0,0,0,3.63,24a3.38,3.38,0,0,0,.77,1.6c.23,1.5-.85,1.66-1.72,1.94C1.27,28,0,28.13,0,30c0,.38,1.95.75,5.16.8l.41-2.62-.2-.33a.12.12,0,0,1,0-.15l.53-.58a.13.13,0,0,1,.18,0l.53.58a.12.12,0,0,1,0,.15l-.2.33.41,2.62c3.22-.05,5.16-.42,5.16-.8C12,28.13,10.73,28,9.31,27.58Z"/>
        <path id="path-3" class="cls-1" d="M29.31,27.58c-.87-.28-1.95-.44-1.72-1.94a3.39,3.39,0,0,0,.77-1.6,1.64,1.64,0,0,0,.85-1.12A1,1,0,0,0,29,22.1v-.71a3,3,0,0,0-6,0v.71a1,1,0,0,0-.23.82A1.64,1.64,0,0,0,23.63,24a3.38,3.38,0,0,0,.77,1.6c.23,1.5-.85,1.66-1.72,1.94C21.27,28,20,28.12,20,30c0,.38,1.95.75,5.16.8l.41-2.62-.21-.33a.12.12,0,0,1,0-.15l.53-.58a.13.13,0,0,1,.18,0l.53.58a.12.12,0,0,1,0,.15l-.2.33.41,2.62c3.22-.05,5.16-.42,5.16-.8C32,28.13,30.72,28,29.31,27.58Z"/>
        <path id="path-4" class="cls-1" d="M20.76,24.73a.8.8,0,0,0,.51-1.41L16.8,19.59V15.2a.8.8,0,0,0-1.6,0v4.39l-4.48,3.73a.8.8,0,0,0,1,1.29l.07-.06L16,21l4.25,3.54A.79.79,0,0,0,20.76,24.73Z"/>
      </g>
    </g>
  </g>
</svg>