<svg xmlns="http://www.w3.org/2000/svg" viewBox="-23224 -15163 51.666 50">
  <defs>
    <style>
      .cls-1 {
        fill: #0080ff;
      }

      .cls-2 {
        fill: #004385;
      }
    </style>
  </defs>
  <g id="Group_382" data-name="Group 382" transform="translate(-23224 -15163)">
    <path id="Path_646" data-name="Path 646" class="cls-1" d="M8.167,14.167l-4.667,5,13,13,5-4.667h0l22-22.333L38.833.5,16.5,22.833Z" transform="translate(8.167 1.167)"/>
    <path id="Path_647" data-name="Path 647" class="cls-2" d="M45.333,18.667a20.931,20.931,0,0,1,1,6.333A21.483,21.483,0,0,1,25,46.333,21.483,21.483,0,0,1,3.667,25,21.483,21.483,0,0,1,25,3.667a20.98,20.98,0,0,1,11,3L38.667,4A24.328,24.328,0,0,0,25,0,25.182,25.182,0,0,0,0,25,25.182,25.182,0,0,0,25,50,25.182,25.182,0,0,0,50,25a28.918,28.918,0,0,0-1.667-9.333Z"/>
  </g>
</svg>
