<svg xmlns="http://www.w3.org/2000/svg" viewBox="-17054 -18685 128 127.977">
  <defs>
    <style>
      .cls-1 {
        fill: #004385;
      }
    </style>
  </defs>
  <g id="worldwide" transform="translate(-17054 -18685.045)">
    <g id="group" transform="translate(0 0.045)">
      <path id="path" class="cls-1" d="M113.224,25.932a2.353,2.353,0,0,0,.68-1.674l-.157-12.9a2.38,2.38,0,0,0-4.761.052l.078,7.167-.34-.34A64.012,64.012,0,0,0,3.758,85.674a2.358,2.358,0,0,0,2.223,1.569,2.917,2.917,0,0,0,.811-.131A2.38,2.38,0,0,0,8.23,84.078,59.259,59.259,0,0,1,105.4,21.642l.366.366-7.167.078a2.38,2.38,0,0,0,.026,4.761h.026l12.9-.157A2.551,2.551,0,0,0,113.224,25.932Z" transform="translate(0 -0.045)"/>
      <path id="path-2" data-name="path" class="cls-1" d="M164.012,157.256a2.374,2.374,0,1,0-4.473,1.6,59.27,59.27,0,0,1-97.172,62.462L62,220.948l7.167-.078a2.406,2.406,0,0,0,2.354-2.406,2.372,2.372,0,0,0-2.406-2.354l-12.9.157a2.406,2.406,0,0,0-2.354,2.406l.157,12.9a2.383,2.383,0,0,0,2.38,2.354h.026a2.406,2.406,0,0,0,2.354-2.406l-.078-7.167.366.366a63.568,63.568,0,0,0,44.7,18.231h.759a63.974,63.974,0,0,0,61.913-50.875A64.623,64.623,0,0,0,164.012,157.256Z" transform="translate(-39.776 -114.97)"/>
      <path id="path-3" data-name="path" class="cls-1" d="M135.555,96.912a38.634,38.634,0,1,0,14.8,74.311,38.628,38.628,0,0,0-14.8-74.311Zm29.766,22.39H157.5a39.129,39.129,0,0,0-6.775-14.1A33.871,33.871,0,0,1,165.321,119.3Zm-61.6,27.7a33.638,33.638,0,0,1,0-22.966H114.5a64.28,64.28,0,0,0-.994,11.483A62.449,62.449,0,0,0,114.577,147Zm14.517-11.483a61.379,61.379,0,0,1,1.072-11.483h14.831V147h-14.7A56,56,0,0,1,118.239,135.519ZM138.9,102.588c5.964,1.334,10.934,7.69,13.654,16.74H138.9Zm-4.734,0V119.3H120.515C123.235,110.278,128.2,103.922,134.169,102.588Zm0,49.175v16.688c-5.6-1.465-10.567-7.926-13.418-16.688Zm4.734,16.688V151.763h13.418C149.47,160.525,144.5,166.986,138.9,168.451Zm0-21.449V124.037h14.831a59.256,59.256,0,0,1,1.072,11.483A54.214,54.214,0,0,1,153.577,147Zm19.67-22.966h8.893A33.628,33.628,0,0,1,167.44,147h-8.972a60.253,60.253,0,0,0,1.072-11.483A67.081,67.081,0,0,0,158.573,124.037Zm-35.939-19.8c.262-.1.549-.209.811-.314a37.573,37.573,0,0,0-7.873,15.406h-9.73A33.542,33.542,0,0,1,122.633,104.236Zm-16.793,47.527H115.7A38.409,38.409,0,0,0,124.02,167.4,33.838,33.838,0,0,1,105.841,151.763Zm44.31,14.36a40.225,40.225,0,0,0,7.193-14.36H165.3A33.871,33.871,0,0,1,150.15,166.123Z" transform="translate(-71.584 -71.575)"/>
    </g>
  </g>
</svg>
