<svg xmlns="http://www.w3.org/2000/svg" viewBox="-20942 -14821 40 40">
  <defs>
    <style>
      .cls-1 {
        fill: #d22215;
      }

      .cls-2 {
        fill: #a81411;
      }

      .cls-3 {
        fill: #fff;
      }

      .cls-4 {
        fill: #d1d1d1;
      }
    </style>
  </defs>
  <g id="Group_357" data-name="Group 357" transform="translate(-20942 -14821)">
    <ellipse id="Ellipse_104" data-name="Ellipse 104" class="cls-1" cx="20" cy="20" rx="20" ry="20"/>
    <path id="Path_632" data-name="Path 632" class="cls-2" d="M148.716,170.3c-.6.18-1.227.344-1.852.5-4.445.945-10.367-1.617-12.93,2.563-2.133,3.32-2.8,7.477-5.234,10.445l12.969,12.969a20.008,20.008,0,0,0,16.758-16.758Z" transform="translate(-118.645 -156.995)"/>
    <path id="Path_633" data-name="Path 633" class="cls-3" d="M127.633,152.3H114.258a4.756,4.756,0,0,0-4.758,4.758v6.688a4.756,4.756,0,0,0,4.758,4.758h13.383a4.756,4.756,0,0,0,4.758-4.758v-6.688a4.768,4.768,0,0,0-4.766-4.758Zm-3.211,8.43-6.258,2.984a.251.251,0,0,1-.359-.227v-6.156a.253.253,0,0,1,.367-.227l6.258,3.172a.255.255,0,0,1-.008.453Z" transform="translate(-100.945 -140.402)"/>
    <path id="Path_634" data-name="Path 634" class="cls-4" d="M261.028,152.3H254.2v6.141l3.617,1.836a.253.253,0,0,1-.008.453l-3.609,1.719V168.5h6.828a4.756,4.756,0,0,0,4.758-4.758v-6.688A4.756,4.756,0,0,0,261.028,152.3Z" transform="translate(-234.341 -140.402)"/>
  </g>
</svg>
