<svg xmlns="http://www.w3.org/2000/svg" viewBox="0 0 116 33"><defs><style>.cls-1{fill:#006cc2;}.cls-2{fill:#fff;}</style></defs><title>Champion FX MT5</title><g id="Layer_8" data-name="Layer 8"><path d="M116,29.69A3.32,3.32,0,0,1,112.66,33H3.34A3.35,3.35,0,0,1,0,29.66V3.35A3.35,3.35,0,0,1,3.35,0H112.67A3.33,3.33,0,0,1,116,3.33V29.69Z"/><path class="cls-1" d="M13,15V7.87l9-1.19V15ZM24,6.47l11-1.7V15H24ZM35,17V27.23L24,25.59V17ZM22,25.4l-9-1.2V17h9Zm.11,0"/><path class="cls-2" d="M49.37,11a2.42,2.42,0,0,1-2.56,2.45h-2V8.58h2A2.41,2.41,0,0,1,49.37,11Zm-.83,0a1.67,1.67,0,0,0-1.72-1.72H45.65v3.42h1.21A1.64,1.64,0,0,0,48.54,11Z"/><path class="cls-2" d="M53.74,11.61a1.94,1.94,0,0,1-3.89,0,1.94,1.94,0,0,1,3.89,0Zm-3.08,0a1.14,1.14,0,1,0,2.28,0,1.14,1.14,0,1,0-2.28,0Z"/><path class="cls-2" d="M54.67,9.76l1,2.93.94-2.93h.83l.95,2.93,1-2.93h.82l-1.36,3.73h-.83L57,10.72,56,13.48h-.83L53.85,9.76Z"/><path class="cls-2" d="M64.29,11.17v2.32h-.81V11.39a.83.83,0,0,0-.9-.9,1,1,0,0,0-1.06,1v2h-.8V9.76h.8v.71a1.41,1.41,0,0,1,1.37-.74A1.3,1.3,0,0,1,64.29,11.17Z"/><path class="cls-2" d="M66.21,8.29v5.2h-.81V8.29Z"/><path class="cls-2" d="M71,11.61a1.94,1.94,0,0,1-3.89,0,1.94,1.94,0,0,1,3.89,0Zm-3.08,0a1.14,1.14,0,1,0,2.28,0,1.14,1.14,0,1,0-2.28,0Z"/><path class="cls-2" d="M74,13.48V13a1.51,1.51,0,0,1-1.23.49,1.18,1.18,0,0,1-1.31-1.16c0-.68.51-1.11,1.41-1.12H74v-.11c0-.47-.3-.75-.89-.75a2,2,0,0,0-1.1.38l-.33-.56a2.73,2.73,0,0,1,1.6-.47c1,0,1.5.49,1.51,1.31v2.44Zm0-1.31v-.34H73c-.53,0-.77.14-.77.5s.27.55.72.55S74,12.58,74,12.17Z"/><path class="cls-2" d="M79.46,8.29v5.2h-.81v-.64a1.44,1.44,0,0,1-1.31.67,1.76,1.76,0,0,1-1.79-1.91,1.74,1.74,0,0,1,1.77-1.88,1.47,1.47,0,0,1,1.32.68V8.29Zm-.81,3.35a1.13,1.13,0,0,0-1.14-1.23,1.15,1.15,0,0,0-1.15,1.23,1.15,1.15,0,1,0,2.29,0Z"/><path class="cls-2" d="M83.74,9.46V9.9h1v.6h-1v3h-.8v-3h-.49V9.9h.49V9.53a1.22,1.22,0,0,1,1.28-1.28,1.42,1.42,0,0,1,.84.26l-.31.62A.9.9,0,0,0,84.24,9,.47.47,0,0,0,83.74,9.46Z"/><path class="cls-2" d="M88.65,11.61a1.94,1.94,0,0,1-3.89,0,1.94,1.94,0,0,1,3.89,0Zm-3.08,0a1.14,1.14,0,1,0,2.28,0,1.14,1.14,0,1,0-2.28,0Z"/><path class="cls-2" d="M91.59,9.73v.77a1.13,1.13,0,0,0-1.29,1v1.95h-.8V9.76h.8v.74A1.36,1.36,0,0,1,91.59,9.73Z"/><path class="cls-2" d="M45.48,17l1.7,5.69L48.87,17H50l1.7,5.69L53.42,17h1.22L52.3,24H51.09l-1.66-5.46L47.75,24H46.53l-2.32-7Z"/><path class="cls-2" d="M56.63,17.17a.67.67,0,1,1-.67-.69A.66.66,0,0,1,56.63,17.17Zm-.1,1.52V24H55.39V18.69Z"/><path class="cls-2" d="M63.32,20.7V24H62.17V21a1.18,1.18,0,0,0-1.28-1.29,1.49,1.49,0,0,0-1.51,1.45V24H58.23V18.69h1.15v1a2,2,0,0,1,2-1.06A1.86,1.86,0,0,1,63.32,20.7Z"/><path class="cls-2" d="M69.93,16.59V24H68.78V23.1a2.06,2.06,0,0,1-1.87,1,2.51,2.51,0,0,1-2.55-2.73,2.48,2.48,0,0,1,2.53-2.69,2.1,2.1,0,0,1,1.89,1v-3Zm-1.15,4.78a1.62,1.62,0,0,0-1.63-1.75,1.64,1.64,0,0,0-1.64,1.75,1.64,1.64,0,1,0,3.27,0Z"/><path class="cls-2" d="M76.73,21.34A2.77,2.77,0,1,1,74,18.65,2.61,2.61,0,0,1,76.73,21.34Zm-4.4,0a1.63,1.63,0,1,0,3.25,0,1.63,1.63,0,1,0-3.25,0Z"/><path class="cls-2" d="M78.07,18.69l1.38,4.18,1.34-4.18H82l1.35,4.18,1.36-4.18h1.17L83.92,24H82.73l-1.35-3.94L80,24H78.85l-2-5.32Z"/><path class="cls-2" d="M88.11,19.56c-.45,0-.78.15-.78.53,0,1,2.83.45,2.82,2.38,0,1.09-1,1.58-2,1.58A3.29,3.29,0,0,1,86,23.31l.41-.82a2.89,2.89,0,0,0,1.78.66c.49,0,.87-.17.87-.57,0-1.09-2.8-.48-2.79-2.4,0-1.08.94-1.54,2-1.54a3.36,3.36,0,0,1,1.86.54l-.42.85A3.12,3.12,0,0,0,88.11,19.56Z"/></g></svg>