<?xml version="1.0" encoding="utf-8"?>
<!-- Generator: Adobe Illustrator 21.0.0, SVG Export Plug-In . SVG Version: 6.00 Build 0)  -->
<svg version="1.1" id="Layer_1" xmlns="http://www.w3.org/2000/svg" xmlns:xlink="http://www.w3.org/1999/xlink" x="0px" y="0px"
	 viewBox="0 0 375.6 66.5" style="enable-background:new 0 0 375.6 66.5;" xml:space="preserve">
<style type="text/css">
	.st0{fill:#FFFFFF;}
</style>
<title>CFX_text</title>
<g>
	<path class="st0" d="M31.7,30.7c-0.4,0.5-0.9,1.1-1.4,1.5c-5.5,5.5-14.3,5.5-19.8,0s-5.5-14.3,0-19.8c5.1-5.1,13.2-5.5,18.8-1V3.9
		c-0.3-0.1-0.6-0.3-0.9-0.4c-2.5-1.1-5.3-1.6-8-1.6c-2.7,0-5.4,0.5-7.9,1.6C10,4.5,7.8,6,6,7.9c-1.9,1.9-3.4,4.1-4.4,6.5
		c-1.1,2.5-1.6,5.3-1.6,8c0,11.3,9.1,20.4,20.4,20.4c0,0,0,0,0,0c2.7,0,5.5-0.5,8-1.6c1.1-0.5,2.2-1.1,3.3-1.8L31.7,30.7L31.7,30.7z
		 M66.9,1.9h-6.4v17.4H44.3V1.9h-6.4v40.8h6.4V25.2h16.3v17.6H67L66.9,1.9L66.9,1.9z M101.1,42.8h7L90.3,0.1L72.6,42.8h7l3.5-8.8
		h14.5L101.1,42.8L101.1,42.8z M85.4,28.3l5-12.4l5,12.4H85.4z M152.2,42.8V0.1L133,28.7L113.7,0.1v42.7h6.4V21.1l12.8,19l12.8-19
		v21.7H152.2z M160.7,1.9v40.8h6.4V29h5.7c5.4,0,8.5-2.2,10.2-4.1c2.3-2.6,3.4-6,3.3-9.5c0.1-3.5-1-6.9-3.3-9.5
		c-1.6-1.8-4.8-4-10.2-4L160.7,1.9L160.7,1.9z M178.8,21c-1.3,1.4-3.3,2.1-5.9,2.1h-5.7V7.7h5.7c2.2-0.2,4.4,0.6,5.9,2.2
		c1.3,1.6,1.9,3.5,1.8,5.6C180.7,17.4,180,19.4,178.8,21z M198,42.8V1.9h-6.4v40.8H198z M225.6,42.8c2.7,0,5.5-0.5,8-1.6
		c2.4-1.1,4.6-2.5,6.5-4.4c1.9-1.9,3.3-4.1,4.4-6.5c1.1-2.5,1.6-5.2,1.6-7.9c0-2.7-0.5-5.5-1.6-8c-1.1-2.4-2.6-4.6-4.4-6.5
		c-1.9-1.8-4.1-3.3-6.5-4.3c-2.5-1.1-5.3-1.6-8-1.6c-2.7,0-5.4,0.5-7.9,1.6c-2.4,1-4.6,2.5-6.5,4.3c-1.9,1.9-3.3,4.1-4.4,6.5
		c-1.1,2.5-1.6,5.3-1.6,8c0,11.3,9.1,20.4,20.4,20.4C225.5,42.8,225.5,42.8,225.6,42.8L225.6,42.8z M225.6,8.3
		c7.8,0,14.1,6.3,14.2,14c0,7.8-6.3,14.1-14,14.2c-7.8,0-14.1-6.3-14.2-14c0-3.8,1.5-7.4,4.1-10C218.3,9.8,221.9,8.3,225.6,8.3z
		 M285.3,44.7V1.9h-6.4v26.2L253.2,0v42.8h6.4V16.5L285.3,44.7L285.3,44.7z M316.8,7.7h18.2V1.9h-24.6v40.8h6.4V24.3h14.9v-5.8
		h-14.9L316.8,7.7L316.8,7.7z M375.7,42.8l-15-21.9l13-19h-8l-9,13.1l-8.9-13.1h-8l12.9,19l-14.9,21.9h8l10.9-16l10.9,16H375.7z"/>
	<path class="st0" d="M21.5,52.8h-2.2l-3.5,8.7L13.5,56l-1.1-2.7L11.2,56l-2.2,5.5l-3.7-8.7H3.1l6,13.8l3.3-7.9l3.5,7.9L21.5,52.8
		L21.5,52.8z M36.8,52.8h-2.1v5.6h-5.2v-5.6h-2.1v13.2h2.1v-5.7h5.2v5.7h2.1V52.8z M45.3,54.6h5.8v-1.8h-7.9v13.2h7.9v-1.9h-5.8V60
		h4.8v-1.9h-4.8L45.3,54.6L45.3,54.6z M63,61.2c0.6-0.2,1.1-0.5,1.5-1c1.4-1.8,1.4-4.3,0-6.1c-0.8-0.9-2-1.4-3.3-1.3h-3.9v13.2h2.1
		v-4.5h1.5l3.3,4.5h2.3L63,61.2z M59.4,59.6v-5h1.8c0.7-0.1,1.4,0.2,1.9,0.7c0.8,1.1,0.8,2.5,0,3.6c-0.5,0.5-1.2,0.8-1.9,0.7
		L59.4,59.6z M74,54.6h5.8v-1.9H72v13.2h7.9v-1.9H74V60h4.8v-1.9H74L74,54.6L74,54.6z M99.8,52.8h-9.3v1.8h3.6v11.3h2.1V54.6h3.6
		L99.8,52.8L99.8,52.8z M114.8,52.8h-2v5.6h-5.2v-5.6h-2.1v13.2h2.1v-5.7h5.2v5.7h2.1L114.8,52.8L114.8,52.8z M123.4,54.6h5.8v-1.9
		h-7.9v13.2h7.9v-1.9h-5.8V60h4.8v-1.9h-4.8V54.6L123.4,54.6z M150.4,62.1c-0.1,0.2-0.3,0.3-0.4,0.5c-1.7,1.8-4.6,1.9-6.4,0.2
		s-1.9-4.6-0.2-6.4c0.1-0.1,0.1-0.1,0.2-0.2c1.6-1.6,4.2-1.8,6-0.3v-2.5l-0.3-0.1c-0.8-0.3-1.7-0.5-2.6-0.5c-0.9,0-1.7,0.2-2.6,0.5
		c-0.8,0.3-1.5,0.8-2.1,1.4c-1.2,1.2-1.9,2.9-1.9,4.7c0,3.6,2.9,6.6,6.6,6.6l0,0c0.9,0,1.8-0.2,2.6-0.5c0.4-0.2,0.7-0.4,1.1-0.6
		L150.4,62.1L150.4,62.1z M164,64.1h-5.5V52.8h-2.1v13.2h7.6V64.1z M171.4,65.9V52.8h-2.1v13.2H171.4z M180,54.6h5.8v-1.8h-7.9v13.2
		h7.9v-1.9H180V60h4.8v-1.9H180V54.6z M202.4,66.5V52.8h-2.1v8.4l-8.3-9.1v13.8h2.1v-8.5L202.4,66.5L202.4,66.5z M217.4,52.8H208
		v1.8h3.6v11.3h2.1V54.6h3.6L217.4,52.8L217.4,52.8z M230.4,65.9V52.8h-2.1v13.2L230.4,65.9z M243.7,61.4c-0.2-0.7-0.6-1.3-1.1-1.7
		c-0.3-0.3-0.7-0.6-1-1l0,0l-2.2-2.1c-0.6-0.5-0.6-0.9-0.5-1.2c0.2-0.4,0.6-0.7,1-0.8c0.7-0.1,1.4,0.2,1.7,0.7l1.6-1.3
		c-0.5-0.6-1.1-1-1.8-1.3c-0.6-0.2-1.3-0.3-2-0.1c-0.6,0.1-1.1,0.4-1.6,0.8c-0.5,0.4-0.8,0.9-1,1.5c-0.2,0.5-0.2,1.1,0,1.7
		c0.2,0.6,0.5,1.1,1,1.6l1.6,1.5c0.1,0.1,1,1,1.6,1.6c0.5,0.3,0.7,0.9,0.6,1.5c-0.2,0.6-0.8,1-1.4,1.1c-0.4,0.1-0.8,0.1-1.2-0.1
		c-0.5-0.2-1-0.6-1.3-1l-1.5,1.3c0.6,0.7,1.3,1.3,2.2,1.7c0.5,0.2,1,0.3,1.6,0.3c0.3,0,0.5,0,0.8-0.1c1.4-0.2,2.6-1.2,3-2.6
		C244,62.7,244,62.1,243.7,61.4L243.7,61.4z M265.1,65.9l-5.8-6.8l4.8-6.3h-2.6l-4.2,5.4v-5.4h-2.1v13.2h2.1V60l5.2,6L265.1,65.9z
		 M272.6,65.9V52.8h-2.1v13.2L272.6,65.9z M289.5,66.5V52.8h-2.1v8.4l-8.3-9.1v13.8h2.1v-8.5L289.5,66.5L289.5,66.5z M306.2,59.1
		h-4.5V61h2.5v2.4l0,0c-0.2,0.1-0.5,0.2-0.7,0.3l0,0c0,0,0,0-0.1,0c0,0,0,0,0,0h0c0,0,0,0-0.1,0l0,0l-0.4,0.1h-0.1l0,0h-0.3
		c0,0,0,0,0,0h-0.1c-2,0-3.8-1.4-4.4-3.3c-0.1-0.3-0.1-0.7-0.2-1c0-0.1,0-0.2,0-0.2c0-0.1,0-0.2,0-0.2v-0.2c0-0.2,0-0.3,0.1-0.5l0,0
		c0.1-0.5,0.3-0.9,0.5-1.3c0,0,0,0,0-0.1l0.1-0.2l0,0c0.1-0.1,0.1-0.2,0.2-0.3l0,0c0.1-0.1,0.1-0.2,0.2-0.2c0.2-0.2,0.5-0.5,0.8-0.6
		l0.1,0c0.7-0.4,1.5-0.6,2.3-0.6h0.3h0h0.2c0,0,0,0,0.1,0l0,0h0.1l0,0h0.2l0,0c0,0,0,0,0.1,0h0c0,0,0,0,0,0c0.3,0.1,0.6,0.2,0.8,0.3
		l0,0c0.3,0.2,0.6,0.3,0.9,0.6v-2.2l0,0l-0.1,0l0,0c-0.7-0.3-1.5-0.5-2.2-0.5l0,0c-0.1,0-0.1,0-0.2,0H302c-0.9,0-1.7,0.2-2.5,0.5
		c-0.8,0.3-1.5,0.8-2.1,1.4c-0.6,0.6-1,1.3-1.4,2.1c-0.3,0.7-0.5,1.5-0.5,2.2v0.3c0,0.2,0,0.4,0,0.7c0.1,0.7,0.2,1.3,0.5,1.9
		c0.4,0.8,0.9,1.5,1.5,2.1c0.4,0.4,0.9,0.8,1.5,1.1c0.2,0.1,0.4,0.2,0.6,0.3l0.3,0.1l0.2,0.1l0,0c0.7,0.2,1.4,0.3,2.1,0.3h0.3
		c0.8,0,1.6-0.2,2.4-0.6l0,0l0.1-0.1l0,0l0.1-0.1l0,0l0,0c0,0,0.1,0,0.1,0h0h0.1h0h0l0.1-0.1c0,0,0,0,0.1,0c0,0,0,0,0,0h0.1l0,0l0,0
		l0.5-0.3V61l0,0v-1.9L306.2,59.1z"/>
</g>
</svg>
