<svg xmlns="http://www.w3.org/2000/svg" width="17" height="18" viewBox="0 0 17 18">
  <g fill="none" fill-rule="evenodd">
    <path fill="#CBD8E6" d="M9.550017 2.32680202c-.2889544-.1387827-.5915461-.25250993-.90503068-.3383894v-.55013947C8.64498632.64722292 8.00984447 0 7.23355998 0c-.7762845 0-1.41142634.64722292-1.41142634 1.43827315v.55013948c-2.3297356.6382337-4.05785072 2.81452078-4.05785072 5.38273728v5.033956L0 14.2029474v.8989207h14.46712v-.8989207l-1.764283-1.7978415v-5.033956c0-.0203656-.0001086-.04070654-.0003254-.06102228C10.8497503 6.7531623 9.5 5.03420668 9.5 3c0-.2287887.0170739-.4535896.050017-.67319798zM5.3317865 16.180573h3.80361754c-.17995686 1.0256685-.9627692 1.7978414-1.901897 1.7978414-.93895136 0-1.7217637-.7721729-1.90172055-1.7978414z"/>
    <circle cx="14" cy="3" r="3" fill="#C03"/>
  </g>
</svg>