<?xml version="1.0" encoding="UTF-8"?>
<svg width="42px" height="31px" viewBox="0 0 42 31" version="1.1" xmlns="http://www.w3.org/2000/svg" xmlns:xlink="http://www.w3.org/1999/xlink">
    <!-- Generator: Sketch 44.1 (41455) - http://www.bohemiancoding.com/sketch -->
    <title>canada</title>
    <desc>Created with Sketch.</desc>
    <defs>
        <path d="M29.4252632,18.6928537 L0.51625731,18.6928537 C0.231169591,18.6928537 0,18.4725733 0,18.2009145 L0,0.4919392 C0,0.220280432 0.231169591,0 0.51625731,0 L29.4253216,0 C29.7104094,0 29.9415789,0.220280432 29.9415789,0.4919392 L29.9415789,18.2009145 C29.9415205,18.4725733 29.7103509,18.6928537 29.4252632,18.6928537 Z" id="path-1"></path>
        <filter x="-28.4%" y="-45.5%" width="163.5%" height="201.6%" filterUnits="objectBoundingBox" id="filter-2">
            <feOffset dx="1" dy="1" in="SourceAlpha" result="shadowOffsetOuter1"></feOffset>
            <feGaussianBlur stdDeviation="3" in="shadowOffsetOuter1" result="shadowBlurOuter1"></feGaussianBlur>
            <feColorMatrix values="0 0 0 0 0   0 0 0 0 0   0 0 0 0 0  0 0 0 0.3 0" type="matrix" in="shadowBlurOuter1"></feColorMatrix>
        </filter>
        <rect id="path-3" x="6.71111111" y="0.0154915154" width="16.5192982" height="18.6929094"></rect>
        <filter x="-51.5%" y="-45.5%" width="215.0%" height="201.6%" filterUnits="objectBoundingBox" id="filter-4">
            <feOffset dx="1" dy="1" in="SourceAlpha" result="shadowOffsetOuter1"></feOffset>
            <feGaussianBlur stdDeviation="3" in="shadowOffsetOuter1" result="shadowBlurOuter1"></feGaussianBlur>
            <feColorMatrix values="0 0 0 0 0   0 0 0 0 0   0 0 0 0 0  0 0 0 0.301262455 0" type="matrix" in="shadowBlurOuter1"></feColorMatrix>
        </filter>
    </defs>
    <g id="Contact-Us" stroke="none" stroke-width="1" fill="none" fill-rule="evenodd">
        <g transform="translate(-730.000000, -584.000000)" id="Customer-Service" fill-rule="nonzero">
            <g transform="translate(135.000000, 498.000000)">
                <g id="Country" transform="translate(600.000000, 90.000000)">
                    <g id="canada" transform="translate(0.000000, 1.000000)">
                        <g id="Shape">
                            <use fill="black" fill-opacity="1" filter="url(#filter-2)" xlink:href="#path-1"></use>
                            <use fill="#FFFFFF" fill-rule="evenodd" xlink:href="#path-1"></use>
                        </g>
                        <g id="Group">
                            <path d="M29.4252632,18.7080666 L0.51625731,18.7080666 C0.231169591,18.7080666 0,18.4877862 0,18.2161274 L0,0.507152091 C0,0.235493323 0.231169591,0.015212891 0.51625731,0.015212891 L29.4253216,0.015212891 C29.7104094,0.015212891 29.9415789,0.235493323 29.9415789,0.507152091 L29.9415789,18.2161274 C29.9415205,18.4878419 29.7103509,18.7080666 29.4252632,18.7080666 Z" id="Shape" fill="#F5F5F5"></path>
                            <g id="Rectangle-path">
                                <use fill="black" fill-opacity="1" filter="url(#filter-4)" xlink:href="#path-3"></use>
                                <use fill="#FFFFFF" fill-rule="evenodd" xlink:href="#path-3"></use>
                            </g>
                        </g>
                        <g id="Group" fill="#E70011">
                            <path d="M0.51625731,0.0152686159 C0.231169591,0.0152686159 0,0.235493323 0,0.507152091 L0,18.2161274 C0,18.4877862 0.231169591,18.7080666 0.51625731,18.7080666 L6.71105263,18.7080666 L6.71105263,0.0152686159 L0.51625731,0.0152686159 Z" id="Shape"></path>
                            <path d="M29.4252632,0.0152686159 L23.2304678,0.0152686159 L23.2304678,18.7080666 L29.4252632,18.7080666 C29.7103509,18.7080666 29.9415205,18.4877862 29.9415205,18.2161274 L29.9415205,0.507152091 C29.9415205,0.235493323 29.7103509,0.0152686159 29.4252632,0.0152686159 Z" id="Shape"></path>
                            <path d="M18.1034503,11.5215638 L21.1667836,9.85360681 L20.4638596,9.51870031 C20.2667251,9.42474817 20.1538596,9.22190963 20.1830409,9.01366577 L20.4117544,7.37970097 L19.1148538,7.73923787 C18.8283626,7.81870154 18.5310526,7.65074677 18.4666082,7.37318116 L18.3423977,6.83822236 L17.1246784,8.19623757 C16.955848,8.3844762 16.634269,8.24070602 16.6783041,7.99663107 L17.1983626,5.11520921 L16.4021637,5.32272865 C16.1695906,5.38335731 15.9239766,5.28249529 15.8105848,5.07976819 L14.9721637,3.58238506 L14.9721637,3.58015607 L14.9715789,3.58127057 L14.9709357,3.58015607 L14.9709357,3.58238506 L14.1325146,5.07976819 C14.0190058,5.28243956 13.7733918,5.38330159 13.5408187,5.32272865 L12.7445614,5.11520921 L13.2646199,7.99663107 C13.308655,8.24059457 12.9870175,8.38442047 12.8181871,8.19623757 L11.6004678,6.83822236 L11.4762573,7.37318116 C11.4118129,7.65080249 11.1145029,7.81864581 10.8280117,7.73923787 L9.53111111,7.37970097 L9.75982456,9.01366577 C9.78900585,9.2218539 9.67614035,9.42474817 9.47900585,9.51870031 L8.77608187,9.85360681 L11.8394152,11.5216195 C12.1567251,11.6944223 12.2957895,12.0608691 12.1677778,12.3870268 L11.9059064,13.0544437 L14.5307602,12.8409059 C14.6760234,12.8290923 14.7996491,12.940542 14.7953801,13.0793527 L14.7126901,15.7565986 L15.2289474,15.7565986 L15.1461988,13.0792412 C15.1419298,12.9403748 15.2655556,12.8289808 15.4108187,12.8407945 L18.0369006,13.0544437 L17.7750292,12.3870268 C17.6471345,12.0608134 17.7861404,11.6943109 18.1034503,11.5215638 Z" id="Shape"></path>
                        </g>
                    </g>
                </g>
            </g>
        </g>
    </g>
</svg>