<?xml version="1.0" encoding="UTF-8"?>
<svg width="270px" height="343px" viewBox="0 0 270 343" version="1.1" xmlns="http://www.w3.org/2000/svg" xmlns:xlink="http://www.w3.org/1999/xlink">
    <!-- Generator: Sketch 44.1 (41455) - http://www.bohemiancoding.com/sketch -->
    <title>CS Image</title>
    <desc>Created with Sketch.</desc>
    <defs>
        <rect id="path-1" x="0" y="0" width="270" height="343"></rect>
    </defs>
    <g id="Contact-Us" stroke="none" stroke-width="1" fill="none" fill-rule="evenodd">
        <g transform="translate(-435.000000, -498.000000)" id="Customer-Service">
            <g transform="translate(135.000000, 498.000000)">
                <g id="CS-Image" transform="translate(300.000000, 0.000000)">
                    <g id="Globe">
                        <mask id="mask-2" fill="white">
                            <use xlink:href="#path-1"></use>
                        </mask>
                        <use id="Mask" fill="#013365" xlink:href="#path-1"></use>
                        <path d="M215.10019,98.9719059 C216.047504,99.0471327 216.073436,99.0593468 216.454718,99.2389361 C217.415227,99.6925099 218.725551,100.318027 218.461707,99.2448652 C217.969595,98.2013492 216.985369,97.5254354 216.425072,96.5323164 C216.244236,96.2121467 216.433966,95.8682608 216.371711,95.542162 C215.986321,95.2753539 215.722478,95.2071697 213.647304,94.6616954 C212.319193,94.3118803 211.272712,94.0361787 210.383352,91.9995437 C209.944601,90.9945666 211.432797,89.6101291 210.149154,88.9016055 C209.837877,88.7296625 209.446559,89.0290804 208.987056,89.3788955 C207.736023,90.3216173 207.143116,90.3898016 206.86445,90.2830784 C206.499812,89.3492501 207.202407,88.4924998 207.057144,87.5734942 C206.879272,86.4617939 206.108493,85.56354 205.939515,84.4488752 C205.915799,84.3243647 205.856508,84.1464927 205.900976,84.0308758 C206.422734,82.7739133 209.947565,82.7057291 209.98314,82.7057291 C211.305322,82.788736 209.692615,84.5615275 209.716332,85.5072139 C209.72819,85.9785748 210.060218,85.9370713 211.865619,85.6999086 C212.251008,85.6495115 212.840951,85.5724336 213.359744,85.5931853 C216.223484,85.7058376 214.821259,90.3957307 213.759956,91.3443816 C213.765885,91.3443816 213.771814,91.3443816 213.777743,91.3473462 C214.613742,91.3858851 216.27981,91.6260124 218.100034,92.7851452 C219.149479,93.4521654 219.769067,94.5371849 220.631746,95.3880062 C222.431219,97.1637622 224.897711,97.9197184 226.869126,99.4464535 C227.310842,99.7962686 227.456104,100.00675 227.533182,100.119403 C227.536146,100.134225 227.548005,100.152013 227.550969,100.166835 C227.607295,100.460324 226.818729,100.184623 226.246574,99.9830342 C224.977753,99.7014035 224.977753,99.7014035 224.876959,99.7340133 C224.856208,99.7636587 224.83842,99.8021976 224.826562,99.8348075 C224.826562,99.8585238 225.932333,102.129357 227.553934,102.043385 C228.265422,102.004847 229.154782,101.963343 230.008568,104.21046 C230.485858,105.467422 229.317832,106.620626 229.768441,107.883518 C230.714127,108.21851 231.822863,107.456625 232.688507,108.319304 C232.679613,108.360808 232.676649,108.423063 232.647003,108.458637 L228.464046,109.87272 C228.437365,109.884578 228.395861,109.884578 228.372145,109.890507 C225.938263,110.240322 223.474735,110.050592 221.037888,110.355939 C216.223484,110.960704 216.223484,110.960704 215.888492,110.880662 C215.879598,110.818407 215.86774,110.7354 215.858846,110.673144 C216.460647,110.032805 217.261071,109.626664 217.851013,108.962608 C218.325339,108.431957 218.408346,107.664142 218.950856,107.169065 C219.235451,106.908186 219.46372,106.700669 220.207818,106.712527 C220.972668,106.727349 221.479603,106.733279 221.429206,106.069223 C221.366951,105.342912 219.140586,105.405167 218.073353,105.434813 C215.54757,105.502997 215.082138,104.966416 215.002096,104.800402 C214.844976,104.483197 215.271869,104.278644 215.550535,104.14524 C216.605909,103.63534 217.344078,103.217341 217.178064,102.431739 C216.875729,100.967487 215.349421,100.309338 214.877806,98.9549731 L214.877289,98.9549338 C214.829857,98.7800262 214.803176,98.6851611 214.972154,98.6644094 C215.164849,98.6644094 215.41387,98.75631 216.045316,99.0438698 L215.10019,98.9719059 Z M302.181904,179.999483 C301.77281,177.284051 301.431897,175.031064 301.14138,173.127875 C301.615705,175.588439 302.087066,178.054931 302.342016,180.551069 C302.288654,180.358374 302.235293,180.180502 302.181931,179.999665 C302.368993,181.242695 302.561688,182.564877 302.775134,184.011569 C303.270212,188.817079 303.501445,195.261977 303.774182,200.085274 C303.803828,204.825564 303.477729,211.009582 303.252424,215.954425 C303.267247,215.681688 303.270212,215.397093 303.279105,215.097675 C302.887787,220.807368 302.629872,222.909222 302.422355,224.590113 L301.915419,228.263171 L301.826483,228.847184 C301.746441,229.371907 301.616002,230.071537 301.515207,230.596259 C301.559675,230.311664 301.616002,229.935168 301.657505,229.653538 C301.435165,230.934216 301.435165,230.934216 296.828279,240.871335 C296.054535,240.699392 296.054535,240.699392 294.311389,241.514639 C293.801489,225.609913 298.375766,209.681471 294.059404,193.794532 C293.926,194.357794 293.555433,195.110785 293.107788,195.481352 C292.663108,192.436776 292.663108,192.436776 292.242144,191.781614 L294.011971,212.835735 C294.604878,219.52076 293.306412,226.155387 293.439816,232.828554 C293.487249,235.398805 294.071262,237.94534 293.771844,240.527449 C292.974384,247.502998 292.974384,247.502998 293.359774,248.036614 C295.067346,247.674941 295.067346,247.674941 296.042677,247.992146 C294.761999,252.35594 289.627425,263.499624 285.803176,267.744837 C283.366329,270.326946 275.157534,279.303556 272.756261,285.16444 C272.157425,286.631884 266.397336,298.409979 260.198495,304.344976 C257.601563,306.826291 254.091554,307.997282 251.462012,310.431165 C249.164498,312.556736 247.886784,315.479766 245.737497,317.720954 L236.218378,325.310162 L228.69439,330.610749 C226.81784,331.888463 221.105182,335.783861 216.246311,334.277878 C217.316508,331.835101 217.885698,331.248124 218.917356,330.189785 C220.441127,328.621546 220.713864,328.339916 230.194444,311.459858 C232.634256,307.125709 232.936638,301.955561 235.569145,297.701455 C238.403239,293.124214 242.512084,289.415582 244.661371,284.369945 C249.324583,273.407097 248.186202,268.411857 247.356133,264.768445 C246.825481,262.459073 246.825481,262.459073 250.267305,254.368859 C263.18971,256.755309 271.653455,259.026142 277.517303,261.875059 C271.564519,258.97871 263.329043,256.784954 250.267305,254.368859 C251.50648,251.460651 251.50648,251.460651 250.510397,248.442755 C249.004414,247.96843 247.255338,248.546514 245.915369,247.378487 C244.548719,246.192674 245.547767,244.075996 244.148507,242.902041 C243.955812,242.741956 243.659358,242.528509 243.407373,242.504793 C235.640294,241.668795 228.317894,244.523641 220.734616,245.241058 C219.204916,245.383356 211.144348,237.684461 210.071186,235.440308 C207.518722,230.101182 204.527507,224.966609 202.372291,219.434788 C200.934492,215.740979 205.485052,214.229066 205.425761,211.039228 C205.363506,207.241659 202.79029,203.965849 203.134176,200.082309 C203.134176,200.070451 211.517879,185.523482 212.659225,183.6914 C213.044614,183.065883 216.204808,180.617178 218.042819,179.727818 C220.088347,178.740628 220.088347,178.740628 220.485595,171.142527 C220.518205,170.445861 220.334404,169.40531 220.731651,168.827225 C222.050869,166.870633 224.736737,166.903243 226.174536,165.103771 C227.318846,163.654113 226.429486,161.617478 227.606406,160.179679 C227.80503,159.933623 228.148916,159.678673 228.389043,159.468191 C228.397937,159.468191 228.40683,159.468191 228.756645,159.711283 C230.677663,162.011761 231.276499,161.890215 233.049291,161.531507 C233.170837,161.534471 233.292382,161.5404 233.980154,161.599691 C240.232357,163.763801 245.319498,156.871259 251.607275,159.322929 C251.894834,158.836745 252.389912,158.261626 252.793088,157.870307 C257.640102,158.984972 257.640102,158.984972 258.802199,158.095612 C259.670808,158.564008 259.964296,158.721128 261.402095,159.669779 C261.953499,166.799484 261.953499,166.799484 261.233117,167.946759 C260.92777,168.429978 260.533487,169.316374 260.826976,169.808486 C261.772662,171.379689 275.015236,183.421627 276.263305,184.340633 C276.512326,184.236874 276.83546,184.106435 277.084481,184.00564 C277.858225,181.948254 276.971829,179.629988 278.092423,177.625963 C284.119321,177.723793 283.594598,186.113424 289.366546,186.537353 C289.698574,186.193467 290.365594,185.929623 290.83992,185.9148 C291.397252,187.616443 291.681848,187.989974 293.4161,188.135237 C294.738282,184.874249 294.637488,183.018451 293.985291,170.940938 C293.508001,170.754173 292.923987,170.348031 292.568243,169.983394 C292.517846,170.511081 292.357761,171.207746 292.17396,171.705788 C290.688729,170.807534 290.270729,169.013991 288.99005,167.94083 C288.998944,168.198744 289.010802,168.539666 289.019696,168.800545 C288.835895,168.984346 288.595767,169.230402 288.411966,169.417168 C284.478029,166.105783 283.701322,160.17375 283.280358,156.983911 C283.043195,156.915727 282.723025,156.820862 282.482898,156.749713 C282.459182,156.174594 282.506614,155.397886 282.592586,154.825731 C283.633137,154.306937 284.937532,154.804979 285.90397,153.983803 C285.548226,153.645846 285.20434,153.044046 285.094653,152.566756 C285.604552,152.682372 286.283431,152.875067 286.784437,153.044046 C287.122394,152.682372 287.383273,152.006459 287.418847,151.508417 C291.625521,150.408575 291.489153,156.153842 294.08312,157.891059 C294.308425,157.766548 294.613772,157.59757 294.833147,157.47306 C295.031771,151.108205 290.134361,146.948963 287.961357,141.609837 C288.112548,141.393426 288.311172,141.105866 288.459399,140.889455 C287.771627,138.206552 287.771627,138.206552 287.303231,137.456525 C287.436635,137.213433 287.608578,136.893263 287.741982,136.650172 C287.356592,135.618514 287.125358,135.176798 285.788354,135.461393 C284.898993,137.999035 289.384334,141.067327 286.378296,142.804544 C285.672737,141.820319 285.296241,140.628576 284.478029,139.709571 C284.771518,138.007928 284.771518,138.007928 284.507675,136.911051 C283.591634,136.359647 283.271464,136.122484 282.485863,135.203479 C282.592586,134.97521 282.737848,134.663934 282.844571,134.435665 C282.40582,134.234076 281.691367,134.192573 281.237794,134.352658 C280.46405,140.575215 284.913816,145.967702 284.080782,152.202118 C283.813974,152.21694 283.452301,152.237692 283.176599,152.258444 C283.001691,152.762415 282.708203,153.414612 282.444359,153.883009 C281.907778,151.890842 279.337527,150.361142 278.113175,150.097299 C277.437261,150.607198 277.437261,150.607198 278.812805,157.452308 C279.239698,159.563056 280.075696,161.590798 280.081625,163.781588 C280.081625,164.318169 280.034193,165.035586 279.963044,165.569202 L275.940171,156.349501 C272.16039,145.47559 272.16039,145.47559 272.115922,145.401476 L259.412893,130.478011 C258.944497,130.658848 258.399022,131.121315 258.132214,131.545244 C263.729255,142.994275 265.395323,143.732444 267.494213,144.669236 C267.434923,144.930115 267.35488,145.274001 267.292625,145.528951 C271.763142,150.903652 271.763142,150.903652 272.041809,152.264373 C271.694958,151.807835 271.247313,151.191212 270.906392,150.728744 C270.651442,150.796929 270.31645,150.885865 270.064464,150.94812 C270.040748,151.9946 270.040748,151.9946 270.873782,154.887986 C270.224549,155.952254 269.942918,157.194393 269.243288,158.234945 C268.997232,158.202335 268.665204,158.154902 268.416183,158.125257 C268.131588,159.63124 269.07431,161.086827 268.59702,162.601704 C268.570339,162.586881 265.193735,159.657921 264.099822,157.805087 C269.679075,157.040238 270.132649,156.975018 269.151388,153.764427 C267.846993,149.510321 254.637028,134.337835 254.515483,134.237041 C252.111245,132.161867 250.833531,133.934658 249.291973,136.66203 C247.605153,136.656101 246.197,134.254828 244.391598,135.757847 C243.970635,136.104697 243.970635,136.104697 243.914308,141.126618 C240.015946,142.662247 239.941833,142.691892 238.432885,148.917414 C239.846968,151.146744 239.188841,154.458128 236.574122,154.787192 L227.1054,157.926633 C227.066861,157.870307 227.066861,157.870307 226.402805,155.137007 C224.668553,154.745688 223.826625,154.810908 219.785965,155.125149 C219.883794,154.686397 219.883794,154.686397 220.42334,149.904604 C218.431173,149.320591 217.784904,133.822006 217.793798,133.670815 C217.405444,133.246886 216.960764,132.618405 216.673204,132.120363 C222.459975,132.707341 228.062944,134.447523 233.87936,134.862557 C233.950509,134.749905 235.910066,122.209926 223.426413,118.741421 C223.639859,118.587265 223.930384,118.382712 224.14383,118.231521 C223.616143,117.766089 222.922442,117.15243 222.403648,116.695892 C222.510372,116.4528 222.661563,116.126701 222.771251,115.88361 C224.855318,115.936971 224.855318,115.936971 226.147855,116.767041 C226.708152,116.627708 227.443357,116.3609 227.976973,116.132631 C228.057015,115.871752 228.172632,115.521937 228.255639,115.261058 C227.908788,114.789697 227.481895,114.137499 227.194336,113.624635 C228.356433,114.472491 228.780361,114.792661 231.448442,114.923101 C231.688569,114.404307 231.839761,113.636493 231.854583,113.067302 C232.474171,112.868678 233.265702,112.480324 233.802282,112.112722 C232.809163,109.672911 232.809163,109.672911 232.797305,109.5484 C234.1017,109.062217 234.1017,109.062217 236.414037,109.118543 C236.547441,108.88138 236.722349,108.570104 236.858717,108.329977 C235.930818,105.756761 235.666974,104.351572 235.524677,103.592651 C236.280633,102.851517 236.280633,102.851517 239.046543,102.93156 C239.203664,102.715149 239.405252,102.430554 239.562372,102.214143 C240.087095,102.131136 240.786725,102.015519 241.308483,101.926583 C242.052581,101.784285 242.079262,101.75464 242.203772,101.618271 C242.177091,101.541193 242.129659,101.387038 241.127646,100.233834 C238.661154,97.3849165 235.18672,91.3135505 234.985131,90.7443599 C234.5197,89.4221777 237.229284,89.4370003 237.344901,89.4399649 C238.293552,89.5437236 239.568301,93.1070937 239.532727,93.9490214 C239.446755,95.9915854 241.127646,98.3721063 242.559516,100.008529 C244.504251,102.237859 244.664336,102.228965 245.355072,102.196355 C247.391707,102.095561 248.527124,102.946383 248.951052,103.266552 L246.431198,102.824837 C247.868997,103.12129 249.247505,103.50668 250.326596,104.132196 C250.545971,103.998792 250.836496,103.823885 251.049942,103.690481 C251.085517,103.18651 251.085517,103.18651 256.31199,103.554112 L256.347565,103.560041 C256.291239,103.479999 256.211196,103.379205 256.15487,103.302127 C256.303097,102.949347 256.356458,102.563958 256.513579,102.211178 C256.732954,102.154852 256.732954,102.154852 257.868371,102.258611 C257.972129,101.395931 256.463182,99.4541613 256.160799,99.0747009 C255.929565,98.7841766 253.697271,94.6871904 253.676519,94.6545805 C253.738775,94.5597154 253.818817,94.435205 253.872179,94.3433044 C255.86731,94.1861841 255.99775,96.8779811 257.844654,96.9491299 C256.380175,94.0290638 253.697271,92.099152 251.820721,89.5140782 C253.540151,89.7364183 255.120248,90.4568001 256.771493,90.9311256 C256.56694,90.6109559 256.332742,90.3085734 256.163764,89.9706165 C256.246771,89.9172549 256.356458,89.8490706 256.436501,89.7986735 C256.893039,89.9706165 257.302145,90.2403891 257.794257,90.3115379 C254.948305,87.6997833 250.640836,88.10296 247.812671,85.4645246 C244.56947,82.4466288 244.56947,82.4466288 241.139504,74.7922015 C241.246228,74.7773789 241.39149,74.7684853 241.501178,74.7566271 C241.178043,73.8435506 236.757923,70.9205199 235.438705,70.4817689 C235.382379,70.5618113 235.31123,70.671499 235.257869,70.7574705 C235.320124,70.8938391 235.397202,71.0776402 235.456492,71.2140088 C235.563216,71.4274553 235.563216,71.4274553 239.123621,75.1271939 C240.487307,76.5412767 238.960572,78.4178268 239.882542,79.9030585 C242.301602,83.80735 242.301602,83.80735 244.083287,84.9872346 C246.656503,86.6888772 246.760261,87.0179405 246.724687,87.9013716 C245.728603,88.8203772 245.272065,89.235412 247.249409,92.8995763 C248.109124,94.5004247 247.972756,97.9867169 247.694089,98.4817941 C246.333368,98.4729005 245.586306,97.2248316 244.803669,95.9026494 C243.146494,93.1189518 234.276608,84.2964981 233.864538,84.0030092 C234.249927,85.2718298 235.044422,87.9013716 233.452467,88.6425052 C228.495766,90.9340901 223.129959,78.3733588 223.076598,78.2429193 C222.67935,77.2824102 222.664527,77.0244958 223.399732,76.4968087 C225.412651,75.0590096 225.412651,75.0590096 225.907728,71.4067035 C225.925515,71.2614413 226.029274,69.8918266 223.467916,65.9608542 C223.438271,65.9074926 220.008305,59.8687365 219.868972,58.8015042 C219.780036,58.0870515 219.780036,58.0870515 220.313652,56.9160605 C220.032021,56.2520048 219.296817,55.9347997 219.021115,55.2618504 C220.491524,55.7895375 221.238587,57.351847 222.720854,57.8647114 C222.01233,57.0376064 222.01233,57.0376064 221.816671,56.5484583 C222.130911,56.6403588 226.393911,58.5939868 226.788194,59.521886 C226.577713,59.4625953 226.302011,59.3647657 226.094493,59.2847233 C228.421653,60.86482 229.01456,61.0901246 229.325836,61.208706 C229.402914,61.1494153 229.506672,61.0664083 229.577821,61.0071176 C230.550188,61.5911309 230.763635,61.7630739 231.14606,62.0713854 C230.959294,61.9824494 230.698415,61.8816552 230.496827,61.8194 C230.867394,62.1573569 231.240925,62.5101365 234.730182,64.6179203 C239.589053,67.5528091 246.964814,73.9295221 247.584402,75.0590096 C244.948931,73.8465151 243.033842,71.6082918 240.608853,70.099344 C245.461795,73.962132 249.549888,78.6727768 254.358362,82.5948555 C254.43544,82.5414939 254.542163,82.470345 254.619241,82.4169834 C253.486789,81.2726732 252.037132,80.4514973 251.233743,78.9840529 C251.716962,79.3279388 252.155713,79.7311155 252.677471,80.0275689 C249.813731,77.0600702 249.701079,76.9059144 249.401661,76.5057023 C249.671434,76.7339714 249.926384,76.9681696 250.187263,77.2053324 L250.20505,77.2290486 L257.091663,84.1986685 C263.542489,91.138643 263.738148,91.4084156 274.140699,105.608534 C276.568652,109.237124 279.494648,114.279797 281.774374,118.006216 C280.152774,115.711667 278.062778,113.8114 275.456952,112.154226 C278.249543,113.938875 280.143881,115.848035 281.774374,118.006216 L287.697514,129.600509 C290.344843,135.330954 291.249026,137.293475 293.196724,143.044672 C293.173008,143.017991 293.149292,142.994275 293.122611,142.964629 C293.214512,143.85399 293.214512,143.85399 298.752261,162.234101 C298.725581,162.186669 298.687042,162.112556 298.663325,162.062158 C300.925053,175.570276 301.029004,176.185084 302.181904,179.999483 Z M55.3592628,48.2252321 C55.5134186,48.2519129 55.5993901,48.4505367 54.816753,48.9930465 C53.3997057,49.9802363 52.9313093,49.7816126 52.9253802,49.7756835 C52.8986994,49.7549317 52.9550256,49.6986056 53.0113517,49.6482085 C53.0143163,49.6422794 53.9985416,48.8211035 54.0845131,48.7618128 C54.1764137,48.6995576 54.7367106,48.4149623 55.1132065,48.2726647 C55.2317878,48.2370903 55.3059012,48.2163385 55.3592628,48.2252321 Z M53.0691601,47.3278676 C53.0424793,47.3990164 52.5177568,47.7340088 52.4169626,47.7873704 C52.2035162,47.9000227 51.9722825,47.9800651 51.9218854,47.9504198 C51.8892755,47.9267035 51.9871052,47.8110867 52.0938284,47.7488315 C52.1827644,47.6925053 52.7163806,47.4405199 52.9594724,47.3486194 C52.9980113,47.3337967 53.0276567,47.3011868 53.0691601,47.3278676 Z M57.2266229,45.4649543 C56.8323398,45.5538904 56.500312,45.7762304 56.1356743,45.9244571 L54.8549955,46.4254634 C57.1584386,45.1981463 59.66347,44.2969279 59.6901508,44.2909988 C59.796874,44.2554244 59.796874,44.2554244 59.8443065,44.2702471 C59.7375833,44.353254 59.058705,44.7119627 59.0527759,44.7178917 C58.4569045,45.0291678 58.0863378,45.1833236 58.0477988,45.1981463 C57.6386931,45.3700893 57.6386931,45.3700893 57.2266229,45.4649543 Z M54.5514272,46.9905036 C54.5366046,47.0379362 54.5128883,47.0853687 54.5217819,47.1357658 C54.3587325,47.2602762 51.4238437,48.6921462 51.2044682,48.6476782 C51.5691059,48.3275085 53.7094995,46.9074967 56.4576227,46.0181364 C56.5109843,46.0003492 56.5939913,45.9884911 56.6562465,45.9795975 C56.6206721,46.0092428 56.5643459,46.0418527 56.5228425,46.065569 C56.2856797,46.1871149 55.8469287,46.3738805 55.5237944,46.5072846 C54.5899662,46.9045321 54.5603208,46.9282484 54.5039947,46.9786455 C54.5188174,46.9786455 54.5366046,46.9875391 54.5514272,46.9905036 Z M57.3366071,46.727253 C57.3336426,46.7302175 56.6191898,47.160075 56.5391474,47.1689686 C56.7852037,46.8250826 56.7852037,46.8250826 56.6962677,46.7776501 C56.6962677,46.7746855 56.6903386,46.771721 56.6903386,46.7657919 C56.7525939,46.682785 57.719032,45.9712968 58.2733999,45.7874957 C58.3445487,45.7697085 58.3534423,45.772673 58.368265,45.7845311 C58.3653004,45.7963893 58.3653004,45.817141 58.2645063,45.906077 C58.1014569,46.0572683 57.9235849,46.1936368 57.7635,46.3448281 C57.6715994,46.427835 57.5945216,46.5256647 57.502621,46.6057071 C57.4551885,46.6531396 57.3958978,46.6916786 57.3366071,46.727253 Z M50.4636311,51.7847483 C50.5999996,51.8025355 50.4221276,51.9715139 50.2353619,52.1078825 C49.719533,52.4784493 48.4862868,52.9675974 48.3677054,52.9735265 C48.3647409,52.9646329 48.3588118,52.9587038 48.3588118,52.9557393 C48.4062443,52.887555 49.1681296,52.3183644 49.8232917,51.9922657 C49.8232917,51.9922657 50.0397027,51.8855425 50.2887235,51.8114291 C50.3480142,51.7966064 50.4043404,51.7758547 50.4636311,51.7847483 Z M51.7028063,54.6132103 C51.6939127,54.6902882 50.5169927,55.6893363 50.5080991,55.6952653 C49.5742708,56.3267111 48.5277902,56.7565686 47.5909975,57.3850498 C48.0653229,57.2723975 48.5070385,57.0293057 49.0110093,57.0115185 C49.4675476,56.9966958 48.7708821,58.3811333 48.5337193,58.6242251 C47.4427707,59.7181382 43.4525077,62.0601202 43.0048631,61.5917238 C42.9752177,61.5591139 42.9574305,61.4998232 42.9485369,61.4583197 C42.909998,61.1944762 43.0730474,60.960278 43.0730474,60.7023635 C43.0789764,60.5571014 42.9900404,60.4355555 42.9603951,60.2991869 C42.8951753,59.9464073 42.7084097,59.6410603 42.6194736,59.3001389 C42.6016864,59.2556709 42.6224382,59.1874866 42.6431899,59.1459831 C42.8151329,58.7428064 44.2796128,57.9601694 44.5760662,57.9157014 C44.5612435,58.312949 44.0009466,58.4671048 44.1195279,58.9266076 C44.2203221,58.9325366 44.2410738,58.9355012 44.4189459,58.8406361 C44.8428743,58.6153315 46.4200065,57.4443405 46.5267297,57.275362 C46.5860204,57.1804969 46.6749564,57.053022 46.384432,56.8514336 C46.1976664,56.7239587 45.9842199,56.8247528 45.7915252,56.7624976 C45.7885607,56.747675 45.7826316,56.7269232 45.7796671,56.7121005 C46.1028013,56.2585268 48.4773932,55.1290393 49.2125976,54.9659899 C49.808469,54.844444 50.4073049,54.7258626 51.0031763,54.6072813 C51.062467,54.5954231 51.1454739,54.5806005 51.2047646,54.5717069 C51.5694023,54.5183453 51.6375866,54.5687423 51.7028063,54.6132103 Z M40.2499215,54.4424532 C40.2795668,54.4187369 40.3151412,54.3831625 40.3388575,54.3564817 C39.597724,54.7181549 39.0492851,55.4296431 38.171783,55.5422954 C39.9297518,54.0985672 48.1711568,49.6695532 49.4132966,49.1151853 C49.4755518,49.0885045 49.5704169,49.0588591 49.6326721,49.0736818 C49.4607292,49.2960219 49.2887862,49.3938515 49.1702048,49.4620358 L43.3478597,52.7793495 C43.4308666,52.687449 43.4308666,52.687449 45.1502965,51.6024294 C43.4516184,52.4384281 41.984174,53.6657452 40.2499215,54.4424532 Z M40.2644477,66.7218502 C40.3415256,66.7218502 40.9344324,67.0153391 41.2219922,67.5133808 C41.2249568,67.5252389 41.8830834,68.7406979 41.6162753,69.0579031 C41.6103462,69.0667967 40.6290854,70.0361994 38.2663517,70.4749504 C37.8928204,70.5460993 37.51336,70.5846382 37.4422112,70.5579574 C37.2020839,70.4749504 37.2435874,70.1814615 37.0627508,70.0569511 C36.9649212,69.9887668 36.8997014,69.9858023 36.3779434,70.0954901 C36.0459156,70.1636743 35.9480859,70.1844261 35.8413627,70.1696034 C35.8324691,70.1666389 35.820611,70.1518162 35.8087528,70.1429226 C35.8710081,69.9413343 36.2830783,69.6863843 37.6497286,68.8503857 C38.4738691,68.3464149 39.0400951,67.5548843 39.7960513,66.9679065 C39.988746,66.8167153 40.0925047,66.7692827 40.1873698,66.7337083 C40.2081216,66.7277792 40.2407314,66.7218502 40.2644477,66.7218502 Z M43.5764253,56.7556792 C43.8284107,56.7764309 43.680184,57.0135937 43.0783835,57.5501744 C42.9360859,57.6776493 41.6761589,58.7834206 41.249266,58.9108955 C40.9883869,58.9879734 41.1810817,58.5759032 41.2611241,58.4217474 C41.3856345,58.1667975 41.3767409,58.1519748 41.3470956,58.0630388 C41.2225851,58.0126417 41.0951102,58.0778614 40.9705997,58.0748969 C40.9617061,58.0719324 40.9557771,58.0630388 40.949848,58.0571097 C40.9972805,57.9414929 41.904428,57.1588558 43.1702841,56.8179344 C43.4104114,56.7556792 43.5230637,56.7527147 43.5764253,56.7556792 Z M99.8821192,33.8614711 C98.776348,33.8614711 98.776348,33.8614711 98.5036109,33.716209 C98.559937,33.6924927 104.097687,31.2052485 111.805476,30.3455336 C112.851956,30.247704 113.178055,30.2506685 114.058522,30.2625267 C116.204844,30.2951365 116.204844,30.2951365 116.367894,30.2803139 C115.78981,30.1320872 115.78981,30.1320872 113.868791,29.9897895 C113.833217,29.9838605 113.794678,29.9808959 113.765033,29.9749669 C113.756139,29.9720023 113.741316,29.9779314 113.735387,29.9660732 C113.756139,29.9275343 113.794678,29.9542151 113.827288,29.9453215 L113.833217,29.9453215 C115.40442,29.6459036 115.40442,29.6459036 118.695053,29.465067 C118.700982,29.4621024 118.706911,29.4621024 118.706911,29.4621024 C119.056726,29.2279042 119.056726,29.2279042 122.074622,29.0589258 C123.716974,28.9788834 127.837676,28.9848124 129.708298,29.0500322 C131.042338,29.0974647 132.216293,30.0075767 133.600731,29.7585559 C133.989085,29.687407 136.013862,29.3405565 137.617675,29.4324571 C137.641391,29.4324571 140.036735,29.5866129 140.86384,29.6992652 C140.792691,29.7170524 140.691897,29.7437332 140.60889,29.7644849 C140.561457,29.9156762 140.505131,30.1320872 140.475486,30.292172 C140.665216,30.3781435 140.920166,30.5056185 141.106931,30.6004836 C142.00815,34.0363787 145.76125,32.6045087 147.608155,34.4128745 C147.510325,34.4514134 147.379886,34.498846 147.282056,34.5373849 C147.249446,34.6174274 147.207943,34.7211861 147.172368,34.7982639 C147.714878,35.6401917 147.76824,35.7261631 154.094556,39.4644407 C156.030396,40.6028219 156.682594,40.9911758 155.742837,41.9487204 C155.060994,42.6335278 154.811973,42.9625911 155.37227,44.1750855 C155.852524,45.209708 155.828808,46.425167 156.522509,47.385676 C157.616422,48.8886949 159.338817,49.7335871 160.468304,51.1951024 C161.245012,52.2000795 160.619495,52.6536533 160.592815,52.674405 C159.335852,53.5637653 157.853585,54.0114099 156.495828,54.7140045 C153.17555,56.4215762 149.351301,56.6617035 146.025094,58.3455589 C144.655479,59.0451889 144.536897,59.8663649 144.335309,61.3545611 C144.136685,62.8012537 144.136685,62.8012537 136.514868,65.1076613 C134.095808,65.8428658 134.05134,65.8547239 133.660022,66.509886 C132.918888,67.769813 133.600731,69.1453569 133.348746,70.4467874 C133.333923,70.5357234 131.587812,79.3759643 130.565048,80.5202745 C129.948425,81.2139755 129.740907,81.4481737 120.070597,79.5894107 C117.930203,48.1001288 116.504262,37.4989546 114.743329,32.0975733 C116.702886,38.2400881 118.125863,51.1654571 120.070597,79.5894107 C116.198915,78.2820512 108.126489,64.6125841 107.93083,63.9781738 C107.503937,62.6352398 108.05534,60.3406904 108.618601,59.5076563 C109.64433,57.9898148 111.713575,58.0491055 112.851956,56.7032069 C112.872708,56.6824552 114.150422,54.4531255 111.378583,53.2198793 C109.756983,52.4935684 108.663069,53.9135803 107.299384,54.23375 C106.851739,53.4481484 107.183767,52.5232138 106.854704,51.7168605 C106.635328,51.1891734 105.885301,51.1447054 105.772649,50.5221532 C105.743003,50.3591038 105.740039,50.3146358 106.36852,49.1347512 C107.933794,46.2324722 103.128284,40.8933462 103.074923,40.8459137 C102.348612,40.2174324 102.215208,40.1018156 91.883806,40.8607363 C91.8304444,40.8666654 87.6652739,40.1492481 89.319484,37.922883 C89.5773985,37.5730679 95.5865092,35.8328864 95.6398708,35.8180637 C96.828649,35.497894 99.037227,34.8990581 99.8821192,33.8614711 Z M70.7030988,66.4627499 C70.6912406,66.4953598 69.5143206,69.4569294 68.6160667,68.8847743 C68.251429,68.6565052 67.3324234,67.1890608 67.5606925,66.6228347 C67.9668337,65.6415739 70.1665181,65.0575607 70.1872698,65.0545962 C70.9224743,64.9389793 71.0973818,65.4133048 70.7030988,66.4627499 Z M86.3709583,35.3046064 C83.7088066,36.0042364 83.6257997,35.9716266 83.311559,35.8204353 C83.9430048,35.05855 90.0855196,33.5673894 90.6102422,33.6326091 C91.3602693,33.7245097 91.6152193,33.6444672 91.9116727,33.5555312 C91.8108785,33.5110632 91.6863681,33.410269 91.6241129,33.321333 C93.1656706,32.7284262 100.313163,31.5070381 100.387276,31.4981445 C100.405063,31.4922154 103.378491,31.1246132 105.166105,31.1216487 C103.3192,31.5930096 101.427827,31.8687113 99.5898162,32.360824 C100.313163,32.3104269 100.428779,32.2956042 102.349797,32.0199025 C101.967373,32.1325548 94.5530726,34.4389624 94.5174982,34.4508205 C95.0896533,34.3500264 95.0896533,34.3500264 95.3534968,34.3707781 C94.3336971,35.0466919 92.8336428,35.4380104 89.5400453,36.2977253 C89.599336,36.3184771 89.6704848,36.3421933 89.7238465,36.3599805 C89.6912366,36.662363 88.4461322,37.9934389 84.8946203,38.8501893 C84.3017135,38.9895224 81.6692071,40.6585551 81.3727537,41.0735899 C81.5091223,41.1061998 81.6899588,41.1477032 81.8233629,41.1862422 C82.1850361,42.167503 78.2066312,44.0974147 76.9644914,43.8483939 C77.3558099,43.5519404 77.3558099,43.5519404 77.4921785,43.2228772 C75.6245219,42.8137714 74.1185386,44.0173723 72.4198605,44.3553292 C70.1164174,44.8059384 69.864432,44.7940803 69.5116525,44.7762931 C69.4790426,44.7288605 69.4345746,44.6666053 69.4049292,44.6191727 C70.5166296,43.5222951 72.1500879,43.4333591 73.4070504,42.606254 C73.4633765,42.2030774 73.5908515,41.3641142 75.802394,41.3107526 C76.024734,41.5597735 76.3626909,41.9362693 79.276828,40.3502435 C77.5870436,40.9787248 77.3943488,40.9994765 76.884449,41.0646963 C76.8963071,41.0142992 76.9200234,40.9431504 76.934846,40.8927533 C76.6028182,40.6852359 76.190748,40.7504557 75.8409329,40.5962999 C75.9950887,40.4658604 79.9557064,38.1683464 81.4824415,38.6308137 C81.9745541,38.1831691 82.2472913,37.2019083 82.2472913,37.006249 C82.5081703,36.8046607 82.7127231,36.6445758 83.3856724,36.5022782 C86.2701641,35.8915841 88.9767838,34.9933303 92.3978563,33.8579137 C91.5737158,34.0891474 86.4628589,35.491372 84.8797976,35.8649033 C85.3808039,35.6811022 85.8818102,35.5061947 86.3709583,35.3046064 Z M57.6289102,47.6797578 C57.6437328,47.6590061 57.6733782,47.6412189 57.6941299,47.6263962 C57.9372217,47.4870631 60.2969909,46.787433 60.3147781,46.7844685 C60.4659694,46.7518586 60.4659694,46.7518586 60.5875153,46.781504 C60.5282246,46.8852627 60.4985792,46.9089789 60.1072607,47.2321132 C58.2781431,48.7469901 58.2781431,48.7469901 57.5814776,49.4080812 C57.5903712,49.3962231 57.6022293,49.3814004 57.6051939,49.3665778 C57.6585555,49.2213156 57.6200166,49.1560958 57.6111229,49.1353441 C56.096246,50.4545618 56.096246,50.4545618 55.8679769,50.5820368 C55.53002,50.7688024 52.8500811,51.7619214 52.8382229,51.7589568 C52.8352584,51.7530278 52.8263648,51.7382051 52.8174712,51.726347 C52.971627,51.2312698 54.9667585,50.1314276 55.7138211,49.7163928 C53.3392292,50.4960653 53.3392292,50.4960653 53.1969316,50.4515973 C53.1850734,50.4100938 53.1850734,50.4100938 53.2917967,50.1966473 C53.1583926,50.1136404 53.0309177,50.2618671 52.9034427,50.1936828 C53.7246187,49.7312155 54.7118085,49.6304213 55.4529421,49.0049046 C55.4588711,48.9871174 55.4588711,48.9574721 55.4588711,48.9367203 C55.3877223,48.9396849 55.313609,48.9456139 55.2424601,48.9456139 C55.8857641,48.2815583 56.5112808,48.213374 56.573536,48.2459839 C56.573536,48.3556716 56.5112808,48.4446076 56.4816354,48.5424373 C56.4045575,48.7292029 56.3037634,48.9782238 56.2266855,49.167954 C56.9915353,48.5750471 57.0211806,48.5513309 57.2435207,48.2963809 C57.3976765,48.1125798 57.4866125,47.8813462 57.6289102,47.6797578 Z M83.5454608,66.6364716 C83.5069218,66.6364716 79.9643035,67.7629946 80.699508,69.8470621 C81.5888682,72.3787743 84.4941117,72.1682923 86.0564212,73.7898925 C86.776803,74.5399197 85.2826778,77.9135596 84.384424,78.1892613 C84.2332327,78.2366938 84.0108926,78.0855026 83.7055456,77.8750206 C82.1195198,76.7988947 81.2360887,76.4431506 78.446462,76.1407681 C82.0216902,79.4729045 82.0216902,79.4729045 82.2351367,79.5766632 C82.653136,79.7782516 82.653136,79.7782516 82.7183558,80.0272724 C81.0760038,80.9373844 73.0361871,79.2624226 71.9956357,78.3463816 C73.8929375,77.6348934 73.8929375,77.6348934 74.2753624,77.2346812 C69.5706467,75.1684009 69.5706467,75.1684009 66.9292468,76.0636902 C63.4666708,77.2346812 62.3016089,77.0923836 61.9399357,76.7662848 C61.7057375,76.5587675 61.7294538,75.1654364 62.5565589,74.7266853 C64.4271799,73.7335664 66.5616445,73.8462187 68.5360243,73.2562764 C75.1172901,71.2818966 75.5945801,66.5593937 75.5945801,66.5119612 C75.5767929,64.4071419 73.3652504,64.5316523 72.4047414,63.3843776 C71.6428561,62.4713011 71.3019347,61.2914165 70.4866878,60.4198434 C70.4777942,60.4079853 68.9510591,59.0887676 68.3759394,58.7834206 C68.1417412,59.1658455 67.7889617,59.7409651 65.4202989,59.9988796 C62.6247431,60.3042266 62.7077501,60.6570062 62.8381896,61.1935868 C61.9755102,61.6115862 55.5661873,62.9219103 53.7074244,61.6471606 C51.8308742,60.3694463 61.8154253,52.0005664 65.1653489,51.2120003 C65.820511,51.0904544 68.0201953,50.7169231 68.7227899,50.9955893 C68.8235841,53.5243369 68.9480945,53.8148613 69.0607468,54.0935275 C69.3364485,54.1083502 69.3512712,54.1113147 71.0884882,53.4591172 C72.7990244,52.8158133 75.1439709,51.9323821 76.231955,52.0183536 C77.4177687,52.1132187 77.3080809,53.5184079 78.1737249,53.9423363 C78.9919363,54.3425484 79.8842611,54.0875984 80.7261888,54.2210025 C82.6234907,54.529314 86.5337112,58.2320172 86.6256118,59.0294769 C86.6641507,59.3348239 86.077173,59.5957029 84.9032174,60.1144964 C82.2321721,61.3032746 81.9327542,61.5285792 81.6214781,61.7746355 L92.7503394,64.2974541 C92.7651621,64.4842198 92.7118004,64.7332406 92.6554743,64.9111127 C92.631758,64.9704034 90.3609248,70.7838549 88.8371543,71.0743792 C88.29168,71.1751734 87.6839505,70.3955009 87.1058663,69.6395447 C87.0791855,69.6069348 84.6482675,66.544571 83.5454608,66.6364716 Z M47.1777414,50.7845145 C47.1925641,50.6807558 48.3932004,50.1204588 48.6244341,50.0344873 C48.6511149,50.0226292 48.6777957,50.0167001 48.7044765,50.0137356 C48.7044765,50.0137356 48.7133701,50.0196646 48.7163346,50.0226292 C48.6837247,50.0670972 48.5058527,50.1797495 48.4050585,50.2420047 C47.9010877,50.5592099 47.2726065,50.8586278 47.1777414,50.7845145 Z M108.749634,57.0494645 C108.278273,57.1384006 107.827664,57.002032 107.572714,56.8449117 C106.383936,56.1186008 108.559904,54.8527447 109.318824,54.6896953 C109.920625,54.6185465 110.137036,54.7638087 110.137036,54.7638087 C110.157788,54.7786314 110.166681,54.8112412 110.166681,54.831993 C110.166681,54.9090709 110.169646,55.0424749 110.285263,55.1847725 C110.466099,55.4071126 110.774411,55.4901196 110.922637,55.7450695 C110.996751,55.8577218 111.070864,55.9911258 111.00268,56.1956787 C110.892992,56.5158484 110.448312,56.7115076 110.448312,56.7115076 L108.749634,57.0494645 Z M75.4220442,51.1782046 C75.3835053,51.1989563 71.6363341,52.9776768 70.4712722,52.0290259 C70.1125635,51.7325725 69.6352735,50.7009146 71.1649732,50.4430001 C72.9140483,50.1761921 75.2827111,50.8787867 75.4605832,51.1485593 C75.4487251,51.1574529 75.4368669,51.1722755 75.4220442,51.1782046 Z M63.4797148,43.2125013 C64.1882385,42.9456932 64.3453588,42.8597217 64.3038553,42.7470694 C64.0133309,42.7233531 63.7494874,42.9397641 63.4500695,42.8537927 C63.669445,42.7085305 65.4452009,41.8932836 66.7851704,41.4574971 C66.883,41.4278517 66.883,41.4278517 66.9185744,41.4367453 C66.7080925,41.7065179 66.2930577,41.6857662 66.1270438,42.0148295 C66.3138095,42.017794 66.4738943,41.8488156 66.6695536,41.9140353 C66.6695536,42.1719498 65.1783929,43.4674512 64.7188901,43.7135076 C64.6269895,43.7639046 63.3463108,44.2797336 63.2484811,44.1522586 C63.3107363,43.8795215 63.6783386,43.8884151 63.7494874,43.6186425 C63.7494874,43.6156779 63.0024248,43.5563872 62.2494331,43.7994791 C62.1812488,43.8231953 62.1071355,43.8469116 62.0300576,43.8558052 C62.1960715,43.7283302 62.9964957,43.3963024 63.4797148,43.2125013 Z M57.0324459,50.3113748 C57.1777081,50.2135452 59.5641581,48.8261432 60.4209084,48.5889805 C60.4801991,48.5771223 60.5632061,48.5593351 60.6254613,48.5622997 C61.1205385,48.6067677 60.0414481,49.7125389 59.513761,50.1661126 C58.5947554,50.9487497 57.5245586,51.1888769 57.0976656,50.9250334 C56.5996239,50.6167218 56.7122762,50.5396439 57.0324459,50.3113748 Z M71.6381128,42.3166191 C71.5758576,42.3818388 71.5047088,42.4352004 71.43356,42.4855975 C70.5916323,43.0725753 70.3011079,43.1852276 69.6844848,43.3601351 C68.4453095,43.7069856 66.1418665,44.0894105 65.9254555,44.0390134 C66.0440369,43.9649001 66.3908874,43.8433542 66.9541488,43.6684466 C67.748644,43.4223903 68.5638909,43.2623055 69.352457,43.0221782 C70.0372644,42.8146608 70.7042846,42.5448882 71.3920565,42.3403353 C71.4246664,42.3284772 71.4632053,42.3195836 71.4987797,42.3077255 C71.5313896,42.2988319 71.5758576,42.2899383 71.6173611,42.2869737 C71.6203256,42.2929028 71.6321838,42.3077255 71.6381128,42.3166191 Z M65.9088541,43.5237774 C66.0600453,43.1532106 66.3209243,43.055381 67.0917032,42.7737502 C67.7142554,42.5425166 68.0581414,41.9525743 68.5769348,41.5879366 C68.7251616,41.4812133 68.8526365,41.4219226 68.938608,41.3833837 C69.0868347,41.3389157 69.1401963,41.3211285 69.2587777,41.3596674 C69.326962,41.3804192 69.3566073,41.4248872 69.3566073,41.4248872 C69.3684655,41.4337808 69.37143,41.4426744 69.37143,41.451568 C69.415898,41.5227168 69.37143,41.5938656 69.37143,41.6590854 C69.3803236,41.801383 69.6026637,41.7331987 69.6026637,41.8814254 C69.5967346,42.0089004 69.5374439,42.0652266 69.2350614,42.2075242 C68.5561831,42.5276939 66.1875203,43.5178483 65.9325704,43.5474936 C65.9266413,43.5415646 65.9207122,43.5297064 65.9088541,43.5237774 Z M71.4065827,39.9642612 C70.9026119,40.2132821 70.5112934,40.4000477 70.3956766,40.340757 C70.3956766,40.340757 70.2059464,40.1510268 70.7632788,39.8723606 C71.2524269,39.6381624 72.9244242,39.1015818 72.9422114,39.0956527 C72.9926085,39.0837945 73.0518992,39.0571137 73.1141544,39.0660073 C73.0874736,39.1104754 73.07858,39.1312271 71.4065827,39.9642612 Z M76.1978628,39.0117564 C75.9577356,38.9139267 75.73836,38.9732174 75.0179782,39.1896284 C74.8549289,39.237061 73.4082362,39.669883 73.2689031,39.5898405 C73.2748321,39.5809469 73.9418523,38.8279552 75.2669991,38.5285373 C75.649424,38.4455303 76.5417488,38.2409775 76.8678476,37.9682403 C76.642543,38.0038147 76.4350256,38.1075734 76.2037919,38.0690345 C76.6306848,37.7933328 80.9796565,36.1598745 82.1802928,35.8634211 C82.2366189,35.8515629 82.325555,35.8604565 82.3907747,35.8604565 C82.1951155,36.1272646 81.8601231,36.2162006 81.6466766,36.4652215 C81.7237545,36.8268947 81.3472587,36.8921144 81.199032,37.1055609 C81.2909325,37.1856033 81.4095139,37.155958 81.5162371,37.1796742 C81.4984499,37.2834329 81.4925209,37.3219719 80.5023665,37.7844392 C80.3808206,37.8407654 80.2533456,37.8970915 80.1377288,37.9682403 C80.1495869,37.983063 80.1525514,38.0038147 80.161445,38.021602 C80.683203,38.1372188 80.683203,38.1372188 80.7187775,38.1727932 C80.683203,38.2113321 80.6179833,38.2558002 80.5705507,38.2795164 C79.8679561,38.6352605 79.0764255,38.7301256 78.3560437,39.0473308 C77.1998754,39.5631597 76.1771111,40.3428322 74.9824038,40.7726897 C74.4932557,40.9535262 73.9626041,40.8349449 73.4734559,40.9772425 C72.2372452,41.3329866 72.2372452,41.3329866 72.1838836,41.3122349 C71.9971179,41.2292279 72.0386214,40.713399 72.4714434,40.4436264 C72.5959538,40.3665485 73.0880665,40.1442084 75.0239073,39.5275853 C75.7353955,39.3022807 75.9695937,39.2222383 76.1771111,39.0947633 C76.1889692,39.0680825 76.1978628,39.0354726 76.1978628,39.0117564 Z M76.6609231,45.9383905 C73.4503326,49.1223002 61.3313169,50.3674045 61.2216291,50.370369 C60.8866368,50.3762981 60.4567793,50.3851917 61.5210471,49.1697327 C62.0635568,48.5501451 62.8936264,48.3426277 63.4894978,47.7912243 C63.5369303,47.7378627 64.5033684,46.5046165 64.200986,46.3089572 C64.0438656,46.2081631 63.2938385,46.4660775 62.7572578,46.6528432 C62.2710742,46.8158926 62.2562515,46.8158926 62.0101952,46.8247862 C62.0013016,46.5816944 62.9499525,45.5885754 63.252335,45.4670295 C63.6140082,45.3721644 64.1891278,45.2980511 64.3610708,45.2772993 C64.9302614,45.2180087 65.4846293,45.4314551 66.0627134,45.3632708 C66.5518616,45.3039801 66.9876481,44.9986331 67.5005125,45.0253139 C67.7109944,45.0371721 68.6863262,45.6597242 66.72084,46.2111276 C66.3473087,46.3178508 66.1872239,46.3712124 66.0923588,46.4809002 C65.8789123,46.723992 66.6674784,47.6607848 67.67542,47.2546436 C68.8049075,46.7981054 74.2477923,44.9185907 75.3654216,44.9512006 C75.3832089,44.9512006 77.5354607,45.075711 76.6609231,45.9383905 Z M298.946142,161.914228 C298.999504,162.127675 299.070652,162.415234 299.118085,162.631645 L299.983729,166.491469 C299.968906,166.429214 299.951119,166.361029 299.933332,166.301739 C300.238679,168.593324 300.692253,170.861192 301.139897,173.129061 C299.82068,164.650493 299.331531,162.907347 297.374939,155.848791 C297.022159,154.751914 296.690132,153.729149 296.378855,152.762711 C298.406597,159.690828 298.474781,159.978387 299.328567,163.627729 C299.207021,163.055574 299.073617,162.486383 298.946142,161.914228 Z M295.851168,150.973615 C296.043863,151.622848 296.218771,152.209826 296.378855,152.764194 C294.994418,148.483406 294.007228,145.444759 293.194946,143.04645 C293.274988,143.147245 293.331314,143.286578 293.5833,143.953598 L293.559583,143.873556 L295.614006,149.95678 C295.528034,149.681078 295.430205,149.405376 295.332375,149.135604 C295.513211,149.992354 295.851168,150.798707 296.109083,151.628777 C296.017182,151.41533 295.934175,151.195955 295.851168,150.973615 Z M203.774219,99.3071204 C203.264319,99.1737164 202.712916,99.271546 202.220803,99.0254897 C201.589358,98.7112491 201.452989,98.3584695 201.352195,98.1035195 C201.239543,97.3979604 201.524138,96.9354931 201.785017,96.668685 C202.155584,96.2921892 202.538009,95.9038352 204.150715,95.1123046 C204.257438,95.058943 204.417523,94.9907587 204.506459,94.9018226 C204.162573,94.8721773 204.073637,94.8217802 203.919481,94.7358087 C201.470776,93.372123 205.36321,92.3997558 205.526259,92.3612169 C205.582585,92.3582523 205.591479,92.3671459 205.64484,92.4205075 C205.713025,92.50055 205.870145,92.6576703 206.305931,92.8592586 C206.901803,93.1319957 207.551036,93.2713288 208.146907,93.5559241 C208.366283,93.6596828 208.650878,93.8138386 208.846537,93.9502072 C209.249714,94.2170152 209.756649,94.676518 209.931557,95.3376092 C210.109429,96.0075939 209.88116,96.5471391 209.741827,96.8673088 C209.412763,97.6173359 209.445373,97.8782149 209.931557,98.5985968 C210.230975,99.0254897 210.506676,99.4286663 210.746804,100.080864 C211.203342,101.361543 211.310065,102.197541 211.052151,102.55625 C210.598577,103.193625 209.810011,102.977214 209.223033,103.270703 C208.719062,103.525653 208.283276,103.878432 207.80895,104.183779 C205.935365,105.38738 203.359184,105.669011 202.804817,104.999026 C202.478718,104.601778 202.425356,104.139311 202.588406,103.166944 C202.59137,103.143228 203.059767,100.724168 203.711964,99.4553471 C203.73568,99.4108791 203.759397,99.354553 203.774219,99.3071204 Z M42.0911937,53.5928177 C38.7857381,55.7806439 38.6197241,55.7806439 38.4626038,55.7836084 C38.6197241,55.576091 41.7176624,53.7795833 42.0971227,53.5839241 C42.1030518,53.5839241 42.1030518,53.5809595 42.1060163,53.5809595 C42.1030518,53.5839241 42.0941582,53.5868886 42.0911937,53.5928177 Z M285.871953,172.605524 C284.985558,172.901978 281.683067,171.176619 281.190954,170.325797 C280.95972,169.92855 281.069408,169.60838 281.451833,169.587628 C281.522982,169.581699 281.522982,169.581699 282.35898,169.901869 C282.830341,170.076777 283.334312,170.064918 283.814567,170.180535 C283.915361,170.210181 284.191063,170.296152 284.454906,170.586676 C284.454906,170.589641 285.92828,172.486943 285.940138,172.50473 C285.951996,172.519553 285.943102,172.546234 285.951996,172.566985 C285.92828,172.578843 285.898634,172.596631 285.871953,172.605524 Z M254.527341,149.382846 C254.091554,148.911485 254.162703,146.94007 254.462121,146.394595 C254.960163,145.466696 256.368316,144.93308 256.946401,144.915293 C257.308074,144.953832 257.675676,145.072413 257.820938,146.092213 C257.918768,146.735517 257.877264,147.390679 257.963236,148.036947 C258.055136,148.641712 258.283406,149.210903 258.369377,149.815668 C258.390129,149.975753 258.41681,150.192164 258.41088,150.355213 C258.369377,151.801906 256.56694,152.37999 256.211196,152.291054 C256.077792,152.261409 255.77541,152.181366 255.650899,151.748544 C255.502672,151.217892 255.713154,150.675383 255.600502,150.141767 C255.478956,149.551824 254.832688,149.714874 254.527341,149.382846 Z M245.546877,149.097658 C245.422367,149.222168 245.333431,149.30221 245.152594,149.314069 C244.627872,149.340749 243.356087,148.79824 243.015165,148.41285 C242.4104,147.710256 243.969745,147.502738 244.942112,147.597603 C245.837402,147.698398 246.350266,147.944454 246.282082,148.234978 C246.282082,148.276482 245.558736,149.091729 245.546877,149.097658 Z M254.275355,141.511118 C254.221994,141.196878 254.367256,141.069403 254.515483,140.933034 C254.728929,140.746268 255.019453,140.491318 255.019453,139.803547 C255.019453,139.183959 254.806007,138.579194 254.915695,137.953677 C254.918659,137.918103 254.933482,137.867706 254.942376,137.832131 C254.963127,137.704656 255.01056,137.654259 255.025382,137.633508 C255.037241,137.630543 255.055028,137.630543 255.063921,137.627578 C255.339623,137.805451 255.784303,139.762043 255.787268,139.782795 C256.065934,141.069403 256.356458,143.550718 256.036289,143.704874 C255.941424,143.66337 254.545128,142.018054 254.53327,142.003231 C254.411724,141.857969 254.293143,141.623771 254.275355,141.511118 Z M291.661985,177.036317 C291.581943,177.012601 291.412964,176.944416 291.238057,176.739864 C290.680724,176.090631 290.437633,174.652832 290.665902,174.362307 C290.704441,174.31191 290.784483,174.205187 290.977178,174.288194 C291.217305,174.391953 291.356638,174.623186 291.573049,174.75659 C291.733134,174.860349 291.922864,174.91964 292.07702,174.922604 C292.320112,174.922604 292.524665,174.762519 292.761827,174.762519 C292.815189,174.780307 292.856692,174.792165 292.856692,174.993753 C292.856692,175.029327 292.856692,175.073795 292.853728,175.10937 C292.853728,175.127157 292.684749,176.98592 292.560239,177.113395 C292.483161,177.190473 291.661985,177.036317 291.661985,177.036317 Z M24.6309767,66.611866 C22.6536325,68.1386011 21.0320323,70.1218744 18.7167311,71.212823 C18.6930148,71.2009648 18.6544759,71.1861422 18.6307596,71.174284 C19.3244606,69.7246268 19.9914808,69.176188 20.8334085,68.482487 C30.5007544,60.5345709 30.5007544,60.5345709 32.6974742,59.6155653 C32.7567649,59.5888845 32.8457009,59.5681328 32.9049916,59.5503456 C32.9257434,59.5622037 32.9553887,59.5770264 32.9761404,59.5888845 C32.9049916,59.9031251 32.9049916,59.9031251 32.457347,60.2944436 C32.9909631,60.0068838 33.4475014,59.5740618 34.067089,59.4465869 C34.0819117,59.4762322 34.0967344,59.5207002 34.111557,59.5533101 C33.5927635,60.5227128 33.5927635,60.5227128 33.1866224,60.8221307 C31.4286536,62.1028095 29.5106,63.1374319 27.728915,64.3766072 C26.7446896,65.0673436 25.8879392,65.9152004 24.8977848,66.5940787 C24.8414587,66.6326177 24.7554872,66.6681921 24.693232,66.6741212 C24.6754448,66.656334 24.6457994,66.6296532 24.6309767,66.611866 Z M38.1886809,57.4360398 C37.9100147,57.4034299 37.9189083,57.109941 38.4228791,56.8846364 C39.8458555,56.2561552 42.3597805,54.9339729 43.1364884,54.4033213 C42.2827026,54.7086683 41.8617387,54.9339729 41.6393986,55.0555188 C40.8093291,55.5031635 40.7885773,55.5031635 40.7026059,55.5031635 C41.1828604,55.1207386 41.8172707,54.9310084 42.1581921,54.3647824 C38.7697296,56.244297 38.7697296,56.244297 38.7371197,56.2235453 C38.7964104,55.245249 45.8697889,51.8212121 45.9379732,51.8093539 C46.441944,52.3726154 45.2205559,52.6068136 44.8588828,52.9981321 C44.8410956,53.0218484 44.8144147,53.0485292 44.793663,53.069281 C44.7225142,53.1374652 44.6484008,53.2145431 44.5861456,53.2945855 C44.6068974,53.3123728 44.6276491,53.336089 44.6454363,53.3538762 C47.2838717,52.7372531 47.7552326,51.8478929 47.8323105,51.4980778 C47.9390338,51.0148588 51.3956806,49.2420673 51.431255,49.2213156 C51.4668294,49.2183511 51.5083329,49.2153865 51.5439073,49.2094575 C50.5270721,50.2766898 49.3027195,51.1097239 48.2562389,52.1443463 C49.1040957,51.6581627 49.8363356,50.9970716 50.6812279,50.516817 C50.6871569,50.5138525 51.1318371,50.2648316 51.520191,50.2915124 C51.4609004,50.3952711 51.4253259,50.4575263 50.8887453,50.8310577 C50.8620645,50.8488449 48.0991186,52.7787566 47.3668787,53.158217 C46.441944,53.6384715 45.4369669,53.9023151 44.4734933,54.2699173 C44.4675642,54.2758464 42.9408291,54.9310084 39.9525787,56.6089348 C39.2025516,57.0298986 38.4288081,57.4597561 38.1886809,57.4360398 Z M18.5050633,74.9656268 C17.6957455,74.767003 18.1344966,72.7570488 22.6791274,71.387434 C23.3698639,71.1799167 24.9914641,70.6907685 26.2069231,69.7539757 C25.5221157,69.9022024 24.8432374,69.6027845 24.1643591,69.7539757 C23.20385,69.9644576 22.4182484,70.6107261 21.4547748,70.8004563 C21.3599097,70.821208 21.2265057,70.8034208 21.1405342,70.7619173 C21.1316406,70.5128965 21.2087185,70.3053791 22.9370419,69.2588985 C23.9686998,68.6363463 23.9775934,68.6244882 24.1406428,68.3428575 C24.0457777,68.2776377 23.9123737,68.2064889 23.8056504,68.1649854 C23.598133,67.1155403 32.2931118,61.4977481 32.960132,61.4295638 C32.2130693,62.2329525 31.1310144,62.6390937 30.4758523,63.5462412 C31.5371556,63.1430645 32.3642606,62.2803851 33.4670673,61.9483572 C33.4907836,61.9720735 33.5233934,62.0046834 33.5471097,62.0313642 C33.354415,62.4345409 32.9542029,62.6657745 32.7229692,63.0304122 C33.5530388,62.8525402 34.2022718,62.2625979 34.9819443,61.9720735 C35.0234477,62.0046834 35.0886675,62.0491514 35.130171,62.0787968 C34.8870792,62.66281 34.048116,62.923689 34.2378462,63.7389359 C36.2211195,62.6094484 37.3772879,60.6083878 39.0700369,59.1765178 C39.081895,59.1676242 39.0996822,59.1557661 39.1115404,59.1468725 C39.1322921,59.1972695 39.1619374,59.2684184 39.1826892,59.32178 C39.3605612,59.3810707 39.5473269,59.4077515 39.7163053,59.499652 C39.8022768,59.8642897 36.1410771,64.355559 35.7260423,64.8684234 C35.2487523,65.4494721 35.6193191,66.436662 36.5116439,66.9406328 C36.6539415,67.6491565 35.7942266,68.4317935 35.785333,68.4377225 C35.6371063,68.5444458 35.5570639,68.5711266 35.1479582,68.5503748 C34.0125416,68.4970132 32.3583315,69.7510112 32.1863885,70.3083436 C33.7605562,69.4604868 33.7605562,69.4604868 33.9354637,69.4930967 C33.9265701,69.5108839 33.9117474,69.5257066 33.8583858,69.5909263 C32.2012112,71.4407957 32.2012112,71.4407957 30.5084622,72.0129508 C30.4936395,72.0129508 28.6912027,71.6245968 28.4599691,71.3992922 C28.4896144,71.3103562 28.4896144,71.3103562 28.7119545,70.8864278 C28.6823091,70.865676 28.6408057,70.8389952 28.6111603,70.821208 C28.1279413,71.0050091 27.7692326,71.2955335 26.9035886,71.992199 C24.2088271,74.162238 19.4537143,76.2759509 18.869701,76.2670573 C19.1720835,75.7126894 19.7501677,75.3599098 19.9725078,74.7521803 C19.9487915,74.7254995 19.9250752,74.6928896 19.8983944,74.6632443 C19.4122108,74.639528 19.0179277,75.0901372 18.5050633,74.9656268 Z M58.2745857,83.209107 C58.0759619,83.7427231 56.4098937,85.5273727 55.917781,85.1123379 C55.7161927,84.9433595 55.5976113,84.125148 56.0689723,83.5411348 C56.4039646,83.1349936 57.7142887,82.8919018 57.7261469,82.8889373 C58.0314939,82.8415047 58.4198479,82.8237175 58.2745857,83.209107 Z M56.0568177,80.0231221 C54.8976848,80.4292633 53.7681973,79.8067111 52.6209226,79.9341861 C50.925209,80.1239163 49.4725873,81.3453043 48.6069433,82.0745797 C48.0081074,82.5815151 47.711654,82.8216423 47.5634273,82.8483232 C47.4596686,82.8631458 47.4596686,82.8631458 47.3499808,82.1605512 C47.2640093,81.6061833 47.2640093,81.6061833 46.1671317,81.5172473 L48.017001,78.5230678 C48.2156248,78.2028981 48.4913265,77.7789697 48.710702,77.4706582 C48.7818508,77.3728285 50.4716353,74.9923076 50.9726416,74.7551449 C51.0200741,74.7432867 51.0882584,74.7373577 51.1297619,74.7610739 C51.4825415,74.9715559 51.4884705,75.4577395 51.8382856,75.6741505 C52.3867244,76.0091428 53.0656027,75.9468876 53.6140415,76.287809 C53.7029776,76.3411706 53.8245235,76.4182485 53.9045659,76.4834683 C54.4559692,76.9222193 54.7049901,77.6010977 55.176351,78.0991394 C55.4461236,78.3896638 55.8285486,78.5438195 56.1161084,78.8135921 C56.2821223,78.9707125 56.5103914,79.4687542 56.3651292,79.7711367 C56.2910159,79.9045407 56.1161084,80.0023703 56.0568177,80.0231221 Z M53.0143163,82.0713187 C53.8295632,81.9408792 53.7910242,82.2373327 53.6131522,82.5130343 C53.0587843,83.3638556 49.9934559,85.1781506 49.4865206,84.8075838 C49.2226771,84.6148891 49.2938259,83.5861957 49.7651868,83.2185935 C50.559682,82.6019704 52.9906,82.0742833 53.0143163,82.0713187 Z M46.7523307,219.085566 C47.9648252,218.821723 49.639787,220.11426 49.6723969,220.710131 C49.722794,221.715108 47.3096632,221.264499 46.9272382,221.122201 C46.3550832,220.917648 45.8273961,219.462062 46.7523307,219.085566 Z M101.972412,111.001615 C101.72932,111.315855 101.376541,111.713103 101.19274,112.059954 C101.065265,112.314903 101.065265,112.400875 101.326144,112.537244 C101.812327,112.789229 102.126568,113.008604 102.476383,114.28039 C102.65722,114.953339 102.835092,115.119353 103.63848,114.944445 C106.282845,114.369326 106.282845,114.369326 107.032872,115.175679 C108.473636,116.729095 109.911435,119.661019 109.769137,121.555356 C109.680201,122.729312 108.787876,124.116714 108.067495,124.199721 C107.934091,124.217508 107.699892,124.170076 107.676176,123.683892 C107.649495,123.233283 107.613921,122.55144 107.261141,122.180873 C106.549653,121.433811 105.793697,122.163086 105.064421,122.118618 C104.830223,122.100831 104.527841,121.994108 104.296607,121.934817 C102.292582,121.386378 100.404174,121.158109 97.8339226,120.950591 C93.3367242,120.585954 93.3367242,120.585954 93.141065,120.48516 C93.0165546,120.422904 92.7882854,120.310252 93.0728807,119.904111 C93.8199433,118.85763 94.916821,118.149107 95.7142807,117.147094 C97.1995123,115.264615 98.2311702,113.073824 99.7460471,111.209132 C101.000045,109.670539 102.615716,108.292031 103.223446,108.090442 C103.285701,108.078584 103.368708,108.108229 103.427999,108.128981 C103.573261,108.585519 103.084113,109.551958 101.972412,111.001615 Z M-26.2350935,133.687416 C-26.2558452,133.734849 -26.2943842,133.800068 -26.3329231,133.835643 C-26.5226533,133.53326 -25.4376338,128.576559 -24.4860183,127.799851 C-24.4474794,127.776135 -24.3881887,127.740561 -24.3437207,127.728702 C-24.0561609,127.663483 -24.2340329,128.244531 -24.245891,128.268248 C-24.2725718,128.342361 -24.3022172,128.440191 -24.3259335,128.514304 C-24.5660607,129.160572 -24.8595496,129.783125 -25.111535,130.423464 C-25.5324989,131.496625 -25.7815197,132.626113 -26.2350935,133.687416 Z M183.969056,64.046951 C183.69039,64.0321283 183.69039,64.0321283 183.583666,64.1329225 C183.722999,64.5924253 184.132105,64.9066659 184.238828,65.3809914 C184.410771,66.1102668 180.974876,68.6004755 178.72183,69.1489143 C176.237551,69.7566438 175.792871,69.7625729 175.47863,69.7685019 C175.363013,69.7714665 175.214786,69.7655374 175.105099,69.7596083 C174.209809,69.7032822 173.373811,69.3060346 172.475557,69.2437794 C172.081274,69.2170986 171.66031,69.2497085 170.432993,69.380148 C168.553478,69.5787718 168.363748,69.4957648 168.144372,69.3089991 C168.135479,68.4789296 168.132514,68.1320791 167.189792,67.8682355 C166.288574,67.6132856 165.224306,68.4463197 164.423882,67.4650589 C166.291539,65.9235011 162.947544,64.7673328 161.886241,64.957063 C161.28444,65.0697153 160.208314,65.2209065 159.897038,64.9985665 C160.436584,64.2040713 161.767659,64.3849079 162.034468,63.2613494 C161.613504,62.6980879 160.673746,62.8641019 160.403974,62.0903584 C161.355589,61.3284732 164.767768,62.2771241 165.574121,63.8038592 C165.929865,64.479773 168.079153,66.2466353 168.360783,66.3592876 C169.279789,65.6181541 168.523833,64.6487514 168.713563,63.8068237 C168.787676,63.7593912 168.8944,63.6941714 168.965548,63.6467389 C169.469519,63.35325 169.994242,63.9046533 170.498213,63.6111645 C170.969573,63.3384273 170.536752,62.5972938 171.135587,62.3957055 C172.07238,62.0785003 173.074393,62.1348264 174.026008,61.9124864 C175.010234,61.6812527 175.932204,61.2751115 176.913465,61.0349843 C177.773179,60.9905163 178.297902,61.6990399 179.012355,61.9865997 C180.017332,62.3897764 181.10828,62.14372 182.12808,62.4223863 C182.243697,62.4549961 182.394888,62.5113223 182.510505,62.5557903 C183.189383,62.8285274 183.767468,63.4925831 183.966091,63.8483272 C183.983879,63.9046533 183.969056,63.9846958 183.969056,64.046951 Z M49.7977967,215.057061 C50.1594699,214.659813 51.0102912,214.695388 50.9598941,213.939431 C50.9421069,213.702269 50.7049441,213.402851 50.3758809,212.993745 C49.9074845,212.400838 49.7562932,211.970981 49.5280241,211.265421 C49.0685213,209.857268 48.91733,209.379978 46.6850358,208.816716 C45.4725413,208.508405 43.6404592,208.045937 43.5485587,206.946095 C43.5663459,206.925343 43.5989557,206.901627 43.6286011,206.88384 C44.360841,207.298875 44.6721171,206.975741 44.7966275,206.747471 C44.6484008,206.344295 43.1216657,205.60909 40.8389744,206.91645 C39.238126,207.832491 37.290427,208.120051 36.9643283,207.808775 C36.9791509,207.749484 38.7578714,206.024125 41.3044063,205.185162 C45.8579308,204.266156 48.3184941,205.970763 49.1248474,206.528096 C49.2137835,206.584422 57.114267,215.694436 57.0579409,216.085754 C56.9512176,216.800207 50.782022,216.343669 49.7977967,215.057061 Z M59.6237452,222.623441 C58.1978043,221.817088 56.4754099,221.840804 55.055398,220.998877 C55.0168591,220.97516 54.9990719,220.906976 54.9753556,220.868437 C55.1087597,220.826934 55.3340643,220.755785 57.6552945,221.132281 C58.9181861,221.336833 59.8312626,221.48506 60.0506381,221.29533 C60.1336451,221.215288 60.6791194,219.389134 58.9922994,217.829789 C58.8203564,217.672669 58.8203564,217.672669 58.823321,217.497762 C58.9033634,217.426613 58.9300442,217.41179 59.1138453,217.358429 C59.8371917,217.239847 71.3277261,218.230002 70.7585355,220.483048 C70.5717699,221.209358 71.1587477,221.796336 71.1172442,222.495966 C71.1024215,222.685696 70.9690175,222.724235 70.7674291,222.756845 C70.7526065,222.75981 66.587436,222.638264 64.1713406,222.223229 C63.6970151,222.143187 63.5606466,222.131329 63.4094553,222.149116 C62.0576278,222.28252 62.2354998,224.41402 60.6642967,224.253935 C59.7571492,224.162034 60.26112,222.985114 59.6237452,222.623441 Z M82.7580805,115.914737 C83.8401355,115.736865 88.8561273,116.658835 88.4944541,117.462224 C88.4855605,117.480011 87.4509381,118.98303 84.4864039,117.592664 C84.0239366,117.379217 81.7708906,116.28234 82.7580805,115.914737 Z M268.333769,300.65087 C269.134194,299.616248 269.134194,299.616248 269.469186,299.239752 C269.50476,299.25161 269.546264,299.272362 269.578874,299.290149 C269.086761,300.763522 266.033291,304.893118 265.037207,306.147116 C264.634031,306.659981 264.634031,306.659981 264.462088,306.778562 C264.832654,306.161939 264.832654,306.161939 264.850442,306.040393 C260.617087,310.460514 256.730583,315.197839 252.301568,319.434158 C246.873506,324.630987 246.873506,324.630987 245.441636,324.616164 C245.598757,324.058832 250.92306,317.264119 254.865891,314.17211 C256.164357,313.155275 256.65054,312.77285 257.951971,310.872584 C260.578548,307.051299 261.124022,306.256804 262.867168,305.637216 C264.998668,304.875331 265.078711,304.84865 268.333769,300.65087 Z M158.353702,269.88701 C158.504893,270.693363 159.160055,271.280341 159.305317,272.086694 C159.323105,272.166736 159.317175,272.279389 159.311246,272.362396 C159.299388,272.427615 156.912938,279.711476 150.189375,282.160181 C150.245701,282.382521 150.390963,282.667116 150.527332,282.853882 C151.265501,283.870717 150.880111,284.445837 149.827702,285.981466 C148.920554,287.315506 149.729872,288.720695 149.661688,290.087345 C149.543106,292.530122 149.768411,294.978827 149.439348,297.415674 C149.285192,298.52441 149.193291,298.515516 148.019336,298.364325 C147.337493,298.275389 146.522246,298.293176 145.615099,299.117316 C143.60218,300.949399 143.563641,304.296358 140.711759,305.479207 C139.46369,305.998 136.433936,307.468409 135.280732,309.949724 C135.254052,310.145384 131.835944,329.58087 123.805021,329.800245 L124.839643,331.258796 C125.755684,332.595801 124.572835,335.515867 121.042075,334.433812 C120.887919,334.525713 120.69226,334.653188 120.541069,334.742124 C120.689295,336.162135 120.689295,336.162135 118.694164,337.934927 C121.282202,341.530907 121.282202,341.530907 121.302954,341.756211 C119.156631,341.685063 119.156631,341.685063 118.694164,341.836254 C121.67945,350.053943 121.67945,350.053943 123.259546,351.740763 C122.186385,356.558131 122.186385,356.558131 133.564267,362.41605 C133.457544,362.451624 121.637946,364.354855 109.42703,347.163522 C99.7982229,333.609672 94.2634376,308.790591 94.2160051,308.556393 C93.1962053,303.332884 91.0795279,299.336692 88.2454333,297.303022 C84.5279074,294.631976 79.7490783,293.94124 76.2242472,290.896663 C76.1086304,290.795869 61.6713489,276.518672 58.1524469,271.298128 C57.9449295,270.992781 57.7166604,270.551065 57.5358238,270.227931 C56.4211589,268.244658 59.0180909,257.631625 59.0507007,257.533796 C61.7336042,251.643266 61.7336042,251.643266 61.4045409,250.229183 C60.3550958,245.758666 57.4142779,236.206937 52.6443424,244.169676 C41.9216223,244.552101 37.863175,232.427156 28.0742832,231.060505 C27.7481844,231.013073 27.3094334,230.959711 26.9803701,230.927101 C24.7895793,230.692903 24.7895793,230.692903 18.5581285,227.141391 C15.8396507,225.59094 12.8869746,227.188824 10.1092061,226.51291 C7.39665734,225.857748 4.62778243,225.427891 1.93005633,224.73419 C1.15631291,224.535566 0.213591047,224.004914 -0.527542496,223.717354 C-0.930719143,223.55727 -1.4999097,223.358646 -1.8556538,223.10666 C-4.48223108,221.259756 -3.87153704,217.998768 -5.14628673,215.564885 C-6.72934798,212.538096 -9.94586756,210.999503 -11.8283468,208.245451 C-13.283933,206.125809 -14.9648239,204.163287 -16.3314742,201.98139 C-16.9747781,200.958626 -17.3334867,199.328132 -17.6506919,197.884404 C-18.0983365,195.859627 -18.4540806,194.258778 -21.8040042,191.807109 C-19.1270299,202.666197 -17.5498977,204.913314 -16.147673,206.896587 C-13.0764156,211.263346 -13.7048969,212.185316 -14.3155909,213.074677 C-14.3748816,213.003528 -21.0628707,204.361911 -21.9789118,202.443857 C-21.436402,202.417176 -20.7219493,202.39346 -20.1824041,202.387531 C-27.7627179,186.859301 -27.7627179,186.859301 -28.2133271,186.782223 C-31.6936902,180.681212 -29.8705017,148.003152 -24.6410634,141.487106 C-24.2052769,141.700552 -23.6331218,142.005899 -23.2091934,142.243062 C-23.1380446,140.94756 -23.5679021,139.740995 -23.9977595,138.537394 C-23.9977595,138.56111 -24.0096177,138.578897 -24.0066531,138.599649 C-23.994795,138.807167 -23.9443979,139.002826 -23.9562561,139.207379 C-23.9592206,139.349676 -23.9799723,139.67874 -24.0985537,139.975193 C-24.2378868,140.301292 -24.4513333,140.532526 -24.6796024,140.60071 C-24.6944251,140.603674 -25.5719272,140.775617 -25.9336003,139.539407 C-26.3753159,138.036388 -25.9839974,136.210235 -25.9810329,136.198377 C-25.9751038,136.195412 -25.9721393,136.192447 -25.9691748,136.189483 C-25.8061254,136.225057 -25.6134307,136.865397 -25.5630336,137.058091 C-25.4563103,137.440516 -25.4325941,137.458304 -25.3762679,137.517594 C-25.3140127,137.585779 -25.2191476,137.615424 -25.038311,137.630247 C-24.6588506,137.656927 -24.4098298,137.716218 -24.2586385,137.772544 C-24.649957,136.616376 -24.9464105,135.448349 -24.6855315,134.176564 C-23.6212637,128.849296 -23.6212637,128.849296 -22.6370383,125.733571 C-22.7823005,125.499373 -22.9690662,125.188097 -23.1113638,124.953898 C-22.9038464,124.337275 -22.6370383,123.51017 -22.43545,122.890583 C-22.0559896,120.759083 -22.0559896,120.759083 -18.9521224,112.932712 C-19.0114131,113.030542 -19.0914555,113.155052 -19.1626043,113.255847 C-14.582399,105.651816 -14.3393072,105.328682 -3.89525331,91.730364 C-1.46137076,89.0029925 1.77293602,85.3684737 4.20088951,82.6411022 C4.02894653,82.8515841 3.82142913,83.1569312 3.6880251,83.3970584 C7.6101038,79.4809088 10.746581,77.1270687 10.7643682,77.1181751 C9.3532499,78.4225701 7.85319561,79.6291355 6.46579361,80.9542823 L6.48061628,80.9453887 C10.8710914,77.2160047 10.8710914,77.2160047 13.2753286,75.0044622 C11.879033,76.7268565 11.879033,76.7268565 11.4195302,77.6873656 C12.2999969,76.8335798 12.2999969,76.8335798 12.8454712,76.4392967 C12.6587055,76.679424 12.4304364,77.0322036 12.2881387,77.3079052 C13.0737403,76.7713246 13.6458954,75.9116096 14.6508725,75.7011277 C14.8613544,75.8849288 15.1074107,76.1695241 15.264531,76.3948287 C16.6786138,76.5489845 16.7527272,76.5045165 17.2418753,76.2406729 C17.3574922,76.2999636 17.5057189,76.3829706 17.6213357,76.4452258 C17.2774497,77.9097057 15.8129699,78.2358044 14.9028579,79.1310938 C17.0788259,79.4571925 18.7093197,77.8266987 20.6955576,77.506529 C20.8200681,78.544116 19.8743817,79.4364408 20.2805229,80.5125667 C22.4683491,76.2436375 23.5652267,74.1032438 27.2531072,73.1545929 C27.5703124,73.5814858 27.5139862,74.1506763 27.8104396,74.5805338 C32.3728577,74.7969448 33.606104,74.0113432 33.8076923,73.8512584 C37.5044664,70.9400858 37.5044664,70.9400858 38.639883,71.2335747 C36.6595741,73.3502521 36.6595741,73.3502521 37.7208774,74.4500943 C38.8474004,71.8294461 41.8682607,71.0201283 43.2526981,68.6455364 C43.1281877,68.6129265 42.9592093,68.5773521 42.8376634,68.5506713 L42.8287698,68.5506713 L42.8435924,68.2038208 C43.5046835,67.572375 43.7329527,67.4449001 45.1707518,66.7304473 C45.1381419,66.6029723 45.0966384,66.4310294 45.0669931,66.3065189 C44.3762566,66.3480224 43.6973783,66.4992137 43.0066418,66.5021782 C42.9384575,66.3628451 42.8495215,66.184973 42.7872663,66.0486045 C42.8495215,65.9300231 51.6245426,53.7546813 58.1139079,52.2368398 C59.0180909,52.0737904 59.0180909,52.0737904 59.5843169,52.1390101 C51.4763159,56.9148747 51.4763159,56.9148747 49.7390989,59.6007426 C49.8754675,59.6985723 50.0651977,59.8319763 50.2015662,59.935735 C50.1986017,60.5316064 50.1986017,60.5316064 47.1540251,65.4319814 C48.9119939,65.5001656 48.9119939,65.5001656 49.0157526,65.5416691 C48.9950008,65.5653854 46.9939403,68.17714 47.3407908,69.1643299 C48.7934125,67.8836511 49.5849431,65.9033423 51.5504293,65.1622087 C53.2817172,66.9794682 49.5760495,68.1593528 49.3033124,69.9914349 C52.3893925,72.7484517 54.212581,66.8015961 56.7531868,65.3400808 C58.1376242,59.375438 62.2642558,63.582112 62.3087238,63.62658 C62.0774901,64.0742247 62.0241285,64.5930182 61.7039588,64.9991594 C61.1288392,65.6068889 60.0942168,65.529811 59.6584302,66.3509869 C59.1841048,67.2403472 60.0527133,68.1949272 59.5279907,69.0842875 C59.3382606,69.3985281 59.0062327,69.7750239 58.7305311,70.0181157 C57.4409587,71.1476032 57.4409587,71.1476032 52.5435482,72.9174301 C51.0731393,71.9836019 49.6768437,73.6763509 49.6649856,73.6941381 C49.9288291,73.7089608 50.2756796,73.8334712 50.4920906,73.9846624 C48.357626,77.2693663 44.7349652,75.4995394 41.9275514,76.5134101 C44.2991787,77.8622731 44.9069082,77.7555499 47.8329034,77.24565 C43.5343289,81.8258553 43.5343289,81.8258553 35.9836604,83.1687893 C36.7277584,83.7557671 38.0232599,83.2310445 38.4738691,84.4168582 C34.5903293,87.2983854 25.5040321,94.0456652 26.153265,97.7720846 C29.0347923,98.0003538 29.0347923,98.0003538 29.2423097,99.2187773 C29.8263229,102.725821 29.8263229,102.725821 30.2917547,103.105282 C31.6198661,102.725821 32.7137792,101.593369 34.2494079,101.854248 C34.5488258,101.901681 34.9431089,102.005439 35.2336332,102.106234 C36.9115596,102.696176 37.8068489,104.474896 39.5618531,104.949222 C41.2812829,105.414654 43.2171237,104.012429 44.8209367,105.559916 C45.1173901,105.551022 45.5146377,105.580668 45.8051621,105.622171 C45.8466655,105.764469 45.8051621,106.060922 45.8466655,106.200255 C45.5887511,106.404808 45.1470355,106.778339 44.889121,106.982892 C45.3901273,108.219103 45.7814458,109.197399 44.8683693,111.880303 C46.5522247,113.086868 48.7192992,113.623449 49.9347582,115.488141 C53.8301561,112.790415 51.5830392,108.52445 52.4842576,105.109307 C53.1690649,104.584584 53.2550364,104.507506 53.4180858,104.29406 C53.0564126,103.048955 54.7461971,102.512375 55.4873307,102.340432 C58.8817223,101.557795 58.7749991,95.6672654 58.76907,95.6079747 C58.7186729,94.1405303 57.1771151,93.25117 57.2690157,91.730364 C57.3490581,90.4200399 58.8046444,90.043544 59.1692821,88.9259147 C57.2690157,86.5394647 60.0764296,84.4850425 59.6436076,82.1993866 C62.0508093,81.1973741 64.6892447,81.7428484 67.1498081,81.0817572 C67.6033818,81.0402538 67.7427149,81.0254311 68.3415508,81.2270194 C71.0333479,82.1134151 71.3031205,82.5758825 71.4187373,82.7715417 C71.7566942,83.3466613 71.916779,83.5215689 72.171729,83.6134694 C73.2626776,84.0136815 74.4158814,83.4830299 75.5068299,83.8476676 C74.3714133,84.7607441 73.6362089,88.5879578 73.9623076,89.1690065 C75.8269996,89.5840412 77.3211248,91.3212583 79.464483,90.6690608 C79.808369,90.5653021 79.808369,90.5653021 81.0356862,88.8844112 C81.5781959,88.1521712 82.5979957,88.7539717 83.1671862,88.1017742 C83.6592989,87.5325836 82.8974136,86.9367122 83.1997961,86.3675217 C85.1297078,82.6826057 85.1297078,82.6826057 89.0666092,89.7204098 C90.6318833,92.513001 90.6318833,92.513001 89.9203951,93.5090845 C89.4312469,94.1820337 89.2563394,94.4903453 89.5112894,94.8371958 C90.1219834,95.6613363 91.3374424,95.4538189 91.9540655,96.2690658 C92.4076392,96.8738308 91.8947748,97.5704963 92.1200794,98.1989775 C92.5054689,98.3264525 92.5054689,98.3264525 93.2377088,98.1367223 C96.4868383,97.285901 99.0719121,99.5093016 98.9207208,99.9006202 C98.8228912,100.060705 98.5738703,100.173357 98.3989628,100.262293 C90.6140961,100.893739 85.1089561,101.388816 78.7767111,102.055837 C85.6662885,101.362136 91.9362783,100.825555 98.3604239,100.277116 C95.0460746,101.557795 94.6221463,101.723809 93.7268569,102.995594 C93.8246866,103.220898 93.9580906,103.517352 94.0588848,103.736727 C96.9878445,101.824603 98.6390901,101.661553 99.1845644,101.608192 C99.1904934,101.608192 99.2023516,101.605227 99.9672014,101.611156 C100.865455,101.794957 101.760745,101.990617 102.656034,102.183311 C102.81019,102.414545 103.002884,102.722857 103.154076,102.95409 C102.347722,104.946257 102.347722,104.946257 102.899126,106.29512 C101.191554,109.398988 90.003402,114.945631 87.5131933,113.241024 C76.5740622,116.561302 76.5740622,116.561302 65.9195264,127.639766 C81.3973593,117.957598 81.3973593,117.957598 82.5090596,119.05744 C82.0495568,121.236373 80.4813183,121.660301 78.3083147,122.253208 C78.9279024,123.012129 79.0198029,123.13071 80.4724247,123.664326 C81.0771896,125.531983 81.3380686,126.317584 82.8855555,127.043895 C82.4260527,126.115996 82.927059,124.861998 83.0071014,124.728594 C83.0219241,124.722665 83.0397113,124.710807 83.0515694,124.701913 C83.0782502,124.722665 83.1167891,124.743417 83.0990019,125.001331 C83.0456403,125.659458 83.1671862,126.121925 83.9527878,126.519172 C84.275922,126.682222 85.1830695,127.026108 86.7750243,126.777087 C87.0151516,126.741513 87.0388679,126.738548 87.1159457,126.7593 C87.1248393,126.765229 87.1278039,126.777087 87.1366975,126.785981 C87.1337329,126.797839 87.1278039,126.821555 87.1218748,126.833413 C87.1159457,126.845271 86.4370674,127.799851 85.5447426,127.989581 C86.4400319,128.253425 87.5161579,128.555807 88.8413046,128.926374 C89.8581398,127.384816 89.9322532,125.288891 91.6338958,124.147545 C93.8454383,129.723834 81.4625791,136.921723 77.4397062,136.853539 C77.5167841,135.620292 77.5167841,135.620292 83.4577106,131.404725 L83.4577106,130.515365 C82.88852,130.530187 82.1384929,130.340457 81.6108058,130.141833 C81.7115999,129.922458 81.8479685,129.637862 81.9546917,129.421451 C71.694439,135.365342 71.694439,135.365342 71.0956031,135.335697 C67.5618783,138.641153 67.5618783,138.641153 66.8918936,144.946717 C66.3642065,144.908178 59.1722466,148.812469 59.1307432,148.856937 C57.4409587,150.499289 57.8055964,152.968746 56.7116833,154.85419 C56.5071304,153.858107 55.7393161,153.182193 55.2916714,152.325442 C54.778807,160.362295 54.778807,160.362295 54.2007228,160.735826 C54.2036874,160.726932 54.2066519,155.227721 54.1117868,153.42232 L52.8785406,165.636201 C53.1068097,165.719208 53.4121567,165.837789 53.6463549,165.920796 C53.6167096,166.211321 53.5752061,166.593745 53.5455608,166.88427 C53.3113626,166.952454 53.003051,167.044355 52.7718174,167.112539 C52.742172,167.352666 52.7036331,167.672836 52.6739877,167.915928 C52.8370371,168.099729 53.0564126,168.34875 53.219462,168.532551 C53.2253911,168.529586 53.2283556,168.529586 53.3113626,168.53848 C49.5908722,172.795551 42.935493,174.343038 41.8178636,181.004346 C40.7447022,187.446279 50.4743034,193.120397 44.4177601,199.517862 C39.2802224,196.538505 42.547139,189.020446 37.1931903,186.162635 C37.1368641,186.13299 24.6443172,187.21801 23.073114,188.128122 C23.0167879,188.389001 22.9426745,188.732887 22.8893129,188.993766 C23.5681912,189.533311 24.4575515,189.76158 25.0563874,190.419707 C24.84887,190.594614 24.5672393,190.828812 24.3567573,191.000755 C24.2945021,190.974074 16.4325575,189.198318 14.4048161,190.760628 C13.2723641,191.635166 8.42831524,196.56815 7.61603287,199.194728 C6.9934807,201.219505 9.3799307,202.082184 9.41846965,203.852011 C9.48072487,206.626815 7.00830337,208.924329 7.88284095,211.859218 C8.59136461,214.230845 10.7050775,218.739901 16.9039184,222.291413 C19.5512474,223.80629 21.0335145,220.569019 23.3399221,220.717246 C24.7688276,205.586263 31.4686748,210.990609 32.2305601,211.657629 C31.5872562,215.348474 31.5872562,215.348474 29.8470746,219.415815 C30.8164773,221.461344 30.8164773,221.461344 29.488366,225.857748 C33.5112389,226.130485 37.5607925,224.031595 41.548091,226.050443 C41.5747718,226.062301 43.7685271,229.842082 43.0303581,234.967762 C41.8178636,243.4404 54.9359273,237.701062 60.0408552,241.329652 C61.5735193,227.692795 75.162944,229.738323 92.3661358,232.326362 C92.9323618,232.409369 93.6764599,232.640602 94.1893243,232.889623 C97.7467653,234.600159 99.9731304,238.015303 103.290444,240.028221 C107.479331,242.568827 112.688018,241.747651 116.912479,244.157817 C120.146785,246.001758 122.462087,249.271639 125.55706,251.287522 C127.368391,253.250044 127.632234,256.650364 130.576017,257.732419 C135.64537,258.998276 140.809589,259.887636 145.813722,261.426229 C149.16661,262.460851 151.464124,265.508393 154.971168,266.270278 C156.050259,266.504476 157.12342,265.695158 158.211404,266.246562 C159.741104,267.026234 158.125433,268.680444 158.353702,269.88701 Z M-19.2201163,113.35249 L-19.1845418,113.290235 C-19.1756482,113.281342 -19.1667546,113.266519 -19.1608256,113.254661 C-19.1815773,113.290235 -19.1993645,113.316916 -19.2201163,113.35249 Z M74.8140183,223.503611 C75.2379467,223.396888 75.5462582,223.322775 77.654042,223.977937 C79.557273,224.570844 79.7499677,224.888049 79.690677,225.021453 C79.5809892,225.282332 77.0107381,225.641041 76.2103139,225.507637 C75.0837909,225.317906 73.8890836,224.126164 74.8140183,223.503611 Z" fill="#004385" mask="url(#mask-2)"></path>
                        <path d="M304.925814,291.934444 C304.550059,291.823927 304.174303,291.801824 303.805916,291.86445 L270.886809,227.356116 L339.388464,209.964542 C339.414251,210.008749 339.417935,210.052955 339.447406,210.097162 C339.598445,210.329246 339.797374,210.498704 339.992619,210.671846 L304.925814,291.934444 Z M115.799358,400.535077 C115.762519,400.498238 115.729364,400.457716 115.688842,400.420877 L165.096973,297.206069 L301.952927,295.213092 L115.799358,400.535077 Z M-7.89779479,328.585315 L56.6105394,302.197719 L112.244419,400.225632 C112.192845,400.284574 112.133903,400.336148 112.082328,400.39509 L-7.87937542,329.690478 C-7.82043342,329.333142 -7.81674954,328.961071 -7.89779479,328.585315 L-7.89779479,328.585315 Z M2.21075806,228.40602 L-10.6828042,326.190797 L-70.9215273,142.958541 L2.21075806,228.40602 Z M111.338186,-49.2034279 L37.4875445,-56.7001134 L35.2661679,-58.8588641 C35.3324777,-59.0025352 35.3840519,-59.157258 35.4245746,-59.3119807 L111.338186,-49.2034279 Z M31.523351,-55.1049955 C31.6301834,-54.9392212 31.7812222,-54.8287049 31.9101579,-54.6924015 L-14.3740469,31.2155622 L31.2765314,-55.6833639 C31.3502089,-55.4918024 31.4017831,-55.2891893 31.523351,-55.1049955 L31.523351,-55.1049955 Z M182.363294,28.4416043 L153.013863,-42.1930138 C153.26805,-42.3735237 153.489083,-42.5908723 153.647489,-42.8487436 L320.99856,30.5929873 L182.363294,28.4416043 Z M240.51326,167.832064 C240.697454,167.669974 240.877964,167.507883 240.999532,167.297903 L338.979554,208.339953 C338.97587,208.457837 338.983238,208.583089 338.994289,208.704657 L270.271602,226.151489 L240.51326,167.832064 Z M267.906555,226.75196 L236.777811,170.13817 L238.015593,168.14151 C238.490813,168.351491 238.988136,168.447272 239.470724,168.358859 L269.107498,226.449883 L267.906555,226.75196 Z M268.562284,227.945536 L269.722705,227.650826 L286.745891,261.019365 L268.562284,227.945536 Z M187.572294,250.26245 C188.264862,250.494534 189.009005,250.457696 189.620528,250.059837 C189.929974,249.85354 190.162058,249.57725 190.3352,249.267804 L301.378242,293.92742 L165.719547,295.905661 L187.572294,250.26245 Z M68.5205071,297.327637 L186.146634,249.205178 C186.242415,249.337798 186.356615,249.44463 186.474499,249.555146 L164.275468,295.927764 L68.5205071,297.327637 Z M113.415891,399.599373 L64.3245735,300.219478 C64.781374,299.832672 65.0834517,299.305877 65.1534454,298.701722 L65.2565939,298.657515 L163.652894,297.228172 L114.594731,399.717257 C114.20424,399.588321 113.802698,399.536747 113.415891,399.599373 L113.415891,399.599373 Z M61.3590542,300.256317 C61.9411064,300.661543 62.6263071,300.834685 63.2673014,300.735221 L104.515649,384.230246 L57.7083341,301.748286 L61.3590542,300.256317 Z M39.3736885,271.827854 L55.5422156,300.311575 L-8.49458253,327.369637 C-8.77087315,327.008617 -9.1024219,326.743378 -9.47449327,326.548133 L3.29750117,229.676957 L39.3736885,271.827854 Z M5.48203901,213.110571 C5.66991663,213.114255 5.84305875,213.103204 6.02356863,213.062681 L36.3197562,266.442029 L3.50379816,228.103942 L5.48203901,213.110571 Z M2.87017167,209.117251 C2.5275713,209.927703 2.57546168,210.929717 3.13909454,211.795428 C3.43748841,212.248545 3.84271466,212.554306 4.27372803,212.78639 L2.42073893,226.836689 L-65.9961865,146.907655 L2.87017167,209.117251 Z M34.7356899,-53.9482588 L94.1271218,25.9365694 C93.6150632,26.6328217 93.5229663,27.5869454 93.8803022,28.5005463 L-70.5899786,138.298439 L32.9895332,-53.9445749 C33.5752693,-53.7235424 34.1794248,-53.7272263 34.7356899,-53.9482588 L34.7356899,-53.9482588 Z M149.352091,-43.1397697 C149.377878,-43.0918793 149.425769,-43.0697761 149.458923,-43.0255696 L107.724304,11.5989281 L38.9574106,-55.2707699 L148.932129,-44.1123127 C149.013175,-43.780764 149.145794,-43.4492152 149.352091,-43.1397697 L149.352091,-43.1397697 Z M241.30161,166.089592 C241.316345,165.503856 241.191093,164.892332 240.833758,164.336067 C240.76008,164.225551 240.656932,164.159241 240.572202,164.059777 L253.870991,143.113264 L337.354965,206.332242 L241.30161,166.089592 Z M302.247637,292.962245 L190.618858,248.066861 C190.618858,247.956345 190.615174,247.849512 190.604123,247.74268 L267.390812,228.24393 L302.69707,292.45387 C302.527611,292.612277 302.361837,292.766999 302.247637,292.962245 L302.247637,292.962245 Z M-70.0816039,139.562008 L94.5249803,29.6757024 L5.75464575,207.894205 C5.05102564,207.647385 4.2921474,207.669488 3.66957254,208.074714 C3.63273379,208.100502 3.61431441,208.141024 3.58115954,208.166811 L-70.0705522,141.632346 C-69.8089971,141.002403 -69.8089971,140.272996 -70.0816039,139.562008 L-70.0816039,139.562008 Z M106.943323,12.6193615 L40.714619,-50.4891002 L37.325454,-55.2007763 L106.998581,12.545684 L106.943323,12.6193615 Z M175.223945,28.3310881 L156.145156,-31.5981895 L181.088674,28.423185 L175.223945,28.3310881 Z M207.925703,93.0051966 L199.014409,97.7979179 C198.465512,97.1863947 197.754524,96.8474782 197.032485,96.8290588 L175.632855,29.6204443 L181.622836,29.7125412 L207.925703,93.0051966 Z M208.960872,92.4489315 L182.90114,29.7346444 L321.580613,31.8786597 L208.960872,92.4489315 Z M218.155823,114.574284 L209.476614,93.6867135 L322.188452,33.0611835 L253.462081,141.311849 L218.155823,114.574284 Z M239.529666,163.26406 C239.12444,163.076182 238.700794,162.976717 238.280832,163.002504 L219.062057,116.755138 L252.824771,142.321231 L239.529666,163.26406 Z M235.948939,168.635149 L236.387321,168.310968 L236.06314,168.834078 L235.948939,168.635149 Z M188.846914,245.226593 L191.525091,202.018424 L235.005867,169.349821 L235.352152,169.983447 L188.846914,245.226593 Z M190.20258,246.479111 C190.180477,246.434904 190.176793,246.390698 190.147322,246.346491 C190.066277,246.224923 189.955761,246.151246 189.863664,246.044413 L236.070507,171.287539 L266.731398,227.050354 L190.20258,246.479111 Z M60.3938789,296.384565 C60.0402269,296.951881 59.9297107,297.677605 60.0954851,298.392276 L56.6326426,299.851091 L43.3780606,276.506375 L60.3938789,296.384565 Z M57.0968109,290.715081 L40.3241282,271.12055 L14.7764555,226.103598 L57.0968109,290.715081 Z M39.8452245,-49.6970671 L53.9507817,-30.0620137 L38.1543259,-51.3069205 L39.8452245,-49.6970671 Z M35.9366332,-55.1307827 L36.146614,-54.8434404 L35.9145299,-55.0644729 C35.9255816,-55.0865762 35.9255816,-55.1123633 35.9366332,-55.1307827 L35.9366332,-55.1307827 Z M113.38642,18.7530132 L107.904814,13.5329624 L107.949021,13.4703366 L113.38642,18.7530132 Z M142.297471,239.008212 L185.55353,247.823725 C185.564582,247.882667 185.549846,247.937925 185.564582,247.993183 L67.02117,295.566744 L142.297471,239.008212 Z M7.62237035,211.567028 L140.554998,238.65456 L64.103541,296.097222 C63.3815015,295.452544 62.4568489,295.231512 61.6206093,295.489383 L7.16925373,212.359061 C7.37555073,212.123293 7.52290573,211.865422 7.62237035,211.567028 L7.62237035,211.567028 Z M96.6910988,30.4345807 L139.225119,132.256884 L6.90769861,208.682554 C6.88559536,208.656767 6.86349211,208.63098 6.83770499,208.608876 L95.6632977,30.2872257 C96.0022141,30.4051097 96.3448145,30.4603678 96.6910988,30.4345807 L96.6910988,30.4345807 Z M97.1700025,25.4097753 C96.506905,25.0413878 95.7774978,24.9713941 95.1107164,25.2218976 L44.4132294,-45.3390431 L106.224967,13.5587496 L97.1700025,25.4097753 Z M120.842583,27.4874807 L98.6030299,27.1448804 C98.5219846,26.8870091 98.4372555,26.6291379 98.2825327,26.3933699 C98.2493779,26.3417956 98.2014875,26.3160085 98.1683326,26.2681181 L107.182775,14.4723505 L120.842583,27.4874807 Z M195.721025,97.1421882 C195.713657,97.1458721 195.713657,97.1532398 195.709973,97.1569237 L125.454794,28.8431467 L174.391389,29.6020249 L195.875748,97.0832462 C195.827857,97.1127172 195.768915,97.1090333 195.721025,97.1421882 L195.721025,97.1421882 Z M199.688558,100.586611 C199.846965,100.070869 199.858017,99.5146036 199.684874,98.9546547 L208.441445,94.2429786 L216.302834,113.174412 L199.688558,100.586611 Z M199.478577,101.923858 L217.209068,115.351582 L235.532662,159.443881 L199.478577,101.923858 Z M235.083229,167.062135 L236.092611,166.866889 L235.307945,167.459993 L235.083229,167.062135 Z M193.193887,175.085614 L233.871234,167.294219 L234.357505,168.174665 L191.631924,200.275951 L193.193887,175.085614 Z M174.332447,213.272662 L160.959981,181.259789 L191.948737,175.325066 L190.342568,201.24481 L174.332447,213.272662 Z M187.587029,245.012928 L174.859241,214.539915 L190.232051,202.987283 L187.627552,245.016612 C187.612816,245.016612 187.598081,245.012928 187.587029,245.012928 L187.587029,245.012928 Z M228.33437,154.783779 L207.645728,117.152997 L235.70212,161.912077 L228.33437,154.783779 Z M234.423815,165.857508 L230.261037,158.290828 L236.45363,164.280809 C236.27312,164.656564 236.206811,165.072842 236.22523,165.511223 L234.423815,165.857508 Z M159.788509,181.484505 L173.367272,213.998385 L141.88856,237.652546 L8.50281646,210.469233 L159.788509,181.484505 Z M159.272766,180.254091 L8.91541046,209.058309 L139.737177,133.490982 L159.272766,180.254091 Z M180.374002,110.017331 L195.109502,124.277611 L192.029782,173.976768 L160.444239,180.029374 L140.761295,132.901562 L180.374002,110.017331 Z M179.38304,109.05584 L140.245552,131.66378 L97.8478355,30.1619739 L179.38304,109.05584 Z M190.898833,94.2429786 L98.658288,28.7547337 C98.6914429,28.6442175 98.746701,28.5484367 98.7614365,28.4305527 L122.212984,28.7952563 L190.898833,94.2429786 Z M196.273606,125.397509 L227.394982,155.516871 L233.208136,166.089592 L193.274932,173.741 L196.273606,125.397509 Z M195.562618,101.246025 C195.842593,101.540735 196.152038,101.769135 196.494639,101.927542 L195.208966,122.7267 L181.438642,109.405808 L195.562618,101.246025 Z M194.873734,100.111391 L180.44768,108.444317 L102.235331,32.7591058 L194.811108,98.4868025 C194.671121,99.002545 194.685856,99.5551263 194.873734,100.111391 L194.873734,100.111391 Z M196.365703,123.850282 L197.710317,102.185413 C197.824518,102.178045 197.93135,102.159626 198.041866,102.137523 L225.468315,152.009822 L196.365703,123.850282 Z M143.631033,238.002514 L173.89775,215.265638 L186.481867,245.392368 C186.069273,245.683394 185.815085,246.107039 185.664046,246.574891 L143.631033,238.002514 Z M150.460937,-42.1561751 C150.84406,-41.9498781 151.241919,-41.8393619 151.654513,-41.8283102 L173.982479,28.3126687 L124.113864,27.539055 L108.674744,12.5235807 L150.460937,-42.1561751 Z M339.72738,206.641687 L254.508301,142.103882 L323.323085,33.7095455 C323.463073,33.7721714 323.595692,33.8679521 323.743047,33.9047909 L340.659401,206.129628 C340.427317,206.192254 340.187865,206.247512 339.977884,206.383816 C339.871052,206.450126 339.819477,206.560642 339.72738,206.641687 L339.72738,206.641687 Z M343.591765,207.382146 C343.160752,206.722732 342.530809,206.288035 341.867712,206.111209 L324.958726,33.8826876 C325.19081,33.8274295 325.422894,33.7721714 325.632875,33.635868 C326.782244,32.8843575 327.018012,31.2229299 326.163353,29.9225221 C325.312378,28.6221142 323.695157,28.1689976 322.545788,28.9205081 C322.262129,29.1047018 322.033729,29.3515215 321.864271,29.6314959 L153.960619,-44.0496868 C153.99009,-44.6501584 153.864838,-45.2874688 153.49645,-45.8547855 C152.634424,-47.1515095 151.020886,-47.6009423 149.875201,-46.8531157 C149.385246,-46.5326185 149.097904,-46.0242438 148.957916,-45.4642948 L35.4650972,-60.5866014 C35.3877358,-60.9476212 35.2477486,-61.3049571 35.0267161,-61.6401897 C34.175741,-62.9405975 32.5585199,-63.3863464 31.4165186,-62.6348359 C30.2671496,-61.8870093 30.0350655,-60.2292656 30.8823568,-58.9251738 C31.0002407,-58.7520317 31.1549635,-58.6378316 31.2912669,-58.4941605 L-71.8240767,137.790064 C-72.5424323,137.521141 -73.3197299,137.535877 -73.9607242,137.952155 C-75.0990415,138.699981 -75.3458612,140.365093 -74.4838344,141.672869 C-73.9238854,142.531211 -73.0287038,142.969592 -72.1556255,142.988012 L-11.8211216,326.496558 C-11.8616442,326.518662 -11.9132185,326.518662 -11.9537411,326.544449 C-13.0920585,327.292275 -13.3278265,328.953703 -12.4768513,330.254111 C-11.6295601,331.558203 -10.0049713,332.003951 -8.8666539,331.256125 C-8.6750924,331.130873 -8.54615678,330.950363 -8.40616953,330.777221 L111.559218,401.481833 C111.43765,402.178085 111.57027,402.951699 112.016019,403.629532 C112.866994,404.940991 114.487899,405.38674 115.626216,404.63523 C116.56192,404.02739 116.852946,402.819079 116.484559,401.680762 L302.785483,296.262997 C303.680664,297.239224 305.040014,297.552353 306.056763,296.892939 C307.191397,296.145113 307.427165,294.480001 306.57619,293.179593 C306.425151,292.947509 306.229906,292.778051 306.03466,292.604909 L341.094098,211.342311 C341.764563,211.537557 342.471867,211.478615 343.064971,211.099176 C344.206972,210.343981 344.44274,208.686238 343.591765,207.382146 L343.591765,207.382146 Z" id="Fill-1" fill-opacity="0.4" fill="#BFD0E0" mask="url(#mask-2)"></path>
                    </g>
                    <path d="M193.230576,175.556694 L193.351029,174.203026 C193.520314,172.302684 192.636451,170.56667 191.197528,169.52376 C191.410762,167.506274 191.532843,165.462756 191.532843,163.389952 C191.531215,131.142715 167.085801,105 134.99977,105 C102.91374,105 78.4683258,131.142715 78.4683258,163.389952 C78.4683258,165.462756 78.5904064,167.506274 78.8036405,169.52376 C77.3647174,170.56667 76.4824818,172.304311 76.6501391,174.203026 L76.770592,175.555067 C72.9079626,177.69946 70.4761176,183.854419 71.0962869,190.86681 C71.718084,197.880828 75.1965664,203.516773 79.3766053,204.950165 L79.4172988,205.413861 C79.6712264,208.292033 82.2088746,210.41202 85.0834652,210.159834 C85.3878528,210.132175 85.6775907,210.067095 85.9624453,209.992253 L86.0291827,210.743929 C86.3726361,214.658503 89.8283302,217.548063 93.7414195,217.201511 C97.6610198,216.854959 100.55026,213.400828 100.203551,209.491135 L96.5720611,168.536168 C96.2237245,164.619967 92.7712859,161.732034 88.8549411,162.078586 C87.4860109,162.200611 86.2505555,162.711491 85.2299619,163.481064 C85.2120567,162.926255 85.1681077,162.377955 85.1681077,161.818265 C85.1681077,145.23095 93.1896153,130.532588 105.547425,121.416479 C109.673748,118.37398 122.233398,115.333108 134.784909,115.272909 C134.856529,115.272909 134.929778,115.276163 134.998143,115.276163 C135.068135,115.276163 135.141384,115.272909 135.211377,115.272909 C147.764515,115.334735 160.322537,118.37398 164.44886,121.416479 C176.80667,130.532588 184.828178,145.23095 184.828178,161.818265 C184.828178,162.377955 184.784228,162.927882 184.766323,163.482691 C183.744102,162.711491 182.510274,162.200611 181.138089,162.078586 C177.224999,161.732034 173.770933,164.619967 173.424224,168.536168 L169.795989,209.491135 C169.447653,213.400828 172.338521,216.854959 176.25161,217.201511 C178.818558,217.429292 181.16576,216.25134 182.591661,214.321713 C179.038303,222.139471 170.038523,230.381878 147.676617,229.400794 C147.066214,226.325755 144.357653,224.007273 141.102171,224.007273 L131.986822,224.007273 C128.282083,224.007273 125.280529,227.00747 125.280529,230.710533 C125.280529,234.41685 128.282083,237.413793 131.986822,237.413793 L141.102171,237.413793 C144.300682,237.413793 146.96855,235.176661 147.640807,232.187853 C157.547239,232.671074 181.354578,231.437804 187.963207,209.491135 C189.397246,208.671125 190.422723,207.19055 190.580614,205.417115 L190.621308,204.953419 C194.801347,203.520027 198.281457,197.884082 198.903254,190.870064 C199.525051,183.856046 197.093206,177.702714 193.230576,175.556694 Z" id="Shape" fill="#FFFFFF" fill-rule="nonzero"></path>
                </g>
            </g>
        </g>
    </g>
</svg>