<?xml version="1.0" encoding="UTF-8"?>
<svg width="42px" height="31px" viewBox="0 0 42 31" version="1.1" xmlns="http://www.w3.org/2000/svg" xmlns:xlink="http://www.w3.org/1999/xlink">
    <!-- Generator: Sketch 44.1 (41455) - http://www.bohemiancoding.com/sketch -->
    <title>indonesia</title>
    <desc>Created with Sketch.</desc>
    <defs>
        <path d="M29.4252632,18.7485786 L0.51625731,18.7485786 C0.231169591,18.7485786 0,18.5282982 0,18.2566394 L0,0.547664075 C0,0.276005308 0.231169591,0.0557248754 0.51625731,0.0557248754 L29.4253216,0.0557248754 C29.7104094,0.0557248754 29.9415789,0.276005308 29.9415789,0.547664075 L29.9415789,18.2566394 C29.9415205,18.5282982 29.7103509,18.7485786 29.4252632,18.7485786 Z" id="path-1"></path>
        <filter x="-28.4%" y="-45.5%" width="163.5%" height="201.6%" filterUnits="objectBoundingBox" id="filter-2">
            <feOffset dx="1" dy="1" in="SourceAlpha" result="shadowOffsetOuter1"></feOffset>
            <feGaussianBlur stdDeviation="3" in="shadowOffsetOuter1" result="shadowBlurOuter1"></feGaussianBlur>
            <feColorMatrix values="0 0 0 0 0   0 0 0 0 0   0 0 0 0 0  0 0 0 0.3 0" type="matrix" in="shadowBlurOuter1"></feColorMatrix>
        </filter>
    </defs>
    <g id="Contact-Us" stroke="none" stroke-width="1" fill="none" fill-rule="evenodd">
        <g transform="translate(-1130.000000, -583.000000)" id="Customer-Service" fill-rule="nonzero">
            <g transform="translate(135.000000, 498.000000)">
                <g id="Country" transform="translate(600.000000, 90.000000)">
                    <g id="indonesia" transform="translate(400.000000, 0.000000)">
                        <g id="Shape">
                            <use fill="black" fill-opacity="1" filter="url(#filter-2)" xlink:href="#path-1"></use>
                            <use fill="#FFFFFF" fill-rule="evenodd" xlink:href="#path-1"></use>
                        </g>
                        <path d="M29.9415205,9.36177906 L0,9.36177906 L0,0.507263541 C0,0.235604773 0.231169591,0.0153243407 0.51625731,0.0153243407 L29.4253216,0.0153243407 C29.7104094,0.0153243407 29.9415789,0.235604773 29.9415789,0.507263541 L29.9415205,9.36177906 L29.9415205,9.36177906 Z" id="Shape" fill="#E70011"></path>
                        <path d="M0,9.36177906 L29.9415205,9.36177906 L29.9415205,18.2162946 C29.9415205,18.4879534 29.7103509,18.7082338 29.4252632,18.7082338 L0.51625731,18.7082338 C0.231169591,18.7082338 0,18.4879534 0,18.2162946 L0,9.36177906 Z" id="Shape" fill="#FFFFFF"></path>
                    </g>
                </g>
            </g>
        </g>
    </g>
</svg>