<svg width="90" height="90" viewBox="0 0 90 90" xmlns="http://www.w3.org/2000/svg"><title>Thumbs</title><path d="M88.528 41.19c2.147 2.477 1.918 6.26-.508 8.451l-1.702 1.493c-1.9 1.699-2.52 4.45-1.538 6.826l.888 2.174c.093.224.171.455.235.689.879 3.182-.938 6.488-4.058 7.385l-2.226.634c-2.424.691-4.147 2.885-4.281 5.45l-.135 2.39c-.167 3.173-2.733 5.66-5.846 5.666-.351 0-.7-.033-1.043-.097l-2.275-.41c-2.425-.393-4.83.799-6.029 2.984l-1.11 2.068a6.05 6.05 0 0 1-.413.662c-1.912 2.663-5.578 3.24-8.186 1.288l-1.912-1.375a5.773 5.773 0 0 0-6.84 0l-1.914 1.366a5.762 5.762 0 0 1-.67.43c-2.852 1.558-6.401.462-7.928-2.449l-1.1-2.066c-1.196-2.26-3.674-3.488-6.153-3.053l-2.275.399c-.323.07-.653.112-.984.127-3.128-.006-5.702-2.515-5.849-5.704l-.105-2.35c-.12-2.565-1.831-4.767-4.251-5.471l-2.217-.644a5.53 5.53 0 0 1-.699-.249C4.42 66.52 3.021 63.006 4.278 59.96l.9-2.166c.989-2.369.38-5.118-1.51-6.825l-1.72-1.561a5.991 5.991 0 0 1-.506-.525c-2.127-2.494-1.872-6.276.572-8.447l1.701-1.492c1.901-1.7 2.519-4.45 1.54-6.827l-.89-2.174a5.823 5.823 0 0 1-.234-.688c-.88-3.184.937-6.49 4.057-7.386l2.226-.634c2.425-.69 4.148-2.885 4.28-5.45l.135-2.4c.167-3.172 2.733-5.659 5.85-5.665.348 0 .696.033 1.04.097l2.275.42c2.472.442 4.945-.77 6.154-3.014l1.09-2.117c.124-.23.262-.45.412-.662 1.913-2.662 5.579-3.24 8.188-1.287l1.806 1.423a5.768 5.768 0 0 0 6.842 0l1.912-1.364c.213-.158.436-.302.67-.43 2.85-1.558 6.402-.462 7.928 2.448l1.099 2.106c1.198 2.259 3.677 3.482 6.154 3.044l2.274-.4c.302-.067.605-.109.91-.127 3.128.005 5.7 2.515 5.847 5.703l.104 2.351c.123 2.565 1.833 4.766 4.256 5.47l2.215.643c.237.069.47.152.7.25 2.984 1.285 4.383 4.798 3.122 7.844l-.897 2.166c-.988 2.37-.382 5.119 1.507 6.825l1.732 1.562c.18.163.349.336.51.519zM27.131 61.043V44.417c0-.77-.589-1.395-1.314-1.395h-3.503c-.725 0-1.314.625-1.314 1.395v16.626c0 .77.589 1.395 1.314 1.395h3.503c.725 0 1.314-.624 1.314-1.395zm40.386-14.985c2.408-3.406-.327-7.945-4.413-8.39-2.305-.252-11.695-.06-14.002-.11-1.27-.029.208-11.58-3.865-14.52-1.93-1.394-4.552-.182-4.443 4.842a6.658 6.658 0 0 1-1.677 4.572c-1.636 1.826-3.024 3.857-4.607 5.723-.96 1.131-1.767 2.566-3.22 3.016-1.554.481-1.916 1.434-1.909 2.828.018 2.824.006 5.648.006 8.474 0 2.893-.01 5.787.005 8.68.008 1.605.512 2.292 1.948 2.508 1.303.197 8.87 1.22 10.092 1.68 5.136 1.938 11.117 2.453 16.646 1.969 3.908-.343 7.224-2.845 6.254-6.703-.181-.72-.188-.753.413-1.317 1.217-1.143 1.807-3.023 1.243-4.631-.197-.563-.309-.974.22-1.586.923-1.071 1.066-2.678.728-3.963-.338-1.286-.103-2.103.581-3.072z" fill="#4699C7" fill-rule="evenodd"/></svg>