<svg xmlns="http://www.w3.org/2000/svg" width="34" height="50" viewBox="0 0 34 50">
  <path fill="#004385" fill-rule="evenodd" stroke="#004385" stroke-width="1.5" d="M22.407213 12.3530158C28.718234 14.5828856 33 20.4740938 33 27.2229031v17.0400237C33 46.8751971 30.858578 49 28.226424 49H5.773037C3.140883 49 1 46.8751971 1 44.2629268V27.2229031c0-6.7493427 4.281766-12.6400175 10.592248-14.8682873-.662218-.4261339-1.103337-1.1616016-1.103337-2.0000027 0-.9360013.552747-1.7397358 1.347624-2.1306697l-1.647994-1.6314689c-.629323-.6218675-.97607-1.4485353-.974992-2.3285365.000539-.8789346.347287-1.7061357.976609-2.3290699 1.25541-1.2421351 3.451298-1.2442684 4.708325 0l2.09936 2.0768028 2.103674-2.0784028c1.256488-1.2448018 3.450758-1.2442684 4.708325.0010666.629322.6213342.97607 1.448002.97607 2.3280033 0 .8794678-.346748 1.706669-.97607 2.3290699l-1.647456 1.6304022c.795416.3909339 1.348703 1.1946683 1.348703 2.131203 0 .8384011-.441119 1.5738688-1.103876 2.0000027zM12.288979 25.3914339c0-2.5706702 1.455477-4.1818724 3.993798-4.4213394l.196832-.0186667v8.8165455l-.40337-.1136001c-2.689855-.7306677-3.78726-1.9658694-3.78726-4.2629393zm5.911965 5.8053414l-.925919-.2816004v9.875747l.195754-.0154666c2.790158-.2256004 4.664644-2.1936031 4.664644-4.8981402 0-2.8890706-1.50455-3.9322721-3.934479-4.6805398zm2.42885-18.4554923h-7.259588C6.613751 14.391952 1.899494 20.3396936 1.899494 27.2229031v17.0400237c0 2.1216029 1.738052 3.847472 3.874082 3.847472h22.453387c2.13603 0 3.874082-1.7258691 3.874082-3.847472V27.2229031c-.000539-6.8826762-4.714796-12.8304178-11.471251-14.4816201zm-3.182743 28.6965732l-.172026.008v2.5002701l-.015638.209067h-.779778v-2.7376038l-.171486-.008c-4.656016-.2165337-5.350051-3.6709385-5.350051-5.7109413v-.4800006h.906505v.5386674c0 3.0293375 1.486215 4.7056065 4.416582 4.9845402l.197911.0186667V30.6458412l-.931851-.3146671c-2.880215-.985068-4.165824-2.4725368-4.165824-4.82134 0-3.0165375 1.888507-5.011207 4.929424-5.2042739l.16879-.0106667v-2.1754697h.779778l.015638.0058667v2.1450697l.16933.0096c3.336434.1861336 5.05669 1.944536 5.11547 5.2309406h-.91028c-.057162-2.8245373-1.501314-4.4037395-4.183081-4.5701397l-.191439-.0117334v9.1008127l1.392383.4592006c2.702258.8906679 4.375598 2.0869362 4.375598 5.2981407 0 3.3280046-2.144118 5.4928076-5.595955 5.6506745zM10.824334 5.9620736c-.459454-.4533339-.71183-1.0565348-.711291-1.6981356.00054-.6416009.253994-1.2458684.713988-1.7008024.914594-.9077346 2.517829-.9082679 3.436198 0l2.416447 2.39147c.175801.1738669.460533.1738669.635794 0l2.42238-2.3925367c.916211-.9082679 2.517829-.9082679 3.436198.0016.459454.4528007.712369 1.0565348.712369 1.6986691 0 .6421342-.252915 1.2458683-.712369 1.700269l-2.023863 2.0032028h-8.301988l-2.023863-2.0037362zm.564072 4.3914728c0-.8256011.680013-1.4976021 1.515335-1.4976021h8.192518c.835322 0 1.515335.672001 1.515335 1.4976021 0 .8261345-.680013 1.4981354-1.515335 1.4981354h-8.192518c-.835322 0-1.515335-.6720009-1.515335-1.4981354z"/>
</svg>