<svg xmlns="http://www.w3.org/2000/svg" width="79" height="48" viewBox="0 0 79 48">
  <path fill="#004385" d="M38.075643 33.1823463c.598869.5283238.775627 1.3798056.618216 2.0076304-.158292.6260637-.566331 1.5347807.012311 2.6521855.578642 1.1165243.444095 1.7091275.797612 2.4294089.351758.7220426.02902 1.4440851 1.01834.931611.9902-.5124741 1.147611.099501 2.264444-1.2054588 1.116832-1.3058403.322738-.7255647.488944-1.1068384.164447-.3821542 1.028013.2280598.739572-.9835628-.288442-1.2116225 1.704268-1.7874955 1.472987-3.0633975-.230401-1.2732603-.185552-.2615202-.229522-.9360136-.04309-.675374-.427386-.1708247.572487-1.3577922.998993-1.1852064 2.15364-1.8887576 2.377886-3.0537116.223366-1.1649539-1.171355-.0361021-1.626882.0290579-.452889.0651599-.866205-1.308482-1.369219-1.3938943-.503894-.0854124.063316-.2597592-.256784-.6084529-.319221-.3469327-.167965-.7044318-.485426-1.0848249-.314824-.3821542-1.028014-1.3894916-1.139697-1.874669-.110804-.4851773.254145.6234221.555778.2307014.299874-.3918401.075628.3513354.68329.9932488.605904.6419134.096734.7616668.683291 1.0971524.584798.3363661.890828 2.1819773 1.361304 1.9715283.470477-.2113295 2.362057-1.0769 2.448238-1.088347.086181-.0105665.366708-.2826533.424748-.4006456.058919-.1171117.173241-.0202524.313944-.1329615.143342-.110948-.228643-.3530964.112563-.4297033.342085-.0774875.162688-.6841793.016708-.853243-.144221-.1699441-.645476-.1540944-.651632-.6154972-.004397-.3469326-1.026255 1.0407979-1.553892.0264162-.361432-.6982679-.775627-1.032873-.425628-1.1499848.018468-.0061638.109925-.1998825.301633-.0475491.064196.0519518.828391 1.2820657 1.36834.9615493.539949-.3205165.248869.1963603 1.115074.3293218.867084.133842 1.633917-.0246551 1.894218.1514528.26206.1752274.259422.3619018.377261.3134722.119597-.0484297.333291.2095684.56721.1725857.231281-.0361021-.589195.4587612.071231.6392718.660426.1787496.539069-.7889635.504773-.21221-.034296.5767535.855652 3.75286 1.488817 3.5582608.634044-.1963604.55226-1.9556786.750124-2.0234802.197864-.066921 1.327008-1.0293509 1.348114-1.3974164.020226-.3689462.944471.0906955.860928-.497505-.086181-.5864394.374623.499266.642838.654241.269975.1540945.077387.132081.139824.2351041.062437.1030232.448492.1655415.326256.7273258-.120477.5609037.573366.1285588.648994-.1602582.07299-.2896976.61206 1.4564126.551381 2.0410909-.061557.5837978.385176.4983855.499497 1.0046958.11608.5045492.802888 1.4467266 1.030652 1.1799231.229522-.2668035.065075-.5344876-.129271-.4068093-.194347.1285588-.094975-.5476957-.494221-.8532429-.397487-.3055473-.853893-.2474317-.750124-1.0997941.103768-.855004.282286-.6921042.385175-.6110945.102889.0827707.328894.0563545.4652.1285588.136307.0722042-.11608.4182563.281407.4420309.397487.0255356.157412.6586437.666582.2183738.116959-.099501 1.107159-1.2494858.005276-2.0498963-.774747-.5609038.342085-1.5339001.450251-1.3877305.109045.1479306.084422.3627823.662185.1118285.577763-.2483122.128391-.2668035.518843-.1937187.388693.0739653 1.023617-.5019076 1.103642-.7519809.080025-.2483122.133668-.2122101.109045-.5837978-.025503-.3707072.475753-.5371292.373743-.7422949-.102889-.2051658-.282286-.3830348-.060678-.5635454.222487-.1813912-.284925-.7088345-.534673-1.0945108-.251507-.3865569-.450251-.3795126-.107286-.7149982.342964-.3354856.764195-.3953623.197864-.4226591-.56809-.0264162-.277889-.1083064-.454648.1602582-.175879.2694452-.245351-.1752273-.26206-.2183738-.016708-.0431464-.532034-.2491927-.332411-.432345.199623-.1831522.248869.0079249.302512-.2271792.052764-.2359846.534672-.6058113.678893-.3574991.141583.2474316-.091457-.0070443-.129271.2535954-.038693.2597592-.007035.3583797.279648.1373642.287562-.2201349.397487-.0818902.575125-.0079249.177638.0739654.094095.5239211.201381.5741119.104648.0501908.496859.1479307.434422.2342236-.061558.0845318.073869.1470501.112562.3416494.038694.1937187-.127512.4746108.528517.3733488.653391-.1012621-.6103-1.3701197-.678014-1.5374223-.067713-.1673025-.26118-.2351041.084422-.2624008.342965-.0290578.185553-.3663045.101131-.1681831-.085302.199002-.154774-.055474-.059799-.1488112.094975-.0933372.336808.076607.231281-.2395068-.103769-.3152332.077387-.7167593.349999-.7731138.275251-.0563545.357914.6718518.97613-.9043142.619094-1.5752855.080904-2.1511584.045728-2.9471663-.035176-.7942468-.809923-1.2582912-1.01834-.8585262-.207537.398004-1.246104.52216-.415075-1.4308769.831029-1.9539176 2.411303-1.6492508 2.392836-1.5867325-.018468.0625183-.183794.2844143.104648.1444085.287562-.1408864.090578-.1558555.157412-.1699442.067713-.0140886.310426.053713.301632-.1267977-.009673-.1805106-.452888.0396243-.269095-.4904606.182915-.5300848.152136-.9289693.489824-1.0399173.336808-.1118285-.021985.2509538.153015.0801291.174999-.1690636-.129272-.0352216.180276.2800116.309547.3152332.264698-.1699441.415954-.4217785.152135-.2518343.211934.1312004.017588-.2844143-.196106-.4164953.330653-.478133.325376-.3407689-.004397.1373642-.176758.1937188.034297.6568826.209296.4631639-.077387.6058113-.167965 1.2230696-.090578.6163778-.078266.8717343-.193467 1.4035803-.115201.5318459.857411 1.8711468 1.102762 2.5958309.244472.7238036.588316.1901966.377261-.3504548-.211055-.5424124.367587-.1532139.051884-.6295858-.317462-.4772525.445854-.5688287.146859-.8550041-.297235-.2844143-.229522-.8849423-.143341-.6868209.084422.1981214.220728-.0651599.045728-.2870559-.174999-.2210155-.205778.0581156-.238316-.1593777-.030779-.2183739.312186-.0466686.012312-.2958613-.302512-.2509538-.238317.1990019-.568969-.9712353-.329774-1.1693567.08706-.0871734.265577-.2606397.179397-.1717053.517085-.7854414.979647-.4270618.462562.3583797.153894-1.0381562.714949-1.6554145.558416-.6163778.724622-.109187.36319-.6304664-.360552-.520399-.445854-.1056648-.446733-.1065453 0 0-.627888-.2192544-.838943-.4798942-.210176-.2606397-.274372-.1021426.043969-.2535954.317462-.1505723.641959-.2474316.444975-.8558845-.196985-.608453-.29108.1990019-.350879-.2579982-.05892-.4561195.40628.1356031.493341.0774875.08706-.055474.022864-.4834163.314823-.3663045.289321.1162313.109925.3856764.416834.120634.306909-.2668036.647235.1241561.210175-.2932197-.437059-.4164953-.236557-.5600233-.145979-.7405339.089698-.1796301.042211-.1655415.016708-.2579981-.026382-.0915762-.13103-.2527149-.619094-.4191369-.463442-.1584972-.078267.03258-.313065.1717052-.211055.1276783.656908.7229231.190829.6110946-.466959-.1118286-.407161-.5899616-1.447486-.6700907-1.039445-.0783681-1.757032-.2518344-2.255649-.1003816-.499497.1496918-.856532.1514529-.476633.4570001.382537.3064278.590075.1954798.458165.4490753-.131909.2518343-.881154-.2738479-.879395-.3390078.002638-.0660405.137185.1276782.167085-.0405048.030779-.1673026-.177638-.4076899-.328015-.1805107-.150377.2271793.048367.5027882-.644597.4640444-.053643-.0035221-.444095.2403874-.58216.3196359-.438818.2474317-.692964-1.1429405-1.809796-.4068093-1.117712.7352506-.346482.1928382-.580401.0563545-.235678-.1356031-.304271.0915762-.43618.0836513-.13191-.0070443-.047488-.2430289-.153895-.0836513-.106407.1593777-.039573-.1769884-.08706-.1831522-.048367-.0070443-.401004.1426474-.07211-.122395.328894-.265923-.564572-.3125916-.730778-.1179923-.165327.1954798.033417.6154972-.123995.5934837-.158291-.0220135-1.115953-.9536245-1.36834-.4922217-.253266.4614028.26294.0616378.270854.1690636.007035.1065453-.430024.432345-.147738.3495743.282286-.0818902-.097613-.1303199.224246.2377457.322738.3689461-.554899-.0739653-.200502.3354856.353517.409451-.595351-.1056647-.619974.199002-.023744.3037862-.493341-.1910771-.621733-.1787496-.128392.0123276.245351.7149982.212814.83211-.033417.1171118-.819597-.2764894-.682411-.5001465.137185-.2236571-.007036.1901966-.299874-.0052833-.294598-.1963603.219849-.0449075.067713-.288817-.152135-.2439095-.21809-.0440269-.270854-.0924566-.054522-.0484297.16005-.0361022-.142462-.3504548-.301633-.3134721-.608542-.0598767-.661305-.0572351-.051005.0044027-.175-.3187554-.48103-.0959788-.30603.2227765.454648.3108305-.172361.5855589-.628768.2756089-.846858-.2518344-1.028014-.1937188-.181155.0589962-.643718.1188729-.693843.2403874-.051005.122395.333291.367185.011432.1734663-.322738-.1945993-.152135-.1919577-.344723-.1743469-.192588.0176108-.52412-.2421484-.548743.0334605-.024623.2756089.167965.27737.011432.5864394-.158291.3090695-.109045.4913412-.340326.3143527-.230402-.1761079.45113-1.9803337.399246-2.108012-.051885-.1276782-.305151.0422659-.279648-.1549749.023744-.1972409.289321.1637803-.059799-.3372467-.348241-.5001466-.228643.0801291-.694723-.3275608-.4652-.4068093-.561054.1188729-.572486.2078074-.013191.0915761.220728-.2095685.085301.2439095-.135427.4534779-.192587-.3530964-.277009-.4156148-.086181-.0607572-.525879.231582-.603266.1444085-.077387-.0862928.323618-.4253006-.228643-.4807746-.818717-.0827707.395728 1.1887285.13103 1.2459636-.584798.1285588-.27613.0792486-.192587.1708247.083542.0915761.051884.2456706-.034297.2245376-.086181-.0211329-.026382-.3619018-.235678-.2148517-.207537.1479307-.317462.3944818-.39221.3689462-.07387-.0272968.171482-.0836513.004397-.2078074-.167086-.1259172-.702638.298503-.416834.2624008.285804-.0361021-1.072863.7317285-.848617.7898441.225126.0589962-.413316.2597592-.02814.4525974.383416.1928382.05716-.1584971.032537.0607572-.024623.220135.475753.1003816.473115.2764895-.002638.1761079-.131909.0968594-.163568.2148517-.031658.1179923.138066.057235.103769.1356031-.033417.0792485-.136306.0255356-.158291-.076607-.021985-.1039037.178517-.256237.095854-.2870559-.081784-.0316994-1.588188.5829173-.446733 1.0918692 1.143214.5089519.53819 1.5365417 1.14937 1.3172873.61206-.2201349.210176.8259462-.36407-.0052832-.157411-.2280598-.183793-.321397-.199622-.3566186-.123116-.2712062-.157412.6595242-.200503-.044027-.04309-.7026706-.308667-.4358671-.845978-.7607862-.535552-.3249192-.578643.1805106-.46608.1655414.113442-.0158497.308668.1047842.200502.1813912-.107286.0766069-.543466-.3398883-.419471-.0193719.123994.3205165.783541.3117111.792335.4596417.010553.1479307-.759798-.0334605-.806406-.1734663-.046608-.1391253-.255904-.8417959-.374622-.7449365-.117839.0977399.20314.2201349.094974.445553-.109045.2254182-.215452.0528324-.102889.455239.114322.4041677.421231-.2377457.389572.4869385-.034296.7246841 1.07726.4261812 1.20829.899031.200502.7158787.249748.0862929.294598.3548575.022864.1488112-.167086.422659-.362311-.0730848-.195226-.4957439-.933919-.5230406-.712311-.1673026.220728.355738.167085 1.2213085-.519723 1.0971524-.361431-.0642794-.282286-.2280597-.118718-.2139711.239195.0193719.656029.0845318.095854-1.3586727-.230402-.5899616-.498617-.9439385-.546105-1.4185494-.047487-.4737303-.317462-.4446725-.593592-.4156147-.277889.0281772-.123995-.388318-.187311-.0316994-.063317.355738.098492.7757554-.074749 1.0055762-.173241.2298209.201382.8576457.271733.9738769.070352.1179923.395729.1294394.558417.2694452.160929.1382447.063316.3451715-.023744.3918401-.08706.0466686-.23216-.2474316-.40716-.3029056-.175-.055474-1.305023-.5239211-1.395601-.3390078-.090578.1857939-.504773-.4886995-.520602-.187555-.010553.2192544.978767.8823008.398366 1.031112-.021985.0052832.021985-.0730848-.018467-.2615203-.095854-.4393893-1.055275.5529789-1.131783.3522159-.079145-.2007631.303392-.5168768-.040452-.30995-.175.1056648-.200502.2993835-.20402.2958613-.152135-.1171117-.477511.2606398-.619974.2905781-.14422.0299384.115201.0695627.072111.1100675-.04309.0405048-.138945-.0845318-.21897.0281773-.079145.112709.159171.6146166-.360552.3891985-.520602-.2254182.551381-.4948633-.167964-.7704722-.718467-.2764895-.296357.3037862-.292839.6419134.003517.3381272.515326.4446725.182914.5503373-.332411.1065453-.143341-.3548575-.657788.0378632-.512687.3918401-.112562.7088344-.772109.4200174-.659547-.2896975-.141583.2051658.019346.3266802.161809.120634.386055-.0589961.288442.2342236-.095854.2932197-.821355-.2720868-.810803-.6093335.011433-.3363661-.675375-.6744933-.577762-.7449365.095854-.0704432-.089699.0810096.789697.3310829.878516.2509538.517084-1.1174048-.240075-1.3692392-.75628-.2509538-.376382-.0519518-.424748-.0193719-.050126.03258-2.108791-.8065743-2.143967-.1963603-.035176.6093334-.275251-.0193719-.417713.1127091-.141583.1312004-.030779.034341-.168844-.0537129-.138065-.0889346-.024623.133842-.14598.0792485-.122236-.055474-.041331-.2034046-.166205-.0361021-.125754.166422-.513567.30995-.255025.3601407.258542.0493102-.183794.2535954-.159171.3205165.025503.0660404-.077386.5811561-.277009.6198999-.198744.0405048-.179397.4041677-.188191.4297033-.009673.0264162-.213693-.3055472-.154774.0272968.058041.3337245-.749245 1.132374-.540828 1.1825647.207537.0493103.430025-.3037861.20314.0572351-.226004.3619018-.519722-.4393893-.484547.1179923.035176.5565011-.874119.8673316-.722863 1.4141467.150377.5476957.067714-.055474.243593.0422659.175879.0968594-.290201.4429115.270854.5556206.561054.112709.359672-.2905781.590954-.3856764.231281-.0933372.149497-.2676841.385175.4649249.234799.7334896.253266.34253.322738.464925.070352.1232755-.33417.2685646.01407.3891985.348241.1197534.178518-.210449.590075-.2465511.411557-.0352216.097613-.8417959.162688-.9465801.064196-.1056648.444095-.0572351.33417-.265923-.109924-.2086879.610301.3962428.010553-.3742294-.599748-.7704722.459045-1.2706187.473115-1.8015841.01495-.531846-.217211-.6965069.486306-.5688286.702637.1259171.07299.5723507-.185553.8734953-.257663.300264-.181155.2166128-.347361.1998825-.166206-.0149692.042211.8708537.1451 1.0804222.103769.2095684.33505.1540944.455527.323158.120478.1699442 1.041205-.3372467 1.219722-.2896975.177638.0484297.17412-.1813912.21897.1523333.044849.332844-1.433415.2826533-1.254898.6410329.178517.3592602.205779.1408864.175879.2236571-.028141.0845318.08706.3847958-.129271.3980039-.215452.0149692-.315703-.5785145-.510929-.0220135-.195226.5582622.605024.9157613-.07299.8893451-.678893-.0272967-.223366.122395-.490703.0484297-.267336-.0748459.10201-.4068093-.532034.0264162-.634924.4323449-.507411-.0405049-.634044-.0748459-.127513-.0334605-.423869.3231581-.603266.2254182-.178517-.09774-.322738-.4376283-.342085-.531846-.017587-.0915761.311307-.2042852.379899-.2861754.069473-.0818902-.184673-.0396243-.187311-.1628998-.001759-.1232756.226005-.1673026.066834-.30995-.15917-.1408863-.446733.2923392-.349999.4103315.094974.1171118-.157412-.0149692-.132789.1875549.022864.2016436.146859.7370117-.017588.9025532-.163568.1655414-.113442-.1646609-.230402-.0493102-.090577.089815.144221.1267977.148618.1866744.00088.0211329-.066834.0466686-.138944.0176108-.281407-.1162313-1.366581 1.1772815-1.832661 1.444085-.466959.2676841-.798491-.1479306-.692084.1496918.107286.2967418-.021106.066921.07299.133842.094095.066921.357034.0105665.447612.2192544.091457.2095684-.04397-.0246551.237437.2571176.279648.2817726.099372.17963.009673.2712062-.089698.089815.048367.4587611-.11608.6269442-.164447.1673026-.204899-.0008805-.370226-.0176108-.165326-.0158497.024624-.045788-.207537-.0140886-.23216.0308189-.300753-.0405048-.420351-.055474-.120477-.0167303-.066834.0149692-.204899.0123275-.138065-.0035221-.08706-.0413853-.219849-.0369826-.133668.0035221-.085302.0810096-.149497.1294393-.064196.0493102-.162689-.0633988-.2049.0281773-.043969.0924566.010553.0704432.065955.177869.055402.1091869.025503-.078368.011432.1540944-.01495.233343.006156.55474-.062437.7378923-.069472.1831522-.010553.0290578-.017588.044027-.007035.0140886-.009673.0211329-.030779.0642794-.020226.0422659-.074748.0545934-.060678.1496917.01495.0950983-.046608-.0220135.113442.0070443.16005.0281773-.090578.0061638-.055402.1162312.036055.1100675.099372.0044027.096734.1496918-.002639.1461696-.14598.2412679-.038694.2782505.105528.0369827.067714-.0149691.190829-.0026416.122236.0132081.018467-.0545935.23304-.0281773.215452.0264162.208417.3046668.372864.3354856.164447.0308189.26206-.1945992.386934-.2166127.125753-.0220135.425627.1021426.503894.0088054.077386-.0915761.1451-.022894.287562-.210449.141583-.1884355.197864-.2641619.205779-.3751099.007914-.1118285-.153015-.1954798-.080905-.323158.07299-.1285588.168844-.1937188.236558-.2826533.067713-.0889345-.109925-.0369826.131029-.1162312.241834-.0801291.317462-.110948.354397-.3980039.036935-.2879365.057161-.3143527.155653-.3601408.098492-.0466686-.128392-.0026416.160929.03258.290201.034341.381658.1488112.536432-.0070443.155653-.154975.015829-.0836513.137185-.1100675.121357-.0246551.123116-.044027.211055-.1285588.08794-.0845318.024624-.0977399.238317-.0264162.212813.0730848.269974.3574991.472235.5415319.202261.1849134 0-.0079248.084422.0704432.085301.0792486.112563.177869.257663.2694451.1451.0898151.146859-.0510713.279648.099501.132789.1514529.266457.2227766.335929.2668035.070352.0449076.110804.0290579.167965.1021427.05804.0739653.094095.2624008.087939.3319634-.007914.0695626-.134547.3363662-.001759.300264.133668-.0369826.012312.0140887.064196-.0528323.051885-.0669211.070352-.1620193.099372-.2139712.029899-.0528324-.024623.044027.013191-.0184913.036934-.0642794.01495-.143528-.073869-.2844143-.089699-.1408864-.103769-.2210155.092336-.2368652.197864-.0176108.194347.200763.30603.1937187.111683-.0061638.187311-.0704432.042211-.1796301-.146859-.1091869-.459045-.2298208-.607663-.2756089-.148617-.045788.332412-.0792486.020227-.1796301-.312186-.101262-.475753-.2932197-.603266-.4481947-.128392-.1540944-.213693-.1628998-.29108-.2315819-.077387-.0686821-.062437-.0889345-.063316-.1734663-.001759-.0845318-.091457-.1576166-.009674-.2245376.080025-.0678016.184673-.1179923.301633-.0933372.11696.0246551-.060678.2192543.080904.300264.141583.0810096.085302-.1849133.14686-.1813912.062437.0044027.970852.8259462.991958.8426765.020226.0158497-.055402-.0598767.029899.0264162.083543.0880539.10289.0369826.238317.24479.134547.2086879-.113443.3222775-.016709.4614028.095854.1391253.111683.0722042.212814.2368652.10113.1646609.149497.1637803.241834.1655414.092336.0008806.066834.0272967.108165-.0123275.039573-.0378632.110804-.1285588.136307-.0378632.026381.0906955-.096734-.1056648-.094096.1391252.001759.24479.263819-.177869.278769-.189316.016708-.011447.083542.0378632.054522-.0246551-.027261-.0625183-.250628-.3090694-.123995-.4006456.125754-.0915761.028141.2130906.175.1452891.14598-.066921.091457.1021426.121357.0299383.02814-.0730848.019346-.0880539-.002638-.1303198-.021985-.0431465-.201382.0422659-.051885-.0757265.148618-.1171117.004397-.0598767.318341-.0827707.312186-.0220135.257663-.0079248.358794.0854124.10201.0942177-.020226.0854123-.02902.1215144-.007915.0361022-.044849.1514529-.042211.2157323.000879.0255356.048367.011447.099372.0334605.049246.0220135.087939-.0228941.070351.0361021-.016708.0598767.036935.0774875.012312.1963603-.024623.1188729-.015829.0431465-.051885.0757264-.036934.0316995-.078266-.0678015-.066834.0572351.012312.1267977.163568.0660405.202261.1540945.040452.0889345-.036055.2060462.065076.3275607.102889.1215145.296356-.0810096.396607.0167303.10201.0968593.148618.1320809.388693.0862929.33505-.06516-.266457-.1391253.060678-.1505723.24711-.0088054.473994.2826532.752763.1708247.27701-.1118286.10201-.1452891.199623-.1813912.094974-.0352216.083542.0334605.186432.034341.103768 0 .070351-.1805106.180276-.0528323.109924.1276782-.033417.057235-.045729.2641619-.010553.2042852.047487.1884355.026382.3213969-.019347.132081-.005276.0220135-.036055.1813912-.0299.1593777-.132789.2474317-.178518.4614028-.046608.2139711-.019346.2280598-.124874.3169943-.103768.089815-.227763.0836513-.473994.066921-.246231-.0158497-.088819-.0466686-.184673-.0722043-.094975-.0255356-.059799-.0052832-.102889-.0044027-.043091.0026417.178517-.0369826-.167086.009686-.346481.045788-1.389445.0193719-1.786932-.2236571-.397486-.2439095-.266456-.1840328-.496858-.1382447-.230402.0466686-.190829.044027-.243593.0924566-.053643.0493103-.10201.1452891-.08618.2509539.016708.1065452.163567-.0026417.033417.2500732-.129272.2518344-.557537-.0950983-.780904-.1400058-.223366-.0449075-.095854.0616378-.264698-.0361021-.167964-.099501-.018467-.2579981-.324497-.355738-.306909-.0968594-.43706.0096859-.660426-.1056648-.223367-.1144702-.175879-.0827707-.286683-.1215145-.110804-.0387437-.191708-.1866744-.006156-.3363661.185553-.1505723.001759-.7000291-.191708-.7466977-.193467-.0449075-.134548.055474-.314824.1083064-.179396.0519519-.39221-.1153507-.643717.0026416-.252387.1188729-.305151-.0519518-.686808.0607573-.383417.1135896-.97613.4314644-1.167838.4411503-.191708.009686-.572486-.1576166-.813441-.2139711-.240954-.0563545-.187311.4508363-.470476.6040502-.283166.1514528-.134548.0704432-.324497.1998825-.18995.1294393-.039573.120634-.169724.3196359-.13015.199002-.141583.021133-.094975.4068093.045729.3856764-.531155.564426-.658667.6419135-.127512.0774874.110804-.0114471 0 0-.110804.011447-1.239068 1.4749039-1.239068 1.6325205 0 .1576166-.01583.0942177.023743.2712062.039573.1752274.170603.3724683.170603.6586437 0 .2870559-.007035.3645434-.092336.5019076-.086181.1382447-.343844.7616668-.145101 1.0090985.198744.2474316.745728.6736128.921607 1.0531254.175879.3821542.568969.7414144.84334.8162603.275251.0774875 1.045602.4834162 1.294471.2817727.249748-.2034047.642838-.055474.842461-.0176108.200502.0396242.2902-.0669211.471356-.1743469.182914-.1074258.240075-.0889345.431783-.0854123.190829.0044027.409799.2905781.592713.378632.182914.0889345.497738.0889345.714948.1558555.217211.0669211.363191.4103315.536432.6225416.176758.2174933-.171482.732609.425627 1.2609328zm17.579999-2.5297905c-.53819-.2201349-.213693-.8937477-.128392-1.0205454.083543-.1276783.664823 1.2406803.128392 1.0205454zm-8.210038 5.061342c.324497-.1637804.300753-.2412678.438819.2914587.138944.533607-.114322.0176107-.161809.1391252-.048367.122395.025502.5115936-.011432.6841793-.036056.1734664-.081784 1.7813318-.963818 1.8773106-.882034.0968594-.239196-1.1675956-.40716-1.6562951-.166206-.4869384-.094975.2932197-.079146-.1761079.017588-.4675666.604145-.4710888.663944-.6146167.058919-.1408864.175879-.254476.321859-.2879365.147738-.0308189-.124874-.0933372.198743-.2571176zM22.4523 31.1148391c-.816079-.4032871-2.75075-1.4159077-2.632031-1.6941583.119598-.2756089-1.718339.1100675-1.905651-.223657-.187311-.332844-.605024.9765184-.589195-.0079249.015829-.9853239-.362311-.2949808-.590074.1523334-.227764.4464336-.460804.8805396-.904898.4684471-.444975-.4138537-1.652385-.0184914-1.306782-1.5294974.346482-1.5110061-1.333164.1523333-1.224999-.7519809.109046-.9034337.737813-1.8508944-.707034-.3319635-1.444847 1.518931-1.581153-2.5007326-.576004-2.9471662 1.00427-.4464336 1.898615.2958613 2.611805-.0748459.71407-.3707072.583919-.1998825.753642-.5230406.169724-.3240386 2.020852-1.0223065 1.511682-1.2380387-.509171-.2157322 2.95301-3.6683283 2.939819-2.884648-.013191.7836803 1.900374.3451716.952386-.2201349-.947109-.5644259-.778265-.2932197-.45201-.9298499.325377-.6375107-2.106152.7739944-.633164-.3654239 1.472108-1.1385378 2.587182-.6841794 2.843965-1.3225706.256784-.6392718.022864-.221896-.209296-.3803932-.232161-.1576166-1.095727-.6022891-.772109-.9272082.324497-.3240386-.11696-2.0261218-.447613-1.4273548-.330653.5978864-1.229395.5239211-.987561-.2236571.242713-.7466976-1.937309-1.0636919-1.739445-.0810096.198744.9835628-.311306 1.143821-.166206 1.677428.144221.5344876-1.001631.2976224-.95942 1.4273548.042211 1.1288519-.671859.0422659-.633165-.688582.039573-.7308479 1.073742.2747284-.850376-.8171408-1.924117-1.0918692.411557-3.2535941 1.502008-4.3384189 1.090451-1.0848249.665703-.1329615 1.322611-.5441736.656909-.4103314.143342-1.3991775-.260301-1.543586-.403643-.1444085-.991079 1.5250947-.981406.9069559.009674-.6172583.415955-.7590252.059799-.7687112-.355276-.0096859-.17412.7158788-.403642.4931022-.230402-.2245376.349999-2.819488-.562813-1.520692-.912813 1.2987961.830149.3645435-.164447 1.3384203-.994597.9729964-.251508.2967419-.588316.0845318-.337688-.21221-1.162561.0228941-1.614571-.3425299-.452888-.3663045.084422-.8699732-.66922-.5248016-.753642.3469326.424748.0660404.157412.3530964-.267336.2861754-.307788.2738478-.351758.6744934-.044849.4015261-.308668-.6049308-.312186-.6190194-.004397-.0149692-1.511681-.3830348-.77035-.4499558.086181-.0079248-1.541581-2.0164358-1.961932-2.1819773-1.555651-.6084529-.668341 1.6615784-3.76821-.7960078C3.312253 3.0132963 4.34994 4.461784 3.540896 4.3235393c-.809923-.1391253-2.45879.9906071-1.815952 1.931904.642838.9404164.555778.543293.155653.5943643-.400125.0510713-.907536-.5741119-.976129-.2034047-.068593.3724683-.612059-.0616378-.736934.1937187-.124874.254476.781783.3610213.117839.3918402-.663943.0308189.006156.4455531.248869.5468151.461683.1919577 1.564445-1.2169058.673617.2879365-1.751756 2.9559717.708793 3.3178735 1.152009 3.0862915.444095-.2315819.807285-.6621658 1.203013.0299384.396607.6912236.787939.1250366.881154.6322275.091458.5071908.547864 1.0901081.449372 1.5946573-.099372.5036687 2.171228 4.89492 1.448364 4.3481049-.721983-.5459346-.310426-.0862929-.466079.3425299-.154774.4279423-1.01922 3.517756.483667 4.5893727 1.502887 1.0724973.183794-.4860579 1.072863.8338711.88819 1.3199289 2.532659 4.4652166 4.131401 4.3982956 1.597862-.066921 2.301378 1.2169058 2.266202 1.5136477-.036055.2949808 1.387687 1.365717 1.346355.6251832-.039573-.7387728 1.390325 1.0046957.58216 1.4405629-.808164.4349866-.615577 1.5180503-.554899 1.3736418.05892-.145289-.362311.6560021-.292838.9095975.070351.2562371 1.839695 2.4795997 2.861553 3.1866731 1.021858.7070733-.648114 5.8247699.259422 6.8294656.906657 1.0073374.204899 2.6548271.110804 2.9982376-.094096.3460521.71231.8391543.664823.8946283-.050126.0537129.204899.7053123.462562-.0730848.18907-.5723508 1.098365-1.5708828.425628-2.1485168-.600628-.5168768.804647-1.6633394.369346-1.5171698-.436181.1479306-.194347-.2571176-.221608-.3302024-.028141-.0713237.696481-.3090694.6402-.6287053-.05804-.321397 1.830022-.7431755.979647-1.3551506-.849496-.6110945.497738.1179923.948868-.4041677.45113-.5248016 1.312058-3.2579968 2.358539-3.1232742 1.045601.1356031.697361-1.9178154 1.181028-2.7701778.484547-.8541235.416834-2.0155553-.510929-2.419723-.926003-.4050482-1.045601.2201349-1.215324.055474-.169724-.1655414-1.794847-.5864394-1.801882-.5855589-.011432.0008806.845979-.877898.02902-1.2785436zm43.61099 1.9706478c.068593.0140887.056281-.0862929-.070352-.1232755-.126633-.0387438-.21809 1.0390368-.411557.721162-.193467-.3161138-.01407-.0149692.036935-.3161138.051884-.2993835-.212814.2474317-.077387-.633108.135427-.8805397.096733-.8470792.767712-.7607863.670979.0854124.540829-.2703257.761557-.1496917.220728.1232755.140703.4816552-.498617.3152332-.640201-.1655415-.779145.4966244-.557537.4746109.221607-.0228941-.245352-.1153507.076507-.1602583.3201-.0449075.440577.0915762.072111.2888171-.370226.1963603.280527.5318459.326255.5529789.04485.0211329-.312185.2298208-.398366.0950982-.08706-.1347225-.022864-.0352215-.049246-.0739653-.025503-.0378632-.047487-.2421484.021985-.2307014zm-1.919721.1901966c-.206658-.0149692-.065075-.0977399-.460803-.2756089-.396608-.177869-.838064-1.3481063-.473995-1.2186669.363191.1285588.280528-.0581156.420352-.2262987.138065-.1681831 1.058792-.7801582 1.231154-1.1244492.171482-.3434104.071231.1523334.376381.2535955.30515.1021426.047487.1549749.07299.3319634.026382.177869-.16005.0334605-.18907.0678016-.0299.0334605-.124875.3337245.054522.6392718.179397.3055472-.149497.5397708-.356155 1.2036977-.208417.6639269-.235678.0871734-.298995.1435279-.062437.055474.103769.5864395-.141582.2368652-.24711-.3495742-.025503-.0184913-.234799-.0316994zm2.402509 1.6915167c-.113442-.3125916.981406-.5195184.970853-.476372-.007915.044027-.856532.7898441-.970853.476372zm6.828507-1.4026997c.116081-.078368.114322.0774875.261181-.0387437.147738-.1153507.173241-.5697092.364949-.1831523.190829.3874375-1.152008.5767535-1.052636.3178748.096733-.2571176.312185-.0149692.426506-.0959788zM70.285268 44.70773c-.021984.0977399 0 1.4581737.241834 1.2081004.243593-.2518344.807285-.8373932.635803-1.0839443-.172361-.2483122-.352637.0915761-.459924.0880539-.109045-.0061637-.396607-.3081889-.417713-.21221zM62.04709 34.0259033c.022864-.3619018 1.014822.0096859 1.286556-.0026416.270854-.0132081-.328894-.187555.059799-.1347226.391331.0510713.050125.2025241.794973.3636629.745728.1628998.149498.1505723.096734.2139711-.052764.0625183-2.261806-.0801291-2.238062-.4402698zm15.964549 9.6313428c.315703 1.1050773-.225126.8585262-.394849 1.1341351-.171482.2782506.209296.2421484.236558.3742294.026381.1285588-.519723.76695-.11696.6621658.405401-.1065453.624371-.9095974.7853-.9606687.159171-.0510713.37814-.2509539.467839-.5503373.091457-.3002641-.443216.0651599-.549623-.06516-.105527-.1294393-.284924-.5512178-.214572-.7827997.069472-.2280598-.532034-.9166418-.213693.1884354zm-.570728 2.2823589c-.21809.4939827-.415075.3284413-.590954.5476956-.175879.2192544.374623.1593777.018467.2174933-.355275.055474-.963817 1.5788077-1.52751 1.0531255-.564572-.5248017.736054-.9914877 1.349872-1.8570582.613819-.866451.403643-.2641619.558417-.2527149.154773.009686.408919-.1998825.191708.2914587zm-6.335166-13.0223012c.4652.1391253 1.117711.5001466 1.204772.730848.087939.2280597.743968.200763.40716.3390077-.336809.1400058.326256.5785146.432663.6058113.105527.0264162-.095855.0977399-.018468.1426475.079146.0440269.517085-.1241561.361432.166422-.156533.290578-1.181908-.5186379-1.531907-.7431755-.35-.2236571-.123995.099501-.279648.1840328-.157412.0854123.128392-.0299384-.032538.2395068-.163567.2694451-.328014-.287056-.884672-.2439095-.557537.0431464-.125754-.0070444-.297236-.3856764-.171482-.3786321-.996355-.7669501-1.154646-.7986495-.158291-.0316994-.042211.3619018-.348241-.0625183-.30603-.4253007.569849.0140886.331532-.2985029-.238316-.3108305-.339446.057235-.467838.0052832-.128392-.0519518.211934.089815-.079146-.1655415-.2902-.2571175.651632-.2130906.619974.0519519-.031658.2668035.088819.545054.516205.1910771.426507-.355738.755401-.099501 1.220602.0413853zm-9.306645.8391543c-.561934-.3830347-1.29447-2.1626054-1.99271-2.5562066-.697361-.3936012.113442-.4957438.446733-.0854124.333291.4103315.882913.4913412.900501.6665686.018467.1743468.52412.3257997.514446.4349866-.012311.1091869.072111.1840328.175879.3161137.10201.132081-.212813.1452891.089699.3134721.300753.1690636.351758.8285879.231281.8796592-.118719.0510713.194346.4120925-.365829.0308188zm7.758029 2.4567057c.023743.1505723.583919.5749924 1.007787.7889636.42299.2104489.666582-2.3158194.930401-1.6386844.263819.6762545-.037814.5908422.346482.6621659.383416.0722042.086181 1.2926322.510929 1.4925147.423868.200763.344723.8497208.578642.8831813.235678.034341-.648115-.9483412.211055.3663045.860928 1.3137652-.736054 2.9013782-1.053516 4.3718794-.319221 1.4722623-.4951.4261812-.772989.6383913-.278768.2095684-.636682.4217785-.551381.088054.085301-.3337246-.090578.0299383-.117839-.0290579-.027261-.0589961-.284924.021133-.08794-.0889345.196985-.1100674-1.604017-2.2110351-2.146604-2.2480177-.545226-.0387438-1.347235-.2254182-1.621606-.1611388-.272613.0642794-.598868-.1831522-.919848.2201349-.321859.4032872-.656908-.0528324-1.173993.3284413-.514446.3821542-1.312938-.0616378-1.059672-.2351041.255025-.1725857.017588-2.019958.110804-2.1951854.095854-.1752273-.314824-.2844143-.07211-.7449365.241833-.4587612.841581-1.0161428 1.647108-1.1200465.803767-.1030231.845978-1.2248306.971732-.9553855.124874.2703257.082663.1144702.146859-.0739653.064196-.1901966.186432.1039036.265577.0766069.079146-.0272967-.112562-.2518343.05892-.3011446.172362-.0493102.600627-.5476956.809923-.2483121.209297.2993834.201382.0933372.272613.0854123.071231-.0079248.073869.2227765.11608-.1567361.042211-.3795125.808165-.4411503.897863-.5996475.089699-.156736-.75628-.4543584-.023743-.1998825.733416.2562371.701757.2624009.965576.1602583.262939-.099501-.273492.6859404-.24711.833871zM31.700025 5.4383025c-.601507.1769885-3.063815 6.7088317-4.611551 6.6022864-1.547736-.1056648-.710552 1.3225706-.954144 1.6237152-.242714.3011445-.071231.422659-.203141.6225415-.131909.200763-.108165-.9509828-.554019-.487819-.445854.4622833-.314824-1.2600522-.69824-1.3340176-.383417-.0748458.270854-3.5670662.019346-3.5212781-.251507.0457881.062438-.6463161.064196-.656002.202261-1.3260928-1.031531-2.4954495-1.034169-2.4945689-.298994.1135896-.774748-1.4176689-.860928-1.6598173-.086181-.2403873 1.669972-.3830347 1.829143-.8576456.15917-.4737304-.18995-.2844143.322738-.8215435.512688-.5380098.273492.1294393.283165.0730848.009674-.055474.69824-.8127382.747487-.8162603.048366-.0035222.207537.654241.153894.0475491-.055402-.6066918.886431-.5098324 1.008667-.2932197.122236.2174933-.498618 1.2538885-.162689.776636.336809-.4772525.305151-.099501.443216-.1030231.137186-.0035222.430904-.3574991.831908-.6877015.401884-.3293218.147739.2615203.33505.1276782.187311-.133842.04397-.4015261.157412-.5459346.112562-.1435279.419472-.2060462.585677.1400059.167085.3451715.406281-.4182564.547864-.4508364.140703-.0334605 1.354269-.1030231 1.402636.3090695.048367.4129731-1.130024.1039036-1.071983.4182563.05716.3125916.346481-.0950983.434421-.1153507.08794-.0193719 1.452762.0413854.904019.254476-.548743.2130906.000879-.1602582.473115.2157322.472235.3751099-1.345476.2421484-1.675249.6058113-.329773.3636629.97525-.2932197 1.00339.0625183.027262.355738-.009673.3962428.069473.3398883.080025-.0572351.424748-.6947458.50917-.3046667.084422.3900791-1.182787 1.1931312-.952386 1.1834453.230402-.0096859 1.064948-.7246841 1.140576-.8285878.074749-.1030232.236558-.0845318.328894-.099501.091457-.0167303.991959.145289.870602.4182563-.120477.2720868-1.451882.8497208-1.434294.9721158.018467.122395.817838-.3522158.292838.2782506-.527637.6313469.055402.8294683-.546104 1.0064568zM18.867883 3.0890227c.401005-.3574991-.047487-.8197825.374623-.2262987.42123.5943642-.776507.5829172-.374623.2262987zm-1.393842.9140001c.882913-.4120925.606783 1.3357787-.181155 1.1218076-.787939-.2130906.18819-.2756089-.010553-.4561196-.198744-.1813911-.691205-.2527149.191708-.665688zm.474874-2.0842374c.062437-.5397708.810803-.4693276.720225.3125916-.090578.7836803.018467 1.0953914-.492462.6234221-.510929-.4719692-.027261-.2958613-.041331-.7889635-.013191-.4939828-.249749.3918401-.186432-.1470502zm-.768592 9.8655665c.452889-1.2996766-.090578-.9738769.558416-.5926032.648115.3839153.617336 1.1015551.211935.7625473-.405402-.3372467-1.22324 1.1288519-.770351-.1699441zm-3.689944-8.6363331c.396607-.3698266 2.347107-1.3877305 1.507284-.3504548-.839823 1.0363952-.188191.0378632-.794974.510713s-1.109797.2086879-.71231-.1602582zm7.983154 15.5344808c-.142463-.3161137-.349121.3302024.141582-.1963603.491582-.5274433.82927-.3759905 1.369219-.2993835.539949.0774875.041332.6304664-.036055.8100965-.077387.1787495-.277889-.3231581-.277889-.3231581s-1.054395.3249191-1.196857.0088054zM16.621027 5.8530367c.68417-.3187554.328015.6921042.24799.8629288-.080025.1717053.091457.7396534-.540828.575873-.630527-.1646609-.761557-1.2292334-.260302-1.0636919.502135.166422-.13015-.0563546.55314-.3751099zm-2.148363-2.2709118c-.269095-.4957439 1.167837-.3434105.796732.2941002-.371984.6357497.325377.2465511.475753-.2535954.150377-.5001465.118719.300264.376382.4649249.258542.1655415-.377261.7519809-.388693.7282063-.011432-.0220134-1.582033.0035222-.993717-.2958613.586556-.2993835-.200503.0449075-.402764-.2456705-.20314-.2914587.405402-.1963604.136307-.6921042zm4.343335.9923682c-.345603-1.6695032.531155.221896.42123.2747284-.587436.2808921 1.854646.7687111 1.422863 1.0813027-.432663.3125915-.178518.3046667-1.173114.1021426-.994597-.2034047-.546105-.855004-.670979-1.4581737zm-6.556774.1444085c.106407-.8065743 1.574997-.1505723 1.180149.2826532-.394849.4314645-2.08153 1.7214551-2.09648.9782796-.014949-.7431755.809045-.4543585.916331-1.2609328zm8.06142-3.3601394c.236557-.4217785.151256-.5424124.43706-.5961253.286682-.0545935.176758.4975049.269974.900792.092337.4041678.125754-.001761.291959.0915762.166206.0924566-.536431.6436745-.235678.6612853.299874.0176108-.838064 1.5074839-1.340199.8972699-.501255-.6119751.123995-1.5162893.255904-1.5981795.130151-.0836513.084422.0651599.32098-.3566186zm-7.703506 4.5488679c.42211-.311711-.106407-.0149691.798491-.4200174.904898-.4032872.4652.5476957.775627.6154972.310427.0678016.062437.5600233.225125.6595242.162689.099501 1.288315-1.6281178.716708-.177869-.366708.9289694-.819597 1.4370408-.479271 1.6395649.340326.2034047-.277009.3936012-.702637.0906956-.423869-.3029057-1.270727.4622833-1.903892-.5864394-.633164-1.0478422.683291-.5688287.837185-.709715.155653-.1408864-.688567-.7968884-.267336-1.1112411zm5.175243 1.9142933c-.105527-.2967419.794974-1.4167884 1.377134-1.3762835.583039.0396243-.395728.5917226-.395728 1.5339001 0 .9412969.097613-.3583797.241834-.464925.144221-.1065453.112562-.4376282.284044-.4693276.168844-.03258 1.159923-.3275608.660427.3434105-.501256.6709712.715828.8250656 1.328766.8470791.612939.021133-.303391.721162.101131.5380097.404522-.1831522.003518-.0942177.231281.0052833.227764.099501 1.211807 1.6510119.83015 2.6152028-.381658.9641909-.618216-.7889635-1.00427-.3372467-.385176.4517168-.306909-.4297034.085301.965952.392211 1.3965359-.982285-.2298208-.498617.8012911.483667 1.0319925-1.254018-.9236861-1.3103-.9465801-.056281-.0228941-.015829-.2817727-.337688-.1391253-.322738.143528-.503014-.332844-.241834-.4693276.260302-.1364837.168844.4543584.46608.1655414.296356-.2905781.718466-1.687114.71319-1.8456111-.006156-.1593777-.27613.3143526-.370226.1250366-.093215-.1901966.196106-.6339885 0-.8805397-.196984-.24479.030779-.2271792-.177637-.3161137-.208417-.0889345-.098493.5353681-.39309.3971234-.293718-.1382447-1.849369-.2060463-1.559169-.7238036.288442-.520399.075628-.0713237-.030779-.3689461zM23.620137.2140607c.097613-.1179924.045729.0616377.010553-.0827708-.036934-.1444085.366708-.0845318.415075-.0484297.047487.0343411-.091457.2236571.007035.2483122.097613.0255357.260301-.5186378.583039-.2624008.323618.2562371-.170602.321397.062437.1998825.232161-.1232755.090578.0889345.30691.0026416.215452-.0854123-.177638-.0396243.307788.099501.484547.1391253-.103769.1655415.095854.3495743.199623.1822717.313065-.1162313.473115.0149691.16005.1303199.187311-.2588786.240075-.034341.054523.2254181.642838.6630464-.208417.8981504-.851255.2351041-4.133159 2.2427346-4.163059 2.8740815-.029899.631347-.612939 1.1385378-.810803.5908421-.197864-.5485762-.484547.1171118-1.129144-.1963603-.642838-.3143527.461683-.0915761.522361-.5600232.05892-.4675666 1.06319-.0061638.115201-.631347-.948868-.6260637.882034-.2351041 1.06231-.2782505.181156-.044027-.297236-.2465511-.170603-.3803931.126633-.1338421.103769-.0237746.123116-.6498383.020226-.6260637.740451.367185.671858.1303198-.068593-.2359846.117839-.5732313.277889-.843557.16093-.2703256-.594471.0827708-.878516.0308189-.284045-.0519518-.144221-.5168767-.056281-.6850598.08706-.1673026-.14686-.0026416.024623-.1567361.171482-.1540944.007035.0598767-.122236-.034341-.128392-.0942178.287562-.3205165.430024-.3381273.142462-.0176108.563693-.0193718.586557-.1171117.021985-.0959789.138945.045788.191708.0079248.054523-.0378632-.200502-.0986204.021106-.1901965.220728-.0906956.182914.24479.410678.1267977.227763-.1197534.018467-.221896.191708-.1030232.17412.1188729.021985-.1197534.16005-.1875549.138065-.066921.150376.3222775.247989.2060463zm46.106715 20.8177187c.11696.5045493.099372.8285879-.112562.8523624-.211055.0237746.128391-.4006455-.076508-.1901965-.202261.2104489-.138065.1118285-.216331.1602582-.077387.0484297-.007035.233343-.275251.156736-.268216-.0766069-.045729-.156736-.225125.2624009-.179397.4191368-.055402-.0845318-.279648-.254476-.225125-.1708247.037814.4957438-.172362.4772525-.209296-.0184913.005277.2624008-.275251.1963603-.280527-.066921.264699-.4473141.196106-.5705897-.068593-.1250366-.265578.2236571-.471356.2236571-.208417 0 .029899-.078368-.019347.5248017-.049246.6031696-.122236.2941002-.172362.2668035-.050125-.0281773-.094095.3134721-.177638-.1127091-.081783-.4270617-.359672-.3530964.13191-.855004.49422-.5010271.926003-.27737 1.020099-.6753739.093216-.3962429.201381-.3874375.374622-.3187554.172362.0704432.083543.0537129.20402-.365424.119598-.4191368-.059799-.4305839-.060678-.7414144 0-.311711.047487-.3601407.173241-.3539769.125753.0052832-.253266-.921925.17412-.0387438.426507.8823008.143342.8514819.260301 1.3560311zM48.222111 7.3517152c.127512-.2967419-.114322-.1708247.185552-.0774875.298995.0924567-.313065.3742294-.185552.0774875zm17.383893 18.891098c-.257663.3161137-.318341.2016436-.243593-.5441735.074749-.7458171.500377.2289403.243593.5441735zm.013191 1.5744049c-.018467-.1047842-.385175-.4085704.075628-.610214.459924-.2025241.215452.8259462.329773 1.1068384.113442.279131-.262059.3803931-.262939.1505723-.000879-.231582-.048367-.0070444-.17412-.3231581-.127513-.3161137.051005-.2183738.031658-.3240386zM49.511305 1.8650725c.137185.8673316 1.009546-.1276782.752762-.455239-.254145-.3275607.10289-.1998825-.02902-.2456705-.131909-.0457881-.861808-.166422-.723742.7009095zm2.180021.3891986c-.211055-.443792.145101.001761.272613-.0968594.139824-.1083064 1.181908.1417669.468718.6568826s-.531155-.1171118-.741331-.5600232zm17.465678 16.538296c.044849-.0704432.074748-.0686821-.041332-.5573816-.117839-.4895801.390452.1752273.750125.1734663.357034-.0008806.157412.0633988.285803.210449.127513.1461695.119598-.2562371.117839-.0299384-.000879.2254182-.352637.2729673-.374622.2351041-.021106-.0369827-.017588.4931022-.336809.2694451-.320979-.223657-.665702-.1188728-.394848.0713237.269974.1893161.052763.6278248-.137186.1523334-.192588-.476372.085301-.4543585.13103-.5248016zM50.383665 2.1433231c-.110804-.2324625-.277889.0272967-.011432-.2174933.268216-.243029.241834.0316994.52412.1576166.279648.1276782-.112563-.2060463.001759-.3663045.114321-.1593777.578642.4587611.50829.5591427-.068593.0995009.828391.5961253-.17412.4182563-1.002511-.1787496-.737813-.3205164-.848617-.5512178zm-5.193711 5.9894308c-.112562-.2016436.515326-.1056648.532914.0607572.04309.3795126.751004 1.2380388.473115 1.1508654-.277889-.088054-.706155.256237-.600627-.1884355.080025-.3293219-.317462-.0581157-.495979-.1488112-.061558-.0316995-.065076-.0942178-.061558-.2086879.018467-.4851774.099372-.1303199.000879-.5098325-.099371-.3786321.263819.0449075.151256-.1558555zm14.853872-6.1981187c.157412-.231582.167086.3478131.921607.6022891.458165.1540944-.091457-.055474-.36407.1505723-.271733.2078073.13191.0880539-.235678.3830347-.368466.2941003-1.538063-1.3498673-.801129-1.0953913.738692.2527149.298994.2262987.47927-.0405048zm7.68328 12.2262932c-.058919-.0537129-.138065-.3240386.088819-.089815.226005.2359846-.023743.078368.697361 1.266216.721105 1.1869675.578643.7669501.317462.9421775-.26206.1752274.228643.621661.458165.8127381.227764.1910771.222487.3513353-.034296.3213969-.255904-.0308188-.076508.2668036-.215452.2817727-.138945.0149692-.136307.0035222-.161809-.3707072-.023744-.3751099-1.130023-2.5570871-1.090451-2.7701777.040453-.2113296-.002638-.3398884-.059799-.3936013zm-21.79758-8.1335449c.114321-.1743468.175879-.112709.359673-.2254181.182914-.1135896.449371-1.0223066.747486-.6225416.296357.398004-.427386.8215435-.856531 1.4854704-.430025.663927-.150377.631347-.21897.8048133-.068593.1743469-.331532-.1259172-.213693.0176108.119598.1426474.137186.3504548-.109924.3434105-.246231-.0070444-.380779.0422659-.199623-.177869.183794-.220135-.413316.1761079-.24711-.1232756.165326-.2993835.20314-.044027.289321-.1179923.085301-.0722043-.280527-.1567361-.139824-.2245376.059799-.0299384.013191-.0898151-.015829-.1426475-.148618-.2747283-.05804-.1849133.009673-.2659229.067714-.0810097.067714-.1805107.151256-.3372467.083543-.1558555.329774-.2403874.444095-.4138537zm-.780903 14.6583438c.023743.1488113-.068593.2412679-.210176.3037862-.141583.0625183-.180276-.0334605-.441456.0246551-.261181.0581157-.774748-.3081888-.937436-.3081888-.165327.0008805-.236558-.0167303-.521482.0686821-.285803.0854123-.208417.1717052-.374622.2430289-.163568.0722043-.136307-.034341-.244472-.0334605-.108166 0-.248869-.110948-.256784.0237746-.007915.1347225.073869.0537129.152135.1329615.080025.0801291-.140703.0140886-.176758.0440269-.033417.0299384.097613.0730848.020226.0915762-.075628.0176108-.256783-.0044027-.379019-.0079249-.122236-.0044027-.156533-.0149692-.042211-.0959788.113442-.0810097.080904-.1127091.224245-.1171118.144221-.0044027.133669.0845318.177638-.0149692.04485-.0977399-.043969-.0625183-.140703-.1241561-.097613-.0598767-.082663-.0581156-.120477-.1690636-.036935-.110948-.153015.0264162-.105528-.1611387.048367-.1866744.066834-.1901966.205779-.30995.141583-.1188729.013191.0457881.016708-.2016436.002639-.2483122.194347-.1849133.202261-.376871.008794-.1928381-.153014.0184914-.005276-.0959788.1451-.1162312.220728-.3522158.430904-.3742293.211934-.021133.100251.0096859.172362.0167302.074748.0070443-.094975.0510713-.11784.0616378-.021105.0123275-.091457-.022894-.021105.0132081.068593.0361021.124874.1285588.458165.0959788.333291-.0316994.138065-.0246551.34912-.1206339s.228643-.0343411.40716-.1752274c.178518-.1408864.298116-.1945993.4951-.1215145.197864.0739653-.088819.1021426-.149497.1584971-.059799.0563546-.010553.0114471-.01495.0149692-.003517.0035222.007915-.0008805-.01495.0140887-.021105.0149691-.142462-.0158498-.118718.0792485.024623.0942178.166206-.0167302.13103.122395-.036935.1391253-.120477.1488112-.131909.2412679-.01495.0933372-.077387-.0035222-.095854-.0044027-.018468 0-.012312.0008805-.019347.0017611-.009674.0017611-.035176-.0519519-.036935.0079248-.001759.0581157-.143341.0915762.18995.2254182.333291.133842.37726.2571176.803767.4816552.430025.2271792.215452.1954798.240955.3451715zm-11.411038-3.7361298c.067713.442031.033417.4719693-.353518.6841794-.387813.2130906-.681531-.088054-.583039-.122395.098492-.0352216.076508-.1347226.108166-.2307014.031658-.0959789.010553-.1602583.002638-.1972409-.007035-.0369827.105527-.0889345.106407-.1259172.000879-.0352216-.299874-.078368-.053643-.1761079.24711-.0977399-.316583-.4376282.619974-.298503.935677.1391253.084422.0255357.153015.466686zm4.502505 5.0859972c.094096-.1356032.208417.0035221.350879-.0132081.142462-.0149692.265578-.1699442.350879-.0713238.084422.0977399-.044849.099501-.064196.2183739-.018467.1197534.117839.1558555-.000879.2553565-.119598.099501-.260301-.1083064-.350879-.1496918-.089698-.0413853-.080025-.0510713-.179397-.0977399-.099371-.0466686-.200502-.0070443-.106407-.1417668zm-1.089571-.8620484c-.079145-.2201349.017588-.0105665.022864-.0132081.005277-.0035221.003518-.0008805.021985-.0140886.019347-.0140886.05892-.0449075.095854-.066921.038694-.0220135.064196-.0950983.16005-.0290578.094975.0651599.048367.1523333.054523.2632813.005276.1118286.012312.254476.004397.321397-.007915.066921.094095-.0457881-.023744.0105665-.117839.0563545-.017588.1875549-.196984.1056647-.179397-.0827707-.060679-.3574991-.138945-.577634zm5.750368-1.5066033c.017588-.0915762.097613-.0942178.166206-.1540945.068593-.0598767.010553-.0176108.032538-.03258.021985-.0167302-.020226-.0369826.082663-.0308188.10113.0052832.159171.1919576.279648.2201349.120477.0281772.31922-.1655415.347361-.0334605.0299.1329615-.011432.0704431-.185552.1021426-.174121.0325799-.367588.3011445-.517964.1901965-.151256-.1100674.039572-.1496917-.035176-.2086879-.074749-.0589961-.185553.0387438-.169724-.0528323zm-8.799233-3.0757251c-.043969-.0933372-.481908-1.1904896.031659-1.3155263.512687-.1250366.097613.288817.207537.353977.110804.0651599.344723-.1012621.418592-.009686.074749.0915762-.563692.6172584-.275251.5829173.287563-.0352216.75716 1.1112411.908416 1.0971524.151256-.0132081.487185-.1153507.175.2738479-.311306.388318.688567.0906956-.513567.466686-1.201255.3759904-1.035049.2386262-.895225.0589961.139824-.1805106.038693-.055474.396608-.2060462.357034-.1514529-.719346-.1215145-.370226-.3196359.350879-.1981215.457286-.6736129.358793-.7282063-.098492-.055474.014071-.2764895-.072989-.2932197-.085302-.0158498-.325377.1312004-.369347.0387437z"/>
</svg>