<svg xmlns="http://www.w3.org/2000/svg" viewBox="-17953 -15396 329 329"><defs><style>.a{fill:#f2f2f2;opacity:0.575;}.b{fill:#004385;}.c{fill:#0080ff;}.d{fill:#fff;}.e{fill:#253744;opacity:0.6;}.f{fill:#b3b3b3;}</style></defs><g transform="translate(-18412 -17243)"><circle class="a" cx="164.5" cy="164.5" r="164.5" transform="translate(459 1847)"/><g transform="translate(502.119 1910.376)"><g transform="translate(20.392)"><circle class="b" cx="100.778" cy="100.778" r="100.778"/><path class="c" d="M520.3,171.537A100.132,100.132,0,0,0,504.085,116.7s-5.747,8.385-4.685,13.778,7.44,5.826,6.771,9.763c-.669,3.976-5.314-1.142-11.1,9.29-5.747,10.432-2.874,24.84,5.393,25.9C508.769,176.576,520.3,171.537,520.3,171.537Z" transform="translate(-318.748 -70.759)"/><path class="c" d="M371.434,8.9a100.262,100.262,0,0,1,32.241,15.353s-11.692-1.929-16.1,2.047-10.865,13.306-16.1,0C366.2,12.955,371.434,8.9,371.434,8.9Z" transform="translate(-244.202 -5.396)"/><path class="d" d="M115.3,34.327A100.575,100.575,0,0,1,191.08,0s-6.85,4.133,6.1,11.141,7.007,10.275,4.33,12.4c-2.716,2.165-7.362-4.33-10.432-8.621s-16.219-10.944-26.3-7.362-18.7,6.259-17.282,9.605c1.457,3.346,18.7-3.11,25.194-2.756s4.33,4.33-1.811,9.015c-6.1,4.685-6.85,10.432-.354,14.054,6.5,3.582,14.408,3.976,16.18,1.811,1.811-2.165-3.228-16.18,9.015-10.078s22.321,9.723,12.243,18.7C197.891,56.924,186.356,67,186,72.749s3.582,10.432,1.457,10.786c-2.165.354-4.133-2.323-5.59-4.33-1.457-1.968-8.109-2.716-11.338-1.457s-9.369,6.1-5.944,10.786,8.109,2.519,12.794,4.685,9.054,10.393,8.149,12.243-4.881-.512-8.149-6.85-9.369-2.165-13.7-3.228c-4.291-1.063-7.558-1.811-11.849-9.369-4.33-7.558-13.266-9.684-16.928-14.054C124.433,59.443,125.181,50,123.016,45.7,120.89,41.374,115.3,34.327,115.3,34.327Z" transform="translate(-90.302)"/><path class="d" d="M313.243,259.316s10.786,1.063,16.18,5.748,6.1,6.5,14.408,8.267c8.267,1.811,11.889,6.5,6.5,15.471-5.393,9.015-15.117,23.384-19.8,27.714s-10.432,7.913-12.6,15.117-2.874,11.5,1.811,14.408c0,0-2.519,6.1-8.267-1.811s-1.063-17.282,0-22.675,3.976-21.612,2.165-25.549c-1.811-3.976-10.078-6.5-12.243-14.762S303.008,256.876,313.243,259.316Z" transform="translate(-202.781 -157.082)"/><path class="e" d="M126.7,29.525A100.767,100.767,0,1,1,269.206,172.031s45.7-60.467-19.014-125.185C185.474-17.912,126.7,29.525,126.7,29.525Z" transform="translate(-97.215 0)"/></g><g transform="translate(141.64 61.018)"><ellipse class="f" cx="43.579" cy="49.208" rx="43.579" ry="49.208" transform="translate(2.126 1.968)"/><ellipse class="d" cx="43.579" cy="49.208" rx="43.579" ry="49.208" transform="translate(12.243 1.968)"/><path class="b" d="M415.385,155a39.293,39.293,0,0,0-5.314.354,40.268,40.268,0,0,0-28.816,7.2h0a48.319,48.319,0,0,0-9.409,8.779,1.045,1.045,0,0,0-.2.236,51.093,51.093,0,0,0-6.692,10.786,1.918,1.918,0,0,0-.118.276,57.524,57.524,0,0,0-3.11,8.621,1.257,1.257,0,0,0-.118.551,57.337,57.337,0,0,0,2.48,36.06c.039.079.039.157.079.2a53.751,53.751,0,0,0,6.1,10.826c.079.079.118.2.2.276a47.368,47.368,0,0,0,8.346,8.7.948.948,0,0,0,.315.236,41.076,41.076,0,0,0,25.667,9.172,40.477,40.477,0,0,0,5.275-.354,39.292,39.292,0,0,0,5.314.354c24.8,0,45-22.951,45-51.176S440.186,155,415.385,155Zm-18.66,4.606c-.591.315-1.142.63-1.693.945-.315.2-.669.354-.984.551-.472.315-.945.63-1.457.945h-3.386a36.873,36.873,0,0,1,8.07-2.756A3.932,3.932,0,0,1,396.726,159.606Zm-17.794,76.568h-6.338a46.534,46.534,0,0,1-4.133-7.047h6.692c.276.63.551,1.26.866,1.85.118.276.276.512.394.787.354.709.748,1.417,1.142,2.086.157.276.276.512.433.787ZM367.673,185h6.771c-.315.787-.591,1.535-.866,2.323-.079.236-.157.433-.236.669-.236.748-.472,1.535-.709,2.283h-6.889A42.3,42.3,0,0,1,367.673,185Zm-4.37,21.179c0-1.181.079-2.362.118-3.543h7.047v.079c-.079,1.142-.118,2.283-.118,3.464,0,.59.039,1.181.039,1.771h-7.047C363.343,207.357,363.3,206.767,363.3,206.176Zm7.322,5.275c.079.748.157,1.5.236,2.2v.157c.118.984.276,1.968.472,2.913h-6.968a47.324,47.324,0,0,1-.787-5.275Zm1.063-17.636c-.039.2-.079.433-.118.63a4.576,4.576,0,0,1-.157.709c-.2,1.1-.394,2.2-.551,3.346v.157c0,.157-.039.315-.039.433h-7.007a44.661,44.661,0,0,1,.945-5.275Zm.433,26.494c.039.2.118.433.157.63.039.079.039.157.079.236.276,1.063.63,2.126.984,3.189.079.236.158.433.236.669.079.2.118.394.2.59h-6.81a48.613,48.613,0,0,1-1.732-5.275h6.889Zm5.866-42.555c-.157.236-.276.512-.433.748-.394.669-.748,1.378-1.142,2.086-.118.276-.276.512-.394.787a.137.137,0,0,1-.039.079h-6.614a48.051,48.051,0,0,1,4.566-7.047h6.181c-.2.315-.433.63-.63.945C378.971,176.14,378.46,176.927,377.987,177.754Zm5.157-12.164h4.881l-1.3,1.181c-.354.354-.709.669-1.063,1.024s-.709.709-1.023,1.063-.669.709-.984,1.063c-.276.315-.551.63-.827.984H377A39.134,39.134,0,0,1,383.144,165.59Zm-7.795,74.127h6.062c.2.276.394.512.59.787.551.669,1.063,1.338,1.653,1.968.315.354.63.709.984,1.063s.669.709,1.023,1.063l.433.433h-5.314A46.152,46.152,0,0,1,375.35,239.716Zm21.927,13.345a37.232,37.232,0,0,1-11.416-4.527h4.252c.236.157.472.354.669.512.354.276.748.551,1.1.827.709.472,1.378.945,2.126,1.378a7.92,7.92,0,0,0,.984.551c.551.315,1.142.63,1.693.945A2.81,2.81,0,0,1,397.277,253.062Zm18.109.748a35.36,35.36,0,0,1-4.133-.236l-.709-.118c-.079,0-.157-.039-.276-.039-.63-.079-1.22-.2-1.811-.315a.3.3,0,0,1-.157-.039c-.591-.118-1.181-.236-1.732-.394a.56.56,0,0,1-.236-.079c-.551-.118-1.063-.276-1.614-.433-.157-.039-.315-.118-.472-.157-.472-.157-.905-.276-1.378-.472-.354-.118-.709-.276-1.063-.394-.236-.079-.512-.2-.748-.276-9.487-4.015-17.361-11.928-22.163-22.006l-.118-.236c-.276-.551-.512-1.142-.748-1.732a4.373,4.373,0,0,0-.276-.63c-.2-.433-.354-.905-.551-1.338-.118-.276-.2-.551-.315-.827-.157-.394-.276-.787-.433-1.22-.118-.315-.2-.63-.315-.945-.118-.394-.236-.748-.354-1.142-.079-.354-.2-.669-.276-1.024-.079-.394-.2-.748-.276-1.142L375,217.553c-.079-.394-.157-.748-.236-1.142-.079-.354-.118-.709-.2-1.063-.079-.394-.118-.787-.2-1.181-.039-.354-.118-.709-.157-1.063-.039-.433-.079-.866-.157-1.3-.039-.315-.079-.669-.118-.984-.039-.472-.079-.984-.118-1.5,0-.276-.039-.551-.039-.827-.039-.787-.039-1.575-.039-2.362s0-1.575.039-2.362c0-.276.039-.551.039-.827.039-.512.039-.984.118-1.5.039-.315.079-.669.118-.984.039-.433.079-.866.157-1.3.039-.354.118-.709.157-1.063.039-.394.118-.787.2-1.181.079-.354.118-.709.2-1.063.079-.394.157-.748.236-1.142l.236-1.063c.079-.394.2-.748.276-1.142.079-.354.2-.669.276-1.024.118-.394.236-.748.354-1.142a8.859,8.859,0,0,1,.315-.945c.118-.394.276-.787.433-1.22.118-.276.2-.551.315-.827a13.6,13.6,0,0,1,.551-1.338,4.374,4.374,0,0,1,.276-.63c.236-.59.512-1.142.748-1.732l.118-.236c4.8-10.078,12.676-17.99,22.163-22.006a5.738,5.738,0,0,1,.748-.276c.354-.157.709-.276,1.063-.394.433-.157.905-.315,1.378-.472.157-.039.315-.118.472-.157.512-.157,1.063-.315,1.614-.433.079-.039.157-.039.236-.079.59-.157,1.142-.276,1.732-.394a.3.3,0,0,0,.157-.039c.591-.118,1.22-.236,1.811-.315.079,0,.157-.039.276-.039l.709-.118a36.378,36.378,0,0,1,4.133-.236c22.872,0,41.453,21.376,41.453,47.633S438.218,253.81,415.385,253.81Z" transform="translate(-359.8 -155)"/><path class="b" d="M527.133,368.778c-.984.512-2.008.945-2.992,1.338a1.769,1.769,0,1,0,1.26,3.307,36.883,36.883,0,0,0,3.385-1.5,1.718,1.718,0,0,0,.748-2.362A1.755,1.755,0,0,0,527.133,368.778Z" transform="translate(-458.754 -284.494)"/><path class="b" d="M555.131,346.809c-.709.866-1.457,1.693-2.2,2.48a1.783,1.783,0,0,0,0,2.48,1.7,1.7,0,0,0,1.22.512,1.723,1.723,0,0,0,1.26-.512c.866-.866,1.653-1.771,2.441-2.716a1.762,1.762,0,0,0-2.716-2.244Z" transform="translate(-476.596 -270.911)"/><path class="b" d="M492.916,376.677a29.721,29.721,0,0,1-3.267-.2,1.772,1.772,0,0,0-1.968,1.535,1.8,1.8,0,0,0,1.535,1.968,29.192,29.192,0,0,0,3.7.236h.157a1.7,1.7,0,0,0,1.693-1.771A1.886,1.886,0,0,0,492.916,376.677Z" transform="translate(-437.331 -289.284)"/><path class="b" d="M563.294,217.962a31.956,31.956,0,0,0-2.2-2.952,1.762,1.762,0,1,0-2.716,2.244c.709.866,1.378,1.771,2.008,2.677a1.781,1.781,0,0,0,1.457.787,1.821,1.821,0,0,0,.984-.315A1.771,1.771,0,0,0,563.294,217.962Z" transform="translate(-479.955 -190.996)"/><path class="b" d="M575.639,315.256a1.791,1.791,0,0,0-2.244,1.1,29.959,29.959,0,0,1-1.22,3.11,1.778,1.778,0,0,0,.905,2.323,1.544,1.544,0,0,0,.708.157,1.75,1.75,0,0,0,1.614-1.063q.709-1.653,1.3-3.425A1.667,1.667,0,0,0,575.639,315.256Z" transform="translate(-488.482 -252.113)"/><path class="b" d="M582.481,280.4a1.8,1.8,0,0,0-1.771,1.811c0,1.1-.039,2.165-.118,3.228a1.763,1.763,0,0,0,1.614,1.89h.118a1.791,1.791,0,0,0,1.771-1.614c.079-1.142.118-2.323.118-3.5v-.118A1.644,1.644,0,0,0,582.481,280.4Z" transform="translate(-493.67 -231.035)"/><path class="b" d="M436.572,214.317a1.886,1.886,0,0,0,1.378-.63q1.063-1.3,2.244-2.48a1.754,1.754,0,0,0-2.48-2.48,31.67,31.67,0,0,0-2.441,2.716,1.755,1.755,0,0,0,.236,2.48A1.68,1.68,0,0,0,436.572,214.317Z" transform="translate(-405.315 -187.272)"/><path class="b" d="M463.829,193.66a1.792,1.792,0,0,0,.787-.2,29.559,29.559,0,0,1,3.031-1.338,1.769,1.769,0,1,0-1.26-3.307,36.86,36.86,0,0,0-3.386,1.5,1.766,1.766,0,0,0-.787,2.362A1.828,1.828,0,0,0,463.829,193.66Z" transform="translate(-421.786 -175.434)"/><path class="b" d="M460.155,366.194c-.984-.512-1.929-1.063-2.874-1.653a1.763,1.763,0,1,0-1.929,2.952,32.011,32.011,0,0,0,3.189,1.85,1.792,1.792,0,0,0,.787.2,1.77,1.77,0,0,0,1.575-.984A1.738,1.738,0,0,0,460.155,366.194Z" transform="translate(-417.246 -281.871)"/><path class="b" d="M415.543,276.987q0-1.653.118-3.307a1.736,1.736,0,0,0-1.614-1.89,1.759,1.759,0,0,0-1.89,1.614c-.079,1.181-.157,2.4-.157,3.582v.039a1.731,1.731,0,0,0,1.771,1.732A1.764,1.764,0,0,0,415.543,276.987Z" transform="translate(-391.451 -225.811)"/><path class="b" d="M418.745,308.319a1.762,1.762,0,0,0-3.425.827,35.71,35.71,0,0,0,1.024,3.5A1.723,1.723,0,0,0,418,313.83a2.322,2.322,0,0,0,.551-.079,1.775,1.775,0,0,0,1.1-2.244C419.335,310.484,419.02,309.421,418.745,308.319Z" transform="translate(-393.432 -247.144)"/><path class="b" d="M421.417,237.566a1.745,1.745,0,0,0-2.323.905c-.472,1.1-.945,2.244-1.338,3.386a1.791,1.791,0,0,0,1.1,2.244,1.435,1.435,0,0,0,.551.079A1.738,1.738,0,0,0,421.063,243a26.844,26.844,0,0,1,1.22-3.11A1.7,1.7,0,0,0,421.417,237.566Z" transform="translate(-394.885 -204.97)"/><path class="b" d="M432.85,340.094a1.736,1.736,0,0,0-2.441-.472,1.771,1.771,0,0,0-.472,2.441c.709,1.024,1.417,2.008,2.165,2.952a1.751,1.751,0,0,0,1.378.63,1.65,1.65,0,0,0,1.1-.394,1.755,1.755,0,0,0,.236-2.48C434.15,341.944,433.48,341.039,432.85,340.094Z" transform="translate(-402.145 -266.754)"/><path class="b" d="M576.2,250.889a1.762,1.762,0,0,0,1.693,1.338,1.615,1.615,0,0,0,.433-.039,1.76,1.76,0,0,0,1.3-2.126,35.723,35.723,0,0,0-1.023-3.5,1.768,1.768,0,0,0-3.346,1.142C575.611,248.724,575.926,249.826,576.2,250.889Z" transform="translate(-490.383 -209.79)"/><path class="b" d="M498.15,187.543a28.3,28.3,0,0,1,3.189.2h.2a1.748,1.748,0,0,0,1.732-1.575,1.772,1.772,0,0,0-1.535-1.968,27.411,27.411,0,0,0-3.661-.2l-.039,1.771V184a1.731,1.731,0,0,0-1.732,1.771A1.859,1.859,0,0,0,498.15,187.543Z" transform="translate(-442.565 -172.584)"/><path class="b" d="M531.524,195.565a30.057,30.057,0,0,1,2.874,1.653,1.741,1.741,0,0,0,.945.276,1.8,1.8,0,0,0,1.5-.787,1.732,1.732,0,0,0-.512-2.441c-1.024-.669-2.126-1.3-3.189-1.85a1.766,1.766,0,0,0-2.362.787A1.718,1.718,0,0,0,531.524,195.565Z" transform="translate(-463.341 -177.574)"/><path class="b" d="M484.124,264.934a1.71,1.71,0,0,0-1.22.59,16.6,16.6,0,0,1-12.479,4.96,16.013,16.013,0,0,1-10.511-3.543,16.35,16.35,0,0,1-5.354-8.424h14.133a1.732,1.732,0,0,0,0-3.464H453.93a23.822,23.822,0,0,1-.118-2.48q0-1.417.118-2.6h15.9a1.732,1.732,0,0,0,0-3.464H454.56a17.113,17.113,0,0,1,5.118-8.424,13.52,13.52,0,0,1,9.212-3.543,16.652,16.652,0,0,1,9.724,3.149,19.091,19.091,0,0,1,3.228,2.874v3.661a1.732,1.732,0,1,0,3.464,0v-10.9a1.732,1.732,0,1,0-3.464,0v2.323A19.49,19.49,0,0,0,469.361,231a17.611,17.611,0,0,0-12.125,4.527,20.507,20.507,0,0,0-6.259,10.944h-3.543a1.732,1.732,0,1,0,0,3.464h2.952c-.079.787-.118,1.693-.118,2.6a23.83,23.83,0,0,0,.118,2.48h-4.055a1.732,1.732,0,0,0,0,3.464h4.685a19.75,19.75,0,0,0,6.535,11.023,19.387,19.387,0,0,0,12.873,4.448,20.643,20.643,0,0,0,14.959-5.984,1.751,1.751,0,0,0,.551-1.22,2.042,2.042,0,0,0-.709-1.378A1.719,1.719,0,0,0,484.124,264.934Z" transform="translate(-411.217 -201.082)"/></g><g transform="translate(0 61.018)"><ellipse class="f" cx="43.579" cy="49.208" rx="43.579" ry="49.208" transform="translate(1.653 1.968)"/><ellipse class="d" cx="43.579" cy="49.208" rx="43.579" ry="49.208" transform="translate(11.771 1.968)"/><path class="b" d="M55.585,155a39.293,39.293,0,0,0-5.314.354,40.268,40.268,0,0,0-28.816,7.2h0a48.318,48.318,0,0,0-9.409,8.779,1.044,1.044,0,0,0-.2.236A51.092,51.092,0,0,0,5.157,182.36a1.918,1.918,0,0,0-.118.276,57.525,57.525,0,0,0-3.11,8.621,1.257,1.257,0,0,0-.118.551A57.715,57.715,0,0,0,0,206.176a56.445,56.445,0,0,0,4.291,21.73c.039.079.039.157.079.2a53.747,53.747,0,0,0,6.1,10.826c.079.079.118.2.2.276a47.369,47.369,0,0,0,8.346,8.7.947.947,0,0,0,.315.236A41.076,41.076,0,0,0,45,257.313a40.481,40.481,0,0,0,5.275-.354,39.3,39.3,0,0,0,5.314.354c24.8,0,45-22.951,45-51.176S80.386,155,55.585,155Zm-18.66,4.645c-.551.276-1.1.59-1.653.905-.315.2-.669.394-.984.59l-1.417.945H29.485a36.87,36.87,0,0,1,8.07-2.756A3.139,3.139,0,0,0,36.926,159.645ZM19.171,236.173H12.833A46.535,46.535,0,0,1,8.7,229.127h6.692c.276.63.551,1.26.866,1.85.118.276.276.512.394.787.354.709.748,1.417,1.142,2.086.157.236.276.512.433.748A12.826,12.826,0,0,0,19.171,236.173ZM7.873,185h6.771c-.315.787-.59,1.535-.866,2.362-.079.236-.157.433-.236.63-.236.748-.512,1.535-.709,2.283H5.9C6.5,188.461,7.125,186.729,7.873,185Zm-4.33,21.179c0-1.181.079-2.362.118-3.543h7.047v.079c-.079,1.142-.118,2.283-.118,3.464,0,.59.039,1.181.039,1.771H3.582C3.582,207.357,3.543,206.767,3.543,206.176Zm7.283,5.275c.079.748.157,1.5.236,2.2v.157c.118.984.276,1.968.472,2.913H4.606a47.333,47.333,0,0,1-.787-5.275Zm1.1-17.636c-.039.2-.079.433-.118.63a4.577,4.577,0,0,1-.157.709c-.2,1.1-.394,2.244-.551,3.346v.157c0,.157-.039.315-.039.433H4.015a44.649,44.649,0,0,1,.945-5.275Zm.433,26.494c.039.236.118.433.157.669,0,.079.039.157.039.236.276,1.063.63,2.126.984,3.189.079.236.157.433.236.63s.118.394.2.59H7.165a48.608,48.608,0,0,1-1.732-5.275l6.928-.039Zm5.826-42.555c-.157.236-.276.512-.433.748-.394.709-.787,1.378-1.142,2.086-.118.276-.276.512-.394.787a.137.137,0,0,1-.039.079H9.566a48.052,48.052,0,0,1,4.567-7.047h6.181c-.2.315-.433.63-.63.945C19.171,176.14,18.66,176.927,18.187,177.754Zm5.157-12.164h4.881c-.433.394-.866.748-1.3,1.181-.354.354-.709.709-1.063,1.024-.354.354-.669.709-1.024,1.063-.315.354-.669.709-.984,1.063-.276.315-.551.63-.827.984H17.2A43.05,43.05,0,0,1,23.344,165.59Zm-7.755,74.127h6.062c.2.276.394.512.59.787.551.669,1.063,1.338,1.653,1.968.315.354.63.709.984,1.063s.669.709,1.024,1.063a4.493,4.493,0,0,0,.433.433H20.982A45.826,45.826,0,0,1,15.589,239.716Zm21.927,13.345A37.232,37.232,0,0,1,26.1,248.535h4.252a7.568,7.568,0,0,1,.669.512c.394.276.748.551,1.142.827.669.472,1.378.945,2.086,1.378.315.2.669.394.984.59.551.315,1.1.63,1.653.905A3.138,3.138,0,0,1,37.516,253.062Zm18.069.748a36.548,36.548,0,0,1-4.173-.236l-.709-.079c-.079,0-.157-.039-.276-.039-.63-.079-1.22-.2-1.811-.315a.145.145,0,0,1-.118-.039c-.59-.118-1.181-.236-1.771-.394a.559.559,0,0,1-.236-.079c-.551-.157-1.1-.276-1.614-.433a1.92,1.92,0,0,1-.433-.157c-.472-.157-.945-.315-1.378-.472-.315-.118-.63-.236-.984-.394-.276-.118-.551-.2-.827-.315-9.487-4.015-17.361-11.889-22.124-22.006-.039-.079-.079-.2-.118-.276-.276-.551-.512-1.1-.748-1.653-.079-.236-.2-.433-.276-.669a13.474,13.474,0,0,1-.512-1.338c-.118-.276-.2-.59-.315-.866-.157-.394-.276-.787-.394-1.181-.118-.315-.2-.63-.315-.984-.118-.394-.236-.748-.315-1.142-.079-.354-.2-.709-.276-1.023-.079-.354-.2-.748-.276-1.1l-.236-1.063c-.079-.394-.157-.748-.236-1.142-.079-.354-.118-.709-.2-1.1s-.118-.787-.2-1.181c-.039-.354-.118-.709-.157-1.063a12.23,12.23,0,0,0-.157-1.26c-.039-.315-.079-.669-.118-.984-.039-.472-.079-.984-.118-1.5,0-.276-.039-.551-.039-.827-.039-.787-.039-1.535-.039-2.323s0-1.575.039-2.362c0-.276.039-.551.039-.827.039-.512.039-.984.118-1.5.039-.354.079-.669.118-.984.039-.433.079-.866.157-1.3.039-.354.118-.709.157-1.063.039-.394.118-.787.2-1.181.079-.354.118-.709.2-1.1s.157-.748.236-1.142l.236-1.063c.079-.394.2-.748.276-1.1s.2-.709.276-1.024c.118-.394.236-.748.315-1.142.118-.315.2-.63.315-.984.118-.394.276-.787.394-1.181.118-.276.2-.59.315-.866.157-.433.354-.905.512-1.338a4.8,4.8,0,0,1,.276-.669c.236-.551.472-1.1.748-1.653.039-.079.079-.2.118-.276,4.8-10.078,12.637-17.99,22.124-22.006.276-.118.551-.2.827-.315.315-.118.63-.276.984-.394.472-.157.945-.315,1.378-.472a1.92,1.92,0,0,0,.433-.157c.551-.157,1.063-.315,1.614-.433a.56.56,0,0,0,.236-.079c.59-.157,1.181-.276,1.771-.394a.145.145,0,0,0,.118-.039c.59-.118,1.22-.236,1.811-.315.079,0,.157-.039.276-.039l.709-.079a36.548,36.548,0,0,1,4.173-.236c22.872,0,41.453,21.376,41.453,47.633S78.457,253.81,55.585,253.81Z" transform="translate(0 -155)"/><path class="b" d="M138.29,187.543a28.3,28.3,0,0,1,3.189.2h.2a1.748,1.748,0,0,0,1.732-1.575,1.772,1.772,0,0,0-1.535-1.968,27.777,27.777,0,0,0-3.661-.2h-.039l-.039,1.771V184a1.731,1.731,0,0,0-1.732,1.771A1.923,1.923,0,0,0,138.29,187.543Z" transform="translate(-82.704 -172.584)"/><path class="b" d="M104.029,193.66a1.792,1.792,0,0,0,.787-.2,29.559,29.559,0,0,1,3.031-1.338,1.769,1.769,0,1,0-1.26-3.307,36.86,36.86,0,0,0-3.386,1.5,1.766,1.766,0,0,0-.787,2.362A1.874,1.874,0,0,0,104.029,193.66Z" transform="translate(-61.986 -175.434)"/><path class="b" d="M216.4,250.889a1.762,1.762,0,0,0,1.693,1.338,1.615,1.615,0,0,0,.433-.039,1.76,1.76,0,0,0,1.3-2.126,35.724,35.724,0,0,0-1.024-3.5,1.768,1.768,0,0,0-3.346,1.142C215.811,248.724,216.126,249.826,216.4,250.889Z" transform="translate(-130.583 -209.79)"/><path class="b" d="M203.494,217.962a31.956,31.956,0,0,0-2.2-2.952,1.762,1.762,0,1,0-2.716,2.244c.709.866,1.378,1.771,2.008,2.677a1.781,1.781,0,0,0,1.457.787,1.821,1.821,0,0,0,.984-.315A1.736,1.736,0,0,0,203.494,217.962Z" transform="translate(-120.155 -190.996)"/><path class="b" d="M133.116,376.677a29.72,29.72,0,0,1-3.267-.2,1.765,1.765,0,0,0-.433,3.5,29.193,29.193,0,0,0,3.7.236h.157a1.7,1.7,0,0,0,1.693-1.771A1.833,1.833,0,0,0,133.116,376.677Z" transform="translate(-77.531 -289.284)"/><path class="b" d="M195.431,346.809c-.709.866-1.457,1.693-2.2,2.48a1.783,1.783,0,0,0,0,2.48,1.7,1.7,0,0,0,1.22.512,1.723,1.723,0,0,0,1.26-.512c.866-.866,1.653-1.771,2.441-2.716a1.762,1.762,0,0,0-2.716-2.244Z" transform="translate(-116.856 -270.911)"/><path class="b" d="M167.333,368.778c-.984.512-2.008.945-2.992,1.338a1.769,1.769,0,1,0,1.26,3.307,36.876,36.876,0,0,0,3.386-1.5,1.718,1.718,0,0,0,.748-2.362A1.755,1.755,0,0,0,167.333,368.778Z" transform="translate(-98.954 -284.494)"/><path class="b" d="M176.566,194.266c-1.024-.669-2.126-1.3-3.189-1.85a1.761,1.761,0,0,0-1.575,3.149,30.058,30.058,0,0,1,2.874,1.653,1.741,1.741,0,0,0,.945.276,1.8,1.8,0,0,0,1.5-.787A1.776,1.776,0,0,0,176.566,194.266Z" transform="translate(-103.581 -177.574)"/><path class="b" d="M222.681,280.4a1.8,1.8,0,0,0-1.771,1.811c0,1.1-.039,2.165-.118,3.228a1.763,1.763,0,0,0,1.614,1.89h.118a1.791,1.791,0,0,0,1.771-1.614c.079-1.142.118-2.323.118-3.5v-.118A1.644,1.644,0,0,0,222.681,280.4Z" transform="translate(-133.87 -231.035)"/><path class="b" d="M55.843,276.987q0-1.653.118-3.307a1.736,1.736,0,0,0-1.614-1.89,1.759,1.759,0,0,0-1.89,1.614c-.079,1.181-.157,2.4-.157,3.582v.039a1.731,1.731,0,0,0,1.771,1.732A1.764,1.764,0,0,0,55.843,276.987Z" transform="translate(-31.711 -225.811)"/><path class="b" d="M215.939,315.256a1.791,1.791,0,0,0-2.244,1.1,29.946,29.946,0,0,1-1.22,3.11,1.778,1.778,0,0,0,.905,2.323,1.544,1.544,0,0,0,.709.157,1.751,1.751,0,0,0,1.614-1.063q.709-1.653,1.3-3.425A1.7,1.7,0,0,0,215.939,315.256Z" transform="translate(-128.742 -252.113)"/><path class="b" d="M61.717,237.566a1.745,1.745,0,0,0-2.323.905c-.472,1.1-.945,2.244-1.338,3.386a1.791,1.791,0,0,0,1.1,2.244,1.435,1.435,0,0,0,.551.079A1.738,1.738,0,0,0,61.363,243a26.85,26.85,0,0,1,1.22-3.11A1.729,1.729,0,0,0,61.717,237.566Z" transform="translate(-35.145 -204.97)"/><path class="b" d="M73.05,340.094a1.736,1.736,0,0,0-2.441-.472,1.771,1.771,0,0,0-.472,2.441c.709,1.024,1.417,2.008,2.165,2.952a1.751,1.751,0,0,0,1.378.63,1.65,1.65,0,0,0,1.1-.394,1.755,1.755,0,0,0,.236-2.48C74.35,341.944,73.68,341.039,73.05,340.094Z" transform="translate(-42.345 -266.754)"/><path class="b" d="M58.945,308.319a1.762,1.762,0,0,0-3.425.827,35.72,35.72,0,0,0,1.024,3.5A1.723,1.723,0,0,0,58.2,313.83a2.323,2.323,0,0,0,.551-.079,1.775,1.775,0,0,0,1.1-2.244C59.535,310.484,59.22,309.421,58.945,308.319Z" transform="translate(-33.632 -247.144)"/><path class="b" d="M77.814,208.627a31.671,31.671,0,0,0-2.441,2.716,1.755,1.755,0,0,0,.236,2.48,1.65,1.65,0,0,0,1.1.394,1.886,1.886,0,0,0,1.378-.63q1.063-1.3,2.244-2.48a1.783,1.783,0,0,0,0-2.48A1.832,1.832,0,0,0,77.814,208.627Z" transform="translate(-45.455 -187.212)"/><path class="b" d="M100.355,366.194c-.984-.512-1.929-1.063-2.874-1.653a1.763,1.763,0,1,0-1.929,2.952,32.012,32.012,0,0,0,3.189,1.85,1.936,1.936,0,0,0,.787.2,1.77,1.77,0,0,0,1.575-.984A1.738,1.738,0,0,0,100.355,366.194Z" transform="translate(-57.446 -281.871)"/><path class="b" d="M128.188,243.354a31.029,31.029,0,0,0-5.944-2.165c-1.26-.315-2.165-.551-2.677-.709V224.695a11,11,0,0,1,2.283.709,17.343,17.343,0,0,1,6.614,5.078v3.661a1.732,1.732,0,0,0,3.464,0v-10.9a1.732,1.732,0,0,0-3.464,0v2.323c-.394-.315-.118-.669-.709-1.1a20.255,20.255,0,0,0-8.188-3.307v-2.519a1.732,1.732,0,1,0-3.464,0v2.283c-4.527.079-7.913,1.1-10.078,3.071a10.777,10.777,0,0,0-3.425,8.346,7.956,7.956,0,0,0,1.575,4.881,12.125,12.125,0,0,0,4.33,3.464,48.371,48.371,0,0,0,7.6,2.677v16.888a14.665,14.665,0,0,1-2.519-.669c-3.11-1.181-4.527-1.929-6.377-3.937v-3.976a1.732,1.732,0,1,0-3.464,0v10.9a1.732,1.732,0,0,0,3.464,0v-2.323c3.031,2.441,5.275,3.031,8.9,3.543v2.48a1.732,1.732,0,1,0,3.464,0v-2.283c4.566-.039,8.149-1.142,10.629-3.228a11.056,11.056,0,0,0,3.937-8.857,8.174,8.174,0,0,0-1.575-5.039A12.283,12.283,0,0,0,128.188,243.354ZM116.063,239.5q-.886-.3-2.008-.59a25.551,25.551,0,0,1-3.7-1.378,8.39,8.39,0,0,1-3.11-2.362,5.009,5.009,0,0,1-1.181-3.307,6.672,6.672,0,0,1,2.48-5.236c1.614-1.378,4.133-2.126,7.558-2.2l-.039,15.077Zm12.991,19.88c-.039.039-.079.039-.079.079.236-.2.512-.433.748-.63A8.247,8.247,0,0,0,129.054,259.376Zm-1.26-1.26c-1.89,1.5-4.645,2.323-8.228,2.362V244.3l2.8.787a25.437,25.437,0,0,1,3.976,1.457,8.729,8.729,0,0,1,3.11,2.323,5.039,5.039,0,0,1,1.181,3.346A7.218,7.218,0,0,1,127.794,258.117Z" transform="translate(-62.21 -192.532)"/></g><g transform="translate(67.71 61.018)"><ellipse class="f" cx="43.579" cy="49.208" rx="43.579" ry="49.208" transform="translate(1.653 1.968)"/><ellipse class="d" cx="43.579" cy="49.208" rx="43.579" ry="49.208" transform="translate(11.771 1.968)"/><path class="b" d="M227.585,155a40.316,40.316,0,0,0-5.354.354A40.808,40.808,0,0,0,217,155c-12.046,0-23.384,5.354-31.887,15.077-.394.433-.748.866-1.1,1.338l-.039.039a52.876,52.876,0,0,0-10.078,19.959h0a57.575,57.575,0,0,0-1.89,14.8,56.445,56.445,0,0,0,4.291,21.73c.039.079.039.157.079.2a53.747,53.747,0,0,0,6.1,10.826c.079.079.118.2.2.276a47.369,47.369,0,0,0,8.346,8.7.947.947,0,0,0,.315.236A40.331,40.331,0,0,0,222.271,257a39.293,39.293,0,0,0,5.314.354c24.8,0,45-22.951,45-51.176S252.386,155,227.585,155Zm-36.414,81.173h-6.338a46.534,46.534,0,0,1-4.133-7.047h6.692c.276.63.551,1.26.866,1.85.118.276.276.512.394.787.354.709.748,1.417,1.142,2.086.157.276.276.512.433.787A16.168,16.168,0,0,0,191.171,236.173ZM179.834,185H186.6a52.157,52.157,0,0,0-1.811,5.275h-6.928C178.456,188.5,179.086,186.729,179.834,185Zm6.259-10.59h6.22a50.743,50.743,0,0,0-4.133,7.047h-6.653A49.031,49.031,0,0,1,186.093,174.408Zm-10.55,31.769q0-1.771.118-3.543h7.047v.039c-.079,1.142-.118,2.323-.118,3.5,0,.59.039,1.181.039,1.771h-7.047C175.582,207.357,175.543,206.767,175.543,206.176Zm7.283,5.275c.079.748.157,1.5.236,2.2v.157c.118.984.276,1.968.472,2.913h-6.968a47.335,47.335,0,0,1-.787-5.275Zm1.063-17.636c-.079.315-.118.669-.2,1.024h0c-.276,1.417-.512,2.834-.669,4.291h-7.047c.236-1.811.551-3.543.945-5.275h6.968Zm.472,26.494c.039.2.118.433.157.63.039.079.039.157.079.236.276,1.063.63,2.126.984,3.189.079.236.157.433.236.669.079.2.118.394.2.59H179.2a48.606,48.606,0,0,1-1.732-5.275h6.889Zm20.392-58.262h-3.425a36.814,36.814,0,0,1,8.149-2.756A47.591,47.591,0,0,0,204.753,162.047Zm-9.487,3.543h4.921a48.283,48.283,0,0,0-4.488,4.488c-.236.276-.433.551-.669.827H189.2A40.452,40.452,0,0,1,195.266,165.59Zm-7.676,74.127h6.062c.2.276.394.512.59.787.551.669,1.063,1.338,1.653,1.968.315.354.63.709.984,1.063s.669.709,1.024,1.063l.433.433h-5.314A43.313,43.313,0,0,1,187.589,239.716Zm21.927,13.345a37.232,37.232,0,0,1-11.416-4.527h4.252c.236.157.472.354.669.512.354.276.748.551,1.1.827.709.472,1.378.945,2.126,1.378a7.919,7.919,0,0,0,.984.551c.551.315,1.142.63,1.693.945A4.3,4.3,0,0,1,209.516,253.062Zm18.069.748a35.359,35.359,0,0,1-4.133-.236l-.709-.118c-.079,0-.157-.039-.276-.039-.63-.079-1.22-.2-1.811-.315a.3.3,0,0,1-.157-.039c-.59-.118-1.181-.236-1.732-.394a.56.56,0,0,1-.236-.079c-.551-.118-1.063-.276-1.614-.433-.157-.039-.315-.118-.472-.157-.472-.157-.905-.276-1.378-.472-.354-.118-.709-.276-1.063-.394-.236-.079-.512-.2-.748-.276-9.487-4.015-17.361-11.928-22.163-22.006l-.118-.236c-.276-.551-.512-1.142-.748-1.732a4.373,4.373,0,0,0-.276-.63c-.2-.433-.354-.905-.551-1.338-.118-.276-.2-.551-.315-.827-.157-.394-.276-.787-.433-1.22-.118-.315-.2-.63-.315-.945-.118-.394-.236-.748-.354-1.142-.079-.354-.2-.669-.276-1.024-.079-.394-.2-.748-.276-1.142l-.236-1.063c-.079-.394-.157-.748-.236-1.142-.079-.354-.118-.709-.2-1.063-.079-.394-.118-.787-.2-1.181-.039-.354-.118-.709-.157-1.063-.039-.433-.079-.866-.157-1.3-.039-.315-.079-.669-.118-.984-.039-.472-.079-.984-.118-1.5,0-.276-.039-.551-.039-.827-.039-.787-.039-1.575-.039-2.362s0-1.535.039-2.323a11.122,11.122,0,0,1,.079-1.142c.039-.354.039-.748.079-1.1.039-.551.118-1.063.157-1.614.039-.2.039-.394.079-.551.079-.63.157-1.3.276-1.929a.355.355,0,0,1,.039-.2A50.421,50.421,0,0,1,196.21,174.8a2.161,2.161,0,0,1,.276-.354c.276-.354.59-.709.866-1.063.157-.2.354-.433.512-.63.276-.315.551-.63.787-.905.2-.236.394-.433.59-.669.276-.315.551-.59.827-.866l.551-.551c.315-.315.63-.63.945-.905.118-.118.276-.236.394-.354.394-.354.787-.709,1.181-1.024l.039-.039a38.375,38.375,0,0,1,19.132-8.582l1.024-.157a34.506,34.506,0,0,1,4.055-.236c22.872,0,41.453,21.376,41.453,47.633C269.077,232.434,250.457,253.81,227.585,253.81Z" transform="translate(-172 -155)"/><path class="b" d="M310.411,187.543a28.3,28.3,0,0,1,3.189.2h.2a1.748,1.748,0,0,0,1.732-1.575,1.772,1.772,0,0,0-1.535-1.968,27.546,27.546,0,0,0-3.622-.2h-.039a1.731,1.731,0,0,0-1.732,1.771A1.8,1.8,0,0,0,310.411,187.543Z" transform="translate(-254.826 -172.584)"/><path class="b" d="M388.4,250.889a1.762,1.762,0,0,0,1.693,1.338,1.615,1.615,0,0,0,.433-.039,1.76,1.76,0,0,0,1.3-2.126,35.724,35.724,0,0,0-1.024-3.5,1.768,1.768,0,0,0-3.346,1.142C387.811,248.724,388.126,249.826,388.4,250.889Z" transform="translate(-302.583 -209.79)"/><path class="b" d="M276.05,193.66a1.792,1.792,0,0,0,.787-.2,29.565,29.565,0,0,1,3.031-1.338,1.769,1.769,0,1,0-1.26-3.307,36.86,36.86,0,0,0-3.386,1.5,1.718,1.718,0,0,0-.748,2.362A1.7,1.7,0,0,0,276.05,193.66Z" transform="translate(-234.007 -175.434)"/><path class="b" d="M367.431,346.809c-.709.866-1.457,1.693-2.2,2.48a1.783,1.783,0,0,0,0,2.48,1.806,1.806,0,0,0,2.519,0c.866-.866,1.653-1.771,2.441-2.716a1.755,1.755,0,0,0-.236-2.48A1.8,1.8,0,0,0,367.431,346.809Z" transform="translate(-288.856 -270.911)"/><path class="b" d="M394.681,280.4a1.824,1.824,0,0,0-1.771,1.811c0,1.1-.039,2.165-.118,3.228a1.763,1.763,0,0,0,1.614,1.89h.118a1.791,1.791,0,0,0,1.771-1.614c.079-1.142.118-2.323.118-3.5v-.118A1.644,1.644,0,0,0,394.681,280.4Z" transform="translate(-305.87 -231.035)"/><path class="b" d="M348.566,194.266c-1.023-.669-2.126-1.3-3.189-1.85a1.761,1.761,0,1,0-1.575,3.149,23.493,23.493,0,0,1,2.874,1.653,1.741,1.741,0,0,0,.945.276,1.8,1.8,0,0,0,1.5-.787A1.776,1.776,0,0,0,348.566,194.266Z" transform="translate(-275.581 -177.574)"/><path class="b" d="M339.333,368.778c-.984.512-2.008.945-2.992,1.338a1.769,1.769,0,1,0,1.26,3.307,36.879,36.879,0,0,0,3.385-1.5,1.718,1.718,0,0,0,.748-2.362A1.755,1.755,0,0,0,339.333,368.778Z" transform="translate(-270.954 -284.494)"/><path class="b" d="M227.843,276.987q0-1.653.118-3.307a1.736,1.736,0,0,0-1.614-1.89,1.759,1.759,0,0,0-1.89,1.614c-.079,1.181-.157,2.4-.157,3.582v.039a1.731,1.731,0,0,0,1.771,1.732A1.764,1.764,0,0,0,227.843,276.987Z" transform="translate(-203.711 -225.811)"/><path class="b" d="M387.939,315.256a1.791,1.791,0,0,0-2.244,1.1,29.939,29.939,0,0,1-1.22,3.11,1.779,1.779,0,0,0,.905,2.323,1.544,1.544,0,0,0,.709.157,1.75,1.75,0,0,0,1.614-1.063q.709-1.653,1.3-3.425A1.7,1.7,0,0,0,387.939,315.256Z" transform="translate(-300.742 -252.113)"/><path class="b" d="M375.494,217.962a31.956,31.956,0,0,0-2.2-2.952,1.762,1.762,0,1,0-2.716,2.244c.709.866,1.378,1.771,2.008,2.677a1.781,1.781,0,0,0,1.457.787,1.821,1.821,0,0,0,.984-.315A1.736,1.736,0,0,0,375.494,217.962Z" transform="translate(-292.155 -190.996)"/><path class="b" d="M305.116,376.677a29.72,29.72,0,0,1-3.267-.2,1.772,1.772,0,0,0-1.968,1.535,1.8,1.8,0,0,0,1.535,1.968,29.193,29.193,0,0,0,3.7.236h.157a1.7,1.7,0,0,0,1.693-1.771A1.833,1.833,0,0,0,305.116,376.677Z" transform="translate(-249.531 -289.284)"/><path class="b" d="M230.945,308.319a1.762,1.762,0,0,0-3.425.827,35.727,35.727,0,0,0,1.024,3.5,1.723,1.723,0,0,0,1.653,1.181,2.323,2.323,0,0,0,.551-.079,1.775,1.775,0,0,0,1.1-2.244C231.535,310.484,231.22,309.421,230.945,308.319Z" transform="translate(-205.632 -247.144)"/><path class="b" d="M272.355,366.194c-.984-.512-1.929-1.063-2.874-1.653a1.763,1.763,0,1,0-1.929,2.952,32.008,32.008,0,0,0,3.189,1.85,1.792,1.792,0,0,0,.787.2,1.77,1.77,0,0,0,1.575-.984A1.738,1.738,0,0,0,272.355,366.194Z" transform="translate(-229.446 -281.871)"/><path class="b" d="M233.717,237.566a1.745,1.745,0,0,0-2.323.905c-.472,1.1-.945,2.244-1.338,3.386a1.791,1.791,0,0,0,1.1,2.244,1.435,1.435,0,0,0,.551.079A1.738,1.738,0,0,0,233.363,243a26.849,26.849,0,0,1,1.22-3.11A1.729,1.729,0,0,0,233.717,237.566Z" transform="translate(-207.145 -204.97)"/><path class="b" d="M249.814,208.627a31.675,31.675,0,0,0-2.441,2.716,1.755,1.755,0,0,0,.236,2.48,1.65,1.65,0,0,0,1.1.394,1.886,1.886,0,0,0,1.378-.63q1.063-1.3,2.244-2.48a1.783,1.783,0,0,0,0-2.48A1.832,1.832,0,0,0,249.814,208.627Z" transform="translate(-217.455 -187.212)"/><path class="b" d="M245.05,340.094a1.736,1.736,0,0,0-2.441-.472,1.771,1.771,0,0,0-.472,2.441c.709,1.024,1.417,2.008,2.165,2.952a1.751,1.751,0,0,0,1.378.63,1.65,1.65,0,0,0,1.1-.394,1.755,1.755,0,0,0,.236-2.48C246.35,341.944,245.68,341.039,245.05,340.094Z" transform="translate(-214.345 -266.754)"/><path class="b" d="M304.774,253.393a1.613,1.613,0,0,0-1.732,1.732,5.518,5.518,0,0,1-1.575,4.133,5.2,5.2,0,0,1-3.858,1.575H284.461a12.356,12.356,0,0,0,2.008-7.44v-8.582h6.85a1.732,1.732,0,1,0,0-3.464h-6.85v-7.991c0-2.677.551-4.724,1.653-6.062a5.223,5.223,0,0,1,4.291-1.929,5.873,5.873,0,0,1,4.409,1.693,6.288,6.288,0,0,1,1.653,4.606,1.732,1.732,0,1,0,3.464,0,9.657,9.657,0,0,0-2.638-7.047,9.221,9.221,0,0,0-6.928-2.716,8.636,8.636,0,0,0-6.928,3.071c-1.653,1.968-2.48,4.8-2.48,8.424v7.991h-3.976a1.732,1.732,0,1,0,0,3.464h3.976v8.582c0,2.48-.512,4.37-1.575,5.629a4.773,4.773,0,0,1-3.858,1.811,1.732,1.732,0,1,0,0,3.464h20.077a8.608,8.608,0,0,0,6.377-2.6,9.057,9.057,0,0,0,2.559-6.574A1.673,1.673,0,0,0,304.774,253.393Z" transform="translate(-234.938 -195.564)"/></g></g></g></svg>