<?xml version="1.0" encoding="utf-8"?>
<!-- Generator: Adobe Illustrator 21.0.2, SVG Export Plug-In . SVG Version: 6.00 Build 0)  -->
<svg version="1.1" id="Layer_1" xmlns="http://www.w3.org/2000/svg" xmlns:xlink="http://www.w3.org/1999/xlink" x="0px" y="0px"
	 viewBox="0 0 77 310" style="enable-background:new 0 0 77 310;" xml:space="preserve">
<style type="text/css">
	.st0{fill:none;}
	.st1{fill:none;stroke:#004385;stroke-width:2;}
	.st2{enable-background:new    ;}
	.st3{fill:#004385;}
</style>
<g transform="translate(-16412 -17243)">
	<g transform="translate(994 648)">
		<path class="st0" d="M15456.5,16595L15456.5,16595c21.3,0,38.5,17.2,38.5,38.5l0,0c0,21.3-17.2,38.5-38.5,38.5l0,0
			c-21.3,0-38.5-17.2-38.5-38.5l0,0C15418,16612.2,15435.2,16595,15456.5,16595z"/>
		<path class="st1" d="M15456.5,16596L15456.5,16596c20.7,0,37.5,16.8,37.5,37.5l0,0c0,20.7-16.8,37.5-37.5,37.5l0,0
			c-20.7,0-37.5-16.8-37.5-37.5l0,0C15419,16612.8,15435.8,16596,15456.5,16596z"/>
	</g>
	<g class="st2">
		<path class="st3" d="M16428.4,17274.9c-0.3,0.2-0.4,0.5-0.4,0.9s0.2,0.7,0.5,0.9c0.3,0.2,1.1,0.5,2.3,0.8s2.1,0.7,2.8,1.3
			c0.7,0.6,1,1.4,1,2.6s-0.4,2-1.3,2.7c-0.8,0.7-2,1.1-3.3,1.1c-2,0-3.8-0.7-5.4-2.2l1.7-2.1c1.4,1.2,2.6,1.8,3.8,1.8
			c0.5,0,0.9-0.1,1.2-0.3c0.3-0.2,0.4-0.5,0.4-0.9c0-0.4-0.2-0.7-0.5-0.9s-0.9-0.4-1.9-0.7c-1.5-0.3-2.5-0.8-3.2-1.4s-1-1.4-1-2.6
			s0.4-2.1,1.3-2.8c0.9-0.6,1.9-1,3.2-1c0.8,0,1.7,0.1,2.5,0.4c0.8,0.3,1.6,0.7,2.2,1.2l-1.4,2.1c-1.1-0.8-2.2-1.2-3.4-1.2
			C16429,17274.6,16428.6,17274.7,16428.4,17274.9z"/>
		<path class="st3" d="M16439.6,17277.3v4.3c0,0.4,0.1,0.7,0.3,0.9c0.2,0.2,0.4,0.3,0.7,0.3c0.5,0,0.9-0.2,1.3-0.7l1,1.9
			c-0.8,0.8-1.7,1.2-2.7,1.2c-0.9,0-1.7-0.3-2.4-0.9c-0.6-0.6-1-1.4-1-2.5v-4.5h-1.1v-1.9h1.1v-2.9h2.7v2.9h2.3v1.9H16439.6z"/>
		<path class="st3" d="M16452.7,17283.6c-1.1,1-2.4,1.5-3.8,1.5c-1.5,0-2.7-0.5-3.6-1.4c-1-0.9-1.4-2.1-1.4-3.6s0.5-2.7,1.5-3.6
			c1-0.9,2.1-1.3,3.5-1.3s2.5,0.4,3.4,1.2c0.9,0.8,1.4,1.9,1.4,3.3v1.4h-7.1c0.1,0.5,0.4,1,0.8,1.3s1,0.5,1.6,0.5
			c0.9,0,1.7-0.3,2.3-1L16452.7,17283.6z M16450.1,17277.9c-0.4-0.3-0.8-0.5-1.4-0.5c-0.5,0-1,0.2-1.5,0.5c-0.4,0.3-0.7,0.8-0.8,1.3
			h4.2C16450.7,17278.6,16450.5,17278.2,16450.1,17277.9z"/>
		<path class="st3" d="M16461.1,17275.2c1.1,0,2.1,0.5,3,1.4c0.9,0.9,1.3,2.1,1.3,3.6c0,1.4-0.4,2.6-1.3,3.6c-0.9,1-1.9,1.4-3.1,1.4
			c-1.2,0-2.1-0.5-2.9-1.4v4.8h-2.7v-13.2h2.7v1.1C16458.9,17275.6,16459.9,17275.2,16461.1,17275.2z M16458.1,17280.2
			c0,0.8,0.2,1.4,0.7,1.9c0.4,0.5,1,0.7,1.6,0.7c0.6,0,1.2-0.2,1.6-0.7c0.5-0.5,0.7-1.1,0.7-1.9c0-0.8-0.2-1.4-0.7-2s-1-0.8-1.6-0.8
			c-0.6,0-1.2,0.3-1.6,0.8C16458.3,17278.7,16458.1,17279.4,16458.1,17280.2z"/>
		<path class="st3" d="M16471.4,17272.4h5.1v12.6h-2.7v-10.2h-2.4V17272.4z"/>
	</g>
	<g transform="translate(994 765)">
		<path class="st0" d="M15456.5,16595L15456.5,16595c21.3,0,38.5,17.2,38.5,38.5l0,0c0,21.3-17.2,38.5-38.5,38.5l0,0
			c-21.3,0-38.5-17.2-38.5-38.5l0,0C15418,16612.2,15435.2,16595,15456.5,16595z"/>
		<path class="st1" d="M15456.5,16596L15456.5,16596c20.7,0,37.5,16.8,37.5,37.5l0,0c0,20.7-16.8,37.5-37.5,37.5l0,0
			c-20.7,0-37.5-16.8-37.5-37.5l0,0C15419,16612.8,15435.8,16596,15456.5,16596z"/>
	</g>
	<g class="st2">
		<path class="st3" d="M16424.5,17391.9c-0.3,0.2-0.4,0.5-0.4,0.9s0.2,0.7,0.5,0.9c0.3,0.2,1.1,0.5,2.3,0.8c1.2,0.3,2.1,0.7,2.8,1.3
			c0.7,0.6,1,1.4,1,2.6s-0.4,2-1.3,2.7c-0.8,0.7-2,1.1-3.3,1.1c-2,0-3.8-0.7-5.4-2.2l1.7-2.1c1.4,1.2,2.6,1.8,3.8,1.8
			c0.5,0,0.9-0.1,1.2-0.3c0.3-0.2,0.4-0.5,0.4-0.9c0-0.4-0.2-0.7-0.5-0.9c-0.3-0.2-0.9-0.4-1.9-0.7c-1.5-0.3-2.5-0.8-3.2-1.4
			s-1-1.4-1-2.6s0.4-2.1,1.3-2.8s1.9-1,3.2-1c0.8,0,1.7,0.1,2.5,0.4c0.8,0.3,1.6,0.7,2.2,1.2l-1.4,2.1c-1.1-0.8-2.2-1.2-3.4-1.2
			C16425.1,17391.6,16424.8,17391.7,16424.5,17391.9z"/>
		<path class="st3" d="M16435.7,17394.3v4.3c0,0.4,0.1,0.7,0.3,0.9s0.4,0.3,0.7,0.3c0.5,0,0.9-0.2,1.3-0.7l1,1.9
			c-0.8,0.8-1.7,1.2-2.7,1.2c-0.9,0-1.7-0.3-2.4-0.9c-0.6-0.6-1-1.4-1-2.5v-4.5h-1.1v-1.9h1.1v-2.9h2.7v2.9h2.3v1.9H16435.7z"/>
		<path class="st3" d="M16448.8,17400.6c-1.1,1-2.4,1.5-3.8,1.5s-2.7-0.5-3.6-1.4c-1-0.9-1.4-2.1-1.4-3.6s0.5-2.7,1.5-3.6
			c1-0.9,2.1-1.3,3.5-1.3s2.5,0.4,3.4,1.2c0.9,0.8,1.4,1.9,1.4,3.3v1.4h-7.1c0.1,0.5,0.4,1,0.8,1.3c0.5,0.3,1,0.5,1.6,0.5
			c0.9,0,1.7-0.3,2.3-1L16448.8,17400.6z M16446.2,17394.9c-0.4-0.3-0.8-0.5-1.4-0.5c-0.5,0-1,0.2-1.5,0.5c-0.4,0.3-0.7,0.8-0.8,1.3
			h4.2C16446.8,17395.6,16446.6,17395.2,16446.2,17394.9z"/>
		<path class="st3" d="M16457.2,17392.2c1.1,0,2.1,0.5,3,1.4c0.9,0.9,1.3,2.1,1.3,3.6c0,1.4-0.4,2.6-1.3,3.6c-0.9,1-1.9,1.4-3.1,1.4
			c-1.2,0-2.1-0.5-2.9-1.4v4.8h-2.7v-13.2h2.7v1.1C16455.1,17392.6,16456.1,17392.2,16457.2,17392.2z M16454.2,17397.2
			c0,0.8,0.2,1.4,0.7,1.9c0.4,0.5,1,0.7,1.6,0.7c0.6,0,1.2-0.2,1.6-0.7c0.5-0.5,0.7-1.1,0.7-1.9c0-0.8-0.2-1.4-0.7-2s-1-0.8-1.6-0.8
			c-0.6,0-1.2,0.3-1.6,0.8S16454.2,17396.4,16454.2,17397.2z"/>
		<path class="st3" d="M16473.3,17394.3c0.3-0.5,0.5-0.9,0.5-1.3s-0.1-0.8-0.4-1.1c-0.3-0.3-0.6-0.4-1.1-0.4c-0.8,0-1.5,0.6-2.2,1.7
			l-2.2-1.3c0.6-0.9,1.2-1.6,1.9-2.1c0.7-0.5,1.6-0.7,2.7-0.7s2,0.3,2.9,1c0.8,0.7,1.2,1.6,1.2,2.8c0,0.6-0.2,1.3-0.5,1.9
			c-0.3,0.6-0.9,1.4-1.8,2.3l-2.3,2.4h5v2.5h-8.9v-2.1l3.7-3.8C16472.5,17395.4,16473,17394.8,16473.3,17394.3z"/>
	</g>
	<g transform="translate(994 881)">
		<path class="st0" d="M15456.5,16595L15456.5,16595c21.3,0,38.5,17.2,38.5,38.5l0,0c0,21.3-17.2,38.5-38.5,38.5l0,0
			c-21.3,0-38.5-17.2-38.5-38.5l0,0C15418,16612.2,15435.2,16595,15456.5,16595z"/>
		<path class="st1" d="M15456.5,16596L15456.5,16596c20.7,0,37.5,16.8,37.5,37.5l0,0c0,20.7-16.8,37.5-37.5,37.5l0,0
			c-20.7,0-37.5-16.8-37.5-37.5l0,0C15419,16612.8,15435.8,16596,15456.5,16596z"/>
	</g>
	<g class="st2">
		<path class="st3" d="M16424.5,17507.9c-0.3,0.2-0.4,0.5-0.4,0.9s0.2,0.7,0.5,0.9c0.3,0.2,1.1,0.5,2.3,0.8c1.2,0.3,2.1,0.7,2.8,1.3
			c0.7,0.6,1,1.4,1,2.6s-0.4,2-1.3,2.7c-0.8,0.7-2,1.1-3.3,1.1c-2,0-3.8-0.7-5.4-2.2l1.7-2.1c1.4,1.2,2.6,1.8,3.8,1.8
			c0.5,0,0.9-0.1,1.2-0.3c0.3-0.2,0.4-0.5,0.4-0.9c0-0.4-0.2-0.7-0.5-0.9c-0.3-0.2-0.9-0.4-1.9-0.7c-1.5-0.3-2.5-0.8-3.2-1.4
			s-1-1.4-1-2.6s0.4-2.1,1.3-2.8s1.9-1,3.2-1c0.8,0,1.7,0.1,2.5,0.4c0.8,0.3,1.6,0.7,2.2,1.2l-1.4,2.1c-1.1-0.8-2.2-1.2-3.4-1.2
			C16425.1,17507.6,16424.8,17507.7,16424.5,17507.9z"/>
		<path class="st3" d="M16435.7,17510.3v4.3c0,0.4,0.1,0.7,0.3,0.9s0.4,0.3,0.7,0.3c0.5,0,0.9-0.2,1.3-0.7l1,1.9
			c-0.8,0.8-1.7,1.2-2.7,1.2c-0.9,0-1.7-0.3-2.4-0.9c-0.6-0.6-1-1.4-1-2.5v-4.5h-1.1v-1.9h1.1v-2.9h2.7v2.9h2.3v1.9H16435.7z"/>
		<path class="st3" d="M16448.8,17516.6c-1.1,1-2.4,1.5-3.8,1.5s-2.7-0.5-3.6-1.4c-1-0.9-1.4-2.1-1.4-3.6s0.5-2.7,1.5-3.6
			c1-0.9,2.1-1.3,3.5-1.3s2.5,0.4,3.4,1.2c0.9,0.8,1.4,1.9,1.4,3.3v1.4h-7.1c0.1,0.5,0.4,1,0.8,1.3c0.5,0.3,1,0.5,1.6,0.5
			c0.9,0,1.7-0.3,2.3-1L16448.8,17516.6z M16446.2,17510.9c-0.4-0.3-0.8-0.5-1.4-0.5c-0.5,0-1,0.2-1.5,0.5c-0.4,0.3-0.7,0.8-0.8,1.3
			h4.2C16446.8,17511.6,16446.6,17511.2,16446.2,17510.9z"/>
		<path class="st3" d="M16457.2,17508.2c1.1,0,2.1,0.5,3,1.4c0.9,0.9,1.3,2.1,1.3,3.6c0,1.4-0.4,2.6-1.3,3.6c-0.9,1-1.9,1.4-3.1,1.4
			c-1.2,0-2.1-0.5-2.9-1.4v4.8h-2.7v-13.2h2.7v1.1C16455.1,17508.6,16456.1,17508.2,16457.2,17508.2z M16454.2,17513.2
			c0,0.8,0.2,1.4,0.7,1.9c0.4,0.5,1,0.7,1.6,0.7c0.6,0,1.2-0.2,1.6-0.7c0.5-0.5,0.7-1.1,0.7-1.9c0-0.8-0.2-1.4-0.7-2s-1-0.8-1.6-0.8
			c-0.6,0-1.2,0.3-1.6,0.8S16454.2,17512.4,16454.2,17513.2z"/>
		<path class="st3" d="M16468.4,17507.8v-2.4h7.7v1.9l-2.6,2.9c1,0.2,1.8,0.6,2.3,1.3c0.6,0.7,0.8,1.5,0.8,2.3
			c0,1.3-0.4,2.4-1.3,3.1c-0.9,0.8-2,1.1-3.4,1.1c-1.4,0-2.8-0.5-4.2-1.5l1.2-2.2c1.2,0.8,2.2,1.3,3.2,1.3c0.6,0,1-0.1,1.4-0.4
			c0.4-0.3,0.5-0.7,0.5-1.2c0-0.5-0.2-0.9-0.6-1.2c-0.4-0.3-1-0.5-1.7-0.5c-0.4,0-1,0.1-1.7,0.3v-2.1l2.4-2.8H16468.4z"/>
	</g>
	<line class="st1" x1="16450.5" y1="17318.5" x2="16450.5" y2="17361.5"/>
	<line class="st1" x1="16450.5" y1="17435.5" x2="16450.5" y2="17477.5"/>
</g>
</svg>
