<svg xmlns="http://www.w3.org/2000/svg" viewBox="-17427.5 -14328.826 108.959 66.525"><defs><style>.a{fill:#004180;}.b{fill:#004385;}</style></defs><g transform="translate(-18412 -17243)"><g transform="translate(1070.363 2938.126)"><g transform="translate(0.419 5.284)"><path class="a" d="M19.027,26.571a.568.568,0,0,0,.528-.528l3.17-6.341a1.162,1.162,0,0,0-.264-1.321L17.97,16.267h-.264a4.216,4.216,0,0,0-1.849-2.378,5.775,5.775,0,0,1-1.321-.793A6.639,6.639,0,0,0,16.12,9.4V9.133h.793a.7.7,0,0,0,.793-.793c0-.793-.264-1.057-.793-1.057H15.592A3.647,3.647,0,0,0,14.8,6.227L15.856,5.17a1.179,1.179,0,0,0,0-1.321.8.8,0,0,0-1.057,0L13.478,5.17c-.264-.264-.528-.264-1.057-.528V2.793A.7.7,0,0,0,11.629,2a.7.7,0,0,0-.793.793V4.642c-.528.264-.793.264-1.057.528L8.458,3.849a1.179,1.179,0,0,0-1.321,0,1.179,1.179,0,0,0,0,1.321L8.194,6.227c-.264.264-.264.528-.528,1.057H6.345a.7.7,0,0,0-.793.793L3.7,4.378a.568.568,0,0,0-.528-.528H2.91A.7.7,0,0,0,3.7,3.057C3.7,2.264,3.174,2,2.91,2H1.061a.7.7,0,0,0-.793.793.7.7,0,0,0,.793.793V4.906L.532,5.7C.268,5.963,0,6.227.268,6.756L4.759,22.344,3.7,33.7H2.91a.7.7,0,0,0-.793.793v3.435c-.264.528.264,1.057.793,1.057h17.7A.7.7,0,0,0,21.4,38.2V34.761A.968.968,0,0,0,20.348,33.7h-.793c-.264-1.321-.528-4.227-.793-7.133Zm-3.7-10.832c.528.528.793.793.793,1.321v1.585c-2.114,4.227-7.4,6.869-10.04,7.662l.264-3.435A32.188,32.188,0,0,0,15.328,15.739ZM9.779,7.02a3.819,3.819,0,0,1,1.849-.528,2.4,2.4,0,0,1,1.849.793A3,3,0,0,1,14.271,9.4a5.579,5.579,0,0,1-1.057,2.642c-.793.793-1.321,1.057-1.585,1.057s-.793-.264-1.585-1.057A3.785,3.785,0,0,1,8.987,9.4,3.688,3.688,0,0,1,9.779,7.02Zm-.793,6.341a3.606,3.606,0,0,0,2.642,1.585,11.443,11.443,0,0,1,1.321-.264c.264,0,.528.264.793.264a39.747,39.747,0,0,1-7.134,5.812l.528-7.926A16.838,16.838,0,0,0,8.987,13.361ZM6.345,9.133h.793V9.4a4.9,4.9,0,0,0,.528,1.849H6.873L5.816,8.869C6.081,8.869,6.081,9.133,6.345,9.133ZM6.081,28.156a22.933,22.933,0,0,0,4.491-1.849A23.943,23.943,0,0,0,14.8,23.4a12.206,12.206,0,0,0,1.849-1.849,20.394,20.394,0,0,0,.528,3.963,21.652,21.652,0,0,1-7.4,5.02,32.044,32.044,0,0,1-3.7,1.321ZM5.552,33.44c.793-.264,2.378-.793,4.491-1.321a23.183,23.183,0,0,0,7.134-4.227c.264,2.378.528,4.756.793,5.812L5.552,33.44ZM2.117,6.756l.528-.528h0L5.552,12.3l-.528,5.02Zm16.645,28.8h.793V37.4H3.7V35.554h15.06Zm-.264-11.1h0a52.521,52.521,0,0,1-.528-5.812h0v-.264h0L20.876,19.7Z" transform="translate(-0.159 -2)"/></g><path class="a" d="M2.906.264A.971.971,0,0,0,2.114,0c-.264,0-.528,0-.528.264A5.219,5.219,0,0,0,0,3.17,2.273,2.273,0,0,0,2.114,5.284,2.273,2.273,0,0,0,4.227,3.17C4.491,2.114,3.435.793,2.906.264Zm-.793,3.17a.568.568,0,0,1-.528-.528c0-.264.264-.528.528-.793.264.528.528.793.528,1.057S2.378,3.435,2.114,3.435Z"/></g><g transform="translate(984.5 2914.174)"><path class="b" d="M78.648,102.28a.691.691,0,0,0-.354-.354h0c-.035,0-.071-.035-.106-.035a.213.213,0,0,1-.142-.035,50.041,50.041,0,0,0-10.066.425c-1.949.39-3.3.673-4.111.886a23.976,23.976,0,0,1,1.063-3.19c.638-1.241.957-1.772.957-1.772a.724.724,0,0,0,.035-.709.686.686,0,0,0-.6-.354,26.472,26.472,0,0,0-7.337,1.028,20.41,20.41,0,0,0-4.218,1.878,19.057,19.057,0,0,1,.922-4.005,23.694,23.694,0,0,1,2.162-4.856.768.768,0,0,0,0-.78.7.7,0,0,0-.709-.319,35.35,35.35,0,0,0-7.691,2.02c-1.063.5-1.772.886-2.268,1.134C46,91.825,45.9,91.116,45.9,91.08v-.035h0a.845.845,0,0,0-.213-.39c-.035,0-.035-.035-.071-.035a.712.712,0,0,0-.461-.142h-.071a.13.13,0,0,0-.106.035,26.3,26.3,0,0,0-11.023,7.939,35.816,35.816,0,0,0-4.289,6.876,21.323,21.323,0,0,0-8.9-1.878c-5.139,0-6.486.744-6.805,1.17a.67.67,0,0,0-.106.638,49.757,49.757,0,0,1,1.347,6.734l.106,1.418a21.5,21.5,0,0,0-4.182-1.347,32.748,32.748,0,0,0-7.8-.177.8.8,0,0,0-.5.284.718.718,0,0,0-.142.532,15.115,15.115,0,0,0,1.1,3.154,16.3,16.3,0,0,0,1.595,2.765H5.352a.691.691,0,0,0-.673.5l-.461,1.559H1.524a.725.725,0,0,0-.673.5l-.815,2.587a.687.687,0,0,0,.106.638.74.74,0,0,0,.567.284h75.1a.739.739,0,0,0,.709-.886L75.1,117.981a.683.683,0,0,0-.673-.532h-.744v-1.524a.711.711,0,0,0-.709-.709h-.922a21.075,21.075,0,0,1,2.162-5.777,70.67,70.67,0,0,1,4.359-6.38c.035-.071.071-.106.106-.177h0c0-.035,0-.035.035-.071h0A.929.929,0,0,0,78.648,102.28Zm-29.595-8.9a26.629,26.629,0,0,1,5.848-1.63,31.645,31.645,0,0,0-1.559,3.828,19.508,19.508,0,0,0-.886,3.615h0a.712.712,0,0,0-.142-.284l-.071-.071a.787.787,0,0,0-.39-.177,12.759,12.759,0,0,0-5.21.744c-.071.035-.106.071-.177.071,0-1.241,0-3.3-.106-4.714A27.715,27.715,0,0,1,49.053,93.384Zm2.481,17.509a34.749,34.749,0,0,0-4.962,7.9l-4.962-.035a60.385,60.385,0,0,1,3.154-8.613c1.63-3.438,5.033-7.514,6.592-9.321a14.654,14.654,0,0,1,.532,2.516,6.074,6.074,0,0,1,.035,1.063.715.715,0,0,0,.071.6.724.724,0,0,0,.78.284,26.777,26.777,0,0,1,5.139-.815h1.028A39.813,39.813,0,0,0,51.534,110.893Zm9.073-5.813a25.99,25.99,0,0,1-.39,5.316,51.052,51.052,0,0,1-1.914,6.982H53.164a.711.711,0,0,0-.709.709v.673H48.167a33.365,33.365,0,0,1,4.466-6.982A39.19,39.19,0,0,1,60.607,105.08Zm-13.468-4.359a8.447,8.447,0,0,1,3.013-.6,47.671,47.671,0,0,0-6.628,9.428,59.938,59.938,0,0,0-3.367,9.215l-6.734-.035a50.848,50.848,0,0,1,3.332-12.9,48.789,48.789,0,0,1,2.835-5.316l2.871,2.765a.755.755,0,0,0,.992,0A14.753,14.753,0,0,1,47.139,100.721Zm-2.339-6.7c.177,1.489.142,5.175.142,6.273a15.965,15.965,0,0,0-1.949,1.489L40.4,99.268c1.63-2.552,3.261-4.856,4.289-6.273C44.729,93.278,44.764,93.632,44.8,94.022ZM30.552,106.746a32.555,32.555,0,0,1,4.466-7.408,25.125,25.125,0,0,1,7.975-6.415,75.937,75.937,0,0,0-7.514,12.334A52.912,52.912,0,0,0,32,118.548a30.091,30.091,0,0,1-1.595-3.4,22.581,22.581,0,0,1-.922-5.565Zm-.035,11.944-12.83-.035a71.412,71.412,0,0,1,5.352-5.068,22.714,22.714,0,0,1,5.139-3.154,20.418,20.418,0,0,0,.957,5.175A22.451,22.451,0,0,0,30.516,118.69ZM20.7,104.868a20.8,20.8,0,0,1,8.329,1.737c-.425,1.028-.673,1.843-.815,2.268a22.88,22.88,0,0,0-6.1,3.615,69.224,69.224,0,0,0-5.281,4.962l-.106-2.906v-.035l-.213-2.658a45.514,45.514,0,0,0-1.241-6.451A19.153,19.153,0,0,1,20.7,104.868ZM5,115.288c-.39-.922-.638-1.595-.78-2.056a26.061,26.061,0,0,1,6.521.213A19.359,19.359,0,0,1,15.347,115l.142,3.615h-8.4A16.774,16.774,0,0,1,5,115.288ZM72.942,118.9h.922l1.1,4.395H1.666l.354-1.17H4.643a.691.691,0,0,0,.673-.5l.461-1.559h.957l40.3.142h.035l6.1.035h0a.727.727,0,0,0,.709-.709v-.673H72.552C72.658,118.867,72.8,118.9,72.942,118.9Zm-.709-2.268v.78H59.828c.071-.213.177-.5.248-.78Zm.744-7.9a21.7,21.7,0,0,0-2.41,6.486H67.2a40.944,40.944,0,0,1,3.261-4.962,27.231,27.231,0,0,1,4.572-4.785C74.359,106.462,73.615,107.6,72.977,108.731Zm-3.651.673a32.117,32.117,0,0,0-3.686,5.777H60.5a41.047,41.047,0,0,0,1.134-4.572,31.786,31.786,0,0,0,.354-6.876.32.32,0,0,0-.035-.177l-.106-.213a.94.94,0,0,0-.213-.177.512.512,0,0,0-.248-.071h-.035c-.142,0-1.311-.106-3.367-.071a23.566,23.566,0,0,0-4.537.673c0-.142-.035-.319-.035-.5-.035-.319-.106-.709-.177-1.17l.213-.106a18.98,18.98,0,0,1,5-2.41,23.657,23.657,0,0,1,5.671-.922l-.39.78a33.131,33.131,0,0,0-1.489,4.643.693.693,0,0,0,.213.673.651.651,0,0,0,.709.142,45.632,45.632,0,0,1,5.175-1.17,40.784,40.784,0,0,1,7.372-.461A27.5,27.5,0,0,0,69.326,109.4Z" transform="translate(0 -58.154)"/><path class="a" d="M51.705,45.584a3.049,3.049,0,0,0-.567.035,6.158,6.158,0,0,0-11.7-2.446A4.767,4.767,0,0,0,38.2,43a4.5,4.5,0,1,0,0,9H51.74a3.237,3.237,0,0,0,3.225-3.225A3.285,3.285,0,0,0,51.705,45.584Zm0,5.033H38.2a3.084,3.084,0,1,1,0-6.167,3.528,3.528,0,0,1,1.347.284.638.638,0,0,0,.567,0,.767.767,0,0,0,.39-.425,4.761,4.761,0,0,1,9.18,2.268.723.723,0,0,0,.319.709.768.768,0,0,0,.78,0A1.878,1.878,0,0,1,51.74,47a1.815,1.815,0,0,1,1.808,1.808A1.846,1.846,0,0,1,51.705,50.616Z" transform="translate(-21.756 -25.629)"/><path class="a" d="M162.768,7.762h-2.587a5.032,5.032,0,0,0-1.028-2.446l1.808-1.808a.7.7,0,0,0-.992-.992l-1.808,1.808A5.391,5.391,0,0,0,155.715,3.3V.709a.709.709,0,1,0-1.418,0V3.3a5.391,5.391,0,0,0-2.446,1.028l-1.843-1.843a.7.7,0,0,0-.992.992l1.808,1.808A5.391,5.391,0,0,0,149.8,7.727h-2.587a.709.709,0,0,0,0,1.418H149.8a5.391,5.391,0,0,0,1.028,2.446L149.016,13.4a.7.7,0,0,0,.992.992l1.808-1.808a5.391,5.391,0,0,0,2.446,1.028V16.2a.709.709,0,1,0,1.418,0V13.61a5.032,5.032,0,0,0,2.446-1.028l1.808,1.808a.7.7,0,0,0,.992-.992l-1.808-1.808a5.391,5.391,0,0,0,1.028-2.446h2.587a.711.711,0,0,0,.709-.709A.652.652,0,0,0,162.768,7.762Zm-7.762,4.5a3.828,3.828,0,1,1,3.828-3.828A3.834,3.834,0,0,1,155.006,12.263Z" transform="translate(-94.576)"/></g></g></svg>