<svg width="71px" height="75px" viewBox="0 0 71 75" version="1.1" xmlns="http://www.w3.org/2000/svg">
    <g id="Homepage" stroke="none" stroke-width="1" fill="none" fill-rule="evenodd">
        <g transform="translate(-686.000000, -972.000000)" id="ChampionFX-Academy">
            <g transform="translate(0.000000, 811.000000)">
                <g id="Content" transform="translate(380.000000, 161.000000)">
                    <g id="free_daily_market_report" transform="translate(306.000000, 0.000000)">
                        <path d="M67.8359649,0 L14.0356725,0 C12.7432749,0 11.6964912,1.04678363 11.6964912,2.33918129 L11.6964912,69.0048246 C11.6964912,72.2340643 9.07777778,74.8526316 5.84868421,74.8526316 L64.3273392,74.8526316 C67.5565789,74.8526316 70.1751462,72.2339181 70.1751462,69.0048246 L70.1751462,2.33918129 C70.1751462,1.04678363 69.127193,0 67.8359649,0 Z" id="Shape" fill="#FFFFFF" fill-rule="nonzero"></path>
                        <path d="M2.33991228,21.0523392 C1.04751462,21.0523392 0.000730994152,22.0991228 0.000730994152,23.3915205 L0.000730994152,69.0048246 C0.000730994152,72.2340643 2.61944444,74.8526316 5.84853801,74.8526316 C9.07763158,74.8526316 11.696345,72.2339181 11.696345,69.0048246 L11.696345,21.0523392 L2.33991228,21.0523392 Z" id="Shape" fill="#D2D2D2" fill-rule="nonzero"></path>
                        <path d="M17.5444444,25.7305556 L37.427193,25.7305556 C38.072807,25.7305556 38.5967836,26.2545322 38.5967836,26.9001462 L38.5967836,40.9350877 C38.5967836,41.5807018 38.072807,42.1046784 37.427193,42.1046784 L17.5444444,42.1046784 C16.8988304,42.1046784 16.3748538,41.5807018 16.3748538,40.9350877 L16.3748538,26.9001462 C16.3748538,26.2545322 16.8976608,25.7305556 17.5444444,25.7305556 Z" id="Shape" fill="#92E8E9" fill-rule="nonzero"></path>
                        <g id="Group" transform="translate(16.374269, 47.807018)" fill-rule="nonzero" fill="#98B3CD">
                            <path d="M1.17017544,0.145467836 L9.35716374,0.145467836 C10.0027778,0.145467836 10.5267544,0.669444444 10.5267544,1.31505848 L10.5267544,15.35 C10.5267544,15.995614 10.0027778,16.5195906 9.35716374,16.5195906 L1.17017544,16.5195906 C0.524561404,16.5195906 0.000584795322,15.995614 0.000584795322,15.35 L0.000584795322,1.31505848 C0.000584795322,0.669444444 0.523391813,0.145467836 1.17017544,0.145467836 Z" id="Shape"></path>
                            <path d="M39.7660819,0.145467836 L47.9530702,0.145467836 C48.5986842,0.145467836 49.1226608,0.669444444 49.1226608,1.31505848 L49.1226608,15.35 C49.1226608,15.995614 48.5986842,16.5195906 47.9530702,16.5195906 L39.7660819,16.5195906 C39.1204678,16.5195906 38.5964912,15.995614 38.5964912,15.35 L38.5964912,1.31505848 C38.5964912,0.669444444 39.1192982,0.145467836 39.7660819,0.145467836 Z" id="Shape"></path>
                        </g>
                        <path d="M52.6315789,28.0697368 L43.275,28.0697368 C42.629386,28.0697368 42.1054094,27.5457602 42.1054094,26.9001462 C42.1054094,26.2545322 42.629386,25.7305556 43.275,25.7305556 L52.6315789,25.7305556 C53.277193,25.7305556 53.8011696,26.2545322 53.8011696,26.9001462 C53.8011696,27.5457602 53.277193,28.0697368 52.6315789,28.0697368 Z" id="Shape" fill="#8D6FC8" fill-rule="nonzero"></path>
                        <path d="M64.3273392,32.7480994 L43.275,32.7480994 C42.629386,32.7480994 42.1054094,32.2241228 42.1054094,31.5785088 C42.1054094,30.9328947 42.629386,30.4089181 43.275,30.4089181 L64.3273392,30.4089181 C64.9729532,30.4089181 65.4969298,30.9328947 65.4969298,31.5785088 C65.4969298,32.2241228 64.9729532,32.7480994 64.3273392,32.7480994 Z" id="Shape" fill="#013365" fill-rule="nonzero"></path>
                        <rect id="Rectangle" fill="#CBD8E6" x="16" y="4" width="50" height="15" rx="1"></rect>
                        <g id="Group" transform="translate(42.105263, 34.941520)" fill-rule="nonzero" fill="#013365">
                            <path d="M22.222076,2.48479532 L1.16973684,2.48479532 C0.524122807,2.48479532 0.00014619883,1.96081871 0.00014619883,1.31520468 C0.00014619883,0.669590643 0.524122807,0.145614035 1.16973684,0.145614035 L22.222076,0.145614035 C22.8676901,0.145614035 23.3916667,0.669590643 23.3916667,1.31520468 C23.3916667,1.96081871 22.8676901,2.48479532 22.222076,2.48479532 Z" id="Shape"></path>
                            <path d="M22.222076,7.16315789 L1.16973684,7.16315789 C0.524122807,7.16315789 0.00014619883,6.63918129 0.00014619883,5.99356725 C0.00014619883,5.34795322 0.524122807,4.82397661 1.16973684,4.82397661 L22.222076,4.82397661 C22.8676901,4.82397661 23.3916667,5.34795322 23.3916667,5.99356725 C23.3916667,6.63918129 22.8676901,7.16315789 22.222076,7.16315789 Z" id="Shape"></path>
                        </g>
                        <path d="M39.7662281,50.2916667 L31.5792398,50.2916667 C30.9336257,50.2916667 30.4096491,49.7676901 30.4096491,49.122076 C30.4096491,48.476462 30.9336257,47.9524854 31.5792398,47.9524854 L39.7662281,47.9524854 C40.4118421,47.9524854 40.9358187,48.476462 40.9358187,49.122076 C40.9358187,49.7676901 40.4118421,50.2916667 39.7662281,50.2916667 Z" id="Shape" fill="#8D6FC8" fill-rule="nonzero"></path>
                        <g id="Group" transform="translate(30.409357, 52.485380)" fill-rule="nonzero" fill="#013365">
                            <path d="M19.8830409,2.48450292 L1.16988304,2.48450292 C0.524269006,2.48450292 0.000292397661,1.96052632 0.000292397661,1.31491228 C0.000292397661,0.669298246 0.524269006,0.145321637 1.16988304,0.145321637 L19.8830409,0.145321637 C20.528655,0.145321637 21.0526316,0.669298246 21.0526316,1.31491228 C21.0526316,1.96052632 20.528655,2.48450292 19.8830409,2.48450292 Z" id="Shape"></path>
                            <path d="M19.8830409,7.1628655 L1.16988304,7.1628655 C0.524269006,7.1628655 0.000292397661,6.63888889 0.000292397661,5.99327485 C0.000292397661,5.34766082 0.524269006,4.82368421 1.16988304,4.82368421 L19.8830409,4.82368421 C20.528655,4.82368421 21.0526316,5.34766082 21.0526316,5.99327485 C21.0526316,6.63888889 20.528655,7.1628655 19.8830409,7.1628655 Z" id="Shape"></path>
                            <path d="M19.8830409,11.8410819 L1.16988304,11.8410819 C0.524269006,11.8410819 0.000292397661,11.3171053 0.000292397661,10.6714912 C0.000292397661,10.0258772 0.524269006,9.50190058 1.16988304,9.50190058 L19.8830409,9.50190058 C20.528655,9.50190058 21.0526316,10.0258772 21.0526316,10.6714912 C21.0526316,11.3171053 20.528655,11.8410819 19.8830409,11.8410819 Z" id="Shape"></path>
                        </g>
                        <path d="M29.2400585,37.4263158 C25.2400585,38.3035088 22.3162281,32.9467836 19.8834795,31.5785088 C18.7676901,31.0755848 17.4904971,31.0755848 16.3747076,31.5785088 L16.3747076,40.9350877 C16.3747076,41.5807018 16.8986842,42.1046784 17.5442982,42.1046784 L37.4270468,42.1046784 C38.0726608,42.1046784 38.5966374,41.5807018 38.5966374,40.9350877 L38.5966374,32.6077485 C35.7429825,32.7480994 32.7488304,36.654386 29.2400585,37.4263158 Z" id="Shape" fill="#4699C7" fill-rule="nonzero"></path>
                        <g id="Group" transform="translate(16.374269, 51.315789)" fill-rule="nonzero" fill="#33699C">
                            <circle id="Oval" cx="5.26359649" cy="3.06929825" r="2.92397661"></circle>
                            <circle id="Oval" cx="43.8583333" cy="3.06929825" r="2.92397661"></circle>
                            <path d="M43.8595029,6.77690058 C41.9998538,6.74298246 40.1717836,7.2505848 38.5964912,8.23888889 L38.5964912,11.8412281 C38.5964912,12.4868421 39.1204678,13.0108187 39.7660819,13.0108187 L47.9530702,13.0108187 C48.5986842,13.0108187 49.1226608,12.4868421 49.1226608,11.8412281 L49.1226608,8.23888889 C47.5472222,7.2505848 45.7179825,6.74298246 43.8595029,6.77690058 Z" id="Shape"></path>
                            <path d="M5.26359649,6.77690058 C3.40394737,6.74298246 1.57587719,7.2505848 0.000584795322,8.23888889 L0.000584795322,11.8412281 C0.000584795322,12.4868421 0.524561404,13.0108187 1.17017544,13.0108187 L9.35716374,13.0108187 C10.0027778,13.0108187 10.5267544,12.4868421 10.5267544,11.8412281 L10.5267544,8.23888889 C8.95131579,7.2505848 7.12207602,6.74298246 5.26359649,6.77690058 Z" id="Shape"></path>
                        </g>
                    </g>
                </g>
            </g>
        </g>
    </g>
</svg>