<svg width="63" height="61" viewBox="0 0 63 61" xmlns="http://www.w3.org/2000/svg"><title>Icon / Payment Methods</title><path d="M31.453 0c-.34.02-.584.093-.77.212L1.967 19.19a1.4 1.4 0 0 0-.577 1.546c.173.562.753.968 1.346.953H8.89v25.755H2.735c-.755 0-1.367.607-1.367 1.356v4.067c-.756 0-1.368.607-1.368 1.355v5.422C0 60.394.612 61 1.368 61h60.17c.756 0 1.368-.607 1.368-1.356v-5.422c0-.748-.612-1.355-1.368-1.355V48.8c0-.749-.612-1.355-1.367-1.356h-6.154V21.69h6.154c.593.015 1.173-.391 1.346-.953a1.4 1.4 0 0 0-.577-1.546L32.222.212c-.268-.175-.476-.213-.769-.212zm0 2.986l24.188 15.992H7.265L31.453 2.986zm0 5.147c-2.25 0-4.103 1.837-4.103 4.067 0 2.23 1.853 4.067 4.103 4.067s4.103-1.837 4.103-4.067c0-2.23-1.853-4.067-4.103-4.067zm0 2.711c.771 0 1.367.591 1.367 1.356 0 .765-.596 1.356-1.367 1.356s-1.368-.591-1.368-1.356c0-.765.597-1.356 1.368-1.356zM11.623 21.69h2.736v25.755h-2.735V21.69zm5.471 0h4.103v25.755h-4.103V21.69zm6.838 0h2.735v25.755h-2.735V21.69zm5.47 0h4.102v25.755h-4.102V21.69zm6.837 0h2.735v25.755H36.24V21.69zm5.47 0h4.103v25.755h-4.103V21.69zm6.838 0h2.735v25.755h-2.735V21.69zM4.103 50.156h54.7v2.71h-54.7v-2.71zm-1.368 5.422h57.436v2.71H2.735v-2.71z" fill="#004385"/></svg>