<?xml version="1.0" encoding="UTF-8"?>
<svg width="50px" height="50px" viewBox="0 0 50 50" version="1.1" xmlns="http://www.w3.org/2000/svg" xmlns:xlink="http://www.w3.org/1999/xlink">
    <!-- Generator: Sketch 45.2 (43514) - http://www.bohemiancoding.com/sketch -->
    <title>Academy</title>
    <desc>Created with Sketch.</desc>
    <defs></defs>
    <g id="About-Us" stroke="none" stroke-width="1" fill="none" fill-rule="evenodd">
        <g id="Milestones" transform="translate(-513.000000, -1248.000000)">
            <g id="Q2-2017" transform="translate(453.000000, 859.000000)">
                <g id="Academy" transform="translate(60.000000, 389.000000)">
                    <circle id="Oval---white" fill-opacity="0.3" fill="#CBD8E6" cx="25" cy="25" r="25"></circle>
                    <path d="M40.1781317,22.1270084 C40.2628334,22.1759593 40.3574353,22.1996098 40.4509371,22.1996098 C40.5719395,22.1996098 40.6923919,22.159459 40.7919438,22.0813575 C40.9679473,21.9422047 41.0421988,21.7101001 40.9783975,21.4944959 L38.2283433,12.1443116 C38.1755423,11.9650081 38.0352895,11.8247553 37.855986,11.7719543 L28.5058017,9.02190011 C28.2907475,8.95974888 28.0586429,9.03235031 27.9189401,9.20835378 C27.7797874,9.38435725 27.761637,9.62746204 27.8732892,9.82216588 L29.6646745,12.9577777 L26.8618193,15.7606329 C26.7545672,15.867885 26.7006661,16.0086878 26.7006661,16.1494906 L10.7503518,16.1494906 C9.23397192,16.1494906 8.00029761,17.3831649 8.00029761,18.8995448 L8.00029761,32.6498157 L8.00029761,33.7498374 C8.00029761,35.2662173 9.23397192,36.4998916 10.7503518,36.4998916 L15.3605427,36.4998916 L14.260521,38.699935 L8.55030845,38.699935 C8.34185434,38.699935 8.15155059,38.8176373 8.05804874,39.004091 C7.9645469,39.1905446 7.98544731,39.413299 8.11029977,39.5799523 L9.76033229,41.7799957 C9.86428434,41.9185984 10.0270875,42 10.200341,42 L31.1007528,42 C31.2740063,42 31.4368095,41.9185984 31.5407615,41.7799957 L32.2007745,40.8999783 L32.2007745,41.4499892 C32.2007745,41.7535951 32.4471794,42 32.7507854,42 L38.2508938,42 C38.5544997,42 38.8009046,41.7535951 38.8009046,41.4499892 L38.8009046,40.8999783 L40.4509371,40.8999783 C40.7545431,40.8999783 41.0009479,40.6535735 41.0009479,40.3499675 L41.0009479,34.8498591 C41.0009479,34.5462531 40.7545431,34.2998483 40.4509371,34.2998483 L38.8009046,34.2998483 L38.8009046,33.7498374 C38.8009046,33.4462314 38.5544997,33.1998266 38.2508938,33.1998266 L33.3007962,33.1998266 L33.3007962,32.6498157 L33.3007962,22.7496206 C33.441599,22.7496206 33.5824017,22.6957196 33.6896539,22.5884675 L36.3429062,19.9352152 L37.7008829,20.7112805 L37.7008829,23.22263 L36.6223117,26.9984544 C36.5777608,27.1535574 36.6041613,27.3202107 36.6932631,27.4549634 L37.7932847,29.1049959 C37.8955867,29.2578989 38.0671901,29.3497507 38.2508938,29.3497507 C38.4345974,29.3497507 38.6062008,29.2578989 38.7085028,29.1049959 L39.8085244,27.4549634 C39.8981762,27.3207607 39.9240267,27.1541074 39.8794758,26.9984544 L38.8009046,23.22263 L38.8009046,21.3399429 L40.1781317,22.1270084 Z M38.2508938,27.8080703 L37.7492839,27.0562055 L38.2508938,25.3016709 L38.7525036,27.0562055 L38.2508938,27.8080703 Z M37.2575742,12.7427234 L39.5379191,20.4945762 L36.5238597,18.7724923 C36.5238597,18.7724923 36.5238597,18.7724923 36.5238597,18.7724923 L33.1539433,16.8469043 L29.5062714,10.4623785 L37.2575742,12.7427234 Z M10.7503518,17.2495122 L27.5729833,17.2495122 L28.673005,18.3495339 L10.7503518,18.3495339 C10.4467458,18.3495339 10.200341,18.5959388 10.200341,18.8995448 L10.200341,30.4497724 C10.200341,30.7533784 10.4467458,30.9997832 10.7503518,30.9997832 L30.550742,30.9997832 C30.854348,30.9997832 31.1007528,30.7533784 31.1007528,30.4497724 L31.1007528,20.7772818 L32.2007745,21.8773034 L32.2007745,32.0998049 L9.10031928,32.0998049 L9.10031928,18.8995448 C9.10031928,17.9898268 9.84063387,17.2495122 10.7503518,17.2495122 Z M30.0007312,19.6772601 L30.0007312,29.8997615 L11.3003626,29.8997615 L11.3003626,19.4495556 L29.7730267,19.4495556 L30.0007312,19.6772601 Z M9.10031928,33.7498374 L9.10031928,33.1998266 L32.2007745,33.1998266 L32.2007745,33.7498374 C32.2007745,34.6595553 31.4604599,35.3998699 30.550742,35.3998699 L25.0506336,35.3998699 L16.2504602,35.3998699 L10.7503518,35.3998699 C9.84063387,35.3998699 9.10031928,34.6595553 9.10031928,33.7498374 Z M16.5903669,36.4998916 L24.7107269,36.4998916 L25.8107486,38.699935 L15.4903452,38.699935 L16.5903669,36.4998916 Z M30.8257474,40.8999783 L10.4753464,40.8999783 L9.65033012,39.7999566 L14.6004277,39.7999566 L26.7006661,39.7999566 L31.6507637,39.7999566 L30.8257474,40.8999783 Z M27.0405728,38.699935 L25.9405512,36.4998916 L30.550742,36.4998916 C31.1722543,36.4998916 31.7398654,36.2848374 32.2007745,35.9355805 L32.2007745,38.699935 L27.0405728,38.699935 Z M39.9009263,35.3998699 L39.9009263,39.7999566 L38.8009046,39.7999566 L38.8009046,35.3998699 L39.9009263,35.3998699 Z M37.7008829,34.8498591 L37.7008829,40.3499675 L37.7008829,40.8999783 L33.3007962,40.8999783 L33.3007962,34.2998483 L37.7008829,34.2998483 L37.7008829,34.8498591 Z M33.3007962,21.4218945 L33.139643,21.2607413 L30.9395997,19.0606979 L30.3895888,18.5106871 L28.1895455,16.3106437 L28.0283923,16.1494906 L30.2300857,13.9477972 L32.2728259,17.5228676 C32.3212269,17.6081193 32.3921783,17.6790707 32.47743,17.7274717 L35.3523366,19.370354 L33.3007962,21.4218945 Z M36.6008612,30.9997832 L37.7008829,30.9997832 L37.7008829,32.0998049 L36.6008612,32.0998049 L36.6008612,30.9997832 Z M34.4008179,30.9997832 L35.5008396,30.9997832 L35.5008396,32.0998049 L34.4008179,32.0998049 L34.4008179,30.9997832 Z M34.4008179,27.6997182 L35.5008396,27.6997182 L35.5008396,29.8997615 L34.4008179,29.8997615 L34.4008179,27.6997182 Z" id="Shape" stroke="#004385" stroke-width="0.3" fill="#004385" fill-rule="nonzero"></path>
                </g>
            </g>
        </g>
    </g>
</svg>