<?xml version="1.0" encoding="UTF-8"?>
<svg width="50px" height="50px" viewBox="0 0 50 50" version="1.1" xmlns="http://www.w3.org/2000/svg" xmlns:xlink="http://www.w3.org/1999/xlink">
    <!-- Generator: Sketch 45.2 (43514) - http://www.bohemiancoding.com/sketch -->
    <title>Accounts</title>
    <desc>Created with Sketch.</desc>
    <defs></defs>
    <g id="About-Us" stroke="none" stroke-width="1" fill="none" fill-rule="evenodd">
        <g id="Milestones" transform="translate(-513.000000, -1466.000000)">
            <g id="Q2-2017" transform="translate(453.000000, 859.000000)">
                <g id="Accounts" transform="translate(60.000000, 607.000000)">
                    <circle id="Oval---white" fill-opacity="0.3" fill="#CBD8E6" cx="25" cy="25" r="25"></circle>
                    <g id="Cent" transform="translate(11.000000, 10.000000)">
                        <path d="M27.3937339,7.18972896 L24.5687551,7.18972896 L24.5687551,4.36519258 C24.5687551,3.93723252 24.2263334,3.59486448 23.7983064,3.59486448 L20.9305248,3.59486448 L20.9305248,0.770328103 C20.9305248,0.342368046 20.5881032,0 20.1600761,0 L0.770448767,0 C0.342421674,0 0,0.342368046 0,0.770328103 L0,22.0399429 C0,22.467903 0.342421674,22.810271 0.770448767,22.810271 L3.59542758,22.810271 L3.59542758,25.6348074 C3.59542758,26.0627675 3.93784925,26.4051355 4.36587635,26.4051355 L7.23365787,26.4051355 L7.23365787,29.2296719 C7.23365787,29.657632 7.57607954,30 8.00410663,30 L20.8021167,30 C21.0161303,30 21.1873411,29.914408 21.3157492,29.78602 L27.8645637,23.8801712 C28.0357746,23.7517832 28.12138,23.5378031 28.12138,23.2810271 L28.12138,7.96005706 C28.1641827,7.532097 27.821761,7.18972896 27.3937339,7.18972896 Z M1.58370024,1.4978602 L19.3896273,1.4978602 L19.3896273,4.32239658 L19.3896273,17.7603424 L15.4089753,21.1840228 L4.40867906,21.1840228 L1.58370024,21.1840228 L1.58370024,1.4978602 Z M5.17912782,22.767475 L15.6229889,22.767475 C15.7941997,22.767475 16.0082133,22.681883 16.1366214,22.596291 L20.6309059,18.7446505 C20.8021167,18.6162625 20.8877221,18.3594864 20.8877221,18.1455064 L20.8877221,5.13552068 L22.9422522,5.13552068 L22.9422522,7.96005706 L22.9422522,20.3708987 L17.9343352,24.8216833 L8.00410663,24.8216833 L5.17912782,24.8216833 L5.17912782,22.767475 Z M26.5804825,22.9814551 L20.5453005,28.4593438 L8.81735811,28.4593438 L8.81735811,26.4051355 L18.2339541,26.4051355 C18.405165,26.4051355 18.6191785,26.3195435 18.7475867,26.1911555 L24.2691362,21.3124108 C24.440347,21.1840228 24.5259524,20.9272468 24.5259524,20.7132668 L24.5259524,8.73038516 L26.5804825,8.73038516 L26.5804825,22.9814551 Z" id="Shape" fill="#004385" fill-rule="nonzero"></path>
                        <g transform="translate(3.750000, 4.875000)">
                            <path d="M13.125,6.5625 C13.125,10.1868375 10.1868375,13.125 6.5625,13.125 C2.9381625,13.125 0,10.1868375 0,6.5625 C0,2.9381625 2.9381625,0 6.5625,0 C10.1868375,0 13.125,2.9381625 13.125,6.5625" id="Fill-1" fill="#F2F2F2"></path>
                            <path d="M3.23138949,9.642875 L8.76861051,9.642875 C8.76992162,9.6145 8.77057718,9.5865 8.77057718,9.5585 C8.77057718,8.27575 7.52777373,7.232125 5.99993444,7.232125 C4.47222627,7.232125 3.22942282,8.27575 3.22942282,9.5585 C3.22942282,9.5865 3.23007838,9.6145 3.23138949,9.642875 L3.23138949,9.642875 Z M9.31534439,10.125 L2.68465561,10.125 L2.65253336,9.91275 C2.63417779,9.79175 2.625,9.6725 2.625,9.5585 C2.625,8.009875 4.1389415,6.75 5.99993444,6.75 C7.8610585,6.75 9.375,8.009875 9.375,9.5585 C9.375,9.6725 9.36582221,9.79175 9.34746664,9.91275 L9.31534439,10.125 Z" id="Fill-3" fill="#004385"></path>
                            <path d="M3.23138949,9.642875 L8.76861051,9.642875 C8.76992162,9.6145 8.77057718,9.5865 8.77057718,9.5585 C8.77057718,8.27575 7.52777373,7.232125 5.99993444,7.232125 C4.47222627,7.232125 3.22942282,8.27575 3.22942282,9.5585 C3.22942282,9.5865 3.23007838,9.6145 3.23138949,9.642875 Z M9.31534439,10.125 L2.68465561,10.125 L2.65253336,9.91275 C2.63417779,9.79175 2.625,9.6725 2.625,9.5585 C2.625,8.009875 4.1389415,6.75 5.99993444,6.75 C7.8610585,6.75 9.375,8.009875 9.375,9.5585 C9.375,9.6725 9.36582221,9.79175 9.34746664,9.91275 L9.31534439,10.125 Z" id="Stroke-5" stroke="#004385" stroke-width="0.5"></path>
                            <path d="M6.1875,2.61920865 C5.46073259,2.61920865 4.86935646,3.21058478 4.86935646,3.9375 C4.86935646,4.66426741 5.46073259,5.25564354 6.1875,5.25564354 C6.91441522,5.25564354 7.50579135,4.66426741 7.50579135,3.9375 C7.50579135,3.21058478 6.91441522,2.61920865 6.1875,2.61920865 M6.1875,6 C5.05027232,6 4.125,5.07472768 4.125,3.9375 C4.125,2.80027232 5.05027232,1.875 6.1875,1.875 C7.32472768,1.875 8.25,2.80027232 8.25,3.9375 C8.25,5.07472768 7.32472768,6 6.1875,6" id="Fill-7" fill="#004385"></path>
                            <path d="M10.875,8.625 C10.875,9.66060094 10.0355319,10.5 8.99994576,10.5 C7.96446805,10.5 7.125,9.66060094 7.125,8.625 C7.125,7.58950824 7.96446805,6.75 8.99994576,6.75 C10.0355319,6.75 10.875,7.58950824 10.875,8.625" id="Fill-9" fill="#004385"></path>
                            <path d="M9.24489155,7.85638962 C9.3656442,7.85638962 9.48639685,7.91647509 9.57489294,8.0266755 C9.61521365,8.07679044 9.67962204,8.07679044 9.71983802,8.0266755 C9.76005399,7.97656055 9.76005399,7.89640287 9.71983802,7.84628792 C9.61521365,7.71614648 9.48639685,7.63585761 9.34951592,7.61591659 L9.34951592,7.24517092 C9.34951592,7.17511495 9.3012358,7.125 9.25295569,7.125 C9.20457084,7.125 9.15629073,7.18508546 9.15629073,7.24517092 L9.15629073,7.61591659 C8.84231288,7.67600205 8.625,8.00673447 8.625,8.4374344 C8.625,8.86826553 8.84231288,9.19899795 9.15629073,9.25908341 L9.15629073,9.62982908 C9.14822659,9.68991454 9.19661143,9.75 9.25295569,9.75 C9.30929994,9.75 9.34951592,9.68991454 9.34951592,9.62982908 L9.34951592,9.25908341 C9.48639685,9.22904068 9.61521365,9.148883 9.71983802,9.02871208 C9.76005399,8.97859713 9.76005399,8.89830826 9.71983802,8.8483245 C9.67962204,8.79820956 9.61521365,8.79820956 9.57489294,8.8483245 C9.48639685,8.95852491 9.37370834,9.01861038 9.24489155,9.01861038 C8.9953221,9.01861038 8.81822519,8.77813734 8.81822519,8.4374344 C8.81822519,8.10683318 8.9953221,7.85638962 9.24489155,7.85638962" id="Fill-11" fill="#FFFFFF"></path>
                        </g>
                    </g>
                </g>
            </g>
        </g>
    </g>
</svg>