<svg xmlns="http://www.w3.org/2000/svg" width="50" height="50" viewBox="0 0 50 50">
    <style>
        .a{
        fill:#004385;
        }
    </style>
    <g fill="none">
        <circle cx="25" cy="25" r="25" style="fill-opacity:0.3;fill:#CBD8E6"/>
        <path d="M38.4 17.2L35.6 17.2 35.6 14.4C35.6 13.9 35.2 13.6 34.8 13.6L31.9 13.6 31.9 10.8C31.9 10.3 31.6 10 31.2 10L11.8 10C11.3 10 11 10.3 11 10.8L11 32C11 32.5 11.3 32.8 11.8 32.8L14.6 32.8 14.6 35.6C14.6 36.1 14.9 36.4 15.4 36.4L18.2 36.4 18.2 39.2C18.2 39.7 18.6 40 19 40L31.8 40C32 40 32.2 39.9 32.3 39.8L38.9 33.9C39 33.8 39.1 33.5 39.1 33.3L39.1 18C39.2 17.5 38.8 17.2 38.4 17.2ZM12.6 11.5L30.4 11.5 30.4 14.3 30.4 27.8 26.4 31.2 15.4 31.2 12.6 31.2 12.6 11.5ZM16.2 32.8L26.6 32.8C26.8 32.8 27 32.7 27.1 32.6L31.6 28.7C31.8 28.6 31.9 28.4 31.9 28.1L31.9 15.1 33.9 15.1 33.9 18 33.9 30.4 28.9 34.8 19 34.8 16.2 34.8 16.2 32.8ZM37.6 33L31.5 38.5 19.8 38.5 19.8 36.4 29.2 36.4C29.4 36.4 29.6 36.3 29.7 36.2L35.3 31.3C35.4 31.2 35.5 30.9 35.5 30.7L35.5 18.7 37.6 18.7 37.6 33Z" class="a"/>
        <path d="M27.9 21.4C27.9 25.1 24.9 28 21.3 28 17.7 28 14.8 25.1 14.8 21.4 14.8 17.8 17.7 14.9 21.3 14.9 24.9 14.9 27.9 17.8 27.9 21.4" fill="#F2F2F2"/>
        <path d="M18 24.5L23.5 24.5C23.5 24.5 23.5 24.5 23.5 24.4 23.5 23.2 22.3 22.1 20.7 22.1 19.2 22.1 18 23.2 18 24.4 18 24.5 18 24.5 18 24.5L18 24.5ZM24.1 25L17.4 25 17.4 24.8C17.4 24.7 17.4 24.5 17.4 24.4 17.4 22.9 18.9 21.6 20.7 21.6 22.6 21.6 24.1 22.9 24.1 24.4 24.1 24.5 24.1 24.7 24.1 24.8L24.1 25Z" class="a"/>
        <path d="M18 24.5L23.5 24.5C23.5 24.5 23.5 24.5 23.5 24.4 23.5 23.2 22.3 22.1 20.7 22.1 19.2 22.1 18 23.2 18 24.4 18 24.5 18 24.5 18 24.5ZM24.1 25L17.4 25 17.4 24.8C17.4 24.7 17.4 24.5 17.4 24.4 17.4 22.9 18.9 21.6 20.7 21.6 22.6 21.6 24.1 22.9 24.1 24.4 24.1 24.5 24.1 24.7 24.1 24.8L24.1 25Z" style="stroke-width:0.5;stroke:#004385"/>
        <path d="M20.9 17.5C20.2 17.5 19.6 18.1 19.6 18.8 19.6 19.5 20.2 20.1 20.9 20.1 21.7 20.1 22.3 19.5 22.3 18.8 22.3 18.1 21.7 17.5 20.9 17.5M20.9 20.9C19.8 20.9 18.9 19.9 18.9 18.8 18.9 17.7 19.8 16.8 20.9 16.8 22.1 16.8 23 17.7 23 18.8 23 19.9 22.1 20.9 20.9 20.9" class="a"/>
        <path d="M25.6 23.5C25.6 24.5 24.8 25.4 23.7 25.4 22.7 25.4 21.9 24.5 21.9 23.5 21.9 22.5 22.7 21.6 23.7 21.6 24.8 21.6 25.6 22.5 25.6 23.5" class="a"/>
        <path d="M24 22.7C24.1 22.7 24.2 22.8 24.3 22.9 24.4 23 24.4 23 24.5 22.9 24.5 22.9 24.5 22.8 24.5 22.7 24.4 22.6 24.2 22.5 24.1 22.5L24.1 22.1C24.1 22.1 24.1 22 24 22 24 22 23.9 22.1 23.9 22.1L23.9 22.5C23.6 22.6 23.4 22.9 23.4 23.3 23.4 23.7 23.6 24.1 23.9 24.1L23.9 24.5C23.9 24.6 23.9 24.6 24 24.6 24.1 24.6 24.1 24.6 24.1 24.5L24.1 24.1C24.2 24.1 24.4 24 24.5 23.9 24.5 23.9 24.5 23.8 24.5 23.7 24.4 23.7 24.4 23.7 24.3 23.7 24.2 23.8 24.1 23.9 24 23.9 23.7 23.9 23.6 23.7 23.6 23.3 23.6 23 23.7 22.7 24 22.7" fill="#FFF"/>
    </g>
</svg>