<svg xmlns="http://www.w3.org/2000/svg" width="50" height="50" viewBox="0 0 50 50">
    <g fill="none">
        <circle cx="25" cy="25" r="25" style="fill-opacity:0.3;fill:#CBD8E6"/>
        <path d="M30.3 22.2C29.6 25 25.4 23.6 24 23.2L25.2 18.4C26.6 18.7 31 19.4 30.3 22.2M29.6 30C28.8 33 23.7 31.4 22.1 31L23.4 25.7C25.1 26.1 30.3 26.9 29.6 30M35.1 22.3C35.5 19.3 33.3 17.7 30.2 16.7L31.2 12.7 28.8 12.1 27.8 16C27.2 15.8 26.5 15.7 25.9 15.5L26.9 11.6 24.4 11 23.4 15C22.9 14.9 22.4 14.7 21.9 14.6L21.9 14.6 18.6 13.8 17.9 16.4C17.9 16.4 19.7 16.8 19.7 16.8 20.7 17 20.8 17.7 20.8 18.2L19.7 22.8C19.7 22.8 19.8 22.8 19.9 22.8 19.8 22.8 19.8 22.8 19.7 22.8L18.1 29.1C18 29.4 17.7 29.9 17 29.7 17 29.7 15.2 29.3 15.2 29.3L14 32 17.2 32.8C17.7 33 18.3 33.1 18.9 33.3L17.9 37.3 20.3 37.9 21.3 33.9C22 34.1 22.6 34.3 23.2 34.4L22.2 38.4 24.7 39 25.7 35C29.8 35.8 32.9 35.4 34.2 31.7 35.3 28.7 34.2 27 32 25.8 33.6 25.5 34.8 24.4 35.1 22.3" fill="#004385"/>
    </g>
</svg>