<?xml version="1.0" encoding="UTF-8"?>
<svg width="50px" height="50px" viewBox="0 0 50 50" version="1.1" xmlns="http://www.w3.org/2000/svg" xmlns:xlink="http://www.w3.org/1999/xlink">
    <!-- Generator: Sketch 45.2 (43514) - http://www.bohemiancoding.com/sketch -->
    <title>Bitcoin</title>
    <desc>Created with Sketch.</desc>
    <defs></defs>
    <g id="About-Us" stroke="none" stroke-width="1" fill="none" fill-rule="evenodd">
        <g id="Milestones" transform="translate(-513.000000, -739.000000)">
            <g id="Q3-2017" transform="translate(453.000000, 545.000000)">
                <g id="Bitcoin" transform="translate(60.000000, 194.000000)">
                    <circle id="Oval---white" fill-opacity="0.3" fill="#CBD8E6" cx="25" cy="25" r="25"></circle>
                    <path d="M30.3054068,22.2129902 C29.6213508,24.9533598 25.3988599,23.5610641 24.030057,23.2197271 L25.2378649,18.376058 C26.6066678,18.7173951 31.0177924,19.3544654 30.3054068,22.2129902 M29.5550181,30.0285023 C28.8053204,33.0404215 23.7329418,31.4131974 22.0877526,31.0041458 L23.4206253,25.6636725 C25.0651235,26.0741061 30.3385732,26.8873726 29.5550181,30.0285023 M35.0979444,22.256521 C35.5380895,19.3143894 33.2979789,17.732769 30.2342373,16.6776645 L31.2285369,12.6921748 L28.8025566,12.0875799 L27.8352047,15.9680428 C27.1974434,15.8091207 26.542408,15.6591812 25.8922094,15.5106236 L26.8657799,11.6045949 L24.4418725,11 L23.447573,14.9841078 C22.9196752,14.8638798 22.401451,14.7450337 21.8984281,14.6199689 L21.9011919,14.6075315 L18.5555364,13.7721541 L17.9101745,16.3632752 C17.9101745,16.3632752 19.7101399,16.7757817 19.6714458,16.8013474 C20.6546899,17.0466402 20.8322681,17.6968388 20.8025566,18.2122992 L19.6700639,22.7526343 C19.7384695,22.7699084 19.8262221,22.7954742 19.9229573,22.8334773 C19.8414234,22.8134393 19.7550527,22.7913284 19.6666091,22.7699084 L18.080152,29.130247 C17.959924,29.4287442 17.6545172,29.8757989 16.9683883,29.7065124 C16.9918812,29.7417516 15.205044,29.2663672 15.205044,29.2663672 L14,32.0440491 L17.1577129,32.8317499 C17.7443427,32.9789255 18.3199171,33.1323199 18.8871999,33.2774227 L17.8825358,37.3085162 L20.3057523,37.9131111 L21.3000518,33.9241665 C21.9619969,34.1038176 22.603904,34.2696493 23.2333736,34.4264985 L22.2425289,38.3954051 L24.6685092,39 L25.6724823,34.9771981 C29.8086025,35.7600622 32.9200207,35.4442909 34.2294006,31.703403 C35.2845051,28.6914838 34.1768872,26.9530143 32.0003455,25.8191397 C33.5854206,25.452928 34.7794092,24.4102608 35.0979444,22.256521" id="Fill-4" fill="#004385"></path>
                </g>
            </g>
        </g>
    </g>
</svg>