<svg xmlns="http://www.w3.org/2000/svg" width="50" height="50" viewBox="0 0 50 50">
    <g fill="none">
        <circle cx="25" cy="25" r="25" style="fill-opacity:0.3;fill:#CBD8E6"/>
        <path d="M25.4 18.6C28.3 18.6 30.7 16.2 30.7 13.3 30.7 10.4 28.3 8 25.4 8 22.5 8 20.1 10.4 20.1 13.3 20.1 16.2 22.5 18.6 25.4 18.6ZM25.4 9.2C27.7 9.2 29.6 11 29.6 13.3 29.6 15.6 27.7 17.5 25.4 17.5 23.1 17.5 21.3 15.6 21.3 13.3 21.3 11 23.1 9.2 25.4 9.2ZM38.3 25.8L35.9 25.8 35.9 20.2C35.9 20 35.8 19.9 35.7 19.8L32.5 16.6C32.3 16.4 32 16.4 31.7 16.6 31.5 16.9 31.5 17.2 31.7 17.5L34.7 20.4 34.7 25.8 32.9 25.8C32.6 22.6 29.9 20 26.6 20L24.3 20C21 20 18.2 22.6 18 25.8L12.6 25.8C12.2 25.8 12 26.1 12 26.4L12 29.3C12 29.6 12.2 29.9 12.6 29.9L14.6 29.9 14.6 42.4C14.6 42.8 14.8 43 15.1 43L35.7 43C36.1 43 36.3 42.8 36.3 42.4L36.3 29.9 38.3 29.9C38.7 29.9 38.9 29.6 38.9 29.3L38.9 26.4C38.9 26.1 38.6 25.8 38.3 25.8ZM24.3 21.1L26.6 21.1C29.3 21.1 31.5 23.2 31.7 25.8L19.2 25.8C19.4 23.2 21.6 21.1 24.3 21.1ZM35.2 41.8L15.7 41.8 15.7 29.9 35.1 29.9 35.1 41.8 35.2 41.8ZM37.7 28.7L35.7 28.7 15.1 28.7 13.1 28.7 13.1 27 37.7 27 37.7 28.7 37.7 28.7Z" style="fill:#004385;stroke-width:0.3;stroke:#004385"/>
    </g>
</svg>