<?xml version="1.0" encoding="UTF-8"?>
<svg width="50px" height="50px" viewBox="0 0 50 50" version="1.1" xmlns="http://www.w3.org/2000/svg" xmlns:xlink="http://www.w3.org/1999/xlink">
    <!-- Generator: Sketch 45.2 (43514) - http://www.bohemiancoding.com/sketch -->
    <title>Financial</title>
    <desc>Created with Sketch.</desc>
    <defs></defs>
    <g id="About-Us" stroke="none" stroke-width="1" fill="none" fill-rule="evenodd">
        <g id="Milestones" transform="translate(-513.000000, -1109.000000)">
            <g id="Q2-2017" transform="translate(453.000000, 859.000000)">
                <g id="Financial" transform="translate(60.000000, 250.000000)">
                    <circle id="Oval---white" fill-opacity="0.3" fill="#CBD8E6" cx="25" cy="25" r="25"></circle>
                    <path d="M25.4166667,18.6166667 C28.3333333,18.6166667 30.725,16.225 30.725,13.3083333 C30.725,10.3916667 28.3333333,8 25.4166667,8 C22.5,8 20.1083333,10.3916667 20.1083333,13.3083333 C20.1083333,16.225 22.5,18.6166667 25.4166667,18.6166667 Z M25.4166667,9.16666667 C27.6916667,9.16666667 29.5583333,11.0333333 29.5583333,13.3083333 C29.5583333,15.5833333 27.6916667,17.45 25.4166667,17.45 C23.1416667,17.45 21.275,15.5833333 21.275,13.3083333 C21.275,11.0333333 23.1416667,9.16666667 25.4166667,9.16666667 Z M38.3083333,25.85 L35.8583333,25.85 L35.8583333,20.1916667 C35.8583333,20.0166667 35.8,19.9 35.6833333,19.7833333 L32.5333333,16.6333333 C32.3,16.4 31.95,16.4 31.7166667,16.6333333 C31.4833333,16.8666667 31.4833333,17.2166667 31.7166667,17.45 L34.6916667,20.425 L34.6916667,25.85 L32.8833333,25.85 C32.65,22.5833333 29.9083333,19.9583333 26.5833333,19.9583333 L24.3083333,19.9583333 C20.9833333,19.9583333 18.2416667,22.5833333 18.0083333,25.85 L12.5833333,25.85 C12.2333333,25.85 12,26.0833333 12,26.4333333 L12,29.2916667 C12,29.6416667 12.2333333,29.875 12.5833333,29.875 L14.5666667,29.875 L14.5666667,42.4166667 C14.5666667,42.7666667 14.8,43 15.15,43 L35.7416667,43 C36.0916667,43 36.325,42.7666667 36.325,42.4166667 L36.325,29.875 L38.3083333,29.875 C38.6583333,29.875 38.8916667,29.6416667 38.8916667,29.2916667 L38.8916667,26.4333333 C38.8916667,26.1416667 38.6,25.85 38.3083333,25.85 Z M24.3083333,21.125 L26.5833333,21.125 C29.2666667,21.125 31.4833333,23.225 31.7166667,25.85 L19.175,25.85 C19.35,23.225 21.5666667,21.125 24.3083333,21.125 Z M35.1583333,41.8333333 L15.675,41.8333333 L15.675,29.875 L35.1,29.875 L35.1,41.8333333 L35.1583333,41.8333333 Z M37.725,28.7083333 L35.7416667,28.7083333 L15.0916667,28.7083333 L13.1083333,28.7083333 L13.1083333,27.0166667 L37.6666667,27.0166667 L37.6666667,28.7083333 L37.725,28.7083333 Z" id="Shape" stroke="#004385" stroke-width="0.3" fill="#004385" fill-rule="nonzero"></path>
                </g>
            </g>
        </g>
    </g>
</svg>