<svg xmlns="http://www.w3.org/2000/svg" width="50" height="50" viewBox="0 0 50 50">
    <g fill="none">
        <circle cx="25" cy="25" r="25" style="fill-opacity:0.3;fill:#CBD8E6"/>
        <path d="M42.6 33.1L40.4 33.1 40.4 15.3C40.4 14.6 39.8 14 39.1 14L11.9 14C11.2 14 10.6 14.6 10.6 15.3L10.6 33.1 8.4 33.1C8.2 33.1 8 33.3 8 33.5L8 34.9C8 35.8 8.8 36.6 9.8 36.6L41.3 36.6C42.2 36.6 43 35.8 43 34.9L43 33.5C43 33.3 42.8 33.1 42.6 33.1ZM11.5 15.3C11.5 15.1 11.7 14.9 11.9 14.9L39.1 14.9C39.3 14.9 39.5 15.1 39.5 15.3L39.5 33.1 11.5 33.1 11.5 15.3ZM42.1 34.8C42.1 35.3 41.7 35.7 41.3 35.7L9.8 35.7C9.3 35.7 8.9 35.3 8.9 34.8L8.9 33.9 42.1 33.9 42.1 34.8ZM37.8 17.4L12.8 17.4C12.6 17.4 12.4 17.6 12.4 17.8L12.4 31.6C12.4 31.8 12.6 32 12.8 32L37.8 32C38 32 38.2 31.8 38.2 31.6L38.2 17.8C38.2 17.6 38 17.4 37.8 17.4ZM37.3 31.1L13.3 31.1 13.3 18.3 37.3 18.3 37.3 31.1ZM37.4 35.2C37.6 35 37.6 34.7 37.4 34.5 37.2 34.3 36.8 34.3 36.6 34.5 36.4 34.7 36.4 35 36.6 35.2 36.8 35.4 37.2 35.4 37.4 35.2ZM39.1 35.2C39.3 35 39.3 34.7 39.1 34.5 38.9 34.3 38.6 34.3 38.4 34.5 38.2 34.7 38.2 35 38.4 35.2 38.6 35.4 38.9 35.4 39.1 35.2ZM25.7 16C25.8 15.8 25.6 15.6 25.3 15.6 25.1 15.5 24.9 15.7 24.8 15.9 24.8 16.2 25 16.4 25.2 16.4 25.5 16.5 25.7 16.3 25.7 16ZM13.1 34.4L14.6 34.4 14.6 35.5 13.1 35.5 13.1 34.4Z" style="fill:#004385;stroke-width:0.4;stroke:#004385"/>
    </g>
</svg>