<?xml version="1.0" encoding="UTF-8"?>
<svg width="50px" height="50px" viewBox="0 0 50 50" version="1.1" xmlns="http://www.w3.org/2000/svg" xmlns:xlink="http://www.w3.org/1999/xlink">
    <!-- Generator: Sketch 45.2 (43514) - http://www.bohemiancoding.com/sketch -->
    <title>Laptop</title>
    <desc>Created with Sketch.</desc>
    <defs></defs>
    <g id="About-Us" stroke="none" stroke-width="1" fill="none" fill-rule="evenodd">
        <g id="Milestones" transform="translate(-513.000000, -1616.000000)">
            <g id="Q2-2017" transform="translate(453.000000, 859.000000)">
                <g id="Laptop" transform="translate(60.000000, 757.000000)">
                    <circle id="Oval---white" fill-opacity="0.3" fill="#CBD8E6" cx="25" cy="25" r="25"></circle>
                    <path d="M42.5625,33.0672036 L40.41875,33.0672036 L40.41875,15.3424457 C40.41875,14.6010334 39.8311237,14 39.10625,14 L11.89375,14 C11.1688763,14 10.58125,14.6010334 10.58125,15.3424457 L10.58125,33.0672036 L8.4375,33.0672036 C8.19587542,33.0672036 8,33.2675481 8,33.5146855 L8,34.8571312 C8,35.8456809 8.78350169,36.6470588 9.75,36.6470588 L41.25,36.6470588 C42.2164983,36.6470588 43,35.8456809 43,34.8571312 L43,33.5146855 C43,33.2675481 42.8041246,33.0672036 42.5625,33.0672036 Z M11.45625,15.3424457 C11.45625,15.0953083 11.6521254,14.8949638 11.89375,14.8949638 L39.10625,14.8949638 C39.3478746,14.8949638 39.54375,15.0953083 39.54375,15.3424457 L39.54375,33.0672036 L11.45625,33.0672036 L11.45625,15.3424457 Z M42.125,34.8437068 C42.125,35.3379816 41.7332492,35.7386706 41.25,35.7386706 L9.75,35.7386706 C9.26675084,35.7386706 8.875,35.3379816 8.875,34.8437068 L8.875,33.948743 L42.125,33.948743 L42.125,34.8437068 Z M37.771875,17.3740135 L12.8125,17.3740135 C12.5708754,17.3740135 12.375,17.574358 12.375,17.8214954 L12.375,31.5815637 C12.375,31.8287012 12.5708754,32.0290456 12.8125,32.0290456 L37.771875,32.0290456 C38.0134996,32.0290456 38.209375,31.8287012 38.209375,31.5815637 L38.209375,17.8214954 C38.209375,17.574358 38.0134996,17.3740135 37.771875,17.3740135 Z M37.334375,31.1340818 L13.25,31.1340818 L13.25,18.2689773 L37.334375,18.2689773 L37.334375,31.1340818 Z M37.3716994,35.2285704 C37.5733076,35.0269623 37.5695787,34.6963619 37.3633707,34.4901539 C37.1571627,34.2839459 36.8265623,34.280217 36.6249542,34.4818252 C36.423346,34.6834333 36.4270749,35.0140337 36.6332829,35.2202417 C36.8394909,35.4264497 37.1700913,35.4301786 37.3716994,35.2285704 Z M39.1346671,35.2242566 C39.3362752,35.0226484 39.3325463,34.6920481 39.1263383,34.48584 C38.9201303,34.279632 38.58953,34.2759031 38.3879218,34.4775113 C38.1863136,34.6791195 38.1900426,35.0097198 38.3962506,35.2159278 C38.6024586,35.4221358 38.9330589,35.4258647 39.1346671,35.2242566 Z M25.7276926,16.0406498 C25.7527814,15.8003313 25.5738585,15.584712 25.3280569,15.5590507 C25.0822554,15.5333894 24.8626553,15.7074035 24.8375664,15.947722 C24.8124775,16.1880405 24.9914005,16.4036597 25.237202,16.429321 C25.4830036,16.4549823 25.7026037,16.2809683 25.7276926,16.0406498 Z M13.053125,34.3917501 L14.60625,34.3917501 L14.60625,35.4522822 L13.053125,35.4522822 L13.053125,34.3917501 Z" id="Combined-Shape" stroke="#004385" stroke-width="0.4" fill="#004385" fill-rule="nonzero"></path>
                </g>
            </g>
        </g>
    </g>
</svg>