<svg xmlns="http://www.w3.org/2000/svg" width="50" height="50" viewBox="0 0 50 50">
    <g fill="none">
        <circle cx="25" cy="25" r="25" style="fill-opacity:0.3;fill:#CBD8E6"/>
        <path d="M47.6 21C44.6 22.2 42.3 24.7 41.4 25.8 41.1 26 40.9 26 40.8 26 40.6 26 40.5 25.9 40.3 25.8L34.6 17.5C34.5 17.4 34.5 17.3 34.5 17.1 34.6 16.9 34.7 16.6 35 16.5 35.2 16.4 35.5 16.2 36 16 36.5 15.7 37.2 15.5 38 15L37.5 14.1C36.8 14.6 36.1 14.8 35.5 15.1 35.1 15.3 34.7 15.5 34.4 15.7 33.9 16 33.5 16.4 33.5 17 33.5 17.1 33.5 17.3 33.5 17.4L23.6 17.4 22.7 17.4 17.5 17.4C17.5 17.3 17.5 17.1 17.5 17 17.3 16.5 17 16 16.5 15.7 16.2 15.5 15.9 15.3 15.4 15.1 14.8 14.8 14 14.5 13 14L12.4 14.9C13.4 15.5 14.2 15.8 14.8 16.1 15.3 16.3 15.7 16.4 15.8 16.6 16.1 16.7 16.3 17 16.3 17.2 16.3 17.3 16.3 17.4 16.2 17.5L10.5 25.9C10.4 26 10.2 26.1 10 26.1 9.9 26.1 9.6 26.1 9.4 25.9 8.5 24.8 6.2 22.3 3.2 21.1L3 22C5.8 23.2 8.2 25.7 8.8 26.5 9.2 26.9 9.6 27.1 10.1 27.1 10.1 27.1 10.2 27.1 10.2 27.1 10.7 27.1 11.1 26.9 11.4 26.5 11.7 26.9 12.3 27.4 12.5 27.9 12.6 28.1 12.6 28.1 12.7 28.3 12.7 28.4 12.8 28.4 12.8 28.5 12.6 28.6 12.3 28.8 12.2 29 11.4 29.9 11.7 31.4 12.7 32.1L12.8 32.2C13.2 32.4 13.6 32.6 14.1 32.6 14.2 32.6 14.4 32.6 14.5 32.5 14.5 32.6 14.5 32.7 14.5 32.9 14.6 33.5 14.9 34 15.4 34.4 15.8 34.7 16.3 34.9 16.8 34.9 17 34.9 17.2 34.9 17.3 34.8 17.3 34.9 17.3 34.9 17.3 35 17.4 35.6 17.7 36.2 18.2 36.5 18.6 36.8 19.1 37 19.6 37 19.8 37 20 36.9 20.2 36.9 20.3 37.4 20.6 38 21.1 38.3 21.4 38.6 21.8 38.8 22.3 38.8 22.9 38.8 23.5 38.5 23.9 38 24.3 38.2 24.7 38.3 25.2 38.3 25.3 38.3 25.4 38.3 25.6 38.3 26.2 38.1 26.7 37.8 27.1 37.3 27.4 36.9 27.5 36.4 27.5 36L28.1 36.4C28.5 36.7 29 36.8 29.4 36.8 30.1 36.8 30.9 36.5 31.3 35.8 31.6 35.4 31.7 34.9 31.7 34.5L31.9 34.5C32.3 34.8 32.8 34.9 33.2 34.9 33.3 34.9 33.5 34.9 33.6 34.9 34.2 34.7 34.8 34.4 35.1 33.9 35.4 33.5 35.5 33 35.5 32.5L35.8 32.7C36.2 33 36.7 33.1 37.1 33.1 37.9 33.1 38.7 32.8 39.1 32.1 39.8 31 39.6 29.5 38.4 28.8L30.7 23.5 29.2 23.5C26.7 23.5 26.3 21.6 26.3 21.4L26.5 21 21.3 21 21.2 21.4C21 22.7 20.6 23.5 20 23.8 19.6 24.1 19.3 24.1 19 24.1L19 20.7 23 18.4 23.6 18.4 34.1 18.4 39.6 26.5C39.8 26.9 40.3 27.1 40.8 27.2 40.8 27.2 40.9 27.2 40.9 27.2 41.4 27.2 41.8 27 42.2 26.5 42.8 25.8 45.2 23.2 48 22L47.6 21ZM13.4 31.3L13.3 31.3C13 31.1 12.9 30.8 12.8 30.5 12.8 30.2 12.8 29.9 13 29.6 13.2 29.3 13.6 29.1 14 29.1 14.3 29.1 14.5 29.2 14.7 29.3L14.8 29.4C15 29.6 15.2 29.9 15.3 30.2 15.3 30.4 15.3 30.6 15.2 30.8L14.9 31.1C14.9 31.1 14.9 31.2 14.9 31.2 14.5 31.6 13.9 31.6 13.4 31.3ZM16 33.6C15.5 33.1 15.3 32.4 15.7 31.8 15.8 31.7 15.9 31.7 15.9 31.6 15.9 31.5 16 31.4 16.1 31.3L16.6 30.7C16.8 30.4 17.2 30.2 17.6 30.2 17.9 30.2 18.2 30.3 18.4 30.5 18.9 30.9 19.1 31.7 18.6 32.2L17.9 33.3C17.4 33.8 16.6 34 16 33.6ZM18.9 35.7C18.6 35.5 18.5 35.2 18.4 34.9 18.4 34.5 18.4 34.2 18.6 34L19.4 32.9C19.4 32.9 19.4 32.9 19.4 32.9L20.1 32C20.3 31.6 20.7 31.5 21.1 31.5 21.4 31.5 21.7 31.5 21.9 31.7 22.2 32 22.3 32.2 22.4 32.6 22.5 32.9 22.4 33.3 22.2 33.5L20.7 35.5C20.2 36 19.4 36 18.9 35.7ZM23.4 37L23.1 37.3C22.8 37.7 22.2 37.8 21.7 37.5 21.2 37.2 21.1 36.5 21.5 36L21.7 35.8C21.9 35.5 22.2 35.4 22.5 35.4 22.7 35.4 22.9 35.4 23.1 35.6 23.6 35.9 23.7 36.5 23.4 37ZM17.9 20L17.9 25 18.2 25.1C18.3 25.1 19.3 25.4 20.4 24.8 21.2 24.3 21.8 23.4 22 22L25.6 22C25.9 23.1 27 24.6 29.4 24.6L30.6 24.6 38 29.7C38.7 30.1 38.8 30.9 38.4 31.5 38 32.2 37.1 32.3 36.5 31.9L34.6 30.6 34.6 30.6 29.3 26.9 28.7 27.7 34 31.4C34.3 31.6 34.5 31.9 34.6 32.2 34.6 32.6 34.6 32.9 34.4 33.2 34.2 33.5 33.9 33.7 33.5 33.8 33.2 33.8 32.8 33.8 32.5 33.6L30.9 32.5C30.8 32.4 30.8 32.4 30.8 32.4L30.8 32.4 28.1 30.6 27.6 31.5 30.4 33.4C30.9 33.8 31 34.6 30.6 35.1 30.2 35.8 29.4 35.9 28.8 35.5L25.3 33.1 24.7 33.9 25.9 34.8 25.9 34.9C26.2 35.1 26.4 35.4 26.5 35.7 26.5 36 26.5 36.4 26.3 36.7 26.1 36.9 25.8 37.2 25.4 37.2 25.1 37.3 24.7 37.2 24.5 37 24.7 36.2 24.5 35.2 23.8 34.7 23.5 34.5 23.1 34.3 22.7 34.3L22.9 34C23.3 33.6 23.4 32.9 23.4 32.3 23.3 31.7 22.9 31.1 22.5 30.8 22 30.5 21.6 30.3 21.1 30.3 20.6 30.3 20.1 30.4 19.7 30.8 19.5 30.3 19.3 29.9 18.9 29.6 18.4 29.3 18 29.1 17.5 29.1 17 29.1 16.5 29.3 16.2 29.5 16 29.1 15.7 28.7 15.4 28.4L15.3 28.4C14.8 28 14.3 27.9 13.7 27.9 13.7 27.9 13.7 27.8 13.6 27.7 13.5 27.5 13.5 27.4 13.4 27.2 13 26.5 12.3 25.9 11.9 25.5L16.9 18.4 20.8 18.4 17.9 20Z" style="fill:#004385;stroke-width:0.5;stroke:#004385"/>
    </g>
</svg>