<?xml version="1.0" encoding="UTF-8"?>
<svg width="50px" height="50px" viewBox="0 0 50 50" version="1.1" xmlns="http://www.w3.org/2000/svg" xmlns:xlink="http://www.w3.org/1999/xlink">
    <!-- Generator: Sketch 45.2 (43514) - http://www.bohemiancoding.com/sketch -->
    <title>Partnerships</title>
    <desc>Created with Sketch.</desc>
    <defs></defs>
    <g id="About-Us" stroke="none" stroke-width="1" fill="none" fill-rule="evenodd">
        <g id="Milestones" transform="translate(-513.000000, -970.000000)">
            <g id="Q2-2017" transform="translate(453.000000, 859.000000)">
                <g id="Partnerships" transform="translate(60.000000, 111.000000)">
                    <circle id="Oval---white" fill-opacity="0.3" fill="#CBD8E6" cx="25" cy="25" r="25"></circle>
                    <path d="M47.5846154,21.0021008 C44.6076923,22.1806723 42.2538462,24.7457983 41.3538462,25.7857143 C41.1461538,25.9936975 40.9384615,25.9936975 40.8,25.9936975 C40.5923077,25.9936975 40.4538462,25.9243697 40.3153846,25.7857143 L34.5692308,17.4663866 C34.5,17.3970588 34.5,17.2584034 34.5,17.1197479 C34.5692308,16.9117647 34.7076923,16.6344538 34.9846154,16.4957983 C35.1923077,16.3571429 35.5384615,16.2184874 35.9538462,16.0105042 C36.5076923,15.7331933 37.2,15.4558824 38.0307692,15.039916 L37.5461538,14.1386555 C36.7846154,14.5546218 36.0923077,14.8319328 35.5384615,15.1092437 C35.0538462,15.3172269 34.7076923,15.5252101 34.4307692,15.6638655 C33.9461538,16.0105042 33.5307692,16.4264706 33.4615385,16.9810924 C33.4615385,17.1197479 33.4615385,17.2584034 33.4615385,17.3970588 L23.6307692,17.3970588 L22.7307692,17.3970588 L17.4692308,17.3970588 C17.4692308,17.2584034 17.4692308,17.1197479 17.4692308,16.9810924 C17.3307692,16.4957983 16.9846154,16.0105042 16.5,15.6638655 C16.2230769,15.5252101 15.8769231,15.3172269 15.3923077,15.1092437 C14.7692308,14.8319328 14.0076923,14.4852941 13.0384615,14 L12.4153846,14.9012605 C13.3846154,15.4558824 14.2153846,15.802521 14.8384615,16.0798319 C15.2538462,16.2878151 15.6692308,16.4264706 15.8076923,16.5651261 C16.0846154,16.7037815 16.2923077,16.9810924 16.2923077,17.1890756 C16.2923077,17.3277311 16.2923077,17.3970588 16.2230769,17.5357143 L10.4769231,25.855042 C10.4076923,25.9936975 10.2,26.0630252 9.99230769,26.0630252 C9.85384615,26.0630252 9.64615385,26.0630252 9.43846154,25.855042 C8.53846154,24.8151261 6.18461538,22.25 3.20769231,21.0714286 L3,21.9726891 C5.83846154,23.1512605 8.19230769,25.7163866 8.81538462,26.4789916 C9.16153846,26.894958 9.57692308,27.1029412 10.1307692,27.1029412 C10.1307692,27.1029412 10.2,27.1029412 10.2,27.1029412 C10.6846154,27.1029412 11.1,26.894958 11.3769231,26.5483193 C11.7230769,26.894958 12.2769231,27.3802521 12.4846154,27.8655462 C12.5538462,28.0735294 12.6230769,28.1428571 12.6923077,28.2815126 C12.6923077,28.3508403 12.7615385,28.4201681 12.7615385,28.4894958 C12.5538462,28.6281513 12.3461538,28.7668067 12.2076923,28.9747899 C11.4461538,29.9453782 11.6538462,31.4012605 12.6923077,32.0945378 L12.7615385,32.1638655 C13.1769231,32.4411765 13.5923077,32.5798319 14.0769231,32.5798319 C14.2153846,32.5798319 14.3538462,32.5798319 14.4923077,32.5105042 C14.4923077,32.6491597 14.4923077,32.7184874 14.4923077,32.8571429 C14.5615385,33.4810924 14.9076923,34.0357143 15.3923077,34.3823529 C15.8076923,34.6596639 16.2923077,34.8676471 16.7769231,34.8676471 C16.9846154,34.8676471 17.1923077,34.8676471 17.3307692,34.7983193 C17.3307692,34.8676471 17.3307692,34.9369748 17.3307692,35.0063025 C17.4,35.6302521 17.7461538,36.1848739 18.2307692,36.5315126 C18.6461538,36.8088235 19.1307692,37.0168067 19.6153846,37.0168067 C19.8230769,37.0168067 20.0307692,36.947479 20.2384615,36.8781513 C20.3076923,37.4327731 20.5846154,37.987395 21.0692308,38.3340336 C21.4153846,38.6113445 21.8307692,38.75 22.3153846,38.75 C22.9384615,38.75 23.4923077,38.4726891 23.9076923,37.987395 C24.3230769,38.1953782 24.7384615,38.3340336 25.1538462,38.3340336 C25.2923077,38.3340336 25.4307692,38.3340336 25.5692308,38.2647059 C26.1923077,38.1260504 26.7461538,37.7794118 27.0923077,37.2941176 C27.3692308,36.8781513 27.5076923,36.3928571 27.5076923,35.9768908 L28.0615385,36.3928571 C28.4769231,36.6701681 28.9615385,36.8088235 29.3769231,36.8088235 C30.1384615,36.8088235 30.9,36.4621849 31.3153846,35.7689076 C31.5923077,35.3529412 31.7307692,34.8676471 31.7307692,34.4516807 L31.8692308,34.5210084 C32.2846154,34.7983193 32.7692308,34.9369748 33.1846154,34.9369748 C33.3230769,34.9369748 33.4615385,34.9369748 33.6,34.8676471 C34.2230769,34.7289916 34.7769231,34.3823529 35.1230769,33.8970588 C35.4,33.4810924 35.5384615,32.9957983 35.5384615,32.5105042 L35.8153846,32.7184874 C36.2307692,32.9957983 36.7153846,33.1344538 37.1307692,33.1344538 C37.8923077,33.1344538 38.6538462,32.7878151 39.0692308,32.0945378 C39.8307692,30.9852941 39.5538462,29.5294118 38.4461538,28.7668067 L30.6923077,23.4978992 L29.1692308,23.4978992 C26.6769231,23.4978992 26.3307692,21.6260504 26.3307692,21.4180672 L26.5384615,21.0021008 L21.2769231,21.0021008 L21.2076923,21.4180672 C21,22.6659664 20.5846154,23.4978992 19.9615385,23.8445378 C19.6153846,24.052521 19.2692308,24.1218487 18.9923077,24.1218487 L18.9923077,20.6554622 L23.0076923,18.4369748 L23.6307692,18.4369748 L34.0846154,18.4369748 L39.5538462,26.4789916 C39.8307692,26.894958 40.3153846,27.1029412 40.8,27.1722689 C40.8,27.1722689 40.8692308,27.1722689 40.8692308,27.1722689 C41.3538462,27.1722689 41.8384615,26.9642857 42.1846154,26.5483193 C42.8076923,25.7857143 45.1615385,23.2205882 48,22.0420168 L47.5846154,21.0021008 Z M13.3846154,31.3319328 L13.3153846,31.262605 C13.0384615,31.0546218 12.9,30.7773109 12.8307692,30.5 C12.7615385,30.1533613 12.8307692,29.8760504 13.0384615,29.5987395 C13.2461538,29.3214286 13.5923077,29.1134454 14.0076923,29.1134454 C14.2846154,29.1134454 14.4923077,29.1827731 14.7,29.3214286 L14.7692308,29.3907563 C15.0461538,29.5987395 15.1846154,29.8760504 15.2538462,30.1533613 C15.2538462,30.3613445 15.2538462,30.5693277 15.1846154,30.7773109 L14.9076923,31.1239496 C14.9076923,31.1239496 14.9076923,31.1932773 14.9076923,31.1932773 C14.4923077,31.6092437 13.8692308,31.6092437 13.3846154,31.3319328 Z M16.0153846,33.5504202 C15.4615385,33.1344538 15.3230769,32.3718487 15.7384615,31.8172269 C15.8076923,31.7478992 15.8769231,31.6785714 15.8769231,31.6092437 C15.9461538,31.539916 16.0153846,31.4012605 16.0846154,31.3319328 L16.5692308,30.7079832 C16.7769231,30.3613445 17.1923077,30.2226891 17.6076923,30.2226891 C17.8846154,30.2226891 18.1615385,30.2920168 18.3692308,30.5 C18.9230769,30.9159664 19.0615385,31.6785714 18.6461538,32.2331933 L17.8846154,33.2731092 C17.4,33.8277311 16.5692308,33.9663866 16.0153846,33.5504202 Z M18.9230769,35.6995798 C18.6461538,35.4915966 18.5076923,35.2142857 18.4384615,34.8676471 C18.3692308,34.5210084 18.4384615,34.1743697 18.6461538,33.9663866 L19.4076923,32.9264706 C19.4076923,32.9264706 19.4076923,32.9264706 19.4076923,32.9264706 L20.1,31.9558824 C20.3076923,31.6092437 20.7230769,31.4705882 21.1384615,31.4705882 C21.4153846,31.4705882 21.6923077,31.539916 21.9,31.7478992 C22.1769231,31.9558824 22.3153846,32.2331933 22.3846154,32.5798319 C22.4538462,32.9264706 22.3846154,33.2731092 22.1769231,33.4810924 L20.7230769,35.4915966 C20.2384615,35.9768908 19.4076923,36.0462185 18.9230769,35.6995798 Z M23.3538462,37.0168067 L23.1461538,37.2941176 C22.8,37.710084 22.1769231,37.8487395 21.6923077,37.5021008 C21.2076923,37.1554622 21.1384615,36.5315126 21.4846154,36.0462185 L21.6923077,35.7689076 C21.9,35.4915966 22.1769231,35.3529412 22.5230769,35.3529412 C22.7307692,35.3529412 22.9384615,35.4222689 23.1461538,35.5609244 C23.6307692,35.907563 23.7,36.5315126 23.3538462,37.0168067 Z M17.8846154,20.0315126 L17.8846154,24.9537815 L18.2307692,25.092437 C18.3,25.092437 19.3384615,25.4390756 20.3769231,24.8151261 C21.2076923,24.3298319 21.7615385,23.4285714 22.0384615,22.0420168 L25.5692308,22.0420168 C25.9153846,23.0819328 26.9538462,24.6071429 29.3769231,24.6071429 L30.5538462,24.6071429 L38.0307692,29.6680672 C38.6538462,30.0840336 38.7923077,30.9159664 38.3769231,31.539916 C37.9615385,32.1638655 37.1307692,32.302521 36.5076923,31.8865546 L34.6384615,30.5693277 L34.6384615,30.5693277 L29.3076923,26.894958 L28.6846154,27.7268908 L34.0153846,31.4012605 C34.2923077,31.6092437 34.5,31.8865546 34.5692308,32.2331933 C34.6384615,32.5798319 34.5692308,32.9264706 34.3615385,33.2037815 C34.1538462,33.4810924 33.8769231,33.6890756 33.5307692,33.7584034 C33.1846154,33.8277311 32.8384615,33.7584034 32.4923077,33.5504202 L30.9,32.5105042 C30.8307692,32.4411765 30.8307692,32.4411765 30.7615385,32.3718487 L30.7615385,32.3718487 L28.1307692,30.5693277 L27.6461538,31.539916 L30.4153846,33.4117647 C30.9,33.8277311 31.0384615,34.5903361 30.6230769,35.144958 C30.2076923,35.7689076 29.3769231,35.907563 28.7538462,35.4915966 L25.2923077,33.0651261 L24.6692308,33.8970588 L25.9153846,34.7983193 L25.9153846,34.8676471 C26.1923077,35.0756303 26.4,35.3529412 26.4692308,35.6995798 C26.5384615,36.0462185 26.4692308,36.3928571 26.2615385,36.6701681 C26.0538462,36.947479 25.7769231,37.1554622 25.4307692,37.2247899 C25.0846154,37.2941176 24.7384615,37.2247899 24.4615385,37.0168067 C24.7384615,36.1848739 24.5307692,35.2142857 23.7692308,34.6596639 C23.4923077,34.4516807 23.0769231,34.3130252 22.7307692,34.3130252 L22.9384615,34.0357143 C23.2846154,33.5504202 23.4230769,32.9264706 23.3538462,32.302521 C23.2846154,31.6785714 22.9384615,31.1239496 22.4538462,30.7773109 C22.0384615,30.5 21.5538462,30.2920168 21.0692308,30.2920168 C20.5846154,30.2920168 20.1,30.4306723 19.6846154,30.7773109 C19.5461538,30.2920168 19.2692308,29.8760504 18.8538462,29.5987395 C18.4384615,29.3214286 17.9538462,29.1134454 17.4692308,29.1134454 C16.9846154,29.1134454 16.5,29.2521008 16.1538462,29.5294118 C16.0153846,29.1134454 15.7384615,28.697479 15.3923077,28.4201681 L15.3230769,28.3508403 C14.8384615,28.0042017 14.2846154,27.8655462 13.7307692,27.9348739 C13.6615385,27.8655462 13.6615385,27.7962185 13.5923077,27.657563 C13.5230769,27.5189076 13.4538462,27.3802521 13.3846154,27.1722689 C13.0384615,26.4789916 12.3461538,25.855042 11.9307692,25.5084034 L16.9153846,18.3676471 L20.7923077,18.3676471 L17.8846154,20.0315126 Z" id="Shape" stroke="#004385" stroke-width="0.5" fill="#004385" fill-rule="nonzero"></path>
                </g>
            </g>
        </g>
    </g>
</svg>