<svg xmlns="http://www.w3.org/2000/svg" width="50" height="50" viewBox="0 0 50 50">
    <g fill="none">
        <circle cx="25" cy="25" r="25" style="fill-opacity:0.3;fill:#CBD8E6"/>
        <path d="M28.9 15L21.7 15C20.7 15 20 15.8 20 16.7L20 18.1 20 18.8 20 30 20 30.7 20 33.3C20 34.2 20.7 35 21.7 35L28.9 35C29.9 35 30.6 34.2 30.6 33.3L30.6 30.7 30.6 30 30.6 18.8 30.6 18.1 30.6 16.7C30.6 15.8 29.8 15 28.9 15ZM29.9 33.3C29.9 33.9 29.5 34.3 28.9 34.3L21.7 34.3C21.1 34.3 20.7 33.9 20.7 33.3L20.7 30.7 29.9 30.7 29.9 33.3 29.9 33.3ZM29.9 30L20.7 30 20.7 18.8 29.9 18.8 29.9 30 29.9 30ZM20.7 18.1L20.7 16.7C20.7 16.1 21.1 15.7 21.7 15.7L28.9 15.7C29.5 15.7 29.9 16.1 29.9 16.7L29.9 18.1 20.7 18.1ZM25.3 33.7C25.9 33.7 26.5 33.2 26.5 32.5 26.5 31.9 25.9 31.3 25.3 31.3 24.7 31.3 24.1 31.9 24.1 32.5 24.1 33.2 24.7 33.7 25.3 33.7ZM25.3 32C25.6 32 25.8 32.2 25.8 32.5 25.8 32.8 25.6 33 25.3 33 25 33 24.8 32.8 24.8 32.5 24.8 32.2 25 32 25.3 32ZM28 33C28.3 33 28.5 32.8 28.5 32.5 28.5 32.2 28.3 31.9 28 31.9 27.7 31.9 27.4 32.2 27.4 32.5 27.4 32.8 27.7 33 28 33ZM28 32.3C28.1 32.3 28.2 32.4 28.2 32.5 28.2 32.6 28.1 32.8 28 32.8 27.8 32.8 27.7 32.6 27.7 32.5 27.7 32.4 27.8 32.3 28 32.3ZM22.6 33C22.9 33 23.2 32.8 23.2 32.5 23.2 32.2 22.9 31.9 22.6 31.9 22.3 31.9 22.1 32.2 22.1 32.5 22.1 32.8 22.3 33 22.6 33ZM22.6 32.3C22.8 32.3 22.9 32.4 22.9 32.5 22.9 32.6 22.8 32.8 22.6 32.8 22.5 32.8 22.4 32.6 22.4 32.5 22.4 32.4 22.5 32.3 22.6 32.3Z" style="fill:#004385;stroke-width:0.5;stroke:#004385"/>
    </g>
</svg>