<?xml version="1.0" encoding="UTF-8"?>
<svg width="50px" height="50px" viewBox="0 0 50 50" version="1.1" xmlns="http://www.w3.org/2000/svg" xmlns:xlink="http://www.w3.org/1999/xlink">
    <!-- Generator: Sketch 45.2 (43514) - http://www.bohemiancoding.com/sketch -->
    <title>Phone</title>
    <desc>Created with Sketch.</desc>
    <defs></defs>
    <g id="About-Us" stroke="none" stroke-width="1" fill="none" fill-rule="evenodd">
        <g id="Milestones" transform="translate(-453.000000, -1616.000000)">
            <g id="Q2-2017" transform="translate(453.000000, 859.000000)">
                <g id="Phone" transform="translate(0.000000, 757.000000)">
                    <circle id="Oval---white" fill-opacity="0.3" fill="#CBD8E6" cx="25" cy="25" r="25"></circle>
                    <path d="M28.9234184,15 L21.6648169,15 C20.7325194,15 20,15.7612457 20,16.7301038 L20,18.0795848 L20,18.7716263 L20,30.017301 L20,30.7093426 L20,33.2698962 C20,34.2387543 20.7325194,35 21.6648169,35 L28.9234184,35 C29.8557159,35 30.5882353,34.2387543 30.5882353,33.2698962 L30.5882353,30.7093426 L30.5882353,30.017301 L30.5882353,18.7716263 L30.5882353,18.0795848 L30.5882353,16.7301038 C30.5882353,15.7612457 29.8224195,15 28.9234184,15 Z M29.9223085,33.2698962 C29.9223085,33.8581315 29.4894562,34.3079585 28.9234184,34.3079585 L21.6648169,34.3079585 C21.0987791,34.3079585 20.6659267,33.8581315 20.6659267,33.2698962 L20.6659267,30.7093426 L29.9223085,30.7093426 L29.9223085,33.2698962 L29.9223085,33.2698962 Z M29.9223085,30.017301 L20.6659267,30.017301 L20.6659267,18.7716263 L29.9223085,18.7716263 L29.9223085,30.017301 L29.9223085,30.017301 Z M20.6659267,18.0795848 L20.6659267,16.7301038 C20.6659267,16.1418685 21.0987791,15.6920415 21.6648169,15.6920415 L28.9234184,15.6920415 C29.4894562,15.6920415 29.9223085,16.1418685 29.9223085,16.7301038 L29.9223085,18.0795848 L20.6659267,18.0795848 Z M25.2941176,33.7197232 C25.9267481,33.7197232 26.4594895,33.16609 26.4594895,32.5086505 C26.4594895,31.8512111 25.9267481,31.2975779 25.2941176,31.2975779 C24.6614872,31.2975779 24.1287458,31.8512111 24.1287458,32.5086505 C24.1287458,33.16609 24.6614872,33.7197232 25.2941176,33.7197232 Z M25.2941176,31.9550173 C25.5604883,31.9550173 25.7935627,32.1972318 25.7935627,32.4740484 C25.7935627,32.7508651 25.5604883,32.9930796 25.2941176,32.9930796 C25.0277469,32.9930796 24.7946726,32.7508651 24.7946726,32.4740484 C24.7946726,32.1972318 25.0277469,31.9550173 25.2941176,31.9550173 Z M27.9578246,33.0276817 C28.2574917,33.0276817 28.490566,32.7854671 28.490566,32.4740484 C28.490566,32.1626298 28.2574917,31.9204152 27.9578246,31.9204152 C27.6581576,31.9204152 27.4250832,32.1626298 27.4250832,32.4740484 C27.4250832,32.7854671 27.6581576,33.0276817 27.9578246,33.0276817 Z M27.9578246,32.266436 C28.09101,32.266436 28.190899,32.3702422 28.190899,32.5086505 C28.190899,32.6470588 28.09101,32.7508651 27.9578246,32.7508651 C27.8246393,32.7508651 27.7247503,32.6470588 27.7247503,32.5086505 C27.7247503,32.3702422 27.8246393,32.266436 27.9578246,32.266436 Z M22.6304107,33.0276817 C22.9300777,33.0276817 23.1631521,32.7854671 23.1631521,32.4740484 C23.1631521,32.1626298 22.9300777,31.9204152 22.6304107,31.9204152 C22.3307436,31.9204152 22.0976693,32.1626298 22.0976693,32.4740484 C22.0976693,32.7854671 22.3307436,33.0276817 22.6304107,33.0276817 Z M22.6304107,32.266436 C22.763596,32.266436 22.863485,32.3702422 22.863485,32.5086505 C22.863485,32.6470588 22.763596,32.7508651 22.6304107,32.7508651 C22.4972253,32.7508651 22.3973363,32.6470588 22.3973363,32.5086505 C22.3973363,32.3702422 22.4972253,32.266436 22.6304107,32.266436 Z" id="Combined-Shape" stroke="#004385" stroke-width="0.5" fill="#004385" fill-rule="nonzero"></path>
                </g>
            </g>
        </g>
    </g>
</svg>