<?xml version="1.0" encoding="UTF-8"?>
<svg width="50px" height="50px" viewBox="0 0 50 50" version="1.1" xmlns="http://www.w3.org/2000/svg" xmlns:xlink="http://www.w3.org/1999/xlink">
    <!-- Generator: Sketch 45.2 (43514) - http://www.bohemiancoding.com/sketch -->
    <title>Recruitment</title>
    <desc>Created with Sketch.</desc>
    <defs></defs>
    <g id="About-Us" stroke="none" stroke-width="1" fill="none" fill-rule="evenodd">
        <g id="Milestones" transform="translate(-513.000000, -1357.000000)">
            <g id="Q2-2017" transform="translate(453.000000, 859.000000)">
                <g id="Recruitment" transform="translate(60.000000, 498.000000)">
                    <circle id="Oval---white" fill-opacity="0.3" fill="#CBD8E6" cx="25" cy="25" r="25"></circle>
                    <path d="M15.5,20 C17.568125,20 19.25,18.318125 19.25,16.25 C19.25,14.181875 17.568125,12.5 15.5,12.5 C13.431875,12.5 11.75,14.181875 11.75,16.25 C11.75,18.318125 13.431875,20 15.5,20 Z M15.5,13.75 C16.87875,13.75 18,14.87125 18,16.25 C18,17.62875 16.87875,18.75 15.5,18.75 C14.12125,18.75 13,17.62875 13,16.25 C13,14.87125 14.12125,13.75 15.5,13.75 Z M35.5,20 C37.568125,20 39.25,18.318125 39.25,16.25 C39.25,14.181875 37.568125,12.5 35.5,12.5 C33.431875,12.5 31.75,14.181875 31.75,16.25 C31.75,18.318125 33.431875,20 35.5,20 Z M35.5,13.75 C36.87875,13.75 38,14.87125 38,16.25 C38,17.62875 36.87875,18.75 35.5,18.75 C34.12125,18.75 33,17.62875 33,16.25 C33,14.87125 34.12125,13.75 35.5,13.75 Z M41.75,21.25 L41.75,29.375 C41.75,30.40875 40.90875,31.25 39.875,31.25 L39.875,24.375 C39.875,22.651875 38.473125,21.25 36.75,21.25 L33.625,21.25 C33.28,21.25 33,21.53 33,21.875 L33,24.375 L33,25 L33,25.625 L28,25.625 C27.655,25.625 27.375,25.905 27.375,26.25 L27.375,28.125 L23.625,28.125 L23.625,26.25 C23.625,25.905 23.345,25.625 23,25.625 L18,25.625 L18,25 L18,24.375 L18,21.875 C18,21.53 17.72,21.25 17.375,21.25 L14.25,21.25 C12.526875,21.25 11.125,22.651875 11.125,24.375 L11.125,31.25 C10.09125,31.25 9.25,30.40875 9.25,29.375 L9.25,21.25 L8,21.25 L8,29.375 C8,30.653125 8.773125,31.75125 9.875,32.235 L9.875,40 L11.125,40 L11.125,32.5 L11.75,32.5 L12.375,32.5 L17.375,32.5 L17.375,39.375 C17.375,39.72 17.655,40 18,40 L19.875,40 L20.5,40 L21.125,40 L21.125,39.375 L21.125,30 L21.125,29.375 L23,29.375 L28,29.375 L29.875,29.375 L29.875,30 L29.875,39.375 L29.875,40 L30.5,40 L31.125,40 L33,40 C33.345,40 33.625,39.72 33.625,39.375 L33.625,32.5 L38.625,32.5 L39.25,32.5 L39.875,32.5 L39.875,40 L41.125,40 L41.125,32.235 C42.226875,31.75125 43,30.653125 43,29.375 L43,21.25 L41.75,21.25 Z M20.5,28.125 L19.25,28.125 L15.5,28.125 L15.5,24.375 L14.25,24.375 L14.25,28.75 C14.25,29.095 14.53,29.375 14.875,29.375 L19.25,29.375 C19.594375,29.375 19.875,29.655625 19.875,30 L19.875,38.75 L18.625,38.75 L18.625,31.875 C18.625,31.53 18.345,31.25 18,31.25 L12.375,31.25 L12.375,24.375 C12.375,23.34125 13.21625,22.5 14.25,22.5 L16.75,22.5 L16.75,24.375 L16.75,25 L16.75,26.25 C16.75,26.595 17.03,26.875 17.375,26.875 L22.375,26.875 L22.375,28.125 L20.5,28.125 Z M33,31.25 C32.655,31.25 32.375,31.53 32.375,31.875 L32.375,38.75 L31.125,38.75 L31.125,30 C31.125,29.655625 31.405625,29.375 31.75,29.375 L36.125,29.375 C36.47,29.375 36.75,29.095 36.75,28.75 L36.75,24.375 L35.5,24.375 L35.5,28.125 L31.75,28.125 L30.5,28.125 L28.625,28.125 L28.625,26.875 L33.625,26.875 C33.97,26.875 34.25,26.595 34.25,26.25 L34.25,25 L34.25,24.375 L34.25,22.5 L36.75,22.5 C37.78375,22.5 38.625,23.34125 38.625,24.375 L38.625,31.25 L33,31.25 Z M19.875,11.25 L19.875,13.125 C19.875,13.394375 20.046875,13.6325 20.3025,13.718125 C20.3675,13.739375 20.434375,13.75 20.5,13.75 C20.693125,13.75 20.879375,13.66 21,13.5 L22.6875,11.25 L27.375,11.25 C28.40875,11.25 29.25,10.40875 29.25,9.375 L29.25,6.875 C29.25,5.84125 28.40875,5 27.375,5 L19.875,5 C18.84125,5 18,5.84125 18,6.875 L18,9.375 C18,10.40875 18.84125,11.25 19.875,11.25 Z M19.25,6.875 C19.25,6.530625 19.530625,6.25 19.875,6.25 L27.375,6.25 C27.719375,6.25 28,6.530625 28,6.875 L28,9.375 C28,9.719375 27.719375,10 27.375,10 L22.375,10 C22.178125,10 21.993125,10.0925 21.875,10.25 L21.125,11.25 L21.125,10.625 C21.125,10.28 20.845,10 20.5,10 L19.875,10 C19.530625,10 19.25,9.719375 19.25,9.375 L19.25,6.875 Z M20.5,7.5 L26.75,7.5 L26.75,8.75 L20.5,8.75 L20.5,7.5 Z M24.875,20.625 L28.625,20.625 L28.625,21.875 L24.875,21.875 L24.875,20.625 Z M24.25,18.125 C23.21625,18.125 22.375,18.96625 22.375,20 L22.375,22.5 C22.375,23.53375 23.21625,24.375 24.25,24.375 L29.25,24.375 C30.28375,24.375 31.125,23.53375 31.125,22.5 L31.125,22.064375 L32.27,20.346875 C32.398125,20.155 32.41,19.90875 32.30125,19.705625 C32.1925,19.501875 31.980625,19.375 31.75,19.375 L31.018125,19.375 C30.76,18.6475 30.065,18.125 29.25,18.125 L24.25,18.125 Z M29.875,20 C29.875,20.345 30.155,20.625 30.5,20.625 L30.581875,20.625 L29.98,21.528125 C29.911875,21.630625 29.875,21.751875 29.875,21.875 L29.875,22.5 C29.875,22.844375 29.594375,23.125 29.25,23.125 L24.25,23.125 C23.905625,23.125 23.625,22.844375 23.625,22.5 L23.625,20 C23.625,19.655625 23.905625,19.375 24.25,19.375 L29.25,19.375 C29.594375,19.375 29.875,19.655625 29.875,20 Z M22.375,15 L23.625,15 L23.625,16.25 L22.375,16.25 L22.375,15 Z M24.875,15 L26.125,15 L26.125,16.25 L24.875,16.25 L24.875,15 Z M27.375,15 L28.625,15 L28.625,16.25 L27.375,16.25 L27.375,15 Z" id="Combined-Shape" stroke="#004385" stroke-width="0.2" fill="#004385" fill-rule="nonzero"></path>
                </g>
            </g>
        </g>
    </g>
</svg>