<svg xmlns="http://www.w3.org/2000/svg" viewBox="-1.5 -6.887 34 34">
<path id="EnglishUK" fill="#004385" d="M3.508,2.945c0,0.253-0.206,0.458-0.459,0.458s-0.46-0.205-0.46-0.458
	c0-0.254,0.206-0.461,0.459-0.461C3.302,2.486,3.508,2.691,3.508,2.945z M5.507,2.486c-0.253,0-0.459,0.205-0.459,0.459
	c0,0.253,0.206,0.458,0.459,0.458c0.254,0,0.459-0.205,0.459-0.458C5.967,2.691,5.761,2.486,5.507,2.486z M1.82,3.596
	c-0.254,0-0.459,0.207-0.459,0.457c0,0.255,0.205,0.462,0.459,0.462c0.252,0,0.459-0.207,0.459-0.462
	C2.28,3.801,2.073,3.596,1.82,3.596z M3.049,4.703c-0.253,0-0.459,0.207-0.459,0.461c0,0.253,0.206,0.46,0.459,0.46
	s0.459-0.207,0.459-0.46C3.508,4.91,3.302,4.703,3.049,4.703z M4.278,3.596c-0.253,0-0.458,0.207-0.458,0.457
	c0,0.255,0.206,0.462,0.458,0.462c0.253,0,0.46-0.207,0.46-0.462C4.738,3.801,4.531,3.596,4.278,3.596z M5.507,4.703
	c-0.253,0-0.459,0.207-0.459,0.461c0,0.253,0.206,0.46,0.459,0.46c0.254,0,0.459-0.207,0.459-0.46
	C5.967,4.91,5.761,4.703,5.507,4.703z M7.966,2.486c-0.253,0-0.459,0.205-0.459,0.459c0,0.253,0.206,0.458,0.459,0.458
	s0.458-0.205,0.458-0.458C8.424,2.691,8.219,2.486,7.966,2.486z M10.424,2.486c-0.253,0-0.459,0.205-0.459,0.459
	c0,0.253,0.206,0.458,0.459,0.458s0.458-0.205,0.458-0.458C10.883,2.691,10.677,2.486,10.424,2.486z M6.736,3.596
	c-0.254,0-0.459,0.207-0.459,0.457c0,0.255,0.205,0.462,0.459,0.462c0.253,0,0.459-0.207,0.459-0.462
	C7.196,3.801,6.99,3.596,6.736,3.596z M7.966,4.703c-0.253,0-0.459,0.207-0.459,0.461c0,0.253,0.206,0.46,0.459,0.46
	s0.458-0.207,0.458-0.46C8.424,4.91,8.219,4.703,7.966,4.703z M9.195,3.596c-0.253,0-0.459,0.207-0.459,0.457
	c0,0.255,0.207,0.462,0.459,0.462c0.253,0,0.459-0.207,0.459-0.462C9.654,3.801,9.448,3.596,9.195,3.596z M10.424,4.703
	c-0.253,0-0.459,0.207-0.459,0.461c0,0.253,0.206,0.46,0.459,0.46s0.458-0.207,0.458-0.46C10.883,4.91,10.677,4.703,10.424,4.703z
	 M1.82,5.814c-0.254,0-0.459,0.205-0.459,0.459c0,0.253,0.205,0.46,0.459,0.46c0.252,0,0.459-0.207,0.459-0.46
	C2.28,6.02,2.073,5.814,1.82,5.814z M3.049,6.924c-0.253,0-0.459,0.205-0.459,0.459c0,0.256,0.206,0.46,0.459,0.46
	s0.459-0.204,0.459-0.46C3.508,7.129,3.302,6.924,3.049,6.924z M4.278,5.814c-0.253,0-0.458,0.205-0.458,0.459
	c0,0.253,0.206,0.46,0.458,0.46c0.253,0,0.46-0.207,0.46-0.46S4.531,5.814,4.278,5.814z M5.507,6.924
	c-0.253,0-0.459,0.205-0.459,0.459c0,0.256,0.206,0.46,0.459,0.46c0.254,0,0.459-0.204,0.459-0.46
	C5.967,7.129,5.761,6.924,5.507,6.924z M1.82,8.033c-0.254,0-0.459,0.207-0.459,0.459c0,0.253,0.205,0.46,0.459,0.46
	c0.252,0,0.459-0.207,0.459-0.46C2.28,8.238,2.073,8.033,1.82,8.033z M4.278,8.033c-0.253,0-0.458,0.207-0.458,0.459
	c0,0.253,0.206,0.46,0.458,0.46c0.253,0,0.46-0.207,0.46-0.46C4.738,8.238,4.531,8.033,4.278,8.033z M6.736,5.814
	c-0.254,0-0.459,0.205-0.459,0.459c0,0.253,0.205,0.46,0.459,0.46c0.253,0,0.459-0.207,0.459-0.46
	C7.196,6.02,6.99,5.814,6.736,5.814z M7.966,6.924c-0.253,0-0.459,0.205-0.459,0.459c0,0.256,0.206,0.46,0.459,0.46
	s0.458-0.204,0.458-0.46C8.424,7.129,8.219,6.924,7.966,6.924z M9.195,5.814c-0.253,0-0.459,0.205-0.459,0.459
	c0,0.253,0.207,0.46,0.459,0.46c0.253,0,0.459-0.207,0.459-0.46S9.448,5.814,9.195,5.814z M10.424,6.924
	c-0.253,0-0.459,0.205-0.459,0.459c0,0.256,0.206,0.46,0.459,0.46s0.458-0.204,0.458-0.46C10.883,7.129,10.677,6.924,10.424,6.924z
	 M6.736,8.033c-0.254,0-0.459,0.207-0.459,0.459c0,0.253,0.205,0.46,0.459,0.46c0.253,0,0.459-0.207,0.459-0.46
	C7.196,8.238,6.99,8.033,6.736,8.033z M9.195,8.033c-0.253,0-0.459,0.207-0.459,0.459c0,0.253,0.207,0.46,0.459,0.46
	c0.253,0,0.459-0.207,0.459-0.46C9.654,8.238,9.448,8.033,9.195,8.033z M11.653,3.596c-0.253,0-0.459,0.207-0.459,0.457
	c0,0.255,0.206,0.462,0.459,0.462c0.253,0,0.459-0.207,0.459-0.462C12.113,3.801,11.907,3.596,11.653,3.596z M1.82,1.377
	c-0.254,0-0.459,0.207-0.459,0.457c0,0.255,0.205,0.46,0.459,0.46c0.252,0,0.459-0.205,0.459-0.46
	C2.28,1.582,2.073,1.377,1.82,1.377z M4.278,1.377c-0.253,0-0.458,0.207-0.458,0.457c0,0.255,0.206,0.46,0.458,0.46
	c0.253,0,0.46-0.205,0.46-0.46C4.738,1.582,4.531,1.377,4.278,1.377z M6.736,1.377c-0.254,0-0.459,0.207-0.459,0.457
	c0,0.255,0.205,0.46,0.459,0.46c0.253,0,0.459-0.205,0.459-0.46C7.196,1.582,6.99,1.377,6.736,1.377z M9.195,1.377
	c-0.253,0-0.459,0.207-0.459,0.457c0,0.255,0.207,0.46,0.459,0.46c0.253,0,0.459-0.205,0.459-0.46
	C9.654,1.582,9.448,1.377,9.195,1.377z M11.653,1.377c-0.253,0-0.459,0.207-0.459,0.457c0,0.255,0.206,0.46,0.459,0.46
	c0.253,0,0.459-0.205,0.459-0.46C12.113,1.582,11.907,1.377,11.653,1.377z M11.653,5.814c-0.253,0-0.459,0.205-0.459,0.459
	c0,0.253,0.206,0.46,0.459,0.46c0.253,0,0.459-0.207,0.459-0.46C12.113,6.02,11.907,5.814,11.653,5.814z M11.653,8.033
	c-0.253,0-0.459,0.207-0.459,0.459c0,0.253,0.206,0.46,0.459,0.46c0.253,0,0.459-0.207,0.459-0.46
	C12.113,8.238,11.907,8.033,11.653,8.033z M31.5-0.501V2.8v1.429V6.1v1.429v1.87v1.427v1.873v1.43v1.869v1.431v3.299h-32v-3.299
	v-1.431v-1.869v-1.43v-1.873V9.398v-9.899h13.045h1.428H31.5z M0.928,9.398h11.617V7.526V6.1V4.228V2.8v-1.87H0.928V9.398z
	 M30.073,17.424H0.928v1.873h29.145V17.424z M30.073,14.127H0.928v1.869h29.145V14.127z M30.073,10.825h-16.1h-1.428H0.928v1.873
	h29.145V10.825z M30.073,7.526h-16.1v1.872h16.1V7.526z M30.073,4.228h-16.1V6.1h16.1V4.228z M30.073,2.8v-1.87h-16.1V2.8H30.073z"
	/>
</svg>
