<svg xmlns="http://www.w3.org/2000/svg" viewBox="-1.5 -6.887 34 34">
<path id="Portugal" fill="#004385" d="M-0.5-0.5v21.227h32V-0.5H-0.5z M10.405,12.076c-0.883,0-1.602-0.766-1.602-1.707V8.152h3.203
	v2.217C12.006,11.31,11.288,12.076,10.405,12.076z M7.375,6.724V9.4h-1.63C6.056,7.37,7.66,5.765,9.69,5.455v1.271L7.375,6.724
	L7.375,6.724z M7.411,10.826c0.181,1.267,1.094,2.289,2.279,2.585v1.363c-2.031-0.313-3.635-1.918-3.945-3.949L7.411,10.826
	L7.411,10.826z M11.119,13.412c1.186-0.297,2.099-1.318,2.279-2.585h1.667c-0.311,2.031-1.915,3.636-3.946,3.949V13.412z
	 M13.434,9.399V6.724h-2.315V5.454c2.031,0.312,3.635,1.915,3.946,3.945H13.434z M0.928,0.93H9.69v3.08
	c-3.054,0.355-5.433,2.956-5.433,6.104c0,3.146,2.379,5.746,5.433,6.103v3.082H0.928V0.93z M30.073,19.298H11.119v-3.082
	c3.054-0.356,5.434-2.955,5.434-6.103c0-3.146-2.38-5.747-5.434-6.104V0.93h18.955L30.073,19.298L30.073,19.298z"/>
</svg>
