<svg xmlns="http://www.w3.org/2000/svg" viewBox="-1.5 -6.887 34 34">
<g id="Spain">
	<path fill="#004385" d="M-0.5-0.5v21.227h32V-0.5H-0.5z M30.073,0.93v2.79H0.928V0.93H30.073z M30.073,5.147v9.932H0.928V5.147
		H30.073z M0.928,19.298v-2.791h29.146v2.791H0.928z M7.588,13.503c1.67,0,3.029-1.405,3.029-3.134V6.724H4.56v3.646
		C4.56,12.097,5.918,13.503,7.588,13.503z M5.987,8.15H9.19v2.219c0,0.941-0.72,1.707-1.602,1.707c-0.884,0-1.602-0.766-1.602-1.707
		L5.987,8.15L5.987,8.15z"/>
</g>
</svg>
