<svg xmlns="http://www.w3.org/2000/svg" viewBox="-1.5 -6.887 34 34">
<g id="Taiwan">
	<path fill="#004385" d="M-0.5-0.5v21.227h32V-0.5H-0.5z M30.073,19.298H0.928V0.93h29.146L30.073,19.298L30.073,19.298z"/>
	<g>
		<g>
			<path fill="#004385" d="M6.466,9.286c-1.314,0-2.382-1.068-2.382-2.382c0-1.318,1.067-2.386,2.382-2.386
				c1.317,0,2.386,1.066,2.386,2.386C8.852,8.218,7.783,9.286,6.466,9.286z M6.466,5.049c-1.021,0-1.852,0.833-1.852,1.855
				c0,1.021,0.831,1.852,1.852,1.852c1.022,0,1.855-0.829,1.855-1.852C8.321,5.881,7.488,5.049,6.466,5.049z"/>
			<path fill="#004385" d="M4.211,5.035c0.111,0.031,0.157,0.158,0.09,0.251C4.174,5.46,4.064,5.647,3.978,5.849
				C3.952,5.909,3.894,5.943,3.83,5.943c-0.038,0-0.079-0.02-0.115-0.048L2.774,4.965C2.669,4.858,2.756,4.685,2.891,4.685
				l0.042,0.01L4.211,5.035z"/>
			<path fill="#004385" d="M2.296,6.743l1.525-0.4C3.783,6.523,3.763,6.711,3.763,6.905c0,0.192,0.02,0.376,0.058,0.561L2.296,7.061
				C2.134,7.018,2.134,6.79,2.296,6.743z"/>
			<path fill="#004385" d="M4.301,8.525c0.067,0.087,0.021,0.22-0.09,0.248L2.933,9.115L2.891,9.12
				c-0.135,0-0.222-0.173-0.117-0.279l0.941-0.928C3.751,7.879,3.792,7.867,3.83,7.867c0.063,0,0.122,0.03,0.148,0.092
				C4.064,8.159,4.174,8.349,4.301,8.525z"/>
			<path fill="#004385" d="M4.839,9.061c0.172,0.132,0.359,0.243,0.564,0.326C5.503,9.43,5.525,9.57,5.445,9.65l-0.928,0.927
				c-0.034,0.036-0.07,0.053-0.115,0.053c-0.097,0-0.191-0.094-0.156-0.207l0.343-1.267c0.022-0.079,0.09-0.123,0.158-0.123
				L4.839,9.061z"/>
			<path fill="#004385" d="M6.466,9.604c0.191,0,0.381-0.017,0.56-0.056l-0.403,1.51c-0.021,0.081-0.088,0.122-0.157,0.122
				c-0.067,0-0.135-0.041-0.156-0.122l-0.402-1.51C6.085,9.588,6.275,9.604,6.466,9.604z"/>
			<path fill="#004385" d="M8.415,10.576L7.488,9.649c-0.081-0.08-0.06-0.22,0.045-0.264c0.201-0.082,0.385-0.193,0.56-0.325
				l0.093-0.028c0.067,0,0.135,0.048,0.157,0.123l0.344,1.267c0.033,0.113-0.062,0.207-0.158,0.207
				C8.486,10.629,8.447,10.612,8.415,10.576z"/>
			<path fill="#004385" d="M8.951,7.959C8.978,7.897,9.037,7.867,9.1,7.867c0.04,0,0.082,0.012,0.115,0.046l0.94,0.928
				C10.26,8.947,10.176,9.12,10.04,9.12L9.998,9.115L8.719,8.773C8.614,8.745,8.563,8.612,8.632,8.525
				C8.757,8.349,8.868,8.159,8.951,7.959z"/>
			<path fill="#004385" d="M10.636,6.743c0.161,0.047,0.161,0.274,0,0.317L9.109,7.465C9.147,7.28,9.168,7.097,9.168,6.904
				S9.147,6.522,9.109,6.342L10.636,6.743z"/>
			<path fill="#004385" d="M9.215,5.896C9.182,5.925,9.14,5.943,9.1,5.943c-0.063,0-0.123-0.034-0.149-0.095
				C8.868,5.647,8.757,5.46,8.632,5.286c-0.069-0.093-0.019-0.22,0.087-0.251l1.279-0.341l0.042-0.01c0.135,0,0.22,0.174,0.115,0.28
				L9.215,5.896z"/>
			<path fill="#004385" d="M7.488,4.158l0.927-0.934c0.032-0.031,0.071-0.043,0.114-0.043c0.096,0,0.19,0.089,0.158,0.207
				L8.343,4.655c-0.022,0.076-0.09,0.121-0.157,0.121L8.093,4.742c-0.174-0.126-0.359-0.236-0.56-0.32
				C7.428,4.377,7.407,4.234,7.488,4.158z"/>
			<path fill="#004385" d="M7.026,4.26c-0.179-0.039-0.369-0.057-0.56-0.057c-0.19,0-0.381,0.018-0.559,0.057L6.31,2.749
				C6.331,2.668,6.398,2.63,6.466,2.63c0.069,0,0.136,0.038,0.157,0.119L7.026,4.26z"/>
			<path fill="#004385" d="M4.839,4.742L4.746,4.776c-0.067,0-0.136-0.045-0.158-0.121L4.246,3.389
				c-0.035-0.118,0.06-0.207,0.156-0.207c0.044,0,0.081,0.012,0.115,0.043l0.928,0.934c0.08,0.076,0.058,0.219-0.042,0.264
				C5.198,4.506,5.011,4.616,4.839,4.742z"/>
		</g>
	</g>
</g>
</svg>
