<svg xmlns="http://www.w3.org/2000/svg" viewBox="-1.5 -6.887 34 34">
<path id="Japan" fill="#004385" d="M-0.5-0.5v21.227h32V-0.5H-0.5z M30.073,19.298H0.928V0.93h29.146L30.073,19.298L30.073,19.298z
	 M15.501,16.26c3.39,0,6.147-2.758,6.147-6.147s-2.76-6.146-6.147-6.146c-3.39,0-6.147,2.758-6.147,6.146
	C9.354,13.503,12.111,16.26,15.501,16.26z M15.501,5.395c2.603,0,4.718,2.115,4.718,4.719c0,2.601-2.115,4.718-4.718,4.718
	c-2.603,0-4.72-2.117-4.72-4.718C10.781,7.51,12.898,5.395,15.501,5.395z"/>
</svg>
