<svg xmlns="http://www.w3.org/2000/svg" viewBox="-4.612 -1.5 34 34">
<g>
	<path fill="#004385" d="M23.791,12.817H21.76V8.419C21.76,3.77,17.787,0,12.888,0C7.989,0,4.016,3.77,4.016,8.419v4.398H2.029
		C0.926,12.817,0,13.696,0,14.743v15.33C0,31.12,0.926,32,2.029,32h21.717c1.104,0,2.029-0.88,2.029-1.927v-15.33
		C25.82,13.696,24.893,12.817,23.791,12.817z M8.121,8.419c0-2.513,2.162-4.564,4.812-4.564c2.648,0,4.811,2.052,4.811,4.564v4.398
		H8.121V8.419z M23.393,28.732c0,0.545-0.441,0.963-1.017,0.963H3.486c-0.573,0-1.016-0.418-1.016-0.963V16.084
		c0-0.544,0.441-0.964,1.016-0.964h18.891c0.574,0,1.017,0.42,1.017,0.964V28.732L23.393,28.732z"/>
	<g>
		<path fill="#004385" d="M14.059,26.221h-2.341c-0.484,0-0.883-0.378-0.883-0.839v-5.946c0-0.461,0.397-0.838,0.883-0.838h2.341
			c0.483,0,0.883,0.377,0.883,0.838v5.988C14.941,25.843,14.543,26.221,14.059,26.221z"/>
	</g>
</g>
</svg>
