<svg xmlns="http://www.w3.org/2000/svg" width="50" height="50" viewBox="0 0 50 50">
  <g fill="#004385" fill-rule="evenodd" stroke="#004385">
    <path fill-rule="nonzero" d="M24.9866089 1.00010433c-.4720242.00738954-.8492172.39504925-.8436748.8670861v7.74686135c-7.8252352.43233016-14.09429892 6.70122172-14.52659235 14.52620222h-7.7470694c-.30908864-.0043712-.5965874.1580175-.75240737.4249841-.15581997.2669667-.15581997.5971502 0 .8641169s.44331873.4293553.75240736.4249841h7.7470694c.4331668 7.8243051 6.70192116 14.093959 14.52659236 14.5262016v7.7502103c-.0043713.3090803.1580217.5965714.4249955.7523872.2669739.1558157.5971663.1558157.8641401 0 .2669738-.1558158.4293668-.4433069.4249956-.7523872v-7.7502103c7.8246712-.4322426 14.0934255-6.7018965 14.5265916-14.5262016h7.7470708c.3090886.0043712.5965873-.1580174.7524073-.4249841.15582-.2669667.15582-.5971502 0-.8641169-.15582-.2669666-.4433187-.4293553-.7524073-.4249841h-7.7470708c-.4322919-7.8249805-6.7013565-14.09387206-14.5265916-14.52620222V1.86719042c.0027163-.2313703-.0882294-.45401025-.2521634-.61730956-.1639341-.1632993-.3869287-.25338415-.618293-.24977653zm.0133908 10.28451097c.0044635.0000349.0089272.0000349.0133908 0 7.5661596.007279 13.6815095 6.115837 13.6996587 13.6792035-.0008721.02231-.0008721.0446455 0 .0669556-.0182024 7.5678402-6.1406744 13.6792034-13.7130495 13.6792034-.0045116 0-.008881.0000052-.0133908 0-7.5672636-.007278-13.683283-6.117659-13.6996588-13.682551.0019037-.0211539.0030204-.0423712.0033479-.063608.01825-7.5678009 6.1373557-13.6792035 13.7097017-13.6792035z"/>
    <path d="M25.367666 31.6954012l-.1157887.0053847v1.6829066l-.0105262.1407208h-.5248604v-1.8426534l-.1154257-.0053848C21.4671475 31.5306285 21 29.2055036 21 27.8323983v-.3230836h.6101593v.3625716c0 2.0390165 1.0003563 3.1672962 2.972757 3.3550437l.1332114.0125643V24.431405l-.627219-.2117993c-1.9386441-.6630393-2.8039741-1.6642395-2.8039741-3.2451952 0-2.030401 1.2711349-3.3729928 3.3179452-3.5029442l.1136109-.0071796V16h.5248604l.0105262.0039488v1.4438247l.1139739.0064617c2.2457201.1252846 3.4036071 1.3088475 3.4431712 3.5208932h-.6127c-.0384753-1.9011675-1.0105196-2.9641125-2.8155893-3.0761148l-.1288558-.0078976v6.125665l.9371989.3090833c1.8188626.5994996 2.9451709 1.4046957 2.9451709 3.566125 0 2.2400462-1.4431845 3.6971533-3.7665811 3.8034119zm-.6515383-7.8548802v-5.9343278l-.1324855.0125644c-1.7085186.1615418-2.6881854 1.2460257-2.6881854 2.9759589 0 1.5464935.7386521 2.3778953 2.5491664 2.8693413l.2715045.0764632zm.6675092 7.4090248c1.8780274-.1518493 3.139725-1.476492 3.139725-3.2965296 0-1.9446043-1.0126974-2.6467727-2.6482582-3.1504241l-.6232264-.1895424v6.6469066l.1317596-.0104105z"/>
  </g>
</svg>