<svg id="Layer_1" data-name="Layer 1" xmlns="http://www.w3.org/2000/svg" viewBox="0 0 200 200"><defs><style>.cls-1,.cls-3,.cls-4{fill:#fff;}.cls-2{fill:#004385;}.cls-3,.cls-4{stroke:#004385;}.cls-3,.cls-4,.cls-5{stroke-miterlimit:10;}.cls-3{stroke-width:1.39px;}.cls-4{stroke-width:1.21px;}.cls-5{fill:none;stroke:#fff;stroke-width:1.43px;}</style></defs><title>dyp_icon</title><rect class="cls-1" x="1.43" y="1.43" width="197.14" height="197.14"/><path class="cls-2" d="M197.14,2.86V197.14H2.86V2.86H197.14M200,0H0V200H200V0Z"/><rect class="cls-2" x="0.54" y="0.54" width="198.92" height="27.49"/><path class="cls-2" d="M198.92,1.08V27.49H1.08V1.08H198.92M200,0H0V28.57H200V0Z"/><rect class="cls-3" x="37.27" y="43.98" width="124.99" height="29.51" rx="4.63" ry="4.63"/><path class="cls-2" d="M84.1,62.39l-2.94-7.82h0q.09,1,.09,2.41v5.41h-1V53.47h1.66l2.75,7.31h0l2.8-7.31h1.65v8.92H88V56.9q0-.92.09-2.33h0l-3,7.81Z"/><path class="cls-2" d="M95.49,62.39l-.21-1h-.05a2.81,2.81,0,0,1-1,.85,3.09,3.09,0,0,1-1.26.22A2.2,2.2,0,0,1,91.42,62a1.89,1.89,0,0,1-.56-1.46q0-2,3.22-2.14l1.14,0V58a1.64,1.64,0,0,0-.33-1.13,1.37,1.37,0,0,0-1.06-.36,3.15,3.15,0,0,0-1,.16,8.33,8.33,0,0,0-.89.35l-.33-.82a5,5,0,0,1,1.1-.42,4.76,4.76,0,0,1,1.18-.15,2.63,2.63,0,0,1,1.81.54,2.21,2.21,0,0,1,.59,1.71v4.56Zm-2.26-.76a2,2,0,0,0,1.45-.5,1.84,1.84,0,0,0,.53-1.41v-.6l-1,0a3.6,3.6,0,0,0-1.68.37,1.11,1.11,0,0,0-.53,1,1,1,0,0,0,.32.81A1.33,1.33,0,0,0,93.22,61.63Z"/><path class="cls-2" d="M101.48,55.57a3.76,3.76,0,0,1,.79.07l-.13,1a3.22,3.22,0,0,0-.73-.09,1.78,1.78,0,0,0-1,.29,2,2,0,0,0-.71.81,2.54,2.54,0,0,0-.26,1.14v3.58h-1.1v-6.7h.9l.12,1.23h0a2.91,2.91,0,0,1,.91-1A2.05,2.05,0,0,1,101.48,55.57Z"/><path class="cls-2" d="M104.61,58.94l.37-.48.43-.51,2.14-2.26h1.28l-2.71,2.86,2.9,3.84H107.7l-2.33-3.12-.76.67v2.46h-1.09v-9.5h1.09v5l0,1.09Z"/><path class="cls-2" d="M112.93,62.51a3.08,3.08,0,0,1-2.36-.91,3.52,3.52,0,0,1-.86-2.51,3.87,3.87,0,0,1,.8-2.57,2.67,2.67,0,0,1,2.16-1,2.6,2.6,0,0,1,2,.81,3.12,3.12,0,0,1,.75,2.21v.67h-4.59a2.57,2.57,0,0,0,.58,1.73,2,2,0,0,0,1.56.59,5.3,5.3,0,0,0,1-.09,5.91,5.91,0,0,0,1.13-.37v1a5.38,5.38,0,0,1-1,.34A6,6,0,0,1,112.93,62.51Zm-.27-6a1.59,1.59,0,0,0-1.24.51,2.37,2.37,0,0,0-.54,1.41h3.41a2.17,2.17,0,0,0-.44-1.43A1.48,1.48,0,0,0,112.65,56.46Z"/><path class="cls-2" d="M119.37,61.61a3.44,3.44,0,0,0,.5,0,2.31,2.31,0,0,0,.43-.1v.84a2.48,2.48,0,0,1-.47.13,3.3,3.3,0,0,1-.65.06q-2,0-2-2.07v-3.9h-.95V56l1-.44.44-1.43h.65v1.54h1.93v.85h-1.93v3.87a1.3,1.3,0,0,0,.28.89A1,1,0,0,0,119.37,61.61Z"/><rect class="cls-4" x="37.27" y="80.44" width="124.99" height="29.51" rx="4.63" ry="4.63"/><path class="cls-2" d="M82.16,94.3A4.49,4.49,0,0,1,81,97.67a4.77,4.77,0,0,1-3.46,1.17H75V89.92h2.75A4.42,4.42,0,0,1,81,91.06,4.34,4.34,0,0,1,82.16,94.3Zm-1.18,0a3.59,3.59,0,0,0-.84-2.58,3.36,3.36,0,0,0-2.53-.88H76.14v7h1.21Q81,97.88,81,94.33Z"/><path class="cls-2" d="M85,92.14v4.31a1.73,1.73,0,0,0,.36,1.21,1.46,1.46,0,0,0,1.13.39,1.83,1.83,0,0,0,1.5-.57,2.91,2.91,0,0,0,.47-1.85V92.14h1.1v6.7h-.9L88.53,98h-.06a2,2,0,0,1-.85.74,2.93,2.93,0,0,1-1.28.26,2.56,2.56,0,0,1-1.82-.58,2.45,2.45,0,0,1-.61-1.86V92.14Z"/><path class="cls-2" d="M94.84,92a3.77,3.77,0,0,1,.79.07l-.13,1a3.23,3.23,0,0,0-.73-.09,1.78,1.78,0,0,0-1,.29,2,2,0,0,0-.71.81,2.54,2.54,0,0,0-.26,1.14v3.58h-1.1v-6.7h.9l.12,1.23h0a2.89,2.89,0,0,1,.91-1A2,2,0,0,1,94.84,92Z"/><path class="cls-2" d="M100.89,98.84l-.21-1h-.05a2.81,2.81,0,0,1-1,.85,3.09,3.09,0,0,1-1.26.22,2.2,2.2,0,0,1-1.55-.52A1.89,1.89,0,0,1,96.26,97q0-2,3.22-2.14l1.14,0v-.4a1.64,1.64,0,0,0-.33-1.13,1.37,1.37,0,0,0-1.06-.36,3.15,3.15,0,0,0-1,.16,8.33,8.33,0,0,0-.89.35L97,92.6a5,5,0,0,1,1.1-.42A4.76,4.76,0,0,1,99.29,92a2.63,2.63,0,0,1,1.81.54,2.21,2.21,0,0,1,.59,1.71v4.56Zm-2.26-.76a2,2,0,0,0,1.45-.5,1.84,1.84,0,0,0,.53-1.41v-.6l-1,0a3.6,3.6,0,0,0-1.68.37,1.11,1.11,0,0,0-.53,1,1,1,0,0,0,.32.81A1.33,1.33,0,0,0,98.63,98.08Z"/><path class="cls-2" d="M106,98.07a3.44,3.44,0,0,0,.5,0,2.31,2.31,0,0,0,.43-.1v.84a2.48,2.48,0,0,1-.47.13,3.3,3.3,0,0,1-.65.06q-2,0-2-2.07V93h-.95v-.52l1-.44.44-1.43H105v1.54h1.93V93H105v3.87a1.3,1.3,0,0,0,.28.89A1,1,0,0,0,106,98.07Z"/><path class="cls-2" d="M108.19,90.33a.67.67,0,0,1,.19-.53.7.7,0,0,1,.91,1.06.69.69,0,0,1-.91,0A.69.69,0,0,1,108.19,90.33Zm1.18,8.51h-1.1v-6.7h1.1Z"/><path class="cls-2" d="M117.32,95.48a3.7,3.7,0,0,1-.83,2.56,2.93,2.93,0,0,1-2.3.92,3.05,3.05,0,0,1-1.61-.42,2.76,2.76,0,0,1-1.08-1.22,4.21,4.21,0,0,1-.38-1.84,3.69,3.69,0,0,1,.82-2.55,2.93,2.93,0,0,1,2.3-.91,2.87,2.87,0,0,1,2.25.93A3.65,3.65,0,0,1,117.32,95.48Zm-5.06,0a3.15,3.15,0,0,0,.5,1.92,2,2,0,0,0,2.93,0,3.13,3.13,0,0,0,.5-1.92,3,3,0,0,0-.5-1.9,1.76,1.76,0,0,0-1.47-.64Q112.26,92.94,112.26,95.48Z"/><path class="cls-2" d="M123.62,98.84V94.56a1.77,1.77,0,0,0-.36-1.22,1.46,1.46,0,0,0-1.14-.4,1.82,1.82,0,0,0-1.5.57,2.94,2.94,0,0,0-.47,1.86v3.47h-1.1v-6.7h.89l.16.92h.06a2.05,2.05,0,0,1,.87-.77,2.8,2.8,0,0,1,1.24-.27,2.49,2.49,0,0,1,1.83.6,2.54,2.54,0,0,1,.6,1.86v4.36Z"/><rect class="cls-3" x="37.27" y="116.89" width="124.99" height="29.51" rx="4.63" ry="4.63"/><path class="cls-2" d="M80.53,126.37h2.54a4.8,4.8,0,0,1,2.59.53,1.87,1.87,0,0,1,.8,1.68,2,2,0,0,1-.43,1.31,2.07,2.07,0,0,1-1.26.67v.06a2.56,2.56,0,0,1,1.52.71,2,2,0,0,1,.49,1.42,2.28,2.28,0,0,1-.82,1.87,3.5,3.5,0,0,1-2.28.67H80.53Zm1.12,3.8H83.3a2.71,2.71,0,0,0,1.53-.34,1.28,1.28,0,0,0,.48-1.12,1.15,1.15,0,0,0-.52-1.06,3.24,3.24,0,0,0-1.65-.32H81.65Zm0,.94v3.23h1.8a2.53,2.53,0,0,0,1.59-.42,1.51,1.51,0,0,0,.52-1.26,1.34,1.34,0,0,0-.55-1.18,2.9,2.9,0,0,0-1.65-.38Z"/><path class="cls-2" d="M92.64,135.3l-.21-1h0a2.82,2.82,0,0,1-1,.85,3.08,3.08,0,0,1-1.25.22,2.2,2.2,0,0,1-1.55-.52,1.89,1.89,0,0,1-.56-1.46q0-2,3.22-2.14l1.13,0v-.4a1.63,1.63,0,0,0-.33-1.13,1.36,1.36,0,0,0-1.05-.36,3.15,3.15,0,0,0-1,.16,8.19,8.19,0,0,0-.89.35l-.34-.82a5,5,0,0,1,1.1-.42,4.77,4.77,0,0,1,1.18-.15,2.62,2.62,0,0,1,1.81.54,2.2,2.2,0,0,1,.59,1.71v4.56Zm-2.27-.76a2,2,0,0,0,1.45-.5,1.85,1.85,0,0,0,.53-1.41V132l-1,0a3.6,3.6,0,0,0-1.68.37,1.11,1.11,0,0,0-.53,1,1,1,0,0,0,.32.81A1.32,1.32,0,0,0,90.37,134.53Z"/><path class="cls-2" d="M98.64,128.47a3.77,3.77,0,0,1,.79.07l-.13,1a3.23,3.23,0,0,0-.73-.09,1.79,1.79,0,0,0-1,.29,2,2,0,0,0-.71.81,2.52,2.52,0,0,0-.26,1.14v3.58h-1.1v-6.7h.9l.12,1.23h0a2.89,2.89,0,0,1,.91-1A2,2,0,0,1,98.64,128.47Z"/><path class="cls-2" d="M103.8,128.47a3.76,3.76,0,0,1,.79.07l-.13,1a3.22,3.22,0,0,0-.73-.09,1.78,1.78,0,0,0-1,.29,2,2,0,0,0-.71.81,2.54,2.54,0,0,0-.26,1.14v3.58h-1.1v-6.7h.9l.12,1.23h0a2.91,2.91,0,0,1,.91-1A2.05,2.05,0,0,1,103.8,128.47Z"/><path class="cls-2" d="M105.75,126.78a.67.67,0,0,1,.19-.53.7.7,0,0,1,.91,1.06.69.69,0,0,1-.91,0A.69.69,0,0,1,105.75,126.78Zm1.18,8.51h-1.1v-6.7h1.1Z"/><path class="cls-2" d="M111.91,135.42a3.09,3.09,0,0,1-2.36-.91,3.52,3.52,0,0,1-.86-2.51,3.87,3.87,0,0,1,.8-2.57,2.67,2.67,0,0,1,2.16-1,2.61,2.61,0,0,1,2,.81,3.13,3.13,0,0,1,.75,2.21v.67h-4.59a2.56,2.56,0,0,0,.58,1.73,2,2,0,0,0,1.56.59,5.32,5.32,0,0,0,1-.09,5.87,5.87,0,0,0,1.13-.37v1a5.32,5.32,0,0,1-1,.34A6,6,0,0,1,111.91,135.42Zm-.27-6a1.59,1.59,0,0,0-1.24.51,2.37,2.37,0,0,0-.54,1.41h3.41a2.17,2.17,0,0,0-.43-1.43A1.49,1.49,0,0,0,111.63,129.37Z"/><path class="cls-2" d="M119.23,128.47a3.77,3.77,0,0,1,.79.07l-.13,1a3.23,3.23,0,0,0-.73-.09,1.79,1.79,0,0,0-1,.29,2,2,0,0,0-.71.81,2.52,2.52,0,0,0-.26,1.14v3.58h-1.1v-6.7h.9l.12,1.23h0a2.89,2.89,0,0,1,.91-1A2,2,0,0,1,119.23,128.47Z"/><rect class="cls-3" x="37.27" y="153.35" width="124.99" height="29.51" rx="4.63" ry="4.63"/><path class="cls-2" d="M86.32,165.45a2.5,2.5,0,0,1-.93,2.1,4.19,4.19,0,0,1-2.63.73h-1v3.47H80.61v-8.92H83Q86.32,162.83,86.32,165.45Zm-4.59,1.86h.9a3.36,3.36,0,0,0,1.93-.43,1.59,1.59,0,0,0,.6-1.38,1.52,1.52,0,0,0-.56-1.29,2.84,2.84,0,0,0-1.73-.43H81.73Z"/><path class="cls-2" d="M92.15,171.75l-.21-1h0a2.82,2.82,0,0,1-1,.85,3.09,3.09,0,0,1-1.25.22,2.2,2.2,0,0,1-1.55-.52,1.89,1.89,0,0,1-.56-1.46q0-2,3.22-2.14l1.13,0v-.4a1.64,1.64,0,0,0-.33-1.13,1.36,1.36,0,0,0-1.06-.36,3.15,3.15,0,0,0-1,.16,8.19,8.19,0,0,0-.89.35l-.33-.82a5,5,0,0,1,1.1-.42,4.76,4.76,0,0,1,1.18-.15,2.62,2.62,0,0,1,1.81.54,2.2,2.2,0,0,1,.59,1.71v4.56ZM89.89,171a2,2,0,0,0,1.45-.5,1.85,1.85,0,0,0,.53-1.41v-.6l-1,0a3.6,3.6,0,0,0-1.68.37,1.11,1.11,0,0,0-.53,1,1,1,0,0,0,.32.81A1.32,1.32,0,0,0,89.89,171Z"/><path class="cls-2" d="M94,165.05h1.18l1.45,3.81a12.5,12.5,0,0,1,.56,1.82h0c0-.15.12-.43.25-.85s.24-.74.33-1l1.36-3.8h1.18l-2.89,7.63a3.79,3.79,0,0,1-1,1.59,2.17,2.17,0,0,1-1.43.48,4.06,4.06,0,0,1-.91-.1v-.87a3.18,3.18,0,0,0,.73.07,1.39,1.39,0,0,0,.89-.29,2,2,0,0,0,.6-.89l.35-.89Z"/><path class="cls-2" d="M107.22,168.39a3.7,3.7,0,0,1-.83,2.56,2.93,2.93,0,0,1-2.29.92,3.06,3.06,0,0,1-1.61-.42,2.78,2.78,0,0,1-1.08-1.22,4.23,4.23,0,0,1-.38-1.84,3.68,3.68,0,0,1,.82-2.55,2.92,2.92,0,0,1,2.29-.91,2.87,2.87,0,0,1,2.25.93A3.65,3.65,0,0,1,107.22,168.39Zm-5.06,0a3.15,3.15,0,0,0,.5,1.92,2,2,0,0,0,2.93,0,3.12,3.12,0,0,0,.5-1.92,3,3,0,0,0-.51-1.9,1.76,1.76,0,0,0-1.47-.64Q102.16,165.85,102.16,168.39Z"/><path class="cls-2" d="M110,165.05v4.31a1.73,1.73,0,0,0,.36,1.21,1.46,1.46,0,0,0,1.12.39,1.83,1.83,0,0,0,1.5-.57,2.91,2.91,0,0,0,.47-1.85v-3.49h1.1v6.7h-.9l-.16-.89h-.05a2,2,0,0,1-.85.74,2.94,2.94,0,0,1-1.28.26,2.56,2.56,0,0,1-1.82-.58,2.45,2.45,0,0,1-.61-1.86v-4.39Z"/><path class="cls-2" d="M118.92,171a3.46,3.46,0,0,0,.5,0,2.29,2.29,0,0,0,.43-.1v.84a2.44,2.44,0,0,1-.47.13,3.34,3.34,0,0,1-.65.06q-2,0-2-2.07v-3.9h-.95v-.52l1-.44.44-1.43h.65v1.54h1.94v.85h-1.94v3.87a1.29,1.29,0,0,0,.28.89A1,1,0,0,0,118.92,171Z"/><rect class="cls-1" x="1.43" y="1.43" width="197.14" height="197.14"/><path class="cls-2" d="M197.14,2.86V197.14H2.86V2.86H197.14M200,0H0V200H200V0Z"/><rect class="cls-2" x="0.54" y="0.54" width="198.92" height="27.49"/><path class="cls-2" d="M198.92,1.08V27.49H1.08V1.08H198.92M200,0H0V28.57H200V0Z"/><rect class="cls-3" x="37.27" y="43.98" width="124.99" height="29.51" rx="4.63" ry="4.63"/><path class="cls-2" d="M84.1,62.39l-2.94-7.82h0q.09,1,.09,2.41v5.41h-1V53.47h1.66l2.75,7.31h0l2.8-7.31h1.65v8.92H88V56.9q0-.92.09-2.33h0l-3,7.81Z"/><path class="cls-2" d="M95.49,62.39l-.21-1h-.05a2.81,2.81,0,0,1-1,.85,3.09,3.09,0,0,1-1.26.22A2.2,2.2,0,0,1,91.42,62a1.89,1.89,0,0,1-.56-1.46q0-2,3.22-2.14l1.14,0V58a1.64,1.64,0,0,0-.33-1.13,1.37,1.37,0,0,0-1.06-.36,3.15,3.15,0,0,0-1,.16,8.33,8.33,0,0,0-.89.35l-.33-.82a5,5,0,0,1,1.1-.42,4.76,4.76,0,0,1,1.18-.15,2.63,2.63,0,0,1,1.81.54,2.21,2.21,0,0,1,.59,1.71v4.56Zm-2.26-.76a2,2,0,0,0,1.45-.5,1.84,1.84,0,0,0,.53-1.41v-.6l-1,0a3.6,3.6,0,0,0-1.68.37,1.11,1.11,0,0,0-.53,1,1,1,0,0,0,.32.81A1.33,1.33,0,0,0,93.22,61.63Z"/><path class="cls-2" d="M101.48,55.57a3.76,3.76,0,0,1,.79.07l-.13,1a3.22,3.22,0,0,0-.73-.09,1.78,1.78,0,0,0-1,.29,2,2,0,0,0-.71.81,2.54,2.54,0,0,0-.26,1.14v3.58h-1.1v-6.7h.9l.12,1.23h0a2.91,2.91,0,0,1,.91-1A2.05,2.05,0,0,1,101.48,55.57Z"/><path class="cls-2" d="M104.61,58.94l.37-.48.43-.51,2.14-2.26h1.28l-2.71,2.86,2.9,3.84H107.7l-2.33-3.12-.76.67v2.46h-1.09v-9.5h1.09v5l0,1.09Z"/><path class="cls-2" d="M112.93,62.51a3.08,3.08,0,0,1-2.36-.91,3.52,3.52,0,0,1-.86-2.51,3.87,3.87,0,0,1,.8-2.57,2.67,2.67,0,0,1,2.16-1,2.6,2.6,0,0,1,2,.81,3.12,3.12,0,0,1,.75,2.21v.67h-4.59a2.57,2.57,0,0,0,.58,1.73,2,2,0,0,0,1.56.59,5.3,5.3,0,0,0,1-.09,5.91,5.91,0,0,0,1.13-.37v1a5.38,5.38,0,0,1-1,.34A6,6,0,0,1,112.93,62.51Zm-.27-6a1.59,1.59,0,0,0-1.24.51,2.37,2.37,0,0,0-.54,1.41h3.41a2.17,2.17,0,0,0-.44-1.43A1.48,1.48,0,0,0,112.65,56.46Z"/><path class="cls-2" d="M119.37,61.61a3.44,3.44,0,0,0,.5,0,2.31,2.31,0,0,0,.43-.1v.84a2.48,2.48,0,0,1-.47.13,3.3,3.3,0,0,1-.65.06q-2,0-2-2.07v-3.9h-.95V56l1-.44.44-1.43h.65v1.54h1.93v.85h-1.93v3.87a1.3,1.3,0,0,0,.28.89A1,1,0,0,0,119.37,61.61Z"/><rect class="cls-4" x="37.27" y="80.44" width="124.99" height="29.51" rx="4.63" ry="4.63"/><path class="cls-2" d="M82.16,94.3A4.49,4.49,0,0,1,81,97.67a4.77,4.77,0,0,1-3.46,1.17H75V89.92h2.75A4.42,4.42,0,0,1,81,91.06,4.34,4.34,0,0,1,82.16,94.3Zm-1.18,0a3.59,3.59,0,0,0-.84-2.58,3.36,3.36,0,0,0-2.53-.88H76.14v7h1.21Q81,97.88,81,94.33Z"/><path class="cls-2" d="M85,92.14v4.31a1.73,1.73,0,0,0,.36,1.21,1.46,1.46,0,0,0,1.13.39,1.83,1.83,0,0,0,1.5-.57,2.91,2.91,0,0,0,.47-1.85V92.14h1.1v6.7h-.9L88.53,98h-.06a2,2,0,0,1-.85.74,2.93,2.93,0,0,1-1.28.26,2.56,2.56,0,0,1-1.82-.58,2.45,2.45,0,0,1-.61-1.86V92.14Z"/><path class="cls-2" d="M94.84,92a3.77,3.77,0,0,1,.79.07l-.13,1a3.23,3.23,0,0,0-.73-.09,1.78,1.78,0,0,0-1,.29,2,2,0,0,0-.71.81,2.54,2.54,0,0,0-.26,1.14v3.58h-1.1v-6.7h.9l.12,1.23h0a2.89,2.89,0,0,1,.91-1A2,2,0,0,1,94.84,92Z"/><path class="cls-2" d="M100.89,98.84l-.21-1h-.05a2.81,2.81,0,0,1-1,.85,3.09,3.09,0,0,1-1.26.22,2.2,2.2,0,0,1-1.55-.52A1.89,1.89,0,0,1,96.26,97q0-2,3.22-2.14l1.14,0v-.4a1.64,1.64,0,0,0-.33-1.13,1.37,1.37,0,0,0-1.06-.36,3.15,3.15,0,0,0-1,.16,8.33,8.33,0,0,0-.89.35L97,92.6a5,5,0,0,1,1.1-.42A4.76,4.76,0,0,1,99.29,92a2.63,2.63,0,0,1,1.81.54,2.21,2.21,0,0,1,.59,1.71v4.56Zm-2.26-.76a2,2,0,0,0,1.45-.5,1.84,1.84,0,0,0,.53-1.41v-.6l-1,0a3.6,3.6,0,0,0-1.68.37,1.11,1.11,0,0,0-.53,1,1,1,0,0,0,.32.81A1.33,1.33,0,0,0,98.63,98.08Z"/><path class="cls-2" d="M106,98.07a3.44,3.44,0,0,0,.5,0,2.31,2.31,0,0,0,.43-.1v.84a2.48,2.48,0,0,1-.47.13,3.3,3.3,0,0,1-.65.06q-2,0-2-2.07V93h-.95v-.52l1-.44.44-1.43H105v1.54h1.93V93H105v3.87a1.3,1.3,0,0,0,.28.89A1,1,0,0,0,106,98.07Z"/><path class="cls-2" d="M108.19,90.33a.67.67,0,0,1,.19-.53.7.7,0,0,1,.91,1.06.69.69,0,0,1-.91,0A.69.69,0,0,1,108.19,90.33Zm1.18,8.51h-1.1v-6.7h1.1Z"/><path class="cls-2" d="M117.32,95.48a3.7,3.7,0,0,1-.83,2.56,2.93,2.93,0,0,1-2.3.92,3.05,3.05,0,0,1-1.61-.42,2.76,2.76,0,0,1-1.08-1.22,4.21,4.21,0,0,1-.38-1.84,3.69,3.69,0,0,1,.82-2.55,2.93,2.93,0,0,1,2.3-.91,2.87,2.87,0,0,1,2.25.93A3.65,3.65,0,0,1,117.32,95.48Zm-5.06,0a3.15,3.15,0,0,0,.5,1.92,2,2,0,0,0,2.93,0,3.13,3.13,0,0,0,.5-1.92,3,3,0,0,0-.5-1.9,1.76,1.76,0,0,0-1.47-.64Q112.26,92.94,112.26,95.48Z"/><path class="cls-2" d="M123.62,98.84V94.56a1.77,1.77,0,0,0-.36-1.22,1.46,1.46,0,0,0-1.14-.4,1.82,1.82,0,0,0-1.5.57,2.94,2.94,0,0,0-.47,1.86v3.47h-1.1v-6.7h.89l.16.92h.06a2.05,2.05,0,0,1,.87-.77,2.8,2.8,0,0,1,1.24-.27,2.49,2.49,0,0,1,1.83.6,2.54,2.54,0,0,1,.6,1.86v4.36Z"/><rect class="cls-3" x="37.27" y="116.89" width="124.99" height="29.51" rx="4.63" ry="4.63"/><path class="cls-2" d="M80.53,126.37h2.54a4.8,4.8,0,0,1,2.59.53,1.87,1.87,0,0,1,.8,1.68,2,2,0,0,1-.43,1.31,2.07,2.07,0,0,1-1.26.67v.06a2.56,2.56,0,0,1,1.52.71,2,2,0,0,1,.49,1.42,2.28,2.28,0,0,1-.82,1.87,3.5,3.5,0,0,1-2.28.67H80.53Zm1.12,3.8H83.3a2.71,2.71,0,0,0,1.53-.34,1.28,1.28,0,0,0,.48-1.12,1.15,1.15,0,0,0-.52-1.06,3.24,3.24,0,0,0-1.65-.32H81.65Zm0,.94v3.23h1.8a2.53,2.53,0,0,0,1.59-.42,1.51,1.51,0,0,0,.52-1.26,1.34,1.34,0,0,0-.55-1.18,2.9,2.9,0,0,0-1.65-.38Z"/><path class="cls-2" d="M92.64,135.3l-.21-1h0a2.82,2.82,0,0,1-1,.85,3.08,3.08,0,0,1-1.25.22,2.2,2.2,0,0,1-1.55-.52,1.89,1.89,0,0,1-.56-1.46q0-2,3.22-2.14l1.13,0v-.4a1.63,1.63,0,0,0-.33-1.13,1.36,1.36,0,0,0-1.05-.36,3.15,3.15,0,0,0-1,.16,8.19,8.19,0,0,0-.89.35l-.34-.82a5,5,0,0,1,1.1-.42,4.77,4.77,0,0,1,1.18-.15,2.62,2.62,0,0,1,1.81.54,2.2,2.2,0,0,1,.59,1.71v4.56Zm-2.27-.76a2,2,0,0,0,1.45-.5,1.85,1.85,0,0,0,.53-1.41V132l-1,0a3.6,3.6,0,0,0-1.68.37,1.11,1.11,0,0,0-.53,1,1,1,0,0,0,.32.81A1.32,1.32,0,0,0,90.37,134.53Z"/><path class="cls-2" d="M98.64,128.47a3.77,3.77,0,0,1,.79.07l-.13,1a3.23,3.23,0,0,0-.73-.09,1.79,1.79,0,0,0-1,.29,2,2,0,0,0-.71.81,2.52,2.52,0,0,0-.26,1.14v3.58h-1.1v-6.7h.9l.12,1.23h0a2.89,2.89,0,0,1,.91-1A2,2,0,0,1,98.64,128.47Z"/><path class="cls-2" d="M103.8,128.47a3.76,3.76,0,0,1,.79.07l-.13,1a3.22,3.22,0,0,0-.73-.09,1.78,1.78,0,0,0-1,.29,2,2,0,0,0-.71.81,2.54,2.54,0,0,0-.26,1.14v3.58h-1.1v-6.7h.9l.12,1.23h0a2.91,2.91,0,0,1,.91-1A2.05,2.05,0,0,1,103.8,128.47Z"/><path class="cls-2" d="M105.75,126.78a.67.67,0,0,1,.19-.53.7.7,0,0,1,.91,1.06.69.69,0,0,1-.91,0A.69.69,0,0,1,105.75,126.78Zm1.18,8.51h-1.1v-6.7h1.1Z"/><path class="cls-2" d="M111.91,135.42a3.09,3.09,0,0,1-2.36-.91,3.52,3.52,0,0,1-.86-2.51,3.87,3.87,0,0,1,.8-2.57,2.67,2.67,0,0,1,2.16-1,2.61,2.61,0,0,1,2,.81,3.13,3.13,0,0,1,.75,2.21v.67h-4.59a2.56,2.56,0,0,0,.58,1.73,2,2,0,0,0,1.56.59,5.32,5.32,0,0,0,1-.09,5.87,5.87,0,0,0,1.13-.37v1a5.32,5.32,0,0,1-1,.34A6,6,0,0,1,111.91,135.42Zm-.27-6a1.59,1.59,0,0,0-1.24.51,2.37,2.37,0,0,0-.54,1.41h3.41a2.17,2.17,0,0,0-.43-1.43A1.49,1.49,0,0,0,111.63,129.37Z"/><path class="cls-2" d="M119.23,128.47a3.77,3.77,0,0,1,.79.07l-.13,1a3.23,3.23,0,0,0-.73-.09,1.79,1.79,0,0,0-1,.29,2,2,0,0,0-.71.81,2.52,2.52,0,0,0-.26,1.14v3.58h-1.1v-6.7h.9l.12,1.23h0a2.89,2.89,0,0,1,.91-1A2,2,0,0,1,119.23,128.47Z"/><rect class="cls-3" x="37.27" y="153.35" width="124.99" height="29.51" rx="4.63" ry="4.63"/><path class="cls-2" d="M86.32,165.45a2.5,2.5,0,0,1-.93,2.1,4.19,4.19,0,0,1-2.63.73h-1v3.47H80.61v-8.92H83Q86.32,162.83,86.32,165.45Zm-4.59,1.86h.9a3.36,3.36,0,0,0,1.93-.43,1.59,1.59,0,0,0,.6-1.38,1.52,1.52,0,0,0-.56-1.29,2.84,2.84,0,0,0-1.73-.43H81.73Z"/><path class="cls-2" d="M92.15,171.75l-.21-1h0a2.82,2.82,0,0,1-1,.85,3.09,3.09,0,0,1-1.25.22,2.2,2.2,0,0,1-1.55-.52,1.89,1.89,0,0,1-.56-1.46q0-2,3.22-2.14l1.13,0v-.4a1.64,1.64,0,0,0-.33-1.13,1.36,1.36,0,0,0-1.06-.36,3.15,3.15,0,0,0-1,.16,8.19,8.19,0,0,0-.89.35l-.33-.82a5,5,0,0,1,1.1-.42,4.76,4.76,0,0,1,1.18-.15,2.62,2.62,0,0,1,1.81.54,2.2,2.2,0,0,1,.59,1.71v4.56ZM89.89,171a2,2,0,0,0,1.45-.5,1.85,1.85,0,0,0,.53-1.41v-.6l-1,0a3.6,3.6,0,0,0-1.68.37,1.11,1.11,0,0,0-.53,1,1,1,0,0,0,.32.81A1.32,1.32,0,0,0,89.89,171Z"/><path class="cls-2" d="M94,165.05h1.18l1.45,3.81a12.5,12.5,0,0,1,.56,1.82h0c0-.15.12-.43.25-.85s.24-.74.33-1l1.36-3.8h1.18l-2.89,7.63a3.79,3.79,0,0,1-1,1.59,2.17,2.17,0,0,1-1.43.48,4.06,4.06,0,0,1-.91-.1v-.87a3.18,3.18,0,0,0,.73.07,1.39,1.39,0,0,0,.89-.29,2,2,0,0,0,.6-.89l.35-.89Z"/><path class="cls-2" d="M107.22,168.39a3.7,3.7,0,0,1-.83,2.56,2.93,2.93,0,0,1-2.29.92,3.06,3.06,0,0,1-1.61-.42,2.78,2.78,0,0,1-1.08-1.22,4.23,4.23,0,0,1-.38-1.84,3.68,3.68,0,0,1,.82-2.55,2.92,2.92,0,0,1,2.29-.91,2.87,2.87,0,0,1,2.25.93A3.65,3.65,0,0,1,107.22,168.39Zm-5.06,0a3.15,3.15,0,0,0,.5,1.92,2,2,0,0,0,2.93,0,3.12,3.12,0,0,0,.5-1.92,3,3,0,0,0-.51-1.9,1.76,1.76,0,0,0-1.47-.64Q102.16,165.85,102.16,168.39Z"/><path class="cls-2" d="M110,165.05v4.31a1.73,1.73,0,0,0,.36,1.21,1.46,1.46,0,0,0,1.12.39,1.83,1.83,0,0,0,1.5-.57,2.91,2.91,0,0,0,.47-1.85v-3.49h1.1v6.7h-.9l-.16-.89h-.05a2,2,0,0,1-.85.74,2.94,2.94,0,0,1-1.28.26,2.56,2.56,0,0,1-1.82-.58,2.45,2.45,0,0,1-.61-1.86v-4.39Z"/><path class="cls-2" d="M118.92,171a3.46,3.46,0,0,0,.5,0,2.29,2.29,0,0,0,.43-.1v.84a2.44,2.44,0,0,1-.47.13,3.34,3.34,0,0,1-.65.06q-2,0-2-2.07v-3.9h-.95v-.52l1-.44.44-1.43h.65v1.54h1.94v.85h-1.94v3.87a1.29,1.29,0,0,0,.28.89A1,1,0,0,0,118.92,171Z"/><path class="cls-2" d="M160,70.89a12.32,12.32,0,1,1,12.32-12.32A12.33,12.33,0,0,1,160,70.89Z"/><path class="cls-2" d="M160,46.79a11.78,11.78,0,1,1-11.78,11.78A11.79,11.79,0,0,1,160,46.79m0-1.08a12.86,12.86,0,1,0,12.86,12.86A12.86,12.86,0,0,0,160,45.71Z"/><polyline class="cls-5" points="153.57 58.57 157.86 62.86 166.43 54.29"/><path class="cls-2" d="M160,108a12.32,12.32,0,1,1,12.32-12.32A12.33,12.33,0,0,1,160,108Z"/><path class="cls-2" d="M160,83.94a11.78,11.78,0,1,1-11.78,11.78A11.79,11.79,0,0,1,160,83.94m0-1.08a12.86,12.86,0,1,0,12.86,12.86A12.86,12.86,0,0,0,160,82.86Z"/><polyline class="cls-5" points="153.57 95.71 157.86 100 166.43 91.43"/><path class="cls-2" d="M160,143.75a12.32,12.32,0,1,1,12.32-12.32A12.33,12.33,0,0,1,160,143.75Z"/><path class="cls-2" d="M160,119.65a11.78,11.78,0,1,1-11.78,11.78A11.79,11.79,0,0,1,160,119.65m0-1.08a12.86,12.86,0,1,0,12.86,12.86A12.86,12.86,0,0,0,160,118.57Z"/><polyline class="cls-5" points="153.57 131.43 157.86 135.71 166.43 127.14"/><path class="cls-2" d="M160,180.89a12.32,12.32,0,1,1,12.32-12.32A12.33,12.33,0,0,1,160,180.89Z"/><path class="cls-2" d="M160,156.79a11.78,11.78,0,1,1-11.78,11.78A11.79,11.79,0,0,1,160,156.79m0-1.08a12.86,12.86,0,1,0,12.86,12.86A12.86,12.86,0,0,0,160,155.71Z"/><polyline class="cls-5" points="153.57 168.57 157.86 172.86 166.43 164.29"/></svg>