<svg xmlns="http://www.w3.org/2000/svg" width="86" height="48" viewBox="0 0 86 48">
  <g fill="#004385" fill-rule="evenodd">
    <path d="M5.08642032 45.0356073h4.22863006c.39302846 0 .76994202.1561329 1.04784602.4340369.2779039.2779039.4340368.6548175.4340368 1.0478459v.0006271c0 .3930284-.1561329.769942-.4340368 1.0478459C10.0849924 47.8438671 9.70807884 48 9.31505038 48H1.43799005c-.38136552 0-.74711775-.1514928-1.0168075-.4211825C.15149277 47.3091277 0 46.9433755 0 46.5620099v-7.8770603c0-.3930284.15607017-.769942.43403685-1.047846.27790398-.2779039.65481752-.4340368 1.04784598-.4340368h.00062704c.39302846 0 .769942.1561329 1.04784598.4340368.27790397.277904.43403685.6548176.43403685 1.047846v4.2286301s3.6236622-3.6236622 5.47424434-5.4742444c.58578045-.5857804 1.53555743-.5857804 2.12133786 0 .0002508.0001881.0004389.000439.0006898.0006898.5857804.5857804.5857804 1.5355574 0 2.1213379-1.8505822 1.8505821-5.47424438 5.4742443-5.47424438 5.4742443zM80.9135387 2.9644385h-4.2285493c-.3930267 0-.7699387-.15613198-1.0478414-.43403438-.2779655-.2779024-.4340978-.65487648-.4340978-1.0479027V1.4819371c0-.39302623.1561323-.77000033.4340978-1.04790272C75.9150507.15613198 76.2919627 0 76.6849894 0h7.876964c.3814266 0 .7471773.15149192 1.0168659.42118014v.0000627C85.8485079.69086836 86 1.0566812 86 1.43804456v7.87695272c0 .39302622-.1561322.77000032-.434035 1.04790272s-.6548147.4340344-1.0478415.4340344h-.000627c-.3930268 0-.7699387-.156132-1.0478415-.4340344-.2779028-.2779024-.434035-.6548765-.434035-1.04790272V5.08645403s-3.6236467 3.62364154-5.474221 5.47421317c-.5857779.5857771-1.5355508.5857771-2.1213288 0-.0002508-.0002508-.0005016-.0005017-.0006897-.0006898-.5858407-.58577708-.5858407-1.53554864 0-2.12132576 1.8505742-1.8505716 5.4741582-5.47421314 5.4741582-5.47421314z"/>
    <path fill-rule="nonzero" d="M41.6124402 36.2120141c0-.6784452-.507177-1.2720848-1.1834131-1.2720848-.5917065 0-1.1834131.508834-1.1834131 1.1872792 0 .6784452.5071771 1.1872791 1.0988836 1.1872791.6762361.0848057 1.2679426-.5088339 1.2679426-1.1024735zM62.4912281 15.434629v15.0106007H18.4513557V6.69964664c0-1.4416961 1.183413-2.5441696 2.5358851-2.5441696h33.8118023c.676236 0 1.183413-.50883393 1.183413-1.18727916 0-.67844523-.507177-1.18727915-1.183413-1.18727915H20.9872408C18.1977671 1.78091873 16 3.98586573 16 6.7844523v29.6819788c0 2.7985866 2.1977671 5.0035336 4.9872408 5.0035336H39.076555v4.155477h-6.1706539c-.676236 0-1.1834131.5088339-1.1834131 1.1872791 0 .6784453.5071771 1.1872792 1.1834131 1.1872792h15.046252c.6762361 0 1.1834131-.5088339 1.1834131-1.1872792 0-.6784452-.507177-1.1872791-1.1834131-1.1872791h-6.1706539v-4.155477h18.0893142c2.7894737 0 4.9872408-2.204947 4.9872408-5.0035336V15.434629c0-.6784453-.507177-1.1872792-1.1834131-1.1872792-.5917065 0-1.183413.5088339-1.183413 1.1872792zm0 20.9469964c0 1.4416962-1.1834131 2.5441697-2.5358852 2.5441697H20.9872408c-1.4370016 0-2.5358851-1.1872792-2.5358851-2.5441697V32.819788h44.1244019v3.5618374h-.0845295zM67.1403509 0h-7.861244c-.5917066 0-1.0988836.50883392-1.0988836 1.1024735 0 .59363957.507177 1.1024735 1.0988836 1.1024735h6.0015949L49.0510367 18.0636042c-.5071771-.2544169-1.0143541-.3392226-1.6060606-.3392226-.5917066 0-1.0988836.1696113-1.6060606.3392226l-3.9728868-3.9858657c.2535885-.5088339.4226475-1.0176678.4226475-1.6113074 0-2.0353357-1.6905901-3.73144877-3.7192982-3.73144877s-3.7192983 1.69611307-3.7192983 3.73144877c0 .5936396.1690591 1.1024735.4226476 1.6113074l-3.2966507 3.3074205c-.5071771-.3392226-1.0988836-.5088339-1.7751197-.5088339-2.0287081 0-3.7192982 1.6961131-3.7192982 3.7314488 0 2.0353356 1.6905901 3.7314487 3.7192982 3.7314487 2.0287082 0 3.7192983-1.6961131 3.7192983-3.7314487 0-.6784453-.169059-1.1872792-.4226475-1.7809188l3.2121212-3.3074205c.5917065.3392226 1.183413.5936396 1.9441786.5936396.676236 0 1.3524721-.1696113 1.9441786-.5088339l3.8038278 3.9010601c-.338118.5936395-.5917066 1.2720848-.5917066 1.95053 0 2.0353357 1.6905901 3.7314488 3.7192983 3.7314488 2.0287081 0 3.7192982-1.6961131 3.7192982-3.7314488 0-.6784452-.2535885-1.3568905-.5917065-1.95053L66.8022329 3.6466431v6.1060071c0 .59363962.507177 1.10247352 1.0988835 1.10247352C68.492823 10.8551237 69 10.3462898 69 9.75265018V1.78091873C68.9154705.84805653 68.1547049 0 67.1403509 0zM30.1164274 22.2190813c-.9298245 0-1.6060606-.7632509-1.6060606-1.6113074 0-.8480566.7607656-1.6113075 1.6060606-1.6113075.8452951 0 1.6060606.7632509 1.6060606 1.6113075 0 .8480565-.676236 1.6113074-1.6060606 1.6113074zm8.4529506-8.2261484c-.9298246 0-1.6060606-.7632509-1.6060606-1.6113075 0-.8480565.7607655-1.6113074 1.6060606-1.6113074.845295 0 1.6060606.7632509 1.6060606 1.6113074 0 .8480566-.7607656 1.6113075-1.6060606 1.6113075zm8.8755981 9.0742049c-.9298246 0-1.6060606-.7632509-1.6060606-1.6113074 0-.8480565.7607655-1.6113074 1.6060606-1.6113074.845295 0 1.6060606.7632509 1.6060606 1.6113074 0 .8480565-.7607656 1.6113074-1.6060606 1.6113074z"/>
  </g>
</svg>