<svg xmlns="http://www.w3.org/2000/svg" width="50" height="48" viewBox="0 0 50 48">
  <path fill="#004385" d="M26.827857 48c-5.452857 0-10.588571-.3451319-14.462143-.971269-4.832143-.7817707-6.893571-1.8178871-6.893571-3.4678916v-7.3515266H7.8v7.1108709c.316429.2262452 1.595714.9244349 5.875 1.5325588 3.63.5151761 8.301429.7983428 13.152857.7983428 4.853572 0 9.524286-.2838872 13.154286-.7983428 4.28-.6081239 5.559286-1.3063136 5.875-1.5325588l.008571-7.1894082 2.327143.0021615-.007143 7.4293435c0 1.6478429-2.062143 2.6846798-6.894285 3.4664505C37.417857 47.6548681 32.280714 48 26.827857 48zm19.028572-4.4406016v.001441-.001441zm-19.028572-2.1291543c-5.460714 0-10.605714-.3934072-14.486428-1.1074485-4.750715-.875439-6.869286-2.0419706-6.869286-3.7842024 0-.9121859.615-1.6881924 1.827143-2.3078448l1.052143 2.0938486c-.158572.0814194-.277858.153472-.365715.2132756.479286.3271188 1.867857 1.0065748 5.610715 1.620463 3.638571.595875 8.337142.9244348 13.230714.9244348 4.895714 0 9.594286-.3285598 13.232143-.9244348 3.741428-.6138882 5.13-1.2933442 5.61-1.6197424-.462857-.3155904-1.771429-.9590201-5.224286-1.5548951l.393571-2.31505c5.080715.8783212 7.346429 2.0715122 7.346429 3.8699451 0 1.7422318-2.119286 2.9087634-6.869286 3.7842024-3.881428.7147618-9.026428 1.1074485-14.487857 1.1074485m-5.471428-4.1365397c-5.453572 0-10.589286-.3451319-14.462858-.971269C2.062143 35.5413852 0 34.5045483 0 32.8552643v-7.350806h2.327143v7.1101504c.317143.2262451 1.595714.9251553 5.875 1.5325587 3.630714.5151761 8.301428.7983428 13.154286.7983428 4.851428 0 9.523571-.2838872 13.154285-.7983428 4.28-.6074034 5.557857-1.3063136 5.875-1.5325587l.008572-7.1894083 2.327143.0028821-.008572 7.4279024c0 1.6485634-2.062143 2.6854003-6.892857 3.467171-3.873571.6261371-9.010714.9705485-14.463571.9705485zM40.385 32.8538233v.001441-.001441zm-19.028571-2.1284338c-5.461429 0-10.606429-.3941277-14.487143-1.1081689C2.118571 28.742502 0 27.5752499 0 25.8330181c0-1.6557687 2.047857-2.4433036 2.721429-2.7019724 1.341428-.5158966 3.207857-.9590201 5.547142-1.3178421l.35 2.3222553C4.505 24.7659191 3.016429 25.4914888 2.515 25.8322976c.48.3278393 1.868571 1.0072953 5.61 1.6211834 3.637857.5951545 8.337143.9237144 13.231429.9237144 4.893571 0 9.593571-.3285599 13.232142-.9237144 5.132858-.8415743 5.837143-1.8085202 5.842858-1.817887-.012858.0194542-.045715.0929478-.045715.1974241 0 .0713321.015.1282536.029286.1635594l1.683571-1.6074935c.507858.541115.613572 1.0843916.613572 1.4446546 0 1.7422319-2.117857 2.909484-6.869286 3.7842025-3.88.7133207-9.025 1.1074484-14.486428 1.1074484m7.279285-3.6393767c-5.453571 0-10.589285-.345132-14.462857-.971269-4.832143-.7817707-6.893571-1.8178871-6.893571-3.4678916v-7.3508061h2.327857v7.1108709c.316428.2262452 1.595714.9244349 5.875 1.5325588 3.63.5151761 8.301428.7983428 13.153571.7983428s9.522857-.2838872 13.152857-.7983428C46.07 23.3313519 47.347857 22.6331622 47.665 22.406917l.008571-7.1894082L50 15.2196704l-.008571 7.4293434c0 1.6478429-2.062143 2.6846798-6.894286 3.4664505-3.872857.6261371-9.007857.9705485-14.461429.9705485zm19.028572-4.4398811v.001441-.001441zm-19.028572-2.1291543c-5.461428 0-10.606428-.3934072-14.487143-1.1074484-4.75-.8754391-6.869285-2.0419707-6.869285-3.7842025 0-1.4936504 1.64-2.2336306 2.179285-2.4771683l.95 2.1435648c-.290714.1311357-.485714.2449788-.615.332883.48.3271188 1.867858 1.0065748 5.610715 1.6204629 3.637857.595875 8.337143.9244348 13.231428.9244348 4.894286 0 9.594286-.3285598 13.230715-.9244348 3.741428-.6138881 5.13-1.2933441 5.610714-1.6197424-.431429-.2925336-1.589286-.8675133-4.518572-1.4266415l.433572-2.3064036c4.563571.8718364 6.598571 2.0232369 6.598571 3.7337656 0 1.7422318-2.119285 2.9087634-6.869285 3.7842025-3.879286.7133207-9.024286 1.1067279-14.485715 1.1067279m-4.407857-4.1631991c-5.453571 0-10.589286-.345132-14.462857-.9712691-4.832143-.7817707-6.893571-1.817887-6.893571-3.4678915V4.5638116h2.327142v7.1101504c.317143.2262452 1.595715.9251554 5.875 1.5325588 3.630715.515176 8.301429.7983428 13.154286.7983428 4.851429 0 9.523572-.2838873 13.153572-.7983428 4.28-.6074034 5.557857-1.3063136 5.875-1.5325588L43.265 4.4845537l2.327143.0028821-.008572 7.4286229c0 1.6478429-2.060714 2.6846798-6.892857 3.4664505-3.873571.6261371-9.01.9712691-14.462857.9712691zm19.028572-4.4398812v.0014411-.0014411zM24.227857 9.7847429c-5.461428 0-10.607143-.3941278-14.487143-1.108169C4.99 7.8018554 2.871429 6.6346033 2.871429 4.8923714c0-1.7422318 2.118571-2.9094839 6.869285-3.7842024C13.621429.3941277 18.766429 0 24.227857 0 29.689286 0 34.834286.3941277 38.715 1.108169c4.75.8747185 6.867857 2.0419706 6.867857 3.7842024 0 1.7422319-2.117857 2.909484-6.867857 3.7842025-3.880714.7147618-9.026429 1.108169-14.487143 1.108169M5.385714 4.8923714c.48.3271188 1.868572 1.0065748 5.61 1.620463 3.637857.5951544 8.337143.9237143 13.231429.9237143 4.894286 0 9.593571-.3285599 13.231428-.9237143 3.741429-.6138882 5.13-1.2933442 5.61-1.620463-.48-.3271188-1.867857-1.0065748-5.61-1.6204629-3.638571-.5951545-8.337142-.9244348-13.231428-.9244348-4.894286 0-9.593572.3292803-13.231429.9244348-3.741428.6138881-5.13 1.2933441-5.61 1.6204629"/>
</svg>