<svg xmlns="http://www.w3.org/2000/svg" width="48" height="48" viewBox="0 0 48 48">
  <path fill="#004385" d="M21.331722 0C9.569488 0 0 9.5694851 0 21.3317219c0 11.7622155 9.569488 21.331722 21.331722 21.331722 4.103042 0 7.943617-1.1661476 11.199154-3.1830929v.5166277c-.00159.4005019.147077.7870373.416635 1.0832515l5.866224 6.3995165c.406962.4449794 1.029535.6233658 1.610397.4614285.580862-.1619374 1.021348-.6366917 1.139395-1.2280372l.866601-4.2830098 4.28301-.8666012c.591346-.1180471 1.0661-.5585327 1.228037-1.1393949.161938-.5808622-.016449-1.2034355-.461428-1.6103974l-6.399517-5.8662235c-.296214-.269558-.682749-.4182255-1.083251-.4166352h-.533293c2.018493-3.2550384 3.199758-7.095648 3.199758-11.1991541C42.663444 9.5694851 33.093956 0 21.331722 0zm0 3.1997583c10.032957 0 18.131964 8.0990042 18.131964 18.1319636 0 4.2291664-1.433653 8.1175575-3.84971 11.1991541h-.816605l-2.983108-2.983108c1.78413-2.2682521 2.849785-5.1176812 2.849785-8.2160461 0-7.3442878-5.988035-13.3323262-13.332326-13.3323262S7.999396 13.9874341 7.999396 21.3317219c0 7.3442719 5.988035 13.3323263 13.332326 13.3323263 3.103038 0 5.962823-1.0608015 8.232711-2.8497848l2.966443 2.9664426v.8332704c-3.081598 2.4160559-6.969989 3.8497092-11.199154 3.8497092-10.032957 0-18.131964-8.0990042-18.131964-18.1319637 0-10.0329594 8.099007-18.1319636 18.131964-18.1319636zm0 7.9993957c5.615013 0 10.132568 4.5175574 10.132568 10.1325679 0 2.2254037-.727276 4.2655632-1.933187 5.9328852l-3.483071-3.4830702c.386629-.7367284.61662-1.5666795.61662-2.449815 0-2.9263496-2.406584-5.3329304-5.33293-5.3329304s-5.332931 2.4065808-5.332931 5.3329304c0 2.9263657 2.406585 5.3329305 5.332931 5.3329305.888355 0 1.726577-.2257136 2.46648-.6166201l3.483071 3.4830703c-1.669254 1.2106605-3.719345 1.9331873-5.949551 1.9331873-5.615013 0-10.132568-4.5175521-10.132568-10.132568 0-5.6150105 4.517555-10.1325679 10.132568-10.1325679zm0 7.9993958c1.197068 0 2.133172.9360999 2.133172 2.1331721 0 1.197067-.936104 2.1331722-2.133172 2.1331722-1.197069 0-2.133172-.9361052-2.133172-2.1331722 0-1.1970722.936103-2.1331721 2.133172-2.1331721zm14.648893 16.5320845h3.383078l3.616394 3.3164161-2.233165.449966c-.629848.1278019-1.122104.6200578-1.249906 1.2499056l-.449966 2.2331646-3.316416-3.6163934v-3.3664124c.093239-.0790419.177113-.1685076.249981-.2666465z"/>
</svg>