<?xml version="1.0" encoding="utf-8"?>
<!-- Generator: Adobe Illustrator 21.0.2, SVG Export Plug-In . SVG Version: 6.00 Build 0)  -->
<svg version="1.1" id="Layer_1" xmlns="http://www.w3.org/2000/svg" xmlns:xlink="http://www.w3.org/1999/xlink" x="0px" y="0px"
	 viewBox="0 0 309.3 307.3" style="enable-background:new 0 0 309.3 307.3;" xml:space="preserve">
<style type="text/css">
	.st0{clip-path:url(#SVGID_3_);}
	.st1{clip-path:url(#SVGID_4_);}
	.st2{fill:none;}
	.st3{fill:#FFFFFF;}
	.st4{fill:#F1F1F1;}
	.st5{fill:#004384;}
	.st6{enable-background:new    ;}
	.st7{fill:none;stroke:#F1F1F1;stroke-miterlimit:10;}
	.st8{fill:#808080;}
	.st9{fill:none;stroke:#004384;stroke-width:2;stroke-miterlimit:10;}
	.st10{fill:none;stroke:#004384;stroke-width:0.76;stroke-miterlimit:10;}
	.st11{fill:none;stroke:#004385;}
</style>
<title>Artboard 1</title>
<g>
	<defs>
		<ellipse id="SVGID_1_" cx="154.6" cy="150.6" rx="145.6" ry="144.6"/>
	</defs>
	<defs>
		<ellipse id="SVGID_2_" cx="154.6" cy="150.6" rx="145.1" ry="144.1"/>
	</defs>
	<clipPath id="SVGID_3_">
		<use xlink:href="#SVGID_1_"  style="overflow:visible;"/>
	</clipPath>
	<clipPath id="SVGID_4_" class="st0">
		<use xlink:href="#SVGID_2_"  style="overflow:visible;"/>
	</clipPath>
	<g class="st1">
		<rect x="149.7" y="75" class="st2" width="435" height="492.4"/>
		<rect x="157.5" y="80.4" class="st3" width="419.5" height="476.9"/>
		<path class="st4" d="M576.4,81v475.7H158.1V81H576.4 M577.6,79.8H156.9v478.1h420.7V79.8z"/>
		<rect x="157.4" y="80.3" class="st5" width="419.7" height="40.9"/>
		<path class="st5" d="M576.6,80.8v40H157.8v-40H576.6 M577.6,79.8H156.9v41.8h420.7L577.6,79.8z"/>
		<g>
			<g class="st6">
				<path class="st3" d="M185.4,103.9h-5.7l-1.3,3.5h-1.9l5.2-13.5h1.6l5.1,13.5h-1.9L185.4,103.9z M180.3,102.4h4.5l-2.2-6.2h-0.1
					L180.3,102.4z"/>
				<path class="st3" d="M200.3,93.9v9.2c0,1.5-0.5,2.6-1.4,3.4c-1,0.8-2.2,1.2-3.7,1.2c-1.5,0-2.7-0.4-3.6-1.2
					c-0.9-0.8-1.4-1.9-1.4-3.4v-9.2h1.8v9.1c0,1,0.3,1.8,0.9,2.3c0.6,0.5,1.3,0.8,2.3,0.8c1,0,1.8-0.3,2.4-0.8
					c0.6-0.5,0.9-1.3,0.9-2.3v-9.1H200.3z"/>
				<path class="st3" d="M203.2,107.4V93.9h4.1c1.8,0,3.2,0.5,4.3,1.6c1.1,1.1,1.6,2.5,1.6,4.2v1.8c0,1.7-0.5,3.1-1.6,4.2
					c-1.1,1.1-2.5,1.6-4.3,1.6H203.2z M205.1,95.3v10.6h2.3c1.2,0,2.2-0.4,3-1.2c0.7-0.8,1.1-1.9,1.1-3.2v-1.9
					c0-1.3-0.4-2.3-1.1-3.1s-1.7-1.2-3-1.2H205.1z"/>
				<path class="st3" d="M215.8,108.5h-1.6l5.6-14.7h1.5L215.8,108.5z"/>
				<path class="st3" d="M229.1,93.9h1.8v9.8c0,1.2-0.4,2.2-1.1,2.9s-1.8,1.1-3,1.1c-1.3,0-2.3-0.3-3.1-1c-0.8-0.7-1.1-1.6-1.1-2.9
					l0-0.1h1.8c0,0.8,0.2,1.5,0.6,1.9c0.4,0.4,1,0.6,1.8,0.6c0.7,0,1.2-0.2,1.7-0.7c0.4-0.5,0.6-1.1,0.6-1.8V93.9z"/>
				<path class="st3" d="M236,102v5.4h-1.8V93.9h5.2c1.4,0,2.6,0.4,3.4,1.1c0.8,0.7,1.2,1.7,1.2,2.9c0,1.2-0.4,2.2-1.2,2.9
					c-0.8,0.7-1.9,1.1-3.4,1.1H236z M236,100.5h3.3c0.9,0,1.6-0.2,2-0.7c0.5-0.5,0.7-1.1,0.7-1.9s-0.2-1.4-0.7-1.9
					c-0.5-0.5-1.1-0.8-2-0.8H236V100.5z"/>
				<path class="st3" d="M250.4,100.7l3.5-6.9h2.1l-4.7,8.8v4.8h-1.8v-4.9l-4.7-8.6h2.1L250.4,100.7z"/>
			</g>
		</g>
		<rect x="162.9" y="124.8" class="st7" width="174.5" height="34.7"/>
		<g>
			<g class="st6">
				<path d="M182.6,145.9h-1.5v-11.4h1.5V145.9z"/>
				<path d="M186.6,137.5l0.1,1.3c0.3-0.4,0.6-0.8,1.1-1s0.9-0.4,1.4-0.4c0.9,0,1.6,0.3,2.1,0.8s0.8,1.4,0.8,2.5v5.3h-1.5v-5.3
					c0-0.7-0.1-1.3-0.4-1.6s-0.7-0.5-1.3-0.5c-0.4,0-0.8,0.1-1.2,0.3s-0.6,0.5-0.8,0.9v6.2h-1.5v-8.5H186.6z"/>
				<path d="M194.6,146.9h-1.3l4.8-12.4h1.3L194.6,146.9z"/>
				<path d="M209.9,141.2c0,1.4-0.4,2.5-1.3,3.5s-2,1.4-3.4,1.4c-1.3,0-2.4-0.5-3.2-1.4s-1.2-2.1-1.2-3.5v-2c0-1.4,0.4-2.5,1.2-3.5
					s1.9-1.4,3.2-1.4c1.4,0,2.5,0.5,3.4,1.4s1.3,2.1,1.3,3.5V141.2z M208.3,139.2c0-1-0.3-1.9-0.8-2.6s-1.3-1-2.3-1
					c-0.9,0-1.6,0.3-2.1,1s-0.8,1.5-0.8,2.6v2c0,1.1,0.3,1.9,0.8,2.6s1.2,1,2.1,1c1,0,1.7-0.3,2.3-1s0.8-1.5,0.8-2.6V139.2z"/>
				<path d="M217.2,144.7c-0.3,0.5-0.6,0.8-1,1s-0.9,0.4-1.4,0.4c-0.9,0-1.6-0.3-2.2-0.9s-0.8-1.5-0.8-2.8v-5h1.5v5
					c0,0.9,0.1,1.5,0.4,1.9s0.7,0.5,1.2,0.5c0.5,0,1-0.1,1.4-0.3s0.6-0.5,0.8-0.9v-6.1h1.5v8.5h-1.4L217.2,144.7z"/>
				<path d="M223,135.4v2h1.6v1.1H223v5.1c0,0.4,0.1,0.7,0.2,0.8s0.4,0.2,0.7,0.2c0.1,0,0.2,0,0.3,0s0.2,0,0.3-0.1l0.2,1.1
					c-0.1,0.1-0.3,0.2-0.5,0.2s-0.4,0.1-0.7,0.1c-0.6,0-1.1-0.2-1.5-0.6s-0.6-1-0.6-1.8v-5.1h-1.3v-1.1h1.3v-2H223z"/>
			</g>
		</g>
		<rect x="156.3" y="166.5" class="st4" width="421.9" height="38.2"/>
		<g>
			<g class="st6">
				<path d="M223.8,185h-4.7v3.2h5.5v1.8h-7.8v-11.4h7.8v1.8h-5.5v2.9h4.7V185z"/>
				<path d="M227.9,181.6l0.1,1.2c0.3-0.4,0.6-0.8,1-1c0.4-0.2,0.9-0.4,1.4-0.4c0.9,0,1.5,0.3,2,0.8s0.7,1.4,0.7,2.5v5.3h-2.3v-5.3
					c0-0.6-0.1-1-0.3-1.2c-0.2-0.2-0.6-0.4-1-0.4c-0.3,0-0.6,0.1-0.8,0.2c-0.2,0.1-0.4,0.3-0.6,0.5v6.1h-2.3v-8.5H227.9z"/>
				<path d="M234.5,185.9c0-1.3,0.3-2.4,0.9-3.2s1.4-1.2,2.4-1.2c0.4,0,0.8,0.1,1.1,0.3s0.6,0.4,0.9,0.8v-4.6h2.3V190h-2l-0.2-1
					c-0.3,0.4-0.6,0.7-0.9,0.9s-0.8,0.3-1.2,0.3c-1,0-1.8-0.4-2.4-1.1s-0.9-1.8-0.9-3V185.9z M236.8,186c0,0.7,0.1,1.3,0.4,1.8
					s0.7,0.6,1.2,0.6c0.3,0,0.6-0.1,0.9-0.2s0.4-0.3,0.6-0.6V184c-0.2-0.3-0.4-0.5-0.6-0.6s-0.5-0.2-0.8-0.2c-0.6,0-1,0.2-1.2,0.7
					c-0.3,0.5-0.4,1.1-0.4,1.9V186z"/>
				<path d="M248.4,187.7c0-0.2-0.1-0.5-0.4-0.6s-0.7-0.3-1.3-0.5c-1-0.2-1.8-0.5-2.3-0.9s-0.8-0.9-0.8-1.6c0-0.7,0.3-1.3,0.9-1.9
					s1.4-0.8,2.5-0.8c1.1,0,1.9,0.3,2.6,0.8s0.9,1.1,0.9,1.9l0,0h-2.2c0-0.3-0.1-0.6-0.3-0.8s-0.5-0.3-0.9-0.3
					c-0.4,0-0.7,0.1-0.9,0.3s-0.3,0.4-0.3,0.7c0,0.3,0.1,0.5,0.3,0.6s0.7,0.3,1.3,0.4c1,0.2,1.8,0.5,2.3,0.9s0.8,1,0.8,1.7
					c0,0.8-0.3,1.4-1,1.9s-1.5,0.7-2.6,0.7c-1.1,0-2-0.3-2.7-0.9s-1-1.2-0.9-1.9l0,0h2.1c0,0.5,0.2,0.8,0.4,1s0.6,0.3,1.1,0.3
					c0.4,0,0.7-0.1,1-0.2S248.4,188,248.4,187.7z"/>
				<path d="M255.8,185.7c0-1.3,0.4-2.3,1.1-3.1s1.7-1.2,2.9-1.2c1.2,0,2.2,0.4,2.9,1.2s1.1,1.8,1.1,3.1v0.2c0,1.3-0.4,2.3-1.1,3.1
					s-1.7,1.2-2.9,1.2c-1.2,0-2.2-0.4-2.9-1.2s-1.1-1.8-1.1-3.1V185.7z M258,185.9c0,0.8,0.1,1.4,0.4,1.9s0.7,0.7,1.3,0.7
					c0.6,0,1-0.2,1.3-0.7s0.4-1.1,0.4-1.8v-0.2c0-0.7-0.1-1.4-0.4-1.8s-0.7-0.7-1.3-0.7c-0.6,0-1,0.2-1.3,0.7s-0.4,1.1-0.4,1.8
					V185.9z"/>
				<path d="M270.3,188.8c-0.3,0.4-0.6,0.8-1,1s-0.9,0.4-1.4,0.4c-0.9,0-1.6-0.3-2.1-0.9s-0.8-1.5-0.8-2.7v-5.1h2.3v5.1
					c0,0.6,0.1,1.1,0.3,1.3s0.5,0.4,0.9,0.4c0.4,0,0.7-0.1,0.9-0.2c0.3-0.1,0.5-0.3,0.6-0.5v-6.2h2.3v8.5h-1.9L270.3,188.8z"/>
				<path d="M276.9,179.5v2.1h1.4v1.6h-1.4v4.3c0,0.3,0.1,0.6,0.2,0.7s0.3,0.2,0.5,0.2c0.1,0,0.2,0,0.3,0s0.2,0,0.3-0.1l0.2,1.6
					c-0.2,0.1-0.5,0.1-0.7,0.2s-0.5,0.1-0.7,0.1c-0.8,0-1.4-0.2-1.8-0.6s-0.6-1.1-0.6-2.1v-4.3h-1.2v-1.6h1.2v-2.1H276.9z"/>
			</g>
			<g class="st6">
				<path class="st8" d="M285.9,190h-1.5v-11.4h1.5V190z"/>
				<path class="st8" d="M299.5,184.8h-5.2v4.1h6v1.2h-7.5v-11.4h7.5v1.2h-5.9v3.7h5.2V184.8z"/>
				<path class="st8" d="M303.2,181.6l0.1,1.3c0.3-0.4,0.6-0.8,1.1-1s0.9-0.4,1.4-0.4c0.9,0,1.6,0.3,2.1,0.8s0.8,1.4,0.8,2.5v5.3
					h-1.5v-5.3c0-0.7-0.1-1.3-0.4-1.6s-0.7-0.5-1.3-0.5c-0.4,0-0.8,0.1-1.2,0.3s-0.6,0.5-0.8,0.9v6.2h-1.5v-8.5H303.2z"/>
				<path class="st8" d="M310.6,186c0-1.4,0.3-2.5,0.9-3.3s1.4-1.2,2.4-1.2c0.5,0,0.9,0.1,1.3,0.3s0.7,0.4,1,0.8v-4.6h1.5V190h-1.3
					l-0.2-1c-0.3,0.4-0.6,0.7-1,0.9s-0.9,0.3-1.4,0.3c-1,0-1.8-0.4-2.4-1.1s-0.9-1.7-0.9-2.9V186z M312.1,186.1
					c0,0.9,0.2,1.5,0.5,2.1s0.9,0.8,1.6,0.8c0.5,0,0.8-0.1,1.2-0.3s0.6-0.5,0.8-0.9v-3.9c-0.2-0.3-0.5-0.6-0.8-0.8s-0.7-0.3-1.1-0.3
					c-0.7,0-1.3,0.3-1.6,0.9s-0.5,1.4-0.5,2.4V186.1z"/>
				<path class="st8" d="M325.7,179.4h-1.5v-1.6h1.5V179.4z M325.7,190h-1.5v-8.5h1.5V190z"/>
				<path class="st8" d="M329.4,181.6l0.1,1.3c0.3-0.4,0.6-0.8,1.1-1s0.9-0.4,1.4-0.4c0.9,0,1.6,0.3,2.1,0.8s0.8,1.4,0.8,2.5v5.3
					h-1.5v-5.3c0-0.7-0.1-1.3-0.4-1.6s-0.7-0.5-1.3-0.5c-0.4,0-0.8,0.1-1.2,0.3s-0.6,0.5-0.8,0.9v6.2H328v-8.5H329.4z"/>
				<path class="st8" d="M343,190h-1.5v-11.4h1.5V190z"/>
				<path class="st8" d="M356.1,187.2c0-0.5-0.2-1-0.6-1.3s-1.1-0.6-2.1-0.9c-1.2-0.3-2.1-0.7-2.8-1.3s-1-1.3-1-2.1
					c0-0.9,0.4-1.6,1.1-2.2c0.7-0.6,1.7-0.9,2.8-0.9c1.2,0,2.2,0.3,3,1s1.1,1.5,1.1,2.4l0,0h-1.5c0-0.7-0.2-1.2-0.7-1.6
					s-1.1-0.6-1.9-0.6c-0.8,0-1.4,0.2-1.8,0.5s-0.6,0.8-0.6,1.4c0,0.5,0.2,0.9,0.7,1.2s1.2,0.6,2.2,0.9c1.2,0.3,2.1,0.7,2.7,1.3
					s0.9,1.3,0.9,2.1c0,0.9-0.4,1.7-1.1,2.2s-1.7,0.8-2.9,0.8c-1.1,0-2.1-0.3-3-0.9s-1.3-1.4-1.3-2.5l0,0h1.5c0,0.7,0.3,1.3,0.8,1.7
					s1.2,0.6,2,0.6c0.8,0,1.4-0.2,1.8-0.5S356.1,187.7,356.1,187.2z"/>
				<path class="st8" d="M361.6,179.5v2h1.6v1.1h-1.6v5.1c0,0.4,0.1,0.7,0.2,0.8s0.4,0.2,0.7,0.2c0.1,0,0.2,0,0.3,0s0.2,0,0.3-0.1
					l0.2,1.1c-0.1,0.1-0.3,0.2-0.5,0.2s-0.4,0.1-0.7,0.1c-0.6,0-1.1-0.2-1.5-0.6s-0.6-1-0.6-1.8v-5.1h-1.3v-1.1h1.3v-2H361.6z"/>
			</g>
			<g class="st6">
				<path class="st8" d="M370.3,190c-0.1-0.3-0.1-0.5-0.1-0.7c0-0.2,0-0.4-0.1-0.6c-0.3,0.4-0.7,0.7-1.1,1s-1,0.4-1.5,0.4
					c-0.9,0-1.6-0.2-2-0.7s-0.7-1.1-0.7-1.9c0-0.8,0.3-1.4,1-1.9c0.7-0.5,1.5-0.7,2.7-0.7h1.7v-0.8c0-0.5-0.2-0.9-0.5-1.2
					c-0.3-0.3-0.7-0.4-1.3-0.4c-0.5,0-0.9,0.1-1.2,0.4c-0.3,0.3-0.5,0.6-0.5,0.9h-1.5l0,0c0-0.6,0.3-1.2,0.9-1.7
					c0.6-0.5,1.4-0.8,2.4-0.8c1,0,1.7,0.2,2.3,0.7c0.6,0.5,0.9,1.2,0.9,2.1v4.1c0,0.3,0,0.6,0,0.9s0.1,0.6,0.2,0.8H370.3z
					 M367.7,188.9c0.6,0,1.1-0.1,1.5-0.4c0.4-0.3,0.7-0.6,0.9-1v-1.4h-1.7c-0.6,0-1.1,0.2-1.5,0.5c-0.4,0.3-0.6,0.7-0.6,1.1
					c0,0.4,0.1,0.7,0.4,0.9S367.3,188.9,367.7,188.9z"/>
			</g>
			<g class="st6">
				<path class="st8" d="M376.4,186.9l0.3,1.1h0l2.1-6.4h1.7l-3.6,9.8c-0.2,0.6-0.5,1.1-0.9,1.5s-0.9,0.6-1.6,0.6
					c-0.1,0-0.3,0-0.5,0c-0.2,0-0.3-0.1-0.4-0.1l0.2-1.2c0,0,0.1,0,0.3,0c0.2,0,0.4,0,0.4,0c0.3,0,0.6-0.1,0.8-0.4
					c0.2-0.3,0.4-0.6,0.5-1l0.4-0.9l-3.1-8.3h1.7L376.4,186.9z"/>
				<path class="st8" d="M386.7,187.8c0-0.3-0.1-0.6-0.4-0.8s-0.7-0.4-1.5-0.6c-1-0.2-1.8-0.5-2.3-0.9c-0.5-0.4-0.8-0.9-0.8-1.6
					c0-0.7,0.3-1.3,0.9-1.8c0.6-0.5,1.3-0.7,2.3-0.7c1,0,1.8,0.3,2.3,0.8c0.6,0.5,0.9,1.1,0.8,1.8l0,0h-1.5c0-0.4-0.2-0.7-0.5-1
					c-0.3-0.3-0.7-0.4-1.2-0.4c-0.5,0-1,0.1-1.2,0.4s-0.4,0.5-0.4,0.9c0,0.3,0.1,0.6,0.4,0.8s0.7,0.4,1.4,0.5
					c1.1,0.2,1.9,0.5,2.4,0.9c0.5,0.4,0.8,0.9,0.8,1.6c0,0.8-0.3,1.4-0.9,1.8c-0.6,0.5-1.4,0.7-2.4,0.7c-1.1,0-1.9-0.3-2.5-0.8
					c-0.6-0.5-0.9-1.2-0.9-1.9l0,0h1.5c0,0.5,0.2,0.9,0.6,1.2c0.4,0.3,0.8,0.4,1.3,0.4c0.5,0,1-0.1,1.3-0.3
					C386.6,188.4,386.7,188.1,386.7,187.8z"/>
				<path class="st8" d="M395.8,179.4h-1.5v-1.6h1.5V179.4z M395.8,190h-1.5v-8.5h1.5V190z"/>
				<path class="st8" d="M399.6,181.6l0.1,1.3c0.3-0.4,0.6-0.8,1.1-1s0.9-0.4,1.4-0.4c0.9,0,1.6,0.3,2.1,0.8s0.8,1.4,0.8,2.5v5.3
					h-1.5v-5.3c0-0.7-0.1-1.3-0.4-1.6s-0.7-0.5-1.3-0.5c-0.4,0-0.8,0.1-1.2,0.3s-0.6,0.5-0.8,0.9v6.2h-1.5v-8.5H399.6z"/>
				<path class="st8" d="M413.2,190h-1.5v-11.4h1.5V190z"/>
				<path class="st8" d="M428.3,188.5c-0.3,0.4-0.7,0.8-1.4,1.1s-1.5,0.5-2.6,0.5c-1.4,0-2.5-0.4-3.4-1.3s-1.3-2-1.3-3.4v-2.3
					c0-1.4,0.4-2.5,1.2-3.4s1.9-1.3,3.2-1.3c1.3,0,2.3,0.3,3.1,1s1.1,1.5,1.1,2.5l0,0h-1.5c0-0.7-0.3-1.2-0.8-1.6s-1.1-0.6-2-0.6
					c-0.9,0-1.6,0.3-2.1,1s-0.8,1.5-0.8,2.5v2.4c0,1,0.3,1.8,0.9,2.5s1.3,1,2.3,1c0.6,0,1.2-0.1,1.6-0.3c0.4-0.2,0.7-0.4,0.9-0.6
					v-2.6h-2.5v-1.2h4V188.5z"/>
				<path class="st8" d="M430.3,185.7c0-1.2,0.3-2.3,1-3.1s1.6-1.2,2.8-1.2c1.2,0,2.1,0.4,2.8,1.2s1,1.8,1,3.1v0.2
					c0,1.3-0.3,2.3-1,3.1s-1.6,1.2-2.8,1.2s-2.1-0.4-2.8-1.2s-1-1.8-1-3.1V185.7z M431.9,185.9c0,0.9,0.2,1.6,0.6,2.2
					c0.4,0.6,0.9,0.9,1.7,0.9c0.7,0,1.3-0.3,1.7-0.9c0.4-0.6,0.6-1.3,0.6-2.2v-0.2c0-0.9-0.2-1.6-0.6-2.2s-0.9-0.9-1.7-0.9
					c-0.7,0-1.3,0.3-1.7,0.9s-0.6,1.3-0.6,2.2V185.9z"/>
				<path class="st8" d="M443.3,190.2c-1.2,0-2.1-0.4-2.8-1.2s-1-1.8-1-3.1v-0.3c0-1.2,0.4-2.2,1.1-3s1.6-1.2,2.5-1.2
					c1.1,0,2,0.3,2.6,1s0.9,1.6,0.9,2.8v1H441l0,0c0,0.8,0.2,1.5,0.6,2c0.4,0.5,1,0.8,1.7,0.8c0.5,0,1-0.1,1.4-0.2s0.7-0.4,1-0.6
					l0.6,1c-0.3,0.3-0.7,0.5-1.2,0.7S444,190.2,443.3,190.2z M443,182.6c-0.5,0-1,0.2-1.3,0.7s-0.6,1-0.7,1.6l0,0h3.9v-0.2
					c0-0.6-0.2-1.1-0.5-1.5C444.2,182.8,443.7,182.6,443,182.6z"/>
				<path class="st8" d="M453.1,187.8c0-0.3-0.1-0.6-0.4-0.8s-0.7-0.4-1.5-0.6c-1-0.2-1.8-0.5-2.3-0.9c-0.5-0.4-0.8-0.9-0.8-1.6
					c0-0.7,0.3-1.3,0.9-1.8s1.3-0.7,2.3-0.7c1,0,1.8,0.3,2.3,0.8s0.9,1.1,0.8,1.8l0,0h-1.5c0-0.4-0.2-0.7-0.5-1s-0.7-0.4-1.2-0.4
					c-0.5,0-1,0.1-1.2,0.4s-0.4,0.5-0.4,0.9c0,0.3,0.1,0.6,0.4,0.8s0.7,0.4,1.4,0.5c1.1,0.2,1.9,0.5,2.4,0.9s0.8,0.9,0.8,1.6
					c0,0.8-0.3,1.4-0.9,1.8s-1.4,0.7-2.4,0.7c-1.1,0-1.9-0.3-2.5-0.8s-0.9-1.2-0.9-1.9l0,0h1.5c0,0.5,0.2,0.9,0.6,1.2
					s0.8,0.4,1.3,0.4c0.5,0,1-0.1,1.3-0.3S453.1,188.1,453.1,187.8z"/>
				<path class="st8" d="M460.2,185.7c0-1.2,0.3-2.3,1-3.1s1.6-1.2,2.8-1.2c1.2,0,2.1,0.4,2.8,1.2s1,1.8,1,3.1v0.2
					c0,1.3-0.3,2.3-1,3.1s-1.6,1.2-2.8,1.2s-2.1-0.4-2.8-1.2s-1-1.8-1-3.1V185.7z M461.8,185.9c0,0.9,0.2,1.6,0.6,2.2
					c0.4,0.6,0.9,0.9,1.7,0.9c0.7,0,1.3-0.3,1.7-0.9c0.4-0.6,0.6-1.3,0.6-2.2v-0.2c0-0.9-0.2-1.6-0.6-2.2s-0.9-0.9-1.7-0.9
					c-0.7,0-1.3,0.3-1.7,0.9s-0.6,1.3-0.6,2.2V185.9z"/>
				<path class="st8" d="M475,188.8c-0.3,0.5-0.6,0.8-1,1s-0.9,0.4-1.4,0.4c-0.9,0-1.6-0.3-2.2-0.9s-0.8-1.5-0.8-2.8v-5h1.5v5
					c0,0.9,0.1,1.5,0.4,1.9s0.7,0.5,1.2,0.5c0.5,0,1-0.1,1.4-0.3s0.6-0.5,0.8-0.9v-6.1h1.5v8.5h-1.4L475,188.8z"/>
				<path class="st8" d="M480.8,179.5v2h1.6v1.1h-1.6v5.1c0,0.4,0.1,0.7,0.2,0.8s0.4,0.2,0.7,0.2c0.1,0,0.2,0,0.3,0s0.2,0,0.3-0.1
					l0.2,1.1c-0.1,0.1-0.3,0.2-0.5,0.2s-0.4,0.1-0.7,0.1c-0.6,0-1.1-0.2-1.5-0.6s-0.6-1-0.6-1.8v-5.1h-1.3v-1.1h1.3v-2H480.8z"/>
			</g>
		</g>
		<rect x="162.3" y="215.6" class="st7" width="157.2" height="34.7"/>
		<path d="M306.5,230.8l-6,7.2l-5.9-7.2H306.5z"/>
		<g>
			<g class="st6">
				<path d="M181,236.7v-11.4h3.5c1.5,0,2.7,0.5,3.6,1.4s1.4,2.1,1.4,3.5v1.6c0,1.5-0.5,2.6-1.4,3.5s-2.1,1.4-3.6,1.4H181z
					 M182.5,226.6v9h2c1.1,0,1.9-0.3,2.5-1s0.9-1.6,0.9-2.7v-1.6c0-1.1-0.3-2-0.9-2.6s-1.4-1-2.5-1H182.5z"/>
				<path d="M196.6,235.5c-0.3,0.5-0.6,0.8-1,1c-0.4,0.2-0.9,0.4-1.4,0.4c-0.9,0-1.6-0.3-2.2-0.9s-0.8-1.5-0.8-2.8v-5h1.5v5
					c0,0.9,0.1,1.5,0.4,1.9s0.7,0.5,1.2,0.5c0.5,0,1-0.1,1.4-0.3s0.6-0.5,0.8-0.9v-6.1h1.5v8.5h-1.4L196.6,235.5z"/>
				<path d="M204.3,229.6l-0.8,0c-0.4,0-0.7,0.1-1,0.3s-0.5,0.5-0.6,0.8v6h-1.5v-8.5h1.4l0.1,1.2c0.2-0.4,0.5-0.8,0.9-1
					s0.8-0.4,1.2-0.4c0.1,0,0.2,0,0.3,0s0.2,0,0.3,0.1L204.3,229.6z"/>
				<path d="M211,236.7c-0.1-0.3-0.1-0.5-0.1-0.7s0-0.4-0.1-0.6c-0.3,0.4-0.7,0.7-1.1,1s-1,0.4-1.5,0.4c-0.9,0-1.6-0.2-2-0.7
					s-0.7-1.1-0.7-1.9c0-0.8,0.3-1.4,1-1.9s1.5-0.7,2.7-0.7h1.7V231c0-0.5-0.2-0.9-0.5-1.2s-0.7-0.4-1.3-0.4c-0.5,0-0.9,0.1-1.2,0.4
					s-0.5,0.6-0.5,0.9H206l0,0c0-0.6,0.3-1.2,0.9-1.7s1.4-0.8,2.4-0.8c1,0,1.7,0.2,2.3,0.7s0.9,1.2,0.9,2.1v4.1c0,0.3,0,0.6,0,0.9
					s0.1,0.6,0.2,0.8H211z M208.5,235.6c0.6,0,1.1-0.1,1.5-0.4c0.4-0.3,0.7-0.6,0.9-1v-1.4h-1.7c-0.6,0-1.1,0.2-1.5,0.5
					s-0.6,0.7-0.6,1.1c0,0.4,0.1,0.7,0.4,0.9S208,235.6,208.5,235.6z"/>
				<path d="M216.7,226.2v2h1.6v1.1h-1.6v5.1c0,0.4,0.1,0.7,0.2,0.8s0.4,0.2,0.7,0.2c0.1,0,0.2,0,0.3,0s0.2,0,0.3-0.1l0.2,1.1
					c-0.1,0.1-0.3,0.2-0.5,0.2s-0.4,0.1-0.7,0.1c-0.6,0-1.1-0.2-1.5-0.6s-0.6-1-0.6-1.8v-5.1h-1.3v-1.1h1.3v-2H216.7z"/>
				<path d="M221.8,226.1h-1.5v-1.6h1.5V226.1z M221.8,236.7h-1.5v-8.5h1.5V236.7z"/>
				<path d="M223.8,232.4c0-1.2,0.3-2.3,1-3.1s1.6-1.2,2.8-1.2c1.2,0,2.1,0.4,2.8,1.2s1,1.8,1,3.1v0.2c0,1.3-0.3,2.3-1,3.1
					s-1.6,1.2-2.8,1.2s-2.1-0.4-2.8-1.2s-1-1.8-1-3.1V232.4z M225.4,232.6c0,0.9,0.2,1.6,0.6,2.2c0.4,0.6,0.9,0.9,1.7,0.9
					c0.7,0,1.3-0.3,1.7-0.9c0.4-0.6,0.6-1.3,0.6-2.2v-0.2c0-0.9-0.2-1.6-0.6-2.2s-0.9-0.9-1.7-0.9c-0.7,0-1.3,0.3-1.7,0.9
					s-0.6,1.3-0.6,2.2V232.6z"/>
				<path d="M234.7,228.3l0.1,1.3c0.3-0.4,0.6-0.8,1.1-1s0.9-0.4,1.4-0.4c0.9,0,1.6,0.3,2.1,0.8s0.8,1.4,0.8,2.5v5.3h-1.5v-5.3
					c0-0.7-0.1-1.3-0.4-1.6s-0.7-0.5-1.3-0.5c-0.4,0-0.8,0.1-1.2,0.3s-0.6,0.5-0.8,0.9v6.2h-1.5v-8.5H234.7z"/>
			</g>
		</g>
		<g>
			<g class="st6">
				<path d="M177.4,280.9h-1.5v-5h-5.5v5h-1.5v-11.4h1.5v5.1h5.5v-5.1h1.5V280.9z"/>
				<path d="M181.6,270.2h-1.5v-1.6h1.5V270.2z M181.6,280.9h-1.5v-8.5h1.5V280.9z"/>
				<path d="M183.7,276.8c0-1.4,0.3-2.5,0.9-3.3s1.4-1.2,2.5-1.2c0.5,0,1,0.1,1.4,0.3s0.7,0.5,1,0.9l0.2-1.1h1.2v8.5
					c0,1.1-0.3,1.9-0.9,2.5s-1.5,0.9-2.7,0.9c-0.4,0-0.8-0.1-1.3-0.2s-0.9-0.3-1.2-0.5l0.4-1.2c0.3,0.2,0.6,0.3,1,0.4
					s0.8,0.1,1.2,0.1c0.8,0,1.3-0.2,1.6-0.5s0.5-0.9,0.5-1.6v-1c-0.3,0.4-0.6,0.6-1,0.8s-0.8,0.3-1.3,0.3c-1,0-1.9-0.4-2.4-1.1
					s-0.9-1.7-0.9-2.9V276.8z M185.2,277c0,0.8,0.2,1.5,0.5,2s0.9,0.8,1.6,0.8c0.5,0,0.9-0.1,1.2-0.3s0.6-0.5,0.8-0.9v-3.9
					c-0.2-0.4-0.5-0.6-0.8-0.9s-0.7-0.3-1.1-0.3c-0.7,0-1.3,0.3-1.6,0.9s-0.5,1.4-0.5,2.4V277z"/>
				<path d="M194.6,273.5c0.3-0.4,0.6-0.7,1.1-0.9s0.9-0.3,1.4-0.3c0.9,0,1.6,0.3,2.1,0.8s0.8,1.4,0.8,2.5v5.3h-1.5v-5.3
					c0-0.7-0.1-1.2-0.4-1.5s-0.7-0.5-1.3-0.5c-0.4,0-0.8,0.1-1.2,0.3s-0.6,0.5-0.9,0.8v6.2h-1.5v-12.2h1.5V273.5z"/>
				<path d="M213.4,277c0,1.2-0.3,2.2-0.9,2.9s-1.4,1.1-2.4,1.1c-0.6,0-1-0.1-1.5-0.3s-0.8-0.5-1-1l-0.2,1.1h-1.3v-12.2h1.5v4.7
					c0.3-0.4,0.6-0.7,1-0.9s0.9-0.3,1.4-0.3c1,0,1.9,0.4,2.4,1.2s0.9,1.9,0.9,3.3V277z M211.8,276.8c0-1-0.2-1.8-0.5-2.4
					s-0.9-0.9-1.6-0.9c-0.5,0-0.9,0.1-1.2,0.3s-0.6,0.5-0.8,0.9v3.7c0.2,0.4,0.5,0.7,0.8,1s0.7,0.4,1.2,0.4c0.7,0,1.3-0.3,1.6-0.8
					s0.5-1.2,0.5-2V276.8z"/>
				<path d="M220.5,280.9c-0.1-0.3-0.1-0.5-0.1-0.7s0-0.4-0.1-0.6c-0.3,0.4-0.7,0.7-1.1,1s-1,0.4-1.5,0.4c-0.9,0-1.6-0.2-2-0.7
					s-0.7-1.1-0.7-1.9c0-0.8,0.3-1.4,1-1.9s1.5-0.7,2.7-0.7h1.7v-0.8c0-0.5-0.2-0.9-0.5-1.2s-0.7-0.4-1.3-0.4
					c-0.5,0-0.9,0.1-1.2,0.4s-0.5,0.6-0.5,0.9h-1.5l0,0c0-0.6,0.3-1.2,0.9-1.7s1.4-0.8,2.4-0.8c1,0,1.7,0.2,2.3,0.7s0.9,1.2,0.9,2.1
					v4.1c0,0.3,0,0.6,0,0.9s0.1,0.6,0.2,0.8H220.5z M217.9,279.7c0.6,0,1.1-0.1,1.5-0.4c0.4-0.3,0.7-0.6,0.9-1v-1.4h-1.7
					c-0.6,0-1.1,0.2-1.5,0.5s-0.6,0.7-0.6,1.1c0,0.4,0.1,0.7,0.4,0.9S217.4,279.7,217.9,279.7z"/>
				<path d="M228.1,273.8l-0.8,0c-0.4,0-0.7,0.1-1,0.3s-0.5,0.5-0.6,0.8v6h-1.5v-8.5h1.4l0.1,1.2c0.2-0.4,0.5-0.8,0.9-1
					s0.8-0.4,1.2-0.4c0.1,0,0.2,0,0.3,0s0.2,0,0.3,0.1L228.1,273.8z"/>
				<path d="M233.5,273.8l-0.8,0c-0.4,0-0.7,0.1-1,0.3s-0.5,0.5-0.6,0.8v6h-1.5v-8.5h1.4l0.1,1.2c0.2-0.4,0.5-0.8,0.9-1
					s0.8-0.4,1.2-0.4c0.1,0,0.2,0,0.3,0s0.2,0,0.3,0.1L233.5,273.8z"/>
				<path d="M236.7,270.2h-1.5v-1.6h1.5V270.2z M236.7,280.9h-1.5v-8.5h1.5V280.9z"/>
				<path d="M242.6,281c-1.2,0-2.1-0.4-2.8-1.2s-1-1.8-1-3.1v-0.3c0-1.2,0.4-2.2,1.1-3s1.6-1.2,2.5-1.2c1.1,0,2,0.3,2.6,1
					s0.9,1.6,0.9,2.8v1h-5.5l0,0c0,0.8,0.2,1.5,0.6,2c0.4,0.5,1,0.8,1.7,0.8c0.5,0,1-0.1,1.4-0.2s0.7-0.4,1-0.6l0.6,1
					c-0.3,0.3-0.7,0.5-1.2,0.7S243.3,281,242.6,281z M242.3,273.5c-0.5,0-1,0.2-1.3,0.7s-0.6,1-0.7,1.6l0,0h3.9v-0.2
					c0-0.6-0.2-1.1-0.5-1.5C243.4,273.7,243,273.5,242.3,273.5z"/>
				<path d="M251.5,273.8l-0.8,0c-0.4,0-0.7,0.1-1,0.3s-0.5,0.5-0.6,0.8v6h-1.5v-8.5h1.4l0.1,1.2c0.2-0.4,0.5-0.8,0.9-1
					s0.8-0.4,1.2-0.4c0.1,0,0.2,0,0.3,0s0.2,0,0.3,0.1L251.5,273.8z"/>
			</g>
		</g>
		<rect x="11.1" y="114.5" class="st2" width="150.6" height="57.4"/>
		<path class="st3" d="M152.7,140.2l-6.6-6.6v-13.1H19.4v40.6h126.7v-14.3L152.7,140.2z"/>
		<path class="st9" d="M152.7,140.2l-6.6-6.6v-13.1H19.4v40.6h126.7v-14.3L152.7,140.2z"/>
		<line class="st9" x1="152.1" y1="140.2" x2="167.6" y2="140.2"/>
		<g>
			<g class="st6">
				<path class="st5" d="M49.3,133.7v9.2c0,1.5-0.5,2.6-1.4,3.4c-1,0.8-2.2,1.2-3.7,1.2c-1.5,0-2.7-0.4-3.6-1.2
					c-0.9-0.8-1.4-1.9-1.4-3.4v-9.2H41v9.1c0,1,0.3,1.8,0.9,2.3c0.6,0.5,1.3,0.8,2.3,0.8c1,0,1.8-0.3,2.4-0.8
					c0.6-0.5,0.9-1.3,0.9-2.3v-9.1H49.3z"/>
				<path class="st5" d="M53.6,137.2l0.1,1.5c0.3-0.5,0.8-0.9,1.3-1.2c0.5-0.3,1.1-0.4,1.7-0.4c1.1,0,1.9,0.3,2.5,1s0.9,1.6,0.9,2.9
					v6.3h-1.8v-6.3c0-0.9-0.2-1.5-0.5-1.9s-0.9-0.6-1.6-0.6c-0.5,0-1,0.1-1.4,0.4c-0.4,0.3-0.7,0.6-1,1v7.3H52v-10H53.6z"/>
				<path class="st5" d="M62.3,142.4c0-1.6,0.3-2.9,1-3.9s1.7-1.5,2.9-1.5c0.6,0,1.1,0.1,1.6,0.3c0.5,0.2,0.8,0.5,1.2,0.9v-5.5h1.8
					v14.5h-1.5l-0.2-1.2c-0.3,0.5-0.7,0.8-1.2,1.1c-0.5,0.2-1,0.4-1.7,0.4c-1.2,0-2.2-0.4-2.9-1.3c-0.7-0.9-1-2.1-1-3.5V142.4z
					 M64.2,142.6c0,1,0.2,1.8,0.6,2.4s1.1,0.9,1.9,0.9c0.5,0,1-0.1,1.4-0.4c0.4-0.2,0.7-0.6,0.9-1v-4.7c-0.2-0.4-0.5-0.7-0.9-1
					c-0.4-0.2-0.8-0.4-1.3-0.4c-0.9,0-1.5,0.4-1.9,1.1c-0.4,0.7-0.6,1.7-0.6,2.8V142.6z"/>
				<path class="st5" d="M77.7,147.4c-1.4,0-2.5-0.5-3.3-1.4c-0.8-0.9-1.2-2.1-1.2-3.6V142c0-1.4,0.4-2.6,1.3-3.6
					c0.8-0.9,1.9-1.4,3-1.4c1.4,0,2.4,0.4,3.1,1.2c0.7,0.8,1,1.9,1,3.3v1.1H75l0,0c0,1,0.3,1.8,0.7,2.4c0.5,0.6,1.1,0.9,2,0.9
					c0.6,0,1.2-0.1,1.6-0.3c0.5-0.2,0.9-0.4,1.2-0.7l0.7,1.2c-0.4,0.4-0.8,0.7-1.4,0.9S78.6,147.4,77.7,147.4z M77.4,138.4
					c-0.6,0-1.1,0.3-1.6,0.8c-0.4,0.5-0.7,1.2-0.8,1.9l0,0h4.6v-0.2c0-0.7-0.2-1.3-0.6-1.8S78.2,138.4,77.4,138.4z"/>
				<path class="st5" d="M88.4,138.8l-0.9-0.1c-0.5,0-0.9,0.1-1.2,0.3c-0.3,0.2-0.6,0.6-0.8,1v7.2h-1.8v-10h1.6l0.2,1.5
					c0.3-0.5,0.6-0.9,1.1-1.2c0.4-0.3,0.9-0.4,1.4-0.4c0.1,0,0.3,0,0.4,0c0.1,0,0.2,0,0.3,0.1L88.4,138.8z"/>
				<path class="st5" d="M92.1,147.2h-1.8v-14.5h1.8V147.2z"/>
				<path class="st5" d="M98,143.5l0.3,1.3h0.1l2.5-7.6h2l-4.2,11.6c-0.3,0.7-0.6,1.3-1.1,1.8c-0.5,0.5-1.1,0.8-1.9,0.8
					c-0.1,0-0.3,0-0.6-0.1s-0.4-0.1-0.5-0.1l0.2-1.4c0,0,0.1,0,0.3,0c0.3,0,0.4,0,0.5,0c0.4,0,0.7-0.2,1-0.5
					c0.2-0.3,0.5-0.7,0.6-1.2l0.4-1l-3.7-9.8h2L98,143.5z"/>
				<path class="st5" d="M106.4,134.6h-1.8v-1.9h1.8V134.6z M106.4,147.2h-1.8v-10h1.8V147.2z"/>
				<path class="st5" d="M110.9,137.2l0.1,1.5c0.3-0.5,0.8-0.9,1.3-1.2c0.5-0.3,1.1-0.4,1.7-0.4c1.1,0,1.9,0.3,2.5,1
					s0.9,1.6,0.9,2.9v6.3h-1.8v-6.3c0-0.9-0.2-1.5-0.5-1.9s-0.9-0.6-1.6-0.6c-0.5,0-1,0.1-1.4,0.4c-0.4,0.3-0.7,0.6-1,1v7.3h-1.8
					v-10H110.9z"/>
				<path class="st5" d="M119.6,142.4c0-1.6,0.4-2.9,1.1-3.9s1.7-1.5,2.9-1.5c0.6,0,1.2,0.1,1.7,0.4c0.5,0.3,0.9,0.6,1.2,1.1
					l0.2-1.3h1.5v10.1c0,1.3-0.4,2.3-1.1,3s-1.8,1-3.2,1c-0.5,0-1-0.1-1.6-0.2c-0.6-0.1-1.1-0.3-1.5-0.5l0.5-1.4
					c0.3,0.2,0.7,0.3,1.2,0.5c0.5,0.1,0.9,0.2,1.4,0.2c0.9,0,1.5-0.2,1.9-0.6c0.4-0.4,0.6-1,0.6-1.9v-1.1c-0.3,0.4-0.7,0.7-1.2,1
					c-0.5,0.2-1,0.3-1.6,0.3c-1.2,0-2.2-0.4-2.9-1.3s-1.1-2.1-1.1-3.5V142.4z M121.5,142.6c0,1,0.2,1.8,0.6,2.4s1.1,0.9,1.9,0.9
					c0.6,0,1-0.1,1.4-0.4c0.4-0.3,0.7-0.6,0.9-1.1v-4.6c-0.2-0.4-0.5-0.8-0.9-1c-0.4-0.3-0.8-0.4-1.4-0.4c-0.9,0-1.5,0.4-2,1.1
					c-0.4,0.7-0.6,1.7-0.6,2.8V142.6z"/>
			</g>
		</g>
		<rect x="11.1" y="206.5" class="st2" width="150.6" height="57.4"/>
		<path class="st3" d="M152.7,232.2l-6.6-6.6v-13.1H19.4v40.6h126.7v-14.3L152.7,232.2z"/>
		<path class="st10" d="M152.7,232.2l-6.6-6.6v-13.1H19.4v40.6h126.7v-14.3L152.7,232.2z"/>
		<line class="st10" x1="152.1" y1="232.2" x2="167.6" y2="232.2"/>
		<g>
			<g class="st6">
				<path class="st5" d="M39.4,238v-13.5h4.1c1.8,0,3.2,0.5,4.3,1.6c1.1,1.1,1.6,2.5,1.6,4.2v1.8c0,1.7-0.5,3.1-1.6,4.2
					c-1.1,1.1-2.5,1.6-4.3,1.6H39.4z M41.3,226v10.6h2.3c1.2,0,2.2-0.4,3-1.2c0.7-0.8,1.1-1.9,1.1-3.2v-1.9c0-1.3-0.4-2.3-1.1-3.1
					c-0.7-0.8-1.7-1.2-3-1.2H41.3z"/>
				<path class="st5" d="M58,236.6c-0.3,0.5-0.7,1-1.2,1.2s-1.1,0.4-1.7,0.4c-1.1,0-1.9-0.3-2.6-1s-0.9-1.8-0.9-3.3V228h1.8v5.9
					c0,1.1,0.2,1.8,0.5,2.2s0.8,0.6,1.5,0.6c0.7,0,1.2-0.1,1.6-0.4s0.7-0.6,1-1.1V228h1.8v10h-1.6L58,236.6z"/>
				<path class="st5" d="M67.2,229.6l-0.9-0.1c-0.5,0-0.9,0.1-1.2,0.3c-0.3,0.2-0.6,0.6-0.8,1v7.2h-1.8v-10H64l0.2,1.5
					c0.3-0.5,0.6-0.9,1.1-1.2c0.4-0.3,0.9-0.4,1.4-0.4c0.1,0,0.3,0,0.4,0c0.1,0,0.2,0,0.3,0.1L67.2,229.6z"/>
				<path class="st5" d="M75.1,238c-0.1-0.3-0.1-0.6-0.1-0.8c0-0.2-0.1-0.5-0.1-0.7c-0.3,0.5-0.8,0.9-1.3,1.2
					c-0.5,0.3-1.1,0.5-1.8,0.5c-1,0-1.8-0.3-2.4-0.8c-0.5-0.5-0.8-1.3-0.8-2.2c0-1,0.4-1.7,1.2-2.2c0.8-0.5,1.8-0.8,3.2-0.8h2v-1
					c0-0.6-0.2-1.1-0.5-1.4c-0.4-0.3-0.9-0.5-1.5-0.5c-0.6,0-1.1,0.1-1.4,0.4c-0.4,0.3-0.6,0.7-0.6,1.1h-1.7l0-0.1
					c0-0.7,0.3-1.4,1-2s1.7-0.9,2.8-0.9c1.1,0,2.1,0.3,2.7,0.9c0.7,0.6,1,1.4,1,2.5v4.8c0,0.4,0,0.7,0.1,1s0.1,0.7,0.2,1H75.1z
					 M72.1,236.7c0.7,0,1.3-0.2,1.8-0.5c0.5-0.3,0.9-0.7,1-1.2v-1.6h-2c-0.7,0-1.3,0.2-1.8,0.6c-0.4,0.4-0.7,0.8-0.7,1.3
					c0,0.4,0.1,0.8,0.4,1.1C71.1,236.6,71.5,236.7,72.1,236.7z"/>
				<path class="st5" d="M81.8,225.6v2.4h1.9v1.4h-1.9v6.1c0,0.5,0.1,0.8,0.3,1c0.2,0.2,0.5,0.3,0.8,0.3c0.1,0,0.2,0,0.3,0
					c0.1,0,0.2-0.1,0.3-0.1l0.2,1.3c-0.1,0.1-0.3,0.2-0.6,0.3s-0.5,0.1-0.8,0.1c-0.7,0-1.3-0.2-1.8-0.7c-0.4-0.4-0.7-1.2-0.7-2.1
					v-6.1h-1.6V228H80v-2.4H81.8z"/>
				<path class="st5" d="M87.9,225.4h-1.8v-1.9h1.8V225.4z M87.9,238h-1.8v-10h1.8V238z"/>
				<path class="st5" d="M90.3,232.9c0-1.5,0.4-2.7,1.2-3.7c0.8-1,1.9-1.4,3.3-1.4c1.4,0,2.5,0.5,3.3,1.4c0.8,1,1.2,2.2,1.2,3.7v0.2
					c0,1.5-0.4,2.7-1.2,3.7c-0.8,1-1.9,1.4-3.3,1.4s-2.5-0.5-3.3-1.4c-0.8-1-1.2-2.2-1.2-3.7V232.9z M92.1,233.1
					c0,1.1,0.2,1.9,0.7,2.6c0.4,0.7,1.1,1,2,1c0.9,0,1.5-0.3,2-1c0.5-0.7,0.7-1.6,0.7-2.6v-0.2c0-1-0.2-1.9-0.7-2.6
					c-0.5-0.7-1.1-1-2-1c-0.9,0-1.5,0.3-2,1c-0.4,0.7-0.7,1.6-0.7,2.6V233.1z"/>
				<path class="st5" d="M103.2,228l0.1,1.5c0.3-0.5,0.8-0.9,1.3-1.2c0.5-0.3,1.1-0.4,1.7-0.4c1.1,0,1.9,0.3,2.5,1s0.9,1.6,0.9,2.9
					v6.3h-1.8v-6.3c0-0.9-0.2-1.5-0.5-1.9s-0.9-0.6-1.6-0.6c-0.5,0-1,0.1-1.4,0.4c-0.4,0.3-0.7,0.6-1,1v7.3h-1.8v-10H103.2z"/>
			</g>
		</g>
		<rect x="11.1" y="250.7" class="st2" width="150.6" height="57.4"/>
		<path class="st3" d="M152.7,276.4l-6.6-6.6v-13.1H19.4v40.6h126.7V283L152.7,276.4z"/>
		<path class="st10" d="M152.7,276.4l-6.6-6.6v-13.1H19.4v40.6h126.7V283L152.7,276.4z"/>
		<line class="st10" x1="152.1" y1="276.4" x2="167.6" y2="276.4"/>
		<g>
			<g class="st6">
				<path class="st5" d="M39.4,282.3v-13.5h4.4c1.4,0,2.5,0.3,3.3,0.9s1.2,1.5,1.2,2.7c0,0.6-0.2,1.1-0.6,1.6
					c-0.4,0.5-0.9,0.8-1.5,1.1c0.8,0.2,1.5,0.6,1.9,1.2c0.5,0.6,0.7,1.4,0.7,2.2c0,1.2-0.4,2.2-1.2,2.8c-0.8,0.7-1.9,1-3.3,1H39.4z
					 M41.3,274.5h3c0.7,0,1.2-0.2,1.7-0.6s0.6-0.9,0.6-1.6c0-0.7-0.2-1.3-0.7-1.6c-0.5-0.4-1.1-0.5-2-0.5h-2.6V274.5z M41.3,275.9
					v4.9h3.2c0.8,0,1.5-0.2,1.9-0.6c0.5-0.4,0.7-1,0.7-1.7c0-0.8-0.2-1.4-0.6-1.9c-0.4-0.5-1-0.7-1.8-0.7H41.3z"/>
				<path class="st5" d="M57.4,282.3c-0.1-0.3-0.1-0.6-0.1-0.8c0-0.2-0.1-0.5-0.1-0.7c-0.3,0.5-0.8,0.9-1.3,1.2
					c-0.5,0.3-1.1,0.5-1.8,0.5c-1,0-1.8-0.3-2.4-0.8c-0.5-0.5-0.8-1.3-0.8-2.2c0-1,0.4-1.7,1.2-2.2c0.8-0.5,1.8-0.8,3.2-0.8h2v-1
					c0-0.6-0.2-1.1-0.5-1.4c-0.4-0.3-0.9-0.5-1.5-0.5c-0.6,0-1.1,0.1-1.4,0.4c-0.4,0.3-0.6,0.7-0.6,1.1h-1.7l0-0.1
					c0-0.7,0.3-1.4,1-2c0.7-0.6,1.7-0.9,2.8-0.9c1.1,0,2.1,0.3,2.7,0.9c0.7,0.6,1,1.4,1,2.5v4.8c0,0.4,0,0.7,0.1,1s0.1,0.7,0.2,1
					H57.4z M54.4,280.9c0.7,0,1.3-0.2,1.8-0.5c0.5-0.3,0.9-0.7,1-1.2v-1.6h-2c-0.7,0-1.3,0.2-1.8,0.6c-0.4,0.4-0.7,0.8-0.7,1.3
					c0,0.4,0.1,0.8,0.4,1.1C53.4,280.8,53.8,280.9,54.4,280.9z"/>
				<path class="st5" d="M66.4,273.8l-0.9-0.1c-0.5,0-0.9,0.1-1.2,0.3c-0.3,0.2-0.6,0.6-0.8,1v7.2h-1.8v-10h1.6l0.2,1.5
					c0.3-0.5,0.6-0.9,1.1-1.2c0.4-0.3,0.9-0.4,1.4-0.4c0.1,0,0.3,0,0.4,0c0.1,0,0.2,0,0.3,0.1L66.4,273.8z"/>
				<path class="st5" d="M72.9,273.8l-0.9-0.1c-0.5,0-0.9,0.1-1.2,0.3c-0.3,0.2-0.6,0.6-0.8,1v7.2h-1.8v-10h1.6l0.2,1.5
					c0.3-0.5,0.6-0.9,1.1-1.2c0.4-0.3,0.9-0.4,1.4-0.4c0.1,0,0.3,0,0.4,0c0.1,0,0.2,0,0.3,0.1L72.9,273.8z"/>
				<path class="st5" d="M76.7,269.7h-1.8v-1.9h1.8V269.7z M76.7,282.3h-1.8v-10h1.8V282.3z"/>
				<path class="st5" d="M83.7,282.5c-1.4,0-2.5-0.5-3.3-1.4c-0.8-0.9-1.2-2.1-1.2-3.6V277c0-1.4,0.4-2.6,1.3-3.6
					c0.8-0.9,1.9-1.4,3-1.4c1.4,0,2.4,0.4,3.1,1.2c0.7,0.8,1,1.9,1,3.3v1.1H81l0,0c0,1,0.3,1.8,0.7,2.4c0.5,0.6,1.1,0.9,2,0.9
					c0.6,0,1.2-0.1,1.6-0.3c0.5-0.2,0.9-0.4,1.2-0.7l0.7,1.2c-0.4,0.4-0.8,0.7-1.4,0.9S84.5,282.5,83.7,282.5z M83.4,273.5
					c-0.6,0-1.1,0.3-1.6,0.8c-0.4,0.5-0.7,1.2-0.8,1.9l0,0h4.6V276c0-0.7-0.2-1.3-0.6-1.8S84.1,273.5,83.4,273.5z"/>
				<path class="st5" d="M94.3,273.8l-0.9-0.1c-0.5,0-0.9,0.1-1.2,0.3c-0.3,0.2-0.6,0.6-0.8,1v7.2h-1.8v-10h1.6l0.2,1.5
					c0.3-0.5,0.6-0.9,1.1-1.2c0.4-0.3,0.9-0.4,1.4-0.4c0.1,0,0.3,0,0.4,0c0.1,0,0.2,0,0.3,0.1L94.3,273.8z"/>
			</g>
		</g>
	</g>
</g>
<ellipse class="st2" cx="154.6" cy="150.6" rx="145.6" ry="144.6"/>
<ellipse class="st11" cx="154.6" cy="150.6" rx="145.1" ry="144.1"/>
</svg>
