<?xml version="1.0" encoding="utf-8"?>
<!-- Generator: Adobe Illustrator 21.0.2, SVG Export Plug-In . SVG Version: 6.00 Build 0)  -->
<svg version="1.1" id="Layer_1" xmlns="http://www.w3.org/2000/svg" xmlns:xlink="http://www.w3.org/1999/xlink" x="0px" y="0px"
	 viewBox="0 0 309.3 307.3" style="enable-background:new 0 0 309.3 307.3;" xml:space="preserve">
<style type="text/css">
	.st0{clip-path:url(#SVGID_3_);}
	.st1{clip-path:url(#SVGID_4_);}
	.st2{fill:none;}
	.st3{fill:#FFFFFF;}
	.st4{fill:#F1F1F1;}
	.st5{fill:#004384;}
	.st6{fill:none;stroke:#FFFFFF;stroke-width:2;stroke-miterlimit:10;}
	.st7{fill:#29AAE1;}
	.st8{enable-background:new    ;}
	.st9{fill:none;stroke:#B2B2B2;stroke-miterlimit:10;}
	.st10{fill:#0000EF;}
	.st11{fill:#EF0000;}
	.st12{fill:#00EF00;}
	.st13{fill:#808080;}
	.st14{fill:none;stroke:#F1F1F1;stroke-miterlimit:10;}
	.st15{fill:none;stroke:#004384;stroke-width:2;stroke-miterlimit:10;}
	.st16{fill:none;stroke:#004384;}
</style>
<title>Artboard 1</title>
<g>
	<defs>
		<ellipse id="SVGID_1_" cx="154.6" cy="150.6" rx="145.6" ry="144.6"/>
	</defs>
	<defs>
		<ellipse id="SVGID_2_" cx="154.6" cy="150.6" rx="145.1" ry="144.1"/>
	</defs>
	<clipPath id="SVGID_3_">
		<use xlink:href="#SVGID_1_"  style="overflow:visible;"/>
	</clipPath>
	<clipPath id="SVGID_4_" class="st0">
		<use xlink:href="#SVGID_2_"  style="overflow:visible;"/>
	</clipPath>
	<g class="st1">
		<rect x="-211.3" y="36" class="st2" width="435" height="492.4"/>
		<rect x="-203.5" y="41.4" class="st3" width="419.5" height="476.9"/>
		<path class="st4" d="M215.4,42v475.7h-418.3V42H215.4 M216.6,40.8h-420.7v478.1h420.7V40.8z"/>
		<rect x="-203.6" y="41.3" class="st5" width="419.7" height="40.9"/>
		<path class="st5" d="M215.6,41.8v40h-418.8v-40L215.6,41.8 M216.6,40.8h-420.7v41.9h420.7V40.8z"/>
		<line class="st6" x1="152" y1="63.5" x2="171.2" y2="63.5"/>
		<line class="st6" x1="181.9" y1="54" x2="199.9" y2="71.9"/>
		<line class="st6" x1="199.9" y1="54" x2="181.9" y2="71.9"/>
		<path class="st4" d="M10.2,121h-26.3c-2.6,0-4.8-2.1-4.8-4.8V89.9c0-2.6,2.1-4.8,4.8-4.8h26.3c2.7,0,4.8,2.1,4.8,4.8c0,0,0,0,0,0
			v26.3C15,118.9,12.8,121,10.2,121C10.2,121,10.2,121,10.2,121z"/>
		<path class="st5" d="M-7,107.5L-7,107.5c-2.5,0-4.5-1.9-4.8-4.3c-0.2-2.4,1.5-4.6,3.9-5c1.2-2,3.4-3.1,5.7-2.8
			c2.3,0.3,4.2,2,4.8,4.2c2,0.4,3.5,2.2,3.3,4.3c-0.2,2.1-1.9,3.7-3.9,3.7H1.9v-1.1l0,0c1.7,0.1,3-1.2,3.1-2.9
			c0-0.5-0.1-1.1-0.4-1.5c-0.5-1-1.4-1.6-2.5-1.6H1.8l-0.1-0.4c-0.4-1.9-2-3.4-3.9-3.7c-2-0.3-3.9,0.7-4.9,2.5l-0.1,0.2h-0.2
			c-2,0.2-3.4,2.1-3.2,4.1c0.2,1.8,1.7,3.2,3.6,3.2H-7V107.5z"/>
		<path class="st5" d="M-3.5,109.3v-5.1h-1.3v5.1h-0.7l1.5,1.4l1.4-1.4L-3.5,109.3z M-0.3,104.5v5.1h-1.3v-5.1h-0.7l1.4-1.4l1.4,1.4
			H-0.3z"/>
		<path class="st7" d="M89.9,115H23c-3.3,0-6-2.6-6-5.8c0,0,0,0,0,0c0,0,0-0.1,0-0.1V97c0-3.3,2.6-6,5.8-6c0,0,0,0,0,0h67
			c3.3,0,6,2.6,6,5.8c0,0,0,0,0,0c0,0,0,0.1,0,0.1v12C95.9,112.3,93.2,115,89.9,115z"/>
		<g>
			<g class="st8">
				<path class="st3" d="M38.5,99.8c0,0.6-0.2,1.1-0.5,1.6c-0.3,0.4-0.8,0.8-1.4,1c0.7,0.2,1.2,0.6,1.6,1.1c0.4,0.5,0.6,1.1,0.6,1.7
					c0,1.1-0.3,1.9-1,2.4c-0.7,0.6-1.6,0.8-2.7,0.8c-1.1,0-2-0.3-2.7-0.8s-1-1.4-1-2.4c0-0.6,0.2-1.2,0.6-1.7
					c0.4-0.5,0.9-0.8,1.6-1.1c-0.6-0.2-1-0.6-1.3-1c-0.3-0.4-0.5-1-0.5-1.6c0-1,0.3-1.8,0.9-2.3s1.4-0.8,2.4-0.8
					c1,0,1.8,0.3,2.4,0.8S38.5,98.8,38.5,99.8z M37.3,105.1c0-0.6-0.2-1.1-0.6-1.5c-0.4-0.4-0.9-0.6-1.6-0.6c-0.6,0-1.2,0.2-1.6,0.6
					s-0.6,0.9-0.6,1.5c0,0.6,0.2,1.2,0.6,1.5c0.4,0.4,0.9,0.5,1.6,0.5c0.6,0,1.2-0.2,1.6-0.6C37.1,106.2,37.3,105.7,37.3,105.1z
					 M37,99.8c0-0.6-0.2-1-0.5-1.4s-0.8-0.6-1.3-0.6c-0.5,0-1,0.2-1.3,0.5c-0.3,0.4-0.5,0.8-0.5,1.4c0,0.6,0.2,1,0.5,1.4
					c0.3,0.3,0.8,0.5,1.3,0.5c0.5,0,1-0.2,1.3-0.5S37,100.4,37,99.8z"/>
				<path class="st3" d="M41,103.1l0.7-6.2h5.7v1.4H43l-0.4,3.2c0.2-0.2,0.5-0.3,0.8-0.4c0.3-0.1,0.6-0.2,1-0.2c1,0,1.9,0.3,2.5,1
					s0.9,1.6,0.9,2.8c0,1.1-0.3,2.1-0.9,2.8s-1.5,1-2.7,1c-1,0-1.8-0.3-2.4-0.8s-0.9-1.3-0.9-2.3l0,0h1.4c0,0.6,0.2,1.1,0.5,1.4
					c0.4,0.3,0.8,0.5,1.4,0.5c0.7,0,1.2-0.2,1.5-0.7s0.5-1.1,0.5-1.9c0-0.7-0.2-1.3-0.5-1.8c-0.4-0.5-0.9-0.7-1.5-0.7
					c-0.6,0-1,0.1-1.3,0.3c-0.3,0.2-0.5,0.5-0.6,0.8L41,103.1z"/>
				<path class="st3" d="M51.5,108.2h-1.5v-1.6h1.5V108.2z"/>
				<path class="st3" d="M60.8,99.8c0,0.6-0.2,1.1-0.5,1.6s-0.8,0.8-1.4,1c0.7,0.2,1.2,0.6,1.6,1.1s0.6,1.1,0.6,1.7
					c0,1.1-0.3,1.9-1,2.4s-1.6,0.8-2.7,0.8c-1.1,0-2-0.3-2.7-0.8s-1-1.4-1-2.4c0-0.6,0.2-1.2,0.6-1.7s0.9-0.8,1.6-1.1
					c-0.6-0.2-1-0.6-1.3-1s-0.5-1-0.5-1.6c0-1,0.3-1.8,0.9-2.3s1.4-0.8,2.4-0.8c1,0,1.8,0.3,2.4,0.8S60.8,98.8,60.8,99.8z
					 M59.6,105.1c0-0.6-0.2-1.1-0.6-1.5s-0.9-0.6-1.6-0.6c-0.6,0-1.2,0.2-1.6,0.6s-0.6,0.9-0.6,1.5c0,0.6,0.2,1.2,0.6,1.5
					s0.9,0.5,1.6,0.5c0.6,0,1.2-0.2,1.6-0.6S59.6,105.7,59.6,105.1z M59.3,99.8c0-0.6-0.2-1-0.5-1.4s-0.8-0.6-1.3-0.6
					c-0.5,0-1,0.2-1.3,0.5s-0.5,0.8-0.5,1.4c0,0.6,0.2,1,0.5,1.4s0.8,0.5,1.3,0.5c0.5,0,1-0.2,1.3-0.5S59.3,100.4,59.3,99.8z"/>
				<path class="st3" d="M67.2,96.7c0.4,0,0.8,0,1.2,0.1s0.7,0.2,0.9,0.3L69,98.3c-0.3-0.1-0.5-0.2-0.8-0.3s-0.6-0.1-1-0.1
					c-0.8,0-1.5,0.3-2,1s-0.7,1.5-0.7,2.5v0.2c0.3-0.3,0.7-0.5,1.1-0.7s0.9-0.2,1.4-0.2c1,0,1.8,0.4,2.4,1.1s0.9,1.6,0.9,2.7
					c0,1.2-0.3,2.1-1,2.9s-1.5,1.1-2.6,1.1c-1.1,0-2-0.4-2.8-1.2s-1.1-1.9-1.1-3.4v-2.2c0-1.5,0.4-2.6,1.2-3.5S66,96.7,67.2,96.7z
					 M66.7,101.8c-0.5,0-1,0.1-1.3,0.3c-0.4,0.2-0.7,0.5-0.8,0.8v0.9c0,1,0.2,1.9,0.7,2.4c0.4,0.6,1,0.9,1.7,0.9
					c0.6,0,1.1-0.3,1.5-0.8s0.5-1.2,0.5-2c0-0.7-0.2-1.4-0.6-1.8S67.4,101.8,66.7,101.8z"/>
				<path class="st3" d="M76.3,108.2h-1.5v-9.9l-2.3,0v-1.1l3.9-0.4V108.2z"/>
			</g>
		</g>
		<path class="st9" d="M103.2,93.5c0.9-0.6,1.8-1.3,2.5-2.2c0.3-0.4,0.7-0.8,1.2-1.1c0.5-0.3,1-0.2,1.4,0.1c0.2,0.3,0.4,0.6,0.6,1
			c0.8,0.8,2.4-0.5,3.2,0.4c0.2,0.2,0.4,0.6,0.6,0.7c0.6,0.6,1.6,0.1,2.3,0.1c0.7,0.2,1.4,0.6,2,1.1c0.6,0.4,1.6,0.7,2.2,0.2
			c0.3-0.3,0.5-0.6,0.6-1c0.5-1,1.6-1.9,2.6-1.6c0.5,0.1,0.8,0.6,1.3,1c0.4,0.4,0.9,0.5,1.4,0.5c0.2-0.1,0.5-0.2,0.7-0.2
			c0.4,0,0.6,0.4,0.7,0.6c1,1,2.5,1,3.5,0c0,0,0,0,0,0c0.2-0.2,0.5-0.6,0.7-0.8c0.8-1,2.1-1.4,3.4-1.1H148c1.6-1.7,3.7-2.9,6-3.6
			c0.8-0.1,1.3,0.8,1.9,1.2c1.7,1.1,3.8-1.4,5.7-1c0.8,0.3,1.5,0.8,1.9,1.6c1.5,1.9,2.8,4,3.8,6.2c0.4,0.8,0.7,1.8,1.1,2.8
			c0.6,1.4,1.1,3,1.7,4.4c0.1,0.4,0.3,0.8,0.6,1.1c0.7,0.7,1.7,0.9,2.6,0.6c1.6-0.4,2.9-1.4,3.6-2.9c0.2-0.4,0.5-0.8,0.8-0.8
			s0.6,0.2,0.8,0.6c0.7,0.8,1.6,1.8,2.8,1.8c1.1-0.1,2.1-0.6,2.9-1.3c1.9-1.5,3.9-2.7,6-3.7c0.5-0.4,1.3-0.5,1.9-0.4
			c1.2,0.4,1.3,1.9,2.1,2.8c0.9,0.7,2,1,3.1,0.7c2.1-0.2,4.4-1.4,4.8-3.6c0.7,0,1.3,0.7,1.7,1.3s0.6,1.4,1.2,1.8
			c0.8,0.4,1.8,0.3,2.5-0.4c0.6-0.6,1.1-1.4,1.6-2.2"/>
		<circle class="st10" cx="153.8" cy="88" r="1.8"/>
		<circle class="st11" cx="170.6" cy="103.6" r="1.8"/>
		<circle class="st12" cx="208.8" cy="97.6" r="1.8"/>
		<rect x="-204.7" y="127.5" class="st4" width="421.9" height="38.2"/>
		<g>
			<g class="st8">
				<path class="st13" d="M-75.1,151h-1.5v-11.4h1.5V151z"/>
				<path class="st13" d="M-61.5,145.8h-5.2v4.1h6v1.2h-7.5v-11.4h7.5v1.2h-5.9v3.7h5.2V145.8z"/>
				<path class="st13" d="M-57.8,142.6l0.1,1.3c0.3-0.4,0.6-0.8,1.1-1s0.9-0.4,1.4-0.4c0.9,0,1.6,0.3,2.1,0.8s0.8,1.4,0.8,2.5v5.3
					h-1.5v-5.3c0-0.7-0.1-1.3-0.4-1.6s-0.7-0.5-1.3-0.5c-0.4,0-0.8,0.1-1.2,0.3s-0.6,0.5-0.8,0.9v6.2h-1.5v-8.5H-57.8z"/>
				<path class="st13" d="M-50.4,147c0-1.4,0.3-2.5,0.9-3.3s1.4-1.2,2.4-1.2c0.5,0,0.9,0.1,1.3,0.3s0.7,0.4,1,0.8v-4.6h1.5V151h-1.3
					l-0.2-1c-0.3,0.4-0.6,0.7-1,0.9s-0.9,0.3-1.4,0.3c-1,0-1.8-0.4-2.4-1.1s-0.9-1.7-0.9-2.9V147z M-48.9,147.1
					c0,0.9,0.2,1.5,0.5,2.1s0.9,0.8,1.6,0.8c0.5,0,0.8-0.1,1.2-0.3s0.6-0.5,0.8-0.9v-3.9c-0.2-0.3-0.5-0.6-0.8-0.8s-0.7-0.3-1.1-0.3
					c-0.7,0-1.3,0.3-1.6,0.9s-0.5,1.4-0.5,2.4V147.1z"/>
				<path class="st13" d="M-35.3,140.4h-1.5v-1.6h1.5V140.4z M-35.3,151h-1.5v-8.5h1.5V151z"/>
				<path class="st13" d="M-31.6,142.6l0.1,1.3c0.3-0.4,0.6-0.8,1.1-1s0.9-0.4,1.4-0.4c0.9,0,1.6,0.3,2.1,0.8s0.8,1.4,0.8,2.5v5.3
					h-1.5v-5.3c0-0.7-0.1-1.3-0.4-1.6s-0.7-0.5-1.3-0.5c-0.4,0-0.8,0.1-1.2,0.3s-0.6,0.5-0.8,0.9v6.2H-33v-8.5H-31.6z"/>
				<path class="st13" d="M-18,151h-1.5v-11.4h1.5V151z"/>
				<path class="st13" d="M-4.9,148.2c0-0.5-0.2-1-0.6-1.3s-1.1-0.6-2.1-0.9c-1.2-0.3-2.1-0.7-2.8-1.3s-1-1.3-1-2.1
					c0-0.9,0.4-1.6,1.1-2.2c0.7-0.6,1.7-0.9,2.8-0.9c1.2,0,2.2,0.3,3,1s1.1,1.5,1.1,2.4l0,0h-1.5c0-0.7-0.2-1.2-0.7-1.6
					s-1.1-0.6-1.9-0.6c-0.8,0-1.4,0.2-1.8,0.5s-0.6,0.8-0.6,1.4c0,0.5,0.2,0.9,0.7,1.2s1.2,0.6,2.2,0.9c1.2,0.3,2.1,0.7,2.7,1.3
					s0.9,1.3,0.9,2.1c0,0.9-0.4,1.7-1.1,2.2s-1.7,0.8-2.9,0.8c-1.1,0-2.1-0.3-3-0.9s-1.3-1.4-1.3-2.5l0,0h1.5c0,0.7,0.3,1.3,0.8,1.7
					s1.2,0.6,2,0.6c0.8,0,1.4-0.2,1.8-0.5S-4.9,148.7-4.9,148.2z"/>
				<path class="st13" d="M0.6,140.5v2h1.6v1.1H0.6v5.1c0,0.4,0.1,0.7,0.2,0.8s0.4,0.2,0.7,0.2c0.1,0,0.2,0,0.3,0s0.2,0,0.3-0.1
					l0.2,1.1C2.2,151,2,151,1.8,151.1s-0.4,0.1-0.7,0.1c-0.6,0-1.1-0.2-1.5-0.6s-0.6-1-0.6-1.8v-5.1h-1.3v-1.1h1.3v-2H0.6z"/>
			</g>
			<g class="st8">
				<path class="st13" d="M9.3,151c-0.1-0.3-0.1-0.5-0.1-0.7c0-0.2,0-0.4-0.1-0.6c-0.3,0.4-0.7,0.7-1.1,1s-1,0.4-1.5,0.4
					c-0.9,0-1.6-0.2-2-0.7s-0.7-1.1-0.7-1.9c0-0.8,0.3-1.4,1-1.9c0.7-0.5,1.5-0.7,2.7-0.7h1.7v-0.8c0-0.5-0.2-0.9-0.5-1.2
					c-0.3-0.3-0.7-0.4-1.3-0.4c-0.5,0-0.9,0.1-1.2,0.4c-0.3,0.3-0.5,0.6-0.5,0.9H4.3l0,0c0-0.6,0.3-1.2,0.9-1.7
					c0.6-0.5,1.4-0.8,2.4-0.8c1,0,1.7,0.2,2.3,0.7c0.6,0.5,0.9,1.2,0.9,2.1v4.1c0,0.3,0,0.6,0,0.9s0.1,0.6,0.2,0.8H9.3z M6.7,149.9
					c0.6,0,1.1-0.1,1.5-0.4c0.4-0.3,0.7-0.6,0.9-1v-1.4H7.4c-0.6,0-1.1,0.2-1.5,0.5c-0.4,0.3-0.6,0.7-0.6,1.1c0,0.4,0.1,0.7,0.4,0.9
					S6.3,149.9,6.7,149.9z"/>
			</g>
			<g class="st8">
				<path class="st13" d="M15.4,147.9l0.3,1.1h0l2.1-6.4h1.7l-3.6,9.8c-0.2,0.6-0.5,1.1-0.9,1.5c-0.4,0.4-0.9,0.6-1.6,0.6
					c-0.1,0-0.3,0-0.5,0c-0.2,0-0.3-0.1-0.4-0.1l0.2-1.2c0,0,0.1,0,0.3,0c0.2,0,0.4,0,0.4,0c0.3,0,0.6-0.1,0.8-0.4
					c0.2-0.3,0.4-0.6,0.5-1l0.4-0.9l-3.1-8.3h1.7L15.4,147.9z"/>
				<path class="st13" d="M25.7,148.8c0-0.3-0.1-0.6-0.4-0.8s-0.7-0.4-1.5-0.6c-1-0.2-1.8-0.5-2.3-0.9c-0.5-0.4-0.8-0.9-0.8-1.6
					c0-0.7,0.3-1.3,0.9-1.8c0.6-0.5,1.3-0.7,2.3-0.7c1,0,1.8,0.3,2.3,0.8c0.6,0.5,0.9,1.1,0.8,1.8l0,0h-1.5c0-0.4-0.2-0.7-0.5-1
					c-0.3-0.3-0.7-0.4-1.2-0.4c-0.5,0-1,0.1-1.2,0.4s-0.4,0.5-0.4,0.9c0,0.3,0.1,0.6,0.4,0.8s0.7,0.4,1.4,0.5
					c1.1,0.2,1.9,0.5,2.4,0.9c0.5,0.4,0.8,0.9,0.8,1.6c0,0.8-0.3,1.4-0.9,1.8c-0.6,0.5-1.4,0.7-2.4,0.7c-1.1,0-1.9-0.3-2.5-0.8
					c-0.6-0.5-0.9-1.2-0.9-1.9l0,0H22c0,0.5,0.2,0.9,0.6,1.2c0.4,0.3,0.8,0.4,1.3,0.4c0.5,0,1-0.1,1.3-0.3
					C25.6,149.4,25.7,149.1,25.7,148.8z"/>
				<path class="st13" d="M34.8,140.4h-1.5v-1.6h1.5V140.4z M34.8,151h-1.5v-8.5h1.5V151z"/>
				<path class="st13" d="M38.6,142.6l0.1,1.3c0.3-0.4,0.6-0.8,1.1-1s0.9-0.4,1.4-0.4c0.9,0,1.6,0.3,2.1,0.8s0.8,1.4,0.8,2.5v5.3
					h-1.5v-5.3c0-0.7-0.1-1.3-0.4-1.6s-0.7-0.5-1.3-0.5c-0.4,0-0.8,0.1-1.2,0.3s-0.6,0.5-0.8,0.9v6.2h-1.5v-8.5H38.6z"/>
				<path class="st13" d="M52.2,151h-1.5v-11.4h1.5V151z"/>
				<path class="st13" d="M67.3,149.5c-0.3,0.4-0.7,0.8-1.4,1.1s-1.5,0.5-2.6,0.5c-1.4,0-2.5-0.4-3.4-1.3s-1.3-2-1.3-3.4v-2.3
					c0-1.4,0.4-2.5,1.2-3.4s1.9-1.3,3.2-1.3c1.3,0,2.3,0.3,3.1,1s1.1,1.5,1.1,2.5l0,0h-1.5c0-0.7-0.3-1.2-0.8-1.6s-1.1-0.6-2-0.6
					c-0.9,0-1.6,0.3-2.1,1s-0.8,1.5-0.8,2.5v2.4c0,1,0.3,1.8,0.9,2.5s1.3,1,2.3,1c0.6,0,1.2-0.1,1.6-0.3c0.4-0.2,0.7-0.4,0.9-0.6
					v-2.6h-2.5v-1.2h4V149.5z"/>
				<path class="st13" d="M69.3,146.7c0-1.2,0.3-2.3,1-3.1s1.6-1.2,2.8-1.2c1.2,0,2.1,0.4,2.8,1.2s1,1.8,1,3.1v0.2
					c0,1.3-0.3,2.3-1,3.1s-1.6,1.2-2.8,1.2s-2.1-0.4-2.8-1.2s-1-1.8-1-3.1V146.7z M70.9,146.9c0,0.9,0.2,1.6,0.6,2.2
					c0.4,0.6,0.9,0.9,1.7,0.9c0.7,0,1.3-0.3,1.7-0.9c0.4-0.6,0.6-1.3,0.6-2.2v-0.2c0-0.9-0.2-1.6-0.6-2.2s-0.9-0.9-1.7-0.9
					c-0.7,0-1.3,0.3-1.7,0.9s-0.6,1.3-0.6,2.2V146.9z"/>
				<path class="st13" d="M82.3,151.2c-1.2,0-2.1-0.4-2.8-1.2s-1-1.8-1-3.1v-0.3c0-1.2,0.4-2.2,1.1-3s1.6-1.2,2.5-1.2
					c1.1,0,2,0.3,2.6,1s0.9,1.6,0.9,2.8v1H80l0,0c0,0.8,0.2,1.5,0.6,2c0.4,0.5,1,0.8,1.7,0.8c0.5,0,1-0.1,1.4-0.2s0.7-0.4,1-0.6
					l0.6,1c-0.3,0.3-0.7,0.5-1.2,0.7S83,151.2,82.3,151.2z M82,143.6c-0.5,0-1,0.2-1.3,0.7s-0.6,1-0.7,1.6l0,0H84v-0.2
					c0-0.6-0.2-1.1-0.5-1.5C83.2,143.8,82.7,143.6,82,143.6z"/>
				<path class="st13" d="M92.1,148.8c0-0.3-0.1-0.6-0.4-0.8s-0.7-0.4-1.5-0.6c-1-0.2-1.8-0.5-2.3-0.9c-0.5-0.4-0.8-0.9-0.8-1.6
					c0-0.7,0.3-1.3,0.9-1.8s1.3-0.7,2.3-0.7c1,0,1.8,0.3,2.3,0.8s0.9,1.1,0.8,1.8l0,0h-1.5c0-0.4-0.2-0.7-0.5-1s-0.7-0.4-1.2-0.4
					c-0.5,0-1,0.1-1.2,0.4s-0.4,0.5-0.4,0.9c0,0.3,0.1,0.6,0.4,0.8s0.7,0.4,1.4,0.5c1.1,0.2,1.9,0.5,2.4,0.9s0.8,0.9,0.8,1.6
					c0,0.8-0.3,1.4-0.9,1.8s-1.4,0.7-2.4,0.7c-1.1,0-1.9-0.3-2.5-0.8s-0.9-1.2-0.9-1.9l0,0h1.5c0,0.5,0.2,0.9,0.6,1.2
					s0.8,0.4,1.3,0.4c0.5,0,1-0.1,1.3-0.3S92.1,149.1,92.1,148.8z"/>
				<path class="st13" d="M99.2,146.7c0-1.2,0.3-2.3,1-3.1s1.6-1.2,2.8-1.2c1.2,0,2.1,0.4,2.8,1.2s1,1.8,1,3.1v0.2
					c0,1.3-0.3,2.3-1,3.1s-1.6,1.2-2.8,1.2s-2.1-0.4-2.8-1.2s-1-1.8-1-3.1V146.7z M100.8,146.9c0,0.9,0.2,1.6,0.6,2.2
					c0.4,0.6,0.9,0.9,1.7,0.9c0.7,0,1.3-0.3,1.7-0.9c0.4-0.6,0.6-1.3,0.6-2.2v-0.2c0-0.9-0.2-1.6-0.6-2.2s-0.9-0.9-1.7-0.9
					c-0.7,0-1.3,0.3-1.7,0.9s-0.6,1.3-0.6,2.2V146.9z"/>
				<path class="st13" d="M114,149.8c-0.3,0.5-0.6,0.8-1,1s-0.9,0.4-1.4,0.4c-0.9,0-1.6-0.3-2.2-0.9s-0.8-1.5-0.8-2.8v-5h1.5v5
					c0,0.9,0.1,1.5,0.4,1.9s0.7,0.5,1.2,0.5c0.5,0,1-0.1,1.4-0.3s0.6-0.5,0.8-0.9v-6.1h1.5v8.5h-1.4L114,149.8z"/>
				<path class="st13" d="M119.8,140.5v2h1.6v1.1h-1.6v5.1c0,0.4,0.1,0.7,0.2,0.8s0.4,0.2,0.7,0.2c0.1,0,0.2,0,0.3,0s0.2,0,0.3-0.1
					l0.2,1.1c-0.1,0.1-0.3,0.2-0.5,0.2s-0.4,0.1-0.7,0.1c-0.6,0-1.1-0.2-1.5-0.6s-0.6-1-0.6-1.8v-5.1h-1.3v-1.1h1.3v-2H119.8z"/>
			</g>
		</g>
		<rect x="-35" y="303.3" class="st14" width="121.3" height="34.7"/>
		<path class="st14" d="M209.4,337.9H95.3c-1.3,0-2.4-1.1-2.4-2.4v-29.9c0-1.3,1.1-2.4,2.4-2.4h114.1c1.3,0,2.4,1.1,2.4,2.4v29.9
			C211.8,336.9,210.7,337.9,209.4,337.9z"/>
		<rect x="92.9" y="176.6" class="st14" width="118.9" height="34.7"/>
		<path d="M198.9,191.8l-6,7.2l-5.9-7.2H198.9z"/>
		<g>
			<g class="st8">
				<path d="M111,193.7c0-1.4,0.3-2.5,0.9-3.3c0.6-0.8,1.4-1.2,2.4-1.2c0.5,0,0.9,0.1,1.3,0.3s0.7,0.4,1,0.8v-4.6h1.5v12.2h-1.3
					l-0.2-1c-0.3,0.4-0.6,0.7-1,0.9c-0.4,0.2-0.9,0.3-1.4,0.3c-1,0-1.8-0.4-2.4-1.1c-0.6-0.7-0.9-1.7-0.9-2.9V193.7z M112.5,193.8
					c0,0.9,0.2,1.5,0.5,2.1c0.3,0.5,0.9,0.8,1.6,0.8c0.5,0,0.8-0.1,1.2-0.3s0.6-0.5,0.8-0.9v-3.9c-0.2-0.3-0.5-0.6-0.8-0.8
					c-0.3-0.2-0.7-0.3-1.1-0.3c-0.7,0-1.3,0.3-1.6,0.9s-0.5,1.4-0.5,2.4V193.8z"/>
			</g>
			<g class="st8">
				<path d="M125.6,197.7c-0.1-0.3-0.1-0.5-0.1-0.7c0-0.2,0-0.4-0.1-0.6c-0.3,0.4-0.7,0.7-1.1,1s-1,0.4-1.5,0.4
					c-0.9,0-1.6-0.2-2-0.7s-0.7-1.1-0.7-1.9c0-0.8,0.3-1.4,1-1.9c0.7-0.5,1.5-0.7,2.7-0.7h1.7V192c0-0.5-0.2-0.9-0.5-1.2
					c-0.3-0.3-0.7-0.4-1.3-0.4c-0.5,0-0.9,0.1-1.2,0.4c-0.3,0.3-0.5,0.6-0.5,0.9h-1.5l0,0c0-0.6,0.3-1.2,0.9-1.7
					c0.6-0.5,1.4-0.8,2.4-0.8c1,0,1.7,0.2,2.3,0.7c0.6,0.5,0.9,1.2,0.9,2.1v4.1c0,0.3,0,0.6,0,0.9s0.1,0.6,0.2,0.8H125.6z
					 M123.1,196.6c0.6,0,1.1-0.1,1.5-0.4c0.4-0.3,0.7-0.6,0.9-1v-1.4h-1.7c-0.6,0-1.1,0.2-1.5,0.5c-0.4,0.3-0.6,0.7-0.6,1.1
					c0,0.4,0.1,0.7,0.4,0.9S122.6,196.6,123.1,196.6z"/>
			</g>
			<g class="st8">
				<path d="M131.7,194.6l0.3,1.1h0l2.1-6.4h1.7l-3.6,9.8c-0.2,0.6-0.5,1.1-0.9,1.5s-0.9,0.6-1.6,0.6c-0.1,0-0.3,0-0.5,0
					c-0.2,0-0.3-0.1-0.4-0.1l0.2-1.2c0,0,0.1,0,0.3,0c0.2,0,0.4,0,0.4,0c0.3,0,0.6-0.1,0.8-0.4c0.2-0.3,0.4-0.6,0.5-1l0.4-0.9
					l-3.1-8.3h1.7L131.7,194.6z"/>
				<path d="M142.1,195.5c0-0.3-0.1-0.6-0.4-0.8s-0.7-0.4-1.5-0.6c-1-0.2-1.8-0.5-2.3-0.9c-0.5-0.4-0.8-0.9-0.8-1.6
					c0-0.7,0.3-1.3,0.9-1.8c0.6-0.5,1.3-0.7,2.3-0.7c1,0,1.8,0.3,2.3,0.8c0.6,0.5,0.9,1.1,0.8,1.8l0,0H142c0-0.4-0.2-0.7-0.5-1
					c-0.3-0.3-0.7-0.4-1.2-0.4c-0.5,0-1,0.1-1.2,0.4s-0.4,0.5-0.4,0.9c0,0.3,0.1,0.6,0.4,0.8s0.7,0.4,1.4,0.5
					c1.1,0.2,1.9,0.5,2.4,0.9c0.5,0.4,0.8,0.9,0.8,1.6c0,0.8-0.3,1.4-0.9,1.8c-0.6,0.5-1.4,0.7-2.4,0.7c-1.1,0-1.9-0.3-2.5-0.8
					c-0.6-0.5-0.9-1.2-0.9-1.9l0,0h1.5c0,0.5,0.2,0.9,0.6,1.2c0.4,0.3,0.8,0.4,1.3,0.4c0.5,0,1-0.1,1.3-0.3
					C141.9,196.1,142.1,195.8,142.1,195.5z"/>
			</g>
		</g>
		<path class="st14" d="M82.7,211.2H-31.4c-1.3,0-2.4-1.1-2.4-2.4V179c0-1.3,1.1-2.4,2.4-2.4H82.7c1.3,0,2.4,1.1,2.4,2.4v29.9
			C85.1,210.2,84,211.2,82.7,211.2z"/>
		<rect x="174.8" y="119.7" class="st2" width="153" height="57.4"/>
		<path class="st3" d="M183.7,145.4l6.6-6.6v-13.1h129.1v40.6H190.3V152L183.7,145.4z"/>
		<path class="st15" d="M183.7,145.4l6.6-6.6v-13.1h129.1v40.6H190.3V152L183.7,145.4z"/>
		<line class="st15" x1="184.3" y1="145.4" x2="168.8" y2="145.4"/>
		<g>
			<g class="st8">
				<path class="st5" d="M217.7,138.8h-4.1v11.4h-1.7v-11.4h-4.1v-1.4h9.9V138.8z"/>
			</g>
			<g class="st8">
				<path class="st5" d="M223.2,142.3l-0.9-0.1c-0.5,0-0.8,0.1-1.2,0.3s-0.6,0.5-0.7,0.9v6.8h-1.7v-9.5h1.5l0.2,1.4
					c0.3-0.5,0.6-0.9,1-1.2s0.9-0.4,1.4-0.4c0.1,0,0.3,0,0.4,0s0.2,0,0.3,0.1L223.2,142.3z"/>
				<path class="st5" d="M230.7,150.2c-0.1-0.3-0.1-0.5-0.1-0.8c0-0.2-0.1-0.4-0.1-0.7c-0.3,0.5-0.7,0.8-1.3,1.1
					c-0.5,0.3-1.1,0.5-1.7,0.5c-1,0-1.7-0.3-2.3-0.8c-0.5-0.5-0.8-1.2-0.8-2.1c0-0.9,0.4-1.6,1.1-2.1s1.7-0.8,3-0.8h1.9v-0.9
					c0-0.6-0.2-1-0.5-1.3c-0.3-0.3-0.8-0.5-1.4-0.5c-0.6,0-1,0.1-1.4,0.4s-0.5,0.6-0.5,1H225l0-0.1c0-0.7,0.3-1.3,1-1.9
					s1.6-0.9,2.7-0.9c1.1,0,1.9,0.3,2.6,0.8s1,1.3,1,2.4v4.6c0,0.3,0,0.7,0.1,1s0.1,0.6,0.2,0.9H230.7z M227.8,149
					c0.6,0,1.2-0.2,1.7-0.5s0.8-0.7,1-1.1v-1.5h-1.9c-0.7,0-1.3,0.2-1.7,0.5c-0.4,0.4-0.6,0.8-0.6,1.2c0,0.4,0.1,0.8,0.4,1
					S227.3,149,227.8,149z"/>
				<path class="st5" d="M234.3,145.7c0-1.5,0.3-2.8,1-3.7c0.7-0.9,1.6-1.4,2.7-1.4c0.6,0,1.1,0.1,1.5,0.3c0.4,0.2,0.8,0.5,1.1,0.9
					v-5.2h1.7v13.7H241l-0.2-1.2c-0.3,0.4-0.7,0.8-1.1,1s-1,0.3-1.6,0.3c-1.2,0-2.1-0.4-2.7-1.3s-1-1.9-1-3.3V145.7z M236.1,145.8
					c0,1,0.2,1.7,0.6,2.3c0.4,0.6,1,0.9,1.8,0.9c0.5,0,0.9-0.1,1.3-0.4s0.6-0.6,0.9-1v-4.4c-0.2-0.4-0.5-0.7-0.9-0.9
					c-0.4-0.2-0.8-0.3-1.3-0.3c-0.8,0-1.4,0.3-1.8,1c-0.4,0.7-0.6,1.6-0.6,2.7V145.8z"/>
				<path class="st5" d="M248.9,150.4c-1.3,0-2.4-0.4-3.2-1.3c-0.8-0.9-1.2-2-1.2-3.4v-0.4c0-1.4,0.4-2.5,1.2-3.4s1.8-1.3,2.9-1.3
					c1.3,0,2.3,0.4,2.9,1.2s1,1.8,1,3.1v1.1h-6.2l0,0c0,0.9,0.2,1.7,0.7,2.2s1.1,0.9,1.9,0.9c0.6,0,1.1-0.1,1.5-0.2
					c0.4-0.2,0.8-0.4,1.1-0.7l0.7,1.1c-0.3,0.3-0.8,0.6-1.3,0.8C250.4,150.3,249.7,150.4,248.9,150.4z M248.6,141.9
					c-0.6,0-1.1,0.2-1.5,0.7s-0.7,1.1-0.8,1.8l0,0h4.4v-0.2c0-0.7-0.2-1.2-0.5-1.7C249.9,142.1,249.4,141.9,248.6,141.9z"/>
				<path class="st5" d="M261.2,138.4v2.3h1.8v1.3h-1.8v5.8c0,0.4,0.1,0.8,0.3,0.9c0.2,0.2,0.4,0.3,0.7,0.3c0.1,0,0.2,0,0.3,0
					c0.1,0,0.2-0.1,0.3-0.1l0.2,1.2c-0.1,0.1-0.3,0.2-0.6,0.3c-0.2,0.1-0.5,0.1-0.8,0.1c-0.7,0-1.3-0.2-1.7-0.6
					c-0.4-0.4-0.6-1.1-0.6-2V142H258v-1.3h1.5v-2.3H261.2z"/>
				<path class="st5" d="M268.1,146.7l0.3,1.2h0.1l2.3-7.2h1.9l-4,11c-0.2,0.6-0.6,1.2-1,1.7c-0.4,0.5-1.1,0.7-1.8,0.7
					c-0.1,0-0.3,0-0.5,0c-0.2,0-0.4-0.1-0.5-0.1l0.2-1.4c0,0,0.1,0,0.3,0s0.4,0,0.5,0c0.4,0,0.7-0.2,0.9-0.5s0.4-0.7,0.6-1.1l0.4-1
					l-3.5-9.3h1.9L268.1,146.7z"/>
				<path class="st5" d="M282.3,145.8c0,1.4-0.3,2.5-1,3.3s-1.6,1.3-2.7,1.3c-0.6,0-1.1-0.1-1.5-0.3c-0.4-0.2-0.8-0.5-1.1-0.9v4.6
					h-1.7v-13.2h1.3l0.3,1.2c0.3-0.5,0.7-0.8,1.2-1s1-0.4,1.6-0.4c1.2,0,2.1,0.5,2.7,1.4c0.7,0.9,1,2.2,1,3.7V145.8z M280.6,145.7
					c0-1.1-0.2-2-0.6-2.7c-0.4-0.7-1.1-1-1.9-1c-0.5,0-0.9,0.1-1.3,0.3s-0.6,0.5-0.9,0.9v4.6c0.2,0.4,0.5,0.7,0.9,0.9
					s0.8,0.3,1.3,0.3c0.8,0,1.4-0.3,1.9-0.9c0.4-0.6,0.6-1.4,0.6-2.3V145.7z"/>
				<path class="st5" d="M288.4,150.4c-1.3,0-2.4-0.4-3.2-1.3c-0.8-0.9-1.2-2-1.2-3.4v-0.4c0-1.4,0.4-2.5,1.2-3.4s1.8-1.3,2.9-1.3
					c1.3,0,2.3,0.4,2.9,1.2s1,1.8,1,3.1v1.1h-6.2l0,0c0,0.9,0.2,1.7,0.7,2.2s1.1,0.9,1.9,0.9c0.6,0,1.1-0.1,1.5-0.2
					c0.4-0.2,0.8-0.4,1.1-0.7l0.7,1.1c-0.3,0.3-0.8,0.6-1.3,0.8C289.9,150.3,289.2,150.4,288.4,150.4z M288.1,141.9
					c-0.6,0-1.1,0.2-1.5,0.7s-0.7,1.1-0.8,1.8l0,0h4.4v-0.2c0-0.7-0.2-1.2-0.5-1.7C289.4,142.1,288.8,141.9,288.1,141.9z"/>
			</g>
		</g>
		<path class="st14" d="M82.3,255.5H-31.9c-1.3,0-2.4-1.1-2.4-2.4v-29.9c0-1.3,1.1-2.4,2.4-2.4H82.3c1.3,0,2.4,1.1,2.4,2.4v29.9
			C84.7,254.4,83.6,255.5,82.3,255.5z"/>
		<g>
			<g class="st8">
				<path d="M-12.6,233.6c0,0.6-0.2,1.1-0.5,1.6c-0.3,0.4-0.8,0.8-1.4,1c0.7,0.2,1.2,0.6,1.6,1.1c0.4,0.5,0.6,1.1,0.6,1.7
					c0,1.1-0.3,1.9-1,2.4c-0.7,0.6-1.6,0.8-2.7,0.8c-1.1,0-2-0.3-2.7-0.8s-1-1.4-1-2.4c0-0.6,0.2-1.2,0.6-1.7
					c0.4-0.5,0.9-0.8,1.6-1.1c-0.6-0.2-1-0.6-1.3-1c-0.3-0.4-0.5-1-0.5-1.6c0-1,0.3-1.8,0.9-2.3s1.4-0.8,2.4-0.8
					c1,0,1.8,0.3,2.4,0.8S-12.6,232.6-12.6,233.6z M-13.8,238.8c0-0.6-0.2-1.1-0.6-1.5c-0.4-0.4-0.9-0.6-1.6-0.6
					c-0.6,0-1.2,0.2-1.6,0.6s-0.6,0.9-0.6,1.5c0,0.6,0.2,1.2,0.6,1.5c0.4,0.4,0.9,0.5,1.6,0.5c0.6,0,1.2-0.2,1.6-0.6
					C-14,240-13.8,239.5-13.8,238.8z M-14.1,233.6c0-0.6-0.2-1-0.5-1.4s-0.8-0.6-1.3-0.6c-0.5,0-1,0.2-1.3,0.5
					c-0.3,0.4-0.5,0.8-0.5,1.4c0,0.6,0.2,1,0.5,1.4c0.3,0.3,0.8,0.5,1.3,0.5c0.5,0,1-0.2,1.3-0.5S-14.1,234.2-14.1,233.6z"/>
				<path d="M-10.1,236.8l0.7-6.2h5.7v1.4h-4.4l-0.4,3.2c0.2-0.2,0.5-0.3,0.8-0.4c0.3-0.1,0.6-0.2,1-0.2c1,0,1.9,0.3,2.5,1
					s0.9,1.6,0.9,2.8c0,1.1-0.3,2.1-0.9,2.8s-1.5,1-2.7,1c-1,0-1.8-0.3-2.4-0.8s-0.9-1.3-0.9-2.3l0,0h1.4c0,0.6,0.2,1.1,0.5,1.4
					c0.4,0.3,0.8,0.5,1.4,0.5c0.7,0,1.2-0.2,1.5-0.7s0.5-1.1,0.5-1.9c0-0.7-0.2-1.3-0.5-1.8c-0.4-0.5-0.9-0.7-1.5-0.7
					c-0.6,0-1,0.1-1.3,0.3c-0.3,0.2-0.5,0.5-0.6,0.8L-10.1,236.8z"/>
				<path d="M0.3,242h-1.5v-1.6h1.5V242z"/>
				<path d="M7.1,230.4c0.4,0,0.8,0,1.2,0.1s0.7,0.2,0.9,0.3l-0.3,1.2c-0.3-0.1-0.5-0.2-0.8-0.3s-0.6-0.1-1-0.1c-0.8,0-1.5,0.3-2,1
					s-0.7,1.5-0.7,2.5v0.2c0.3-0.3,0.7-0.5,1.1-0.7s0.9-0.2,1.4-0.2c1,0,1.8,0.4,2.4,1.1s0.9,1.6,0.9,2.7c0,1.2-0.3,2.1-1,2.9
					s-1.5,1.1-2.6,1.1c-1.1,0-2-0.4-2.8-1.2s-1.1-1.9-1.1-3.4v-2.2c0-1.5,0.4-2.6,1.2-3.5S5.9,230.4,7.1,230.4z M6.5,235.6
					c-0.5,0-1,0.1-1.3,0.3c-0.4,0.2-0.7,0.5-0.8,0.8v0.9c0,1,0.2,1.9,0.7,2.4c0.4,0.6,1,0.9,1.7,0.9c0.6,0,1.1-0.3,1.5-0.8
					s0.5-1.2,0.5-2c0-0.7-0.2-1.4-0.6-1.8S7.2,235.6,6.5,235.6z"/>
				<path d="M12.2,236.8l0.7-6.2h5.7v1.4h-4.4l-0.4,3.2c0.2-0.2,0.5-0.3,0.8-0.4s0.6-0.2,1-0.2c1,0,1.9,0.3,2.5,1s0.9,1.6,0.9,2.8
					c0,1.1-0.3,2.1-0.9,2.8s-1.5,1-2.7,1c-1,0-1.8-0.3-2.4-0.8S12,240,12,239l0,0h1.4c0,0.6,0.2,1.1,0.5,1.4s0.8,0.5,1.4,0.5
					c0.7,0,1.2-0.2,1.5-0.7s0.5-1.1,0.5-1.9c0-0.7-0.2-1.3-0.5-1.8s-0.9-0.7-1.5-0.7c-0.6,0-1,0.1-1.3,0.3s-0.5,0.5-0.6,0.8
					L12.2,236.8z"/>
				<path d="M28.1,242h-7.4v-1.1l3.7-4.1c0.7-0.7,1.1-1.3,1.4-1.8s0.4-0.9,0.4-1.3c0-0.6-0.2-1-0.5-1.4s-0.8-0.6-1.3-0.6
					c-0.8,0-1.4,0.2-1.7,0.6s-0.6,1-0.6,1.7h-1.5l0,0c0-1,0.3-1.8,1-2.5s1.6-1,2.8-1c1,0,1.8,0.3,2.4,0.9s0.9,1.4,0.9,2.3
					c0,0.6-0.2,1.2-0.6,1.9s-0.9,1.3-1.5,2l-3,3.2l0,0h5.5V242z"/>
			</g>
		</g>
		<path class="st14" d="M82.3,296.1H-31.9c-1.3,0-2.4-1.1-2.4-2.4v-29.9c0-1.3,1.1-2.4,2.4-2.4H82.3c1.3,0,2.4,1.1,2.4,2.4v29.9
			C84.7,295,83.6,296.1,82.3,296.1z"/>
		<g>
			<g class="st8">
				<path d="M-12.6,274.2c0,0.6-0.2,1.1-0.5,1.6c-0.3,0.4-0.8,0.8-1.4,1c0.7,0.2,1.2,0.6,1.6,1.1c0.4,0.5,0.6,1.1,0.6,1.7
					c0,1.1-0.3,1.9-1,2.4c-0.7,0.6-1.6,0.8-2.7,0.8c-1.1,0-2-0.3-2.7-0.8s-1-1.4-1-2.4c0-0.6,0.2-1.2,0.6-1.7
					c0.4-0.5,0.9-0.8,1.6-1.1c-0.6-0.2-1-0.6-1.3-1c-0.3-0.4-0.5-1-0.5-1.6c0-1,0.3-1.8,0.9-2.3s1.4-0.8,2.4-0.8
					c1,0,1.8,0.3,2.4,0.8S-12.6,273.2-12.6,274.2z M-13.8,279.5c0-0.6-0.2-1.1-0.6-1.5c-0.4-0.4-0.9-0.6-1.6-0.6
					c-0.6,0-1.2,0.2-1.6,0.6s-0.6,0.9-0.6,1.5c0,0.6,0.2,1.2,0.6,1.5c0.4,0.4,0.9,0.5,1.6,0.5c0.6,0,1.2-0.2,1.6-0.6
					C-14,280.6-13.8,280.1-13.8,279.5z M-14.1,274.2c0-0.6-0.2-1-0.5-1.4s-0.8-0.6-1.3-0.6c-0.5,0-1,0.2-1.3,0.5
					c-0.3,0.4-0.5,0.8-0.5,1.4c0,0.6,0.2,1,0.5,1.4c0.3,0.3,0.8,0.5,1.3,0.5c0.5,0,1-0.2,1.3-0.5S-14.1,274.8-14.1,274.2z"/>
				<path d="M-4.4,278.8h1.6v1.2h-1.6v2.6H-6V280h-5.1v-0.9l5-7.9h1.6V278.8z M-9.4,278.8H-6v-5.3l0,0l-0.1,0.4L-9.4,278.8z"/>
				<path d="M0.3,282.6h-1.5V281h1.5V282.6z"/>
				<path d="M9.7,274.2c0,0.6-0.2,1.1-0.5,1.6s-0.8,0.8-1.4,1c0.7,0.2,1.2,0.6,1.6,1.1s0.6,1.1,0.6,1.7c0,1.1-0.3,1.9-1,2.4
					s-1.6,0.8-2.7,0.8c-1.1,0-2-0.3-2.7-0.8s-1-1.4-1-2.4c0-0.6,0.2-1.2,0.6-1.7s0.9-0.8,1.6-1.1c-0.6-0.2-1-0.6-1.3-1
					s-0.5-1-0.5-1.6c0-1,0.3-1.8,0.9-2.3s1.4-0.8,2.4-0.8c1,0,1.8,0.3,2.4,0.8S9.7,273.2,9.7,274.2z M8.5,279.5
					c0-0.6-0.2-1.1-0.6-1.5s-0.9-0.6-1.6-0.6c-0.6,0-1.2,0.2-1.6,0.6s-0.6,0.9-0.6,1.5c0,0.6,0.2,1.2,0.6,1.5s0.9,0.5,1.6,0.5
					c0.6,0,1.2-0.2,1.6-0.6S8.5,280.1,8.5,279.5z M8.1,274.2c0-0.6-0.2-1-0.5-1.4s-0.8-0.6-1.3-0.6c-0.5,0-1,0.2-1.3,0.5
					s-0.5,0.8-0.5,1.4c0,0.6,0.2,1,0.5,1.4s0.8,0.5,1.3,0.5c0.5,0,1-0.2,1.3-0.5S8.1,274.8,8.1,274.2z"/>
				<path d="M16.1,282.6h-1.5v-9.9l-2.3,0v-1.1l3.9-0.4V282.6z"/>
				<path d="M21.2,277.5l0.7-6.2h5.7v1.4h-4.4l-0.4,3.2c0.2-0.2,0.5-0.3,0.8-0.4s0.6-0.2,1-0.2c1,0,1.9,0.3,2.5,1s0.9,1.6,0.9,2.8
					c0,1.1-0.3,2.1-0.9,2.8s-1.5,1-2.7,1c-1,0-1.8-0.3-2.4-0.8s-0.9-1.3-0.9-2.3l0,0h1.4c0,0.6,0.2,1.1,0.5,1.4s0.8,0.5,1.4,0.5
					c0.7,0,1.2-0.2,1.5-0.7s0.5-1.1,0.5-1.9c0-0.7-0.2-1.3-0.5-1.8s-0.9-0.7-1.5-0.7c-0.6,0-1,0.1-1.3,0.3s-0.5,0.5-0.6,0.8
					L21.2,277.5z"/>
			</g>
		</g>
	</g>
</g>
<ellipse class="st2" cx="154.6" cy="150.6" rx="145.6" ry="144.6"/>
<ellipse class="st16" cx="154.6" cy="150.6" rx="145.1" ry="144.1"/>
</svg>
