<?xml version="1.0" encoding="utf-8"?>
<!-- Generator: Adobe Illustrator 21.0.2, SVG Export Plug-In . SVG Version: 6.00 Build 0)  -->
<svg version="1.1" id="Layer_1" xmlns="http://www.w3.org/2000/svg" xmlns:xlink="http://www.w3.org/1999/xlink" x="0px" y="0px"
	 viewBox="0 0 309.3 307.3" style="enable-background:new 0 0 309.3 307.3;" xml:space="preserve">
<style type="text/css">
	.st0{clip-path:url(#SVGID_2_);}
	.st1{fill:none;}
	.st2{fill:#FFFFFF;}
	.st3{fill:#F1F1F1;}
	.st4{fill:#004384;}
	.st5{enable-background:new    ;}
	.st6{fill:none;stroke:#F1F1F1;stroke-miterlimit:10;}
	.st7{fill:#808080;}
	.st8{fill:none;stroke:#004384;stroke-width:0.76;stroke-miterlimit:10;}
	.st9{fill:none;stroke:#004384;stroke-width:2;stroke-miterlimit:10;}
	.st10{fill:none;stroke:#004384;}
</style>
<title>Artboard 1</title>
<g>
	<defs>
		<path id="SVGID_1_" d="M154.6,6.5c80.2,0,145.1,64.5,145.1,144.1s-65,144.1-145.1,144.1S9.5,230.2,9.5,150.6S74.5,6.5,154.6,6.5z"
			/>
	</defs>
	<clipPath id="SVGID_2_">
		<use xlink:href="#SVGID_1_"  style="overflow:visible;"/>
	</clipPath>
	<g class="st0">
		<rect x="149.7" y="-15" class="st1" width="435" height="492.4"/>
		<rect x="157.5" y="-9.6" class="st2" width="419.5" height="476.9"/>
		<path class="st3" d="M576.4-9v475.7H158.1V-9H576.4 M577.6-10.2H156.9v478.1h420.7V-10.2z"/>
		<rect x="157.4" y="-9.7" class="st4" width="419.7" height="40.9"/>
		<path class="st4" d="M576.6-9.2v40H157.8v-40H576.6 M577.6-10.2H156.9v41.9h420.7L577.6-10.2z"/>
		<g>
			<g class="st5">
				<path class="st2" d="M185.4,13.9h-5.7l-1.3,3.5h-1.9l5.2-13.5h1.6l5.1,13.5h-1.9L185.4,13.9z M180.3,12.4h4.5l-2.2-6.2h-0.1
					L180.3,12.4z"/>
				<path class="st2" d="M200.3,3.9V13c0,1.5-0.5,2.6-1.4,3.4c-1,0.8-2.2,1.2-3.7,1.2c-1.5,0-2.7-0.4-3.6-1.2
					c-0.9-0.8-1.4-1.9-1.4-3.4V3.9h1.8V13c0,1,0.3,1.8,0.9,2.3c0.6,0.5,1.3,0.8,2.3,0.8c1,0,1.8-0.3,2.4-0.8
					c0.6-0.5,0.9-1.3,0.9-2.3V3.9H200.3z"/>
				<path class="st2" d="M203.2,17.4V3.9h4.1c1.8,0,3.2,0.5,4.3,1.6c1.1,1.1,1.6,2.5,1.6,4.2v1.8c0,1.7-0.5,3.1-1.6,4.2
					c-1.1,1.1-2.5,1.6-4.3,1.6H203.2z M205.1,5.3v10.6h2.3c1.2,0,2.2-0.4,3-1.2c0.7-0.8,1.1-1.9,1.1-3.2V9.7c0-1.3-0.4-2.3-1.1-3.1
					s-1.7-1.2-3-1.2H205.1z"/>
				<path class="st2" d="M215.8,18.5h-1.6l5.6-14.7h1.5L215.8,18.5z"/>
				<path class="st2" d="M229.1,3.9h1.8v9.8c0,1.2-0.4,2.2-1.1,2.9s-1.8,1.1-3,1.1c-1.3,0-2.3-0.3-3.1-1c-0.8-0.7-1.1-1.6-1.1-2.9
					l0-0.1h1.8c0,0.8,0.2,1.5,0.6,1.9c0.4,0.4,1,0.6,1.8,0.6c0.7,0,1.2-0.2,1.7-0.7c0.4-0.5,0.6-1.1,0.6-1.8V3.9z"/>
				<path class="st2" d="M236,12v5.4h-1.8V3.9h5.2c1.4,0,2.6,0.4,3.4,1.1c0.8,0.7,1.2,1.7,1.2,2.9c0,1.2-0.4,2.2-1.2,2.9
					c-0.8,0.7-1.9,1.1-3.4,1.1H236z M236,10.5h3.3c0.9,0,1.6-0.2,2-0.7c0.5-0.5,0.7-1.1,0.7-1.9s-0.2-1.4-0.7-1.9
					c-0.5-0.5-1.1-0.8-2-0.8H236V10.5z"/>
				<path class="st2" d="M250.4,10.7l3.5-6.9h2.1l-4.7,8.8v4.8h-1.8v-4.9l-4.7-8.6h2.1L250.4,10.7z"/>
			</g>
		</g>
		<rect x="162.9" y="34.8" class="st6" width="174.5" height="34.7"/>
		<g>
			<g class="st5">
				<path d="M182.6,55.9h-1.5V44.5h1.5V55.9z"/>
				<path d="M186.6,47.5l0.1,1.3c0.3-0.4,0.6-0.8,1.1-1s0.9-0.4,1.4-0.4c0.9,0,1.6,0.3,2.1,0.8s0.8,1.4,0.8,2.5v5.3h-1.5v-5.3
					c0-0.7-0.1-1.3-0.4-1.6s-0.7-0.5-1.3-0.5c-0.4,0-0.8,0.1-1.2,0.3s-0.6,0.5-0.8,0.9v6.2h-1.5v-8.5H186.6z"/>
				<path d="M194.6,56.9h-1.3l4.8-12.4h1.3L194.6,56.9z"/>
				<path d="M209.9,51.2c0,1.4-0.4,2.5-1.3,3.5s-2,1.4-3.4,1.4c-1.3,0-2.4-0.5-3.2-1.4s-1.2-2.1-1.2-3.5v-2c0-1.4,0.4-2.5,1.2-3.5
					s1.9-1.4,3.2-1.4c1.4,0,2.5,0.5,3.4,1.4s1.3,2.1,1.3,3.5V51.2z M208.3,49.2c0-1-0.3-1.9-0.8-2.6s-1.3-1-2.3-1
					c-0.9,0-1.6,0.3-2.1,1s-0.8,1.5-0.8,2.6v2c0,1.1,0.3,1.9,0.8,2.6s1.2,1,2.1,1c1,0,1.7-0.3,2.3-1s0.8-1.5,0.8-2.6V49.2z"/>
				<path d="M217.2,54.7c-0.3,0.5-0.6,0.8-1,1s-0.9,0.4-1.4,0.4c-0.9,0-1.6-0.3-2.2-0.9s-0.8-1.5-0.8-2.8v-5h1.5v5
					c0,0.9,0.1,1.5,0.4,1.9s0.7,0.5,1.2,0.5c0.5,0,1-0.1,1.4-0.3s0.6-0.5,0.8-0.9v-6.1h1.5v8.5h-1.4L217.2,54.7z"/>
				<path d="M223,45.4v2h1.6v1.1H223v5.1c0,0.4,0.1,0.7,0.2,0.8s0.4,0.2,0.7,0.2c0.1,0,0.2,0,0.3,0s0.2,0,0.3-0.1l0.2,1.1
					c-0.1,0.1-0.3,0.2-0.5,0.2s-0.4,0.1-0.7,0.1c-0.6,0-1.1-0.2-1.5-0.6s-0.6-1-0.6-1.8v-5.1h-1.3v-1.1h1.3v-2H223z"/>
			</g>
		</g>
		<rect x="156.3" y="76.5" class="st3" width="421.9" height="38.2"/>
		<g>
			<g class="st5">
				<path d="M223.8,95h-4.7v3.2h5.5v1.8h-7.8V88.7h7.8v1.8h-5.5v2.9h4.7V95z"/>
				<path d="M227.9,91.6l0.1,1.2c0.3-0.4,0.6-0.8,1-1c0.4-0.2,0.9-0.4,1.4-0.4c0.9,0,1.5,0.3,2,0.8s0.7,1.4,0.7,2.5v5.3h-2.3v-5.3
					c0-0.6-0.1-1-0.3-1.2c-0.2-0.2-0.6-0.4-1-0.4c-0.3,0-0.6,0.1-0.8,0.2c-0.2,0.1-0.4,0.3-0.6,0.5v6.1h-2.3v-8.5H227.9z"/>
				<path d="M234.5,95.9c0-1.3,0.3-2.4,0.9-3.2s1.4-1.2,2.4-1.2c0.4,0,0.8,0.1,1.1,0.3s0.6,0.4,0.9,0.8v-4.6h2.3V100h-2l-0.2-1
					c-0.3,0.4-0.6,0.7-0.9,0.9s-0.8,0.3-1.2,0.3c-1,0-1.8-0.4-2.4-1.1s-0.9-1.8-0.9-3V95.9z M236.8,96c0,0.7,0.1,1.3,0.4,1.8
					s0.7,0.6,1.2,0.6c0.3,0,0.6-0.1,0.9-0.2s0.4-0.3,0.6-0.6V94c-0.2-0.3-0.4-0.5-0.6-0.6s-0.5-0.2-0.8-0.2c-0.6,0-1,0.2-1.2,0.7
					c-0.3,0.5-0.4,1.1-0.4,1.9V96z"/>
				<path d="M248.4,97.7c0-0.2-0.1-0.5-0.4-0.6s-0.7-0.3-1.3-0.5c-1-0.2-1.8-0.5-2.3-0.9s-0.8-0.9-0.8-1.6c0-0.7,0.3-1.3,0.9-1.9
					s1.4-0.8,2.5-0.8c1.1,0,1.9,0.3,2.6,0.8s0.9,1.1,0.9,1.9l0,0h-2.2c0-0.3-0.1-0.6-0.3-0.8s-0.5-0.3-0.9-0.3
					c-0.4,0-0.7,0.1-0.9,0.3s-0.3,0.4-0.3,0.7c0,0.3,0.1,0.5,0.3,0.6s0.7,0.3,1.3,0.4c1,0.2,1.8,0.5,2.3,0.9s0.8,1,0.8,1.7
					c0,0.8-0.3,1.4-1,1.9s-1.5,0.7-2.6,0.7c-1.1,0-2-0.3-2.7-0.9s-1-1.2-0.9-1.9l0,0h2.1c0,0.5,0.2,0.8,0.4,1s0.6,0.3,1.1,0.3
					c0.4,0,0.7-0.1,1-0.2S248.4,98,248.4,97.7z"/>
				<path d="M255.8,95.7c0-1.3,0.4-2.3,1.1-3.1s1.7-1.2,2.9-1.2c1.2,0,2.2,0.4,2.9,1.2s1.1,1.8,1.1,3.1v0.2c0,1.3-0.4,2.3-1.1,3.1
					s-1.7,1.2-2.9,1.2c-1.2,0-2.2-0.4-2.9-1.2s-1.1-1.8-1.1-3.1V95.7z M258,95.9c0,0.8,0.1,1.4,0.4,1.9s0.7,0.7,1.3,0.7
					c0.6,0,1-0.2,1.3-0.7s0.4-1.1,0.4-1.8v-0.2c0-0.7-0.1-1.4-0.4-1.8s-0.7-0.7-1.3-0.7c-0.6,0-1,0.2-1.3,0.7S258,95,258,95.7V95.9z
					"/>
				<path d="M270.3,98.8c-0.3,0.4-0.6,0.8-1,1s-0.9,0.4-1.4,0.4c-0.9,0-1.6-0.3-2.1-0.9s-0.8-1.5-0.8-2.7v-5.1h2.3v5.1
					c0,0.6,0.1,1.1,0.3,1.3s0.5,0.4,0.9,0.4c0.4,0,0.7-0.1,0.9-0.2c0.3-0.1,0.5-0.3,0.6-0.5v-6.2h2.3v8.5h-1.9L270.3,98.8z"/>
				<path d="M276.9,89.5v2.1h1.4v1.6h-1.4v4.3c0,0.3,0.1,0.6,0.2,0.7s0.3,0.2,0.5,0.2c0.1,0,0.2,0,0.3,0s0.2,0,0.3-0.1l0.2,1.6
					c-0.2,0.1-0.5,0.1-0.7,0.2s-0.5,0.1-0.7,0.1c-0.8,0-1.4-0.2-1.8-0.6s-0.6-1.1-0.6-2.1v-4.3h-1.2v-1.6h1.2v-2.1H276.9z"/>
			</g>
			<g class="st5">
				<path class="st7" d="M285.9,100h-1.5V88.7h1.5V100z"/>
				<path class="st7" d="M299.5,94.8h-5.2v4.1h6v1.2h-7.5V88.7h7.5v1.2h-5.9v3.7h5.2V94.8z"/>
				<path class="st7" d="M303.2,91.6l0.1,1.3c0.3-0.4,0.6-0.8,1.1-1s0.9-0.4,1.4-0.4c0.9,0,1.6,0.3,2.1,0.8s0.8,1.4,0.8,2.5v5.3
					h-1.5v-5.3c0-0.7-0.1-1.3-0.4-1.6s-0.7-0.5-1.3-0.5c-0.4,0-0.8,0.1-1.2,0.3s-0.6,0.5-0.8,0.9v6.2h-1.5v-8.5H303.2z"/>
				<path class="st7" d="M310.6,96c0-1.4,0.3-2.5,0.9-3.3s1.4-1.2,2.4-1.2c0.5,0,0.9,0.1,1.3,0.3s0.7,0.4,1,0.8v-4.6h1.5V100h-1.3
					l-0.2-1c-0.3,0.4-0.6,0.7-1,0.9s-0.9,0.3-1.4,0.3c-1,0-1.8-0.4-2.4-1.1s-0.9-1.7-0.9-2.9V96z M312.1,96.1c0,0.9,0.2,1.5,0.5,2.1
					s0.9,0.8,1.6,0.8c0.5,0,0.8-0.1,1.2-0.3s0.6-0.5,0.8-0.9v-3.9c-0.2-0.3-0.5-0.6-0.8-0.8s-0.7-0.3-1.1-0.3
					c-0.7,0-1.3,0.3-1.6,0.9s-0.5,1.4-0.5,2.4V96.1z"/>
				<path class="st7" d="M325.7,89.4h-1.5v-1.6h1.5V89.4z M325.7,100h-1.5v-8.5h1.5V100z"/>
				<path class="st7" d="M329.4,91.6l0.1,1.3c0.3-0.4,0.6-0.8,1.1-1s0.9-0.4,1.4-0.4c0.9,0,1.6,0.3,2.1,0.8s0.8,1.4,0.8,2.5v5.3
					h-1.5v-5.3c0-0.7-0.1-1.3-0.4-1.6s-0.7-0.5-1.3-0.5c-0.4,0-0.8,0.1-1.2,0.3s-0.6,0.5-0.8,0.9v6.2H328v-8.5H329.4z"/>
				<path class="st7" d="M343,100h-1.5V88.7h1.5V100z"/>
				<path class="st7" d="M356.1,97.2c0-0.5-0.2-1-0.6-1.3s-1.1-0.6-2.1-0.9c-1.2-0.3-2.1-0.7-2.8-1.3s-1-1.3-1-2.1
					c0-0.9,0.4-1.6,1.1-2.2c0.7-0.6,1.7-0.9,2.8-0.9c1.2,0,2.2,0.3,3,1s1.1,1.5,1.1,2.4l0,0h-1.5c0-0.7-0.2-1.2-0.7-1.6
					s-1.1-0.6-1.9-0.6c-0.8,0-1.4,0.2-1.8,0.5s-0.6,0.8-0.6,1.4c0,0.5,0.2,0.9,0.7,1.2s1.2,0.6,2.2,0.9c1.2,0.3,2.1,0.7,2.7,1.3
					s0.9,1.3,0.9,2.1c0,0.9-0.4,1.7-1.1,2.2s-1.7,0.8-2.9,0.8c-1.1,0-2.1-0.3-3-0.9s-1.3-1.4-1.3-2.5l0,0h1.5c0,0.7,0.3,1.3,0.8,1.7
					s1.2,0.6,2,0.6c0.8,0,1.4-0.2,1.8-0.5S356.1,97.7,356.1,97.2z"/>
				<path class="st7" d="M361.6,89.5v2h1.6v1.1h-1.6v5.1c0,0.4,0.1,0.7,0.2,0.8s0.4,0.2,0.7,0.2c0.1,0,0.2,0,0.3,0s0.2,0,0.3-0.1
					l0.2,1.1c-0.1,0.1-0.3,0.2-0.5,0.2s-0.4,0.1-0.7,0.1c-0.6,0-1.1-0.2-1.5-0.6s-0.6-1-0.6-1.8v-5.1h-1.3v-1.1h1.3v-2H361.6z"/>
			</g>
			<g class="st5">
				<path class="st7" d="M370.3,100c-0.1-0.3-0.1-0.5-0.1-0.7c0-0.2,0-0.4-0.1-0.6c-0.3,0.4-0.7,0.7-1.1,1s-1,0.4-1.5,0.4
					c-0.9,0-1.6-0.2-2-0.7s-0.7-1.1-0.7-1.9c0-0.8,0.3-1.4,1-1.9c0.7-0.5,1.5-0.7,2.7-0.7h1.7v-0.8c0-0.5-0.2-0.9-0.5-1.2
					c-0.3-0.3-0.7-0.4-1.3-0.4c-0.5,0-0.9,0.1-1.2,0.4c-0.3,0.3-0.5,0.6-0.5,0.9h-1.5l0,0c0-0.6,0.3-1.2,0.9-1.7
					c0.6-0.5,1.4-0.8,2.4-0.8c1,0,1.7,0.2,2.3,0.7c0.6,0.5,0.9,1.2,0.9,2.1v4.1c0,0.3,0,0.6,0,0.9s0.1,0.6,0.2,0.8H370.3z
					 M367.7,98.9c0.6,0,1.1-0.1,1.5-0.4c0.4-0.3,0.7-0.6,0.9-1v-1.4h-1.7c-0.6,0-1.1,0.2-1.5,0.5c-0.4,0.3-0.6,0.7-0.6,1.1
					c0,0.4,0.1,0.7,0.4,0.9S367.3,98.9,367.7,98.9z"/>
			</g>
			<g class="st5">
				<path class="st7" d="M376.4,96.9l0.3,1.1h0l2.1-6.4h1.7l-3.6,9.8c-0.2,0.6-0.5,1.1-0.9,1.5s-0.9,0.6-1.6,0.6c-0.1,0-0.3,0-0.5,0
					c-0.2,0-0.3-0.1-0.4-0.1l0.2-1.2c0,0,0.1,0,0.3,0c0.2,0,0.4,0,0.4,0c0.3,0,0.6-0.1,0.8-0.4c0.2-0.3,0.4-0.6,0.5-1l0.4-0.9
					l-3.1-8.3h1.7L376.4,96.9z"/>
				<path class="st7" d="M386.7,97.8c0-0.3-0.1-0.6-0.4-0.8s-0.7-0.4-1.5-0.6c-1-0.2-1.8-0.5-2.3-0.9c-0.5-0.4-0.8-0.9-0.8-1.6
					c0-0.7,0.3-1.3,0.9-1.8c0.6-0.5,1.3-0.7,2.3-0.7c1,0,1.8,0.3,2.3,0.8c0.6,0.5,0.9,1.1,0.8,1.8l0,0h-1.5c0-0.4-0.2-0.7-0.5-1
					c-0.3-0.3-0.7-0.4-1.2-0.4c-0.5,0-1,0.1-1.2,0.4s-0.4,0.5-0.4,0.9c0,0.3,0.1,0.6,0.4,0.8s0.7,0.4,1.4,0.5
					c1.1,0.2,1.9,0.5,2.4,0.9c0.5,0.4,0.8,0.9,0.8,1.6c0,0.8-0.3,1.4-0.9,1.8c-0.6,0.5-1.4,0.7-2.4,0.7c-1.1,0-1.9-0.3-2.5-0.8
					c-0.6-0.5-0.9-1.2-0.9-1.9l0,0h1.5c0,0.5,0.2,0.9,0.6,1.2c0.4,0.3,0.8,0.4,1.3,0.4c0.5,0,1-0.1,1.3-0.3
					C386.6,98.4,386.7,98.1,386.7,97.8z"/>
				<path class="st7" d="M395.8,89.4h-1.5v-1.6h1.5V89.4z M395.8,100h-1.5v-8.5h1.5V100z"/>
				<path class="st7" d="M399.6,91.6l0.1,1.3c0.3-0.4,0.6-0.8,1.1-1s0.9-0.4,1.4-0.4c0.9,0,1.6,0.3,2.1,0.8s0.8,1.4,0.8,2.5v5.3
					h-1.5v-5.3c0-0.7-0.1-1.3-0.4-1.6s-0.7-0.5-1.3-0.5c-0.4,0-0.8,0.1-1.2,0.3s-0.6,0.5-0.8,0.9v6.2h-1.5v-8.5H399.6z"/>
				<path class="st7" d="M413.2,100h-1.5V88.7h1.5V100z"/>
				<path class="st7" d="M428.3,98.5c-0.3,0.4-0.7,0.8-1.4,1.1s-1.5,0.5-2.6,0.5c-1.4,0-2.5-0.4-3.4-1.3s-1.3-2-1.3-3.4v-2.3
					c0-1.4,0.4-2.5,1.2-3.4s1.9-1.3,3.2-1.3c1.3,0,2.3,0.3,3.1,1s1.1,1.5,1.1,2.5l0,0h-1.5c0-0.7-0.3-1.2-0.8-1.6s-1.1-0.6-2-0.6
					c-0.9,0-1.6,0.3-2.1,1s-0.8,1.5-0.8,2.5v2.4c0,1,0.3,1.8,0.9,2.5s1.3,1,2.3,1c0.6,0,1.2-0.1,1.6-0.3c0.4-0.2,0.7-0.4,0.9-0.6
					v-2.6h-2.5v-1.2h4V98.5z"/>
				<path class="st7" d="M430.3,95.7c0-1.2,0.3-2.3,1-3.1s1.6-1.2,2.8-1.2c1.2,0,2.1,0.4,2.8,1.2s1,1.8,1,3.1v0.2
					c0,1.3-0.3,2.3-1,3.1s-1.6,1.2-2.8,1.2s-2.1-0.4-2.8-1.2s-1-1.8-1-3.1V95.7z M431.9,95.9c0,0.9,0.2,1.6,0.6,2.2
					c0.4,0.6,0.9,0.9,1.7,0.9c0.7,0,1.3-0.3,1.7-0.9c0.4-0.6,0.6-1.3,0.6-2.2v-0.2c0-0.9-0.2-1.6-0.6-2.2s-0.9-0.9-1.7-0.9
					c-0.7,0-1.3,0.3-1.7,0.9s-0.6,1.3-0.6,2.2V95.9z"/>
				<path class="st7" d="M443.3,100.2c-1.2,0-2.1-0.4-2.8-1.2s-1-1.8-1-3.1v-0.3c0-1.2,0.4-2.2,1.1-3s1.6-1.2,2.5-1.2
					c1.1,0,2,0.3,2.6,1s0.9,1.6,0.9,2.8v1H441l0,0c0,0.8,0.2,1.5,0.6,2c0.4,0.5,1,0.8,1.7,0.8c0.5,0,1-0.1,1.4-0.2s0.7-0.4,1-0.6
					l0.6,1c-0.3,0.3-0.7,0.5-1.2,0.7S444,100.2,443.3,100.2z M443,92.6c-0.5,0-1,0.2-1.3,0.7s-0.6,1-0.7,1.6l0,0h3.9v-0.2
					c0-0.6-0.2-1.1-0.5-1.5C444.2,92.8,443.7,92.6,443,92.6z"/>
				<path class="st7" d="M453.1,97.8c0-0.3-0.1-0.6-0.4-0.8s-0.7-0.4-1.5-0.6c-1-0.2-1.8-0.5-2.3-0.9c-0.5-0.4-0.8-0.9-0.8-1.6
					c0-0.7,0.3-1.3,0.9-1.8s1.3-0.7,2.3-0.7c1,0,1.8,0.3,2.3,0.8s0.9,1.1,0.8,1.8l0,0h-1.5c0-0.4-0.2-0.7-0.5-1s-0.7-0.4-1.2-0.4
					c-0.5,0-1,0.1-1.2,0.4s-0.4,0.5-0.4,0.9c0,0.3,0.1,0.6,0.4,0.8s0.7,0.4,1.4,0.5c1.1,0.2,1.9,0.5,2.4,0.9s0.8,0.9,0.8,1.6
					c0,0.8-0.3,1.4-0.9,1.8s-1.4,0.7-2.4,0.7c-1.1,0-1.9-0.3-2.5-0.8s-0.9-1.2-0.9-1.9l0,0h1.5c0,0.5,0.2,0.9,0.6,1.2
					s0.8,0.4,1.3,0.4c0.5,0,1-0.1,1.3-0.3S453.1,98.1,453.1,97.8z"/>
				<path class="st7" d="M460.2,95.7c0-1.2,0.3-2.3,1-3.1s1.6-1.2,2.8-1.2c1.2,0,2.1,0.4,2.8,1.2s1,1.8,1,3.1v0.2
					c0,1.3-0.3,2.3-1,3.1s-1.6,1.2-2.8,1.2s-2.1-0.4-2.8-1.2s-1-1.8-1-3.1V95.7z M461.8,95.9c0,0.9,0.2,1.6,0.6,2.2
					c0.4,0.6,0.9,0.9,1.7,0.9c0.7,0,1.3-0.3,1.7-0.9c0.4-0.6,0.6-1.3,0.6-2.2v-0.2c0-0.9-0.2-1.6-0.6-2.2s-0.9-0.9-1.7-0.9
					c-0.7,0-1.3,0.3-1.7,0.9s-0.6,1.3-0.6,2.2V95.9z"/>
				<path class="st7" d="M475,98.8c-0.3,0.5-0.6,0.8-1,1s-0.9,0.4-1.4,0.4c-0.9,0-1.6-0.3-2.2-0.9s-0.8-1.5-0.8-2.8v-5h1.5v5
					c0,0.9,0.1,1.5,0.4,1.9s0.7,0.5,1.2,0.5c0.5,0,1-0.1,1.4-0.3s0.6-0.5,0.8-0.9v-6.1h1.5v8.5h-1.4L475,98.8z"/>
				<path class="st7" d="M480.8,89.5v2h1.6v1.1h-1.6v5.1c0,0.4,0.1,0.7,0.2,0.8s0.4,0.2,0.7,0.2c0.1,0,0.2,0,0.3,0s0.2,0,0.3-0.1
					l0.2,1.1c-0.1,0.1-0.3,0.2-0.5,0.2s-0.4,0.1-0.7,0.1c-0.6,0-1.1-0.2-1.5-0.6s-0.6-1-0.6-1.8v-5.1h-1.3v-1.1h1.3v-2H480.8z"/>
			</g>
		</g>
		<rect x="162.3" y="125.6" class="st6" width="157.2" height="34.7"/>
		<path d="M306.5,140.8l-6,7.2l-5.9-7.2H306.5z"/>
		<g>
			<g class="st5">
				<path d="M181,146.7v-11.4h3.5c1.5,0,2.7,0.5,3.6,1.4s1.4,2.1,1.4,3.5v1.6c0,1.5-0.5,2.6-1.4,3.5s-2.1,1.4-3.6,1.4H181z
					 M182.5,136.6v9h2c1.1,0,1.9-0.3,2.5-1s0.9-1.6,0.9-2.7v-1.6c0-1.1-0.3-2-0.9-2.6s-1.4-1-2.5-1H182.5z"/>
				<path d="M196.6,145.5c-0.3,0.5-0.6,0.8-1,1c-0.4,0.2-0.9,0.4-1.4,0.4c-0.9,0-1.6-0.3-2.2-0.9s-0.8-1.5-0.8-2.8v-5h1.5v5
					c0,0.9,0.1,1.5,0.4,1.9s0.7,0.5,1.2,0.5c0.5,0,1-0.1,1.4-0.3s0.6-0.5,0.8-0.9v-6.1h1.5v8.5h-1.4L196.6,145.5z"/>
				<path d="M204.3,139.6l-0.8,0c-0.4,0-0.7,0.1-1,0.3s-0.5,0.5-0.6,0.8v6h-1.5v-8.5h1.4l0.1,1.2c0.2-0.4,0.5-0.8,0.9-1
					s0.8-0.4,1.2-0.4c0.1,0,0.2,0,0.3,0s0.2,0,0.3,0.1L204.3,139.6z"/>
				<path d="M211,146.7c-0.1-0.3-0.1-0.5-0.1-0.7s0-0.4-0.1-0.6c-0.3,0.4-0.7,0.7-1.1,1s-1,0.4-1.5,0.4c-0.9,0-1.6-0.2-2-0.7
					s-0.7-1.1-0.7-1.9c0-0.8,0.3-1.4,1-1.9s1.5-0.7,2.7-0.7h1.7V141c0-0.5-0.2-0.9-0.5-1.2s-0.7-0.4-1.3-0.4c-0.5,0-0.9,0.1-1.2,0.4
					s-0.5,0.6-0.5,0.9H206l0,0c0-0.6,0.3-1.2,0.9-1.7s1.4-0.8,2.4-0.8c1,0,1.7,0.2,2.3,0.7s0.9,1.2,0.9,2.1v4.1c0,0.3,0,0.6,0,0.9
					s0.1,0.6,0.2,0.8H211z M208.5,145.6c0.6,0,1.1-0.1,1.5-0.4c0.4-0.3,0.7-0.6,0.9-1v-1.4h-1.7c-0.6,0-1.1,0.2-1.5,0.5
					s-0.6,0.7-0.6,1.1c0,0.4,0.1,0.7,0.4,0.9S208,145.6,208.5,145.6z"/>
				<path d="M216.7,136.2v2h1.6v1.1h-1.6v5.1c0,0.4,0.1,0.7,0.2,0.8s0.4,0.2,0.7,0.2c0.1,0,0.2,0,0.3,0s0.2,0,0.3-0.1l0.2,1.1
					c-0.1,0.1-0.3,0.2-0.5,0.2s-0.4,0.1-0.7,0.1c-0.6,0-1.1-0.2-1.5-0.6s-0.6-1-0.6-1.8v-5.1h-1.3v-1.1h1.3v-2H216.7z"/>
				<path d="M221.8,136.1h-1.5v-1.6h1.5V136.1z M221.8,146.7h-1.5v-8.5h1.5V146.7z"/>
				<path d="M223.8,142.4c0-1.2,0.3-2.3,1-3.1s1.6-1.2,2.8-1.2c1.2,0,2.1,0.4,2.8,1.2s1,1.8,1,3.1v0.2c0,1.3-0.3,2.3-1,3.1
					s-1.6,1.2-2.8,1.2s-2.1-0.4-2.8-1.2s-1-1.8-1-3.1V142.4z M225.4,142.6c0,0.9,0.2,1.6,0.6,2.2c0.4,0.6,0.9,0.9,1.7,0.9
					c0.7,0,1.3-0.3,1.7-0.9c0.4-0.6,0.6-1.3,0.6-2.2v-0.2c0-0.9-0.2-1.6-0.6-2.2s-0.9-0.9-1.7-0.9c-0.7,0-1.3,0.3-1.7,0.9
					s-0.6,1.3-0.6,2.2V142.6z"/>
				<path d="M234.7,138.3l0.1,1.3c0.3-0.4,0.6-0.8,1.1-1s0.9-0.4,1.4-0.4c0.9,0,1.6,0.3,2.1,0.8s0.8,1.4,0.8,2.5v5.3h-1.5v-5.3
					c0-0.7-0.1-1.3-0.4-1.6s-0.7-0.5-1.3-0.5c-0.4,0-0.8,0.1-1.2,0.3s-0.6,0.5-0.8,0.9v6.2h-1.5v-8.5H234.7z"/>
			</g>
		</g>
		<rect x="162.3" y="252.3" class="st6" width="157.2" height="34.7"/>
		<path d="M306.5,267.5l-6,7.2l-5.9-7.2H306.5z"/>
		<g>
			<g class="st5">
				<path d="M182.5,268.9v4.6H181v-11.4h4.4c1.2,0,2.2,0.3,2.8,0.9s1,1.4,1,2.5c0,1-0.3,1.9-1,2.5s-1.6,0.9-2.8,0.9H182.5z
					 M182.5,267.7h2.8c0.8,0,1.3-0.2,1.7-0.6s0.6-0.9,0.6-1.6s-0.2-1.2-0.6-1.6s-1-0.6-1.7-0.6h-2.8V267.7z"/>
			</g>
			<g class="st5">
				<path d="M196.1,273.4c-0.1-0.3-0.1-0.5-0.1-0.7c0-0.2,0-0.4-0.1-0.6c-0.3,0.4-0.7,0.7-1.1,1s-1,0.4-1.5,0.4
					c-0.9,0-1.6-0.2-2-0.7s-0.7-1.1-0.7-1.9c0-0.8,0.3-1.4,1-1.9c0.7-0.5,1.5-0.7,2.7-0.7h1.7v-0.8c0-0.5-0.2-0.9-0.5-1.2
					c-0.3-0.3-0.7-0.4-1.3-0.4c-0.5,0-0.9,0.1-1.2,0.4c-0.3,0.3-0.5,0.6-0.5,0.9H191l0,0c0-0.6,0.3-1.2,0.9-1.7
					c0.6-0.5,1.4-0.8,2.4-0.8c1,0,1.7,0.2,2.3,0.7c0.6,0.5,0.9,1.2,0.9,2.1v4.1c0,0.3,0,0.6,0,0.9s0.1,0.6,0.2,0.8H196.1z
					 M193.5,272.3c0.6,0,1.1-0.1,1.5-0.4c0.4-0.3,0.7-0.6,0.9-1v-1.4h-1.7c-0.6,0-1.1,0.2-1.5,0.5c-0.4,0.3-0.6,0.7-0.6,1.1
					c0,0.4,0.1,0.7,0.4,0.9S193,272.3,193.5,272.3z"/>
				<path d="M202,270.3l0.3,1.1h0l2.1-6.4h1.7l-3.6,9.8c-0.2,0.6-0.5,1.1-0.9,1.5s-0.9,0.6-1.6,0.6c-0.1,0-0.3,0-0.5,0
					c-0.2,0-0.3-0.1-0.4-0.1l0.2-1.2c0,0,0.1,0,0.3,0c0.2,0,0.4,0,0.4,0c0.3,0,0.6-0.1,0.8-0.4c0.2-0.3,0.4-0.6,0.5-1l0.4-0.9
					l-3.1-8.3h1.7L202,270.3z"/>
			</g>
			<g class="st5">
				<path d="M207.1,269.1c0-1.2,0.3-2.3,1-3.1c0.7-0.8,1.6-1.2,2.8-1.2c1.2,0,2.1,0.4,2.8,1.2s1,1.8,1,3.1v0.2c0,1.3-0.3,2.3-1,3.1
					c-0.7,0.8-1.6,1.2-2.8,1.2c-1.2,0-2.1-0.4-2.8-1.2s-1-1.8-1-3.1V269.1z M208.7,269.3c0,0.9,0.2,1.6,0.6,2.2
					c0.4,0.6,0.9,0.9,1.7,0.9c0.7,0,1.3-0.3,1.7-0.9c0.4-0.6,0.6-1.3,0.6-2.2v-0.2c0-0.9-0.2-1.6-0.6-2.2s-0.9-0.9-1.7-0.9
					c-0.7,0-1.3,0.3-1.7,0.9c-0.4,0.6-0.6,1.3-0.6,2.2V269.3z"/>
				<path d="M221.9,272.2c-0.3,0.5-0.6,0.8-1,1c-0.4,0.2-0.9,0.4-1.4,0.4c-0.9,0-1.6-0.3-2.2-0.9s-0.8-1.5-0.8-2.8v-5h1.5v5
					c0,0.9,0.1,1.5,0.4,1.9s0.7,0.5,1.2,0.5c0.5,0,1-0.1,1.4-0.3c0.4-0.2,0.6-0.5,0.8-0.9V265h1.5v8.5H222L221.9,272.2z"/>
				<path d="M227.7,262.9v2h1.6v1.1h-1.6v5.1c0,0.4,0.1,0.7,0.2,0.8s0.4,0.2,0.7,0.2c0.1,0,0.2,0,0.3,0s0.2,0,0.3-0.1l0.2,1.1
					c-0.1,0.1-0.3,0.2-0.5,0.2s-0.4,0.1-0.7,0.1c-0.6,0-1.1-0.2-1.5-0.6s-0.6-1-0.6-1.8v-5.1h-1.3V265h1.3v-2H227.7z"/>
			</g>
		</g>
		<g>
			<g class="st5">
				<path d="M177.4,190.9h-1.5v-5h-5.5v5h-1.5v-11.4h1.5v5.1h5.5v-5.1h1.5V190.9z"/>
				<path d="M181.6,180.2h-1.5v-1.6h1.5V180.2z M181.6,190.9h-1.5v-8.5h1.5V190.9z"/>
				<path d="M183.7,186.8c0-1.4,0.3-2.5,0.9-3.3s1.4-1.2,2.5-1.2c0.5,0,1,0.1,1.4,0.3s0.7,0.5,1,0.9l0.2-1.1h1.2v8.5
					c0,1.1-0.3,1.9-0.9,2.5s-1.5,0.9-2.7,0.9c-0.4,0-0.8-0.1-1.3-0.2s-0.9-0.3-1.2-0.5l0.4-1.2c0.3,0.2,0.6,0.3,1,0.4
					s0.8,0.1,1.2,0.1c0.8,0,1.3-0.2,1.6-0.5s0.5-0.9,0.5-1.6v-1c-0.3,0.4-0.6,0.6-1,0.8s-0.8,0.3-1.3,0.3c-1,0-1.9-0.4-2.4-1.1
					s-0.9-1.7-0.9-2.9V186.8z M185.2,187c0,0.8,0.2,1.5,0.5,2s0.9,0.8,1.6,0.8c0.5,0,0.9-0.1,1.2-0.3s0.6-0.5,0.8-0.9v-3.9
					c-0.2-0.4-0.5-0.6-0.8-0.9s-0.7-0.3-1.1-0.3c-0.7,0-1.3,0.3-1.6,0.9s-0.5,1.4-0.5,2.4V187z"/>
				<path d="M194.6,183.5c0.3-0.4,0.6-0.7,1.1-0.9s0.9-0.3,1.4-0.3c0.9,0,1.6,0.3,2.1,0.8s0.8,1.4,0.8,2.5v5.3h-1.5v-5.3
					c0-0.7-0.1-1.2-0.4-1.5s-0.7-0.5-1.3-0.5c-0.4,0-0.8,0.1-1.2,0.3s-0.6,0.5-0.9,0.8v6.2h-1.5v-12.2h1.5V183.5z"/>
				<path d="M213.4,187c0,1.2-0.3,2.2-0.9,2.9s-1.4,1.1-2.4,1.1c-0.6,0-1-0.1-1.5-0.3s-0.8-0.5-1-1l-0.2,1.1h-1.3v-12.2h1.5v4.7
					c0.3-0.4,0.6-0.7,1-0.9s0.9-0.3,1.4-0.3c1,0,1.9,0.4,2.4,1.2s0.9,1.9,0.9,3.3V187z M211.8,186.8c0-1-0.2-1.8-0.5-2.4
					s-0.9-0.9-1.6-0.9c-0.5,0-0.9,0.1-1.2,0.3s-0.6,0.5-0.8,0.9v3.7c0.2,0.4,0.5,0.7,0.8,1s0.7,0.4,1.2,0.4c0.7,0,1.3-0.3,1.6-0.8
					s0.5-1.2,0.5-2V186.8z"/>
				<path d="M220.5,190.9c-0.1-0.3-0.1-0.5-0.1-0.7s0-0.4-0.1-0.6c-0.3,0.4-0.7,0.7-1.1,1s-1,0.4-1.5,0.4c-0.9,0-1.6-0.2-2-0.7
					s-0.7-1.1-0.7-1.9c0-0.8,0.3-1.4,1-1.9s1.5-0.7,2.7-0.7h1.7v-0.8c0-0.5-0.2-0.9-0.5-1.2s-0.7-0.4-1.3-0.4
					c-0.5,0-0.9,0.1-1.2,0.4s-0.5,0.6-0.5,0.9h-1.5l0,0c0-0.6,0.3-1.2,0.9-1.7s1.4-0.8,2.4-0.8c1,0,1.7,0.2,2.3,0.7s0.9,1.2,0.9,2.1
					v4.1c0,0.3,0,0.6,0,0.9s0.1,0.6,0.2,0.8H220.5z M217.9,189.7c0.6,0,1.1-0.1,1.5-0.4c0.4-0.3,0.7-0.6,0.9-1v-1.4h-1.7
					c-0.6,0-1.1,0.2-1.5,0.5s-0.6,0.7-0.6,1.1c0,0.4,0.1,0.7,0.4,0.9S217.4,189.7,217.9,189.7z"/>
				<path d="M228.1,183.8l-0.8,0c-0.4,0-0.7,0.1-1,0.3s-0.5,0.5-0.6,0.8v6h-1.5v-8.5h1.4l0.1,1.2c0.2-0.4,0.5-0.8,0.9-1
					s0.8-0.4,1.2-0.4c0.1,0,0.2,0,0.3,0s0.2,0,0.3,0.1L228.1,183.8z"/>
				<path d="M233.5,183.8l-0.8,0c-0.4,0-0.7,0.1-1,0.3s-0.5,0.5-0.6,0.8v6h-1.5v-8.5h1.4l0.1,1.2c0.2-0.4,0.5-0.8,0.9-1
					s0.8-0.4,1.2-0.4c0.1,0,0.2,0,0.3,0s0.2,0,0.3,0.1L233.5,183.8z"/>
				<path d="M236.7,180.2h-1.5v-1.6h1.5V180.2z M236.7,190.9h-1.5v-8.5h1.5V190.9z"/>
				<path d="M242.6,191c-1.2,0-2.1-0.4-2.8-1.2s-1-1.8-1-3.1v-0.3c0-1.2,0.4-2.2,1.1-3s1.6-1.2,2.5-1.2c1.1,0,2,0.3,2.6,1
					s0.9,1.6,0.9,2.8v1h-5.5l0,0c0,0.8,0.2,1.5,0.6,2c0.4,0.5,1,0.8,1.7,0.8c0.5,0,1-0.1,1.4-0.2s0.7-0.4,1-0.6l0.6,1
					c-0.3,0.3-0.7,0.5-1.2,0.7S243.3,191,242.6,191z M242.3,183.5c-0.5,0-1,0.2-1.3,0.7s-0.6,1-0.7,1.6l0,0h3.9v-0.2
					c0-0.6-0.2-1.1-0.5-1.5C243.4,183.7,243,183.5,242.3,183.5z"/>
				<path d="M251.5,183.8l-0.8,0c-0.4,0-0.7,0.1-1,0.3s-0.5,0.5-0.6,0.8v6h-1.5v-8.5h1.4l0.1,1.2c0.2-0.4,0.5-0.8,0.9-1
					s0.8-0.4,1.2-0.4c0.1,0,0.2,0,0.3,0s0.2,0,0.3,0.1L251.5,183.8z"/>
			</g>
		</g>
		<g>
			<g class="st5">
				<path d="M170.4,231.5h5.4v1.2h-6.9v-11.4h1.5V231.5z"/>
				<path d="M176.8,228.4c0-1.2,0.3-2.3,1-3.1c0.7-0.8,1.6-1.2,2.8-1.2c1.2,0,2.1,0.4,2.8,1.2s1,1.8,1,3.1v0.2c0,1.3-0.3,2.3-1,3.1
					c-0.7,0.8-1.6,1.2-2.8,1.2c-1.2,0-2.1-0.4-2.8-1.2s-1-1.8-1-3.1V228.4z M178.4,228.6c0,0.9,0.2,1.6,0.6,2.2
					c0.4,0.6,0.9,0.9,1.7,0.9c0.7,0,1.3-0.3,1.7-0.9c0.4-0.6,0.6-1.3,0.6-2.2v-0.2c0-0.9-0.2-1.6-0.6-2.2s-0.9-0.9-1.7-0.9
					c-0.7,0-1.3,0.3-1.7,0.9c-0.4,0.6-0.6,1.3-0.6,2.2V228.6z"/>
				<path d="M188.5,229.6l0.2,1h0l0.2-1l1.7-5.4h1.2l1.7,5.4l0.2,1.1h0l0.2-1.1l1.3-5.4h1.5l-2.5,8.5h-1.2l-1.6-5.1l-0.4-1.4l0,0
					l-0.3,1.4l-1.6,5.1H188l-2.5-8.5h1.5L188.5,229.6z"/>
				<path d="M209.6,228.8c0,1.2-0.3,2.2-0.9,2.9s-1.4,1.1-2.4,1.1c-0.6,0-1-0.1-1.5-0.3s-0.8-0.5-1-1l-0.2,1.1h-1.3v-12.2h1.5v4.7
					c0.3-0.4,0.6-0.7,1-0.9s0.9-0.3,1.4-0.3c1,0,1.9,0.4,2.4,1.2s0.9,1.9,0.9,3.3V228.8z M208.1,228.6c0-1-0.2-1.8-0.5-2.4
					s-0.9-0.9-1.6-0.9c-0.5,0-0.9,0.1-1.2,0.3s-0.6,0.5-0.8,0.9v3.7c0.2,0.4,0.5,0.7,0.8,1s0.7,0.4,1.2,0.4c0.7,0,1.3-0.3,1.6-0.8
					s0.5-1.2,0.5-2V228.6z"/>
				<path d="M216.7,232.7c-0.1-0.3-0.1-0.5-0.1-0.7s0-0.4-0.1-0.6c-0.3,0.4-0.7,0.7-1.1,1s-1,0.4-1.5,0.4c-0.9,0-1.6-0.2-2-0.7
					s-0.7-1.1-0.7-1.9c0-0.8,0.3-1.4,1-1.9s1.5-0.7,2.7-0.7h1.7v-0.8c0-0.5-0.2-0.9-0.5-1.2s-0.7-0.4-1.3-0.4
					c-0.5,0-0.9,0.1-1.2,0.4s-0.5,0.6-0.5,0.9h-1.5l0,0c0-0.6,0.3-1.2,0.9-1.7s1.4-0.8,2.4-0.8c1,0,1.7,0.2,2.3,0.7s0.9,1.2,0.9,2.1
					v4.1c0,0.3,0,0.6,0,0.9s0.1,0.6,0.2,0.8H216.7z M214.1,231.6c0.6,0,1.1-0.1,1.5-0.4c0.4-0.3,0.7-0.6,0.9-1v-1.4h-1.7
					c-0.6,0-1.1,0.2-1.5,0.5s-0.6,0.7-0.6,1.1c0,0.4,0.1,0.7,0.4,0.9S213.7,231.6,214.1,231.6z"/>
				<path d="M224.3,225.6l-0.8,0c-0.4,0-0.7,0.1-1,0.3s-0.5,0.5-0.6,0.8v6h-1.5v-8.5h1.4l0.1,1.2c0.2-0.4,0.5-0.8,0.9-1
					s0.8-0.4,1.2-0.4c0.1,0,0.2,0,0.3,0s0.2,0,0.3,0.1L224.3,225.6z"/>
				<path d="M229.8,225.6l-0.8,0c-0.4,0-0.7,0.1-1,0.3s-0.5,0.5-0.6,0.8v6h-1.5v-8.5h1.4l0.1,1.2c0.2-0.4,0.5-0.8,0.9-1
					s0.8-0.4,1.2-0.4c0.1,0,0.2,0,0.3,0s0.2,0,0.3,0.1L229.8,225.6z"/>
				<path d="M232.9,222.1h-1.5v-1.6h1.5V222.1z M232.9,232.7h-1.5v-8.5h1.5V232.7z"/>
				<path d="M238.8,232.9c-1.2,0-2.1-0.4-2.8-1.2s-1-1.8-1-3.1v-0.3c0-1.2,0.4-2.2,1.1-3s1.6-1.2,2.5-1.2c1.1,0,2,0.3,2.6,1
					s0.9,1.6,0.9,2.8v1h-5.5l0,0c0,0.8,0.2,1.5,0.6,2c0.4,0.5,1,0.8,1.7,0.8c0.5,0,1-0.1,1.4-0.2s0.7-0.4,1-0.6l0.6,1
					c-0.3,0.3-0.7,0.5-1.2,0.7S239.5,232.9,238.8,232.9z M238.5,225.3c-0.5,0-1,0.2-1.3,0.7s-0.6,1-0.7,1.6l0,0h3.9v-0.2
					c0-0.6-0.2-1.1-0.5-1.5C239.7,225.5,239.2,225.3,238.5,225.3z"/>
				<path d="M247.7,225.6l-0.8,0c-0.4,0-0.7,0.1-1,0.3s-0.5,0.5-0.6,0.8v6h-1.5v-8.5h1.4l0.1,1.2c0.2-0.4,0.5-0.8,0.9-1
					s0.8-0.4,1.2-0.4c0.1,0,0.2,0,0.3,0s0.2,0,0.3,0.1L247.7,225.6z"/>
			</g>
		</g>
		<rect x="11.1" y="24.5" class="st1" width="150.6" height="57.4"/>
		<path class="st2" d="M152.7,50.2l-6.6-6.6V30.4H19.4v40.6h126.7V56.7L152.7,50.2z"/>
		<path class="st8" d="M152.7,50.2l-6.6-6.6V30.4H19.4v40.6h126.7V56.7L152.7,50.2z"/>
		<line class="st8" x1="152.1" y1="50.2" x2="167.6" y2="50.2"/>
		<g>
			<g class="st5">
				<path class="st4" d="M49.3,43.7v9.2c0,1.5-0.5,2.6-1.4,3.4c-1,0.8-2.2,1.2-3.7,1.2c-1.5,0-2.7-0.4-3.6-1.2
					c-0.9-0.8-1.4-1.9-1.4-3.4v-9.2H41v9.1c0,1,0.3,1.8,0.9,2.3c0.6,0.5,1.3,0.8,2.3,0.8c1,0,1.8-0.3,2.4-0.8
					c0.6-0.5,0.9-1.3,0.9-2.3v-9.1H49.3z"/>
				<path class="st4" d="M53.6,47.2l0.1,1.5c0.3-0.5,0.8-0.9,1.3-1.2c0.5-0.3,1.1-0.4,1.7-0.4c1.1,0,1.9,0.3,2.5,1s0.9,1.6,0.9,2.9
					v6.3h-1.8v-6.3c0-0.9-0.2-1.5-0.5-1.9s-0.9-0.6-1.6-0.6c-0.5,0-1,0.1-1.4,0.4c-0.4,0.3-0.7,0.6-1,1v7.3H52v-10H53.6z"/>
				<path class="st4" d="M62.3,52.4c0-1.6,0.3-2.9,1-3.9S65,47,66.3,47c0.6,0,1.1,0.1,1.6,0.3c0.5,0.2,0.8,0.5,1.2,0.9v-5.5h1.8
					v14.5h-1.5L69.1,56c-0.3,0.5-0.7,0.8-1.2,1.1c-0.5,0.2-1,0.4-1.7,0.4c-1.2,0-2.2-0.4-2.9-1.3c-0.7-0.9-1-2.1-1-3.5V52.4z
					 M64.2,52.6c0,1,0.2,1.8,0.6,2.4s1.1,0.9,1.9,0.9c0.5,0,1-0.1,1.4-0.4c0.4-0.2,0.7-0.6,0.9-1v-4.7c-0.2-0.4-0.5-0.7-0.9-1
					c-0.4-0.2-0.8-0.4-1.3-0.4c-0.9,0-1.5,0.4-1.9,1.1c-0.4,0.7-0.6,1.7-0.6,2.8V52.6z"/>
				<path class="st4" d="M77.7,57.4c-1.4,0-2.5-0.5-3.3-1.4c-0.8-0.9-1.2-2.1-1.2-3.6V52c0-1.4,0.4-2.6,1.3-3.6
					c0.8-0.9,1.9-1.4,3-1.4c1.4,0,2.4,0.4,3.1,1.2c0.7,0.8,1,1.9,1,3.3v1.1H75l0,0c0,1,0.3,1.8,0.7,2.4c0.5,0.6,1.1,0.9,2,0.9
					c0.6,0,1.2-0.1,1.6-0.3c0.5-0.2,0.9-0.4,1.2-0.7l0.7,1.2c-0.4,0.4-0.8,0.7-1.4,0.9S78.6,57.4,77.7,57.4z M77.4,48.4
					c-0.6,0-1.1,0.3-1.6,0.8c-0.4,0.5-0.7,1.2-0.8,1.9l0,0h4.6v-0.2c0-0.7-0.2-1.3-0.6-1.8S78.2,48.4,77.4,48.4z"/>
				<path class="st4" d="M88.4,48.8l-0.9-0.1c-0.5,0-0.9,0.1-1.2,0.3c-0.3,0.2-0.6,0.6-0.8,1v7.2h-1.8v-10h1.6l0.2,1.5
					c0.3-0.5,0.6-0.9,1.1-1.2c0.4-0.3,0.9-0.4,1.4-0.4c0.1,0,0.3,0,0.4,0c0.1,0,0.2,0,0.3,0.1L88.4,48.8z"/>
				<path class="st4" d="M92.1,57.2h-1.8V42.7h1.8V57.2z"/>
				<path class="st4" d="M98,53.5l0.3,1.3h0.1l2.5-7.6h2l-4.2,11.6c-0.3,0.7-0.6,1.3-1.1,1.8c-0.5,0.5-1.1,0.8-1.9,0.8
					c-0.1,0-0.3,0-0.6-0.1s-0.4-0.1-0.5-0.1l0.2-1.4c0,0,0.1,0,0.3,0c0.3,0,0.4,0,0.5,0c0.4,0,0.7-0.2,1-0.5
					c0.2-0.3,0.5-0.7,0.6-1.2l0.4-1l-3.7-9.8h2L98,53.5z"/>
				<path class="st4" d="M106.4,44.6h-1.8v-1.9h1.8V44.6z M106.4,57.2h-1.8v-10h1.8V57.2z"/>
				<path class="st4" d="M110.9,47.2l0.1,1.5c0.3-0.5,0.8-0.9,1.3-1.2c0.5-0.3,1.1-0.4,1.7-0.4c1.1,0,1.9,0.3,2.5,1s0.9,1.6,0.9,2.9
					v6.3h-1.8v-6.3c0-0.9-0.2-1.5-0.5-1.9s-0.9-0.6-1.6-0.6c-0.5,0-1,0.1-1.4,0.4c-0.4,0.3-0.7,0.6-1,1v7.3h-1.8v-10H110.9z"/>
				<path class="st4" d="M119.6,52.4c0-1.6,0.4-2.9,1.1-3.9s1.7-1.5,2.9-1.5c0.6,0,1.2,0.1,1.7,0.4c0.5,0.3,0.9,0.6,1.2,1.1l0.2-1.3
					h1.5v10.1c0,1.3-0.4,2.3-1.1,3s-1.8,1-3.2,1c-0.5,0-1-0.1-1.6-0.2c-0.6-0.1-1.1-0.3-1.5-0.5l0.5-1.4c0.3,0.2,0.7,0.3,1.2,0.5
					c0.5,0.1,0.9,0.2,1.4,0.2c0.9,0,1.5-0.2,1.9-0.6c0.4-0.4,0.6-1,0.6-1.9v-1.1c-0.3,0.4-0.7,0.7-1.2,1c-0.5,0.2-1,0.3-1.6,0.3
					c-1.2,0-2.2-0.4-2.9-1.3s-1.1-2.1-1.1-3.5V52.4z M121.5,52.6c0,1,0.2,1.8,0.6,2.4s1.1,0.9,1.9,0.9c0.6,0,1-0.1,1.4-0.4
					c0.4-0.3,0.7-0.6,0.9-1.1v-4.6c-0.2-0.4-0.5-0.8-0.9-1c-0.4-0.3-0.8-0.4-1.4-0.4c-0.9,0-1.5,0.4-2,1.1c-0.4,0.7-0.6,1.7-0.6,2.8
					V52.6z"/>
			</g>
		</g>
		<rect x="11.1" y="116.5" class="st1" width="150.6" height="57.4"/>
		<path class="st2" d="M152.7,142.2l-6.6-6.6v-13.1H19.4v40.6h126.7v-14.3L152.7,142.2z"/>
		<path class="st9" d="M152.7,142.2l-6.6-6.6v-13.1H19.4v40.6h126.7v-14.3L152.7,142.2z"/>
		<line class="st9" x1="152.1" y1="142.2" x2="167.6" y2="142.2"/>
		<g>
			<g class="st5">
				<path class="st4" d="M39.4,148v-13.5h4.1c1.8,0,3.2,0.5,4.3,1.6c1.1,1.1,1.6,2.5,1.6,4.2v1.8c0,1.7-0.5,3.1-1.6,4.2
					c-1.1,1.1-2.5,1.6-4.3,1.6H39.4z M41.3,136v10.6h2.3c1.2,0,2.2-0.4,3-1.2c0.7-0.8,1.1-1.9,1.1-3.2v-1.9c0-1.3-0.4-2.3-1.1-3.1
					c-0.7-0.8-1.7-1.2-3-1.2H41.3z"/>
				<path class="st4" d="M58,146.6c-0.3,0.5-0.7,1-1.2,1.2s-1.1,0.4-1.7,0.4c-1.1,0-1.9-0.3-2.6-1s-0.9-1.8-0.9-3.3V138h1.8v5.9
					c0,1.1,0.2,1.8,0.5,2.2s0.8,0.6,1.5,0.6c0.7,0,1.2-0.1,1.6-0.4s0.7-0.6,1-1.1V138h1.8v10h-1.6L58,146.6z"/>
				<path class="st4" d="M67.2,139.6l-0.9-0.1c-0.5,0-0.9,0.1-1.2,0.3c-0.3,0.2-0.6,0.6-0.8,1v7.2h-1.8v-10H64l0.2,1.5
					c0.3-0.5,0.6-0.9,1.1-1.2c0.4-0.3,0.9-0.4,1.4-0.4c0.1,0,0.3,0,0.4,0c0.1,0,0.2,0,0.3,0.1L67.2,139.6z"/>
				<path class="st4" d="M75.1,148c-0.1-0.3-0.1-0.6-0.1-0.8c0-0.2-0.1-0.5-0.1-0.7c-0.3,0.5-0.8,0.9-1.3,1.2
					c-0.5,0.3-1.1,0.5-1.8,0.5c-1,0-1.8-0.3-2.4-0.8c-0.5-0.5-0.8-1.3-0.8-2.2c0-1,0.4-1.7,1.2-2.2c0.8-0.5,1.8-0.8,3.2-0.8h2v-1
					c0-0.6-0.2-1.1-0.5-1.4c-0.4-0.3-0.9-0.5-1.5-0.5c-0.6,0-1.1,0.1-1.4,0.4c-0.4,0.3-0.6,0.7-0.6,1.1h-1.7l0-0.1
					c0-0.7,0.3-1.4,1-2s1.7-0.9,2.8-0.9c1.1,0,2.1,0.3,2.7,0.9c0.7,0.6,1,1.4,1,2.5v4.8c0,0.4,0,0.7,0.1,1s0.1,0.7,0.2,1H75.1z
					 M72.1,146.7c0.7,0,1.3-0.2,1.8-0.5c0.5-0.3,0.9-0.7,1-1.2v-1.6h-2c-0.7,0-1.3,0.2-1.8,0.6c-0.4,0.4-0.7,0.8-0.7,1.3
					c0,0.4,0.1,0.8,0.4,1.1C71.1,146.6,71.5,146.7,72.1,146.7z"/>
				<path class="st4" d="M81.8,135.6v2.4h1.9v1.4h-1.9v6.1c0,0.5,0.1,0.8,0.3,1c0.2,0.2,0.5,0.3,0.8,0.3c0.1,0,0.2,0,0.3,0
					c0.1,0,0.2-0.1,0.3-0.1l0.2,1.3c-0.1,0.1-0.3,0.2-0.6,0.3s-0.5,0.1-0.8,0.1c-0.7,0-1.3-0.2-1.8-0.7c-0.4-0.4-0.7-1.2-0.7-2.1
					v-6.1h-1.6V138H80v-2.4H81.8z"/>
				<path class="st4" d="M87.9,135.4h-1.8v-1.9h1.8V135.4z M87.9,148h-1.8v-10h1.8V148z"/>
				<path class="st4" d="M90.3,142.9c0-1.5,0.4-2.7,1.2-3.7c0.8-1,1.9-1.4,3.3-1.4c1.4,0,2.5,0.5,3.3,1.4c0.8,1,1.2,2.2,1.2,3.7v0.2
					c0,1.5-0.4,2.7-1.2,3.7c-0.8,1-1.9,1.4-3.3,1.4s-2.5-0.5-3.3-1.4c-0.8-1-1.2-2.2-1.2-3.7V142.9z M92.1,143.1
					c0,1.1,0.2,1.9,0.7,2.6c0.4,0.7,1.1,1,2,1c0.9,0,1.5-0.3,2-1c0.5-0.7,0.7-1.6,0.7-2.6v-0.2c0-1-0.2-1.9-0.7-2.6
					c-0.5-0.7-1.1-1-2-1c-0.9,0-1.5,0.3-2,1c-0.4,0.7-0.7,1.6-0.7,2.6V143.1z"/>
				<path class="st4" d="M103.2,138l0.1,1.5c0.3-0.5,0.8-0.9,1.3-1.2c0.5-0.3,1.1-0.4,1.7-0.4c1.1,0,1.9,0.3,2.5,1s0.9,1.6,0.9,2.9
					v6.3h-1.8v-6.3c0-0.9-0.2-1.5-0.5-1.9s-0.9-0.6-1.6-0.6c-0.5,0-1,0.1-1.4,0.4c-0.4,0.3-0.7,0.6-1,1v7.3h-1.8v-10H103.2z"/>
			</g>
		</g>
		<rect x="11.1" y="160.7" class="st1" width="150.6" height="57.4"/>
		<path class="st2" d="M152.7,186.4l-6.6-6.6v-13.1H19.4v40.6h126.7V193L152.7,186.4z"/>
		<path class="st8" d="M152.7,186.4l-6.6-6.6v-13.1H19.4v40.6h126.7V193L152.7,186.4z"/>
		<line class="st8" x1="152.1" y1="186.4" x2="167.6" y2="186.4"/>
		<g>
			<g class="st5">
				<path class="st4" d="M39.4,192.3v-13.5h4.4c1.4,0,2.5,0.3,3.3,0.9s1.2,1.5,1.2,2.7c0,0.6-0.2,1.1-0.6,1.6
					c-0.4,0.5-0.9,0.8-1.5,1.1c0.8,0.2,1.5,0.6,1.9,1.2c0.5,0.6,0.7,1.4,0.7,2.2c0,1.2-0.4,2.2-1.2,2.8c-0.8,0.7-1.9,1-3.3,1H39.4z
					 M41.3,184.5h3c0.7,0,1.2-0.2,1.7-0.6s0.6-0.9,0.6-1.6c0-0.7-0.2-1.3-0.7-1.6c-0.5-0.4-1.1-0.5-2-0.5h-2.6V184.5z M41.3,185.9
					v4.9h3.2c0.8,0,1.5-0.2,1.9-0.6c0.5-0.4,0.7-1,0.7-1.7c0-0.8-0.2-1.4-0.6-1.9c-0.4-0.5-1-0.7-1.8-0.7H41.3z"/>
				<path class="st4" d="M57.4,192.3c-0.1-0.3-0.1-0.6-0.1-0.8c0-0.2-0.1-0.5-0.1-0.7c-0.3,0.5-0.8,0.9-1.3,1.2
					c-0.5,0.3-1.1,0.5-1.8,0.5c-1,0-1.8-0.3-2.4-0.8c-0.5-0.5-0.8-1.3-0.8-2.2c0-1,0.4-1.7,1.2-2.2c0.8-0.5,1.8-0.8,3.2-0.8h2v-1
					c0-0.6-0.2-1.1-0.5-1.4c-0.4-0.3-0.9-0.5-1.5-0.5c-0.6,0-1.1,0.1-1.4,0.4c-0.4,0.3-0.6,0.7-0.6,1.1h-1.7l0-0.1
					c0-0.7,0.3-1.4,1-2c0.7-0.6,1.7-0.9,2.8-0.9c1.1,0,2.1,0.3,2.7,0.9c0.7,0.6,1,1.4,1,2.5v4.8c0,0.4,0,0.7,0.1,1s0.1,0.7,0.2,1
					H57.4z M54.4,190.9c0.7,0,1.3-0.2,1.8-0.5c0.5-0.3,0.9-0.7,1-1.2v-1.6h-2c-0.7,0-1.3,0.2-1.8,0.6c-0.4,0.4-0.7,0.8-0.7,1.3
					c0,0.4,0.1,0.8,0.4,1.1C53.4,190.8,53.8,190.9,54.4,190.9z"/>
				<path class="st4" d="M66.4,183.8l-0.9-0.1c-0.5,0-0.9,0.1-1.2,0.3c-0.3,0.2-0.6,0.6-0.8,1v7.2h-1.8v-10h1.6l0.2,1.5
					c0.3-0.5,0.6-0.9,1.1-1.2c0.4-0.3,0.9-0.4,1.4-0.4c0.1,0,0.3,0,0.4,0c0.1,0,0.2,0,0.3,0.1L66.4,183.8z"/>
				<path class="st4" d="M72.9,183.8l-0.9-0.1c-0.5,0-0.9,0.1-1.2,0.3c-0.3,0.2-0.6,0.6-0.8,1v7.2h-1.8v-10h1.6l0.2,1.5
					c0.3-0.5,0.6-0.9,1.1-1.2c0.4-0.3,0.9-0.4,1.4-0.4c0.1,0,0.3,0,0.4,0c0.1,0,0.2,0,0.3,0.1L72.9,183.8z"/>
				<path class="st4" d="M76.7,179.7h-1.8v-1.9h1.8V179.7z M76.7,192.3h-1.8v-10h1.8V192.3z"/>
				<path class="st4" d="M83.7,192.5c-1.4,0-2.5-0.5-3.3-1.4c-0.8-0.9-1.2-2.1-1.2-3.6V187c0-1.4,0.4-2.6,1.3-3.6
					c0.8-0.9,1.9-1.4,3-1.4c1.4,0,2.4,0.4,3.1,1.2c0.7,0.8,1,1.9,1,3.3v1.1H81l0,0c0,1,0.3,1.8,0.7,2.4c0.5,0.6,1.1,0.9,2,0.9
					c0.6,0,1.2-0.1,1.6-0.3c0.5-0.2,0.9-0.4,1.2-0.7l0.7,1.2c-0.4,0.4-0.8,0.7-1.4,0.9S84.5,192.5,83.7,192.5z M83.4,183.5
					c-0.6,0-1.1,0.3-1.6,0.8c-0.4,0.5-0.7,1.2-0.8,1.9l0,0h4.6V186c0-0.7-0.2-1.3-0.6-1.8S84.1,183.5,83.4,183.5z"/>
				<path class="st4" d="M94.3,183.8l-0.9-0.1c-0.5,0-0.9,0.1-1.2,0.3c-0.3,0.2-0.6,0.6-0.8,1v7.2h-1.8v-10h1.6l0.2,1.5
					c0.3-0.5,0.6-0.9,1.1-1.2c0.4-0.3,0.9-0.4,1.4-0.4c0.1,0,0.3,0,0.4,0c0.1,0,0.2,0,0.3,0.1L94.3,183.8z"/>
			</g>
		</g>
		<rect x="11.1" y="243.2" class="st1" width="150.6" height="57.4"/>
		<path class="st2" d="M152.7,268.9l-6.6-6.6v-13.1H19.4v40.6h126.7v-14.3L152.7,268.9z"/>
		<path class="st8" d="M152.7,268.9l-6.6-6.6v-13.1H19.4v40.6h126.7v-14.3L152.7,268.9z"/>
		<line class="st8" x1="152.1" y1="268.9" x2="167.6" y2="268.9"/>
		<g>
			<g class="st5">
				<path class="st4" d="M41.3,269.3v5.4h-1.8v-13.5h5.2c1.4,0,2.6,0.4,3.4,1.1s1.2,1.7,1.2,2.9c0,1.2-0.4,2.2-1.2,2.9
					c-0.8,0.7-1.9,1.1-3.4,1.1H41.3z M41.3,267.9h3.3c0.9,0,1.6-0.2,2.1-0.7c0.5-0.5,0.7-1.1,0.7-1.9s-0.2-1.4-0.7-1.9
					c-0.5-0.5-1.1-0.8-2-0.8h-3.3V267.9z"/>
			</g>
			<g class="st5">
				<path class="st4" d="M57.3,274.7c-0.1-0.3-0.1-0.6-0.1-0.8c0-0.2-0.1-0.5-0.1-0.7c-0.3,0.5-0.8,0.9-1.3,1.2
					c-0.5,0.3-1.1,0.5-1.8,0.5c-1,0-1.8-0.3-2.4-0.8c-0.5-0.5-0.8-1.3-0.8-2.2c0-1,0.4-1.7,1.2-2.2c0.8-0.5,1.8-0.8,3.2-0.8h2v-1
					c0-0.6-0.2-1.1-0.5-1.4c-0.4-0.3-0.9-0.5-1.5-0.5c-0.6,0-1.1,0.1-1.4,0.4c-0.4,0.3-0.6,0.7-0.6,1.1h-1.7l0-0.1
					c0-0.7,0.3-1.4,1-2c0.7-0.6,1.7-0.9,2.8-0.9c1.1,0,2.1,0.3,2.7,0.9c0.7,0.6,1,1.4,1,2.5v4.8c0,0.4,0,0.7,0.1,1s0.1,0.7,0.2,1
					H57.3z M54.3,273.4c0.7,0,1.3-0.2,1.8-0.5c0.5-0.3,0.9-0.7,1-1.2v-1.6h-2.1c-0.7,0-1.3,0.2-1.8,0.6c-0.4,0.4-0.7,0.8-0.7,1.3
					c0,0.4,0.1,0.8,0.4,1.1C53.3,273.3,53.8,273.4,54.3,273.4z"/>
				<path class="st4" d="M64.4,271l0.3,1.3h0.1l2.5-7.6h2L65,276.3c-0.3,0.7-0.6,1.3-1.1,1.8c-0.5,0.5-1.1,0.8-1.9,0.8
					c-0.1,0-0.3,0-0.6-0.1c-0.2,0-0.4-0.1-0.5-0.1l0.2-1.4c0,0,0.1,0,0.3,0c0.3,0,0.4,0,0.5,0c0.4,0,0.7-0.2,1-0.5
					c0.2-0.3,0.5-0.7,0.6-1.2l0.4-1l-3.7-9.8h2L64.4,271z"/>
			</g>
			<g class="st5">
				<path class="st4" d="M70.5,269.6c0-1.5,0.4-2.7,1.2-3.7c0.8-1,1.9-1.4,3.3-1.4c1.4,0,2.5,0.5,3.3,1.4c0.8,1,1.2,2.2,1.2,3.7v0.2
					c0,1.5-0.4,2.7-1.2,3.7c-0.8,1-1.9,1.4-3.3,1.4c-1.4,0-2.5-0.5-3.3-1.4c-0.8-1-1.2-2.2-1.2-3.7V269.6z M72.3,269.8
					c0,1.1,0.2,1.9,0.7,2.6c0.4,0.7,1.1,1,2,1c0.9,0,1.5-0.3,2-1c0.5-0.7,0.7-1.6,0.7-2.6v-0.2c0-1-0.2-1.9-0.7-2.6
					c-0.5-0.7-1.1-1-2-1c-0.9,0-1.5,0.3-2,1c-0.4,0.7-0.7,1.6-0.7,2.6V269.8z"/>
				<path class="st4" d="M88.1,273.3c-0.3,0.5-0.7,1-1.2,1.2c-0.5,0.3-1.1,0.4-1.7,0.4c-1.1,0-1.9-0.3-2.6-1s-0.9-1.8-0.9-3.3v-5.9
					h1.8v5.9c0,1.1,0.2,1.8,0.5,2.2s0.8,0.6,1.5,0.6c0.6,0,1.2-0.1,1.6-0.4s0.7-0.6,1-1.1v-7.2h1.8v10h-1.6L88.1,273.3z"/>
				<path class="st4" d="M94.9,262.3v2.4h1.9v1.4h-1.9v6.1c0,0.5,0.1,0.8,0.3,1c0.2,0.2,0.5,0.3,0.8,0.3c0.1,0,0.2,0,0.3,0
					c0.1,0,0.2-0.1,0.3-0.1l0.2,1.3c-0.1,0.1-0.3,0.2-0.6,0.3s-0.5,0.1-0.8,0.1c-0.7,0-1.3-0.2-1.8-0.7c-0.4-0.4-0.7-1.2-0.7-2.1
					v-6.1h-1.6v-1.4h1.6v-2.4H94.9z"/>
			</g>
		</g>
	</g>
</g>
<path class="st10" d="M154.6,6.5c80.2,0,145.1,64.5,145.1,144.1s-65,144.1-145.1,144.1S9.5,230.2,9.5,150.6S74.5,6.5,154.6,6.5z"/>
</svg>
