<?xml version="1.0" encoding="utf-8"?>
<!-- Generator: Adobe Illustrator 21.0.2, SVG Export Plug-In . SVG Version: 6.00 Build 0)  -->
<svg version="1.1" id="Layer_1" xmlns="http://www.w3.org/2000/svg" xmlns:xlink="http://www.w3.org/1999/xlink" x="0px" y="0px"
	 viewBox="0 0 309.3 307.3" style="enable-background:new 0 0 309.3 307.3;" xml:space="preserve">
<style type="text/css">
	.st0{clip-path:url(#SVGID_3_);}
	.st1{clip-path:url(#SVGID_4_);}
	.st2{fill:none;}
	.st3{fill:#FFFFFF;}
	.st4{fill:#F1F1F1;}
	.st5{fill:none;stroke:#C1C1C1;stroke-miterlimit:10;}
	.st6{fill:#004384;}
	.st7{fill:none;stroke:#F1F1F1;stroke-miterlimit:10;}
	.st8{enable-background:new    ;}
	.st9{fill:#808080;}
	.st10{fill:none;stroke:#004384;stroke-width:0.76;stroke-miterlimit:10;}
	.st11{fill:none;stroke:#004384;stroke-width:2;stroke-miterlimit:10;}
	.st12{fill:none;stroke:#004384;stroke-width:2;}
	.st13{fill:none;stroke:#004385;}
</style>
<title>Artboard 1</title>
<g>
	<defs>
		<ellipse id="SVGID_1_" cx="154.6" cy="150.6" rx="145.6" ry="144.6"/>
	</defs>
	<defs>
		<ellipse id="SVGID_2_" cx="154.6" cy="150.6" rx="145.1" ry="144.1"/>
	</defs>
	<clipPath id="SVGID_3_">
		<use xlink:href="#SVGID_1_"  style="overflow:visible;"/>
	</clipPath>
	<clipPath id="SVGID_4_" class="st0">
		<use xlink:href="#SVGID_2_"  style="overflow:visible;"/>
	</clipPath>
	<g class="st1">
		<rect x="144.7" y="-43" class="st2" width="435" height="492.4"/>
		<rect x="152.5" y="-37.6" class="st3" width="419.5" height="476.9"/>
		<path class="st4" d="M571.4-37v475.7H153.1V-37H571.4 M572.6-38.2H151.9v478.1h420.7V-38.2z"/>
		<line class="st5" x1="572.6" y1="295.9" x2="151.9" y2="295.9"/>
		<rect x="152.4" y="-37.7" class="st6" width="419.7" height="40.9"/>
		<path class="st6" d="M571.6-37.2v40H152.8v-40H571.6 M572.6-38.2H151.9V3.6h420.7L572.6-38.2z"/>
		<rect x="157.9" y="6.8" class="st7" width="174.5" height="34.7"/>
		<path d="M319.5,21.9l-6,7.2l-5.9-7.2H319.5z"/>
		<g>
			<g class="st8">
				<path d="M177.6,27.9h-1.5V16.5h1.5V27.9z"/>
				<path d="M181.6,19.5l0.1,1.3c0.3-0.4,0.6-0.8,1.1-1s0.9-0.4,1.4-0.4c0.9,0,1.6,0.3,2.1,0.8s0.8,1.4,0.8,2.5v5.3h-1.5v-5.3
					c0-0.7-0.1-1.3-0.4-1.6s-0.7-0.5-1.3-0.5c-0.4,0-0.8,0.1-1.2,0.3s-0.6,0.5-0.8,0.9v6.2h-1.5v-8.5H181.6z"/>
				<path d="M189.6,28.9h-1.3l4.8-12.4h1.3L189.6,28.9z"/>
				<path d="M204.9,23.2c0,1.4-0.4,2.5-1.3,3.5s-2,1.4-3.4,1.4c-1.3,0-2.4-0.5-3.2-1.4s-1.2-2.1-1.2-3.5v-2c0-1.4,0.4-2.5,1.2-3.5
					s1.9-1.4,3.2-1.4c1.4,0,2.5,0.5,3.4,1.4s1.3,2.1,1.3,3.5V23.2z M203.3,21.2c0-1-0.3-1.9-0.8-2.6s-1.3-1-2.3-1
					c-0.9,0-1.6,0.3-2.1,1s-0.8,1.5-0.8,2.6v2c0,1.1,0.3,1.9,0.8,2.6s1.2,1,2.1,1c1,0,1.7-0.3,2.3-1s0.8-1.5,0.8-2.6V21.2z"/>
				<path d="M212.2,26.7c-0.3,0.5-0.6,0.8-1,1s-0.9,0.4-1.4,0.4c-0.9,0-1.6-0.3-2.2-0.9s-0.8-1.5-0.8-2.8v-5h1.5v5
					c0,0.9,0.1,1.5,0.4,1.9s0.7,0.5,1.2,0.5c0.5,0,1-0.1,1.4-0.3s0.6-0.5,0.8-0.9v-6.1h1.5v8.5h-1.4L212.2,26.7z"/>
				<path d="M218,17.4v2h1.6v1.1H218v5.1c0,0.4,0.1,0.7,0.2,0.8s0.4,0.2,0.7,0.2c0.1,0,0.2,0,0.3,0s0.2,0,0.3-0.1l0.2,1.1
					c-0.1,0.1-0.3,0.2-0.5,0.2s-0.4,0.1-0.7,0.1c-0.6,0-1.1-0.2-1.5-0.6s-0.6-1-0.6-1.8v-5.1h-1.3v-1.1h1.3v-2H218z"/>
			</g>
		</g>
		<rect x="151.3" y="48.5" class="st4" width="421.9" height="38.2"/>
		<g>
			<g class="st8">
				<path d="M218.8,67h-4.7v3.2h5.5V72h-7.8V60.7h7.8v1.8h-5.5v2.9h4.7V67z"/>
				<path d="M222.9,63.6l0.1,1.2c0.3-0.4,0.6-0.8,1-1c0.4-0.2,0.9-0.4,1.4-0.4c0.9,0,1.5,0.3,2,0.8s0.7,1.4,0.7,2.5V72h-2.3v-5.3
					c0-0.6-0.1-1-0.3-1.2c-0.2-0.2-0.6-0.4-1-0.4c-0.3,0-0.6,0.1-0.8,0.2c-0.2,0.1-0.4,0.3-0.6,0.5V72h-2.3v-8.5H222.9z"/>
				<path d="M229.5,67.9c0-1.3,0.3-2.4,0.9-3.2s1.4-1.2,2.4-1.2c0.4,0,0.8,0.1,1.1,0.3s0.6,0.4,0.9,0.8v-4.6h2.3V72h-2l-0.2-1
					c-0.3,0.4-0.6,0.7-0.9,0.9s-0.8,0.3-1.2,0.3c-1,0-1.8-0.4-2.4-1.1s-0.9-1.8-0.9-3V67.9z M231.8,68c0,0.7,0.1,1.3,0.4,1.8
					s0.7,0.6,1.2,0.6c0.3,0,0.6-0.1,0.9-0.2s0.4-0.3,0.6-0.6V66c-0.2-0.3-0.4-0.5-0.6-0.6s-0.5-0.2-0.8-0.2c-0.6,0-1,0.2-1.2,0.7
					c-0.3,0.5-0.4,1.1-0.4,1.9V68z"/>
				<path d="M243.4,69.7c0-0.2-0.1-0.5-0.4-0.6s-0.7-0.3-1.3-0.5c-1-0.2-1.8-0.5-2.3-0.9s-0.8-0.9-0.8-1.6c0-0.7,0.3-1.3,0.9-1.9
					s1.4-0.8,2.5-0.8c1.1,0,1.9,0.3,2.6,0.8s0.9,1.1,0.9,1.9l0,0h-2.2c0-0.3-0.1-0.6-0.3-0.8s-0.5-0.3-0.9-0.3
					c-0.4,0-0.7,0.1-0.9,0.3s-0.3,0.4-0.3,0.7c0,0.3,0.1,0.5,0.3,0.6s0.7,0.3,1.3,0.4c1,0.2,1.8,0.5,2.3,0.9s0.8,1,0.8,1.7
					c0,0.8-0.3,1.4-1,1.9s-1.5,0.7-2.6,0.7c-1.1,0-2-0.3-2.7-0.9s-1-1.2-0.9-1.9l0,0h2.1c0,0.5,0.2,0.8,0.4,1s0.6,0.3,1.1,0.3
					c0.4,0,0.7-0.1,1-0.2S243.4,70,243.4,69.7z"/>
				<path d="M250.8,67.7c0-1.3,0.4-2.3,1.1-3.1s1.7-1.2,2.9-1.2c1.2,0,2.2,0.4,2.9,1.2s1.1,1.8,1.1,3.1v0.2c0,1.3-0.4,2.3-1.1,3.1
					s-1.7,1.2-2.9,1.2c-1.2,0-2.2-0.4-2.9-1.2s-1.1-1.8-1.1-3.1V67.7z M253,67.9c0,0.8,0.1,1.4,0.4,1.9s0.7,0.7,1.3,0.7
					c0.6,0,1-0.2,1.3-0.7s0.4-1.1,0.4-1.8v-0.2c0-0.7-0.1-1.4-0.4-1.8s-0.7-0.7-1.3-0.7c-0.6,0-1,0.2-1.3,0.7S253,67,253,67.7V67.9z
					"/>
				<path d="M265.3,70.8c-0.3,0.4-0.6,0.8-1,1s-0.9,0.4-1.4,0.4c-0.9,0-1.6-0.3-2.1-0.9s-0.8-1.5-0.8-2.7v-5.1h2.3v5.1
					c0,0.6,0.1,1.1,0.3,1.3s0.5,0.4,0.9,0.4c0.4,0,0.7-0.1,0.9-0.2c0.3-0.1,0.5-0.3,0.6-0.5v-6.2h2.3V72h-1.9L265.3,70.8z"/>
				<path d="M271.9,61.5v2.1h1.4v1.6h-1.4v4.3c0,0.3,0.1,0.6,0.2,0.7s0.3,0.2,0.5,0.2c0.1,0,0.2,0,0.3,0s0.2,0,0.3-0.1l0.2,1.6
					c-0.2,0.1-0.5,0.1-0.7,0.2s-0.5,0.1-0.7,0.1c-0.8,0-1.4-0.2-1.8-0.6s-0.6-1.1-0.6-2.1v-4.3h-1.2v-1.6h1.2v-2.1H271.9z"/>
			</g>
			<g class="st8">
				<path class="st9" d="M280.9,72h-1.5V60.7h1.5V72z"/>
				<path class="st9" d="M294.5,66.8h-5.2v4.1h6V72h-7.5V60.7h7.5v1.2h-5.9v3.7h5.2V66.8z"/>
				<path class="st9" d="M298.2,63.6l0.1,1.3c0.3-0.4,0.6-0.8,1.1-1s0.9-0.4,1.4-0.4c0.9,0,1.6,0.3,2.1,0.8s0.8,1.4,0.8,2.5V72h-1.5
					v-5.3c0-0.7-0.1-1.3-0.4-1.6s-0.7-0.5-1.3-0.5c-0.4,0-0.8,0.1-1.2,0.3s-0.6,0.5-0.8,0.9V72h-1.5v-8.5H298.2z"/>
				<path class="st9" d="M305.6,68c0-1.4,0.3-2.5,0.9-3.3s1.4-1.2,2.4-1.2c0.5,0,0.9,0.1,1.3,0.3s0.7,0.4,1,0.8v-4.6h1.5V72h-1.3
					l-0.2-1c-0.3,0.4-0.6,0.7-1,0.9s-0.9,0.3-1.4,0.3c-1,0-1.8-0.4-2.4-1.1s-0.9-1.7-0.9-2.9V68z M307.1,68.1c0,0.9,0.2,1.5,0.5,2.1
					s0.9,0.8,1.6,0.8c0.5,0,0.8-0.1,1.2-0.3s0.6-0.5,0.8-0.9v-3.9c-0.2-0.3-0.5-0.6-0.8-0.8s-0.7-0.3-1.1-0.3
					c-0.7,0-1.3,0.3-1.6,0.9s-0.5,1.4-0.5,2.4V68.1z"/>
				<path class="st9" d="M320.7,61.4h-1.5v-1.6h1.5V61.4z M320.7,72h-1.5v-8.5h1.5V72z"/>
				<path class="st9" d="M324.4,63.6l0.1,1.3c0.3-0.4,0.6-0.8,1.1-1s0.9-0.4,1.4-0.4c0.9,0,1.6,0.3,2.1,0.8s0.8,1.4,0.8,2.5V72h-1.5
					v-5.3c0-0.7-0.1-1.3-0.4-1.6s-0.7-0.5-1.3-0.5c-0.4,0-0.8,0.1-1.2,0.3s-0.6,0.5-0.8,0.9V72H323v-8.5H324.4z"/>
				<path class="st9" d="M338,72h-1.5V60.7h1.5V72z"/>
				<path class="st9" d="M351.1,69.2c0-0.5-0.2-1-0.6-1.3s-1.1-0.6-2.1-0.9c-1.2-0.3-2.1-0.7-2.8-1.3s-1-1.3-1-2.1
					c0-0.9,0.4-1.6,1.1-2.2c0.7-0.6,1.7-0.9,2.8-0.9c1.2,0,2.2,0.3,3,1s1.1,1.5,1.1,2.4l0,0h-1.5c0-0.7-0.2-1.2-0.7-1.6
					s-1.1-0.6-1.9-0.6c-0.8,0-1.4,0.2-1.8,0.5s-0.6,0.8-0.6,1.4c0,0.5,0.2,0.9,0.7,1.2s1.2,0.6,2.2,0.9c1.2,0.3,2.1,0.7,2.7,1.3
					s0.9,1.3,0.9,2.1c0,0.9-0.4,1.7-1.1,2.2s-1.7,0.8-2.9,0.8c-1.1,0-2.1-0.3-3-0.9s-1.3-1.4-1.3-2.5l0,0h1.5c0,0.7,0.3,1.3,0.8,1.7
					s1.2,0.6,2,0.6c0.8,0,1.4-0.2,1.8-0.5S351.1,69.7,351.1,69.2z"/>
				<path class="st9" d="M356.6,61.5v2h1.6v1.1h-1.6v5.1c0,0.4,0.1,0.7,0.2,0.8s0.4,0.2,0.7,0.2c0.1,0,0.2,0,0.3,0s0.2,0,0.3-0.1
					l0.2,1.1c-0.1,0.1-0.3,0.2-0.5,0.2s-0.4,0.1-0.7,0.1c-0.6,0-1.1-0.2-1.5-0.6s-0.6-1-0.6-1.8v-5.1h-1.3v-1.1h1.3v-2H356.6z"/>
			</g>
			<g class="st8">
				<path class="st9" d="M365.3,72c-0.1-0.3-0.1-0.5-0.1-0.7c0-0.2,0-0.4-0.1-0.6c-0.3,0.4-0.7,0.7-1.1,1s-1,0.4-1.5,0.4
					c-0.9,0-1.6-0.2-2-0.7s-0.7-1.1-0.7-1.9c0-0.8,0.3-1.4,1-1.9c0.7-0.5,1.5-0.7,2.7-0.7h1.7v-0.8c0-0.5-0.2-0.9-0.5-1.2
					c-0.3-0.3-0.7-0.4-1.3-0.4c-0.5,0-0.9,0.1-1.2,0.4c-0.3,0.3-0.5,0.6-0.5,0.9h-1.5l0,0c0-0.6,0.3-1.2,0.9-1.7
					c0.6-0.5,1.4-0.8,2.4-0.8c1,0,1.7,0.2,2.3,0.7c0.6,0.5,0.9,1.2,0.9,2.1v4.1c0,0.3,0,0.6,0,0.9s0.1,0.6,0.2,0.8H365.3z
					 M362.7,70.9c0.6,0,1.1-0.1,1.5-0.4c0.4-0.3,0.7-0.6,0.9-1v-1.4h-1.7c-0.6,0-1.1,0.2-1.5,0.5c-0.4,0.3-0.6,0.7-0.6,1.1
					c0,0.4,0.1,0.7,0.4,0.9S362.3,70.9,362.7,70.9z"/>
			</g>
			<g class="st8">
				<path class="st9" d="M371.4,68.9l0.3,1.1h0l2.1-6.4h1.7l-3.6,9.8c-0.2,0.6-0.5,1.1-0.9,1.5s-0.9,0.6-1.6,0.6c-0.1,0-0.3,0-0.5,0
					c-0.2,0-0.3-0.1-0.4-0.1l0.2-1.2c0,0,0.1,0,0.3,0c0.2,0,0.4,0,0.4,0c0.3,0,0.6-0.1,0.8-0.4c0.2-0.3,0.4-0.6,0.5-1l0.4-0.9
					l-3.1-8.3h1.7L371.4,68.9z"/>
				<path class="st9" d="M381.7,69.8c0-0.3-0.1-0.6-0.4-0.8s-0.7-0.4-1.5-0.6c-1-0.2-1.8-0.5-2.3-0.9c-0.5-0.4-0.8-0.9-0.8-1.6
					c0-0.7,0.3-1.3,0.9-1.8c0.6-0.5,1.3-0.7,2.3-0.7c1,0,1.8,0.3,2.3,0.8c0.6,0.5,0.9,1.1,0.8,1.8l0,0h-1.5c0-0.4-0.2-0.7-0.5-1
					c-0.3-0.3-0.7-0.4-1.2-0.4c-0.5,0-1,0.1-1.2,0.4s-0.4,0.5-0.4,0.9c0,0.3,0.1,0.6,0.4,0.8s0.7,0.4,1.4,0.5
					c1.1,0.2,1.9,0.5,2.4,0.9c0.5,0.4,0.8,0.9,0.8,1.6c0,0.8-0.3,1.4-0.9,1.8c-0.6,0.5-1.4,0.7-2.4,0.7c-1.1,0-1.9-0.3-2.5-0.8
					c-0.6-0.5-0.9-1.2-0.9-1.9l0,0h1.5c0,0.5,0.2,0.9,0.6,1.2c0.4,0.3,0.8,0.4,1.3,0.4c0.5,0,1-0.1,1.3-0.3
					C381.6,70.4,381.7,70.1,381.7,69.8z"/>
				<path class="st9" d="M390.8,61.4h-1.5v-1.6h1.5V61.4z M390.8,72h-1.5v-8.5h1.5V72z"/>
				<path class="st9" d="M394.6,63.6l0.1,1.3c0.3-0.4,0.6-0.8,1.1-1s0.9-0.4,1.4-0.4c0.9,0,1.6,0.3,2.1,0.8s0.8,1.4,0.8,2.5V72h-1.5
					v-5.3c0-0.7-0.1-1.3-0.4-1.6s-0.7-0.5-1.3-0.5c-0.4,0-0.8,0.1-1.2,0.3s-0.6,0.5-0.8,0.9V72h-1.5v-8.5H394.6z"/>
				<path class="st9" d="M408.2,72h-1.5V60.7h1.5V72z"/>
				<path class="st9" d="M423.3,70.5c-0.3,0.4-0.7,0.8-1.4,1.1s-1.5,0.5-2.6,0.5c-1.4,0-2.5-0.4-3.4-1.3s-1.3-2-1.3-3.4v-2.3
					c0-1.4,0.4-2.5,1.2-3.4s1.9-1.3,3.2-1.3c1.3,0,2.3,0.3,3.1,1s1.1,1.5,1.1,2.5l0,0h-1.5c0-0.7-0.3-1.2-0.8-1.6s-1.1-0.6-2-0.6
					c-0.9,0-1.6,0.3-2.1,1s-0.8,1.5-0.8,2.5v2.4c0,1,0.3,1.8,0.9,2.5s1.3,1,2.3,1c0.6,0,1.2-0.1,1.6-0.3c0.4-0.2,0.7-0.4,0.9-0.6
					v-2.6h-2.5v-1.2h4V70.5z"/>
				<path class="st9" d="M425.3,67.7c0-1.2,0.3-2.3,1-3.1s1.6-1.2,2.8-1.2c1.2,0,2.1,0.4,2.8,1.2s1,1.8,1,3.1v0.2
					c0,1.3-0.3,2.3-1,3.1s-1.6,1.2-2.8,1.2s-2.1-0.4-2.8-1.2s-1-1.8-1-3.1V67.7z M426.9,67.9c0,0.9,0.2,1.6,0.6,2.2
					c0.4,0.6,0.9,0.9,1.7,0.9c0.7,0,1.3-0.3,1.7-0.9c0.4-0.6,0.6-1.3,0.6-2.2v-0.2c0-0.9-0.2-1.6-0.6-2.2s-0.9-0.9-1.7-0.9
					c-0.7,0-1.3,0.3-1.7,0.9s-0.6,1.3-0.6,2.2V67.9z"/>
				<path class="st9" d="M438.3,72.2c-1.2,0-2.1-0.4-2.8-1.2s-1-1.8-1-3.1v-0.3c0-1.2,0.4-2.2,1.1-3s1.6-1.2,2.5-1.2
					c1.1,0,2,0.3,2.6,1s0.9,1.6,0.9,2.8v1H436l0,0c0,0.8,0.2,1.5,0.6,2c0.4,0.5,1,0.8,1.7,0.8c0.5,0,1-0.1,1.4-0.2s0.7-0.4,1-0.6
					l0.6,1c-0.3,0.3-0.7,0.5-1.2,0.7S439,72.2,438.3,72.2z M438,64.6c-0.5,0-1,0.2-1.3,0.7s-0.6,1-0.7,1.6l0,0h3.9v-0.2
					c0-0.6-0.2-1.1-0.5-1.5C439.2,64.8,438.7,64.6,438,64.6z"/>
				<path class="st9" d="M448.1,69.8c0-0.3-0.1-0.6-0.4-0.8s-0.7-0.4-1.5-0.6c-1-0.2-1.8-0.5-2.3-0.9c-0.5-0.4-0.8-0.9-0.8-1.6
					c0-0.7,0.3-1.3,0.9-1.8s1.3-0.7,2.3-0.7c1,0,1.8,0.3,2.3,0.8s0.9,1.1,0.8,1.8l0,0h-1.5c0-0.4-0.2-0.7-0.5-1s-0.7-0.4-1.2-0.4
					c-0.5,0-1,0.1-1.2,0.4s-0.4,0.5-0.4,0.9c0,0.3,0.1,0.6,0.4,0.8s0.7,0.4,1.4,0.5c1.1,0.2,1.9,0.5,2.4,0.9s0.8,0.9,0.8,1.6
					c0,0.8-0.3,1.4-0.9,1.8s-1.4,0.7-2.4,0.7c-1.1,0-1.9-0.3-2.5-0.8s-0.9-1.2-0.9-1.9l0,0h1.5c0,0.5,0.2,0.9,0.6,1.2
					s0.8,0.4,1.3,0.4c0.5,0,1-0.1,1.3-0.3S448.1,70.1,448.1,69.8z"/>
				<path class="st9" d="M455.2,67.7c0-1.2,0.3-2.3,1-3.1s1.6-1.2,2.8-1.2c1.2,0,2.1,0.4,2.8,1.2s1,1.8,1,3.1v0.2
					c0,1.3-0.3,2.3-1,3.1s-1.6,1.2-2.8,1.2s-2.1-0.4-2.8-1.2s-1-1.8-1-3.1V67.7z M456.8,67.9c0,0.9,0.2,1.6,0.6,2.2
					c0.4,0.6,0.9,0.9,1.7,0.9c0.7,0,1.3-0.3,1.7-0.9c0.4-0.6,0.6-1.3,0.6-2.2v-0.2c0-0.9-0.2-1.6-0.6-2.2s-0.9-0.9-1.7-0.9
					c-0.7,0-1.3,0.3-1.7,0.9s-0.6,1.3-0.6,2.2V67.9z"/>
				<path class="st9" d="M470,70.8c-0.3,0.5-0.6,0.8-1,1s-0.9,0.4-1.4,0.4c-0.9,0-1.6-0.3-2.2-0.9s-0.8-1.5-0.8-2.8v-5h1.5v5
					c0,0.9,0.1,1.5,0.4,1.9s0.7,0.5,1.2,0.5c0.5,0,1-0.1,1.4-0.3s0.6-0.5,0.8-0.9v-6.1h1.5V72h-1.4L470,70.8z"/>
				<path class="st9" d="M475.8,61.5v2h1.6v1.1h-1.6v5.1c0,0.4,0.1,0.7,0.2,0.8s0.4,0.2,0.7,0.2c0.1,0,0.2,0,0.3,0s0.2,0,0.3-0.1
					l0.2,1.1c-0.1,0.1-0.3,0.2-0.5,0.2s-0.4,0.1-0.7,0.1c-0.6,0-1.1-0.2-1.5-0.6s-0.6-1-0.6-1.8v-5.1h-1.3v-1.1h1.3v-2H475.8z"/>
			</g>
		</g>
		<rect x="157.3" y="97.6" class="st7" width="157.2" height="34.7"/>
		<path d="M301.5,112.8l-6,7.2l-5.9-7.2H301.5z"/>
		<g>
			<g class="st8">
				<path d="M176,118.7v-11.4h3.5c1.5,0,2.7,0.5,3.6,1.4s1.4,2.1,1.4,3.5v1.6c0,1.5-0.5,2.6-1.4,3.5s-2.1,1.4-3.6,1.4H176z
					 M177.5,108.6v9h2c1.1,0,1.9-0.3,2.5-1s0.9-1.6,0.9-2.7v-1.6c0-1.1-0.3-2-0.9-2.6s-1.4-1-2.5-1H177.5z"/>
				<path d="M191.6,117.5c-0.3,0.5-0.6,0.8-1,1c-0.4,0.2-0.9,0.4-1.4,0.4c-0.9,0-1.6-0.3-2.2-0.9s-0.8-1.5-0.8-2.8v-5h1.5v5
					c0,0.9,0.1,1.5,0.4,1.9s0.7,0.5,1.2,0.5c0.5,0,1-0.1,1.4-0.3s0.6-0.5,0.8-0.9v-6.1h1.5v8.5h-1.4L191.6,117.5z"/>
				<path d="M199.3,111.6l-0.8,0c-0.4,0-0.7,0.1-1,0.3s-0.5,0.5-0.6,0.8v6h-1.5v-8.5h1.4l0.1,1.2c0.2-0.4,0.5-0.8,0.9-1
					s0.8-0.4,1.2-0.4c0.1,0,0.2,0,0.3,0s0.2,0,0.3,0.1L199.3,111.6z"/>
				<path d="M206,118.7c-0.1-0.3-0.1-0.5-0.1-0.7s0-0.4-0.1-0.6c-0.3,0.4-0.7,0.7-1.1,1s-1,0.4-1.5,0.4c-0.9,0-1.6-0.2-2-0.7
					s-0.7-1.1-0.7-1.9c0-0.8,0.3-1.4,1-1.9s1.5-0.7,2.7-0.7h1.7V113c0-0.5-0.2-0.9-0.5-1.2s-0.7-0.4-1.3-0.4c-0.5,0-0.9,0.1-1.2,0.4
					s-0.5,0.6-0.5,0.9H201l0,0c0-0.6,0.3-1.2,0.9-1.7s1.4-0.8,2.4-0.8c1,0,1.7,0.2,2.3,0.7s0.9,1.2,0.9,2.1v4.1c0,0.3,0,0.6,0,0.9
					s0.1,0.6,0.2,0.8H206z M203.5,117.6c0.6,0,1.1-0.1,1.5-0.4c0.4-0.3,0.7-0.6,0.9-1v-1.4h-1.7c-0.6,0-1.1,0.2-1.5,0.5
					s-0.6,0.7-0.6,1.1c0,0.4,0.1,0.7,0.4,0.9S203,117.6,203.5,117.6z"/>
				<path d="M211.7,108.2v2h1.6v1.1h-1.6v5.1c0,0.4,0.1,0.7,0.2,0.8s0.4,0.2,0.7,0.2c0.1,0,0.2,0,0.3,0s0.2,0,0.3-0.1l0.2,1.1
					c-0.1,0.1-0.3,0.2-0.5,0.2s-0.4,0.1-0.7,0.1c-0.6,0-1.1-0.2-1.5-0.6s-0.6-1-0.6-1.8v-5.1h-1.3v-1.1h1.3v-2H211.7z"/>
				<path d="M216.8,108.1h-1.5v-1.6h1.5V108.1z M216.8,118.7h-1.5v-8.5h1.5V118.7z"/>
				<path d="M218.8,114.4c0-1.2,0.3-2.3,1-3.1s1.6-1.2,2.8-1.2c1.2,0,2.1,0.4,2.8,1.2s1,1.8,1,3.1v0.2c0,1.3-0.3,2.3-1,3.1
					s-1.6,1.2-2.8,1.2s-2.1-0.4-2.8-1.2s-1-1.8-1-3.1V114.4z M220.4,114.6c0,0.9,0.2,1.6,0.6,2.2c0.4,0.6,0.9,0.9,1.7,0.9
					c0.7,0,1.3-0.3,1.7-0.9c0.4-0.6,0.6-1.3,0.6-2.2v-0.2c0-0.9-0.2-1.6-0.6-2.2s-0.9-0.9-1.7-0.9c-0.7,0-1.3,0.3-1.7,0.9
					s-0.6,1.3-0.6,2.2V114.6z"/>
				<path d="M229.7,110.3l0.1,1.3c0.3-0.4,0.6-0.8,1.1-1s0.9-0.4,1.4-0.4c0.9,0,1.6,0.3,2.1,0.8s0.8,1.4,0.8,2.5v5.3h-1.5v-5.3
					c0-0.7-0.1-1.3-0.4-1.6s-0.7-0.5-1.3-0.5c-0.4,0-0.8,0.1-1.2,0.3s-0.6,0.5-0.8,0.9v6.2h-1.5v-8.5H229.7z"/>
			</g>
		</g>
		<rect x="157.3" y="224.3" class="st7" width="157.2" height="34.7"/>
		<path d="M301.5,239.4l-6,7.2l-5.9-7.2H301.5z"/>
		<g>
			<g class="st8">
				<path d="M177.5,240.9v4.6H176v-11.4h4.4c1.2,0,2.2,0.3,2.8,0.9s1,1.4,1,2.5c0,1-0.3,1.9-1,2.5s-1.6,0.9-2.8,0.9H177.5z
					 M177.5,239.7h2.8c0.8,0,1.3-0.2,1.7-0.6s0.6-0.9,0.6-1.6s-0.2-1.2-0.6-1.6s-1-0.6-1.7-0.6h-2.8V239.7z"/>
			</g>
			<g class="st8">
				<path d="M191.1,245.4c-0.1-0.3-0.1-0.5-0.1-0.7c0-0.2,0-0.4-0.1-0.6c-0.3,0.4-0.7,0.7-1.1,1s-1,0.4-1.5,0.4
					c-0.9,0-1.6-0.2-2-0.7s-0.7-1.1-0.7-1.9c0-0.8,0.3-1.4,1-1.9c0.7-0.5,1.5-0.7,2.7-0.7h1.7v-0.8c0-0.5-0.2-0.9-0.5-1.2
					c-0.3-0.3-0.7-0.4-1.3-0.4c-0.5,0-0.9,0.1-1.2,0.4c-0.3,0.3-0.5,0.6-0.5,0.9H186l0,0c0-0.6,0.3-1.2,0.9-1.7
					c0.6-0.5,1.4-0.8,2.4-0.8c1,0,1.7,0.2,2.3,0.7c0.6,0.5,0.9,1.2,0.9,2.1v4.1c0,0.3,0,0.6,0,0.9s0.1,0.6,0.2,0.8H191.1z
					 M188.5,244.3c0.6,0,1.1-0.1,1.5-0.4c0.4-0.3,0.7-0.6,0.9-1v-1.4h-1.7c-0.6,0-1.1,0.2-1.5,0.5c-0.4,0.3-0.6,0.7-0.6,1.1
					c0,0.4,0.1,0.7,0.4,0.9S188,244.3,188.5,244.3z"/>
				<path d="M197,242.3l0.3,1.1h0l2.1-6.4h1.7l-3.6,9.8c-0.2,0.6-0.5,1.1-0.9,1.5s-0.9,0.6-1.6,0.6c-0.1,0-0.3,0-0.5,0
					c-0.2,0-0.3-0.1-0.4-0.1l0.2-1.2c0,0,0.1,0,0.3,0c0.2,0,0.4,0,0.4,0c0.3,0,0.6-0.1,0.8-0.4c0.2-0.3,0.4-0.6,0.5-1l0.4-0.9
					l-3.1-8.3h1.7L197,242.3z"/>
			</g>
			<g class="st8">
				<path d="M202.1,241.1c0-1.2,0.3-2.3,1-3.1c0.7-0.8,1.6-1.2,2.8-1.2c1.2,0,2.1,0.4,2.8,1.2s1,1.8,1,3.1v0.2c0,1.3-0.3,2.3-1,3.1
					c-0.7,0.8-1.6,1.2-2.8,1.2c-1.2,0-2.1-0.4-2.8-1.2s-1-1.8-1-3.1V241.1z M203.7,241.3c0,0.9,0.2,1.6,0.6,2.2
					c0.4,0.6,0.9,0.9,1.7,0.9c0.7,0,1.3-0.3,1.7-0.9c0.4-0.6,0.6-1.3,0.6-2.2v-0.2c0-0.9-0.2-1.6-0.6-2.2s-0.9-0.9-1.7-0.9
					c-0.7,0-1.3,0.3-1.7,0.9c-0.4,0.6-0.6,1.3-0.6,2.2V241.3z"/>
				<path d="M216.9,244.2c-0.3,0.5-0.6,0.8-1,1c-0.4,0.2-0.9,0.4-1.4,0.4c-0.9,0-1.6-0.3-2.2-0.9s-0.8-1.5-0.8-2.8v-5h1.5v5
					c0,0.9,0.1,1.5,0.4,1.9s0.7,0.5,1.2,0.5c0.5,0,1-0.1,1.4-0.3c0.4-0.2,0.6-0.5,0.8-0.9V237h1.5v8.5H217L216.9,244.2z"/>
				<path d="M222.7,234.9v2h1.6v1.1h-1.6v5.1c0,0.4,0.1,0.7,0.2,0.8s0.4,0.2,0.7,0.2c0.1,0,0.2,0,0.3,0s0.2,0,0.3-0.1l0.2,1.1
					c-0.1,0.1-0.3,0.2-0.5,0.2s-0.4,0.1-0.7,0.1c-0.6,0-1.1-0.2-1.5-0.6s-0.6-1-0.6-1.8v-5.1h-1.3V237h1.3v-2H222.7z"/>
			</g>
		</g>
		<g>
			<g class="st8">
				<path d="M172.4,162.9h-1.5v-5h-5.5v5h-1.5v-11.4h1.5v5.1h5.5v-5.1h1.5V162.9z"/>
				<path d="M176.6,152.3h-1.5v-1.6h1.5V152.3z M176.6,162.9h-1.5v-8.5h1.5V162.9z"/>
				<path d="M178.7,158.8c0-1.4,0.3-2.5,0.9-3.3s1.4-1.2,2.5-1.2c0.5,0,1,0.1,1.4,0.3s0.7,0.5,1,0.9l0.2-1.1h1.2v8.5
					c0,1.1-0.3,1.9-0.9,2.5s-1.5,0.9-2.7,0.9c-0.4,0-0.8-0.1-1.3-0.2s-0.9-0.3-1.2-0.5l0.4-1.2c0.3,0.2,0.6,0.3,1,0.4
					s0.8,0.1,1.2,0.1c0.8,0,1.3-0.2,1.6-0.5s0.5-0.9,0.5-1.6v-1c-0.3,0.4-0.6,0.6-1,0.8s-0.8,0.3-1.3,0.3c-1,0-1.9-0.4-2.4-1.1
					s-0.9-1.7-0.9-2.9V158.8z M180.2,159c0,0.8,0.2,1.5,0.5,2s0.9,0.8,1.6,0.8c0.5,0,0.9-0.1,1.2-0.3s0.6-0.5,0.8-0.9v-3.9
					c-0.2-0.4-0.5-0.6-0.8-0.9s-0.7-0.3-1.1-0.3c-0.7,0-1.3,0.3-1.6,0.9s-0.5,1.4-0.5,2.4V159z"/>
				<path d="M189.6,155.5c0.3-0.4,0.6-0.7,1.1-0.9s0.9-0.3,1.4-0.3c0.9,0,1.6,0.3,2.1,0.8s0.8,1.4,0.8,2.5v5.3h-1.5v-5.3
					c0-0.7-0.1-1.2-0.4-1.5s-0.7-0.5-1.3-0.5c-0.4,0-0.8,0.1-1.2,0.3s-0.6,0.5-0.9,0.8v6.2h-1.5v-12.2h1.5V155.5z"/>
				<path d="M208.4,159c0,1.2-0.3,2.2-0.9,2.9s-1.4,1.1-2.4,1.1c-0.6,0-1-0.1-1.5-0.3s-0.8-0.5-1-1l-0.2,1.1h-1.3v-12.2h1.5v4.7
					c0.3-0.4,0.6-0.7,1-0.9s0.9-0.3,1.4-0.3c1,0,1.9,0.4,2.4,1.2s0.9,1.9,0.9,3.3V159z M206.8,158.8c0-1-0.2-1.8-0.5-2.4
					s-0.9-0.9-1.6-0.9c-0.5,0-0.9,0.1-1.2,0.3s-0.6,0.5-0.8,0.9v3.7c0.2,0.4,0.5,0.7,0.8,1s0.7,0.4,1.2,0.4c0.7,0,1.3-0.3,1.6-0.8
					s0.5-1.2,0.5-2V158.8z"/>
				<path d="M215.5,162.9c-0.1-0.3-0.1-0.5-0.1-0.7s0-0.4-0.1-0.6c-0.3,0.4-0.7,0.7-1.1,1s-1,0.4-1.5,0.4c-0.9,0-1.6-0.2-2-0.7
					s-0.7-1.1-0.7-1.9c0-0.8,0.3-1.4,1-1.9s1.5-0.7,2.7-0.7h1.7v-0.8c0-0.5-0.2-0.9-0.5-1.2s-0.7-0.4-1.3-0.4
					c-0.5,0-0.9,0.1-1.2,0.4s-0.5,0.6-0.5,0.9h-1.5l0,0c0-0.6,0.3-1.2,0.9-1.7s1.4-0.8,2.4-0.8c1,0,1.7,0.2,2.3,0.7s0.9,1.2,0.9,2.1
					v4.1c0,0.3,0,0.6,0,0.9s0.1,0.6,0.2,0.8H215.5z M212.9,161.7c0.6,0,1.1-0.1,1.5-0.4c0.4-0.3,0.7-0.6,0.9-1V159h-1.7
					c-0.6,0-1.1,0.2-1.5,0.5s-0.6,0.7-0.6,1.1c0,0.4,0.1,0.7,0.4,0.9S212.4,161.7,212.9,161.7z"/>
				<path d="M223.1,155.8l-0.8,0c-0.4,0-0.7,0.1-1,0.3s-0.5,0.5-0.6,0.8v6h-1.5v-8.5h1.4l0.1,1.2c0.2-0.4,0.5-0.8,0.9-1
					s0.8-0.4,1.2-0.4c0.1,0,0.2,0,0.3,0s0.2,0,0.3,0.1L223.1,155.8z"/>
				<path d="M228.5,155.8l-0.8,0c-0.4,0-0.7,0.1-1,0.3s-0.5,0.5-0.6,0.8v6h-1.5v-8.5h1.4l0.1,1.2c0.2-0.4,0.5-0.8,0.9-1
					s0.8-0.4,1.2-0.4c0.1,0,0.2,0,0.3,0s0.2,0,0.3,0.1L228.5,155.8z"/>
				<path d="M231.7,152.3h-1.5v-1.6h1.5V152.3z M231.7,162.9h-1.5v-8.5h1.5V162.9z"/>
				<path d="M237.6,163c-1.2,0-2.1-0.4-2.8-1.2s-1-1.8-1-3.1v-0.3c0-1.2,0.4-2.2,1.1-3s1.6-1.2,2.5-1.2c1.1,0,2,0.3,2.6,1
					s0.9,1.6,0.9,2.8v1h-5.5l0,0c0,0.8,0.2,1.5,0.6,2c0.4,0.5,1,0.8,1.7,0.8c0.5,0,1-0.1,1.4-0.2s0.7-0.4,1-0.6l0.6,1
					c-0.3,0.3-0.7,0.5-1.2,0.7S238.3,163,237.6,163z M237.3,155.5c-0.5,0-1,0.2-1.3,0.7s-0.6,1-0.7,1.6l0,0h3.9v-0.2
					c0-0.6-0.2-1.1-0.5-1.5C238.4,155.7,238,155.5,237.3,155.5z"/>
				<path d="M246.5,155.8l-0.8,0c-0.4,0-0.7,0.1-1,0.3s-0.5,0.5-0.6,0.8v6h-1.5v-8.5h1.4l0.1,1.2c0.2-0.4,0.5-0.8,0.9-1
					s0.8-0.4,1.2-0.4c0.1,0,0.2,0,0.3,0s0.2,0,0.3,0.1L246.5,155.8z"/>
			</g>
		</g>
		<g>
			<g class="st8">
				<path d="M165.4,203.5h5.4v1.2h-6.9v-11.4h1.5V203.5z"/>
				<path d="M171.8,200.4c0-1.2,0.3-2.3,1-3.1c0.7-0.8,1.6-1.2,2.8-1.2c1.2,0,2.1,0.4,2.8,1.2s1,1.8,1,3.1v0.2c0,1.3-0.3,2.3-1,3.1
					c-0.7,0.8-1.6,1.2-2.8,1.2c-1.2,0-2.1-0.4-2.8-1.2s-1-1.8-1-3.1V200.4z M173.4,200.6c0,0.9,0.2,1.6,0.6,2.2
					c0.4,0.6,0.9,0.9,1.7,0.9c0.7,0,1.3-0.3,1.7-0.9c0.4-0.6,0.6-1.3,0.6-2.2v-0.2c0-0.9-0.2-1.6-0.6-2.2s-0.9-0.9-1.7-0.9
					c-0.7,0-1.3,0.3-1.7,0.9c-0.4,0.6-0.6,1.3-0.6,2.2V200.6z"/>
				<path d="M183.5,201.6l0.2,1h0l0.2-1l1.7-5.4h1.2l1.7,5.4l0.2,1.1h0l0.2-1.1l1.3-5.4h1.5l-2.5,8.5h-1.2l-1.6-5.1l-0.4-1.4l0,0
					l-0.3,1.4l-1.6,5.1H183l-2.5-8.5h1.5L183.5,201.6z"/>
				<path d="M204.6,200.8c0,1.2-0.3,2.2-0.9,2.9s-1.4,1.1-2.4,1.1c-0.6,0-1-0.1-1.5-0.3s-0.8-0.5-1-1l-0.2,1.1h-1.3v-12.2h1.5v4.7
					c0.3-0.4,0.6-0.7,1-0.9s0.9-0.3,1.4-0.3c1,0,1.9,0.4,2.4,1.2s0.9,1.9,0.9,3.3V200.8z M203.1,200.6c0-1-0.2-1.8-0.5-2.4
					s-0.9-0.9-1.6-0.9c-0.5,0-0.9,0.1-1.2,0.3s-0.6,0.5-0.8,0.9v3.7c0.2,0.4,0.5,0.7,0.8,1s0.7,0.4,1.2,0.4c0.7,0,1.3-0.3,1.6-0.8
					s0.5-1.2,0.5-2V200.6z"/>
				<path d="M211.7,204.7c-0.1-0.3-0.1-0.5-0.1-0.7s0-0.4-0.1-0.6c-0.3,0.4-0.7,0.7-1.1,1s-1,0.4-1.5,0.4c-0.9,0-1.6-0.2-2-0.7
					s-0.7-1.1-0.7-1.9c0-0.8,0.3-1.4,1-1.9s1.5-0.7,2.7-0.7h1.7v-0.8c0-0.5-0.2-0.9-0.5-1.2s-0.7-0.4-1.3-0.4
					c-0.5,0-0.9,0.1-1.2,0.4s-0.5,0.6-0.5,0.9h-1.5l0,0c0-0.6,0.3-1.2,0.9-1.7s1.4-0.8,2.4-0.8c1,0,1.7,0.2,2.3,0.7s0.9,1.2,0.9,2.1
					v4.1c0,0.3,0,0.6,0,0.9s0.1,0.6,0.2,0.8H211.7z M209.1,203.6c0.6,0,1.1-0.1,1.5-0.4c0.4-0.3,0.7-0.6,0.9-1v-1.4h-1.7
					c-0.6,0-1.1,0.2-1.5,0.5s-0.6,0.7-0.6,1.1c0,0.4,0.1,0.7,0.4,0.9S208.7,203.6,209.1,203.6z"/>
				<path d="M219.3,197.6l-0.8,0c-0.4,0-0.7,0.1-1,0.3s-0.5,0.5-0.6,0.8v6h-1.5v-8.5h1.4l0.1,1.2c0.2-0.4,0.5-0.8,0.9-1
					s0.8-0.4,1.2-0.4c0.1,0,0.2,0,0.3,0s0.2,0,0.3,0.1L219.3,197.6z"/>
				<path d="M224.8,197.6l-0.8,0c-0.4,0-0.7,0.1-1,0.3s-0.5,0.5-0.6,0.8v6h-1.5v-8.5h1.4l0.1,1.2c0.2-0.4,0.5-0.8,0.9-1
					s0.8-0.4,1.2-0.4c0.1,0,0.2,0,0.3,0s0.2,0,0.3,0.1L224.8,197.6z"/>
				<path d="M227.9,194.1h-1.5v-1.6h1.5V194.1z M227.9,204.7h-1.5v-8.5h1.5V204.7z"/>
				<path d="M233.8,204.9c-1.2,0-2.1-0.4-2.8-1.2s-1-1.8-1-3.1v-0.3c0-1.2,0.4-2.2,1.1-3s1.6-1.2,2.5-1.2c1.1,0,2,0.3,2.6,1
					s0.9,1.6,0.9,2.8v1h-5.5l0,0c0,0.8,0.2,1.5,0.6,2c0.4,0.5,1,0.8,1.7,0.8c0.5,0,1-0.1,1.4-0.2s0.7-0.4,1-0.6l0.6,1
					c-0.3,0.3-0.7,0.5-1.2,0.7S234.5,204.9,233.8,204.9z M233.5,197.3c-0.5,0-1,0.2-1.3,0.7s-0.6,1-0.7,1.6l0,0h3.9v-0.2
					c0-0.6-0.2-1.1-0.5-1.5C234.7,197.5,234.2,197.3,233.5,197.3z"/>
				<path d="M242.7,197.6l-0.8,0c-0.4,0-0.7,0.1-1,0.3s-0.5,0.5-0.6,0.8v6h-1.5v-8.5h1.4l0.1,1.2c0.2-0.4,0.5-0.8,0.9-1
					s0.8-0.4,1.2-0.4c0.1,0,0.2,0,0.3,0s0.2,0,0.3,0.1L242.7,197.6z"/>
			</g>
		</g>
		<g>
			<g class="st8">
				<path d="M162.7,311.9l0.2,1.4l0,0l0.3-1.4l2.1-7.4h1.4l2.1,7.4l0.3,1.5h0l0.2-1.5l1.7-7.4h1.5l-2.7,11.4h-1.4l-2.2-7.9l-0.2-1h0
					l-0.2,1l-2.3,7.9h-1.4l-2.7-11.4h1.5L162.7,311.9z"/>
				<path d="M176,305.2h-1.5v-1.6h1.5V305.2z M176,315.8h-1.5v-8.5h1.5V315.8z"/>
				<path d="M179.7,307.4l0.1,1.3c0.3-0.4,0.6-0.8,1.1-1s0.9-0.4,1.4-0.4c0.9,0,1.6,0.3,2.1,0.8s0.8,1.4,0.8,2.5v5.3h-1.5v-5.3
					c0-0.7-0.1-1.3-0.4-1.6s-0.7-0.5-1.3-0.5c-0.4,0-0.8,0.1-1.2,0.3s-0.6,0.5-0.8,0.9v6.2h-1.5v-8.5H179.7z"/>
				<path d="M198.6,311.9c0,1.2-0.3,2.2-0.9,2.9s-1.4,1.1-2.4,1.1c-0.5,0-1-0.1-1.4-0.3s-0.7-0.4-1-0.8v4.1h-1.5v-11.7h1.2l0.2,1.1
					c0.3-0.4,0.6-0.7,1-0.9s0.9-0.3,1.4-0.3c1,0,1.9,0.4,2.4,1.2s0.9,1.9,0.9,3.3V311.9z M197.1,311.8c0-1-0.2-1.7-0.6-2.4
					s-0.9-0.9-1.7-0.9c-0.4,0-0.8,0.1-1.1,0.3s-0.6,0.5-0.8,0.8v4.1c0.2,0.3,0.4,0.6,0.8,0.8c0.3,0.2,0.7,0.3,1.1,0.3
					c0.7,0,1.3-0.3,1.7-0.8s0.6-1.2,0.6-2.1V311.8z"/>
			</g>
			<g class="st8">
				<path d="M205.7,315.8c-0.1-0.3-0.1-0.5-0.1-0.7s0-0.4-0.1-0.6c-0.3,0.4-0.7,0.7-1.1,1s-1,0.4-1.5,0.4c-0.9,0-1.6-0.2-2-0.7
					s-0.7-1.1-0.7-1.9c0-0.8,0.3-1.4,1-1.9s1.5-0.7,2.7-0.7h1.7v-0.8c0-0.5-0.2-0.9-0.5-1.2s-0.7-0.4-1.3-0.4
					c-0.5,0-0.9,0.1-1.2,0.4s-0.5,0.6-0.5,0.9h-1.5l0,0c0-0.6,0.3-1.2,0.9-1.7s1.4-0.8,2.4-0.8c1,0,1.7,0.2,2.3,0.7s0.9,1.2,0.9,2.1
					v4.1c0,0.3,0,0.6,0,0.9s0.1,0.6,0.2,0.8H205.7z M203.1,314.7c0.6,0,1.1-0.1,1.5-0.4c0.4-0.3,0.7-0.6,0.9-1v-1.4h-1.7
					c-0.6,0-1.1,0.2-1.5,0.5s-0.6,0.7-0.6,1.1c0,0.4,0.1,0.7,0.4,0.9S202.7,314.7,203.1,314.7z"/>
				<path d="M211.6,312.7l0.3,1.1h0l2.1-6.4h1.7l-3.6,9.8c-0.2,0.6-0.5,1.1-0.9,1.5s-0.9,0.6-1.6,0.6c-0.1,0-0.3,0-0.5,0
					s-0.3-0.1-0.4-0.1l0.2-1.2c0,0,0.1,0,0.3,0s0.4,0,0.4,0c0.3,0,0.6-0.1,0.8-0.4s0.4-0.6,0.5-1l0.4-0.9l-3.1-8.3h1.7L211.6,312.7z
					"/>
			</g>
			<g class="st8">
				<path d="M216.7,311.5c0-1.2,0.3-2.3,1-3.1c0.7-0.8,1.6-1.2,2.8-1.2c1.2,0,2.1,0.4,2.8,1.2s1,1.8,1,3.1v0.2c0,1.3-0.3,2.3-1,3.1
					c-0.7,0.8-1.6,1.2-2.8,1.2c-1.2,0-2.1-0.4-2.8-1.2s-1-1.8-1-3.1V311.5z M218.3,311.7c0,0.9,0.2,1.6,0.6,2.2
					c0.4,0.6,0.9,0.9,1.7,0.9c0.7,0,1.3-0.3,1.7-0.9c0.4-0.6,0.6-1.3,0.6-2.2v-0.2c0-0.9-0.2-1.6-0.6-2.2s-0.9-0.9-1.7-0.9
					c-0.7,0-1.3,0.3-1.7,0.9c-0.4,0.6-0.6,1.3-0.6,2.2V311.7z"/>
				<path d="M231.6,314.6c-0.3,0.5-0.6,0.8-1,1c-0.4,0.2-0.9,0.4-1.4,0.4c-0.9,0-1.6-0.3-2.2-0.9s-0.8-1.5-0.8-2.8v-5h1.5v5
					c0,0.9,0.1,1.5,0.4,1.9s0.7,0.5,1.2,0.5c0.5,0,1-0.1,1.4-0.3c0.4-0.2,0.6-0.5,0.8-0.9v-6.1h1.5v8.5h-1.4L231.6,314.6z"/>
				<path d="M237.3,305.4v2h1.6v1.1h-1.6v5.1c0,0.4,0.1,0.7,0.2,0.8s0.4,0.2,0.7,0.2c0.1,0,0.2,0,0.3,0s0.2,0,0.3-0.1l0.2,1.1
					c-0.1,0.1-0.3,0.2-0.5,0.2s-0.4,0.1-0.7,0.1c-0.6,0-1.1-0.2-1.5-0.6s-0.6-1-0.6-1.8v-5.1h-1.3v-1.1h1.3v-2H237.3z"/>
				<path d="M246.5,305.2h-1.5v-1.6h1.5V305.2z M246.5,315.8h-1.5v-8.5h1.5V315.8z"/>
				<path d="M249.5,315.8v-7.3h-1.3v-1.1h1.3v-1.1c0-0.9,0.2-1.6,0.7-2.1s1.1-0.7,2-0.7c0.2,0,0.4,0,0.5,0s0.4,0.1,0.6,0.1l-0.2,1.2
					c-0.1,0-0.2,0-0.3-0.1s-0.3,0-0.4,0c-0.4,0-0.8,0.1-1,0.4s-0.3,0.7-0.3,1.2v1.1h1.8v1.1H251v7.3H249.5z"/>
				<path d="M264.8,312.9H260l-1.1,2.9h-1.6l4.4-11.4h1.3l4.3,11.4h-1.6L264.8,312.9z M260.5,311.6h3.8l-1.9-5.2h0L260.5,311.6z"/>
				<path d="M277.3,304.5v7.7c0,1.2-0.4,2.2-1.2,2.8s-1.9,1-3.2,1c-1.2,0-2.3-0.3-3-1s-1.2-1.6-1.2-2.8v-7.7h1.5v7.7
					c0,0.9,0.2,1.5,0.7,2c0.5,0.4,1.1,0.7,1.9,0.7c0.8,0,1.5-0.2,2-0.7c0.5-0.4,0.8-1.1,0.8-2v-7.7H277.3z"/>
				<path d="M279.8,315.8v-11.4h3.5c1.5,0,2.7,0.5,3.6,1.4s1.4,2.1,1.4,3.5v1.6c0,1.5-0.5,2.6-1.4,3.5s-2.1,1.4-3.6,1.4H279.8z
					 M281.3,305.7v9h2c1.1,0,1.9-0.3,2.5-1s0.9-1.6,0.9-2.7v-1.6c0-1.1-0.3-2-0.9-2.6s-1.4-1-2.5-1H281.3z"/>
				<path d="M290.4,316.8h-1.3l4.8-12.4h1.3L290.4,316.8z"/>
				<path d="M301.6,304.5h1.5v8.2c0,1-0.3,1.8-1,2.4s-1.5,0.9-2.5,0.9c-1.1,0-2-0.3-2.6-0.8s-1-1.4-0.9-2.4l0,0h1.5
					c0,0.7,0.2,1.2,0.5,1.6s0.9,0.5,1.5,0.5c0.6,0,1-0.2,1.4-0.6c0.4-0.4,0.5-0.9,0.5-1.5V304.5z"/>
				<path d="M307.4,311.3v4.6h-1.5v-11.4h4.4c1.2,0,2.2,0.3,2.8,0.9s1,1.4,1,2.5c0,1-0.3,1.9-1,2.5s-1.6,0.9-2.8,0.9H307.4z
					 M307.4,310.1h2.8c0.8,0,1.3-0.2,1.7-0.6s0.6-0.9,0.6-1.6s-0.2-1.2-0.6-1.6s-1-0.6-1.7-0.6h-2.8V310.1z"/>
				<path d="M319.5,310.3l3-5.8h1.8l-4,7.4v4h-1.5v-4.1l-3.9-7.3h1.8L319.5,310.3z"/>
				<path d="M333,316c-1.2,0-2.1-0.4-2.8-1.2s-1-1.8-1-3.1v-0.3c0-1.2,0.4-2.2,1.1-3s1.6-1.2,2.5-1.2c1.1,0,2,0.3,2.6,1
					s0.9,1.6,0.9,2.8v1h-5.5l0,0c0,0.8,0.2,1.5,0.6,2c0.4,0.5,1,0.8,1.7,0.8c0.5,0,1-0.1,1.4-0.2s0.7-0.4,1-0.6l0.6,1
					c-0.3,0.3-0.7,0.5-1.2,0.7S333.7,316,333,316z M332.8,308.5c-0.5,0-1,0.2-1.3,0.7s-0.6,1-0.7,1.6l0,0h3.9v-0.2
					c0-0.6-0.2-1.1-0.5-1.5C333.9,308.7,333.4,308.5,332.8,308.5z"/>
				<path d="M339.4,307.4l0.1,1.3c0.3-0.4,0.6-0.8,1.1-1s0.9-0.4,1.4-0.4c0.9,0,1.6,0.3,2.1,0.8s0.8,1.4,0.8,2.5v5.3h-1.5v-5.3
					c0-0.7-0.1-1.3-0.4-1.6s-0.7-0.5-1.3-0.5c-0.4,0-0.8,0.1-1.2,0.3s-0.6,0.5-0.8,0.9v6.2H338v-8.5H339.4z"/>
				<path d="M346.7,311.8c0-1.4,0.3-2.5,0.9-3.3s1.4-1.2,2.4-1.2c0.5,0,0.9,0.1,1.3,0.3s0.7,0.4,1,0.8v-4.6h1.5v12.2h-1.3l-0.2-1
					c-0.3,0.4-0.6,0.7-1,0.9s-0.9,0.3-1.4,0.3c-1,0-1.8-0.4-2.4-1.1s-0.9-1.7-0.9-2.9V311.8z M348.3,311.9c0,0.9,0.2,1.5,0.5,2.1
					s0.9,0.8,1.6,0.8c0.5,0,0.8-0.1,1.2-0.3s0.6-0.5,0.8-0.9v-3.9c-0.2-0.3-0.5-0.6-0.8-0.8s-0.7-0.3-1.1-0.3
					c-0.7,0-1.3,0.3-1.6,0.9s-0.5,1.4-0.5,2.4V311.9z"/>
				<path d="M361.1,313.6c0-0.3-0.1-0.6-0.4-0.8s-0.7-0.4-1.5-0.6c-1-0.2-1.8-0.5-2.3-0.9c-0.5-0.4-0.8-0.9-0.8-1.6
					c0-0.7,0.3-1.3,0.9-1.8s1.3-0.7,2.3-0.7c1,0,1.8,0.3,2.3,0.8s0.9,1.1,0.8,1.8l0,0H361c0-0.4-0.2-0.7-0.5-1s-0.7-0.4-1.2-0.4
					c-0.5,0-1,0.1-1.2,0.4s-0.4,0.5-0.4,0.9c0,0.3,0.1,0.6,0.4,0.8s0.7,0.4,1.4,0.5c1.1,0.2,1.9,0.5,2.4,0.9s0.8,0.9,0.8,1.6
					c0,0.8-0.3,1.4-0.9,1.8s-1.4,0.7-2.4,0.7c-1.1,0-1.9-0.3-2.5-0.8s-0.9-1.2-0.9-1.9l0,0h1.5c0,0.5,0.2,0.9,0.6,1.2
					s0.8,0.4,1.3,0.4c0.5,0,1-0.1,1.3-0.3S361.1,314,361.1,313.6z"/>
				<path d="M368.2,311.5c0-1.2,0.3-2.3,1-3.1s1.6-1.2,2.8-1.2c1.2,0,2.1,0.4,2.8,1.2s1,1.8,1,3.1v0.2c0,1.3-0.3,2.3-1,3.1
					s-1.6,1.2-2.8,1.2s-2.1-0.4-2.8-1.2s-1-1.8-1-3.1V311.5z M369.7,311.7c0,0.9,0.2,1.6,0.6,2.2c0.4,0.6,0.9,0.9,1.7,0.9
					c0.7,0,1.3-0.3,1.7-0.9c0.4-0.6,0.6-1.3,0.6-2.2v-0.2c0-0.9-0.2-1.6-0.6-2.2s-0.9-0.9-1.7-0.9c-0.7,0-1.3,0.3-1.7,0.9
					s-0.6,1.3-0.6,2.2V311.7z"/>
				<path d="M383,314.6c-0.3,0.5-0.6,0.8-1,1s-0.9,0.4-1.4,0.4c-0.9,0-1.6-0.3-2.2-0.9s-0.8-1.5-0.8-2.8v-5h1.5v5
					c0,0.9,0.1,1.5,0.4,1.9s0.7,0.5,1.2,0.5c0.5,0,1-0.1,1.4-0.3s0.6-0.5,0.8-0.9v-6.1h1.5v8.5h-1.4L383,314.6z"/>
				<path d="M388.7,305.4v2h1.6v1.1h-1.6v5.1c0,0.4,0.1,0.7,0.2,0.8s0.4,0.2,0.7,0.2c0.1,0,0.2,0,0.3,0s0.2,0,0.3-0.1l0.2,1.1
					c-0.1,0.1-0.3,0.2-0.5,0.2s-0.4,0.1-0.7,0.1c-0.6,0-1.1-0.2-1.5-0.6s-0.6-1-0.6-1.8v-5.1h-1.3v-1.1h1.3v-2H388.7z"/>
				<path d="M397.1,313.6c0-0.3-0.1-0.6-0.4-0.8s-0.7-0.4-1.5-0.6c-1-0.2-1.8-0.5-2.3-0.9c-0.5-0.4-0.8-0.9-0.8-1.6
					c0-0.7,0.3-1.3,0.9-1.8s1.3-0.7,2.3-0.7c1,0,1.8,0.3,2.3,0.8s0.9,1.1,0.8,1.8l0,0h-1.5c0-0.4-0.2-0.7-0.5-1s-0.7-0.4-1.2-0.4
					c-0.5,0-1,0.1-1.2,0.4s-0.4,0.5-0.4,0.9c0,0.3,0.1,0.6,0.4,0.8s0.7,0.4,1.4,0.5c1.1,0.2,1.9,0.5,2.4,0.9s0.8,0.9,0.8,1.6
					c0,0.8-0.3,1.4-0.9,1.8s-1.4,0.7-2.4,0.7c-1.1,0-1.9-0.3-2.5-0.8s-0.9-1.2-0.9-1.9l0,0h1.5c0,0.5,0.2,0.9,0.6,1.2
					s0.8,0.4,1.3,0.4c0.5,0,1-0.1,1.3-0.3S397.1,314,397.1,313.6z"/>
				<path d="M402.3,305.2h-1.5v-1.6h1.5V305.2z M402.3,315.8h-1.5v-8.5h1.5V315.8z"/>
				<path d="M404.3,311.8c0-1.4,0.3-2.5,0.9-3.3s1.4-1.2,2.4-1.2c0.5,0,0.9,0.1,1.3,0.3s0.7,0.4,1,0.8v-4.6h1.5v12.2h-1.3l-0.2-1
					c-0.3,0.4-0.6,0.7-1,0.9s-0.9,0.3-1.4,0.3c-1,0-1.8-0.4-2.4-1.1s-0.9-1.7-0.9-2.9V311.8z M405.8,311.9c0,0.9,0.2,1.5,0.5,2.1
					s0.9,0.8,1.6,0.8c0.5,0,0.8-0.1,1.2-0.3s0.6-0.5,0.8-0.9v-3.9c-0.2-0.3-0.5-0.6-0.8-0.8s-0.7-0.3-1.1-0.3
					c-0.7,0-1.3,0.3-1.6,0.9s-0.5,1.4-0.5,2.4V311.9z"/>
				<path d="M417.2,316c-1.2,0-2.1-0.4-2.8-1.2s-1-1.8-1-3.1v-0.3c0-1.2,0.4-2.2,1.1-3s1.6-1.2,2.5-1.2c1.1,0,2,0.3,2.6,1
					s0.9,1.6,0.9,2.8v1H415l0,0c0,0.8,0.2,1.5,0.6,2c0.4,0.5,1,0.8,1.7,0.8c0.5,0,1-0.1,1.4-0.2s0.7-0.4,1-0.6l0.6,1
					c-0.3,0.3-0.7,0.5-1.2,0.7S417.9,316,417.2,316z M417,308.5c-0.5,0-1,0.2-1.3,0.7s-0.6,1-0.7,1.6l0,0h3.9v-0.2
					c0-0.6-0.2-1.1-0.5-1.5C418.1,308.7,417.6,308.5,417,308.5z"/>
				<path d="M432.9,307.4c0,0.6-0.2,1.1-0.5,1.6s-0.8,0.8-1.4,1c0.7,0.2,1.2,0.6,1.6,1.1s0.6,1.1,0.6,1.7c0,1.1-0.3,1.9-1,2.4
					s-1.6,0.8-2.7,0.8c-1.1,0-2-0.3-2.7-0.8s-1-1.4-1-2.4c0-0.6,0.2-1.2,0.6-1.7s0.9-0.8,1.6-1.1c-0.6-0.2-1-0.6-1.3-1
					s-0.5-1-0.5-1.6c0-1,0.3-1.8,0.9-2.3s1.4-0.8,2.4-0.8c1,0,1.8,0.3,2.4,0.8S432.9,306.4,432.9,307.4z M431.7,312.7
					c0-0.6-0.2-1.1-0.6-1.5s-0.9-0.6-1.6-0.6c-0.6,0-1.2,0.2-1.6,0.6s-0.6,0.9-0.6,1.5c0,0.6,0.2,1.2,0.6,1.5s0.9,0.5,1.6,0.5
					c0.6,0,1.2-0.2,1.6-0.6S431.7,313.4,431.7,312.7z M431.4,307.5c0-0.6-0.2-1-0.5-1.4s-0.8-0.6-1.3-0.6c-0.5,0-1,0.2-1.3,0.5
					s-0.5,0.8-0.5,1.4c0,0.6,0.2,1,0.5,1.4s0.8,0.5,1.3,0.5c0.5,0,1-0.2,1.3-0.5S431.4,308.1,431.4,307.5z"/>
				<path d="M441.1,312h1.6v1.2h-1.6v2.6h-1.5v-2.6h-5.1v-0.9l5-7.9h1.6V312z M436.1,312h3.5v-5.3l0,0l-0.1,0.4L436.1,312z"/>
				<path d="M445.9,315.8h-1.5v-1.6h1.5V315.8z"/>
				<path d="M455.2,307.4c0,0.6-0.2,1.1-0.5,1.6s-0.8,0.8-1.4,1c0.7,0.2,1.2,0.6,1.6,1.1s0.6,1.1,0.6,1.7c0,1.1-0.3,1.9-1,2.4
					s-1.6,0.8-2.7,0.8c-1.1,0-2-0.3-2.7-0.8s-1-1.4-1-2.4c0-0.6,0.2-1.2,0.6-1.7s0.9-0.8,1.6-1.1c-0.6-0.2-1-0.6-1.3-1
					s-0.5-1-0.5-1.6c0-1,0.3-1.8,0.9-2.3s1.4-0.8,2.4-0.8c1,0,1.8,0.3,2.4,0.8S455.2,306.4,455.2,307.4z M454,312.7
					c0-0.6-0.2-1.1-0.6-1.5s-0.9-0.6-1.6-0.6c-0.6,0-1.2,0.2-1.6,0.6s-0.6,0.9-0.6,1.5c0,0.6,0.2,1.2,0.6,1.5s0.9,0.5,1.6,0.5
					c0.6,0,1.2-0.2,1.6-0.6S454,313.4,454,312.7z M453.7,307.5c0-0.6-0.2-1-0.5-1.4s-0.8-0.6-1.3-0.6c-0.5,0-1,0.2-1.3,0.5
					s-0.5,0.8-0.5,1.4c0,0.6,0.2,1,0.5,1.4s0.8,0.5,1.3,0.5c0.5,0,1-0.2,1.3-0.5S453.7,308.1,453.7,307.5z"/>
				<path d="M461.7,315.8h-1.5V306l-2.3,0v-1.1l3.9-0.4V315.8z"/>
				<path d="M466.7,310.7l0.7-6.2h5.7v1.4h-4.4l-0.4,3.2c0.2-0.2,0.5-0.3,0.8-0.4s0.6-0.2,1-0.2c1,0,1.9,0.3,2.5,1s0.9,1.6,0.9,2.8
					c0,1.1-0.3,2.1-0.9,2.8s-1.5,1-2.7,1c-1,0-1.8-0.3-2.4-0.8s-0.9-1.3-0.9-2.3l0,0h1.4c0,0.6,0.2,1.1,0.5,1.4s0.8,0.5,1.4,0.5
					c0.7,0,1.2-0.2,1.5-0.7s0.5-1.1,0.5-1.9c0-0.7-0.2-1.3-0.5-1.8s-0.9-0.7-1.5-0.7c-0.6,0-1,0.1-1.3,0.3s-0.5,0.5-0.6,0.8
					L466.7,310.7z"/>
				<path d="M481.5,305.4v2h1.6v1.1h-1.6v5.1c0,0.4,0.1,0.7,0.2,0.8s0.4,0.2,0.7,0.2c0.1,0,0.2,0,0.3,0s0.2,0,0.3-0.1l0.2,1.1
					c-0.1,0.1-0.3,0.2-0.5,0.2s-0.4,0.1-0.7,0.1c-0.6,0-1.1-0.2-1.5-0.6s-0.6-1-0.6-1.8v-5.1h-1.3v-1.1h1.3v-2H481.5z"/>
				<path d="M484.6,311.5c0-1.2,0.3-2.3,1-3.1s1.6-1.2,2.8-1.2c1.2,0,2.1,0.4,2.8,1.2s1,1.8,1,3.1v0.2c0,1.3-0.3,2.3-1,3.1
					s-1.6,1.2-2.8,1.2s-2.1-0.4-2.8-1.2s-1-1.8-1-3.1V311.5z M486.2,311.7c0,0.9,0.2,1.6,0.6,2.2c0.4,0.6,0.9,0.9,1.7,0.9
					c0.7,0,1.3-0.3,1.7-0.9c0.4-0.6,0.6-1.3,0.6-2.2v-0.2c0-0.9-0.2-1.6-0.6-2.2s-0.9-0.9-1.7-0.9c-0.7,0-1.3,0.3-1.7,0.9
					s-0.6,1.3-0.6,2.2V311.7z"/>
				<path d="M504.8,307.4c0,0.6-0.2,1.1-0.5,1.6s-0.8,0.8-1.4,1c0.7,0.2,1.2,0.6,1.6,1.1s0.6,1.1,0.6,1.7c0,1.1-0.3,1.9-1,2.4
					s-1.6,0.8-2.7,0.8c-1.1,0-2-0.3-2.7-0.8s-1-1.4-1-2.4c0-0.6,0.2-1.2,0.6-1.7s0.9-0.8,1.6-1.1c-0.6-0.2-1-0.6-1.3-1
					s-0.5-1-0.5-1.6c0-1,0.3-1.8,0.9-2.3s1.4-0.8,2.4-0.8c1,0,1.8,0.3,2.4,0.8S504.8,306.4,504.8,307.4z M503.6,312.7
					c0-0.6-0.2-1.1-0.6-1.5s-0.9-0.6-1.6-0.6c-0.6,0-1.2,0.2-1.6,0.6s-0.6,0.9-0.6,1.5c0,0.6,0.2,1.2,0.6,1.5s0.9,0.5,1.6,0.5
					c0.6,0,1.2-0.2,1.6-0.6S503.6,313.4,503.6,312.7z M503.3,307.5c0-0.6-0.2-1-0.5-1.4s-0.8-0.6-1.3-0.6c-0.5,0-1,0.2-1.3,0.5
					s-0.5,0.8-0.5,1.4c0,0.6,0.2,1,0.5,1.4s0.8,0.5,1.3,0.5c0.5,0,1-0.2,1.3-0.5S503.3,308.1,503.3,307.5z"/>
				<path d="M507.3,310.7l0.7-6.2h5.7v1.4h-4.4l-0.4,3.2c0.2-0.2,0.5-0.3,0.8-0.4s0.6-0.2,1-0.2c1,0,1.9,0.3,2.5,1s0.9,1.6,0.9,2.8
					c0,1.1-0.3,2.1-0.9,2.8s-1.5,1-2.7,1c-1,0-1.8-0.3-2.4-0.8s-0.9-1.3-0.9-2.3l0,0h1.4c0,0.6,0.2,1.1,0.5,1.4s0.8,0.5,1.4,0.5
					c0.7,0,1.2-0.2,1.5-0.7s0.5-1.1,0.5-1.9c0-0.7-0.2-1.3-0.5-1.8s-0.9-0.7-1.5-0.7c-0.6,0-1,0.1-1.3,0.3s-0.5,0.5-0.6,0.8
					L507.3,310.7z"/>
				<path d="M517.8,315.8h-1.5v-1.6h1.5V315.8z"/>
				<path d="M524.5,304.3c0.4,0,0.8,0,1.2,0.1s0.7,0.2,0.9,0.3l-0.3,1.2c-0.3-0.1-0.5-0.2-0.8-0.3s-0.6-0.1-1-0.1
					c-0.8,0-1.5,0.3-2,1s-0.7,1.5-0.7,2.5v0.2c0.3-0.3,0.7-0.5,1.1-0.7s0.9-0.2,1.4-0.2c1,0,1.8,0.4,2.4,1.1s0.9,1.6,0.9,2.7
					c0,1.2-0.3,2.1-1,2.9s-1.5,1.1-2.6,1.1c-1.1,0-2-0.4-2.8-1.2s-1.1-1.9-1.1-3.4v-2.2c0-1.5,0.4-2.6,1.2-3.5
					S523.3,304.3,524.5,304.3z M524,309.4c-0.5,0-1,0.1-1.3,0.3c-0.4,0.2-0.7,0.5-0.8,0.8v0.9c0,1,0.2,1.9,0.7,2.4
					c0.4,0.6,1,0.9,1.7,0.9c0.6,0,1.1-0.3,1.5-0.8s0.5-1.2,0.5-2c0-0.7-0.2-1.4-0.6-1.8S524.7,309.4,524,309.4z"/>
				<path d="M529.6,310.7l0.7-6.2h5.7v1.4h-4.4l-0.4,3.2c0.2-0.2,0.5-0.3,0.8-0.4s0.6-0.2,1-0.2c1,0,1.9,0.3,2.5,1s0.9,1.6,0.9,2.8
					c0,1.1-0.3,2.1-0.9,2.8s-1.5,1-2.7,1c-1,0-1.8-0.3-2.4-0.8s-0.9-1.3-0.9-2.3l0,0h1.4c0,0.6,0.2,1.1,0.5,1.4s0.8,0.5,1.4,0.5
					c0.7,0,1.2-0.2,1.5-0.7s0.5-1.1,0.5-1.9c0-0.7-0.2-1.3-0.5-1.8s-0.9-0.7-1.5-0.7c-0.6,0-1,0.1-1.3,0.3s-0.5,0.5-0.6,0.8
					L529.6,310.7z"/>
				<path d="M545.6,315.8h-7.4v-1.1l3.7-4.1c0.7-0.7,1.1-1.3,1.4-1.8s0.4-0.9,0.4-1.3c0-0.6-0.2-1-0.5-1.4s-0.8-0.6-1.3-0.6
					c-0.8,0-1.4,0.2-1.7,0.6s-0.6,1-0.6,1.7H538l0,0c0-1,0.3-1.8,1-2.5s1.6-1,2.8-1c1,0,1.8,0.3,2.4,0.9s0.9,1.4,0.9,2.3
					c0,0.6-0.2,1.2-0.6,1.9s-0.9,1.3-1.5,2l-3,3.2l0,0h5.5V315.8z"/>
			</g>
		</g>
		<rect x="6.1" y="-3.5" class="st2" width="150.6" height="57.4"/>
		<path class="st3" d="M147.7,22.2l-6.6-6.6V2.4H14.4v40.6h126.7V28.7L147.7,22.2z"/>
		<path class="st10" d="M147.7,22.2l-6.6-6.6V2.4H14.4v40.6h126.7V28.7L147.7,22.2z"/>
		<line class="st10" x1="147.1" y1="22.2" x2="162.6" y2="22.2"/>
		<g>
			<g class="st8">
				<path class="st6" d="M44.3,15.7v9.2c0,1.5-0.5,2.6-1.4,3.4c-1,0.8-2.2,1.2-3.7,1.2c-1.5,0-2.7-0.4-3.6-1.2
					c-0.9-0.8-1.4-1.9-1.4-3.4v-9.2H36v9.1c0,1,0.3,1.8,0.9,2.3c0.6,0.5,1.3,0.8,2.3,0.8c1,0,1.8-0.3,2.4-0.8
					c0.6-0.5,0.9-1.3,0.9-2.3v-9.1H44.3z"/>
				<path class="st6" d="M48.6,19.2l0.1,1.5c0.3-0.5,0.8-0.9,1.3-1.2c0.5-0.3,1.1-0.4,1.7-0.4c1.1,0,1.9,0.3,2.5,1s0.9,1.6,0.9,2.9
					v6.3h-1.8v-6.3c0-0.9-0.2-1.5-0.5-1.9s-0.9-0.6-1.6-0.6c-0.5,0-1,0.1-1.4,0.4c-0.4,0.3-0.7,0.6-1,1v7.3H47v-10H48.6z"/>
				<path class="st6" d="M57.3,24.4c0-1.6,0.3-2.9,1-3.9S60,19,61.3,19c0.6,0,1.1,0.1,1.6,0.3c0.5,0.2,0.8,0.5,1.2,0.9v-5.5h1.8
					v14.5h-1.5L64.1,28c-0.3,0.5-0.7,0.8-1.2,1.1c-0.5,0.2-1,0.4-1.7,0.4c-1.2,0-2.2-0.4-2.9-1.3c-0.7-0.9-1-2.1-1-3.5V24.4z
					 M59.2,24.6c0,1,0.2,1.8,0.6,2.4s1.1,0.9,1.9,0.9c0.5,0,1-0.1,1.4-0.4c0.4-0.2,0.7-0.6,0.9-1v-4.7c-0.2-0.4-0.5-0.7-0.9-1
					c-0.4-0.2-0.8-0.4-1.3-0.4c-0.9,0-1.5,0.4-1.9,1.1c-0.4,0.7-0.6,1.7-0.6,2.8V24.6z"/>
				<path class="st6" d="M72.7,29.4c-1.4,0-2.5-0.5-3.3-1.4c-0.8-0.9-1.2-2.1-1.2-3.6V24c0-1.4,0.4-2.6,1.3-3.6
					c0.8-0.9,1.9-1.4,3-1.4c1.4,0,2.4,0.4,3.1,1.2c0.7,0.8,1,1.9,1,3.3v1.1H70l0,0c0,1,0.3,1.8,0.7,2.4c0.5,0.6,1.1,0.9,2,0.9
					c0.6,0,1.2-0.1,1.6-0.3c0.5-0.2,0.9-0.4,1.2-0.7l0.7,1.2c-0.4,0.4-0.8,0.7-1.4,0.9S73.6,29.4,72.7,29.4z M72.4,20.4
					c-0.6,0-1.1,0.3-1.6,0.8c-0.4,0.5-0.7,1.2-0.8,1.9l0,0h4.6v-0.2c0-0.7-0.2-1.3-0.6-1.8S73.2,20.4,72.4,20.4z"/>
				<path class="st6" d="M83.4,20.8l-0.9-0.1c-0.5,0-0.9,0.1-1.2,0.3c-0.3,0.2-0.6,0.6-0.8,1v7.2h-1.8v-10h1.6l0.2,1.5
					c0.3-0.5,0.6-0.9,1.1-1.2c0.4-0.3,0.9-0.4,1.4-0.4c0.1,0,0.3,0,0.4,0c0.1,0,0.2,0,0.3,0.1L83.4,20.8z"/>
				<path class="st6" d="M87.1,29.2h-1.8V14.7h1.8V29.2z"/>
				<path class="st6" d="M93,25.5l0.3,1.3h0.1l2.5-7.6h2l-4.2,11.6c-0.3,0.7-0.6,1.3-1.1,1.8c-0.5,0.5-1.1,0.8-1.9,0.8
					c-0.1,0-0.3,0-0.6-0.1s-0.4-0.1-0.5-0.1l0.2-1.4c0,0,0.1,0,0.3,0c0.3,0,0.4,0,0.5,0c0.4,0,0.7-0.2,1-0.5
					c0.2-0.3,0.5-0.7,0.6-1.2l0.4-1l-3.7-9.8h2L93,25.5z"/>
				<path class="st6" d="M101.4,16.6h-1.8v-1.9h1.8V16.6z M101.4,29.2h-1.8v-10h1.8V29.2z"/>
				<path class="st6" d="M105.9,19.2l0.1,1.5c0.3-0.5,0.8-0.9,1.3-1.2c0.5-0.3,1.1-0.4,1.7-0.4c1.1,0,1.9,0.3,2.5,1s0.9,1.6,0.9,2.9
					v6.3h-1.8v-6.3c0-0.9-0.2-1.5-0.5-1.9s-0.9-0.6-1.6-0.6c-0.5,0-1,0.1-1.4,0.4c-0.4,0.3-0.7,0.6-1,1v7.3h-1.8v-10H105.9z"/>
				<path class="st6" d="M114.6,24.4c0-1.6,0.4-2.9,1.1-3.9s1.7-1.5,2.9-1.5c0.6,0,1.2,0.1,1.7,0.4c0.5,0.3,0.9,0.6,1.2,1.1l0.2-1.3
					h1.5v10.1c0,1.3-0.4,2.3-1.1,3s-1.8,1-3.2,1c-0.5,0-1-0.1-1.6-0.2c-0.6-0.1-1.1-0.3-1.5-0.5l0.5-1.4c0.3,0.2,0.7,0.3,1.2,0.5
					c0.5,0.1,0.9,0.2,1.4,0.2c0.9,0,1.5-0.2,1.9-0.6c0.4-0.4,0.6-1,0.6-1.9v-1.1c-0.3,0.4-0.7,0.7-1.2,1c-0.5,0.2-1,0.3-1.6,0.3
					c-1.2,0-2.2-0.4-2.9-1.3s-1.1-2.1-1.1-3.5V24.4z M116.5,24.6c0,1,0.2,1.8,0.6,2.4s1.1,0.9,1.9,0.9c0.6,0,1-0.1,1.4-0.4
					c0.4-0.3,0.7-0.6,0.9-1.1v-4.6c-0.2-0.4-0.5-0.8-0.9-1c-0.4-0.3-0.8-0.4-1.4-0.4c-0.9,0-1.5,0.4-2,1.1c-0.4,0.7-0.6,1.7-0.6,2.8
					V24.6z"/>
			</g>
		</g>
		<rect x="6.1" y="88.5" class="st2" width="150.6" height="57.4"/>
		<path class="st3" d="M147.7,114.2l-6.6-6.6V94.5H14.4v40.6h126.7v-14.3L147.7,114.2z"/>
		<path class="st10" d="M147.7,114.2l-6.6-6.6V94.5H14.4v40.6h126.7v-14.3L147.7,114.2z"/>
		<line class="st10" x1="147.1" y1="114.2" x2="162.6" y2="114.2"/>
		<g>
			<g class="st8">
				<path class="st6" d="M34.4,120v-13.5h4.1c1.8,0,3.2,0.5,4.3,1.6c1.1,1.1,1.6,2.5,1.6,4.2v1.8c0,1.7-0.5,3.1-1.6,4.2
					c-1.1,1.1-2.5,1.6-4.3,1.6H34.4z M36.3,108v10.6h2.3c1.2,0,2.2-0.4,3-1.2c0.7-0.8,1.1-1.9,1.1-3.2v-1.9c0-1.3-0.4-2.3-1.1-3.1
					c-0.7-0.8-1.7-1.2-3-1.2H36.3z"/>
				<path class="st6" d="M53,118.6c-0.3,0.5-0.7,1-1.2,1.2s-1.1,0.4-1.7,0.4c-1.1,0-1.9-0.3-2.6-1s-0.9-1.8-0.9-3.3V110h1.8v5.9
					c0,1.1,0.2,1.8,0.5,2.2s0.8,0.6,1.5,0.6c0.7,0,1.2-0.1,1.6-0.4s0.7-0.6,1-1.1V110h1.8v10h-1.6L53,118.6z"/>
				<path class="st6" d="M62.2,111.6l-0.9-0.1c-0.5,0-0.9,0.1-1.2,0.3c-0.3,0.2-0.6,0.6-0.8,1v7.2h-1.8v-10H59l0.2,1.5
					c0.3-0.5,0.6-0.9,1.1-1.2c0.4-0.3,0.9-0.4,1.4-0.4c0.1,0,0.3,0,0.4,0c0.1,0,0.2,0,0.3,0.1L62.2,111.6z"/>
				<path class="st6" d="M70.1,120c-0.1-0.3-0.1-0.6-0.1-0.8c0-0.2-0.1-0.5-0.1-0.7c-0.3,0.5-0.8,0.9-1.3,1.2
					c-0.5,0.3-1.1,0.5-1.8,0.5c-1,0-1.8-0.3-2.4-0.8c-0.5-0.5-0.8-1.3-0.8-2.2c0-1,0.4-1.7,1.2-2.2c0.8-0.5,1.8-0.8,3.2-0.8h2v-1
					c0-0.6-0.2-1.1-0.5-1.4c-0.4-0.3-0.9-0.5-1.5-0.5c-0.6,0-1.1,0.1-1.4,0.4c-0.4,0.3-0.6,0.7-0.6,1.1h-1.7l0-0.1
					c0-0.7,0.3-1.4,1-2s1.7-0.9,2.8-0.9c1.1,0,2.1,0.3,2.7,0.9c0.7,0.6,1,1.4,1,2.5v4.8c0,0.4,0,0.7,0.1,1s0.1,0.7,0.2,1H70.1z
					 M67.1,118.7c0.7,0,1.3-0.2,1.8-0.5c0.5-0.3,0.9-0.7,1-1.2v-1.6h-2c-0.7,0-1.3,0.2-1.8,0.6c-0.4,0.4-0.7,0.8-0.7,1.3
					c0,0.4,0.1,0.8,0.4,1.1C66.1,118.6,66.5,118.7,67.1,118.7z"/>
				<path class="st6" d="M76.8,107.6v2.4h1.9v1.4h-1.9v6.1c0,0.5,0.1,0.8,0.3,1c0.2,0.2,0.5,0.3,0.8,0.3c0.1,0,0.2,0,0.3,0
					c0.1,0,0.2-0.1,0.3-0.1l0.2,1.3c-0.1,0.1-0.3,0.2-0.6,0.3s-0.5,0.1-0.8,0.1c-0.7,0-1.3-0.2-1.8-0.7c-0.4-0.4-0.7-1.2-0.7-2.1
					v-6.1h-1.6V110H75v-2.4H76.8z"/>
				<path class="st6" d="M82.9,107.4h-1.8v-1.9h1.8V107.4z M82.9,120h-1.8v-10h1.8V120z"/>
				<path class="st6" d="M85.3,114.9c0-1.5,0.4-2.7,1.2-3.7c0.8-1,1.9-1.4,3.3-1.4c1.4,0,2.5,0.5,3.3,1.4c0.8,1,1.2,2.2,1.2,3.7v0.2
					c0,1.5-0.4,2.7-1.2,3.7c-0.8,1-1.9,1.4-3.3,1.4s-2.5-0.5-3.3-1.4c-0.8-1-1.2-2.2-1.2-3.7V114.9z M87.1,115.1
					c0,1.1,0.2,1.9,0.7,2.6c0.4,0.7,1.1,1,2,1c0.9,0,1.5-0.3,2-1c0.5-0.7,0.7-1.6,0.7-2.6v-0.2c0-1-0.2-1.9-0.7-2.6
					c-0.5-0.7-1.1-1-2-1c-0.9,0-1.5,0.3-2,1c-0.4,0.7-0.7,1.6-0.7,2.6V115.1z"/>
				<path class="st6" d="M98.2,110l0.1,1.5c0.3-0.5,0.8-0.9,1.3-1.2c0.5-0.3,1.1-0.4,1.7-0.4c1.1,0,1.9,0.3,2.5,1s0.9,1.6,0.9,2.9
					v6.3h-1.8v-6.3c0-0.9-0.2-1.5-0.5-1.9s-0.9-0.6-1.6-0.6c-0.5,0-1,0.1-1.4,0.4c-0.4,0.3-0.7,0.6-1,1v7.3h-1.8v-10H98.2z"/>
			</g>
		</g>
		<rect x="6.1" y="132.7" class="st2" width="150.6" height="57.4"/>
		<path class="st3" d="M147.7,158.4l-6.6-6.6v-13.1H14.4v40.6h126.7V165L147.7,158.4z"/>
		<path class="st11" d="M147.7,158.4l-6.6-6.6v-13.1H14.4v40.6h126.7V165L147.7,158.4z"/>
		<path class="st12" d="M147.1,158.4h15.5"/>
		<g>
			<g class="st8">
				<path class="st6" d="M34.4,164.3v-13.5h4.4c1.4,0,2.5,0.3,3.3,0.9s1.2,1.5,1.2,2.7c0,0.6-0.2,1.1-0.6,1.6
					c-0.4,0.5-0.9,0.8-1.5,1.1c0.8,0.2,1.5,0.6,1.9,1.2c0.5,0.6,0.7,1.4,0.7,2.2c0,1.2-0.4,2.2-1.2,2.8c-0.8,0.7-1.9,1-3.3,1H34.4z
					 M36.3,156.5h3c0.7,0,1.2-0.2,1.7-0.6s0.6-0.9,0.6-1.6c0-0.7-0.2-1.3-0.7-1.6c-0.5-0.4-1.1-0.5-2-0.5h-2.6V156.5z M36.3,157.9
					v4.9h3.2c0.8,0,1.5-0.2,1.9-0.6c0.5-0.4,0.7-1,0.7-1.7c0-0.8-0.2-1.4-0.6-1.9c-0.4-0.5-1-0.7-1.8-0.7H36.3z"/>
				<path class="st6" d="M52.4,164.3c-0.1-0.3-0.1-0.6-0.1-0.8c0-0.2-0.1-0.5-0.1-0.7c-0.3,0.5-0.8,0.9-1.3,1.2
					c-0.5,0.3-1.1,0.5-1.8,0.5c-1,0-1.8-0.3-2.4-0.8c-0.5-0.5-0.8-1.3-0.8-2.2c0-1,0.4-1.7,1.2-2.2c0.8-0.5,1.8-0.8,3.2-0.8h2v-1
					c0-0.6-0.2-1.1-0.5-1.4c-0.4-0.3-0.9-0.5-1.5-0.5c-0.6,0-1.1,0.1-1.4,0.4c-0.4,0.3-0.6,0.7-0.6,1.1h-1.7l0-0.1
					c0-0.7,0.3-1.4,1-2c0.7-0.6,1.7-0.9,2.8-0.9c1.1,0,2.1,0.3,2.7,0.9c0.7,0.6,1,1.4,1,2.5v4.8c0,0.4,0,0.7,0.1,1s0.1,0.7,0.2,1
					H52.4z M49.4,162.9c0.7,0,1.3-0.2,1.8-0.5c0.5-0.3,0.9-0.7,1-1.2v-1.6h-2c-0.7,0-1.3,0.2-1.8,0.6c-0.4,0.4-0.7,0.8-0.7,1.3
					c0,0.4,0.1,0.8,0.4,1.1C48.4,162.8,48.8,162.9,49.4,162.9z"/>
				<path class="st6" d="M61.4,155.8l-0.9-0.1c-0.5,0-0.9,0.1-1.2,0.3c-0.3,0.2-0.6,0.6-0.8,1v7.2h-1.8v-10h1.6l0.2,1.5
					c0.3-0.5,0.6-0.9,1.1-1.2c0.4-0.3,0.9-0.4,1.4-0.4c0.1,0,0.3,0,0.4,0c0.1,0,0.2,0,0.3,0.1L61.4,155.8z"/>
				<path class="st6" d="M67.9,155.8l-0.9-0.1c-0.5,0-0.9,0.1-1.2,0.3c-0.3,0.2-0.6,0.6-0.8,1v7.2h-1.8v-10h1.6l0.2,1.5
					c0.3-0.5,0.6-0.9,1.1-1.2c0.4-0.3,0.9-0.4,1.4-0.4c0.1,0,0.3,0,0.4,0c0.1,0,0.2,0,0.3,0.1L67.9,155.8z"/>
				<path class="st6" d="M71.7,151.7h-1.8v-1.9h1.8V151.7z M71.7,164.3h-1.8v-10h1.8V164.3z"/>
				<path class="st6" d="M78.7,164.5c-1.4,0-2.5-0.5-3.3-1.4c-0.8-0.9-1.2-2.1-1.2-3.6V159c0-1.4,0.4-2.6,1.3-3.6
					c0.8-0.9,1.9-1.4,3-1.4c1.4,0,2.4,0.4,3.1,1.2c0.7,0.8,1,1.9,1,3.3v1.1H76l0,0c0,1,0.3,1.8,0.7,2.4c0.5,0.6,1.1,0.9,2,0.9
					c0.6,0,1.2-0.1,1.6-0.3c0.5-0.2,0.9-0.4,1.2-0.7l0.7,1.2c-0.4,0.4-0.8,0.7-1.4,0.9S79.5,164.5,78.7,164.5z M78.4,155.5
					c-0.6,0-1.1,0.3-1.6,0.8c-0.4,0.5-0.7,1.2-0.8,1.9l0,0h4.6V158c0-0.7-0.2-1.3-0.6-1.8S79.1,155.5,78.4,155.5z"/>
				<path class="st6" d="M89.3,155.8l-0.9-0.1c-0.5,0-0.9,0.1-1.2,0.3c-0.3,0.2-0.6,0.6-0.8,1v7.2h-1.8v-10h1.6l0.2,1.5
					c0.3-0.5,0.6-0.9,1.1-1.2c0.4-0.3,0.9-0.4,1.4-0.4c0.1,0,0.3,0,0.4,0c0.1,0,0.2,0,0.3,0.1L89.3,155.8z"/>
			</g>
		</g>
		<rect x="6.1" y="215.2" class="st2" width="150.6" height="57.4"/>
		<path class="st3" d="M147.7,240.9l-6.6-6.6v-13.1H14.4v40.6h126.7v-14.3L147.7,240.9z"/>
		<path class="st10" d="M147.7,240.9l-6.6-6.6v-13.1H14.4v40.6h126.7v-14.3L147.7,240.9z"/>
		<line class="st10" x1="147.1" y1="240.9" x2="162.6" y2="240.9"/>
		<g>
			<g class="st8">
				<path class="st6" d="M36.3,241.3v5.4h-1.8v-13.5h5.2c1.4,0,2.6,0.4,3.4,1.1s1.2,1.7,1.2,2.9c0,1.2-0.4,2.2-1.2,2.9
					c-0.8,0.7-1.9,1.1-3.4,1.1H36.3z M36.3,239.9h3.3c0.9,0,1.6-0.2,2.1-0.7c0.5-0.5,0.7-1.1,0.7-1.9s-0.2-1.4-0.7-1.9
					c-0.5-0.5-1.1-0.8-2-0.8h-3.3V239.9z"/>
			</g>
			<g class="st8">
				<path class="st6" d="M52.3,246.7c-0.1-0.3-0.1-0.6-0.1-0.8c0-0.2-0.1-0.5-0.1-0.7c-0.3,0.5-0.8,0.9-1.3,1.2
					c-0.5,0.3-1.1,0.5-1.8,0.5c-1,0-1.8-0.3-2.4-0.8c-0.5-0.5-0.8-1.3-0.8-2.2c0-1,0.4-1.7,1.2-2.2c0.8-0.5,1.8-0.8,3.2-0.8h2v-1
					c0-0.6-0.2-1.1-0.5-1.4c-0.4-0.3-0.9-0.5-1.5-0.5c-0.6,0-1.1,0.1-1.4,0.4c-0.4,0.3-0.6,0.7-0.6,1.1h-1.7l0-0.1
					c0-0.7,0.3-1.4,1-2c0.7-0.6,1.7-0.9,2.8-0.9c1.1,0,2.1,0.3,2.7,0.9c0.7,0.6,1,1.4,1,2.5v4.8c0,0.4,0,0.7,0.1,1s0.1,0.7,0.2,1
					H52.3z M49.3,245.4c0.7,0,1.3-0.2,1.8-0.5c0.5-0.3,0.9-0.7,1-1.2v-1.6h-2.1c-0.7,0-1.3,0.2-1.8,0.6c-0.4,0.4-0.7,0.8-0.7,1.3
					c0,0.4,0.1,0.8,0.4,1.1C48.3,245.3,48.8,245.4,49.3,245.4z"/>
				<path class="st6" d="M59.4,243l0.3,1.3h0.1l2.5-7.6h2L60,248.3c-0.3,0.7-0.6,1.3-1.1,1.8c-0.5,0.5-1.1,0.8-1.9,0.8
					c-0.1,0-0.3,0-0.6-0.1c-0.2,0-0.4-0.1-0.5-0.1l0.2-1.4c0,0,0.1,0,0.3,0c0.3,0,0.4,0,0.5,0c0.4,0,0.7-0.2,1-0.5
					c0.2-0.3,0.5-0.7,0.6-1.2l0.4-1l-3.7-9.8h2L59.4,243z"/>
			</g>
			<g class="st8">
				<path class="st6" d="M65.5,241.6c0-1.5,0.4-2.7,1.2-3.7c0.8-1,1.9-1.4,3.3-1.4c1.4,0,2.5,0.5,3.3,1.4c0.8,1,1.2,2.2,1.2,3.7v0.2
					c0,1.5-0.4,2.7-1.2,3.7c-0.8,1-1.9,1.4-3.3,1.4c-1.4,0-2.5-0.5-3.3-1.4c-0.8-1-1.2-2.2-1.2-3.7V241.6z M67.3,241.8
					c0,1.1,0.2,1.9,0.7,2.6c0.4,0.7,1.1,1,2,1c0.9,0,1.5-0.3,2-1c0.5-0.7,0.7-1.6,0.7-2.6v-0.2c0-1-0.2-1.9-0.7-2.6
					c-0.5-0.7-1.1-1-2-1c-0.9,0-1.5,0.3-2,1c-0.4,0.7-0.7,1.6-0.7,2.6V241.8z"/>
				<path class="st6" d="M83.1,245.3c-0.3,0.5-0.7,1-1.2,1.2c-0.5,0.3-1.1,0.4-1.7,0.4c-1.1,0-1.9-0.3-2.6-1s-0.9-1.8-0.9-3.3v-5.9
					h1.8v5.9c0,1.1,0.2,1.8,0.5,2.2s0.8,0.6,1.5,0.6c0.6,0,1.2-0.1,1.6-0.4s0.7-0.6,1-1.1v-7.2h1.8v10h-1.6L83.1,245.3z"/>
				<path class="st6" d="M89.9,234.3v2.4h1.9v1.4h-1.9v6.1c0,0.5,0.1,0.8,0.3,1c0.2,0.2,0.5,0.3,0.8,0.3c0.1,0,0.2,0,0.3,0
					c0.1,0,0.2-0.1,0.3-0.1l0.2,1.3c-0.1,0.1-0.3,0.2-0.6,0.3s-0.5,0.1-0.8,0.1c-0.7,0-1.3-0.2-1.8-0.7c-0.4-0.4-0.7-1.2-0.7-2.1
					v-6.1h-1.6v-1.4h1.6v-2.4H89.9z"/>
			</g>
		</g>
	</g>
</g>
<ellipse class="st2" cx="154.6" cy="150.6" rx="145.6" ry="144.6"/>
<ellipse class="st13" cx="154.6" cy="150.6" rx="145.1" ry="144.1"/>
</svg>
