<svg id="Layer_1" data-name="Layer 1" xmlns="http://www.w3.org/2000/svg" xmlns:xlink="http://www.w3.org/1999/xlink" viewBox="0 0 309.28 307.28"><defs><style>.cls-1,.cls-10,.cls-11,.cls-2,.cls-6,.cls-7,.cls-9{fill:none;}.cls-2{clip-path:url(#clip-path);}.cls-3{clip-path:url(#clip-path-2);}.cls-4{fill:#fff;}.cls-5{fill:#f1f1f1;}.cls-6{stroke:#c1c1c1;}.cls-10,.cls-6,.cls-7,.cls-9{stroke-miterlimit:10;}.cls-7{stroke:#f1f1f1;}.cls-8{isolation:isolate;}.cls-10,.cls-9{stroke:#004384;}.cls-9{stroke-width:2px;}.cls-10{stroke-width:0.76px;}.cls-11{stroke:#004385;}</style><clipPath id="clip-path"><ellipse class="cls-1" cx="154.64" cy="150.64" rx="145.64" ry="144.64"/></clipPath><clipPath id="clip-path-2"><ellipse class="cls-2" cx="154.64" cy="150.64" rx="145.14" ry="144.14"/></clipPath></defs><title>Artboard 1</title><g class="cls-3"><rect class="cls-1" x="9.29" y="-171.94" width="486.23" height="550.35"/><rect class="cls-4" x="17.97" y="-165.93" width="468.86" height="532.98"/><path class="cls-5" d="M486.17-165.26V366.38H18.64V-165.26H486.17m1.34-1.34H17.3V367.72H487.5Z"/><line class="cls-6" x1="487.5" y1="206.76" x2="17.3" y2="206.76"/><rect class="cls-7" x="23.31" y="-14.85" width="175.66" height="38.74"/><path d="M184.54,2.11l-6.68,8-6.54-8Z"/><g class="cls-8"><g class="cls-8"><path d="M44.18,7.8V-4.28h3.71A5.11,5.11,0,0,1,51.7-2.83,5.13,5.13,0,0,1,53.13.94V2.59A5.12,5.12,0,0,1,51.7,6.35,5.13,5.13,0,0,1,47.89,7.8ZM45.81-3V6.51h2.08a3.34,3.34,0,0,0,2.64-1.1,4.13,4.13,0,0,0,1-2.83V.92a4.11,4.11,0,0,0-1-2.81A3.34,3.34,0,0,0,47.89-3Z"/><path d="M60.77,6.47a3,3,0,0,1-1.09,1.11A3,3,0,0,1,58.15,8,2.89,2.89,0,0,1,55.86,7,4.36,4.36,0,0,1,55,4.12v-5.3h1.64V4.13a3.34,3.34,0,0,0,.42,2,1.57,1.57,0,0,0,1.32.54,2.69,2.69,0,0,0,1.44-.35,2.21,2.21,0,0,0,.86-1V-1.18h1.63v9H60.88Z"/><path d="M69,.26l-.84,0A1.87,1.87,0,0,0,67,.52a2,2,0,0,0-.68.86V7.8H64.73v-9h1.46L66.35.13A3.12,3.12,0,0,1,67.29-1a2.2,2.2,0,0,1,1.29-.39,2,2,0,0,1,.35,0l.27.06Z"/><path d="M76.08,7.8q-.08-.41-.13-.72a5.39,5.39,0,0,1-.05-.63A3.81,3.81,0,0,1,74.7,7.54,3,3,0,0,1,73.12,8,2.94,2.94,0,0,1,71,7.26a2.64,2.64,0,0,1-.73-2,2.32,2.32,0,0,1,1-2,4.86,4.86,0,0,1,2.83-.73H75.9V1.65A1.65,1.65,0,0,0,75.41.4a1.89,1.89,0,0,0-1.36-.46,2,2,0,0,0-1.28.4,1.21,1.21,0,0,0-.49,1H70.72l0,0a2.17,2.17,0,0,1,.93-1.79,3.8,3.8,0,0,1,2.52-.81,3.71,3.71,0,0,1,2.46.78,2.75,2.75,0,0,1,.93,2.24V6a8.42,8.42,0,0,0,0,.93,4.76,4.76,0,0,0,.18.88ZM73.36,6.6A2.91,2.91,0,0,0,75,6.14a2.16,2.16,0,0,0,.93-1V3.64H74.06a2.38,2.38,0,0,0-1.58.5,1.48,1.48,0,0,0-.59,1.17,1.23,1.23,0,0,0,.37.94A1.57,1.57,0,0,0,73.36,6.6Z"/><path d="M82.06-3.35v2.17h1.7V0h-1.7V5.49a1.22,1.22,0,0,0,.26.89,1,1,0,0,0,.69.26l.31,0,.3-.08.22,1.12a1.44,1.44,0,0,1-.54.25A2.71,2.71,0,0,1,82.6,8,2.12,2.12,0,0,1,81,7.37a2.62,2.62,0,0,1-.59-1.89V0H79V-1.18h1.43V-3.35Z"/><path d="M87.55-3.48H85.91V-5.15h1.63Zm0,11.28H85.91v-9h1.63Z"/><path d="M89.68,3.23A4.94,4.94,0,0,1,90.76-.05a3.62,3.62,0,0,1,2.93-1.29,3.66,3.66,0,0,1,3,1.29,4.93,4.93,0,0,1,1.08,3.29v.18A4.92,4.92,0,0,1,96.65,6.7a4,4,0,0,1-5.88,0,4.91,4.91,0,0,1-1.08-3.28Zm1.64.18a4.25,4.25,0,0,0,.6,2.35,2.18,2.18,0,0,0,3.57,0,4.22,4.22,0,0,0,.61-2.35V3.22A4.22,4.22,0,0,0,95.48.88a2,2,0,0,0-1.79-.94,2,2,0,0,0-1.77.94,4.26,4.26,0,0,0-.6,2.35Z"/><path d="M101.19-1.18,101.3.16A3.25,3.25,0,0,1,102.43-1,3,3,0,0,1,104-1.35a2.93,2.93,0,0,1,2.25.85,3.74,3.74,0,0,1,.8,2.63V7.8h-1.63V2.17a2.43,2.43,0,0,0-.47-1.68,1.88,1.88,0,0,0-1.43-.5,2.3,2.3,0,0,0-1.25.34,2.48,2.48,0,0,0-.87.93V7.8H99.73v-9Z"/></g></g><rect class="cls-9" x="23.31" y="126.74" width="175.66" height="38.74"/><path d="M184.54,143.71l-6.68,8-6.54-8Z"/><g class="cls-8"><g class="cls-8"><path d="M45.81,144.55v4.85H44.18V137.31H48.8a4.24,4.24,0,0,1,3,1,3.76,3.76,0,0,1,0,5.26,4.28,4.28,0,0,1-3,1Zm0-1.29h3a2.34,2.34,0,1,0,0-4.66h-3Z"/><path d="M60.19,149.4q-.08-.41-.13-.72a5.61,5.61,0,0,1-.05-.63,3.81,3.81,0,0,1-1.19,1.08,3,3,0,0,1-1.58.44,2.94,2.94,0,0,1-2.14-.72,2.64,2.64,0,0,1-.73-2,2.32,2.32,0,0,1,1-2,4.86,4.86,0,0,1,2.83-.73H60v-.89a1.64,1.64,0,0,0-.48-1.25,1.89,1.89,0,0,0-1.36-.46,2,2,0,0,0-1.28.4,1.21,1.21,0,0,0-.49,1H54.83l0,0a2.17,2.17,0,0,1,.93-1.79,3.8,3.8,0,0,1,2.52-.81,3.71,3.71,0,0,1,2.46.78,2.75,2.75,0,0,1,.93,2.24v4.33a8.42,8.42,0,0,0,0,.93,4.84,4.84,0,0,0,.18.88Zm-2.71-1.2a2.92,2.92,0,0,0,1.6-.46,2.17,2.17,0,0,0,.93-1v-1.46H58.17a2.39,2.39,0,0,0-1.58.5A1.48,1.48,0,0,0,56,146.9a1.23,1.23,0,0,0,.37.94A1.57,1.57,0,0,0,57.48,148.19Z"/><path d="M66.64,146.07l.29,1.13H67l2.21-6.78H71l-3.78,10.36a4.65,4.65,0,0,1-1,1.58,2.25,2.25,0,0,1-1.71.67,3.58,3.58,0,0,1-.51,0l-.47-.09.17-1.29.29,0,.44,0a1,1,0,0,0,.85-.46,4.79,4.79,0,0,0,.56-1l.39-.94-3.34-8.8h1.83Z"/><path d="M71.94,144.82A4.94,4.94,0,0,1,73,141.54a3.62,3.62,0,0,1,2.93-1.29,3.66,3.66,0,0,1,3,1.29A4.93,4.93,0,0,1,80,144.82V145a4.92,4.92,0,0,1-1.08,3.29,4,4,0,0,1-5.88,0A4.91,4.91,0,0,1,71.94,145Zm1.64.18a4.25,4.25,0,0,0,.6,2.35,2.18,2.18,0,0,0,3.57,0,4.22,4.22,0,0,0,.61-2.35v-.18a4.22,4.22,0,0,0-.61-2.35,2,2,0,0,0-1.79-.94,2,2,0,0,0-1.77.94,4.26,4.26,0,0,0-.6,2.35Z"/><path d="M87.68,148.07a3,3,0,0,1-1.09,1.11,3,3,0,0,1-1.54.39,2.89,2.89,0,0,1-2.29-.94,4.36,4.36,0,0,1-.82-2.92v-5.3h1.63v5.31a3.34,3.34,0,0,0,.42,2,1.57,1.57,0,0,0,1.32.54,2.69,2.69,0,0,0,1.44-.35,2.21,2.21,0,0,0,.86-1v-6.47h1.63v9H87.79Z"/><path d="M93.8,138.25v2.17h1.7v1.21H93.8v5.45a1.22,1.22,0,0,0,.26.89,1,1,0,0,0,.69.26l.31,0,.3-.08.22,1.12a1.44,1.44,0,0,1-.54.25,2.71,2.71,0,0,1-.71.09,2.12,2.12,0,0,1-1.59-.6,2.62,2.62,0,0,1-.59-1.89v-5.45H90.74v-1.21h1.43v-2.17Z"/></g></g><rect class="cls-9" x="206.32" y="126.74" width="135.58" height="38.74"/><g class="cls-8"><g class="cls-8"><path d="M236,137.31v8.19a3.68,3.68,0,0,1-1.28,3,5.13,5.13,0,0,1-3.35,1,4.84,4.84,0,0,1-3.23-1,3.73,3.73,0,0,1-1.24-3v-8.19h1.63v8.19a2.67,2.67,0,0,0,.78,2.08,2.94,2.94,0,0,0,2.06.71,3.22,3.22,0,0,0,2.17-.71,2.59,2.59,0,0,0,.83-2.08v-8.19Z"/><path d="M245.27,146.35a1.78,1.78,0,0,0-.62-1.38,5.25,5.25,0,0,0-2.21-.94,7.29,7.29,0,0,1-3-1.35,2.79,2.79,0,0,1-1.08-2.24,2.93,2.93,0,0,1,1.16-2.36,4.58,4.58,0,0,1,3-.95,4.47,4.47,0,0,1,3.16,1.09,3.21,3.21,0,0,1,1.13,2.52l0,0h-1.56a2.24,2.24,0,0,0-.7-1.72,3.43,3.43,0,0,0-3.88-.1,1.8,1.8,0,0,0-.65,1.44,1.59,1.59,0,0,0,.71,1.32,6.68,6.68,0,0,0,2.29.93,6.54,6.54,0,0,1,2.91,1.39,3,3,0,0,1,1,2.28,2.79,2.79,0,0,1-1.2,2.35,5.1,5.1,0,0,1-3.12.89,5.4,5.4,0,0,1-3.2-1A3,3,0,0,1,238,146l0,0h1.56a2,2,0,0,0,.85,1.77,3.57,3.57,0,0,0,2.12.61,3.29,3.29,0,0,0,2-.52A1.65,1.65,0,0,0,245.27,146.35Z"/><path d="M249.29,149.4V137.31H253a5,5,0,0,1,5.25,5.22v1.65A5,5,0,0,1,253,149.4Zm1.63-10.8v9.51H253a3.33,3.33,0,0,0,2.64-1.1,4.13,4.13,0,0,0,1-2.83v-1.67a4.11,4.11,0,0,0-1-2.81,3.33,3.33,0,0,0-2.64-1.1Z"/></g></g><path class="cls-7" d="M337.89,23.89H210.33a2.68,2.68,0,0,1-2.67-2.67V-12.18a2.68,2.68,0,0,1,2.67-2.67H337.89a2.68,2.68,0,0,1,2.67,2.67v33.4A2.68,2.68,0,0,1,337.89,23.89Z"/><g class="cls-8"><g class="cls-8"><path d="M228.34,6.8H226.8V-3.07l-2.33,0V-4.15l3.87-.42Z"/></g></g><g class="cls-8"><g class="cls-8"><path d="M39.74,57.12H38.1V51.78H32.23v5.34H30.6V45h1.64v5.46H38.1V45h1.64Z"/><path d="M44.19,45.83H42.55V44.17h1.64Zm0,11.28H42.55v-9h1.64Z"/><path d="M46.34,52.79a5.9,5.9,0,0,1,.95-3.5A3,3,0,0,1,49.9,48a3.15,3.15,0,0,1,1.5.34,3,3,0,0,1,1.08,1l.2-1.17H54v9a3.43,3.43,0,0,1-1,2.65,4.12,4.12,0,0,1-2.9.92,6.07,6.07,0,0,1-1.4-.18,5.44,5.44,0,0,1-1.32-.49l.41-1.27a4.23,4.23,0,0,0,1.06.4,5.12,5.12,0,0,0,1.23.15,2.38,2.38,0,0,0,1.74-.54,2.25,2.25,0,0,0,.54-1.66v-1A2.85,2.85,0,0,1,51.3,57a3.29,3.29,0,0,1-1.41.29,3.13,3.13,0,0,1-2.6-1.2A4.89,4.89,0,0,1,46.34,53ZM48,53a3.73,3.73,0,0,0,.57,2.17,2,2,0,0,0,1.74.82,2.16,2.16,0,0,0,1.24-.34,2.55,2.55,0,0,0,.82-1V50.54a2.54,2.54,0,0,0-.82-.91,2.16,2.16,0,0,0-1.22-.34,1.9,1.9,0,0,0-1.75,1A4.87,4.87,0,0,0,48,52.79Z"/><path d="M58,49.34a3.31,3.31,0,0,1,1.14-1,3.13,3.13,0,0,1,1.5-.36,2.9,2.9,0,0,1,2.24.86,3.8,3.8,0,0,1,.8,2.66v5.63H62V51.47a2.4,2.4,0,0,0-.48-1.64,1.82,1.82,0,0,0-1.42-.53,2.42,2.42,0,0,0-1.23.32,2.67,2.67,0,0,0-.91.87v6.63H56.36V44.17H58Z"/><path d="M77.92,53A4.93,4.93,0,0,1,77,56.1a3.08,3.08,0,0,1-2.57,1.19,3.27,3.27,0,0,1-1.54-.34,2.87,2.87,0,0,1-1.09-1l-.2,1.19H70.25V44.17h1.63v5a2.83,2.83,0,0,1,1-.91A3.23,3.23,0,0,1,74.4,48,3,3,0,0,1,77,49.3a6,6,0,0,1,.93,3.5Zm-1.64-.17a5,5,0,0,0-.57-2.52,1.87,1.87,0,0,0-1.73-1,2.14,2.14,0,0,0-1.27.37,2.61,2.61,0,0,0-.83,1v3.89a2.67,2.67,0,0,0,.83,1A2.13,2.13,0,0,0,74,56a1.94,1.94,0,0,0,1.72-.82A3.78,3.78,0,0,0,76.29,53Z"/><path d="M85.43,57.12q-.08-.41-.13-.72a5.39,5.39,0,0,1-.05-.63,3.81,3.81,0,0,1-1.19,1.08,3,3,0,0,1-1.58.44,2.94,2.94,0,0,1-2.14-.72,2.64,2.64,0,0,1-.73-2,2.32,2.32,0,0,1,1-2,4.86,4.86,0,0,1,2.83-.73h1.78V51a1.65,1.65,0,0,0-.48-1.25,1.89,1.89,0,0,0-1.36-.46,2,2,0,0,0-1.28.4,1.21,1.21,0,0,0-.49,1H80.07l0,0A2.17,2.17,0,0,1,81,48.78,3.8,3.8,0,0,1,83.5,48a3.71,3.71,0,0,1,2.46.78A2.75,2.75,0,0,1,86.89,51v4.33a8.42,8.42,0,0,0,0,.93,4.76,4.76,0,0,0,.18.88Zm-2.71-1.2a2.91,2.91,0,0,0,1.6-.46,2.16,2.16,0,0,0,.93-1V53H83.42a2.38,2.38,0,0,0-1.58.5,1.48,1.48,0,0,0-.59,1.17,1.23,1.23,0,0,0,.37.94A1.57,1.57,0,0,0,82.72,55.91Z"/><path d="M93.51,49.58l-.84,0a1.87,1.87,0,0,0-1.09.31,2,2,0,0,0-.68.86v6.42H89.26v-9h1.46l.16,1.31a3.12,3.12,0,0,1,.94-1.09A2.2,2.2,0,0,1,93.11,48a2,2,0,0,1,.35,0l.27.06Z"/><path d="M99.34,49.58l-.84,0a1.87,1.87,0,0,0-1.09.31,2,2,0,0,0-.68.86v6.42H95.09v-9h1.46l.16,1.31a3.12,3.12,0,0,1,.94-1.09A2.2,2.2,0,0,1,98.94,48a2,2,0,0,1,.35,0l.27.06Z"/><path d="M102.68,45.83H101V44.17h1.63Zm0,11.28H101v-9h1.63Z"/><path d="M108.92,57.29a3.79,3.79,0,0,1-3-1.25,4.7,4.7,0,0,1-1.11-3.24v-.37A4.61,4.61,0,0,1,106,49.24a3.52,3.52,0,0,1,2.7-1.27,3.4,3.4,0,0,1,2.75,1.1,4.36,4.36,0,0,1,.93,2.92v1h-5.83l0,0a3.53,3.53,0,0,0,.66,2.12,2.09,2.09,0,0,0,1.77.83,4.13,4.13,0,0,0,1.46-.24,3.36,3.36,0,0,0,1.08-.65l.64,1.06a3.79,3.79,0,0,1-1.27.79A5.11,5.11,0,0,1,108.92,57.29Zm-.25-8a1.77,1.77,0,0,0-1.4.69,3.26,3.26,0,0,0-.71,1.73l0,0h4.14V51.5a2.5,2.5,0,0,0-.51-1.61A1.84,1.84,0,0,0,108.67,49.25Z"/><path d="M118.44,49.58l-.84,0a1.87,1.87,0,0,0-1.09.31,2,2,0,0,0-.68.86v6.42h-1.63v-9h1.46l.16,1.31a3.12,3.12,0,0,1,.94-1.09A2.2,2.2,0,0,1,118,48a2,2,0,0,1,.35,0l.27.06Z"/></g></g><g class="cls-8"><g class="cls-8"><path d="M32.23,102.58H38v1.29H30.6V91.78h1.64Z"/><path d="M39.09,99.29A4.94,4.94,0,0,1,40.17,96a3.62,3.62,0,0,1,2.93-1.29A3.66,3.66,0,0,1,46,96a4.93,4.93,0,0,1,1.08,3.29v.18a4.92,4.92,0,0,1-1.08,3.29,4,4,0,0,1-5.88,0,4.91,4.91,0,0,1-1.08-3.28Zm1.64.18a4.25,4.25,0,0,0,.6,2.35,2.18,2.18,0,0,0,3.57,0,4.22,4.22,0,0,0,.61-2.35v-.18a4.22,4.22,0,0,0-.61-2.35A2,2,0,0,0,43.1,96a2,2,0,0,0-1.77.94,4.26,4.26,0,0,0-.6,2.35Z"/><path d="M51.43,100.6l.19,1.09h0l.23-1.09,1.79-5.71H55l1.8,5.71.26,1.21h0l.24-1.21,1.41-5.71H60.4l-2.61,9H56.47L54.74,98.4l-.37-1.53h0L54,98.4l-1.71,5.47H50.93l-2.61-9h1.63Z"/><path d="M73.89,99.72a4.93,4.93,0,0,1-.93,3.13A3.08,3.08,0,0,1,70.39,104a3.27,3.27,0,0,1-1.54-.34,2.87,2.87,0,0,1-1.09-1l-.2,1.19H66.22V90.92h1.63v5a2.83,2.83,0,0,1,1-.91,3.23,3.23,0,0,1,1.47-.32A3,3,0,0,1,73,96a6,6,0,0,1,.93,3.5Zm-1.64-.17A5,5,0,0,0,71.69,97,1.87,1.87,0,0,0,70,96a2.14,2.14,0,0,0-1.27.37,2.61,2.61,0,0,0-.83,1v3.89a2.67,2.67,0,0,0,.83,1,2.13,2.13,0,0,0,1.29.37,1.94,1.94,0,0,0,1.72-.82,3.78,3.78,0,0,0,.56-2.17Z"/><path d="M81.41,103.87q-.08-.41-.13-.72a5.39,5.39,0,0,1-.05-.63A3.81,3.81,0,0,1,80,103.61a3,3,0,0,1-1.58.44,2.94,2.94,0,0,1-2.14-.72,2.64,2.64,0,0,1-.73-2,2.32,2.32,0,0,1,1-2,4.86,4.86,0,0,1,2.83-.73h1.78v-.89a1.65,1.65,0,0,0-.48-1.25A1.89,1.89,0,0,0,79.38,96a2,2,0,0,0-1.28.4,1.21,1.21,0,0,0-.49,1H76l0,0A2.17,2.17,0,0,1,77,95.53a3.8,3.8,0,0,1,2.52-.81,3.71,3.71,0,0,1,2.46.78,2.75,2.75,0,0,1,.93,2.24v4.33a8.42,8.42,0,0,0,0,.93,4.76,4.76,0,0,0,.18.88Zm-2.71-1.2a2.91,2.91,0,0,0,1.6-.46,2.16,2.16,0,0,0,.93-1V99.71H79.39a2.38,2.38,0,0,0-1.58.5,1.48,1.48,0,0,0-.59,1.17,1.23,1.23,0,0,0,.37.94A1.57,1.57,0,0,0,78.69,102.66Z"/><path d="M89.48,96.33l-.84,0a1.87,1.87,0,0,0-1.09.31,2,2,0,0,0-.68.86v6.42H85.23v-9H86.7l.16,1.31a3.12,3.12,0,0,1,.94-1.09,2.2,2.2,0,0,1,1.29-.39,2,2,0,0,1,.35,0l.27.06Z"/><path d="M95.31,96.33l-.84,0a1.87,1.87,0,0,0-1.09.31,2,2,0,0,0-.68.86v6.42H91.06v-9h1.46l.16,1.31a3.12,3.12,0,0,1,.94-1.09,2.2,2.2,0,0,1,1.29-.39,2,2,0,0,1,.35,0l.27.06Z"/><path d="M98.66,92.59H97V90.92h1.63Zm0,11.28H97v-9h1.63Z"/><path d="M104.9,104a3.79,3.79,0,0,1-3-1.25,4.7,4.7,0,0,1-1.11-3.24v-.37A4.61,4.61,0,0,1,101.95,96a3.52,3.52,0,0,1,2.7-1.27,3.4,3.4,0,0,1,2.75,1.1,4.36,4.36,0,0,1,.93,2.92v1H102.5l0,0a3.53,3.53,0,0,0,.66,2.12,2.09,2.09,0,0,0,1.77.83,4.13,4.13,0,0,0,1.46-.24,3.36,3.36,0,0,0,1.08-.65l.64,1.06a3.79,3.79,0,0,1-1.27.79A5.11,5.11,0,0,1,104.9,104Zm-.25-8a1.77,1.77,0,0,0-1.4.69,3.26,3.26,0,0,0-.71,1.73l0,0h4.14v-.21a2.5,2.5,0,0,0-.51-1.61A1.84,1.84,0,0,0,104.65,96Z"/><path d="M114.41,96.33l-.84,0a1.87,1.87,0,0,0-1.09.31,2,2,0,0,0-.68.86v6.42h-1.63v-9h1.46l.16,1.31a3.12,3.12,0,0,1,.94-1.09,2.2,2.2,0,0,1,1.29-.39,2,2,0,0,1,.35,0l.27.06Z"/></g></g><g class="cls-8"><g class="cls-8"><path d="M29.23,223.91l.22,1.51h0l.32-1.52L32,216h1.44l2.23,7.9.33,1.55h0l.24-1.55,1.8-7.9h1.64L36.86,228.1H35.4L33,219.71l-.22-1.09h0l-.21,1.09-2.42,8.38H28.66L25.76,216h1.63Z"/><path d="M43.28,216.81H41.64v-1.67h1.63Zm0,11.28H41.64v-9h1.63Z"/><path d="M47.26,219.12l.12,1.34a3.24,3.24,0,0,1,1.13-1.11,3,3,0,0,1,1.54-.39,2.93,2.93,0,0,1,2.25.85,3.74,3.74,0,0,1,.8,2.63v5.67H51.45v-5.64a2.43,2.43,0,0,0-.47-1.68,1.88,1.88,0,0,0-1.43-.5,2.31,2.31,0,0,0-1.25.34,2.49,2.49,0,0,0-.87.93v6.55H45.79v-9Z"/><path d="M67.33,223.95a5,5,0,0,1-.93,3.13,3.07,3.07,0,0,1-2.56,1.19,3.56,3.56,0,0,1-1.46-.28,2.78,2.78,0,0,1-1.07-.83v4.39H59.68V219.12h1.25l.26,1.16a3,3,0,0,1,1.1-1,3.28,3.28,0,0,1,1.53-.34,3,3,0,0,1,2.59,1.32,6,6,0,0,1,.92,3.5Zm-1.63-.18a4.73,4.73,0,0,0-.6-2.51,2,2,0,0,0-1.77-1,2.18,2.18,0,0,0-1.2.32,2.39,2.39,0,0,0-.8.88v4.34a2.33,2.33,0,0,0,.8.87,2.26,2.26,0,0,0,1.22.31,2,2,0,0,0,1.76-.85,3.73,3.73,0,0,0,.6-2.19Z"/><path d="M74.86,228.1c-.06-.27-.1-.51-.13-.72a5.43,5.43,0,0,1-.05-.63,3.79,3.79,0,0,1-1.19,1.08,3,3,0,0,1-1.58.44,2.94,2.94,0,0,1-2.14-.72,2.64,2.64,0,0,1-.73-2,2.32,2.32,0,0,1,1-2,4.86,4.86,0,0,1,2.83-.73h1.78v-.89a1.65,1.65,0,0,0-.48-1.25,1.89,1.89,0,0,0-1.36-.46,2,2,0,0,0-1.28.4,1.21,1.21,0,0,0-.49,1H69.5l0-.05a2.18,2.18,0,0,1,.93-1.79,3.81,3.81,0,0,1,2.52-.81,3.71,3.71,0,0,1,2.46.78,2.75,2.75,0,0,1,.93,2.24v4.33a8.43,8.43,0,0,0,0,.93,4.73,4.73,0,0,0,.18.88Zm-2.71-1.2a2.92,2.92,0,0,0,1.6-.46,2.16,2.16,0,0,0,.93-1v-1.46H72.85a2.39,2.39,0,0,0-1.58.5,1.49,1.49,0,0,0-.59,1.17,1.23,1.23,0,0,0,.37.94A1.56,1.56,0,0,0,72.15,226.89Z"/><path d="M81.31,224.77l.29,1.13h.05l2.21-6.78h1.82L81.9,229.47a4.64,4.64,0,0,1-1,1.58,2.24,2.24,0,0,1-1.71.67,3.44,3.44,0,0,1-.51,0l-.47-.09.17-1.29.29,0,.44,0a1,1,0,0,0,.85-.46,4.77,4.77,0,0,0,.56-1l.39-.94-3.34-8.8h1.83Z"/><path d="M86.61,223.52a4.94,4.94,0,0,1,1.08-3.28,3.61,3.61,0,0,1,2.93-1.29,3.66,3.66,0,0,1,3,1.29,4.94,4.94,0,0,1,1.08,3.29v.18A4.92,4.92,0,0,1,93.57,227a4,4,0,0,1-5.88,0,4.91,4.91,0,0,1-1.08-3.28Zm1.64.18a4.24,4.24,0,0,0,.6,2.35,2.17,2.17,0,0,0,3.57,0A4.22,4.22,0,0,0,93,223.7v-.18a4.22,4.22,0,0,0-.61-2.35,2,2,0,0,0-1.79-.94,2,2,0,0,0-1.77.94,4.26,4.26,0,0,0-.6,2.35Z"/><path d="M102.36,226.77a3,3,0,0,1-1.09,1.11,3,3,0,0,1-1.54.39,2.89,2.89,0,0,1-2.29-.94,4.36,4.36,0,0,1-.82-2.92v-5.29h1.63v5.31a3.33,3.33,0,0,0,.42,2,1.57,1.57,0,0,0,1.32.54,2.7,2.7,0,0,0,1.44-.35,2.22,2.22,0,0,0,.86-1v-6.47h1.63v9h-1.47Z"/><path d="M108.47,216.95v2.17h1.7v1.21h-1.7v5.45a1.22,1.22,0,0,0,.26.89,1,1,0,0,0,.69.26l.31,0,.3-.08.22,1.12a1.46,1.46,0,0,1-.54.25,2.75,2.75,0,0,1-.71.09,2.12,2.12,0,0,1-1.59-.6,2.61,2.61,0,0,1-.59-1.89v-5.45h-1.43v-1.21h1.43v-2.17Z"/><path d="M118.19,216.81h-1.63v-1.67h1.63Zm0,11.28h-1.63v-9h1.63Z"/><path d="M121.38,228.1v-7.77H120v-1.21h1.4V218a3.08,3.08,0,0,1,.75-2.22,2.76,2.76,0,0,1,2.1-.79,3.73,3.73,0,0,1,.57,0l.63.13-.2,1.25-.36-.06-.44,0a1.29,1.29,0,0,0-1.06.43A1.92,1.92,0,0,0,123,218v1.14h1.87v1.21H123v7.77Z"/><path d="M137.65,225h-5.06l-1.15,3.11h-1.67L134.45,216h1.4l4.6,12.09h-1.67Zm-4.56-1.37h4.07l-2-5.5h0Z"/><path d="M150.94,216v8.19a3.68,3.68,0,0,1-1.28,3,5.13,5.13,0,0,1-3.35,1,4.84,4.84,0,0,1-3.23-1,3.74,3.74,0,0,1-1.24-3V216h1.63v8.19a2.67,2.67,0,0,0,.78,2.08,2.94,2.94,0,0,0,2.06.71,3.22,3.22,0,0,0,2.17-.71,2.59,2.59,0,0,0,.83-2.08V216Z"/><path d="M153.61,228.1V216h3.71a5,5,0,0,1,5.25,5.22v1.65a5,5,0,0,1-5.25,5.21Zm1.63-10.8v9.51h2.08a3.34,3.34,0,0,0,2.64-1.1,4.13,4.13,0,0,0,1-2.83v-1.67a4.11,4.11,0,0,0-1-2.81,3.33,3.33,0,0,0-2.64-1.1Z"/><path d="M164.84,229.13h-1.39l5-13.12h1.39Z"/><path d="M176.73,216h1.64v8.74a3.34,3.34,0,0,1-1,2.57,3.76,3.76,0,0,1-2.66.95,4.1,4.1,0,0,1-2.77-.89,3.11,3.11,0,0,1-1-2.57l0,0h1.57a2.23,2.23,0,0,0,.57,1.67,2.21,2.21,0,0,0,1.61.55,1.93,1.93,0,0,0,1.48-.61,2.28,2.28,0,0,0,.57-1.63Z"/><path d="M182.88,223.25v4.85h-1.63V216h4.62a4.25,4.25,0,0,1,3,1,3.77,3.77,0,0,1,0,5.26,4.29,4.29,0,0,1-3,1Zm0-1.29h3a2.34,2.34,0,1,0,0-4.66h-3Z"/><path d="M195.83,222.15,199,216h1.87l-4.24,7.84v4.25H195v-4.36L190.81,216h1.87Z"/><path d="M210.16,228.27a3.79,3.79,0,0,1-3-1.25,4.71,4.71,0,0,1-1.11-3.24v-.37a4.61,4.61,0,0,1,1.14-3.19,3.52,3.52,0,0,1,2.7-1.27,3.4,3.4,0,0,1,2.75,1.1,4.36,4.36,0,0,1,.93,2.92v1h-5.83l0,0a3.53,3.53,0,0,0,.66,2.12,2.09,2.09,0,0,0,1.77.83,4.15,4.15,0,0,0,1.46-.24,3.35,3.35,0,0,0,1.08-.65l.64,1.06a3.81,3.81,0,0,1-1.27.79A5.13,5.13,0,0,1,210.16,228.27Zm-.25-8a1.77,1.77,0,0,0-1.4.69,3.27,3.27,0,0,0-.71,1.73l0,0H212v-.21a2.49,2.49,0,0,0-.51-1.61A1.84,1.84,0,0,0,209.91,220.23Z"/><path d="M216.88,219.12l.12,1.34a3.24,3.24,0,0,1,1.13-1.11,3,3,0,0,1,1.54-.39,2.93,2.93,0,0,1,2.25.85,3.74,3.74,0,0,1,.8,2.63v5.67h-1.63v-5.64a2.43,2.43,0,0,0-.47-1.68,1.88,1.88,0,0,0-1.43-.5,2.31,2.31,0,0,0-1.25.34,2.49,2.49,0,0,0-.87.93v6.55h-1.63v-9Z"/><path d="M224.71,223.77a6,6,0,0,1,.93-3.49,3,3,0,0,1,2.59-1.33,3.22,3.22,0,0,1,1.4.29,2.88,2.88,0,0,1,1,.85v-4.94h1.63V228.1H231l-.19-1.1a2.92,2.92,0,0,1-1.08,1,3.26,3.26,0,0,1-1.49.32,3.08,3.08,0,0,1-2.57-1.19,5,5,0,0,1-.93-3.13Zm1.64.17a3.81,3.81,0,0,0,.56,2.18,1.94,1.94,0,0,0,1.73.82,2.16,2.16,0,0,0,1.23-.33,2.47,2.47,0,0,0,.81-.93v-4.19a2.51,2.51,0,0,0-.82-.88,2.16,2.16,0,0,0-1.21-.33,1.87,1.87,0,0,0-1.74,1,5,5,0,0,0-.56,2.52Z"/><path d="M240,225.71a1.11,1.11,0,0,0-.41-.89,3.86,3.86,0,0,0-1.56-.61,6.53,6.53,0,0,1-2.46-1,2,2,0,0,1-.83-1.66,2.35,2.35,0,0,1,.93-1.87,4.24,4.24,0,0,1,4.92,0,2.38,2.38,0,0,1,.88,2l0,0h-1.56a1.43,1.43,0,0,0-.49-1.06,1.82,1.82,0,0,0-1.31-.47,1.89,1.89,0,0,0-1.29.38,1.19,1.19,0,0,0-.42.92,1,1,0,0,0,.37.84,3.88,3.88,0,0,0,1.52.55,6.54,6.54,0,0,1,2.53,1,2,2,0,0,1,.83,1.68,2.32,2.32,0,0,1-1,1.93,4.05,4.05,0,0,1-2.53.74,3.94,3.94,0,0,1-2.71-.87,2.49,2.49,0,0,1-.94-2l0-.05H236a1.5,1.5,0,0,0,.65,1.27,2.53,2.53,0,0,0,1.42.4,2.3,2.3,0,0,0,1.37-.35A1.09,1.09,0,0,0,240,225.71Z"/><path d="M247.48,223.52a4.94,4.94,0,0,1,1.08-3.28,3.61,3.61,0,0,1,2.93-1.29,3.66,3.66,0,0,1,3,1.29,4.94,4.94,0,0,1,1.08,3.29v.18a4.92,4.92,0,0,1-1.08,3.29,4,4,0,0,1-5.88,0,4.91,4.91,0,0,1-1.08-3.28Zm1.64.18a4.24,4.24,0,0,0,.6,2.35,2.17,2.17,0,0,0,3.57,0,4.22,4.22,0,0,0,.61-2.35v-.18a4.22,4.22,0,0,0-.61-2.35,2,2,0,0,0-1.79-.94,2,2,0,0,0-1.77.94,4.26,4.26,0,0,0-.6,2.35Z"/><path d="M263.23,226.77a3,3,0,0,1-1.09,1.11,3,3,0,0,1-1.54.39,2.89,2.89,0,0,1-2.29-.94,4.36,4.36,0,0,1-.82-2.92v-5.29h1.63v5.31a3.33,3.33,0,0,0,.42,2,1.57,1.57,0,0,0,1.32.54,2.7,2.7,0,0,0,1.44-.35,2.22,2.22,0,0,0,.86-1v-6.47h1.63v9h-1.47Z"/><path d="M269.34,216.95v2.17H271v1.21h-1.7v5.45a1.22,1.22,0,0,0,.26.89,1,1,0,0,0,.69.26l.31,0,.3-.08.22,1.12a1.46,1.46,0,0,1-.54.25,2.75,2.75,0,0,1-.71.09,2.12,2.12,0,0,1-1.59-.6,2.61,2.61,0,0,1-.59-1.89v-5.45h-1.43v-1.21h1.43v-2.17Z"/><path d="M278.28,225.71a1.11,1.11,0,0,0-.41-.89,3.86,3.86,0,0,0-1.56-.61,6.53,6.53,0,0,1-2.46-1,2,2,0,0,1-.83-1.66,2.35,2.35,0,0,1,.93-1.87,4.24,4.24,0,0,1,4.92,0,2.38,2.38,0,0,1,.88,2l0,0h-1.56a1.43,1.43,0,0,0-.49-1.06,1.82,1.82,0,0,0-1.31-.47,1.89,1.89,0,0,0-1.29.38,1.19,1.19,0,0,0-.42.92,1,1,0,0,0,.37.84,3.88,3.88,0,0,0,1.52.55,6.54,6.54,0,0,1,2.53,1,2,2,0,0,1,.83,1.68,2.32,2.32,0,0,1-1,1.93,4.05,4.05,0,0,1-2.53.74,3.94,3.94,0,0,1-2.71-.87,2.49,2.49,0,0,1-.94-2l0-.05h1.56a1.5,1.5,0,0,0,.65,1.27,2.53,2.53,0,0,0,1.42.4,2.3,2.3,0,0,0,1.37-.35A1.09,1.09,0,0,0,278.28,225.71Z"/><path d="M283.72,216.81h-1.63v-1.67h1.63Zm0,11.28h-1.63v-9h1.63Z"/><path d="M285.86,223.77a6,6,0,0,1,.93-3.49,3,3,0,0,1,2.59-1.33,3.22,3.22,0,0,1,1.4.29,2.88,2.88,0,0,1,1,.85v-4.94h1.63V228.1h-1.34l-.19-1.1a2.92,2.92,0,0,1-1.08,1,3.26,3.26,0,0,1-1.49.32,3.08,3.08,0,0,1-2.57-1.19,5,5,0,0,1-.93-3.13Zm1.64.17a3.81,3.81,0,0,0,.56,2.18,1.94,1.94,0,0,0,1.73.82,2.16,2.16,0,0,0,1.23-.33,2.47,2.47,0,0,0,.81-.93v-4.19a2.51,2.51,0,0,0-.82-.88,2.16,2.16,0,0,0-1.21-.33,1.87,1.87,0,0,0-1.74,1,5,5,0,0,0-.56,2.52Z"/><path d="M299.63,228.27a3.79,3.79,0,0,1-3-1.25,4.71,4.71,0,0,1-1.11-3.24v-.37a4.61,4.61,0,0,1,1.14-3.19,3.52,3.52,0,0,1,2.7-1.27,3.4,3.4,0,0,1,2.75,1.1,4.36,4.36,0,0,1,.93,2.92v1h-5.83l0,0a3.53,3.53,0,0,0,.66,2.12,2.09,2.09,0,0,0,1.77.83,4.15,4.15,0,0,0,1.46-.24,3.35,3.35,0,0,0,1.08-.65l.64,1.06a3.81,3.81,0,0,1-1.27.79A5.13,5.13,0,0,1,299.63,228.27Zm-.25-8a1.77,1.77,0,0,0-1.4.69,3.27,3.27,0,0,0-.71,1.73l0,0h4.14v-.21a2.49,2.49,0,0,0-.51-1.61A1.84,1.84,0,0,0,299.38,220.23Z"/><path d="M316.31,219.16a2.68,2.68,0,0,1-.53,1.66,3.17,3.17,0,0,1-1.44,1.06A3.63,3.63,0,0,1,316,223a2.8,2.8,0,0,1,.63,1.8,3.1,3.1,0,0,1-1.09,2.56,5,5,0,0,1-5.69,0,3.12,3.12,0,0,1-1.08-2.56,2.84,2.84,0,0,1,.61-1.8,3.54,3.54,0,0,1,1.66-1.14,3.07,3.07,0,0,1-1.42-1.06,2.75,2.75,0,0,1-.51-1.66,3.11,3.11,0,0,1,1-2.46,3.79,3.79,0,0,1,2.6-.87,3.85,3.85,0,0,1,2.6.87A3.07,3.07,0,0,1,316.31,219.16ZM315,224.79a2.18,2.18,0,0,0-.66-1.63,2.28,2.28,0,0,0-1.66-.64,2.18,2.18,0,0,0-2.29,2.27,2.09,2.09,0,0,0,.63,1.61,2.67,2.67,0,0,0,3.34,0A2.08,2.08,0,0,0,315,224.79Zm-.34-5.59a2.08,2.08,0,0,0-.56-1.49,2,2,0,0,0-2.83,0,2.1,2.1,0,0,0-.54,1.51,2,2,0,0,0,.54,1.48,2.09,2.09,0,0,0,2.83,0A2,2,0,0,0,314.67,219.2Z"/></g></g><g class="cls-8"><g class="cls-8"><path d="M162.79,250.54q-.08-.41-.13-.72a5.19,5.19,0,0,1-.05-.63,3.79,3.79,0,0,1-1.19,1.08,3,3,0,0,1-1.58.44,2.94,2.94,0,0,1-2.14-.72,2.64,2.64,0,0,1-.73-2,2.32,2.32,0,0,1,1-2,4.86,4.86,0,0,1,2.83-.73h1.78v-.89a1.65,1.65,0,0,0-.48-1.25,1.89,1.89,0,0,0-1.36-.46,2,2,0,0,0-1.28.4,1.21,1.21,0,0,0-.49,1h-1.56l0,0a2.17,2.17,0,0,1,.93-1.79,3.8,3.8,0,0,1,2.52-.81,3.71,3.71,0,0,1,2.46.78,2.75,2.75,0,0,1,.93,2.24v4.33a8.42,8.42,0,0,0,0,.93,4.76,4.76,0,0,0,.18.88Zm-2.71-1.2a2.91,2.91,0,0,0,1.6-.46,2.16,2.16,0,0,0,.93-1v-1.46h-1.83a2.38,2.38,0,0,0-1.58.5,1.48,1.48,0,0,0-.59,1.17,1.23,1.23,0,0,0,.37.94A1.57,1.57,0,0,0,160.07,249.33Z"/><path d="M168.77,239.39v2.17h1.7v1.21h-1.7v5.45a1.22,1.22,0,0,0,.26.89,1,1,0,0,0,.69.26l.31,0,.3-.08.22,1.12a1.44,1.44,0,0,1-.54.25,2.72,2.72,0,0,1-.71.09,2.12,2.12,0,0,1-1.58-.6,2.61,2.61,0,0,1-.59-1.89v-5.45h-1.43v-1.21h1.43v-2.17Z"/><path d="M180.37,249.42a2.2,2.2,0,0,0,1.43-.5,1.53,1.53,0,0,0,.62-1.23h1.47l0,.05a2.53,2.53,0,0,1-1,2.07,3.77,3.77,0,0,1-2.5.9,3.64,3.64,0,0,1-3-1.28,4.94,4.94,0,0,1-1-3.21v-.35a4.91,4.91,0,0,1,1-3.2,4.09,4.09,0,0,1,5.57-.35,2.89,2.89,0,0,1,1,2.28l0,.05h-1.48a1.9,1.9,0,0,0-.58-1.4,2,2,0,0,0-1.47-.58,2,2,0,0,0-1.84.92,4.35,4.35,0,0,0-.55,2.27v.35a4.4,4.4,0,0,0,.55,2.29A2,2,0,0,0,180.37,249.42Z"/><path d="M187.51,250.54h-1.63V237.59h1.63Z"/><path d="M189.64,246a4.94,4.94,0,0,1,1.08-3.28,3.62,3.62,0,0,1,2.93-1.29,3.66,3.66,0,0,1,3,1.29,4.93,4.93,0,0,1,1.08,3.29v.18a4.92,4.92,0,0,1-1.08,3.29,4,4,0,0,1-5.88,0,4.91,4.91,0,0,1-1.08-3.28Zm1.64.18a4.25,4.25,0,0,0,.6,2.35,2.18,2.18,0,0,0,3.57,0,4.22,4.22,0,0,0,.61-2.35V246a4.22,4.22,0,0,0-.61-2.35,2,2,0,0,0-1.79-.94,2,2,0,0,0-1.77.94,4.26,4.26,0,0,0-.6,2.35Z"/><path d="M204.91,248.15a1.11,1.11,0,0,0-.41-.89,3.86,3.86,0,0,0-1.56-.61,6.54,6.54,0,0,1-2.46-1,2,2,0,0,1-.83-1.66,2.34,2.34,0,0,1,.93-1.87,4.23,4.23,0,0,1,4.92,0,2.38,2.38,0,0,1,.88,2l0,0h-1.56a1.43,1.43,0,0,0-.49-1.06,1.82,1.82,0,0,0-1.31-.47,1.88,1.88,0,0,0-1.29.38,1.19,1.19,0,0,0-.42.92,1,1,0,0,0,.37.84,3.89,3.89,0,0,0,1.52.55,6.54,6.54,0,0,1,2.53,1,2,2,0,0,1,.83,1.68,2.32,2.32,0,0,1-1,1.93,4.05,4.05,0,0,1-2.53.74,4,4,0,0,1-2.71-.87,2.49,2.49,0,0,1-.94-2l0-.05H201a1.5,1.5,0,0,0,.65,1.27,2.52,2.52,0,0,0,1.42.4,2.31,2.31,0,0,0,1.37-.35A1.09,1.09,0,0,0,204.91,248.15Z"/><path d="M212.3,250.71a3.79,3.79,0,0,1-3-1.25,4.7,4.7,0,0,1-1.11-3.24v-.37a4.61,4.61,0,0,1,1.14-3.19,3.52,3.52,0,0,1,2.7-1.27,3.4,3.4,0,0,1,2.75,1.1,4.36,4.36,0,0,1,.93,2.92v1H209.9l0,0a3.53,3.53,0,0,0,.66,2.12,2.09,2.09,0,0,0,1.77.83,4.13,4.13,0,0,0,1.46-.24,3.36,3.36,0,0,0,1.08-.65l.64,1.06a3.79,3.79,0,0,1-1.27.79A5.11,5.11,0,0,1,212.3,250.71Zm-.25-8a1.77,1.77,0,0,0-1.4.69,3.26,3.26,0,0,0-.71,1.73l0,0h4.14v-.21a2.5,2.5,0,0,0-.51-1.61A1.84,1.84,0,0,0,212.05,242.68Z"/><path d="M221.41,246a4.94,4.94,0,0,1,1.08-3.28,3.62,3.62,0,0,1,2.93-1.29,3.66,3.66,0,0,1,3,1.29,4.93,4.93,0,0,1,1.08,3.29v.18a4.92,4.92,0,0,1-1.08,3.29,4,4,0,0,1-5.88,0,4.91,4.91,0,0,1-1.08-3.28Zm1.64.18a4.25,4.25,0,0,0,.6,2.35,2.18,2.18,0,0,0,3.57,0,4.22,4.22,0,0,0,.61-2.35V246a4.22,4.22,0,0,0-.61-2.35,2,2,0,0,0-1.79-.94,2,2,0,0,0-1.77.94A4.26,4.26,0,0,0,223,246Z"/><path d="M232.91,241.56l.12,1.34a3.25,3.25,0,0,1,1.13-1.11,3,3,0,0,1,1.54-.39,2.93,2.93,0,0,1,2.25.85,3.74,3.74,0,0,1,.8,2.63v5.67h-1.63V244.9a2.43,2.43,0,0,0-.47-1.68,1.88,1.88,0,0,0-1.43-.5,2.3,2.3,0,0,0-1.25.34,2.48,2.48,0,0,0-.87.93v6.55h-1.63v-9Z"/><path d="M253,250.54h-7.84v-1.13l4-4.39a11.14,11.14,0,0,0,1.44-1.88,3,3,0,0,0,.38-1.43,2.27,2.27,0,0,0-.53-1.52,1.75,1.75,0,0,0-1.4-.62,2.4,2.4,0,0,0-1.85.64,2.56,2.56,0,0,0-.59,1.8H245l0,0a3.4,3.4,0,0,1,1-2.62,4.07,4.07,0,0,1,3-1.06,3.54,3.54,0,0,1,2.59,1,3.25,3.25,0,0,1,1,2.42,3.87,3.87,0,0,1-.59,2,12.72,12.72,0,0,1-1.64,2.13l-3.18,3.45,0,0H253Z"/><path d="M262.36,245.93a5.41,5.41,0,0,1-1,3.55,3.83,3.83,0,0,1-5.63,0,5.37,5.37,0,0,1-1-3.54v-2.86a5.4,5.4,0,0,1,1-3.55,3.81,3.81,0,0,1,5.63,0,5.41,5.41,0,0,1,1,3.55Zm-1.63-3.21a4,4,0,0,0-.57-2.36,2.11,2.11,0,0,0-3.29,0,4.07,4.07,0,0,0-.56,2.36v3.54a4,4,0,0,0,.57,2.37,1.9,1.9,0,0,0,1.65.8,1.88,1.88,0,0,0,1.64-.8,4.13,4.13,0,0,0,.56-2.37Z"/><path d="M269,250.54h-1.63V240l-2.47,0V238.9l4.11-.45Z"/><path d="M281.69,239.74a17,17,0,0,0-3,4.62,20.6,20.6,0,0,0-1.11,4.88l-.13,1.3h-1.63l.13-1.3a17.73,17.73,0,0,1,1.35-5.11,19.7,19.7,0,0,1,2.75-4.39h-6.57v-1.29h8.18Z"/><path d="M286.8,246.07h-4.07v-1.28h4.07Z"/><path d="M295.73,245.93a5.41,5.41,0,0,1-1,3.55,3.83,3.83,0,0,1-5.63,0,5.37,5.37,0,0,1-1-3.54v-2.86a5.4,5.4,0,0,1,1-3.55,3.81,3.81,0,0,1,5.63,0,5.41,5.41,0,0,1,1,3.55Zm-1.63-3.21a4,4,0,0,0-.57-2.36,2.11,2.11,0,0,0-3.29,0,4.07,4.07,0,0,0-.56,2.36v3.54a4,4,0,0,0,.57,2.37,1.9,1.9,0,0,0,1.65.8,1.88,1.88,0,0,0,1.64-.8,4.13,4.13,0,0,0,.56-2.37Z"/><path d="M302.33,250.54H300.7V240l-2.47,0V238.9l4.11-.45Z"/><path d="M310.61,246.07h-4.07v-1.28h4.07Z"/></g></g><rect class="cls-5" x="17.3" y="262.19" width="468.86" height="42.74"/><g class="cls-8"><g class="cls-8"><path d="M130.67,289.54H129l-5.82-9.35,0,0v9.33h-1.64V277.46h1.64l5.82,9.33,0,0v-9.31h1.64Z"/><path d="M137.08,289.72a3.79,3.79,0,0,1-3-1.25,4.7,4.7,0,0,1-1.11-3.24v-.37a4.61,4.61,0,0,1,1.14-3.19,3.52,3.52,0,0,1,2.7-1.27,3.4,3.4,0,0,1,2.75,1.1,4.36,4.36,0,0,1,.93,2.92v1h-5.83l0,0a3.54,3.54,0,0,0,.66,2.12,2.09,2.09,0,0,0,1.77.83,4.12,4.12,0,0,0,1.46-.24,3.37,3.37,0,0,0,1.08-.65l.64,1.06a3.78,3.78,0,0,1-1.27.79A5.11,5.11,0,0,1,137.08,289.72Zm-.25-8a1.77,1.77,0,0,0-1.4.69,3.26,3.26,0,0,0-.71,1.73l0,0h4.14v-.21a2.5,2.5,0,0,0-.51-1.61A1.84,1.84,0,0,0,136.83,281.68Z"/><path d="M144.5,278.39v2.17h1.7v1.21h-1.7v5.45a1.22,1.22,0,0,0,.26.89,1,1,0,0,0,.69.26l.31,0,.3-.08.22,1.12a1.44,1.44,0,0,1-.54.25,2.71,2.71,0,0,1-.71.09,2.12,2.12,0,0,1-1.59-.6,2.62,2.62,0,0,1-.59-1.89v-5.45h-1.43v-1.21h1.43v-2.17Z"/><path d="M154.38,284.7v4.85h-1.63V277.46h4.62a4.25,4.25,0,0,1,3,1,3.76,3.76,0,0,1,0,5.26,4.28,4.28,0,0,1-3,1Zm0-1.29h3a2.34,2.34,0,1,0,0-4.66h-3Z"/><path d="M167.58,282l-.84,0a1.87,1.87,0,0,0-1.09.31,2,2,0,0,0-.68.86v6.42h-1.63v-9h1.46l.16,1.31a3.12,3.12,0,0,1,.94-1.09,2.2,2.2,0,0,1,1.29-.39,2,2,0,0,1,.35,0l.27.06Z"/><path d="M168.61,285a4.94,4.94,0,0,1,1.08-3.28,3.62,3.62,0,0,1,2.93-1.29,3.66,3.66,0,0,1,3,1.29,4.93,4.93,0,0,1,1.08,3.29v.18a4.92,4.92,0,0,1-1.08,3.29,4,4,0,0,1-5.88,0,4.91,4.91,0,0,1-1.08-3.28Zm1.64.18a4.25,4.25,0,0,0,.6,2.35,2.18,2.18,0,0,0,3.57,0,4.22,4.22,0,0,0,.61-2.35V285a4.22,4.22,0,0,0-.61-2.35,2,2,0,0,0-1.79-.94,2,2,0,0,0-1.77.94,4.26,4.26,0,0,0-.6,2.35Z"/><path d="M179.34,289.54v-7.77h-1.4v-1.21h1.4v-1.14a3.08,3.08,0,0,1,.75-2.22,2.76,2.76,0,0,1,2.1-.78,3.61,3.61,0,0,1,.57,0l.63.13-.2,1.25-.36-.06-.44,0a1.29,1.29,0,0,0-1.06.43,1.92,1.92,0,0,0-.35,1.24v1.14h1.87v1.21H181v7.77Z"/><path d="M186.29,278.26h-1.63v-1.67h1.63Zm0,11.28h-1.63v-9h1.63Z"/><path d="M191,278.39v2.17h1.7v1.21H191v5.45a1.22,1.22,0,0,0,.26.89,1,1,0,0,0,.69.26l.31,0,.3-.08.22,1.12a1.44,1.44,0,0,1-.54.25,2.71,2.71,0,0,1-.71.09,2.12,2.12,0,0,1-1.59-.6,2.62,2.62,0,0,1-.59-1.89v-5.45H187.9v-1.21h1.43v-2.17Z"/><path d="M196.47,282.27h-1.64v-1.69h1.64Zm0,7.27h-1.64v-1.69h1.64Z"/><path d="M209.05,286.42a1.73,1.73,0,0,0-.53-1.27,4.59,4.59,0,0,0-1.74-.95,6,6,0,0,1-2.53-1.35,3,3,0,0,1-.85-2.26,3.2,3.2,0,0,1,.78-2.23,3.38,3.38,0,0,1,2.16-1v-1.83h1.31v1.84a3.18,3.18,0,0,1,2.16,1.19,4.24,4.24,0,0,1,.77,2.66H209a3,3,0,0,0-.52-1.83,1.71,1.71,0,0,0-1.45-.7,1.74,1.74,0,0,0-2,1.91,1.75,1.75,0,0,0,.5,1.3,4.91,4.91,0,0,0,1.81.95,6.28,6.28,0,0,1,2.52,1.37,3,3,0,0,1,.82,2.22,3,3,0,0,1-.85,2.27,3.8,3.8,0,0,1-2.35,1v1.59h-1.3v-1.59a3.8,3.8,0,0,1-2.34-1A3.4,3.4,0,0,1,203,286l0,0h1.58a2.27,2.27,0,0,0,.64,1.82,2.37,2.37,0,0,0,1.58.54,2.51,2.51,0,0,0,1.67-.51A1.75,1.75,0,0,0,209.05,286.42Z"/><path d="M220.4,289.54h-7.84v-1.13l4-4.39a11.14,11.14,0,0,0,1.44-1.88,3,3,0,0,0,.38-1.43,2.27,2.27,0,0,0-.53-1.52,1.75,1.75,0,0,0-1.4-.62,2.4,2.4,0,0,0-1.85.64A2.56,2.56,0,0,0,214,281h-1.57l0,0a3.4,3.4,0,0,1,1-2.62,4.07,4.07,0,0,1,3-1.06,3.54,3.54,0,0,1,2.59,1,3.25,3.25,0,0,1,1,2.42,3.87,3.87,0,0,1-.59,2,12.72,12.72,0,0,1-1.64,2.13l-3.18,3.45,0,0h5.81Z"/><path d="M224.13,289.54h-1.64v-1.69h1.64Z"/><path d="M234.09,280.61a2.69,2.69,0,0,1-.53,1.66,3.17,3.17,0,0,1-1.44,1.06,3.62,3.62,0,0,1,1.67,1.14,2.8,2.8,0,0,1,.63,1.8,3.1,3.1,0,0,1-1.09,2.56,5,5,0,0,1-5.69,0,3.11,3.11,0,0,1-1.08-2.56,2.83,2.83,0,0,1,.61-1.8,3.54,3.54,0,0,1,1.66-1.14,3.07,3.07,0,0,1-1.42-1.06,2.75,2.75,0,0,1-.51-1.66,3.11,3.11,0,0,1,1-2.46,3.79,3.79,0,0,1,2.6-.87,3.85,3.85,0,0,1,2.6.87A3.07,3.07,0,0,1,234.09,280.61Zm-1.29,5.62a2.18,2.18,0,0,0-.66-1.63,2.29,2.29,0,0,0-1.66-.64,2.18,2.18,0,0,0-2.29,2.27,2.09,2.09,0,0,0,.63,1.61,2.67,2.67,0,0,0,3.34,0A2.08,2.08,0,0,0,232.79,286.24Zm-.34-5.59a2.07,2.07,0,0,0-.56-1.49,2,2,0,0,0-2.83,0,2.1,2.1,0,0,0-.54,1.51,2,2,0,0,0,.54,1.48,2.09,2.09,0,0,0,2.83,0A2,2,0,0,0,232.45,280.64Z"/><path d="M242.79,285.48h1.67v1.29h-1.67v2.78h-1.63v-2.78h-5.43v-.92l5.33-8.38h1.73Zm-5.31,0h3.69v-5.67h0l-.16.42Z"/><path d="M252.29,289.54h-1.64V277.46h1.64Z"/><path d="M261.23,284.3v5.24H259.6V277.46H264a4.59,4.59,0,0,1,3,.88,3.15,3.15,0,0,1,1,2.56,2.74,2.74,0,0,1-.49,1.62,3.3,3.3,0,0,1-1.42,1.1,2.48,2.48,0,0,1,1.43,1,3.44,3.44,0,0,1,.44,1.8v1.14a3.83,3.83,0,0,0,.12,1,1.53,1.53,0,0,0,.43.73v.2h-1.68a1.35,1.35,0,0,1-.42-.83,6.89,6.89,0,0,1-.09-1.13v-1.1a2.19,2.19,0,0,0-.57-1.58,2,2,0,0,0-1.54-.6Zm0-1.29h2.57a3,3,0,0,0,2-.53,2,2,0,0,0,.61-1.6,2.06,2.06,0,0,0-.59-1.58,2.62,2.62,0,0,0-1.85-.56h-2.74Z"/><path d="M274.28,289.72a3.79,3.79,0,0,1-3-1.25,4.7,4.7,0,0,1-1.11-3.24v-.37a4.61,4.61,0,0,1,1.14-3.19,3.52,3.52,0,0,1,2.7-1.27,3.4,3.4,0,0,1,2.75,1.1,4.36,4.36,0,0,1,.93,2.92v1h-5.83l0,0a3.53,3.53,0,0,0,.66,2.12,2.09,2.09,0,0,0,1.77.83,4.13,4.13,0,0,0,1.46-.24,3.36,3.36,0,0,0,1.08-.65l.64,1.06a3.79,3.79,0,0,1-1.27.79A5.11,5.11,0,0,1,274.28,289.72Zm-.25-8a1.77,1.77,0,0,0-1.4.69,3.26,3.26,0,0,0-.71,1.73l0,0h4.14v-.21a2.5,2.5,0,0,0-.51-1.61A1.84,1.84,0,0,0,274,281.68Z"/><path d="M281.7,278.39v2.17h1.7v1.21h-1.7v5.45a1.22,1.22,0,0,0,.26.89,1,1,0,0,0,.69.26l.31,0,.3-.08.22,1.12a1.44,1.44,0,0,1-.54.25,2.71,2.71,0,0,1-.71.09,2.12,2.12,0,0,1-1.59-.6,2.62,2.62,0,0,1-.59-1.89v-5.45h-1.43v-1.21h1.43v-2.17Z"/><path d="M291.12,288.21a3,3,0,0,1-1.09,1.11,3,3,0,0,1-1.54.39,2.89,2.89,0,0,1-2.29-.94,4.36,4.36,0,0,1-.82-2.92v-5.3H287v5.31a3.34,3.34,0,0,0,.42,2,1.57,1.57,0,0,0,1.32.54,2.69,2.69,0,0,0,1.44-.35,2.21,2.21,0,0,0,.86-1v-6.47h1.63v9h-1.47Z"/><path d="M299.33,282l-.84,0a1.87,1.87,0,0,0-1.09.31,2,2,0,0,0-.68.86v6.42h-1.63v-9h1.46l.16,1.31a3.12,3.12,0,0,1,.94-1.09,2.2,2.2,0,0,1,1.29-.39,2,2,0,0,1,.35,0l.27.06Z"/><path d="M302.37,280.56l.12,1.34a3.25,3.25,0,0,1,1.13-1.11,3,3,0,0,1,1.54-.39,2.93,2.93,0,0,1,2.25.85,3.74,3.74,0,0,1,.8,2.63v5.67h-1.63v-5.64a2.43,2.43,0,0,0-.47-1.68,1.88,1.88,0,0,0-1.43-.5,2.3,2.3,0,0,0-1.25.34,2.48,2.48,0,0,0-.87.93v6.55h-1.63v-9Z"/></g></g><rect class="cls-1" x="-145.66" y="-25" width="168.31" height="64.12"/><path class="cls-4" d="M12.63,3.72,5.28-3.63V-18.33H-136.31V27.09H5.28v-16Z"/><path class="cls-10" d="M12.63,3.72,5.28-3.63V-18.33H-136.31V27.09H5.28v-16Z"/><line class="cls-10" x1="11.96" y1="3.72" x2="29.33" y2="3.72"/><rect class="cls-1" x="-145.66" y="24.42" width="168.31" height="64.12"/><path class="cls-4" d="M12.63,53.14,5.28,45.79V31.1H-136.31V76.52H5.28v-16Z"/><path class="cls-10" d="M12.63,53.14,5.28,45.79V31.1H-136.31V76.52H5.28v-16Z"/><line class="cls-10" x1="11.96" y1="53.14" x2="29.33" y2="53.14"/><rect class="cls-1" x="-145.66" y="116.59" width="168.31" height="64.12"/><path class="cls-4" d="M12.63,145.31,5.28,138V123.27H-136.31v45.42H5.28v-16Z"/><path class="cls-10" d="M12.63,145.31,5.28,138V123.27H-136.31v45.42H5.28v-16Z"/><line class="cls-10" x1="11.96" y1="145.31" x2="29.33" y2="145.31"/><path class="cls-7" d="M337.41,73.31H209.84a2.68,2.68,0,0,1-2.67-2.67V37.25a2.68,2.68,0,0,1,2.67-2.67H337.41a2.68,2.68,0,0,1,2.67,2.67v33.4A2.68,2.68,0,0,1,337.41,73.31Z"/><g class="cls-8"><g class="cls-8"><path d="M230.91,48.29a2.69,2.69,0,0,1-.53,1.66A3.17,3.17,0,0,1,228.94,51a3.61,3.61,0,0,1,1.67,1.14,2.8,2.8,0,0,1,.63,1.8,3.1,3.1,0,0,1-1.09,2.56,5,5,0,0,1-5.69,0A3.11,3.11,0,0,1,223.37,54a2.83,2.83,0,0,1,.61-1.8A3.54,3.54,0,0,1,225.65,51,3.07,3.07,0,0,1,224.23,50a2.75,2.75,0,0,1-.51-1.66,3.11,3.11,0,0,1,1-2.46,3.79,3.79,0,0,1,2.6-.87,3.85,3.85,0,0,1,2.6.87A3.07,3.07,0,0,1,230.91,48.29Zm-1.29,5.62a2.18,2.18,0,0,0-.66-1.63,2.29,2.29,0,0,0-1.66-.64A2.18,2.18,0,0,0,225,53.92a2.09,2.09,0,0,0,.63,1.61,2.67,2.67,0,0,0,3.34,0A2.08,2.08,0,0,0,229.62,53.92Zm-.34-5.59a2.07,2.07,0,0,0-.56-1.49,2,2,0,0,0-2.83,0,2.1,2.1,0,0,0-.54,1.51,2,2,0,0,0,.54,1.48,2.09,2.09,0,0,0,2.83,0A2,2,0,0,0,229.28,48.33Z"/><path d="M233.55,51.77l.7-6.63h6.05v1.45h-4.66l-.4,3.39a3.72,3.72,0,0,1,.85-.47,3.13,3.13,0,0,1,1.08-.2,3.25,3.25,0,0,1,2.63,1.09,4.38,4.38,0,0,1,1,3,4.25,4.25,0,0,1-1,2.92,3.59,3.59,0,0,1-2.84,1.1,3.9,3.9,0,0,1-2.56-.84,2.9,2.9,0,0,1-1-2.46l0-.05h1.48a2,2,0,0,0,.57,1.53,2,2,0,0,0,1.47.54,1.93,1.93,0,0,0,1.61-.73,3.15,3.15,0,0,0,.57-2,3,3,0,0,0-.58-1.91,1.92,1.92,0,0,0-1.6-.75,2.57,2.57,0,0,0-1.39.29,1.66,1.66,0,0,0-.63.89Z"/><path d="M244.64,57.23H243V55.53h1.64Z"/><path d="M251.82,45a5.48,5.48,0,0,1,1.23.14,4,4,0,0,1,1,.36l-.35,1.25a4.83,4.83,0,0,0-.85-.34,3.75,3.75,0,0,0-1-.13,2.5,2.5,0,0,0-2.09,1,4.34,4.34,0,0,0-.79,2.71v.19a4,4,0,0,1,1.22-.73,4.11,4.11,0,0,1,1.47-.26,3.23,3.23,0,0,1,2.58,1.12,4.2,4.2,0,0,1,1,2.84,4.5,4.5,0,0,1-1,3.06,3.44,3.44,0,0,1-2.74,1.18,3.79,3.79,0,0,1-2.94-1.29,5.23,5.23,0,0,1-1.16-3.63V50.18a5.43,5.43,0,0,1,1.29-3.77A4.14,4.14,0,0,1,251.82,45Zm-.56,5.45a2.81,2.81,0,0,0-1.43.34,2.31,2.31,0,0,0-.9.9v1a4.1,4.1,0,0,0,.71,2.57,2.16,2.16,0,0,0,1.77.9,1.77,1.77,0,0,0,1.56-.85,3.75,3.75,0,0,0,.56-2.11,3.1,3.1,0,0,0-.6-2A2,2,0,0,0,251.26,50.42Z"/><path d="M257.24,51.77l.7-6.63H264v1.45h-4.67l-.4,3.39a3.75,3.75,0,0,1,.85-.47,3.13,3.13,0,0,1,1.08-.2,3.25,3.25,0,0,1,2.63,1.09,4.38,4.38,0,0,1,1,3,4.25,4.25,0,0,1-1,2.92,3.59,3.59,0,0,1-2.84,1.1,3.89,3.89,0,0,1-2.56-.84,2.9,2.9,0,0,1-1-2.46l0-.05h1.48a2,2,0,0,0,.57,1.53,2.05,2.05,0,0,0,1.47.54,1.93,1.93,0,0,0,1.61-.73,3.15,3.15,0,0,0,.57-2,3,3,0,0,0-.58-1.91,1.92,1.92,0,0,0-1.6-.75,2.57,2.57,0,0,0-1.39.29,1.66,1.66,0,0,0-.63.89Z"/><path d="M274.17,57.23h-7.84V56.1l4-4.39a11.14,11.14,0,0,0,1.44-1.88,3,3,0,0,0,.38-1.43,2.27,2.27,0,0,0-.53-1.52,1.75,1.75,0,0,0-1.4-.62,2.4,2.4,0,0,0-1.85.64,2.56,2.56,0,0,0-.59,1.8h-1.57l0,0a3.4,3.4,0,0,1,1-2.62,4.07,4.07,0,0,1,3-1.06,3.54,3.54,0,0,1,2.59,1,3.25,3.25,0,0,1,1,2.42,3.87,3.87,0,0,1-.59,2,12.72,12.72,0,0,1-1.64,2.13l-3.18,3.45,0,0h5.81Z"/></g></g><path class="cls-7" d="M337.41,118.73H209.84a2.68,2.68,0,0,1-2.67-2.67V82.66A2.68,2.68,0,0,1,209.84,80H337.41a2.68,2.68,0,0,1,2.67,2.67v33.4A2.68,2.68,0,0,1,337.41,118.73Z"/><g class="cls-8"><g class="cls-8"><path d="M230.91,93.71a2.69,2.69,0,0,1-.53,1.66,3.17,3.17,0,0,1-1.44,1.06,3.61,3.61,0,0,1,1.67,1.14,2.8,2.8,0,0,1,.63,1.8,3.1,3.1,0,0,1-1.09,2.56,5,5,0,0,1-5.69,0,3.11,3.11,0,0,1-1.08-2.56,2.83,2.83,0,0,1,.61-1.8,3.54,3.54,0,0,1,1.66-1.14,3.07,3.07,0,0,1-1.42-1.06,2.75,2.75,0,0,1-.51-1.66,3.11,3.11,0,0,1,1-2.46,3.79,3.79,0,0,1,2.6-.87,3.85,3.85,0,0,1,2.6.87A3.07,3.07,0,0,1,230.91,93.71Zm-1.29,5.62A2.18,2.18,0,0,0,229,97.7a2.29,2.29,0,0,0-1.66-.64A2.18,2.18,0,0,0,225,99.34a2.09,2.09,0,0,0,.63,1.61,2.67,2.67,0,0,0,3.34,0A2.08,2.08,0,0,0,229.62,99.34Zm-.34-5.59a2.07,2.07,0,0,0-.56-1.49,2,2,0,0,0-2.83,0,2.1,2.1,0,0,0-.54,1.51,2,2,0,0,0,.54,1.48,2.09,2.09,0,0,0,2.83,0A2,2,0,0,0,229.28,93.74Z"/><path d="M239.61,98.58h1.67v1.29h-1.67v2.78H238V99.86h-5.43v-.92l5.33-8.38h1.73Zm-5.31,0H238V92.91h0l-.16.42Z"/><path d="M244.64,102.64H243v-1.69h1.64Z"/><path d="M254.6,93.71a2.69,2.69,0,0,1-.53,1.66,3.17,3.17,0,0,1-1.44,1.06,3.62,3.62,0,0,1,1.67,1.14,2.8,2.8,0,0,1,.63,1.8,3.1,3.1,0,0,1-1.09,2.56,5,5,0,0,1-5.69,0,3.11,3.11,0,0,1-1.08-2.56,2.83,2.83,0,0,1,.61-1.8,3.54,3.54,0,0,1,1.66-1.14,3.07,3.07,0,0,1-1.42-1.06,2.75,2.75,0,0,1-.51-1.66,3.11,3.11,0,0,1,1-2.46,3.79,3.79,0,0,1,2.6-.87,3.85,3.85,0,0,1,2.6.87A3.07,3.07,0,0,1,254.6,93.71Zm-1.29,5.62a2.18,2.18,0,0,0-.66-1.63,2.29,2.29,0,0,0-1.66-.64,2.18,2.18,0,0,0-2.29,2.27,2.09,2.09,0,0,0,.63,1.61,2.67,2.67,0,0,0,3.34,0A2.08,2.08,0,0,0,253.31,99.34ZM253,93.74a2.07,2.07,0,0,0-.56-1.49,2,2,0,0,0-2.83,0,2.1,2.1,0,0,0-.54,1.51,2,2,0,0,0,.54,1.48,2.09,2.09,0,0,0,2.83,0A2,2,0,0,0,253,93.74Z"/><path d="M261.44,102.64h-1.63V92.15l-2.47,0V91l4.11-.45Z"/><path d="M266.81,97.19l.7-6.63h6.05V92H268.9l-.4,3.39a3.75,3.75,0,0,1,.85-.47,3.13,3.13,0,0,1,1.08-.2,3.25,3.25,0,0,1,2.63,1.09,4.38,4.38,0,0,1,1,3,4.25,4.25,0,0,1-1,2.92,3.59,3.59,0,0,1-2.84,1.1,3.89,3.89,0,0,1-2.56-.84,2.9,2.9,0,0,1-1-2.46l0-.05h1.48a2,2,0,0,0,.57,1.53,2.05,2.05,0,0,0,1.47.54,1.93,1.93,0,0,0,1.61-.73,3.15,3.15,0,0,0,.57-2,3,3,0,0,0-.58-1.91,1.92,1.92,0,0,0-1.6-.75,2.57,2.57,0,0,0-1.39.29,1.66,1.66,0,0,0-.63.89Z"/></g></g></g><ellipse class="cls-1" cx="154.64" cy="150.64" rx="145.64" ry="144.64"/><ellipse class="cls-11" cx="154.64" cy="150.64" rx="145.14" ry="144.14"/></svg>