<svg xmlns="http://www.w3.org/2000/svg" width="45" height="48" viewBox="0 0 45 48">
  <g fill="#004385" fill-rule="evenodd">
    <path fill-rule="nonzero" d="M4.13521893 25.1647985c.4871999 1.526532 1.69545637 2.7174914 3.2326838 3.1864056 1.0377178.3275297 1.74031316 1.2903695 1.7330363 2.3749608-.0203722 1.3175854.49343717 2.5876713 1.42516167 3.5228584 1.3383142 1.3304624 3.3132758 1.7989977 5.109726 1.2122196 1.0406868-.347992 2.1875638.0188897 2.8304604.9054538.9322376 1.2993283 2.4366322 2.0703477 4.0396133 2.0703477s3.1073757-.7710194 4.0396133-2.0703477c.6404062-.8744426 1.7723111-1.2397392 2.8056319-.9054538 1.7964501.5867781 3.7714117.1182428 5.109726-1.2122196.9317245-.9351871 1.4455338-2.205273 1.4251616-3.5228584-.0072768-1.0845913.6953185-2.0474311 1.7330363-2.3749608 1.5269653-.4847673 2.7252635-1.6740187 3.2178415-3.1935476.4925781-1.519529.2188769-3.1825199-.7349814-4.4657008-.6473146-.8735124-.6473146-2.0655015 0-2.9390139.9538583-1.2831809 1.2275595-2.9461718.7349814-4.4657007-.492578-1.519529-1.6908762-2.7087803-3.2178415-3.1935477-1.0394818-.32806807-1.7425009-1.2934958-1.7330363-2.37990857.0176686-1.31174808-.4940068-2.57563362-1.4201959-3.50801493-1.3372501-1.33221025-3.3123516-1.80269128-5.109726-1.21716738-1.034396.33487597-2.1675192-.03281205-2.8056319-.91040162C25.6194233.77523143 24.1136527.0010965 22.5083833.00011025c-1.6081114-.0107555-3.118997.7660091-4.0420962 2.07809065-.6390793.8762657-1.771237 1.24364042-2.8056318.91040162-1.7973744-.5855239-3.7724759-.11504287-5.109726 1.21716738-.9317245.93518716-1.44553387 2.205273-1.42516167 3.52285844.00946466 1.08641277-.69355448 2.0518405-1.7330363 2.37990856-1.52696524.4847674-2.72526344 1.6740188-3.2178415 3.1935477-.49257805 1.5195289-.2188769 3.1825198.73498144 4.4657007.6473146.8735124.6473146 2.0655015 0 2.9390139-.97595143 1.2696596-1.26538636 2.935311-.77465234 4.4579993zM6.866365 16.2586957c-.47250313-.6418751-.60616094-1.4710825-.35914197-2.2281016.24701896-.7570191.84453377-1.3493569 1.6055377-1.591627 2.09371977-.6405449 3.51059197-2.58273568 3.47600407-4.76476494-.0095691-.6552819.2464293-1.28672976.710098-1.75153355.6648815-.6709292 1.6547101-.90694167 2.5523801-.60858367.5105265.1707813 1.0455346.25767852 1.5840647.2572874 1.6052694-.00098625 3.11104-.77512117 4.0420962-2.07809064.4664795-.64664155 1.2168471-1.02999715 2.0160823-1.02999715.7992352 0 1.5496028.3833556 2.0160824 1.02999714 1.2683726 1.77516873 3.552985 2.51454142 5.6261609 1.82080323.8976699-.298358 1.8874986-.06234552 2.5523801.6085837.4660702.46195995.7256299 1.09157777.7200294 1.7465857-.0345879 2.18202926 1.3822843 4.12422008 3.4760041 4.76476498.7610039.24227 1.3585187.8346078 1.6055377 1.5916269.2470189.7570191.1133611 1.5862265-.359142 2.2281016-1.3167487 1.7452088-1.3167487 4.1476626 0 5.8928714.4767929.6422661.612975 1.4744138.3656513 2.2343304-.2473237.7599167-.84771 1.3540634-1.612047 1.5952938-2.0937198.6405449-3.510592 2.5827357-3.4760041 4.764765.0095691.6552819-.2464294 1.2867297-.710098 1.7515335-.6648815.6709292-1.6547101.9069417-2.5523801.6085837-2.0731758-.6937382-4.3577882.0456345-5.6261609 1.8208033-.4664795.6466415-1.2168471 1.0299971-2.0160823 1.0299971-.7992352 0-1.5496028-.3833556-2.0160824-1.0299971-1.2683726-1.7751688-3.5529851-2.5145415-5.6261609-1.8208033-.89767.298358-1.8874986.0623455-2.5523801-.6085837-.4636686-.4648038-.719667-1.0962516-.710098-1.7515335.0345879-2.1820293-1.3822843-4.1242201-3.47600403-4.764765-.76100393-.24227-1.35851874-.8346078-1.6055377-1.5916269-.24701896-.7570191-.11336116-1.5862265.35914196-2.2281016 1.3105958-1.7405387 1.31463825-4.1331022.00993144-5.8780279l-.01986288-.0197913zM.41092885 42.0418633c-.5368844-.7962866-.54858668-1.8340385-.02979432-2.6421439l4.36486796-6.9269688c.22790325-.3912786.6520044-.6273769 1.10588667-.6156504.45388228.0117265.86513372.2694071 1.0723798.6719282.20724608.4025211.17742293.8856648-.07776688 1.2598463l-4.30527933 6.8725426 3.9278846-.6333228c1.16576114-.198804 2.2964855.5026962 2.63183165 1.6327855l1.12225277 3.804885 4.3946623-6.9566558c.2095424-.4269138.6460235-.6964648 1.1229664-.6934935.4769428.0029713.910007.2779395 1.1141756.7074306.2041685.4294911.1433371.9375558-.1565053 1.3071348l-4.4393538 7.0259255c-.4408637.7088676-1.2188547 1.1395281-2.0558081 1.138002-.1157327.0078552-.2318677.0078552-.34760043 0-.94642304-.1338528-1.72490073-.8106282-1.98628804-1.7267943l-1.10735558-3.7554067-3.8782274.628375c-.9628316.1685335-1.9328004-.257106-2.45803144-1.078628l-.01489715-.0197913zm39.84493804-9.5344779l4.364868 6.9269689c.517312.813678.5044799 1.8547601-.0327315 2.6555338-.5372114.8007736-1.497766 1.2106332-2.4501286 1.0454467l-3.8782274-.6283751-1.0874927 3.7554067c-.2613873.9161662-1.039865 1.5929416-1.986288 1.7267944-.1157327.0078552-.2318677.0078552-.3476004 0-.8369535.001526-1.6149444-.4291344-2.0558081-1.138002l-4.4641824-7.0209777c-.2551898-.3741815-.285013-.8573252-.0777669-1.2598463.2072461-.4025211.6184975-.6602017 1.0723798-.6719282.4538823-.0117265.8779834.2243718 1.1058867.6156504l4.3946623 6.9566558 1.1023898-3.8098328c.3324133-1.1206956 1.4493506-1.8202418 2.6070031-1.6327855l3.9278846.6382707-4.3201765-6.8379078c-.2551898-.3741815-.2850129-.8573252-.0777669-1.2598463.2072461-.4025211.6184976-.6602017 1.0723798-.6719282.4538823-.0117265.8779835.2243718 1.1058867.6156504l.0248286-.0049479z"/>
    <path stroke="#004385" d="M22.367666 26.6954012l-.1157887.0053847v1.6829066l-.0105262.1407208h-.5248604v-1.8426534l-.1154257-.0053848C18.4671475 26.5306285 18 24.2055036 18 22.8323983v-.3230836h.6101593v.3625716c0 2.0390165 1.0003563 3.1672962 2.972757 3.3550437l.1332114.0125643V19.431405l-.627219-.2117993c-1.9386441-.6630393-2.8039741-1.6642395-2.8039741-3.2451952 0-2.030401 1.2711349-3.3729928 3.3179452-3.5029442l.1136109-.0071796V11h.5248604l.0105262.0039488v1.4438247l.1139739.0064617c2.2457201.1252846 3.4036071 1.3088475 3.4431712 3.5208932h-.6127c-.0384753-1.9011675-1.0105196-2.9641125-2.8155893-3.0761148l-.1288558-.0078976v6.125665l.9371989.3090833c1.8188626.5994996 2.9451709 1.4046957 2.9451709 3.566125 0 2.2400462-1.4431845 3.6971533-3.7665811 3.8034119zm-.6515383-7.8548802v-5.9343278l-.1324855.0125644c-1.7085186.1615418-2.6881854 1.2460257-2.6881854 2.9759589 0 1.5464935.7386521 2.3778953 2.5491664 2.8693413l.2715045.0764632zm.6675092 7.4090248c1.8780274-.1518493 3.139725-1.476492 3.139725-3.2965296 0-1.9446043-1.0126974-2.6467727-2.6482582-3.1504241l-.6232264-.1895424v6.6469066l.1317596-.0104105z"/>
  </g>
</svg>