<svg xmlns="http://www.w3.org/2000/svg" width="74" height="48" viewBox="0 0 74 48">
  <path fill="#004385" d="M73.075 40.4125667h-4.5325V2.8452875C68.5425 1.2738786 67.30009 0 65.7675 0H8.2325c-1.53259 0-2.775 1.2738786-2.775 2.8452875v37.5672792H.925c-.510863 0-.925.4246262-.925.9484292v2.8452874C0 46.3014952 1.656546 48 3.7 48h66.6c2.043454 0 3.7-1.6985048 3.7-3.7937167v-2.8452874c0-.523803-.414137-.9484292-.925-.9484292zM7.3075 2.8452875c0-.523803.414137-.9484292.925-.9484292h57.535c.510863 0 .925.4246262.925.9484292v37.5672792H7.3075V2.8452875zM72.15 44.1778305c0 1.0476059-.828273 1.8968583-1.85 1.8968583H3.7c-1.021727 0-1.85-.8492524-1.85-1.8968583v-1.8968584h70.3v1.8968584zM62.94625 7.1511559H10.175c-.510863 0-.925.4246262-.925.9484292v29.1641968c0 .5238029.414137.9484291.925.9484291h52.77125c.510863 0 .925-.4246262.925-.9484291V8.0995851c0-.523803-.414137-.9484292-.925-.9484292zm-.925 29.1641968H11.1V9.0480142h50.92125v27.2673385zm.080854 8.6781888c.426257-.4262573.417505-1.1261092-.019549-1.5631631-.437054-.4370538-1.136906-.4458062-1.563163-.019549-.426257.4262573-.417505 1.1261093.019549 1.5631631.437054.4370539 1.136906.4458062 1.563163.019549zm3.727417-.0091432c.426258-.4262573.417505-1.1261092-.019549-1.5631631-.437053-.4370538-1.136905-.4458062-1.563163-.0195489-.426257.4262572-.417505 1.1261092.019549 1.563163.437054.4370539 1.136906.4458063 1.563163.019549zM37.483719 4.3251174c.053045-.5081019-.326284-.9640907-.847256-1.0184793-.520971-.0543886-.986304.3134187-1.039349.8215207-.053045.508102.326284.9640907.847256 1.0184794.520972.0543886.986304-.3134188 1.039349-.8215208zM10.68375 43.219917h3.28375v2.2477771h-3.28375V43.219917zm26.10933-19.5161444c-1.678979.007045-3.294716-.660289-4.484521-1.8537151-1.189804-1.1934261-1.855113-2.8140821-1.848089-4.4981712C30.46047 13.8438364 33.295676 11 36.79308 11s6.33261 2.8438364 6.33261 6.3518863c0 3.5080499-2.835206 6.3518863-6.33261 6.3518863zm0 .9281574c5.484087 0 11.792207 2.5738103 11.792207 6.4734828v3.5525424H25v-3.6741389c0-3.8058923 6.345669-6.3518863 11.79308-6.3518863zm11.602845-3.5895291l2.914097 3.0220264 6.151982-6.1519824c.323789-.3237885.863437-.3237885 1.295155 0 .323788.4317181.323788.9713657 0 1.2951542l-6.79956 6.7995595c-.323788.3237885-.863436.3237885-1.295154 0l-3.669604-3.6696035c-.323788-.3237886-.323788-.9713657 0-1.2951542.431718-.3237886.971366-.3237886 1.403084 0z"/>
</svg>