<svg id="Layer_1" data-name="Layer 1" xmlns="http://www.w3.org/2000/svg" viewBox="0 0 200 200"><defs><style>.cls-1{fill:#fff;}.cls-2{fill:#004385;}.cls-3{fill:#f2f2f2;}.cls-4{fill:#e6e6e6;}</style></defs><title>gyp_icon</title><rect class="cls-1" x="1.43" y="1.43" width="197.14" height="197.14"/><path class="cls-2" d="M197.14,2.86V197.14H2.86V2.86H197.14M200,0H0V200H200V0Z"/><rect class="cls-2" x="0.54" y="0.54" width="198.92" height="27.49"/><path class="cls-2" d="M198.92,1.08V27.49H1.08V1.08H198.92M200,0H0V28.57H200V0Z"/><rect class="cls-3" x="3.22" y="78.57" width="193.56" height="47.14"/><path d="M25.41,159.12h.07L29,151.63H32.6L27,162.17v5.71H23.77V162l-5.48-10.37h3.57Z"/><path d="M31.79,161.73a6.48,6.48,0,0,1,1.51-4.43,5.25,5.25,0,0,1,4.17-1.72,5.31,5.31,0,0,1,4.2,1.72,6.45,6.45,0,0,1,1.52,4.43V162a6.46,6.46,0,0,1-1.51,4.44,5.29,5.29,0,0,1-4.18,1.71,5.3,5.3,0,0,1-4.19-1.71A6.45,6.45,0,0,1,31.79,162ZM35,162a5.23,5.23,0,0,0,.58,2.65,2.23,2.23,0,0,0,3.72,0,5.2,5.2,0,0,0,.59-2.64v-.23a5.16,5.16,0,0,0-.59-2.62,2,2,0,0,0-1.86-1,2,2,0,0,0-1.85,1,5.2,5.2,0,0,0-.59,2.61Z"/><path d="M52.57,166.14a4.06,4.06,0,0,1-1.42,1.46,4.18,4.18,0,0,1-5-.71,5.64,5.64,0,0,1-1.08-3.8v-7.29h3.25v7.33a3.13,3.13,0,0,0,.45,1.9,1.56,1.56,0,0,0,1.32.58,3.24,3.24,0,0,0,1.34-.25,2.27,2.27,0,0,0,.92-.74v-8.8h3.26v12.08H52.86Z"/><path d="M74.68,162.18a6.94,6.94,0,0,1-1.24,4.31A4.1,4.1,0,0,1,70,168.12a3.86,3.86,0,0,1-1.69-.35,3.45,3.45,0,0,1-1.26-1v5.79H63.79V155.81h2.94l.19,1.43A3.87,3.87,0,0,1,68.2,156a3.49,3.49,0,0,1,1.76-.43,4,4,0,0,1,3.48,1.75,7.82,7.82,0,0,1,1.24,4.61Zm-3.26-.25a5.86,5.86,0,0,0-.57-2.77,1.86,1.86,0,0,0-1.74-1.06,2.45,2.45,0,0,0-1.26.3,2.15,2.15,0,0,0-.82.86v5.3a2,2,0,0,0,.82.78,2.76,2.76,0,0,0,1.28.27,1.87,1.87,0,0,0,1.74-.93,4.9,4.9,0,0,0,.55-2.51Z"/><path d="M83.78,167.88a6.6,6.6,0,0,1-.31-.87,5.83,5.83,0,0,1-.18-.94A4.48,4.48,0,0,1,82,167.54a3.31,3.31,0,0,1-2,.58,4.07,4.07,0,0,1-2.92-1,3.5,3.5,0,0,1-1-2.66,3.18,3.18,0,0,1,1.37-2.75,6.83,6.83,0,0,1,4-1h1.82v-1a1.88,1.88,0,0,0-.46-1.35,2.14,2.14,0,0,0-2.57-.09,1.36,1.36,0,0,0-.43,1.07H76.63v-.07a3.06,3.06,0,0,1,1.33-2.64,5.79,5.79,0,0,1,3.69-1.11,5.4,5.4,0,0,1,3.52,1.1,3.81,3.81,0,0,1,1.35,3.13v5a9.33,9.33,0,0,0,.13,1.6,7.9,7.9,0,0,0,.41,1.48Zm-3-2.18a2.79,2.79,0,0,0,1.53-.42,2.2,2.2,0,0,0,.9-1v-1.71H81.41a2.18,2.18,0,0,0-1.57.52,1.68,1.68,0,0,0-.54,1.26,1.25,1.25,0,0,0,.4,1A1.56,1.56,0,0,0,80.8,165.71Z"/><path d="M93.13,162.82l.13.67h.07l2.31-7.68h3.5l-4.9,13.88a6.41,6.41,0,0,1-1.4,2.18,3.58,3.58,0,0,1-2.65.89,4.08,4.08,0,0,1-.76-.07l-.85-.19.38-2.38.31,0,.3,0a1.78,1.78,0,0,0,1.24-.4,2.62,2.62,0,0,0,.67-1l.38-.94-4.29-12.06h3.5Z"/><path d="M102.51,158.11H99.25v-2.86h3.26Zm0,9.78H99.25V165h3.26Z"/><path d="M120.76,162.77a2.4,2.4,0,0,0-.5-1.62,5.11,5.11,0,0,0-1.79-1.13,15.61,15.61,0,0,1-4.55-2.53,4.79,4.79,0,0,1-1.42-3.76A4.9,4.9,0,0,1,114,150a6.5,6.5,0,0,1,4-1.69v-2.8h2.11v2.85a5.69,5.69,0,0,1,5.13,6.08l0,.07h-4.39a3.46,3.46,0,0,0-.56-2.15,1.79,1.79,0,0,0-1.48-.71,1.65,1.65,0,0,0-1.39.58,2.35,2.35,0,0,0-.45,1.48,2.21,2.21,0,0,0,.48,1.48,5.12,5.12,0,0,0,1.81,1.15,16.63,16.63,0,0,1,4.52,2.62,4.77,4.77,0,0,1,1.44,3.73,4.93,4.93,0,0,1-1.45,3.71,6.35,6.35,0,0,1-3.9,1.66v2.66h-2.11v-2.68a7.19,7.19,0,0,1-4.27-1.8,5.66,5.66,0,0,1-1.64-4.53l0-.08h4.36a3.27,3.27,0,0,0,.72,2.37,2.5,2.5,0,0,0,1.86.72,1.82,1.82,0,0,0,1.44-.56A2.13,2.13,0,0,0,120.76,162.77Z"/><path d="M127.95,159.4l1.11-10.81h11.32V152h-7.67l-.49,4a4.08,4.08,0,0,1,1.26-.62,6.1,6.1,0,0,1,1.66-.27,5.4,5.4,0,0,1,4.36,1.65,7,7,0,0,1,1.52,4.83,6.56,6.56,0,0,1-1.74,4.61,6.41,6.41,0,0,1-5,1.89,7.74,7.74,0,0,1-4.79-1.52,4.63,4.63,0,0,1-2-4l0-.08,4.37-.27a2.45,2.45,0,0,0,.64,1.8,2.29,2.29,0,0,0,1.7.65,1.85,1.85,0,0,0,1.73-.85,4.19,4.19,0,0,0,.51-2.17,4.72,4.72,0,0,0-.57-2.5,2,2,0,0,0-1.8-.91,2.48,2.48,0,0,0-1.45.38,2,2,0,0,0-.76,1Z"/><path d="M148.4,167.88h-4.47v-3.76h4.47Z"/><path d="M164.94,152a20,20,0,0,0-4,6.44A33.2,33.2,0,0,0,159.4,166l-.19,1.87h-4.48l.17-1.87a27.62,27.62,0,0,1,1.82-7.67,21,21,0,0,1,3.92-6.31H151v-3.45h13.92Z"/><path d="M180.63,160.26q0,3.91-1.82,5.9a7,7,0,0,1-9.81,0q-1.82-2-1.82-5.9v-4.06q0-3.91,1.8-5.9a7,7,0,0,1,9.81,0q1.82,2,1.82,5.9Zm-4.47-4.36a6.47,6.47,0,0,0-.58-3.18,1.86,1.86,0,0,0-1.68-1,1.83,1.83,0,0,0-1.68,1,6.66,6.66,0,0,0-.56,3.18v4.64a6.67,6.67,0,0,0,.57,3.21,1.85,1.85,0,0,0,1.7,1,1.83,1.83,0,0,0,1.67-1,6.66,6.66,0,0,0,.57-3.21Z"/><rect class="cls-3" x="62.88" y="55.71" width="134.29" height="11.43"/><rect class="cls-3" x="17.17" y="34.29" width="180" height="11.43"/><rect class="cls-4" x="62.88" y="95.71" width="134.29" height="11.43"/><rect class="cls-1" x="1.43" y="1.43" width="197.14" height="197.14"/><path class="cls-2" d="M197.14,2.86V197.14H2.86V2.86H197.14M200,0H0V200H200V0Z"/><rect class="cls-2" x="0.54" y="0.54" width="198.92" height="27.49"/><path class="cls-2" d="M198.92,1.08V27.49H1.08V1.08H198.92M200,0H0V28.57H200V0Z"/><rect class="cls-3" x="3.22" y="78.57" width="193.56" height="47.14"/><path d="M25.41,159.12h.07L29,151.63H32.6L27,162.17v5.71H23.77V162l-5.48-10.37h3.57Z"/><path d="M31.79,161.73a6.48,6.48,0,0,1,1.51-4.43,5.25,5.25,0,0,1,4.17-1.72,5.31,5.31,0,0,1,4.2,1.72,6.45,6.45,0,0,1,1.52,4.43V162a6.46,6.46,0,0,1-1.51,4.44,5.29,5.29,0,0,1-4.18,1.71,5.3,5.3,0,0,1-4.19-1.71A6.45,6.45,0,0,1,31.79,162ZM35,162a5.23,5.23,0,0,0,.58,2.65,2.23,2.23,0,0,0,3.72,0,5.2,5.2,0,0,0,.59-2.64v-.23a5.16,5.16,0,0,0-.59-2.62,2,2,0,0,0-1.86-1,2,2,0,0,0-1.85,1,5.2,5.2,0,0,0-.59,2.61Z"/><path d="M52.57,166.14a4.06,4.06,0,0,1-1.42,1.46,4.18,4.18,0,0,1-5-.71,5.64,5.64,0,0,1-1.08-3.8v-7.29h3.25v7.33a3.13,3.13,0,0,0,.45,1.9,1.56,1.56,0,0,0,1.32.58,3.24,3.24,0,0,0,1.34-.25,2.27,2.27,0,0,0,.92-.74v-8.8h3.26v12.08H52.86Z"/><path d="M74.68,162.18a6.94,6.94,0,0,1-1.24,4.31A4.1,4.1,0,0,1,70,168.12a3.86,3.86,0,0,1-1.69-.35,3.45,3.45,0,0,1-1.26-1v5.79H63.79V155.81h2.94l.19,1.43A3.87,3.87,0,0,1,68.2,156a3.49,3.49,0,0,1,1.76-.43,4,4,0,0,1,3.48,1.75,7.82,7.82,0,0,1,1.24,4.61Zm-3.26-.25a5.86,5.86,0,0,0-.57-2.77,1.86,1.86,0,0,0-1.74-1.06,2.45,2.45,0,0,0-1.26.3,2.15,2.15,0,0,0-.82.86v5.3a2,2,0,0,0,.82.78,2.76,2.76,0,0,0,1.28.27,1.87,1.87,0,0,0,1.74-.93,4.9,4.9,0,0,0,.55-2.51Z"/><path d="M83.78,167.88a6.6,6.6,0,0,1-.31-.87,5.83,5.83,0,0,1-.18-.94A4.48,4.48,0,0,1,82,167.54a3.31,3.31,0,0,1-2,.58,4.07,4.07,0,0,1-2.92-1,3.5,3.5,0,0,1-1-2.66,3.18,3.18,0,0,1,1.37-2.75,6.83,6.83,0,0,1,4-1h1.82v-1a1.88,1.88,0,0,0-.46-1.35,2.14,2.14,0,0,0-2.57-.09,1.36,1.36,0,0,0-.43,1.07H76.63v-.07a3.06,3.06,0,0,1,1.33-2.64,5.79,5.79,0,0,1,3.69-1.11,5.4,5.4,0,0,1,3.52,1.1,3.81,3.81,0,0,1,1.35,3.13v5a9.33,9.33,0,0,0,.13,1.6,7.9,7.9,0,0,0,.41,1.48Zm-3-2.18a2.79,2.79,0,0,0,1.53-.42,2.2,2.2,0,0,0,.9-1v-1.71H81.41a2.18,2.18,0,0,0-1.57.52,1.68,1.68,0,0,0-.54,1.26,1.25,1.25,0,0,0,.4,1A1.56,1.56,0,0,0,80.8,165.71Z"/><path d="M93.13,162.82l.13.67h.07l2.31-7.68h3.5l-4.9,13.88a6.41,6.41,0,0,1-1.4,2.18,3.58,3.58,0,0,1-2.65.89,4.08,4.08,0,0,1-.76-.07l-.85-.19.38-2.38.31,0,.3,0a1.78,1.78,0,0,0,1.24-.4,2.62,2.62,0,0,0,.67-1l.38-.94-4.29-12.06h3.5Z"/><path d="M102.51,158.11H99.25v-2.86h3.26Zm0,9.78H99.25V165h3.26Z"/><path d="M120.76,162.77a2.4,2.4,0,0,0-.5-1.62,5.11,5.11,0,0,0-1.79-1.13,15.61,15.61,0,0,1-4.55-2.53,4.79,4.79,0,0,1-1.42-3.76A4.9,4.9,0,0,1,114,150a6.5,6.5,0,0,1,4-1.69v-2.8h2.11v2.85a5.69,5.69,0,0,1,5.13,6.08l0,.07h-4.39a3.46,3.46,0,0,0-.56-2.15,1.79,1.79,0,0,0-1.48-.71,1.65,1.65,0,0,0-1.39.58,2.35,2.35,0,0,0-.45,1.48,2.21,2.21,0,0,0,.48,1.48,5.12,5.12,0,0,0,1.81,1.15,16.63,16.63,0,0,1,4.52,2.62,4.77,4.77,0,0,1,1.44,3.73,4.93,4.93,0,0,1-1.45,3.71,6.35,6.35,0,0,1-3.9,1.66v2.66h-2.11v-2.68a7.19,7.19,0,0,1-4.27-1.8,5.66,5.66,0,0,1-1.64-4.53l0-.08h4.36a3.27,3.27,0,0,0,.72,2.37,2.5,2.5,0,0,0,1.86.72,1.82,1.82,0,0,0,1.44-.56A2.13,2.13,0,0,0,120.76,162.77Z"/><path d="M127.95,159.4l1.11-10.81h11.32V152h-7.67l-.49,4a4.08,4.08,0,0,1,1.26-.62,6.1,6.1,0,0,1,1.66-.27,5.4,5.4,0,0,1,4.36,1.65,7,7,0,0,1,1.52,4.83,6.56,6.56,0,0,1-1.74,4.61,6.41,6.41,0,0,1-5,1.89,7.74,7.74,0,0,1-4.79-1.52,4.63,4.63,0,0,1-2-4l0-.08,4.37-.27a2.45,2.45,0,0,0,.64,1.8,2.29,2.29,0,0,0,1.7.65,1.85,1.85,0,0,0,1.73-.85,4.19,4.19,0,0,0,.51-2.17,4.72,4.72,0,0,0-.57-2.5,2,2,0,0,0-1.8-.91,2.48,2.48,0,0,0-1.45.38,2,2,0,0,0-.76,1Z"/><path d="M148.4,167.88h-4.47v-3.76h4.47Z"/><path d="M164.94,152a20,20,0,0,0-4,6.44A33.2,33.2,0,0,0,159.4,166l-.19,1.87h-4.48l.17-1.87a27.62,27.62,0,0,1,1.82-7.67,21,21,0,0,1,3.92-6.31H151v-3.45h13.92Z"/><path d="M180.63,160.26q0,3.91-1.82,5.9a7,7,0,0,1-9.81,0q-1.82-2-1.82-5.9v-4.06q0-3.91,1.8-5.9a7,7,0,0,1,9.81,0q1.82,2,1.82,5.9Zm-4.47-4.36a6.47,6.47,0,0,0-.58-3.18,1.86,1.86,0,0,0-1.68-1,1.83,1.83,0,0,0-1.68,1,6.66,6.66,0,0,0-.56,3.18v4.64a6.67,6.67,0,0,0,.57,3.21,1.85,1.85,0,0,0,1.7,1,1.83,1.83,0,0,0,1.67-1,6.66,6.66,0,0,0,.57-3.21Z"/><rect class="cls-3" x="62.88" y="55.71" width="134.29" height="11.43"/><rect class="cls-3" x="17.17" y="34.29" width="180" height="11.43"/><rect class="cls-4" x="62.88" y="95.71" width="134.29" height="11.43"/></svg>