<?xml version="1.0" encoding="utf-8"?>
<!-- Generator: Adobe Illustrator 13.0.0, SVG Export Plug-In . SVG Version: 6.00 Build 14948)  -->
<!DOCTYPE svg PUBLIC "-//W3C//DTD SVG 1.1//EN" "http://www.w3.org/Graphics/SVG/1.1/DTD/svg11.dtd">
<svg version="1.1" id="Layer_1" xmlns="http://www.w3.org/2000/svg" xmlns:xlink="http://www.w3.org/1999/xlink" x="0px" y="0px"
	 width="32px" height="32px" viewBox="0 0 32 32" enable-background="new 0 0 32 32" xml:space="preserve">
<path fill="#004385" d="M15.5-0.501c-8.818,0-16,7.183-16,16.001c0,8.817,7.182,16.001,16,16.001c8.819,0,16-7.184,16-16.001
	C31.5,6.684,24.319-0.501,15.5-0.501z M7.322,26.879c0-0.036,0-0.036,0-0.071c0-4.552,3.698-8.251,8.214-8.251
	c4.551,0,8.213,3.699,8.249,8.215c-2.312,1.707-5.192,2.738-8.285,2.738C12.441,29.545,9.598,28.55,7.322,26.879z M15.535,15.855
	c-1.92,0-3.449-1.563-3.449-3.448c0-1.92,1.564-3.449,3.449-3.449c1.921,0,3.448,1.563,3.448,3.449
	C19.02,14.326,17.456,15.855,15.535,15.855z M25.6,25.207c-0.606-3.911-3.486-7.111-7.217-8.178c1.526-0.96,2.595-2.667,2.595-4.622
	c0-2.986-2.419-5.404-5.405-5.404s-5.403,2.418-5.403,5.404c0,1.955,1.029,3.662,2.595,4.622c-3.768,1.101-6.648,4.337-7.218,8.284
	c-2.49-2.524-4.02-6.009-4.02-9.813c0-7.752,6.294-14.045,14.045-14.045S29.616,7.748,29.616,15.5
	C29.509,19.27,28.017,22.682,25.6,25.207z"/>
</svg>
