<svg xmlns="http://www.w3.org/2000/svg" viewBox="0 0 32 32">
<path fill="#004385" d="M16,0C7.182,0,0,7.182,0,16c0,8.814,7.182,16,16,16c8.818,0,16-7.186,16-16C32,7.185,24.818,0,16,0z
	 M7.821,27.378c0-0.037,0-0.037,0-0.07c0-4.552,3.699-8.251,8.215-8.251c4.551,0,8.213,3.699,8.249,8.214
	c-2.313,1.705-5.192,2.738-8.285,2.738C12.941,30.044,10.098,29.048,7.821,27.378z M16.035,16.355c-1.92,0-3.449-1.563-3.449-3.448
	c0-1.92,1.564-3.449,3.449-3.449c1.921,0,3.447,1.562,3.447,3.449C19.52,14.827,17.956,16.355,16.035,16.355z M26.1,25.705
	c-0.604-3.91-3.484-7.109-7.218-8.177c1.527-0.96,2.597-2.667,2.597-4.621c0-2.986-2.42-5.404-5.404-5.404
	c-2.986,0-5.403,2.418-5.403,5.404c0,1.954,1.029,3.661,2.596,4.621c-3.769,1.101-6.649,4.336-7.219,8.281
	c-2.49-2.521-4.02-6.006-4.02-9.811c0-7.751,6.293-14.044,14.045-14.044c7.751,0,14.044,6.293,14.044,14.044
	C30.009,19.769,28.518,23.182,26.1,25.705z"/>
</svg>
