<svg xmlns="http://www.w3.org/2000/svg" viewBox="-1.375 -7.895 34 34">
<g>
	<g id="Group_2539" transform="translate(-22412 -17243)">
		<g id="Group_2537" transform="translate(15 23)">
			<path id="Path_2798" fill="#004385" stroke="#004385" d="M22427.627,17215.801h-30.004c-0.293-0.016-0.547,0.207-0.566,0.504
				c0,0.02,0,0.043,0,0.063v19.813c-0.016,0.297,0.207,0.551,0.504,0.566c0.02,0.004,0.043,0.004,0.063,0h14.152v4.531h-7.98
				c-0.313,0-0.566,0.254-0.566,0.566s0.254,0.566,0.566,0.566h17.096c0.313,0,0.564-0.254,0.564-0.566s-0.252-0.566-0.564-0.566
				h-7.982v-4.531h14.719c0.295,0.02,0.547-0.207,0.566-0.5c0-0.023,0-0.043,0-0.066v-19.813c0.018-0.293-0.207-0.547-0.504-0.566
				C22427.67,17215.801,22427.646,17215.801,22427.627,17215.801z M22427.061,17235.613h-28.871v-18.68h28.871V17235.613z"/>
		</g>
	</g>
	<g transform="translate(0,-952.36218)">
		<path fill="#004385" d="M28.203,951.87c0.003-0.091,0.007-0.184,0.018-0.272c-0.021-0.063-0.048-0.128-0.066-0.192
			c-0.016-0.023-0.026-0.05-0.043-0.071c-0.127-0.093-0.234-0.2-0.338-0.314c-0.029-0.015-0.06-0.031-0.088-0.052
			c-0.037-0.017-0.066-0.039-0.104-0.057c-0.059-0.014-0.111-0.024-0.168-0.039c-0.006-0.001-0.014-0.001-0.018-0.001
			c-0.08,0.028-0.164,0.053-0.246,0.079c-0.066,0.051-0.147,0.089-0.225,0.132L16.055,961.3c-1.373-1.14-2.765-2.286-3.93-3.281
			c-0.153-0.164-0.387-0.254-0.611-0.232c-0.17,0.013-0.334,0.084-0.459,0.2l-7.528,6.773c-0.292,0.267-0.312,0.774-0.046,1.068
			c0.265,0.292,0.766,0.313,1.058,0.047l7.034-6.339l3.977,3.308c0.272,0.271,0.765,0.273,1.046,0.01l11.366-10.685
			c0.054-0.063,0.119-0.116,0.187-0.168C28.162,951.954,28.188,951.914,28.203,951.87z"/>
	</g>
</g>
</svg>
