<svg xmlns="http://www.w3.org/2000/svg" viewBox="-1.375 -7.895 34 34">
<path fill="#004385" d="M16.417,8.531h-0.04c-2.656-0.61-2.656-1.774-2.656-2.159c0-1.46,1.258-2.129,2.426-2.129
	c0.978-0.003,1.863,0.584,2.24,1.487c0.236,0.563,0.887,0.827,1.449,0.59c0.563-0.236,0.828-0.885,0.592-1.448
	c-0.568-1.357-1.746-2.362-3.174-2.709V1.131c0-0.611-0.496-1.107-1.107-1.107c-0.61,0-1.106,0.496-1.106,1.107v1.004
	C12.995,2.5,11.501,4.279,11.5,6.358c0,1.235,0.565,3.421,4.351,4.308h0.041c2.656,0.609,2.656,1.771,2.656,2.156
	c0,1.465-1.258,2.133-2.425,2.133c-0.979,0.002-1.862-0.588-2.24-1.488c-0.008-0.021-0.018-0.041-0.025-0.063
	c-0.254-0.559-0.91-0.803-1.467-0.551c-0.556,0.252-0.802,0.91-0.549,1.465c0.559,1.361,1.729,2.375,3.156,2.731v1.031
	c0,0.608,0.496,1.104,1.107,1.104c0.609,0,1.105-0.496,1.105-1.104v-1.019c2.047-0.364,3.539-2.145,3.541-4.223
	C20.75,11.613,20.184,9.417,16.417,8.531z"/>
<path fill="#004385" d="M16.125-6.395c-8.836,0-16,7.164-16,16c0,8.836,7.164,16,16,16c8.837,0,16-7.164,16-16
	C32.115,0.773,24.958-6.385,16.125-6.395z M16.125,23.393c-7.614,0-13.786-6.174-13.786-13.787c0-7.614,6.172-13.787,13.786-13.787
	S29.912,1.991,29.912,9.605C29.902,17.215,23.736,23.381,16.125,23.393z"/>
</svg>
