<?xml version="1.0" encoding="utf-8"?>
<!-- Generator: Adobe Illustrator 13.0.0, SVG Export Plug-In . SVG Version: 6.00 Build 14948)  -->
<!DOCTYPE svg PUBLIC "-//W3C//DTD SVG 1.1//EN" "http://www.w3.org/Graphics/SVG/1.1/DTD/svg11.dtd">
<svg version="1.1" id="Layer_1" xmlns="http://www.w3.org/2000/svg" xmlns:xlink="http://www.w3.org/1999/xlink" x="0px" y="0px"
	 width="32px" height="32px" viewBox="0 0 32 32" enable-background="new 0 0 32 32" xml:space="preserve">
<title>Artboard 22</title>
<path fill="#004385" d="M15.792,14.424h-0.04c-2.656-0.61-2.656-1.774-2.656-2.159c0-1.46,1.257-2.129,2.426-2.129
	c0.978-0.003,1.863,0.584,2.24,1.487c0.236,0.563,0.887,0.827,1.449,0.59c0.563-0.236,0.828-0.885,0.592-1.448
	c-0.568-1.357-1.746-2.362-3.174-2.709V7.024c0-0.611-0.496-1.107-1.107-1.107c-0.611,0-1.107,0.496-1.107,1.107v1.004
	c-2.046,0.365-3.539,2.144-3.541,4.223c0,1.235,0.566,3.421,4.351,4.307h0.04c2.656,0.611,2.656,1.773,2.656,2.158
	c0,1.463-1.257,2.131-2.425,2.131c-0.979,0.002-1.862-0.586-2.24-1.488c-0.008-0.021-0.017-0.041-0.026-0.061
	c-0.253-0.559-0.909-0.803-1.466-0.551c-0.556,0.252-0.802,0.91-0.549,1.465c0.558,1.361,1.729,2.375,3.156,2.732v1.031
	c0,0.609,0.496,1.105,1.107,1.105c0.61,0,1.106-0.496,1.106-1.105v-1.018c2.047-0.365,3.539-2.145,3.541-4.223
	C20.125,17.506,19.559,15.31,15.792,14.424z"/>
<path fill="#004385" d="M15.5-0.5c-8.836,0-16,7.164-16,16s7.164,16,16,16c8.837,0,16-7.164,16-16C31.49,6.668,24.333-0.49,15.5-0.5
	z M15.5,29.286c-7.614,0-13.786-6.173-13.786-13.786c0-7.614,6.172-13.787,13.786-13.787S29.287,7.886,29.287,15.5
	C29.277,23.11,23.111,29.276,15.5,29.286z"/>
</svg>
