<svg xmlns="http://www.w3.org/2000/svg" viewBox="-1.375 -7.895 34 34">
<g>
	<path fill="#fff" d="M24.66,25.607c-0.158,0-0.32-0.006-0.486-0.017c-1.969-0.135-3.939-0.715-6.396-1.881
		c-4.342-2.121-8.125-5.084-11.256-8.813l-0.002-0.002c-2.503-2.99-4.333-6.048-5.439-9.088C0.527,4.289-0.012,2.468,0.155,0.46
		c0.057-1.266,0.597-2.431,1.56-3.333L4.16-5.317c1.432-1.432,3.395-1.44,4.882-0.016c0.458,0.425,0.906,0.885,1.34,1.33
		c0.217,0.221,0.436,0.445,0.659,0.669l1.935,1.935c1.481,1.546,1.481,3.449,0.016,4.98c-0.428,0.428-0.842,0.83-1.256,1.23
		c-0.351,0.341-0.701,0.682-1.053,1.031c0.42,0.944,1.035,1.891,1.971,3.034c1.957,2.38,3.85,4.097,5.952,5.401l0.047,0.029
		c0.263,0.185,0.587,0.348,0.931,0.518c0.092,0.048,0.187,0.095,0.28,0.142l2.291-2.291c0.705-0.707,1.554-1.082,2.445-1.082
		c0.896,0,1.742,0.375,2.449,1.082l3.969,3.968c1.479,1.479,1.479,3.467,0,4.944c-0.265,0.263-0.522,0.519-0.781,0.771
		c-0.516,0.504-1.002,0.981-1.471,1.481C27.738,25.006,26.354,25.607,24.66,25.607z M8.002,13.654
		c2.956,3.52,6.526,6.316,10.614,8.313c2.218,1.054,3.975,1.576,5.688,1.693c1.318,0.086,2.28-0.271,3.023-1.123
		c0.521-0.556,1.044-1.067,1.554-1.563c0.255-0.25,0.511-0.498,0.765-0.756c0.733-0.734,0.733-1.479,0-2.212l-3.965-3.965
		c-0.675-0.674-1.488-0.674-2.162,0l-2.468,2.467c-0.202,0.203-0.813,0.814-1.793,0.326c-0.198-0.108-0.372-0.192-0.546-0.28
		c-0.382-0.19-0.775-0.39-1.15-0.646c-2.278-1.418-4.313-3.265-6.404-5.805C10.01,8.7,9.277,7.535,8.784,6.324
		C8.423,5.427,8.896,4.856,9.17,4.619c0.406-0.405,0.812-0.799,1.218-1.193c0.406-0.395,0.813-0.79,1.219-1.196
		c0.744-0.777,0.744-1.482-0.015-2.274l-1.92-1.92c-0.23-0.23-0.452-0.459-0.675-0.687c-0.438-0.447-0.85-0.87-1.282-1.272
		C7.192-4.422,6.399-4.821,5.526-3.949L3.061-1.481c-0.618,0.58-0.938,1.268-0.975,2.068C1.947,2.252,2.395,3.758,2.897,5.146
		C3.927,7.973,5.644,10.836,8.002,13.654z"/>
</g>
</svg>
