<?xml version="1.0" encoding="utf-8"?>
<!-- Generator: Adobe Illustrator 13.0.0, SVG Export Plug-In . SVG Version: 6.00 Build 14948)  -->
<!DOCTYPE svg PUBLIC "-//W3C//DTD SVG 1.1//EN" "http://www.w3.org/Graphics/SVG/1.1/DTD/svg11.dtd">
<svg version="1.1" id="Layer_1" xmlns="http://www.w3.org/2000/svg" xmlns:xlink="http://www.w3.org/1999/xlink" x="0px" y="0px"
	 width="32px" height="32px" viewBox="0 0 32 32" enable-background="new 0 0 32 32" xml:space="preserve">
<g>
	<path fill="#fff" d="M24.036,31.502c-0.158,0-0.32-0.005-0.486-0.015c-1.969-0.135-3.941-0.716-6.398-1.882
		c-4.341-2.121-8.124-5.084-11.255-8.812l-0.002-0.002C3.392,17.799,1.562,14.74,0.456,11.7c-0.552-1.517-1.092-3.337-0.925-5.345
		c0.057-1.266,0.597-2.431,1.56-3.333l2.445-2.445c1.432-1.432,3.395-1.44,4.882-0.016c0.458,0.425,0.906,0.885,1.34,1.33
		c0.217,0.221,0.435,0.445,0.659,0.669l1.935,1.935c1.481,1.546,1.481,3.449,0.015,4.98c-0.428,0.428-0.841,0.83-1.255,1.23
		c-0.351,0.341-0.702,0.682-1.054,1.031c0.42,0.944,1.036,1.891,1.971,3.034c1.958,2.38,3.85,4.097,5.952,5.402l0.046,0.029
		c0.263,0.184,0.587,0.347,0.931,0.517c0.092,0.047,0.186,0.095,0.28,0.142l2.291-2.291c0.705-0.707,1.554-1.082,2.446-1.082
		c0.896,0,1.743,0.375,2.45,1.082l3.967,3.966c1.479,1.479,1.479,3.467,0,4.946c-0.263,0.262-0.522,0.517-0.781,0.77
		c-0.515,0.504-1.001,0.981-1.47,1.481C27.115,30.901,25.731,31.502,24.036,31.502z M7.378,19.55
		c2.956,3.518,6.527,6.316,10.614,8.313c2.218,1.054,3.975,1.577,5.687,1.693c1.32,0.087,2.282-0.271,3.025-1.123
		c0.521-0.554,1.044-1.068,1.554-1.564c0.254-0.249,0.509-0.498,0.764-0.755c0.734-0.734,0.734-1.478,0-2.212l-3.965-3.965
		c-0.674-0.673-1.489-0.673-2.162,0l-2.467,2.467c-0.203,0.203-0.815,0.815-1.793,0.326c-0.199-0.108-0.373-0.193-0.546-0.28
		c-0.382-0.191-0.777-0.389-1.151-0.646c-2.279-1.418-4.314-3.263-6.405-5.804c-1.148-1.404-1.88-2.569-2.374-3.78
		c-0.36-0.898,0.113-1.469,0.387-1.707c0.406-0.405,0.812-0.799,1.217-1.193c0.407-0.395,0.813-0.79,1.22-1.196
		c0.744-0.777,0.744-1.482-0.015-2.274l-1.92-1.92C8.819,3.7,8.595,3.471,8.373,3.243c-0.437-0.447-0.849-0.87-1.282-1.272
		C6.569,1.472,5.776,1.073,4.903,1.946L2.437,4.413c-0.618,0.58-0.939,1.268-0.975,2.068C1.323,8.147,1.771,9.653,2.274,11.04
		C3.303,13.867,5.02,16.73,7.378,19.55z"/>
</g>
</svg>
