<svg xmlns="http://www.w3.org/2000/svg" viewBox="-1.5 -1.5 34 34">
<g transform="translate(0,-952.36218)">
	<path fill="#004385" d="M15.499,951.862c-8.829,0-15.999,7.172-15.999,15.999c0,8.83,7.17,16.001,15.999,16.001
		c8.828,0,16.001-7.172,16.001-16.001C31.5,959.034,24.327,951.862,15.499,951.862z M15.499,953.142
		c8.138,0,14.722,6.582,14.722,14.719c0,8.138-6.584,14.72-14.722,14.72c-8.137,0-14.72-6.582-14.72-14.72
		C0.779,959.724,7.362,953.142,15.499,953.142z M15.499,957.623c-0.354,0-0.64,0.285-0.64,0.64v9.599
		c0,0.354,0.286,0.642,0.64,0.642h8.319c0.353,0,0.641-0.287,0.641-0.642c0-0.353-0.288-0.64-0.641-0.64h-7.679v-8.959
		C16.14,957.908,15.854,957.623,15.499,957.623z"/>
</g>
</svg>
