<?xml version="1.0" encoding="utf-8"?>
<!-- Generator: Adobe Illustrator 13.0.0, SVG Export Plug-In . SVG Version: 6.00 Build 14948)  -->
<!DOCTYPE svg PUBLIC "-//W3C//DTD SVG 1.1//EN" "http://www.w3.org/Graphics/SVG/1.1/DTD/svg11.dtd">
<svg version="1.1"
	 id="Layer_1" xmlns:cc="http://creativecommons.org/ns#" xmlns:rdf="http://www.w3.org/1999/02/22-rdf-syntax-ns#" xmlns:dc="http://purl.org/dc/elements/1.1/" xmlns:svg="http://www.w3.org/2000/svg" xmlns:sodipodi="http://sodipodi.sourceforge.net/DTD/sodipodi-0.dtd" xmlns:inkscape="http://www.inkscape.org/namespaces/inkscape"
	 xmlns="http://www.w3.org/2000/svg" xmlns:xlink="http://www.w3.org/1999/xlink" x="0px" y="0px" width="32px" height="32px"
	 viewBox="0 0 32 32" enable-background="new 0 0 32 32" xml:space="preserve">
<g transform="translate(0,-952.36218)">
	<path fill="#004385" d="M15.499,951.862c-8.829,0-15.999,7.172-15.999,15.999c0,8.83,7.17,16.001,15.999,16.001
		c8.828,0,16.001-7.171,16.001-16.001C31.5,959.034,24.327,951.862,15.499,951.862z M15.499,953.142
		c8.138,0,14.722,6.582,14.722,14.719c0,8.138-6.584,14.72-14.722,14.72c-8.137,0-14.72-6.582-14.72-14.72
		C0.779,959.724,7.362,953.142,15.499,953.142z M15.499,957.623c-0.354,0-0.64,0.285-0.64,0.64v9.599
		c0,0.354,0.286,0.642,0.64,0.642h8.32c0.352,0,0.64-0.287,0.64-0.642c0-0.353-0.288-0.64-0.64-0.64h-7.68v-8.959
		C16.14,957.908,15.854,957.623,15.499,957.623z"/>
</g>
</svg>
