<svg xmlns="http://www.w3.org/2000/svg" viewBox="-1.5 -1.5 34 34">
<g transform="scale(1 -1)">
	<g transform="translate(0 -75)">
		<g>
			<path marker-start="none" marker-end="none" fill="#004385" d="M-0.283,56.887c-1.443,8.711,4.457,16.952,13.169,18.396
				c8.712,1.442,16.952-4.457,18.396-13.169c1.442-8.712-4.458-16.951-13.171-18.396C9.4,42.275,1.161,48.174-0.283,56.887z
				 M17.891,45.072c1.021,0.17,2.002,0.441,2.933,0.803l-0.003,0.004l-0.592,1.613c-0.321,0.936-0.631,1.891-0.926,2.861
				c-1.174,1.178-2.361,2.36-3.542,3.541c-0.117,1.041-0.209,2.1-0.28,3.174c-0.523,0.289-1.046,0.578-1.564,0.861
				c0.006,0.014,0.014,0.026,0.021,0.038c-0.013-0.008-0.026-0.017-0.039-0.026c-0.957,0.31-1.907,0.613-2.847,0.907
				c-0.695,0.145-1.387,0.286-2.071,0.424c-0.783,0.662-1.547,1.313-2.281,1.945c-0.202,0.236-0.4,0.47-0.595,0.701
				c0.104-0.279,0.211-0.558,0.324-0.84c0.228-0.322,0.46-0.648,0.697-0.973c-0.11,0.003-0.218,0.007-0.331,0.011
				c-0.391,0.344-0.776,0.682-1.156,1.015c-0.657,1.153-1.251,2.289-1.761,3.399c0.114,0.959,0.262,1.927,0.441,2.903
				c0.169,0.135,0.341,0.274,0.513,0.41L4.347,68.94c-2.681-3.155-4.004-7.428-3.274-11.831
				C2.391,49.146,9.925,43.752,17.891,45.072z M23.547,47.291C23.273,47.107,23.273,47.107,23.547,47.291z M23.82,47.48
				c-0.088-0.068-0.18-0.131-0.273-0.189C23.654,47.359,23.762,47.43,23.82,47.48z M24.35,47.863
				c-0.156-0.127-0.316-0.244-0.529-0.383C24.016,47.605,24.201,47.742,24.35,47.863z M24.451,47.934
				c-0.028-0.021-0.063-0.047-0.102-0.069C24.402,47.896,24.434,47.92,24.451,47.934z M24.473,47.951h0.002
				c-0.004-0.004-0.01-0.006-0.022-0.018C24.463,47.943,24.467,47.947,24.473,47.951z M25.544,48.869l-0.481-0.412l-0.47-0.404
				l-0.118-0.102l0.002,0.002l-0.004-0.002C24.846,48.24,25.202,48.547,25.544,48.869z M29.928,61.889
				c-1.32,7.964-8.854,13.358-16.817,12.039c-0.503-0.085-0.996-0.193-1.468-0.32l0.144,0.031l0.836,0.183l0.001-0.034
				c-0.027-0.459-0.051-0.916-0.072-1.375c0.032,0.005,0.063,0.013,0.093,0.022c0.471-0.063,0.949-0.128,1.431-0.2
				c0.002-0.011,0.002-0.022,0.004-0.031c0.152-0.505,0.315-1.012,0.484-1.523c0.425,0.612,0.848,1.223,1.269,1.832
				c-0.004,0.056-0.009,0.111-0.012,0.166l-0.205,1.431l0.451,0.006c0.97-0.037,1.922-0.17,2.847-0.393l0.25-0.073l0.902-1.714
				c-0.01-0.023-0.018-0.049-0.023-0.074c-0.249-0.438-0.503-0.878-0.752-1.318c-0.596-0.229-1.189-0.462-1.782-0.697
				c0.363-0.223,0.729-0.45,1.101-0.678c-0.07-0.349-0.142-0.697-0.209-1.044c-0.611-0.209-1.229-0.417-1.838-0.626
				c-0.388-0.476-0.771-0.949-1.153-1.419c0.001-0.012,0.003-0.024,0.003-0.034c-0.289-0.668-0.574-1.334-0.854-1.996
				c-0.1-0.492-0.195-0.984-0.288-1.472c-0.13-0.111-0.26-0.223-0.39-0.333c-0.399,0.338-0.795,0.674-1.185,1.004
				c-0.569-0.288-1.136-0.573-1.695-0.857c-0.297-0.552-0.587-1.1-0.868-1.639c0.001-0.011,0.004-0.021,0.006-0.033
				c0.306-0.329,0.619-0.661,0.934-0.994c0.429,0.385,0.861,0.777,1.299,1.177c0.09-0.12,0.181-0.239,0.271-0.356
				c0.018-0.274,0.036-0.548,0.056-0.817c0.279-0.083,0.558-0.163,0.834-0.246c0.338-0.361,0.676-0.726,1.019-1.091
				c-0.077-0.053-0.154-0.105-0.229-0.158c0.509-0.129,1.02-0.258,1.532-0.387c0.266,0.35,0.537,0.698,0.808,1.051
				c0.402-0.057,0.809-0.112,1.213-0.17c1.262-0.186,2.529-0.372,3.795-0.553c0.484-0.576,0.967-1.15,1.447-1.723
				c1.395-0.42,2.775-0.834,4.139-1.232c0.064-0.242,0.128-0.484,0.189-0.727c-0.271-0.639-0.539-1.271-0.799-1.898
				c-0.088-0.486-0.17-0.969-0.25-1.447c-0.438-0.555-0.861-1.098-1.272-1.629c0.005-0.021,0.01-0.041,0.015-0.063l-0.074-0.998
				C28.954,52.102,30.751,56.912,29.928,61.889z M15.011,60.333c-0.478,0.21-0.952,0.417-1.424,0.622
				c0.332,0.119,0.667,0.239,1.002,0.357c0.316-0.105,0.635-0.215,0.955-0.323c0.036-0.006,0.07-0.012,0.107-0.018
				c0.542,0.004,1.083,0.007,1.626,0.011c0.035-0.006,0.072-0.012,0.106-0.017c0.068-0.172,0.134-0.345,0.202-0.519
				c-0.422-0.097-0.842-0.195-1.263-0.29C15.886,60.215,15.448,60.274,15.011,60.333z M4.48,69.112l-0.134-0.169l0.003-0.007
				l-0.003,0.005C4.796,69.472,4.89,69.582,4.48,69.112z M19.947,69.664c-0.07,0.267-0.139,0.53-0.207,0.795
				c0.031,0.028,0.063,0.057,0.092,0.087c0.255,0.313,0.514,0.626,0.766,0.94c0.002-0.023,0.004-0.046,0.008-0.067
				c0.174-0.464,0.352-0.928,0.529-1.395c-0.045-0.171-0.089-0.342-0.135-0.512C20.646,69.563,20.297,69.614,19.947,69.664z
				 M10.641,73.29C10.346,73.187,10.356,73.19,10.641,73.29z M11.076,73.44c-0.388-0.131-0.413-0.139-0.435-0.15
				C10.663,73.301,10.689,73.31,11.076,73.44z M11.523,73.57c-0.28-0.075-0.549-0.159-0.447-0.13
				C10.978,73.413,11.248,73.496,11.523,73.57z M11.643,73.608l0.005,0.001c-0.042-0.012-0.083-0.024-0.125-0.039
				C11.56,73.584,11.603,73.596,11.643,73.608z"/>
		</g>
	</g>
</g>
</svg>
