<svg xmlns="http://www.w3.org/2000/svg" viewBox="-1.431 -3.697 34 34">
<g id="Group_2539" transform="translate(-22412 -17243)">
	<g id="Group_2537" transform="translate(15 23)">
		<path id="Path_2798" fill="#004385" stroke="#004385" d="M22427.57,17219.998h-30.004c-0.293-0.018-0.547,0.207-0.566,0.502
			c0,0.021,0,0.043,0,0.064v19.813c-0.016,0.295,0.207,0.549,0.504,0.564c0.02,0.004,0.043,0.004,0.063,0h14.152v4.531h-7.98
			c-0.313,0-0.566,0.254-0.566,0.566s0.254,0.566,0.566,0.566h17.096c0.313,0,0.564-0.254,0.564-0.566s-0.252-0.566-0.564-0.566
			h-7.982v-4.531h14.719c0.295,0.02,0.547-0.207,0.566-0.5c0-0.021,0-0.043,0-0.064v-19.813c0.018-0.295-0.207-0.549-0.504-0.566
			C22427.613,17219.996,22427.59,17219.996,22427.57,17219.998z M22427.004,17239.811h-28.871v-18.682h28.871V17239.811z"/>
	</g>
</g>
<text transform="matrix(1 0 0 1 7.5684 13.2275)" fill="#004385" font-family="'Arial-BoldMT'" font-size="8">MT5</text>
</svg>
