<svg xmlns="http://www.w3.org/2000/svg" viewBox="-1.5 -1.5 34 34">
<path fill="#004385" d="M31.5,12.706c0-0.731-0.286-1.419-0.802-1.936l-8.367-8.367c-0.517-0.519-1.205-0.802-1.937-0.802
	s-1.418,0.286-1.937,0.802l-2.96,2.96l-2.959-2.96c-1.066-1.067-2.806-1.067-3.873,0l-8.367,8.367
	c-1.066,1.066-1.066,2.805,0.007,3.877l4.348,4.183c-0.022,0.82,0.307,1.609,0.93,2.191c0.495,0.461,1.112,0.728,1.724,0.756
	c0.061,0.69,0.375,1.533,0.88,1.998c0.449,0.443,1.087,0.705,1.74,0.732c0.053,0.67,0.381,1.396,0.86,1.836
	c0.458,0.422,1.241,0.854,2.003,0.932c0.195,0.787,0.59,1.637,1.631,1.983c0.152,0.052,0.476,0.14,0.876,0.14
	c0.494,0,1.107-0.133,1.674-0.635c0.051-0.051,0.111-0.133,0.18-0.234c0.145,0.048,0.322,0.082,0.531,0.082
	c0.41,0,0.939-0.139,1.555-0.603c0.676-0.514,0.896-1.149,0.91-1.694c0.761,0.237,1.578,0.066,2.158-0.52
	c0.723-0.729,0.711-1.595,0.559-2.246c0.685,0.036,1.441-0.24,1.873-0.668c0.471-0.463,0.755-1.244,0.648-1.957
	c0.648,0.029,1.498-0.104,2.123-0.841c0.575-0.681,0.621-1.49,0.153-2.407l3.034-3.034C31.216,14.125,31.5,13.438,31.5,12.706z
	 M6.155,20.41c-0.467-0.436-0.703-1.027-0.664-1.637l2.127-3.644c0.162-0.152,0.482-0.313,0.848-0.303
	c0.384,0.003,0.729,0.174,1.028,0.507c0.774,0.864,0.281,1.803,0.257,1.848l-2.273,3.76C7.022,20.961,6.541,20.77,6.155,20.41z
	 M8.766,23.17c-0.403-0.37-0.659-1.207-0.626-1.708l2.256-3.729c0.328-0.104,1.263-0.34,1.851,0.242
	c0.675,0.666,0.453,1.439,0.403,1.582l-2.536,4.114C9.612,23.691,9.112,23.514,8.766,23.17z M10.767,24.206l2.558-4.149
	c0.224-0.104,0.893-0.296,1.686,0.551c0.616,0.656,0.339,1.562,0.283,1.721l-2.399,4.117c-0.497-0.047-1.122-0.332-1.539-0.715
	C10.977,25.383,10.719,24.704,10.767,24.206z M14.688,28.466c-0.503-0.168-0.887-0.505-1.114-1.53l2.397-4.113
	c0.538-0.289,1.263,0.115,1.534,0.445c0.359,0.441,0.46,1.094,0.48,1.268c-0.121,0.863-1.332,3.359-1.589,3.622
	C15.729,28.751,14.92,28.544,14.688,28.466z M18.73,27.343c-0.504,0.384-0.891,0.449-1.141,0.429
	c0.385-0.739,0.824-1.727,1.063-2.473c0.146,0.129,0.332,0.291,0.582,0.5C19.324,26.041,19.495,26.766,18.73,27.343z M26.871,19.543
	c-0.563,0.665-1.471,0.579-1.913,0.484l-5.442-5.403c-0.164-0.163-0.429-0.162-0.591,0.001c-0.161,0.164-0.161,0.43,0.001,0.592
	l5.49,5.454c0.311,0.462,0.115,1.24-0.266,1.615c-0.377,0.373-1.256,0.587-1.703,0.296c-0.008-0.002-0.012-0.005-0.018-0.008
	l-5.455-5.59c-0.16-0.164-0.427-0.168-0.593-0.006c-0.164,0.16-0.168,0.426-0.006,0.59l5.497,5.636
	c0.273,0.7,0.419,1.418-0.161,2.004c-0.499,0.503-1.264,0.508-1.862,0.015c-0.363-0.302-0.593-0.506-0.763-0.654
	c-0.11-0.103-0.198-0.178-0.285-0.248c-0.052-0.336-0.209-1.041-0.647-1.581c-0.393-0.479-1.162-0.911-1.927-0.851
	c0.043-0.533-0.04-1.25-0.607-1.854c-0.731-0.778-1.484-0.951-2.062-0.894c0.015-0.494-0.115-1.158-0.726-1.761
	c-0.648-0.644-1.491-0.676-2.097-0.585c0.084-0.59-0.014-1.344-0.62-2.019c-0.576-0.643-1.212-0.781-1.644-0.785
	c-0.58,0.004-1.153,0.23-1.495,0.599c-0.021,0.022-0.039,0.048-0.056,0.074l-1.939,3.324L0.891,14.05
	c-0.742-0.741-0.742-1.947,0-2.689l8.365-8.366c0.742-0.742,1.949-0.742,2.69,0l2.96,2.959l-4.448,4.448
	c-0.04,0.036-0.402,0.372-0.783,0.803c-0.111,0.128-0.313,0.487,0.263,1.043c1.058,1.023,4.137,2.293,6.91-0.307
	c0.654-0.61,1.629-1.577,2.117-2.063l7.844,7.975c0.008,0.012,0.014,0.022,0.021,0.035C27.105,18.355,27.359,18.966,26.871,19.543z
	 M30.105,14.051l-2.955,2.955l-7.883-8.015c-0.08-0.079-0.188-0.125-0.297-0.125h-0.003c-0.112,0-0.218,0.045-0.296,0.124
	c-0.016,0.015-1.506,1.512-2.395,2.34c-1.455,1.363-2.907,1.419-3.87,1.227c-1.006-0.202-1.708-0.709-1.949-0.97
	c0.302-0.328,0.566-0.569,0.57-0.572c0.002-0.002,0.003-0.006,0.005-0.008c0.003-0.003,0.006-0.003,0.008-0.006l8.008-8.006
	c0.358-0.359,0.837-0.557,1.346-0.557c0.508,0,0.984,0.197,1.346,0.557l8.365,8.366C30.848,12.104,30.848,13.31,30.105,14.051z"/>
</svg>
