<?xml version="1.0" encoding="utf-8"?>
<!-- Generator: Adobe Illustrator 13.0.0, SVG Export Plug-In . SVG Version: 6.00 Build 14948)  -->
<!DOCTYPE svg PUBLIC "-//W3C//DTD SVG 1.1//EN" "http://www.w3.org/Graphics/SVG/1.1/DTD/svg11.dtd">
<svg version="1.1" id="Layer_1" xmlns="http://www.w3.org/2000/svg" xmlns:xlink="http://www.w3.org/1999/xlink" x="0px" y="0px"
	 width="32px" height="32px" viewBox="0 0 32 32" enable-background="new 0 0 32 32" xml:space="preserve">
<path fill="#004385" d="M31.5,12.706c0-0.732-0.286-1.419-0.802-1.936l-8.367-8.367c-0.516-0.518-1.205-0.802-1.936-0.802
	c-0.732,0-1.419,0.286-1.937,0.802l-2.96,2.96l-2.959-2.96c-1.067-1.067-2.806-1.067-3.873,0L0.299,10.77
	c-1.067,1.067-1.067,2.805,0.006,3.877l4.348,4.183c-0.022,0.82,0.307,1.609,0.93,2.191c0.495,0.461,1.112,0.728,1.723,0.756
	c0.061,0.691,0.375,1.534,0.88,1.998c0.45,0.444,1.087,0.706,1.741,0.733c0.052,0.67,0.38,1.396,0.86,1.836
	c0.458,0.422,1.241,0.853,2.003,0.931c0.195,0.787,0.59,1.637,1.631,1.984c0.152,0.052,0.475,0.14,0.876,0.14
	c0.494,0,1.107-0.134,1.674-0.636c0.05-0.05,0.111-0.132,0.179-0.233c0.145,0.047,0.322,0.081,0.531,0.081
	c0.411,0,0.94-0.138,1.555-0.602c0.676-0.514,0.896-1.149,0.91-1.695c0.761,0.238,1.578,0.067,2.158-0.519
	c0.724-0.729,0.711-1.595,0.559-2.246c0.685,0.036,1.442-0.241,1.874-0.668c0.47-0.463,0.754-1.244,0.648-1.957
	c0.648,0.029,1.498-0.104,2.123-0.841c0.575-0.681,0.621-1.49,0.153-2.407l3.035-3.035C31.216,14.125,31.5,13.438,31.5,12.706z
	 M6.155,20.41c-0.467-0.435-0.703-1.027-0.664-1.636l2.127-3.644c0.162-0.153,0.482-0.313,0.848-0.303
	c0.383,0.003,0.729,0.174,1.028,0.507c0.774,0.864,0.281,1.803,0.257,1.848l-2.274,3.76C7.022,20.961,6.541,20.77,6.155,20.41z
	 M8.765,23.17c-0.403-0.37-0.659-1.207-0.626-1.708l2.256-3.729c0.328-0.105,1.263-0.34,1.851,0.242
	c0.675,0.666,0.453,1.439,0.403,1.582l-2.536,4.114C9.612,23.692,9.112,23.513,8.765,23.17z M10.766,24.206l2.558-4.15
	c0.224-0.103,0.893-0.295,1.686,0.551c0.616,0.656,0.338,1.562,0.283,1.721l-2.4,4.117c-0.497-0.046-1.122-0.332-1.539-0.715
	C10.976,25.383,10.719,24.704,10.766,24.206z M14.688,28.466c-0.503-0.168-0.886-0.505-1.114-1.531l2.397-4.113
	c0.539-0.289,1.263,0.116,1.535,0.446c0.359,0.441,0.46,1.094,0.48,1.267c-0.121,0.863-1.331,3.359-1.589,3.622
	C15.728,28.751,14.92,28.544,14.688,28.466z M18.731,27.343c-0.505,0.383-0.891,0.449-1.141,0.429
	c0.385-0.74,0.824-1.727,1.062-2.473c0.146,0.129,0.333,0.291,0.583,0.5C19.324,26.041,19.495,26.765,18.731,27.343z M26.871,19.543
	c-0.563,0.665-1.47,0.579-1.913,0.485l-5.442-5.404c-0.164-0.163-0.429-0.162-0.591,0.001c-0.162,0.164-0.162,0.429,0.001,0.592
	l5.49,5.454c0.31,0.462,0.115,1.24-0.265,1.615c-0.378,0.373-1.256,0.587-1.704,0.296c-0.007-0.002-0.012-0.005-0.017-0.008
	l-5.455-5.59c-0.161-0.164-0.427-0.168-0.593-0.006c-0.164,0.16-0.168,0.426-0.006,0.591l5.497,5.635
	c0.273,0.7,0.419,1.418-0.161,2.004c-0.499,0.503-1.264,0.508-1.863,0.014c-0.363-0.301-0.592-0.505-0.762-0.654
	c-0.111-0.102-0.199-0.178-0.285-0.247c-0.052-0.337-0.209-1.042-0.648-1.582c-0.392-0.478-1.162-0.911-1.927-0.851
	c0.043-0.533-0.04-1.249-0.607-1.854c-0.732-0.778-1.484-0.951-2.062-0.893c0.015-0.495-0.115-1.158-0.725-1.761
	c-0.649-0.643-1.491-0.676-2.097-0.585c0.084-0.59-0.014-1.344-0.62-2.019c-0.576-0.642-1.212-0.781-1.644-0.785
	c-0.58,0.004-1.153,0.23-1.495,0.599c-0.021,0.022-0.039,0.047-0.055,0.074l-1.94,3.324l-4.092-3.938
	c-0.742-0.742-0.742-1.948,0-2.69l8.366-8.366c0.742-0.742,1.949-0.742,2.69,0l2.96,2.959l-4.448,4.448
	c-0.04,0.036-0.403,0.372-0.783,0.803c-0.112,0.128-0.313,0.487,0.262,1.043c1.058,1.023,4.137,2.293,6.91-0.307
	c0.655-0.61,1.63-1.577,2.118-2.063l7.844,7.975c0.008,0.011,0.013,0.022,0.021,0.035C27.106,18.355,27.359,18.966,26.871,19.543z
	 M30.106,14.051l-2.956,2.955l-7.883-8.015c-0.079-0.079-0.187-0.125-0.297-0.125h-0.002c-0.112,0-0.218,0.045-0.296,0.124
	c-0.016,0.015-1.506,1.512-2.395,2.34c-1.455,1.363-2.907,1.419-3.87,1.226c-1.006-0.202-1.708-0.709-1.949-0.969
	c0.302-0.328,0.566-0.57,0.57-0.573c0.002-0.002,0.003-0.005,0.005-0.007c0.003-0.003,0.006-0.003,0.008-0.006l8.008-8.006
	c0.358-0.359,0.837-0.557,1.345-0.557c0.509,0,0.985,0.198,1.346,0.557l8.365,8.366C30.848,12.103,30.848,13.309,30.106,14.051z"/>
</svg>
