<svg xmlns="http://www.w3.org/2000/svg" viewBox="-1.5 -1.5 34 34">
<g>
	<g>
		<path fill="#004385" stroke="#004385" stroke-width="0.25" d="M11.352,11.691v12.18h20.023v-12.18H11.352z M30.557,22.766H14.829
			c-0.009,0-0.015,0.004-0.023,0.004c-0.01,0-0.015-0.004-0.026-0.004h-2.61v-9.967h18.389v9.967H30.557z"/>
	</g>
	<g transform="translate(0,-952.36218)">
		<path fill="#004385" d="M15.371,975.214c-0.005,0-0.008,0.002-0.014,0.002h-0.001c-0.032,0.006-0.058,0.02-0.093,0.02
			c-0.029,0-0.051-0.01-0.075-0.016c-0.027,0.002-0.047,0.016-0.076,0.016c-0.011,0-0.018-0.006-0.028-0.006
			c-0.009,0.002-0.018,0.006-0.028,0.006c-0.064,0-0.115-0.02-0.167-0.034c-0.028,0.002-0.047,0.017-0.077,0.017
			c-0.021,0-0.035-0.012-0.056-0.013c-0.018,0.005-0.035,0.013-0.057,0.013c-0.047,0-0.083-0.014-0.122-0.024
			c-0.01,0-0.018,0.006-0.028,0.006c-0.007,0-0.012-0.004-0.019-0.004c-0.037,0.009-0.07,0.021-0.113,0.021
			c-0.039,0-0.065-0.018-0.102-0.021c-0.003,0.002-0.007,0.003-0.01,0.003c-0.011,0-0.019-0.005-0.028-0.007
			c-0.011,0-0.018,0.007-0.028,0.007c-0.021,0-0.039-0.007-0.056-0.013c-0.021,0.002-0.035,0.013-0.057,0.013
			c-0.015,0-0.026-0.009-0.04-0.009H0.756c0.314-3.295,3.163-5.887,6.704-5.887c1.51,0,2.858,0.512,3.967,1.314
			c-0.017-0.217,0.018-0.43,0.103-0.627c-0.051-0.229-0.048-0.475,0.021-0.7c-1.2-0.714-2.583-1.164-4.091-1.164
			c-4.381,0-7.96,3.423-7.96,7.651c0,0.326,0.268,0.589,0.597,0.589h14.726c0.33,0,0.597-0.263,0.597-0.589
			C15.42,975.585,15.393,975.399,15.371,975.214z"/>
		<path fill="#004385" d="M7.46,967.992c2.411,0,4.377-1.94,4.377-4.317c0-2.377-1.966-4.317-4.377-4.317s-4.378,1.94-4.378,4.317
			C3.082,966.052,5.049,967.992,7.46,967.992z M7.46,960.536c1.766,0,3.183,1.398,3.183,3.139c0,1.741-1.417,3.139-3.183,3.139
			s-3.185-1.398-3.185-3.139C4.275,961.934,5.694,960.536,7.46,960.536z"/>
	</g>
</g>
<g>
	<path fill="#004385" d="M22.591,19.716c0.099-0.181,0.163-0.382,0.196-0.588c0.061-0.39,0.008-0.798-0.163-1.129
		c-0.005-0.01-0.011-0.019-0.017-0.026c-0.117-0.219-0.276-0.393-0.479-0.521c-0.019-0.013-0.037-0.022-0.058-0.033
		c-0.122-0.071-0.276-0.142-0.465-0.21c-0.135-0.05-0.287-0.098-0.455-0.146c-0.031-0.008-0.061-0.018-0.09-0.025
		c-0.39-0.116-0.638-0.227-0.742-0.334c-0.129-0.129-0.17-0.323-0.107-0.489c0.114-0.301,0.504-0.379,0.805-0.369
		c0.168,0.006,0.336,0.053,0.465,0.154c0.053,0.043,0.098,0.095,0.133,0.15c0.037,0.059,0.066,0.123,0.09,0.189l0.508-0.101
		l0.411-0.081c-0.028-0.13-0.07-0.256-0.127-0.376c-0.084-0.179-0.2-0.341-0.358-0.471c-0.041-0.034-0.084-0.065-0.131-0.095
		c-0.163-0.104-0.348-0.172-0.539-0.216l0.1-0.764h-1.15l0.098,0.75c-0.117,0.025-0.231,0.057-0.341,0.104
		c-0.642,0.28-0.917,0.947-0.836,1.573c0.034,0.264,0.134,0.521,0.295,0.737c0.091,0.121,0.2,0.23,0.331,0.322
		c0.01,0.006,0.02,0.01,0.027,0.016c0.304,0.201,0.664,0.293,1.014,0.396c0.316,0.094,0.727,0.189,0.857,0.52
		c0.048,0.113,0.051,0.233,0.023,0.351c-0.031,0.14-0.105,0.272-0.209,0.376c-0.146,0.148-0.367,0.223-0.658,0.223
		c-0.263,0-0.48-0.096-0.644-0.25c-0.158-0.151-0.263-0.358-0.299-0.591l-0.009,0.003l-0.867,0.194
		c0.055,0.287,0.15,0.569,0.306,0.813c0.091,0.145,0.2,0.273,0.335,0.383c0.021,0.018,0.042,0.029,0.063,0.046
		c0.178,0.13,0.383,0.223,0.602,0.276l-0.088,0.68h1.15l-0.086-0.659c0.256-0.052,0.5-0.147,0.703-0.3
		C22.354,20.07,22.489,19.902,22.591,19.716L22.591,19.716z"/>
</g>
</svg>
