<?xml version="1.0" encoding="utf-8"?>
<!-- Generator: Adobe Illustrator 13.0.0, SVG Export Plug-In . SVG Version: 6.00 Build 14948)  -->
<!DOCTYPE svg PUBLIC "-//W3C//DTD SVG 1.1//EN" "http://www.w3.org/Graphics/SVG/1.1/DTD/svg11.dtd">
<svg version="1.1"
	 id="Layer_1" xmlns:dc="http://purl.org/dc/elements/1.1/" xmlns:cc="http://creativecommons.org/ns#" xmlns:rdf="http://www.w3.org/1999/02/22-rdf-syntax-ns#" xmlns:svg="http://www.w3.org/2000/svg" xmlns:inkscape="http://www.inkscape.org/namespaces/inkscape" xmlns:sodipodi="http://sodipodi.sourceforge.net/DTD/sodipodi-0.dtd"
	 xmlns="http://www.w3.org/2000/svg" xmlns:xlink="http://www.w3.org/1999/xlink" x="0px" y="0px" width="32px" height="32px"
	 viewBox="0 0 32 32" enable-background="new 0 0 32 32" xml:space="preserve">
<g>
	<g>
		<path fill="#004385" stroke="#004385" stroke-width="0.25" d="M11.352,11.691v12.18h20.023v-12.18H11.352z M30.557,22.765H14.829
			c-0.009,0-0.015,0.004-0.023,0.004c-0.01,0-0.015-0.004-0.026-0.004h-2.61v-9.966h18.388V22.765z"/>
	</g>
	<g transform="translate(0,-952.36218)">
		<path fill="#004385" d="M15.371,975.214c-0.005,0-0.008,0.002-0.014,0.002h-0.001c-0.032,0.006-0.058,0.019-0.093,0.019
			c-0.029,0-0.051-0.009-0.075-0.015c-0.027,0.001-0.047,0.015-0.076,0.015c-0.011,0-0.018-0.006-0.028-0.006
			c-0.009,0.003-0.018,0.006-0.028,0.006c-0.064,0-0.115-0.019-0.167-0.034c-0.028,0.002-0.047,0.016-0.077,0.016
			c-0.021,0-0.035-0.011-0.056-0.012c-0.018,0.005-0.035,0.012-0.057,0.012c-0.047,0-0.083-0.013-0.122-0.024
			c-0.01,0-0.018,0.006-0.028,0.006c-0.007,0-0.012-0.004-0.019-0.004c-0.037,0.009-0.07,0.022-0.113,0.022
			c-0.039,0-0.065-0.018-0.102-0.021c-0.003,0.002-0.007,0.003-0.01,0.003c-0.011,0-0.019-0.005-0.028-0.006
			c-0.011,0-0.018,0.006-0.028,0.006c-0.021,0-0.039-0.006-0.056-0.012c-0.021,0.001-0.035,0.012-0.057,0.012
			c-0.015,0-0.026-0.009-0.04-0.009H0.756c0.314-3.295,3.163-5.887,6.704-5.887c1.51,0,2.858,0.512,3.967,1.315
			c-0.017-0.217,0.018-0.43,0.103-0.627c-0.051-0.229-0.048-0.475,0.021-0.7c-1.2-0.714-2.583-1.164-4.091-1.164
			c-4.381,0-7.96,3.423-7.96,7.651c0,0.326,0.268,0.589,0.597,0.589h14.726c0.33,0,0.597-0.263,0.597-0.589
			C15.42,975.585,15.393,975.399,15.371,975.214z"/>
		<path fill="#004385" d="M7.46,967.992c2.411,0,4.377-1.94,4.377-4.317s-1.966-4.317-4.377-4.317c-2.411,0-4.378,1.94-4.378,4.317
			S5.049,967.992,7.46,967.992z M7.46,960.536c1.766,0,3.183,1.398,3.183,3.139s-1.417,3.139-3.183,3.139
			c-1.766,0-3.185-1.398-3.185-3.139S5.694,960.536,7.46,960.536z"/>
	</g>
</g>
<g>
	<path fill="#004385" d="M22.591,19.716c0.099-0.181,0.163-0.382,0.196-0.588c0.061-0.39,0.008-0.798-0.163-1.129
		c-0.005-0.01-0.011-0.018-0.016-0.026c-0.118-0.219-0.277-0.393-0.48-0.521c-0.018-0.012-0.037-0.022-0.057-0.033
		c-0.123-0.071-0.277-0.142-0.465-0.21c-0.136-0.05-0.287-0.098-0.456-0.146c-0.031-0.009-0.06-0.018-0.089-0.026
		c-0.39-0.116-0.638-0.227-0.743-0.334c-0.128-0.129-0.17-0.323-0.107-0.489c0.114-0.301,0.504-0.379,0.804-0.369
		c0.168,0.006,0.337,0.053,0.465,0.154c0.053,0.043,0.098,0.095,0.133,0.15c0.038,0.059,0.067,0.123,0.09,0.189l0.508-0.101
		l0.411-0.081c-0.028-0.13-0.07-0.256-0.127-0.376c-0.084-0.179-0.2-0.341-0.358-0.471c-0.041-0.034-0.084-0.065-0.131-0.095
		c-0.163-0.104-0.348-0.172-0.539-0.216l0.099-0.764h-1.15l0.097,0.75c-0.116,0.025-0.231,0.057-0.34,0.104
		c-0.642,0.28-0.917,0.947-0.836,1.573c0.034,0.264,0.133,0.52,0.295,0.737c0.091,0.121,0.2,0.231,0.331,0.322
		c0.01,0.006,0.02,0.011,0.027,0.017c0.304,0.2,0.664,0.293,1.014,0.396c0.317,0.094,0.726,0.189,0.858,0.519
		c0.047,0.114,0.05,0.234,0.023,0.351c-0.031,0.14-0.105,0.272-0.209,0.376c-0.147,0.148-0.367,0.223-0.658,0.223
		c-0.263,0-0.481-0.096-0.644-0.251c-0.158-0.151-0.262-0.358-0.299-0.59l-0.008,0.002l-0.868,0.195
		c0.055,0.287,0.15,0.57,0.306,0.814c0.09,0.144,0.2,0.273,0.335,0.383c0.021,0.017,0.042,0.029,0.062,0.045
		c0.178,0.13,0.383,0.223,0.602,0.276l-0.088,0.68h1.15l-0.085-0.659c0.255-0.051,0.499-0.147,0.703-0.3
		C22.354,20.07,22.489,19.903,22.591,19.716L22.591,19.716z"/>
</g>
</svg>
