<svg xmlns="http://www.w3.org/2000/svg" viewBox="-1.5 -1.5 34 34">
<g transform="translate(0,-952.36218)">
	<path fill="#004385" d="M12.656,951.861c-0.38,0.003-0.612,0.312-0.689,0.545l-0.889,3.833c-0.227,0.085-0.446,0.179-0.667,0.278
		l-3.333-2.089c-0.27-0.168-0.654-0.125-0.877,0.1l-4.023,4.022c-0.229,0.227-0.274,0.617-0.101,0.888l2.078,3.334
		c-0.098,0.219-0.193,0.442-0.278,0.667l-3.822,0.877c-0.313,0.071-0.557,0.377-0.555,0.7v5.689
		c0.003,0.317,0.244,0.619,0.555,0.688l3.822,0.877c0.087,0.229,0.19,0.457,0.289,0.679l-2.089,3.334
		c-0.167,0.271-0.124,0.651,0.101,0.878l4.023,4.023c0.224,0.224,0.607,0.267,0.877,0.099l3.333-2.089
		c0.221,0.099,0.441,0.191,0.667,0.277l0.889,3.834c0.07,0.311,0.37,0.554,0.689,0.556h5.689c0.317-0.005,0.618-0.245,0.688-0.556
		l0.889-3.834c0.227-0.086,0.447-0.18,0.667-0.277l3.334,2.089c0.269,0.168,0.652,0.125,0.877-0.099l4.022-4.023
		c0.226-0.227,0.269-0.607,0.101-0.878l-2.089-3.334c0.102-0.222,0.202-0.448,0.289-0.679l3.822-0.877
		c0.311-0.069,0.554-0.371,0.555-0.688v-5.689c0.004-0.323-0.241-0.629-0.555-0.7l-3.822-0.877
		c-0.086-0.225-0.182-0.449-0.277-0.667l2.077-3.334c0.175-0.271,0.13-0.662-0.101-0.888l-4.022-4.022
		c-0.225-0.225-0.608-0.269-0.877-0.1l-3.334,2.089c-0.22-0.099-0.44-0.193-0.667-0.278l-0.889-3.833
		c-0.074-0.307-0.373-0.544-0.688-0.545H12.656L12.656,951.861z M13.212,953.284h4.578l0.832,3.634
		c0.054,0.232,0.229,0.432,0.456,0.512c0.434,0.149,0.861,0.323,1.268,0.522c0.215,0.106,0.483,0.092,0.688-0.034l3.166-1.978
		l3.223,3.223l-1.978,3.166c-0.129,0.205-0.141,0.475-0.034,0.689c0.198,0.406,0.362,0.822,0.512,1.256
		c0.078,0.23,0.283,0.415,0.521,0.466l3.635,0.833v4.566l-3.635,0.834c-0.237,0.053-0.442,0.235-0.521,0.467
		c-0.149,0.435-0.313,0.852-0.512,1.256c-0.11,0.218-0.097,0.492,0.034,0.701l1.978,3.156l-3.223,3.221l-3.166-1.978
		c-0.205-0.127-0.476-0.14-0.688-0.034c-0.404,0.198-0.834,0.373-1.268,0.522c-0.227,0.08-0.402,0.278-0.456,0.511l-0.845,3.645
		h-4.555l-0.845-3.645c-0.053-0.23-0.23-0.431-0.456-0.511c-0.434-0.149-0.861-0.324-1.266-0.522
		c-0.216-0.104-0.485-0.093-0.689,0.034L6.8,979.774l-3.223-3.223l1.978-3.156c0.13-0.207,0.144-0.482,0.034-0.699
		c-0.198-0.405-0.362-0.822-0.511-1.256c-0.079-0.231-0.284-0.415-0.522-0.467l-3.634-0.834v-4.567l3.634-0.833
		c0.239-0.051,0.444-0.236,0.522-0.466c0.149-0.434,0.313-0.851,0.511-1.256c0.106-0.214,0.094-0.484-0.034-0.689l-1.978-3.166
		l3.223-3.223l3.167,1.978c0.204,0.126,0.473,0.14,0.688,0.034c0.406-0.199,0.833-0.373,1.267-0.522
		c0.225-0.08,0.403-0.28,0.456-0.512L13.212,953.284z M15.5,960.04c-4.312,0-7.822,3.51-7.822,7.822c0,4.313,3.51,7.822,7.822,7.822
		c4.313,0,7.822-3.512,7.822-7.822C23.322,963.55,19.813,960.04,15.5,960.04L15.5,960.04z M15.5,961.461
		c3.543,0,6.398,2.858,6.398,6.401s-2.855,6.4-6.398,6.4s-6.399-2.857-6.399-6.4S11.957,961.461,15.5,961.461z"/>
</g>
</svg>
