<svg xmlns="http://www.w3.org/2000/svg" viewBox="-1.5 -1.5 34 34">
<g>
	<path fill="#004385" d="M25.807,12.317H10.936V7.919c0-2.513,2.053-4.565,4.565-4.565c2.515,0,4.563,2.053,4.563,4.565
		c0,1.047,0.879,1.927,1.928,1.927c1.048,0,1.927-0.88,1.927-1.927c0-4.649-3.771-8.419-8.418-8.419
		c-4.649,0-8.418,3.77-8.418,8.419v4.398H5.197c-1.048,0-1.927,0.879-1.927,1.926v15.33c0,1.047,0.879,1.927,1.927,1.927h20.608
		c1.047,0,1.924-0.88,1.924-1.927v-15.33C27.729,13.155,26.854,12.317,25.807,12.317z M25.428,28.232
		c0,0.543-0.419,0.963-0.964,0.963H6.539c-0.545,0-0.964-0.42-0.964-0.963V15.583c0-0.544,0.418-0.963,0.964-0.963h17.925
		c0.545,0,0.964,0.418,0.964,0.963V28.232z"/>
	<g>
		<path fill="#004385" d="M16.591,25.721H14.37c-0.461,0-0.837-0.378-0.837-0.838v-5.99c0-0.461,0.376-0.838,0.837-0.838h2.221
			c0.461,0,0.837,0.377,0.837,0.838v5.99C17.428,25.343,17.052,25.721,16.591,25.721z"/>
	</g>
</g>
</svg>
