<?xml version="1.0" encoding="utf-8"?>
<!-- Generator: Adobe Illustrator 13.0.0, SVG Export Plug-In . SVG Version: 6.00 Build 14948)  -->
<!DOCTYPE svg PUBLIC "-//W3C//DTD SVG 1.1//EN" "http://www.w3.org/Graphics/SVG/1.1/DTD/svg11.dtd">
<svg version="1.1" id="Sign_Out" xmlns="http://www.w3.org/2000/svg" xmlns:xlink="http://www.w3.org/1999/xlink" x="0px" y="0px"
	 width="32px" height="32px" viewBox="0 0 32 32" enable-background="new 0 0 32 32" xml:space="preserve">
<g>
	<path fill="#004385" d="M25.805,12.317h-14.87V7.919c0-2.513,2.053-4.565,4.565-4.565c2.514,0,4.565,2.053,4.565,4.565
		c0,1.047,0.879,1.927,1.926,1.927c1.048,0,1.927-0.88,1.927-1.927c0-4.649-3.77-8.419-8.418-8.419c-4.649,0-8.418,3.77-8.418,8.419
		v4.398H5.197c-1.048,0-1.927,0.879-1.927,1.926v15.33c0,1.047,0.879,1.927,1.927,1.927h20.607c1.047,0,1.925-0.88,1.925-1.927
		v-15.33C27.729,13.155,26.852,12.317,25.805,12.317z M25.427,28.233c0,0.543-0.419,0.963-0.964,0.963H6.538
		c-0.545,0-0.964-0.42-0.964-0.963v-12.65c0-0.544,0.418-0.963,0.964-0.963h17.925c0.545,0,0.964,0.418,0.964,0.963V28.233z"/>
	<g>
		<path fill="#004385" d="M16.59,25.72h-2.221c-0.461,0-0.837-0.377-0.837-0.837v-5.991c0-0.46,0.376-0.837,0.837-0.837h2.221
			c0.461,0,0.837,0.377,0.837,0.837v5.991C17.427,25.343,17.051,25.72,16.59,25.72z"/>
	</g>
</g>
</svg>
