<svg xmlns="http://www.w3.org/2000/svg" viewBox="-1.431 -3.697 34 34">
<g>
	<g id="Group_2539" transform="translate(-22412 -17243)">
		<g id="Group_2537" transform="translate(15 23)">
			<path id="Path_2798" fill="#004385" stroke="#004385" d="M22427.57,17219.998h-30.004c-0.293-0.018-0.547,0.207-0.566,0.502
				c0,0.021,0,0.043,0,0.064v19.813c-0.016,0.295,0.207,0.549,0.504,0.564c0.02,0.004,0.043,0.004,0.063,0h14.152v4.531h-7.98
				c-0.313,0-0.566,0.254-0.566,0.566s0.254,0.566,0.566,0.566h17.096c0.313,0,0.564-0.254,0.564-0.566s-0.252-0.566-0.564-0.566
				h-7.982v-4.531h14.719c0.295,0.02,0.547-0.207,0.566-0.5c0-0.021,0-0.043,0-0.064v-19.813c0.018-0.295-0.207-0.549-0.504-0.566
				C22427.613,17219.996,22427.59,17219.996,22427.57,17219.998z M22427.004,17239.811h-28.871v-18.682h28.871V17239.811z"/>
		</g>
	</g>
	<g transform="translate(0,-952.36218)">
		<path fill="#004385" d="M3.394,955.891v13.589c0,0.147,0.134,0.284,0.283,0.284h23.782c0.147,0,0.283-0.137,0.283-0.284v-13.589
			c0-0.148-0.136-0.283-0.283-0.283H3.677C3.491,955.612,3.396,955.769,3.394,955.891z M3.959,956.175h23.216v13.021H3.959V956.175z
			"/>
	</g>
	<rect x="7.358" y="6.346" fill="#004385" width="16.375" height="3.875"/>
	<rect x="5.358" y="13.013" fill="#004385" width="20.667" height="0.75"/>
</g>
</svg>
