<?xml version="1.0" encoding="utf-8"?>
<!-- Generator: Adobe Illustrator 13.0.0, SVG Export Plug-In . SVG Version: 6.00 Build 14948)  -->
<!DOCTYPE svg PUBLIC "-//W3C//DTD SVG 1.1//EN" "http://www.w3.org/Graphics/SVG/1.1/DTD/svg11.dtd">
<svg version="1.1"
	 id="Layer_1" xmlns:dc="http://purl.org/dc/elements/1.1/" xmlns:cc="http://creativecommons.org/ns#" xmlns:rdf="http://www.w3.org/1999/02/22-rdf-syntax-ns#" xmlns:svg="http://www.w3.org/2000/svg" xmlns:inkscape="http://www.inkscape.org/namespaces/inkscape" xmlns:sodipodi="http://sodipodi.sourceforge.net/DTD/sodipodi-0.dtd"
	 xmlns="http://www.w3.org/2000/svg" xmlns:xlink="http://www.w3.org/1999/xlink" x="0px" y="0px" width="32px" height="32px"
	 viewBox="0 0 32 32" enable-background="new 0 0 32 32" xml:space="preserve">
<g>
	<g>
		<path fill="#004385" stroke="#004385" stroke-width="0.25" d="M11.355,11.418v12.171h20.007V11.418H11.355z M30.545,22.482H14.829
			c-0.009,0-0.015,0.005-0.023,0.005c-0.011,0-0.015-0.005-0.025-0.005h-2.609v-9.957h18.374V22.482z"/>
	</g>
	<g transform="translate(0,-952.36218)">
		<path fill="#004385" d="M15.37,974.932c-0.004,0-0.008,0.003-0.014,0.003h-0.001c-0.032,0.006-0.058,0.019-0.093,0.019
			c-0.029,0-0.051-0.01-0.075-0.016c-0.027,0.001-0.047,0.016-0.075,0.016c-0.011,0-0.018-0.006-0.028-0.006
			c-0.01,0.002-0.018,0.006-0.028,0.006c-0.064,0-0.115-0.019-0.168-0.034c-0.028,0.001-0.047,0.016-0.076,0.016
			c-0.021,0-0.035-0.011-0.057-0.012c-0.018,0.004-0.035,0.012-0.056,0.012c-0.047,0-0.084-0.014-0.122-0.025
			c-0.011,0-0.018,0.006-0.028,0.006c-0.007,0-0.012-0.003-0.019-0.003c-0.037,0.008-0.069,0.022-0.113,0.022
			c-0.038,0-0.065-0.018-0.102-0.021c-0.004,0.001-0.008,0.002-0.011,0.002c-0.011,0-0.019-0.004-0.028-0.006
			c-0.011,0-0.018,0.006-0.028,0.006c-0.021,0-0.039-0.006-0.057-0.012c-0.021,0.002-0.035,0.012-0.056,0.012
			c-0.016,0-0.026-0.008-0.04-0.008H0.768c0.313-3.292,3.161-5.883,6.699-5.883c1.509,0,2.856,0.512,3.964,1.315
			c-0.017-0.218,0.018-0.43,0.103-0.627c-0.051-0.229-0.048-0.475,0.021-0.699c-1.199-0.714-2.581-1.164-4.088-1.164
			c-4.377,0-7.954,3.42-7.954,7.646c0,0.325,0.267,0.589,0.596,0.589h14.714c0.329,0,0.597-0.264,0.597-0.589
			C15.42,975.303,15.393,975.117,15.37,974.932z"/>
		<path fill="#004385" d="M7.466,968.267c2.409,0,4.374-1.938,4.374-4.313s-1.965-4.313-4.374-4.313
			c-2.409,0-4.375,1.938-4.375,4.313S5.057,968.267,7.466,968.267z M7.466,960.817c1.764,0,3.181,1.397,3.181,3.137
			s-1.417,3.137-3.181,3.137c-1.765,0-3.182-1.397-3.182-3.137S5.702,960.817,7.466,960.817z"/>
	</g>
	<text transform="matrix(1 0 0 1 16.585 19.3281)" fill="#004385" font-family="'Arial-BoldMT'" font-size="4.8093">VRT</text>
</g>
</svg>
