<svg xmlns="http://www.w3.org/2000/svg" width="111" height="75" viewBox="0 0 111 75">
    <g fill="none">
        <g transform="translate(-939 -972)translate(0 811)translate(380 161)translate(559 0)">
            <path d="M40.2 65.2L40.2 69.1 70.8 69.1 70.8 65.2 103.3 65.2 103.3 4C103.3 1.9 101.6 0.2 99.5 0.2L11.5 0.2C9.4 0.2 7.7 1.9 7.7 4L7.7 65.2 40.2 65.2Z" fill="#013365"/>
            <path d="M70.8 65.2L70.8 69.1 40.2 69.1 40.2 65.2 0 65.2 0 71C0 73.1 1.7 74.8 3.8 74.8L107.2 74.8C109.3 74.8 111 73.1 111 71L111 65.2 70.8 65.2Z" fill="#004385"/>
            <polygon points="11.5 61.4 99.5 61.4 99.5 4 11.5 4" fill="#FFF"/>
            <g fill="#668DB5">
                <path d="M63.1 57.6C62.1 57.6 61.2 56.7 61.2 55.7L61.2 49.9C61.2 48.9 62.1 48 63.1 48 64.2 48 65.1 48.9 65.1 49.9L65.1 55.7C65.1 56.7 64.2 57.6 63.1 57.6"/>
                <path d="M70.8 57.6C69.7 57.6 68.9 56.7 68.9 55.7L68.9 42.3C68.9 41.2 69.7 40.4 70.8 40.4 71.9 40.4 72.7 41.2 72.7 42.3L72.7 55.7C72.7 56.7 71.9 57.6 70.8 57.6"/>
                <path d="M78.5 57.6C77.4 57.6 76.5 56.7 76.5 55.7L76.5 46.1C76.5 45.1 77.4 44.2 78.5 44.2 79.5 44.2 80.4 45.1 80.4 46.1L80.4 55.7C80.4 56.7 79.5 57.6 78.5 57.6"/>
                <path d="M86.1 57.6C85 57.6 84.2 56.7 84.2 55.7L84.2 32.7C84.2 31.7 85 30.8 86.1 30.8 87.2 30.8 88 31.7 88 32.7L88 55.7C88 56.7 87.2 57.6 86.1 57.6"/>
                <path d="M93.8 57.6C92.7 57.6 91.8 56.7 91.8 55.7L91.8 40.4C91.8 39.3 92.7 38.5 93.8 38.5 94.8 38.5 95.7 39.3 95.7 40.4L95.7 55.7C95.7 56.7 94.8 57.6 93.8 57.6"/>
            </g>
            <path d="M55.5 29.8C55.5 40.9 46.5 49.9 35.4 49.9 24.3 49.9 15.3 40.9 15.3 29.8 15.3 18.7 24.3 9.8 35.4 9.8 46.5 9.8 55.5 18.7 55.5 29.8" fill="#4699C7"/>
            <path d="M34.5 9.8C34.5 9.8 34.5 9.8 34.4 9.8L34.4 30.7C34.4 30.8 34.5 30.8 34.5 30.8L55.4 30.8C55.5 30.8 55.5 30.8 55.5 30.8 56 18.9 46.3 9.2 34.5 9.8" fill="#92E8E9"/>
            <g fill="#8D6FC8">
                <path d="M84.2 21.2L68.9 21.2C67.8 21.2 67 20.4 67 19.3 67 18.3 67.8 17.4 68.9 17.4L84.2 17.4C85.3 17.4 86.1 18.3 86.1 19.3 86.1 20.4 85.3 21.2 84.2 21.2"/>
                <path d="M93.8 21.2C93.3 21.2 92.8 21 92.4 20.7 92.3 20.6 92.2 20.5 92.2 20.4 92.1 20.3 92 20.2 92 20 91.9 19.9 91.9 19.8 91.9 19.7 91.9 19.6 91.8 19.4 91.8 19.3 91.8 19.1 91.9 18.8 92 18.6 92.1 18.4 92.2 18.2 92.4 18 93.1 17.3 94.4 17.3 95.1 18 95.3 18.2 95.4 18.3 95.5 18.6 95.6 18.8 95.7 19.1 95.7 19.3 95.7 19.8 95.5 20.3 95.1 20.7 94.8 21 94.3 21.2 93.8 21.2"/>
                <path d="M93.8 11.7L88 11.7C87 11.7 86.1 10.8 86.1 9.8 86.1 8.7 87 7.8 88 7.8L93.8 7.8C94.8 7.8 95.7 8.7 95.7 9.8 95.7 10.8 94.8 11.7 93.8 11.7"/>
                <path d="M72.7 11.7L68.9 11.7C67.8 11.7 67 10.8 67 9.8 67 8.7 67.8 7.8 68.9 7.8L72.7 7.8C73.8 7.8 74.6 8.7 74.6 9.8 74.6 10.8 73.8 11.7 72.7 11.7"/>
                <path d="M80.4 11.7C80.1 11.7 79.9 11.6 79.6 11.5 79.4 11.4 79.2 11.3 79 11.1 78.8 10.9 78.7 10.7 78.6 10.5 78.5 10.3 78.5 10 78.5 9.8 78.5 9.5 78.5 9.3 78.6 9 78.7 8.8 78.8 8.6 79 8.4 79.2 8.2 79.4 8.1 79.6 8 80.3 7.7 81.2 7.9 81.7 8.4 81.9 8.6 82 8.8 82.1 9 82.2 9.3 82.3 9.5 82.3 9.8 82.3 10 82.2 10.3 82.1 10.5 82 10.7 81.9 10.9 81.7 11.1 81.4 11.5 80.9 11.7 80.4 11.7"/>
            </g>
        </g>
    </g>
</svg>