<svg xmlns="http://www.w3.org/2000/svg" width="59" height="75" viewBox="0 0 59 75">
    <style>
        .a{
        fill:#8D6FC8;
        }
    </style>
    <g fill="none">
        <path d="M55.1 1.2L3.5 1.2C1.6 1.2 0 2.7 0 4.7L0 71.5C0 73.4 1.6 75 3.5 75L55.1 75C57 75 58.6 73.4 58.6 71.5L58.6 4.7C58.6 2.7 57 1.2 55.1 1.2Z" fill="#92E8E9"/>
        <path d="M5.8 1.2L3.5 1.2C1.6 1.2 0 2.7 0 4.7L0 71.5C0 73.4 1.6 75 3.5 75L5.8 75 5.8 1.2Z" fill="#013365"/>
        <path d="M50.4 0L38.7 0C38 0 37.5 0.5 37.5 1.2L37.5 18.7C37.5 19.2 37.7 19.6 38.1 19.8 38.5 20 38.9 20 39.3 19.8L44.5 16.6 49.8 19.8C50 19.9 50.2 19.9 50.4 19.9 50.6 19.9 50.8 19.9 51 19.8 51.3 19.6 51.6 19.2 51.6 18.7L51.6 1.2C51.6 0.5 51 0 50.4 0Z" class="a"/>
        <path d="M5.9 70.3C5.2 70.3 4.7 69.8 4.7 69.1L4.7 7C4.7 6.4 5.2 5.9 5.9 5.9 6.5 5.9 7 6.4 7 7L7 69.1C7 69.8 6.5 70.3 5.9 70.3Z" class="a"/>
        <path d="M43.9 50.4L43.8 50.4C43.8 50.4 43.8 50.3 43.8 50.3L37.2 29.3C38 29.1 38.6 28.4 38.6 27.5 38.6 26.6 37.9 25.8 36.9 25.8L27.5 25.8C26.5 25.8 25.7 26.6 25.7 27.5 25.7 28.4 26.4 29.1 27.2 29.3L20.6 50.3C20.6 50.3 20.6 50.4 20.6 50.4L20.5 50.4C19.5 50.4 18.7 51.2 18.7 52.1 18.7 53.1 19.5 53.9 20.5 53.9L25.2 53.9C26.1 53.9 26.9 53.1 26.9 52.1 26.9 51.3 26.3 50.6 25.5 50.4L26.8 46.3 37.6 46.3 38.9 50.4C38.1 50.6 37.5 51.3 37.5 52.1 37.5 53.1 38.3 53.9 39.2 53.9L43.9 53.9C44.9 53.9 45.7 53.1 45.7 52.1 45.7 51.2 44.9 50.4 43.9 50.4ZM28.2 41.6L32.1 29.4C32.1 29.4 32.1 29.3 32.1 29.3L32.3 29.3C32.3 29.3 32.3 29.4 32.3 29.4L36.2 41.6 28.2 41.6Z" fill="#4699C7"/>
    </g>
</svg>