<svg viewBox="0 0 154 160" xmlns="http://www.w3.org/2000/svg"><title>Transfer</title><g fill="none" fill-rule="evenodd"><path d="M147.251 150.415c-.028-.593-.786-.817-1.128-.33-.722 1.023-1.687 2.36-2.477 3.353-33.393-30.838-69.072-39.474-93.29-41.242-19.411-1.417-34.73 1.231-41.709 2.801a4.345 4.345 0 0 0-5.883-1.579 4.393 4.393 0 0 0-1.67 5.967 4.35 4.35 0 0 0 5.942 1.663 4.38 4.38 0 0 0 2.213-3.624c6.824-1.533 21.89-4.135 41.028-2.724 23.78 1.753 58.81 10.255 91.628 40.534-.988.825-2.393 1.872-3.453 2.645-.48.35-.247 1.106.345 1.127l8.208.3a.627.627 0 0 0 .646-.658l-.4-8.233z" fill="#000"/><path fill="#FFF" d="M54.371 101.203l55.058 14.753-6.988 26.08-55.058-14.753z"/><path d="M150.345 71.043c-.23-.548-1.018-.499-1.173.075-.329 1.209-.778 2.796-1.181 3.999-41.926-17.557-78.407-13.47-101.769-6.849-18.726 5.308-32.215 13.037-38.236 16.899a4.345 4.345 0 0 0-6.068.528 4.393 4.393 0 0 0 .471 6.178 4.35 4.35 0 0 0 6.153-.47 4.38 4.38 0 0 0 .84-4.162C15.27 83.466 28.536 75.87 47.003 70.65c22.945-6.486 58.771-10.477 99.965 6.751-.646 1.113-1.608 2.578-2.34 3.666-.33.493.146 1.125.71.942l7.816-2.526a.627.627 0 0 0 .382-.839l-3.192-7.6z" fill="#000"/><path fill="#FFF" d="M48 54h57v27H48z"/><g><path d="M140.633 5.15c-.363-.47-1.113-.219-1.114.376-.004 1.252-.027 2.902-.105 4.168C94.372 3.587 60.192 16.977 39.34 29.418c-16.714 9.974-27.743 20.93-32.56 26.22a4.345 4.345 0 0 0-5.725 2.08 4.393 4.393 0 0 0 2.055 5.845 4.35 4.35 0 0 0 5.821-2.045 4.38 4.38 0 0 0-.266-4.238c4.71-5.17 15.56-15.943 32.046-25.764 20.485-12.204 54.057-25.332 98.307-19.352-.336 1.241-.886 2.906-1.312 4.146-.192.562.432 1.049.93.727l6.895-4.463c.306-.2.377-.62.152-.91l-5.05-6.515z" fill="#000"/><path fill="#FFF" d="M37.364 15.176L92.422.423l6.988 26.08-55.057 14.753z"/></g></g></svg>