<svg xmlns="http://www.w3.org/2000/svg" xmlns:xlink="http://www.w3.org/1999/xlink" viewBox="0 0 20 30">
    <defs>
        <path id="a" d="M13.93 14.17c3.86-1.069 5.142-7.963 5.197-8.265a.643.643 0 0 0-.407-.715l-3.984-1.502C14.18 1.275 12.404 0 9.568 0 6.733 0 4.955 1.275 4.401 3.688L.417 5.19a.644.644 0 0 0-.407.715c.054.302 1.337 7.197 5.197 8.265.807 1.892 2.113 3.625 3.718 4.001v5.019H5.687a.644.644 0 0 0-.643.643v2.119H3.133a.644.644 0 0 0-.644.643v2.762c0 .355.288.643.644.643h12.871a.644.644 0 0 0 .644-.643v-2.762a.644.644 0 0 0-.644-.643h-1.91v-2.119a.644.644 0 0 0-.644-.643h-3.238V18.17c1.605-.376 2.911-2.11 3.718-4.001zm1.431 14.543H3.776v-1.475H15.36v1.475zm-2.554-2.761H6.33v-1.476h6.477v1.476zm1.707-13.483c.2-.769.309-1.503.309-2.12V5.094l2.93 1.105c-.4 1.778-1.466 4.988-3.24 6.269zM9.568 1.287c2.02 0 3.267.733 3.787 2.235H5.782c.52-1.502 1.766-2.235 3.786-2.235zM1.384 6.2l2.93-1.105v5.253c0 .618.108 1.353.31 2.121-1.774-1.28-2.84-4.49-3.24-6.269zm4.93 7.274a.625.625 0 0 0-.065-.161c-.403-1.033-.648-2.108-.648-2.965v-5.54h7.935v5.54c0 .857-.244 1.93-.648 2.963a.638.638 0 0 0-.065.165c-.75 1.832-1.992 3.487-3.255 3.487-1.262 0-2.505-1.656-3.255-3.489z"/>
    </defs>
    <g fill="none" fill-rule="nonzero">
        <use fill="#004385" fill-rule="evenodd" xlink:href="#a"/>
        <path stroke="#004385" stroke-width=".5" d="M13.863 13.929l-.163.143c-.88 2.062-2.168 3.533-3.545 3.856l-.193.045v5.467h3.488c.217 0 .393.176.393.393v2.369h2.161c.217 0 .394.176.394.393v2.762a.394.394 0 0 1-.394.393H3.133a.394.394 0 0 1-.394-.393v-2.762c0-.217.177-.393.394-.393h2.16v-2.369c0-.217.177-.393.394-.393h3.488v-5.467l-.193-.045c-1.377-.323-2.666-1.794-3.545-3.857l-.164-.142c-1.603-.444-2.885-1.992-3.862-4.277A18.346 18.346 0 0 1 .256 5.86a.394.394 0 0 1 .249-.438l3.984-1.502.125-.047.03-.13C5.172 1.447 6.848.25 9.568.25s4.396 1.197 4.924 3.494l.03.13 4.11 1.55c.178.066.282.25.249.437a18.35 18.35 0 0 1-1.156 3.79c-.976 2.286-2.259 3.834-3.862 4.278zm1.748 15.034H3.526v-1.975H15.61v1.975zm-2.554-2.761H6.08v-1.976h6.977v1.976zm1.215-13.797c.196-.752.3-1.465.3-2.057V4.733l3.473 1.31-.048.212c-.607 2.692-1.791 5.3-3.337 6.416l-.565.408.177-.674zM9.568 1.037c2.121 0 3.466.792 4.024 2.403l.115.332H5.43l.115-.332c.558-1.61 1.902-2.403 4.023-2.403zM1.092 6.043l3.472-1.31v5.615c0 .593.104 1.306.301 2.058l.176.674-.564-.408c-1.546-1.116-2.73-3.724-3.337-6.417l-.048-.212zm4.99 7.526l-.012-.039a.553.553 0 0 0-.054-.126c-.422-1.081-.665-2.181-.665-3.056v-5.79h8.435v5.79c0 .875-.243 1.974-.678 3.083a.58.58 0 0 0-.054.14c-.874 2.137-2.19 3.642-3.486 3.642-1.295 0-2.612-1.506-3.486-3.644z"/>
    </g>
</svg>
