<svg xmlns="http://www.w3.org/2000/svg" viewBox="0 0 30 30">
    <g fill="none" fill-rule="evenodd">
        <path fill="#FFF" d="M30 15c0 8.284-6.716 15-15 15-8.284 0-15-6.716-15-15C0 6.716 6.716 0 15 0c8.284 0 15 6.716 15 15"/>
        <path fill="#004385" fill-rule="nonzero" d="M17.643 13h-.384v-.852h.384c.224 0 .38.014.466.042a.377.377 0 0 1 .199.139.405.405 0 0 1 .068.235.394.394 0 0 1-.072.235.433.433 0 0 1-.217.151c-.095.034-.243.05-.444.05zm.512.571a1.325 1.325 0 0 0-.443-.055h-.453v.757c.002.107.007.17.013.188a.08.08 0 0 0 .042.05c.02.008.072.014.156.014h.255c.148 0 .272-.015.37-.043a.492.492 0 0 0 .351-.484.464.464 0 0 0-.073-.264.433.433 0 0 0-.218-.163zm3.692-.237a4.18 4.18 0 1 1-8.362 0 4.18 4.18 0 0 1 8.362 0zm-2.494.755a.834.834 0 0 0-.11-.423.788.788 0 0 0-.297-.294 1.491 1.491 0 0 0-.377-.138c.152-.052.276-.118.368-.197a.833.833 0 0 0 .214-.274.76.76 0 0 0-.066-.767.885.885 0 0 0-.4-.305 1.273 1.273 0 0 0-.235-.065v-.617h-.593v.575h-.38v-.575h-.592v.575h-.904v.484h.139c.092 0 .154.008.187.025.032.017.056.04.07.068.012.028.019.095.019.198v1.95a.61.61 0 0 1-.02.198.142.142 0 0 1-.07.067.477.477 0 0 1-.186.024h-.139v.484h.904v.575h.592v-.575h.38v.575h.593v-.624a1.4 1.4 0 0 0 .262-.074c.205-.082.363-.2.474-.357a.871.871 0 0 0 .167-.513zM23 13.334a5.336 5.336 0 0 1-4.61 5.28L14.597 21.7a.203.203 0 0 1-.32-.223l1.13-3.313a5.325 5.325 0 0 1-.834-.49c-.214.147-.436.28-.678.384L13 21.037l-1.29-2.677a4.237 4.237 0 0 1 .529-8.44c.416 0 .817.066 1.197.18a5.322 5.322 0 0 1 4.23-2.1A5.34 5.34 0 0 1 23 13.334zm-.405 0a4.934 4.934 0 0 0-4.929-4.929 4.934 4.934 0 0 0-4.927 4.929c0 1.98 1.177 3.76 3 4.536a.202.202 0 0 1 .112.251l-.962 2.819 3.288-2.678a.199.199 0 0 1 .103-.043 4.93 4.93 0 0 0 4.315-4.885z"/>
    </g>
</svg>
