<svg viewBox="0 0 54 52" version="1.1" xmlns="http://www.w3.org/2000/svg">
    <g id="ICO" stroke="none" stroke-width="1" fill="none" fill-rule="evenodd">
        <g id="ChampionFX-ICO" transform="translate(-327.000000, -2080.000000)" stroke="#FFFFFF" fill-rule="nonzero" fill="#FFFFFF">
            <g id="Who-is-behind-ChampionFX" transform="translate(0.000000, 1860.000000)">
                <path d="M371.377804,250.956846 C376.820406,244.851833 377.4592,235.839706 372.93223,229.026968 C368.40526,222.21423 359.85366,219.318198 352.122984,221.979838 C344.392309,224.641477 339.431265,232.189857 340.050906,240.347872 C340.670548,248.505888 346.714679,255.21711 354.758541,256.67879 C355.836558,256.874995 356.930062,256.973484 358.025762,256.973061 C360.235274,256.973355 362.425459,256.561231 364.483968,255.757829 L368.192264,264.139115 C368.915204,265.788388 370.34081,267.024977 372.074812,267.506887 C372.259954,267.561382 372.450542,267.604978 372.619348,267.637675 C372.97871,267.702911 373.343196,267.735739 373.708422,267.735765 C376.156271,267.726279 378.356259,266.238921 379.278732,263.969813 C380.201206,261.700706 379.663664,259.098767 377.917692,257.381772 L371.377804,250.956846 Z M355.243179,253.997651 C347.470777,252.602213 342.049089,245.498948 342.74843,237.627563 C343.44777,229.756177 350.036701,223.721615 357.933191,223.720394 C358.855478,223.721404 359.775811,223.805299 360.683101,223.971069 C366.762531,225.059134 371.585626,229.70988 372.897815,235.749302 C374.210003,241.788725 371.752079,248.023806 366.673006,251.539939 L366.673006,251.539939 C363.345123,253.856636 359.228249,254.741871 355.243179,253.997651 Z M376.997424,261.970226 C376.918579,262.898809 376.45261,263.751229 375.713765,264.318484 C374.974919,264.885739 374.031521,265.115374 373.114877,264.951086 C373.011415,264.951086 372.907953,264.90749 372.804491,264.880243 C371.852466,264.615348 371.069162,263.93744 370.669907,263.032872 L366.934384,254.575294 C367.370014,254.324619 367.794752,254.057595 368.2086,253.768773 L368.2086,253.768773 C368.627894,253.474501 369.030851,253.163882 369.417472,252.842363 L376.011813,259.321783 C376.72029,260.012209 377.08202,260.984214 376.997424,261.970226 L376.997424,261.970226 Z M361.450898,260.711398 C360.69905,260.711398 360.089556,261.321351 360.089556,262.073766 L360.089556,267.250762 C360.089556,267.523922 359.981126,267.785894 359.788118,267.979047 C359.59511,268.1722 359.333336,268.280712 359.060382,268.280712 L342.108951,268.280712 L342.108951,260.013866 C342.099962,258.289699 340.700756,256.896745 338.977864,256.896769 L330.722686,256.896769 L330.722686,229.453236 C330.722686,229.180077 330.831117,228.918105 331.024124,228.724952 C331.217132,228.531799 331.478907,228.423287 331.751861,228.423287 L337.404153,228.423287 C338.156001,228.423287 338.765495,227.813334 338.765495,227.060919 C338.765495,226.308504 338.156001,225.698551 337.404153,225.698551 L331.751861,225.698551 C329.68101,225.701553 328.003001,227.380826 328.000002,229.453236 L328.000002,258.880376 C327.999357,259.241945 328.142361,259.588941 328.397514,259.844932 L339.163007,270.602186 C339.418805,270.857532 339.76554,271.000644 340.126837,270.999998 L359.060382,270.999998 C361.129112,270.997006 362.806246,269.321045 362.81224,267.250762 L362.81224,262.101013 C362.819557,261.734993 362.679366,261.381428 362.423268,261.120011 C362.16717,260.858594 361.816716,260.711325 361.450898,260.711398 L361.450898,260.711398 Z M332.024129,259.621504 L338.977864,259.621504 C339.203419,259.621504 339.386267,259.80449 339.386267,260.030214 L339.386267,266.978289 L332.024129,259.621504 Z" id="Business-background"></path>
            </g>
        </g>
    </g>
</svg>