<svg viewBox="0 0 213 65" version="1.1" xmlns="http://www.w3.org/2000/svg">
    <g id="ICO" stroke="none" stroke-width="1" fill="none" fill-rule="evenodd">
        <g id="ChampionFX-ICO" transform="translate(-614.000000, -167.000000)">
            <g id="Pre-announcement">
                <g id="Content" transform="translate(309.000000, 167.000000)">
                    <g id="Logo-/-Horizontal" transform="translate(305.000000, 0.000000)">
                        <g id="Page-1">
                            <path d="M-0.000171072171,30.5639771 C9.97504722,33.7307092 18.1206486,37.8537484 26.4745304,43.9739444 C27.2721544,44.5580948 27.2914001,44.5899575 27.6142988,44.8690752 C27.5236305,44.8231928 27.2507704,44.7038137 26.6533009,44.4030294 C25.3544354,43.7496307 22.7567045,42.4415588 20.4510793,41.3187157 C18.1458818,40.1967222 16.1336454,39.2599575 13.634281,38.2909052 C12.9059412,38.0088137 12.1361164,37.724598 11.3782667,37.4552516 C10.6845691,39.8891405 10.0131108,43.241951 10.2705744,45.6176373 C10.8428108,44.5049902 13.0705982,42.5566895 14.9318634,42.0961667 C12.3619317,45.8971797 11.1498854,51.3078987 16.1652937,56.5329641 C16.0617951,56.3294673 15.4651809,51.1175719 18.0299804,48.6556438 C17.8477885,54.6008072 22.6010288,61.3234216 27.9893745,61.5706765 C26.3483647,59.5539771 25.6298616,57.1549248 25.7286558,54.9411013 C29.3609456,60.3016895 38.0415753,63.8274085 38.0775004,63.7811013 C38.1335266,63.7084542 32.708828,56.9391078 32.3807971,50.9463627 C35.4716436,56.7921144 37.8893211,56.5261667 42.3910852,63.3592386 C43.0988963,60.9380948 42.5724217,59.4498922 41.8295408,56.9225392 C45.7415337,59.4677353 47.8230544,61.8030621 50.1620386,64.7811667 C47.6314535,53.2111667 18.7300933,31.0202516 -0.000171072171,30.5639771" id="Fill-1" fill="#FFFFFF"></path>
                            <path d="M17.652082,12.8419608 C17.1482744,13.1822549 17.1221859,14.0174837 17.5952005,14.7069935 C18.066932,15.3948039 18.8585685,15.6768954 19.3632314,15.3361765 C19.8674666,14.9946078 19.8931274,14.1598039 19.4209682,13.4702941 C18.948809,12.7812092 18.1567449,12.4991176 17.652082,12.8419608 M29.6164419,8.98869281 C29.0976656,9.13313725 28.8376359,9.82562092 29.0373626,10.5346732 C29.2370894,11.2454248 29.8204455,11.7038235 30.3396495,11.5598039 C30.8605643,11.4162092 31.1188833,10.7237255 30.9191565,10.0133987 C30.7202851,9.30349673 30.1365013,8.84509804 29.6164419,8.98869281 M33.8136977,13.9673529 C34.4659103,13.7082026 35.3918384,13.3628105 36.1355747,13.1206536 C36.8814494,12.8793464 37.4451322,12.7438235 37.7274012,12.675 C38.0092426,12.6070261 38.0092426,12.6070261 38.0909296,11.9379085 C38.1730443,11.268366 38.3359905,9.93055556 38.5498307,8.71679739 C38.7636709,7.50346405 39.0284051,6.41588235 39.2315533,5.61294118 C39.4368399,4.81042484 39.5809682,4.29127451 39.6532462,4.03339869 C39.7255242,3.77424837 39.7255242,3.77424837 39.7250965,3.77509804 C39.7242412,3.77679739 39.7221028,3.77892157 39.408613,4.20503268 C39.0942679,4.63156863 38.466433,5.48294118 37.7265459,6.1830719 C36.9866587,6.88447712 36.133864,7.43464052 35.5081675,7.7779085 C34.8833264,8.12117647 34.4843006,8.25457516 33.9693733,8.21803922 C33.4531631,8.1819281 32.8193407,7.97673203 32.2385506,7.49454248 C31.6590437,7.01235294 31.1329967,6.25401961 30.6527116,5.25990196 C30.1749926,4.26535948 29.7438907,3.03545752 29.453068,2.19130719 C29.1618176,1.34588235 29.0117018,0.885784314 28.935147,0.655947712 C28.8594476,0.426111111 28.8598753,0.424836601 28.8594476,0.424411765 C28.8594476,0.424411765 28.8594476,0.424411765 28.6947906,1.16617647 C28.5326997,1.90964052 28.2072349,3.39486928 27.8723612,4.78153595 C27.5370597,6.16777778 27.19406,7.45418301 26.7633858,8.44872549 C26.3314286,9.44199346 25.8139353,10.142549 25.1963647,10.6438562 C24.5787942,11.1438889 23.8611464,11.4463725 23.1764301,11.5326144 C22.4917137,11.619281 21.838218,11.4914052 21.0269082,11.0580719 C20.2164538,10.6247386 19.2456192,9.88594771 18.3936798,9.12803922 C17.5413127,8.37055556 16.8069854,7.59395425 16.17188,6.89 C15.5354915,6.1877451 14.9991803,5.55728758 14.7310247,5.24078431 L14.461586,4.9272549 C14.461586,4.9272549 14.4620137,4.9272549 14.5026433,5.69068627 C14.5441283,6.45496732 14.6258153,7.98140523 14.5355747,9.17009804 C14.4449064,10.3579412 14.1844491,11.2063399 13.8470092,11.8771569 C13.5104247,12.5483987 13.0977131,13.0403595 12.5643956,13.3496405 C12.0319335,13.6593464 11.3818592,13.7859477 10.8044906,13.7846732 C10.2279774,13.7833987 9.72545293,13.6538235 9.47440451,13.590098 L9.22292842,13.5246732 C9.22292842,13.5246732 9.22250074,13.5246732 10.723659,14.8633333 C12.225245,16.2015686 15.2262786,18.8784641 16.7278646,20.2166993 C18.2298782,21.5557843 18.2298782,21.5557843 18.7559252,21.468268 C19.2841105,21.3816013 20.3391981,21.2065686 20.8682388,21.1190523 C21.3947134,21.0319608 21.3947134,21.0319608 21.5285774,20.6453595 C21.6632967,20.2596078 21.9327354,19.4889542 22.3783784,18.7510131 C22.8248767,18.0160458 23.4488625,17.3154902 24.1327235,16.9131699 C24.8174399,16.5121242 25.5641699,16.4088889 26.3156044,16.3778758 C27.0670389,16.3477124 27.8223225,16.3893464 28.200392,16.4097386 C28.5776062,16.4309804 28.5776062,16.4309804 28.9582418,16.2491503 C29.339305,16.0677451 30.0997208,15.7032353 30.7369647,15.3943791 C31.3742085,15.085098 31.8865696,14.8306209 32.333068,14.6165033 C32.7804217,14.4015359 33.1610573,14.2269281 33.8136977,13.9673529" id="Fill-4" fill="#FFFFFF"></path>
                            <path d="M35.2655016,6.83659804 C35.0452462,6.97509477 34.7505744,7.12336275 34.3814862,7.15947386 C34.0128257,7.19431046 33.5693211,7.11529085 33.2327366,6.95597712 C32.8961521,6.79708824 32.664777,6.55663072 32.4881449,6.33953922 C32.3106576,6.12329739 32.1870579,5.92914706 32.1246166,5.83185948 C32.0634583,5.73414706 32.0630306,5.73329739 32.0621752,5.73329739 C32.0617475,5.73287255 32.0617475,5.73287255 32.2144295,5.5395719 C32.3675391,5.34839542 32.6737582,4.96221895 33.0603813,4.57944118 C33.4474321,4.19581373 33.9144592,3.81643464 34.1484004,3.62525817 C34.3827692,3.43578105 34.3827692,3.43578105 34.5435771,3.71659804 C34.7039572,3.9969902 35.0255729,4.55904902 35.2586587,5.05993137 C35.4917446,5.5616634 35.6354452,6.00264379 35.7068678,6.22313399 L35.7795735,6.44319935 C35.7795735,6.44319935 35.7791458,6.44277451 35.7060125,6.50734967 C35.6333068,6.57107516 35.4866124,6.69980065 35.2655016,6.83659804" id="Fill-7" fill="#FFFFFF"></path>
                            <path d="M25.2384057,8.57451961 C25.0070306,8.93478105 24.6430745,9.41059804 24.2821123,9.74536928 C23.9207223,10.0826895 23.5618984,10.2789641 23.0615123,10.318049 C22.5598432,10.3567092 21.9166118,10.2386046 21.3901372,10.0270359 C20.8632349,9.81546732 20.4535171,9.51128431 20.2482305,9.35834314 C20.0437992,9.20667647 20.0425162,9.20625163 20.0420885,9.20540196 C20.0416608,9.20540196 20.0416608,9.20540196 20.1370336,8.88719935 C20.2324063,8.56899673 20.4235794,7.9325915 20.7182513,7.15556536 C21.0133508,6.37853922 21.4128043,5.46131699 21.612531,5.00206863 C21.8126855,4.5432451 21.8126855,4.5432451 22.2172712,4.82831046 C22.6218568,5.11380065 23.4318836,5.68350654 24.0751149,6.21327778 C24.7174909,6.74304902 25.1934993,7.23373529 25.4308619,7.47801634 C25.6690799,7.72314706 25.6690799,7.72314706 25.6686522,7.7235719 C25.6686522,7.72442157 25.6673692,7.72569608 25.6177582,7.84804902 C25.568575,7.9708268 25.4697808,8.21468301 25.2384057,8.57451961" id="Fill-9" fill="#FFFFFF"></path>
                            <path d="M12.9814268,11.705183 C12.8522673,11.9303464 12.6640879,12.2009673 12.3557303,12.4048889 C12.0473727,12.610085 11.6196923,12.7494314 11.246755,12.7668497 C10.8751007,12.7855425 10.5577618,12.6840065 10.2981598,12.5769477 C10.0381301,12.4681895 9.8366926,12.3560327 9.73576002,12.2991046 C9.63525512,12.243451 9.63439976,12.243451 9.6335444,12.2430261 C9.63397208,12.2430261 9.63397208,12.2430261 9.67588476,12.0000196 C9.71822513,11.7582876 9.80418889,11.276098 9.96114761,10.756098 C10.119817,10.2365229 10.3486261,9.68168627 10.4640998,9.40384314 C10.5791458,9.12727451 10.5791458,9.12727451 10.8549997,9.29848366 C11.1308536,9.46969281 11.6821337,9.81296078 12.1269213,10.1443333 C12.5721366,10.4765556 12.9082934,10.7956078 13.0767995,10.9566209 L13.2448779,11.1163595 C13.2448779,11.1163595 13.2448779,11.1167843 13.2110912,11.2076993 C13.1768767,11.2981895 13.1093032,11.4800196 12.9814268,11.705183" id="Fill-11" fill="#FFFFFF"></path>
                            <path d="M41.9175575,26.8910523 C41.8427134,26.8460196 41.9509165,26.8727843 41.7221075,26.7895163 C40.9065209,26.4934052 39.644436,26.6038627 37.6963516,25.4232418 L37.2130728,25.8650719 C38.4713086,26.3468366 38.4486415,27.1965098 38.4234084,28.2964118 C39.0054814,27.5950065 40.6221135,27.3005948 41.9072931,27.3001699 L41.9175575,26.8910523 Z M32.4422976,22.3215098 C31.3452973,20.4938627 27.9674773,19.9152353 26.1092058,20.1705621 C26.3730846,20.5456928 27.1014244,21.0121634 27.1245192,21.7692222 C27.2083445,24.5421307 17.6180386,23.4796144 15.6746587,26.5142222 C19.4219947,24.0675882 30.8782703,25.4657255 28.1714808,21.0801373 C29.9326688,20.9951699 31.9427669,21.9119673 32.4422976,22.3215098 L32.4422976,22.3215098 Z M34.0533698,17.6988627 C34.8604027,17.3296797 35.7303047,16.9549739 36.4064675,16.7208889 C37.0822026,16.4868039 37.5646261,16.392915 37.8058378,16.346183 C38.0466219,16.2990261 38.0466219,16.2990261 38.1779198,16.538634 C38.30879,16.7782418 38.5709581,17.2566078 38.6966962,17.7774575 C38.8224342,18.2978824 38.8117422,18.8607908 38.7749617,19.2091569 C38.7381812,19.5575229 38.6753121,19.6934706 38.6440915,19.7610196 C38.6124431,19.8285686 38.6124431,19.8285686 38.4028797,19.4640588 C38.1933163,19.0999739 37.7741895,18.3705294 37.5646261,18.0064444 C37.3550627,17.6419346 37.3550627,17.6419346 36.9774208,17.6780458 C36.6002067,17.7150065 35.8457784,17.7876536 34.9125797,17.9805294 C33.9798087,18.1729804 32.8691227,18.4852353 32.3135658,18.6411503 C31.7580089,18.7974902 31.7580089,18.7974902 32.1300909,18.6156601 C32.5021729,18.4334052 33.2467645,18.0688954 34.0533698,17.6988627 L34.0533698,17.6988627 Z M33.8194286,29.7204641 C29.6824758,32.6191242 30.9928886,39.4500719 35.3317066,40.3681438 C38.9280713,41.129451 40.8988227,40.6646797 43.6257131,43.885366 C44.1654458,44.5918693 44.5088732,45.635268 46.2662121,44.2562484 C45.6610443,42.6890261 46.8213413,41.3805294 46.8594048,39.8150065 L46.7665982,39.9161176 C46.7546231,39.9297124 46.6994523,39.9951373 46.6832005,40.0121307 C46.2157458,40.5176863 45.7619768,40.5380784 45.0314987,40.5797124 C44.8792444,40.1344837 44.7582109,40.0091569 44.5169991,39.7351373 C43.5718254,40.0873268 41.8683742,39.4691895 41.7238182,38.5009869 C41.7024342,38.4155948 41.6831886,38.3293529 41.665226,38.2422614 L41.8966011,38.2622288 C42.5654933,38.3183072 43.0949617,38.3446471 43.601763,38.3433725 C44.1081366,38.342098 44.5922709,38.3140588 45.1050597,38.1951046 C45.6182762,38.077 46.160575,37.8684052 46.452253,37.7218366 C46.7439311,37.575268 46.7849884,37.4903007 46.7033015,37.4550392 C46.6216145,37.4197778 46.4180386,37.4346471 46.0493781,37.4070327 C45.6811452,37.3789935 45.1478277,37.3084706 44.6187871,37.2184052 C44.0897464,37.1287647 43.5654102,37.0191569 43.1000939,36.8126863 C42.6347775,36.6057908 42.2293365,36.3024575 41.9607532,36.0845163 C41.8961734,36.0322614 41.8401473,35.9846797 41.7866873,35.9387974 C41.9419353,35.5373268 42.1835747,35.1711176 42.5347003,34.8720327 C43.000872,34.4748105 43.1065091,34.4722614 43.8271506,34.6549412 C44.6341835,34.8592876 45.6503522,35.4986667 46.244828,35.851281 L46.6515521,35.2458889 C47.611267,35.8686993 47.8152706,37.2188301 47.7720748,38.3238301 C48.7869605,37.9686667 50.3338806,34.2870327 49.77533,32.6667059 C50.0896751,32.3259869 50.2025827,32.3298105 50.5280475,31.8476209 C50.7234975,31.5583072 51.007905,31.0616732 51.1092652,30.7192549 L43.5636994,26.4547451 L44.046123,25.3017386 C36.4492355,21.3609542 44.087608,20.1166078 38.9900849,14.3906601 C38.4020244,13.7300392 30.7781931,16.9120654 28.8904116,17.997098 C22.5645904,17.2298431 23.1496573,22.0776536 22.5906789,22.1685686 C17.6287306,22.9744837 14.4429391,24.1818693 13.6992029,28.1468693 C15.3346528,27.5083399 16.2058378,27.4887974 17.9999572,27.8414118 C17.9832777,27.8588301 17.9593276,27.8626536 17.950774,27.8949412 C16.771659,28.7883725 15.755918,29.6966732 14.8937143,30.6381111 C11.1339756,29.6767059 5.32778616,29.9621961 3.52896228,30.1270327 C24.0999632,33.6374575 41.2469546,46.2274902 51.1233787,57.3896471 C50.3103582,53.1174902 46.6656656,49.6584706 43.2412284,47.1570327 C38.4152824,43.6317386 35.977504,42.4201046 32.3918313,39.8494183 C30.3188643,38.3637647 30.0964704,36.1499412 30.1597672,34.8567386 C30.3864378,30.1784379 33.8194286,29.7204641 33.8194286,29.7204641 L33.8194286,29.7204641 Z" id="Fill-13" fill="#FFFFFF"></path>
                            <path d="M212.384518,47.6499281 L206.003526,38.3646993 L211.560378,30.2953529 L208.122683,30.2953529 L204.284678,35.8615621 L200.470624,30.2953529 L197.032501,30.2953529 L202.566258,38.3646993 L196.208789,47.6499281 L199.646484,47.6499281 L204.284678,40.8669869 L208.946823,47.6499281 L212.384518,47.6499281 Z M187.190719,32.7275425 L194.960817,32.7275425 L194.960817,30.2953529 L187.167197,30.2953529 L184.459124,30.2953529 L184.459124,47.6499281 L187.190719,47.6499281 L187.190719,39.8146667 L193.571711,39.8146667 L193.571711,37.3586863 L187.190719,37.3586863 L187.190719,32.7275425 Z M180.731462,48.4447974 L180.731462,30.2953529 L177.9772,30.2953529 L177.9772,41.4281961 L167.004631,29.4766928 L167.004631,47.6499281 L169.735798,47.6499281 L169.735798,36.4932941 L180.731462,48.4447974 Z M155.185255,33.0083595 C156.786062,33.0083595 158.292781,33.6396667 159.42314,34.7625098 C160.553499,35.8853529 161.189032,37.3820523 161.189032,38.9722157 C161.189032,40.5628039 160.553499,42.0599281 159.42314,43.1823464 C158.292781,44.3051895 156.786062,44.9369216 155.185255,44.9369216 C153.584019,44.9369216 152.076446,44.3051895 150.946941,43.1823464 C149.816154,42.0599281 149.180621,40.5628039 149.180621,38.9722157 C149.180621,37.3820523 149.816154,35.8853529 150.946941,34.7625098 C152.076446,33.6396667 153.584019,33.0083595 155.185255,33.0083595 L155.185255,33.0083595 Z M155.185255,47.6499281 C156.362231,47.6499281 157.515685,47.4158431 158.599,46.9714641 C159.634842,46.527085 160.553499,45.8957778 161.377212,45.1004837 C162.17783,44.3051895 162.790268,43.3926405 163.237194,42.3407451 C163.684975,41.288 163.9202,40.1422157 163.9202,38.9722157 C163.9202,37.8030654 163.684975,36.657281 163.237194,35.5811699 C162.790268,34.5517908 162.17783,33.6396667 161.377212,32.8214314 C160.553499,32.0261373 159.634842,31.4177712 158.599,30.9733922 C157.515685,30.5290131 156.362231,30.2953529 155.185255,30.2953529 C154.007423,30.2953529 152.853969,30.5290131 151.794176,30.9733922 C150.73524,31.4177712 149.816154,32.0261373 149.015964,32.8214314 C148.215347,33.6396667 147.579813,34.5517908 147.13246,35.5811699 C146.685106,36.657281 146.449454,37.8030654 146.449454,38.9722157 C146.449454,40.1422157 146.685106,41.288 147.13246,42.3407451 C147.579813,43.3926405 148.215347,44.3051895 149.015964,45.1004837 C149.816154,45.8957778 150.73524,46.527085 151.794176,46.9714641 C152.853969,47.4158431 154.007423,47.6499281 155.185255,47.6499281 L155.185255,47.6499281 Z M140.657378,47.6499281 L143.388973,47.6499281 L143.388973,30.2953529 L140.657378,30.2953529 L140.657378,47.6499281 Z M135.171521,38.4110065 C134.606555,39.0193725 133.758465,39.3231307 132.628533,39.3231307 L130.180063,39.3231307 L130.180063,32.7275425 L132.628533,32.7275425 C133.758465,32.7275425 134.606555,33.0550915 135.171521,33.6630327 C135.807054,34.3648627 135.948189,35.3475098 135.948189,36.025549 C135.948189,36.7273791 135.807054,37.7096013 135.171521,38.4110065 L135.171521,38.4110065 Z M127.448468,30.2953529 L127.448468,47.6499281 L130.180063,47.6499281 L130.180063,41.7795359 L132.628533,41.7795359 C134.935869,41.7795359 136.277931,40.8436209 136.984031,40.0483268 C137.926211,39.0427386 138.397087,37.6399281 138.397087,36.025549 C138.397087,34.4120196 137.926211,33.0317255 136.984031,32.0027712 C136.277931,31.2308431 134.935869,30.2953529 132.628533,30.2953529 L129.756232,30.2953529 L127.448468,30.2953529 Z M123.799071,47.6499281 L123.799071,29.499634 L115.581192,41.662281 L107.36374,29.499634 L107.36374,47.6499281 L110.095762,47.6499281 L110.095762,38.4347974 L115.581192,46.527085 L121.043954,38.4347974 L121.043954,47.6499281 L123.799071,47.6499281 Z M95.2381443,41.498719 L97.3573009,36.2124771 L99.4764574,41.498719 L95.2381443,41.498719 Z M101.94845,47.6499281 L104.938792,47.6499281 L97.3573009,29.499634 L89.7522875,47.6499281 L92.7661515,47.6499281 L94.2489195,43.9309085 L100.465255,43.9309085 L101.94845,47.6499281 Z M87.3504342,30.2953529 L84.619267,30.2953529 L84.619267,37.7096013 L77.6502144,37.7096013 L77.6502144,30.2953529 L74.9186195,30.2953529 L74.9186195,47.6499281 L77.6502144,47.6499281 L77.6502144,40.1655817 L84.619267,40.1655817 L84.619267,47.6499281 L87.3504342,47.6499281 L87.3504342,30.2953529 Z M72.281542,42.5276732 C72.0933626,42.7613333 71.9047556,42.9720523 71.6930538,43.1823464 C70.5626944,44.3051895 69.0559762,44.9369216 67.4547407,44.9369216 C65.8535052,44.9369216 64.3467871,44.3051895 63.2164277,43.1823464 C62.086496,42.0599281 61.4505352,40.5628039 61.4505352,38.9722157 C61.4505352,37.3820523 62.086496,35.8853529 63.2164277,34.7625098 C64.3467871,33.6163007 65.8535052,33.0083595 67.4547407,33.0083595 C68.8677969,33.0083595 70.1859079,33.4761046 71.2452723,34.3414967 L71.2452723,31.1373791 C71.1280879,31.0902222 70.9865257,31.0201242 70.8684859,30.9733922 C69.785599,30.5060719 68.6317173,30.2953529 67.4547407,30.2953529 C66.2773365,30.2953529 65.1238824,30.5060719 64.0640903,30.9733922 C63.0047259,31.3944052 62.086496,32.0261373 61.2854505,32.8214314 C60.4852605,33.6163007 59.8497274,34.5517908 59.4019459,35.5811699 C58.9550199,36.657281 58.719368,37.8030654 58.719368,38.9722157 C58.719368,40.1422157 58.9550199,41.288 59.4019459,42.3407451 C59.8497274,43.3926405 60.4852605,44.3051895 61.2854505,45.1004837 C62.086496,45.8957778 63.0047259,46.527085 64.0640903,46.9714641 C65.1238824,47.4158431 66.2773365,47.6499281 67.4547407,47.6499281 C68.6317173,47.6499281 69.785599,47.4158431 70.8684859,46.9714641 C71.3637398,46.7611699 71.8341883,46.5041438 72.281542,46.2233268 L72.281542,42.5276732 Z" id="Fill-15" fill="#FFFFFF"></path>
                            <g id="Group-17" transform="translate(58.592219, 29.094935)"></g>
                            <path d="M189.678622,54.5892092 L187.736525,54.5892092 L187.736525,55.3806797 L188.798456,55.3806797 L188.798456,56.4130327 L188.791185,56.4130327 C188.692391,56.4657124 188.585898,56.5035229 188.479834,56.5336863 C188.479834,56.5336863 188.472563,56.5413333 188.464865,56.5413333 C188.457167,56.5413333 188.44177,56.5413333 188.4345,56.5485556 C188.426801,56.5485556 188.419531,56.5485556 188.411832,56.5562026 L188.388738,56.5562026 C188.381467,56.5634248 188.366071,56.5634248 188.358372,56.5634248 C188.351102,56.5710719 188.351102,56.5710719 188.343404,56.5710719 C188.290371,56.5791438 188.229213,56.5944379 188.176181,56.6016601 L188.161212,56.6016601 L188.130846,56.6016601 C188.123148,56.6016601 188.115878,56.6016601 188.115878,56.6093072 L188.077814,56.6093072 L188.055147,56.6093072 L188.032052,56.6093072 L188.002115,56.6093072 C187.994416,56.6165294 187.987146,56.6165294 187.97902,56.6165294 L187.925988,56.6165294 C187.410205,56.6165294 186.924788,56.4130327 186.560404,56.0510719 C186.32518,55.8178366 186.158384,55.5314967 186.067288,55.2149935 C186.029225,55.0786209 186.006558,54.935451 185.99886,54.7927059 C185.991161,54.7553203 185.991161,54.724732 185.991161,54.6945686 C185.991161,54.6567582 185.991161,54.6270196 185.99886,54.5892092 L185.99886,54.506366 C186.006558,54.4311699 186.021527,54.355549 186.036495,54.2799281 C186.036495,54.2727059 186.036495,54.2727059 186.044194,54.2650588 C186.089955,54.0615621 186.165655,53.8733595 186.279846,53.6923791 C186.279846,53.684732 186.287116,53.6698627 186.294814,53.6622157 C186.309783,53.6396993 186.32518,53.617183 186.340149,53.5942418 C186.340149,53.5942418 186.347847,53.5870196 186.355117,53.5789477 C186.38591,53.5343399 186.416276,53.4888824 186.453911,53.4438497 C186.46161,53.4438497 186.46161,53.4357778 186.46161,53.4357778 C186.492403,53.3983922 186.530039,53.3682288 186.560404,53.3384902 C186.65877,53.2327059 186.772961,53.1422157 186.893995,53.0670196 C186.909391,53.0589477 186.924788,53.0517255 186.932058,53.0440784 C187.228013,52.8635229 187.569302,52.7730327 187.925988,52.7730327 L187.97902,52.7730327 L187.994416,52.7730327 L188.024782,52.7730327 L188.047449,52.7730327 C188.055147,52.7730327 188.062845,52.7802549 188.070116,52.7802549 L188.115878,52.7802549 L188.138545,52.7802549 C188.146243,52.787902 188.161212,52.787902 188.16891,52.787902 L188.183879,52.787902 C188.191577,52.787902 188.206974,52.795549 188.214244,52.795549 L188.229213,52.795549 C188.260434,52.8031961 188.297642,52.8031961 188.328435,52.8104183 C188.335705,52.8180654 188.343404,52.8180654 188.343404,52.8180654 C188.358372,52.8180654 188.366071,52.8180654 188.373769,52.8257124 L188.396436,52.8257124 C188.404134,52.8329346 188.411832,52.8329346 188.419531,52.8329346 C188.533294,52.8635229 188.654327,52.9085556 188.76809,52.9612353 C188.90452,53.0287843 189.03368,53.1044052 189.147443,53.2021176 L189.147443,52.1701895 L189.139745,52.1701895 C189.124776,52.1625425 189.109807,52.1548954 189.09441,52.1472484 C189.086712,52.1472484 189.086712,52.1396013 189.086712,52.1396013 C188.783059,52.0040784 188.464865,51.9284575 188.138545,51.906366 C188.115878,51.898719 188.092783,51.898719 188.070116,51.898719 L188.062845,51.898719 L188.002115,51.898719 L187.994416,51.898719 L187.925988,51.898719 C187.546635,51.898719 187.174981,51.966268 186.833692,52.1175098 C186.492403,52.2526078 186.19602,52.4561046 185.938129,52.7127059 C185.680238,52.9688824 185.475379,53.2705163 185.33125,53.6018889 C185.202091,53.9035229 185.13409,54.2272484 185.110995,54.5513987 L185.110995,54.6945686 C185.110995,54.7850588 185.118693,54.8831961 185.126391,54.9732614 C185.149059,55.2528039 185.224758,55.5238497 185.33125,55.7800261 C185.475379,56.1194706 185.680238,56.4130327 185.938129,56.6692092 C186.120321,56.8578366 186.332878,57.0163007 186.560404,57.1369542 C186.643802,57.189634 186.73447,57.2346667 186.833692,57.2720523 C186.871755,57.2877712 186.909391,57.3026405 186.947027,57.3175098 C186.97782,57.3251569 187.000059,57.340451 187.03128,57.3476732 L187.038551,57.3476732 C187.318681,57.4458105 187.622334,57.4908431 187.925988,57.4908431 L187.994416,57.4908431 L188.002115,57.4908431 L188.062845,57.4908431 L188.070116,57.4908431 C188.426801,57.4683268 188.76082,57.3931307 189.079442,57.2495359 L189.086712,57.2423137 C189.102109,57.2346667 189.124776,57.2270196 189.139745,57.2193725 C189.155141,57.2121503 189.170538,57.2045033 189.177808,57.197281 L189.193205,57.197281 C189.200903,57.189634 189.200903,57.189634 189.208173,57.1819869 C189.223998,57.1819869 189.238966,57.1743399 189.246237,57.1666928 C189.253935,57.1594706 189.261206,57.1594706 189.268904,57.1518235 C189.283873,57.1446013 189.291999,57.1446013 189.306968,57.1369542 C189.314238,57.1293072 189.321936,57.1293072 189.329635,57.1216601 C189.337333,57.1135882 189.345031,57.1135882 189.352302,57.106366 C189.367271,57.098719 189.375396,57.0914967 189.383095,57.0838497 C189.398064,57.0838497 189.405334,57.0762026 189.413032,57.0689804 C189.420303,57.0689804 189.428429,57.0613333 189.436127,57.0541111 C189.443398,57.0541111 189.458366,57.0460392 189.466065,57.038817 C189.473763,57.0311699 189.473763,57.0311699 189.481461,57.0311699 L189.678622,56.8956471 L189.678622,55.3806797 L189.678622,54.5892092 Z M182.544912,57.7474444 L182.544912,51.898719 L181.657048,51.898719 L181.657048,55.4860392 L178.121841,51.6348954 L178.121841,57.4908431 L179.00158,57.4908431 L179.00158,53.8958758 L182.544912,57.7474444 Z M174.462608,57.4908431 L175.342774,57.4908431 L175.342774,51.898719 L174.462608,51.898719 L174.462608,57.4908431 Z M172.109082,57.4908431 L169.628108,54.5892092 L171.691666,51.898719 L170.584402,51.898719 L168.778735,54.2051569 L168.778735,51.898719 L167.898141,51.898719 L167.898141,57.4908431 L168.778735,57.4908431 L168.778735,54.9583922 L171.009088,57.4908431 L172.109082,57.4908431 Z M162.972545,55.5841765 C162.88872,55.3203529 162.721925,55.0713987 162.479002,54.8530327 C162.357969,54.7396013 162.191173,54.5815621 162.054315,54.4460392 L161.113418,53.5492092 C160.878194,53.3231961 160.870924,53.1494379 160.901289,53.0440784 C160.946195,52.8856144 161.113418,52.7577386 161.311007,52.7203529 C161.470104,52.6897647 161.765631,52.6897647 162.054315,53.0364314 L162.744592,52.486268 C162.525192,52.2228693 162.266873,52.0342418 161.978616,51.9212353 C161.705756,51.823098 161.417072,51.8005817 161.143784,51.8609085 C160.893591,51.906366 160.658366,52.0189477 160.468476,52.1774118 C160.263617,52.3503203 160.119489,52.5618889 160.051488,52.8031961 C159.982631,53.0287843 159.99033,53.2777386 160.066884,53.5113987 C160.142156,53.7527059 160.286285,53.978719 160.498842,54.1822157 L161.189546,54.8305163 C161.219483,54.8606797 161.629201,55.2600261 161.879822,55.4936863 C162.038919,55.6445033 162.213413,55.8705163 162.137713,56.1266928 C162.069284,56.3527059 161.834488,56.5413333 161.546231,56.5944379 C161.379008,56.6318235 161.196816,56.6165294 161.030448,56.5485556 C160.825162,56.4737843 160.635699,56.3229673 160.476602,56.1118235 L159.7782,56.6543399 C160.04379,56.9933595 160.355141,57.2270196 160.711399,57.3701895 C160.923956,57.4530327 161.151482,57.4908431 161.379008,57.4908431 C161.492771,57.4908431 161.606534,57.4831961 161.720725,57.4611046 C162.334874,57.340451 162.828417,56.9105163 162.987514,56.368 C163.063641,56.1118235 163.055943,55.8403529 162.972545,55.5841765 L162.972545,55.5841765 Z M156.376858,57.4908431 L157.257452,57.4908431 L157.257452,51.898719 L156.376858,51.898719 L156.376858,57.4908431 Z M151.678788,51.898719 L147.695373,51.898719 L147.695373,52.6825425 L149.243576,52.6825425 L149.243576,57.4908431 L150.131013,57.4908431 L150.131013,52.6825425 L151.678788,52.6825425 L151.678788,51.898719 Z M145.273418,57.7474444 L145.273418,51.898719 L144.385982,51.898719 L144.385982,55.4860392 L140.850347,51.6348954 L140.850347,57.4908431 L141.730514,57.4908431 L141.730514,53.8958758 L145.273418,57.7474444 Z M135.704497,52.6825425 L138.20044,52.6825425 L138.20044,51.898719 L135.696371,51.898719 L134.823903,51.898719 L134.823903,57.4908431 L135.696371,57.4908431 L138.20044,57.4908431 L138.20044,56.6993725 L135.704497,56.6993725 L135.704497,54.9660392 L137.760356,54.9660392 L137.760356,54.1745686 L135.704497,54.1745686 L135.704497,52.6825425 Z M131.165097,57.4908431 L132.045691,57.4908431 L132.045691,51.898719 L131.165097,51.898719 L131.165097,57.4908431 Z M128.910365,56.6993725 L126.558123,56.6993725 L126.558123,51.898719 L125.677957,51.898719 L125.677957,57.4908431 L126.550852,57.4908431 L128.910365,57.4908431 L128.910365,56.6993725 Z M123.06654,55.8403529 C123.005382,55.9159739 122.945079,55.9835229 122.87665,56.0510719 C122.512266,56.4130327 122.026849,56.6165294 121.510639,56.6165294 C120.994856,56.6165294 120.509866,56.4130327 120.145055,56.0510719 C119.780671,55.6895359 119.57624,55.2073464 119.57624,54.6945686 C119.57624,54.1822157 119.780671,53.6996013 120.145055,53.3384902 C120.509866,52.9688824 120.994856,52.7730327 121.510639,52.7730327 C121.966118,52.7730327 122.390805,52.9238497 122.732522,53.2021176 L122.732522,52.1701895 C122.694886,52.1548954 122.648696,52.1323791 122.61106,52.1175098 C122.262073,51.966268 121.890419,51.898719 121.510639,51.898719 C121.131714,51.898719 120.759632,51.966268 120.418343,52.1175098 C120.077054,52.2526078 119.780671,52.4561046 119.523208,52.7127059 C119.264889,52.9688824 119.060457,53.2705163 118.915901,53.6018889 C118.771773,53.9485556 118.695646,54.3177386 118.695646,54.6945686 C118.695646,55.0713987 118.771773,55.4410065 118.915901,55.7800261 C119.060457,56.1194706 119.264889,56.4130327 119.523208,56.6692092 C119.780671,56.9258105 120.077054,57.1293072 120.418343,57.2720523 C120.759632,57.4156471 121.131714,57.4908431 121.510639,57.4908431 C121.890419,57.4908431 122.262073,57.4156471 122.61106,57.2720523 C122.770585,57.2045033 122.921984,57.1216601 123.06654,57.0311699 L123.06654,55.8403529 Z M111.509332,52.6825425 L114.005702,52.6825425 L114.005702,51.898719 L111.501206,51.898719 L110.629165,51.898719 L110.629165,57.4908431 L111.501206,57.4908431 L114.005702,57.4908431 L114.005702,56.6993725 L111.509332,56.6993725 L111.509332,54.9660392 L113.565619,54.9660392 L113.565619,54.1745686 L111.509332,54.1745686 L111.509332,52.6825425 Z M107.8424,51.898719 L106.962661,51.898719 L106.962661,54.2875752 L104.716911,54.2875752 L104.716911,51.898719 L103.836745,51.898719 L103.836745,57.4908431 L104.716911,57.4908431 L104.716911,55.0786209 L106.962661,55.0786209 L106.962661,57.4908431 L107.8424,57.4908431 L107.8424,51.898719 Z M101.414791,51.898719 L97.4313751,51.898719 L97.4313751,52.6825425 L98.9791506,52.6825425 L98.9791506,57.4908431 L99.8670151,57.4908431 L99.8670151,52.6825425 L101.414791,52.6825425 L101.414791,51.898719 Z M90.3737927,52.6825425 L92.8697357,52.6825425 L92.8697357,51.898719 L90.3656668,51.898719 L89.4931987,51.898719 L89.4931987,57.4908431 L90.3656668,57.4908431 L92.8697357,57.4908431 L92.8697357,56.6993725 L90.3737927,56.6993725 L90.3737927,54.9660392 L92.4296525,54.9660392 L92.4296525,54.1745686 L90.3737927,54.1745686 L90.3737927,52.6825425 Z M84.1352183,54.8152222 L84.1352183,52.6897647 L84.923861,52.6897647 C85.287817,52.6897647 85.5611048,52.787902 85.7360261,52.9841765 C85.9481556,53.2097647 85.9862192,53.5266928 85.9862192,53.7527059 C85.9862192,53.9710719 85.9481556,54.2875752 85.7360261,54.5135882 C85.5611048,54.7098627 85.287817,54.8152222 84.923861,54.8152222 L84.1352183,54.8152222 Z M85.6748678,55.4707451 C85.9785209,55.3653856 86.1910781,55.1920523 86.3279358,55.0412353 C86.623463,54.7175098 86.7825601,54.2650588 86.7825601,53.7527059 C86.7825601,53.2327059 86.623463,52.7802549 86.3279358,52.4561046 C86.0999822,52.1999281 85.6675973,51.898719 84.923861,51.898719 L83.9983606,51.898719 L83.2546243,51.898719 L83.2546243,57.4908431 L84.1352183,57.4908431 L84.1352183,55.5990458 L84.7801604,55.5990458 L86.1987764,57.4908431 L87.192278,57.4908431 L85.6748678,55.4707451 Z M78.1087734,52.6825425 L80.605144,52.6825425 L80.605144,51.898719 L78.1010751,51.898719 L77.2286071,51.898719 L77.2286071,57.4908431 L78.1010751,57.4908431 L80.605144,57.4908431 L80.605144,56.6993725 L78.1087734,56.6993725 L78.1087734,54.9660392 L80.1650609,54.9660392 L80.1650609,54.1745686 L78.1087734,54.1745686 L78.1087734,52.6825425 Z M74.4422691,51.898719 L73.5621028,51.898719 L73.5621028,54.2875752 L71.3163528,54.2875752 L71.3163528,51.898719 L70.4361865,51.898719 L70.4361865,57.4908431 L71.3163528,57.4908431 L71.3163528,55.0786209 L73.5621028,55.0786209 L73.5621028,57.4908431 L74.4422691,57.4908431 L74.4422691,51.898719 Z M67.923564,51.898719 L66.96,51.898719 L65.4802257,55.5841765 L64.4785982,53.248 L63.9850549,52.1098627 L63.5304307,53.2628693 L62.5968043,55.5841765 L61.0113929,51.898719 L60.0401307,51.898719 L62.6194713,57.7397974 L64.0162756,54.3704183 L65.5028928,57.7397974 L67.923564,51.898719 Z" id="Fill-18" fill="#FFFFFF"></path>
                        </g>
                    </g>
                </g>
            </g>
        </g>
    </g>
</svg>