<svg viewBox="0 0 64 80" version="1.1" xmlns="http://www.w3.org/2000/svg">
    <g id="ICO" stroke="none" stroke-width="1" fill="none" fill-rule="evenodd">
        <g id="ChampionFX-ICO" transform="translate(-688.000000, -781.000000)" fill="#013365">
            <g id="Introducing-ChampionFX" transform="translate(0.000000, 721.000000)">
                <g id="Logo-/-Logogram-Dark-Blue" transform="translate(688.000000, 60.000000)">
                    <path d="M22.0983128,15.4358921 C21.4676116,15.8589017 21.4349522,16.8971502 22.0271046,17.7542596 C22.6176508,18.6092567 23.6086762,18.9599164 24.2404481,18.5363786 C24.8716847,18.1117847 24.9038087,17.0740643 24.3127271,16.2169548 C23.7216456,15.3603735 22.7300848,15.0097138 22.0983128,15.4358921 M37.0761272,10.6460073 C36.426687,10.825562 36.1011638,11.6863682 36.3511956,12.5677703 C36.6012274,13.4512849 37.331513,14.0211069 37.9814885,13.8420804 C38.6336057,13.6635819 38.9569873,12.8027757 38.7069555,11.9197892 C38.4579945,11.0373309 37.7271736,10.4675089 37.0761272,10.6460073 M42.3305426,16.8348341 C41.5135222,17.1575044 41.0370162,17.3745543 40.4769878,17.6417739 C39.9180303,17.9079373 39.2766211,18.2242704 38.4788751,18.6087286 C37.6811292,18.9926587 36.729188,19.4457702 36.2521466,19.6712697 C35.7756406,19.8972974 35.7756406,19.8972974 35.3034179,19.8708923 C34.8301243,19.8455434 33.8846079,19.7937894 32.9439102,19.8312846 C32.0032124,19.8698361 31.068404,19.9981648 30.2112287,20.4966931 C29.3551241,20.9968056 28.5739755,21.8676458 28.015018,22.7812622 C27.4571312,23.6985752 27.1198292,24.6565522 26.9511782,25.1360688 C26.783598,25.6166415 26.783598,25.6166415 26.1245206,25.7249024 C25.4622309,25.8336915 24.1413991,26.0512695 23.4801802,26.1590023 C22.8216382,26.2677913 22.8216382,26.2677913 20.9413135,24.6032139 C19.0615241,22.9396927 15.3046225,19.6121223 13.4248332,17.9486012 C11.5455793,16.2845519 11.5461147,16.2845519 11.5461147,16.2845519 L11.8609299,16.3658796 C12.1752096,16.4450949 12.8043046,16.606166 13.5260238,16.6077503 C14.2488138,16.6093346 15.0626217,16.4519602 15.7291947,16.0669739 C16.3968385,15.6825157 16.9134994,15.0709736 17.3348592,14.2365725 C17.7572898,13.4026995 18.0833484,12.3480799 18.1968532,10.8715069 C18.3098226,9.39387758 18.2075612,7.49640726 18.1556274,6.54635184 C18.1047644,5.59735262 18.104229,5.59735262 18.104229,5.59735262 L18.441531,5.98709187 C18.7772268,6.38052782 19.4486183,7.16423113 20.2452935,8.03718366 C21.0403625,8.9122486 21.9596442,9.87761897 23.0266964,10.8192248 C24.0932131,11.7613586 25.3085711,12.6797279 26.323154,13.2183919 C27.3388078,13.7570559 28.156899,13.9160146 29.0140743,13.8082818 C29.8712497,13.7010771 30.7696509,13.3250685 31.5427684,12.7034925 C32.315886,12.0803322 32.96372,11.2094921 33.5044739,9.97478973 C34.0436217,8.73850306 34.4730125,7.13941033 34.8927661,5.41621365 C35.3119843,3.69248887 35.7194236,1.84624444 35.9223402,0.922066014 C36.1284692,0 36.1284692,0 36.1284692,0 C36.1290046,0.000528101955 36.1284692,0.00211240782 36.223235,0.287815566 C36.3190716,0.573518724 36.506997,1.14545314 36.8716044,2.19637603 C37.2356764,3.24571462 37.7753596,4.77456978 38.3734013,6.01085646 C38.9746555,7.24661503 39.6331975,8.18927702 40.3586644,8.78867274 C41.0857376,9.38806846 41.8792004,9.6431417 42.5254282,9.68803037 C43.1700497,9.73344714 43.6695779,9.56762313 44.4517973,9.14091675 C45.2350874,8.71421037 46.302675,8.03031833 47.228917,7.158422 C48.1551589,6.28810998 48.9411261,5.22979366 49.3346451,4.6995793 C49.7270932,4.16989304 49.7297702,4.16725253 49.730841,4.16514012 C49.7313764,4.16408392 49.7313764,4.16408392 49.6408939,4.48622611 C49.5504113,4.806784 49.3699815,5.45212459 49.1129895,6.44970918 C48.8586745,7.44782188 48.5272619,8.79976288 48.2595619,10.3080221 C47.9918619,11.8168094 47.7878745,13.4798024 47.6850777,14.3120911 C47.5828163,15.1438517 47.5828163,15.1438517 47.2299878,15.228348 C46.8766238,15.3139005 46.1709666,15.482365 45.237229,15.7823269 C44.3061685,16.0833451 43.1470275,16.5126919 42.3305426,16.8348341 Z M44.1480113,7.97080124 C43.8722803,8.14296248 43.5033898,8.32727006 43.0413396,8.37215873 C42.5798248,8.41546309 42.024615,8.31723613 41.6032552,8.11919789 C41.1818954,7.92168776 40.8922441,7.62278205 40.6711239,7.35292196 C40.4489329,7.08411806 40.2942023,6.84277547 40.2160339,6.72184012 C40.1394717,6.60037667 40.1389363,6.59932046 40.1378655,6.59932046 C40.1373301,6.59879236 40.1373301,6.59879236 40.3284679,6.35850597 C40.5201411,6.12086009 40.9034875,5.64081542 41.387489,5.16499555 C41.872026,4.68811949 42.4566828,4.21652444 42.7495466,3.97887856 C43.0429458,3.74334509 43.0429458,3.74334509 43.2442562,4.09242048 C43.4450312,4.44096777 43.8476519,5.13964666 44.1394449,5.76227887 C44.4312379,6.38596727 44.6111323,6.9341371 44.7005441,7.20822202 L44.7915621,7.48177883 C44.7915621,7.48177883 44.7910267,7.48125073 44.6994733,7.56152223 C44.6084553,7.64073752 44.4248131,7.80075241 44.1480113,7.97080124 Z M31.5953982,10.1311607 C31.3057468,10.5789912 30.8501215,11.1704654 30.3982439,11.5866097 C29.9458309,12.0059227 29.4966303,12.2499058 28.8702124,12.2984911 C28.2421882,12.3465484 27.4369466,12.1997361 26.7778692,11.9367413 C26.1182565,11.6737465 25.6053433,11.2956255 25.3483513,11.1055088 C25.0924301,10.9169764 25.0908239,10.9164483 25.0902885,10.9153921 C25.0897531,10.9153921 25.0897531,10.9153921 25.2091473,10.5198438 C25.3285415,10.1242954 25.5678653,9.33319867 25.9367559,8.36730019 C26.3061819,7.40140171 26.8062454,6.26122959 27.0562772,5.69035138 C27.3068444,5.12000127 27.3068444,5.12000127 27.8133328,5.47435768 C28.3198212,5.82924219 29.3338687,6.53742692 30.1391103,7.19597005 C30.9432811,7.85451319 31.5391812,8.46447095 31.8363282,8.76812958 C32.134546,9.0728444 32.134546,9.0728444 32.1340106,9.07337251 C32.1340106,9.07442871 32.1324044,9.07601302 32.070298,9.22810638 C32.008727,9.38072784 31.8850496,9.68385837 31.5953982,10.1311607 Z M16.2512632,14.0227968 C16.0895724,14.3026909 15.8539964,14.6390918 15.467973,14.8925808 C15.0819497,15.147654 14.5465497,15.3208714 14.0796809,15.3425236 C13.6144183,15.3657601 13.2171515,15.2395437 12.8921638,15.1064621 C12.5666406,14.971268 12.3144672,14.831849 12.1881128,14.7610834 C12.0622938,14.691902 12.061223,14.691902 12.0601522,14.6913739 C12.0606876,14.6913739 12.0606876,14.6913739 12.1131568,14.3892996 C12.1661614,14.0888096 12.2737768,13.4894139 12.4702686,12.8430171 C12.668902,12.1971484 12.9553409,11.5074472 13.0998989,11.1620685 C13.2439215,10.8182742 13.2439215,10.8182742 13.5892545,11.0310993 C13.9345875,11.2439244 14.6247181,11.6706307 15.1815341,12.0825503 C15.7388854,12.495526 16.1597098,12.8921306 16.3706574,13.0922812 L16.5810696,13.2908475 C16.5810696,13.2908475 16.5810696,13.2913756 16.538773,13.4043895 C16.495941,13.5168752 16.4113478,13.7429028 16.2512632,14.0227968 Z M52.4755155,32.8999069 C52.3818205,32.843928 52.5172767,32.8771985 52.2308377,32.7736905 C51.2098299,32.4056034 49.6298646,32.5429099 47.1911177,31.0753146 L46.5861157,31.6245406 C48.1612625,32.2234083 48.1328863,33.2796122 48.1012977,34.6468681 C48.829977,33.7749718 50.853789,33.4089971 52.4626659,33.408469 L52.4755155,32.8999069 Z M40.613729,27.2196422 C39.2404281,24.9477476 35.011839,24.2284727 32.6855261,24.545862 C33.0158679,25.0121761 33.9276541,25.592032 33.9565657,26.5331097 C34.0615041,29.9800311 22.055695,28.6592482 19.6228375,32.4314804 C24.3140121,29.3901413 38.6557713,31.1281248 35.2672248,25.6765283 C37.4720019,25.5709079 39.9883818,26.7105519 40.613729,27.2196422 L40.613729,27.2196422 Z M42.6305807,21.4733648 C43.6408805,21.0144442 44.729884,20.5486583 45.5763514,20.2576741 C46.4222833,19.96669 47.0262145,19.8499794 47.3281801,19.7918882 C47.6296103,19.7332689 47.6296103,19.7332689 47.7939781,20.0311184 C47.9578105,20.3289679 48.2860107,20.9236107 48.4434183,21.5710637 C48.6008259,22.2179886 48.5874409,22.9177237 48.5413965,23.3507673 C48.4953521,23.7838109 48.4166483,23.9528035 48.3775641,24.0367717 C48.3379445,24.12074 48.3379445,24.12074 48.0755985,23.6676285 C47.8132525,23.2150451 47.2885605,22.308294 47.0262145,21.8557107 C46.7638685,21.4025992 46.7638685,21.4025992 46.2911104,21.4474879 C45.8188876,21.4934327 44.874442,21.5837382 43.7061993,21.8234964 C42.5384919,22.0627266 41.1480582,22.4508816 40.4525736,22.644695 C39.757089,22.8390365 39.757089,22.8390365 40.222887,22.6130089 C40.688685,22.3864531 41.6208164,21.9333417 42.6305807,21.4733648 L42.6305807,21.4733648 Z M42.3377169,36.4170659 C42.3377169,36.4170659 38.0400613,36.9863598 37.7562993,42.8018185 C37.6770601,44.4093609 37.9554681,47.1613002 40.5505518,49.0080727 C45.0393452,52.2036176 48.0911251,53.7097644 54.1325784,58.0919544 C58.419526,61.2014187 62.9822046,65.5012249 64,70.8118181 C51.6360083,56.9364674 30.170217,41.2861659 4.41801353,36.9224595 C6.66990584,36.7175559 13.9384959,36.3626714 18.6451971,37.5577661 C19.7245635,36.3874922 20.9961384,35.2584102 22.4722362,34.1478118 C22.4829442,34.107676 22.5129266,34.1029231 22.5338072,34.0812709 C20.2878043,33.6429463 19.1971945,33.667239 17.149825,34.4609762 C18.0808856,29.5322007 22.06908,28.0313349 28.2807905,27.0295255 C28.9805583,26.9165117 28.2481311,20.8903403 36.1672322,21.8440924 C38.5304877,20.49532 48.0745277,16.5398364 48.8107026,17.3610349 C55.192135,24.4787931 45.6298914,26.0256037 55.1402012,30.9242774 L54.53627,32.3575461 L63.9823318,37.6586336 C63.855442,38.0842838 63.499401,38.7016349 63.2547232,39.0612724 C62.8472838,39.6606681 62.7059383,39.6559152 62.3124193,40.0794529 C63.0116516,42.0936338 61.0751099,46.6701653 59.8046058,47.1116586 C59.8586812,45.7380654 59.6032954,44.0597574 58.4018578,43.2855599 L57.8926925,44.0381052 C57.1484865,43.5997806 55.8763761,42.8049871 54.8660764,42.5509701 C53.9639274,42.3238862 53.8316836,42.3270549 53.2480977,42.8208302 C52.8085343,43.192614 52.5060333,43.6478379 52.3116831,44.1468942 C52.3786081,44.2039292 52.4487455,44.2630766 52.5295909,44.3280332 C52.8658221,44.5989495 53.3733813,44.9760143 53.9558964,45.2331999 C54.5384116,45.4898575 55.194812,45.6261078 55.8571017,45.7375373 C56.5193915,45.8494949 57.1870353,45.9371598 57.6480147,45.9720146 C58.1095295,46.0063412 58.3643798,45.9878576 58.4666412,46.0316901 C58.5689026,46.0755225 58.5175042,46.1811429 58.1523614,46.3633381 C57.7872187,46.5455333 57.1083315,46.8048313 56.4658515,46.9516437 C55.8239069,47.0995122 55.2178342,47.134367 54.5839206,47.1359513 C53.9494716,47.1375356 53.2866465,47.1047933 52.4492809,47.0350838 L52.1596295,47.010263 C52.1821163,47.1185239 52.2062093,47.2257286 52.2329793,47.3318771 C52.4139445,48.5354214 54.5464426,49.3038098 55.7296766,48.8660133 C56.0316421,49.206639 56.1831603,49.3624291 56.3737627,49.91588 C57.2882259,49.864126 57.8562853,49.8387771 58.4414774,49.2103357 C58.4618226,49.1892117 58.5308892,49.107884 58.5458804,49.0909847 L58.6620622,48.9652964 C58.6144116,50.9113521 57.1618715,52.5379062 57.9194625,54.4860743 C55.719504,56.2002932 55.2895778,54.9032748 54.613903,54.0250413 C51.2001927,50.0215004 48.7330696,50.5992439 44.2308912,49.6528852 C38.7992585,48.5116569 37.1587929,40.0203055 42.3377169,36.4170659 Z M0,37.4656123 C23.447842,38.0327938 59.6285663,65.6176713 62.7965279,80 C59.8684255,76.2980053 57.2626338,73.3950288 52.3653302,70.23117 C53.2953199,73.3728486 53.9543973,75.2227897 53.0683103,78.2324428 C47.4326902,69.7384509 44.4060741,70.0690427 40.5367385,62.8023598 C40.9473903,70.251766 47.7384036,78.6665426 47.6682662,78.756848 C47.6232926,78.8144111 36.7562792,74.431693 32.2091272,67.7681025 C32.0854498,70.5200418 32.9849218,73.5022335 35.0392515,76.0091335 C28.2937472,75.7017782 22.3433119,67.3450928 22.5713922,59.9548341 C19.3605986,63.0151849 20.1074815,69.4939397 20.2370483,69.7469005 C13.9584128,63.2517746 15.4757363,56.5258681 18.6929548,51.8009399 C16.3628941,52.3734024 13.5739956,54.795278 12.8576305,56.178377 C12.5353197,53.2252309 13.3758976,49.0574502 14.2443164,46.0319541 C15.1930452,46.3667708 16.1567651,46.720071 17.0685513,47.0707307 C20.1974287,48.2753312 22.7164856,49.439796 25.6022915,50.8345133 C28.4886328,52.2302868 31.7406523,53.8563127 33.366662,54.6685335 C34.1146158,55.0424297 34.4562009,55.1908263 34.5697057,55.2478614 C34.1654787,54.9008984 34.1413857,54.8612907 33.1428648,54.1351505 C22.684897,46.5273138 12.4876691,41.4020843 0,37.4656123 Z" id="CHFX"></path>
                </g>
            </g>
        </g>
    </g>
</svg>