<svg width="53px" height="81px" viewBox="0 0 53 81" version="1.1" xmlns="http://www.w3.org/2000/svg">
    <g id="ICO" stroke="none" stroke-width="1" fill="none" fill-rule="evenodd">
        <g id="ChampionFX-ICO" transform="translate(-873.000000, -4070.000000)" fill-rule="nonzero" fill="#013365">
            <g id="Contribute-to-the-growth-of-CHFX" transform="translate(-3.000000, 3962.000000)">
                <g id="Pie-Chart" transform="translate(541.000000, 101.000000)">
                    <path d="M380.309568,11.5344134 L336.365473,11.5344134 L336.365473,87.3207889 C336.365473,87.6959068 336.059801,88 335.682736,88 C335.305671,88 335,87.6959068 335,87.3207889 L335,10.8552023 C335,10.4800843 335.305671,10.1759911 335.682736,10.1759911 L380.309568,10.1759911 C380.632248,8.37108894 382.218035,7 384.124789,7 C386.264484,7 388,8.72655464 388,10.8552023 C388,12.9838499 386.264484,14.7104045 384.124789,14.7104045 C382.218035,14.7104045 380.632248,13.3393156 380.309568,11.5344134 Z" id="Combined-Shape"></path>
                </g>
            </g>
        </g>
    </g>
</svg>