<svg viewBox="0 0 238 238" version="1.1" xmlns="http://www.w3.org/2000/svg">
    <g id="ICO" stroke="none" stroke-width="1" fill="none" fill-rule="evenodd">
        <g id="ChampionFX-ICO" transform="translate(-732.000000, -4096.000000)" fill-rule="nonzero">
            <g id="Contribute-to-the-growth-of-CHFX" transform="translate(-6.000000, 3964.000000)">
                <g id="Pie-Chart" transform="translate(544.000000, 84.000000)">
                    <g id="5-Slices-Pie-Chart" transform="translate(334.000000, 143.500000) scale(-1, 1) translate(-334.000000, -143.500000) translate(194.000000, 1.000000)">
                        <path d="M280,165.5 C280,230.945743 226.945743,284 161.5,284 L161.5,165.5 L257.248777,95.6690398 C271.555559,115.252322 280,139.390009 280,165.5 Z" id="#004385:35%" fill="#004385"></path>
                        <path d="M115.28069,23.8951662 L115.280692,142.39785 C180.726434,142.39785 233.780692,89.3435927 233.780692,23.8978499 C233.780692,23.8698885 194.280691,23.8689939 115.28069,23.8951662 Z" id="#33699C:25%" fill="#33699C" transform="translate(174.530691, 83.137018) rotate(-126.000000) translate(-174.530691, -83.137018) "></path>
                        <path d="M24.5888008,210.370035 L24.5888008,91.874332 C24.6057634,91.8881082 62.2021544,104.03587 137.377974,128.317617 C122.003506,175.930195 77.3180811,210.370035 24.5888008,210.370035 Z" id="#668DB5:20%" fill="#668DB5" transform="translate(80.983387, 151.122183) rotate(-216.000000) translate(-80.983387, -151.122183) "></path>
                        <path d="M150.789831,253.832145 C131.224209,268.095146 107.123829,276.511189 81.0577773,276.511189 L81.0577773,158.175484 L150.789831,253.832145 Z" id="#BFD0E0:10%" fill="#BFD0E0" transform="translate(115.923804, 217.343336) rotate(-288.000000) translate(-115.923804, -217.343336) "></path>
                        <path d="M161.429993,261.556563 C141.86437,275.819564 117.763991,284.235607 91.6979388,284.235607 L91.6979388,165.899902 L161.429993,261.556563 Z" id="#f2f2f2:10%" fill="#F2F2F2" transform="translate(126.563966, 225.067755) scale(-1, 1) translate(-126.563966, -225.067755) "></path>
                    </g>
                </g>
            </g>
        </g>
    </g>
</svg>