<svg xmlns="http://www.w3.org/2000/svg" viewBox="0 0 30 30">
    <g fill="#004385" fill-rule="evenodd">
        <path d="M15 28.125C7.751 28.125 1.875 22.249 1.875 15S7.751 1.875 15 1.875 28.125 7.751 28.125 15 22.249 28.125 15 28.125M15 0C6.715 0 0 6.716 0 15c0 8.285 6.715 15 15 15s15-6.715 15-15c0-8.284-6.715-15-15-15"/>
        <path d="M15.253 20.625a5.626 5.626 0 0 1 0-11.25v11.25zm4.687-9.375h2.307a7.502 7.502 0 0 0-5.12-3.619V5.625h-1.874V7.5a7.5 7.5 0 0 0 0 15v1.875h1.875v-2.006a7.497 7.497 0 0 0 5.1-3.619H19.94a5.617 5.617 0 0 1-2.812 1.688V9.563a5.624 5.624 0 0 1 2.812 1.687z"/>
    </g>
</svg>
