<svg xmlns="http://www.w3.org/2000/svg" viewBox="0 0 50 50">
    <path fill="#004385" fill-rule="nonzero" d="M35.324 12.84l-22.49 22.48a1.3 1.3 0 0 0 .92 2.222 1.3 1.3 0 0 0 .922-.382l22.49-22.48a1.3 1.3 0 0 0 0-1.84 1.304 1.304 0 0 0-1.842 0zm7.362-5.518C37.962 2.6 31.681 0 25 0 18.32 0 12.038 2.6 7.314 7.322c-9.752 9.748-9.752 25.609 0 35.356C12.038 47.4 18.319 50 25 50c6.68 0 12.962-2.6 17.686-7.322 9.752-9.747 9.752-25.609 0-35.356zm-1.842 33.514A22.268 22.268 0 0 1 25 47.396a22.268 22.268 0 0 1-15.844-6.56C.42 32.104.42 17.896 9.156 9.163A22.27 22.27 0 0 1 25 2.604c5.985 0 11.612 2.33 15.844 6.56 8.736 8.732 8.736 22.94 0 31.672zm-9.07-12.939a3.85 3.85 0 0 0-2.74 1.135 3.847 3.847 0 0 0-1.135 2.74c0 1.035.403 2.007 1.135 2.738a3.852 3.852 0 0 0 2.74 1.135 3.85 3.85 0 0 0 2.74-1.135 3.877 3.877 0 0 0 .001-5.478 3.853 3.853 0 0 0-2.74-1.135zm.899 4.772c-.48.48-1.317.48-1.796 0a1.258 1.258 0 0 1-.372-.898c0-.34.132-.657.372-.898.24-.24.558-.371.898-.371.34 0 .658.131.898.371.495.496.495 1.301 0 1.796zM18.225 22.103a3.848 3.848 0 0 0 2.74-1.135 3.848 3.848 0 0 0 1.136-2.74 3.847 3.847 0 0 0-1.135-2.738 3.85 3.85 0 0 0-2.74-1.135 3.85 3.85 0 0 0-2.74 1.135 3.844 3.844 0 0 0-1.136 2.739c0 1.034.403 2.007 1.135 2.739a3.853 3.853 0 0 0 2.74 1.135zm-.898-4.772c.24-.24.559-.372.898-.372.34 0 .66.132.899.372.24.24.372.558.372.898 0 .34-.133.658-.373.898-.48.48-1.315.48-1.795 0a1.26 1.26 0 0 1-.372-.898c0-.34.131-.659.371-.898z"/>
</svg>
