<svg viewBox="0 0 72 52" version="1.1" xmlns="http://www.w3.org/2000/svg">
    <g id="ICO" stroke="none" stroke-width="1" fill="none" fill-rule="evenodd">
        <g id="ChampionFX-ICO" transform="translate(-939.000000, -3112.000000)" fill="#004385">
            <g id="How-it-works" transform="translate(0.000000, 2768.000000)">
                <g id="Content" transform="translate(345.000000, 197.000000)">
                    <g id="Earn" transform="translate(595.000000, 148.000000)">
                        <path d="M69.9137608,37.6380312 C69.0580232,35.3275397 65.8917941,31.305573 60.0727785,32.5891794 C60.0727785,32.5891794 59.9872048,32.5891794 59.9872048,32.5891794 L47.835731,36.0977035 C46.9799935,33.2737695 44.3272069,31.2199993 41.2465516,31.2199993 L34.9996673,31.2199993 C33.7160609,31.2199993 32.4324545,30.8777042 31.3199956,30.2786879 C28.9239304,28.9095078 24.1317999,26.5990163 18.5695056,27.1124589 C18.5695056,27.1124589 18.4839319,27.1124589 18.4839319,27.1124589 C18.3127843,27.1124589 14.889834,27.7114752 12.1514737,28.3960652 L12.1514737,27.4547539 C12.1514737,26.6845901 11.5524574,26 10.6967198,26 L1.4547539,26 C0.684590069,26 0,26.5990163 0,27.4547539 L0,46.3665545 C0,47.1367184 0.59901631,47.8213084 1.4547539,47.8213084 L10.5255723,47.8213084 C11.2957361,47.8213084 11.9803262,47.2222921 11.9803262,46.3665545 L11.9803262,45.510817 L16.2590141,46.3665545 L35.1708148,49.8750786 C36.7111424,50.2173737 38.2514701,50.3885212 39.7917977,50.3885212 C42.2734367,50.3885212 44.8406495,49.9606524 47.2367147,49.0193411 C47.2367147,49.0193411 47.3222885,49.0193411 47.3222885,49.0193411 L69.2291707,39.4350801 C69.828187,39.1783588 70.170482,38.3226212 69.9137608,37.6380312 Z M9.07081841,44.9973744 L2.90950779,44.9973744 L2.90950779,28.9095078 L9.15639217,28.9095078 L9.15639217,44.9973744 L9.07081841,44.9973744 Z M46.1242559,46.4521283 C42.7868793,47.6501609 39.1927814,47.9068822 35.6842573,47.1367184 L16.7724567,43.6281943 L11.9803262,42.6868829 L11.9803262,31.305573 C11.9803262,31.305573 12.0659,31.305573 12.0659,31.305573 C14.547539,30.7065567 18.2272106,30.0219667 18.7406531,29.9363929 C23.4472099,29.5085241 27.640324,31.4767205 29.779668,32.6747532 C31.3199956,33.5304908 33.1170446,34.0439333 34.9140935,34.0439333 L41.1609779,34.0439333 C43.3858956,34.0439333 45.2685183,35.8409822 45.2685183,38.0659 L45.2685183,38.4937688 C45.2685183,38.5793425 45.1829445,38.6649163 45.0973708,38.6649163 L28.1537666,38.6649163 C27.3836027,38.6649163 26.6990127,39.2639326 26.6990127,40.1196702 C26.6990127,40.9754078 27.298029,41.6599978 28.1537666,41.6599978 L45.011797,41.6599978 C46.5521247,41.6599978 47.835731,40.547539 48.0068786,39.0927851 L60.6717948,35.4131134 C63.8380239,34.7285234 65.6350728,36.268851 66.5763842,37.4668836 L46.1242559,46.4521283 Z" id="Shape" stroke="#004385" fill-rule="nonzero"></path>
                        <path d="M42,25.6518015 C42.9631077,25.8794994 43.9675422,26 45,26 C52.1770833,26 58,20.1770833 58,13 C58,5.82291667 52.1770833,0 45,0 C43.9675422,0 42.9631077,0.120500608 42,0.348198535 C43.6101161,0.728862182 45.1047287,1.4091305 46.4216785,2.32684419 C51.7047554,3.0198003 55.765625,7.5237397 55.765625,13 C55.765625,18.4702814 51.6565472,22.9703638 46.4249541,23.6708725 C45.1072072,24.5897412 43.6114512,25.2708222 42,25.6518015 Z" id="Shape" stroke="#004385" fill-rule="nonzero"></path>
                        <path d="M39,26 C31.8229167,26 26,20.1770833 26,13 C26,5.82291667 31.8229167,0 39,0 C46.1770833,0 52,5.82291667 52,13 C52,20.1770833 46.1770833,26 39,26 Z M39,2.234375 C33.109375,2.234375 28.234375,7.04166667 28.234375,13 C28.234375,18.9583333 33.0416667,23.765625 39,23.765625 C44.890625,23.765625 49.765625,18.9583333 49.765625,13 C49.765625,7.04166667 44.9583333,2.234375 39,2.234375 Z" id="Shape" stroke="#004385" fill-rule="nonzero"></path>
                        <g id="Logo-/-Logogram" transform="translate(32.000000, 5.000000)">
                            <path d="M-3.81006716e-05,6.83025256 C2.22161206,7.53793466 4.03577554,8.4593265 5.89632659,9.82703086 C6.07397097,9.95757324 6.0782573,9.96469373 6.15017231,10.0270693 C6.12997896,10.0168157 6.06920839,9.99013763 5.93614179,9.92292017 C5.64686244,9.77690259 5.06830374,9.4845826 4.55480194,9.23365641 C4.04139539,8.98292011 3.59323624,8.7735776 3.03658543,8.55701966 C2.87437182,8.49397956 2.7029188,8.43046476 2.53413282,8.37027286 C2.3796346,8.91418361 2.23008946,9.66344939 2.28743097,10.1943534 C2.41487772,9.94570575 2.91104372,9.51031132 3.32557902,9.40739645 C2.75321168,10.2568238 2.48326842,11.4659786 3.60028487,12.6336445 C3.57723396,12.5881683 3.44435787,11.4234455 4.01558219,10.8732687 C3.97500497,12.2018578 5.03363213,13.704187 6.23370804,13.759442 C5.86822734,13.3087622 5.70820452,12.7726366 5.73020766,12.2779047 C6.53918017,13.4758565 8.4725035,14.2637628 8.48050464,14.2534144 C8.49298261,14.2371796 7.28481032,12.7244071 7.21175228,11.3851847 C7.90013616,12.6915579 8.4385939,12.6321255 9.44121308,14.159139 C9.59885461,13.6180765 9.48159979,13.285502 9.31614762,12.7207044 C10.1874147,13.2894894 10.6510047,13.8113741 11.1719361,14.4769029 C10.6083319,11.8913094 4.17150918,6.93221802 -3.81006716e-05,6.83025256" id="Fill-1"></path>
                            <path d="M3.9314178,2.86984364 C3.81921132,2.94589051 3.81340097,3.13254238 3.91874933,3.28662985 C4.02381193,3.44033757 4.20012279,3.50337767 4.31251977,3.42723586 C4.4248215,3.35090417 4.4305366,3.16434725 4.32537875,3.01025977 C4.22022089,2.85626724 4.04381478,2.79322713 3.9314178,2.86984364 M6.59608352,2.00873865 C6.48054324,2.04101822 6.42263022,2.19577027 6.46711275,2.35422498 C6.51159529,2.51305946 6.64151858,2.61549962 6.75715411,2.58331499 C6.87317066,2.5512253 6.93070267,2.39647324 6.88622014,2.23773371 C6.84192811,2.07908912 6.71190957,1.97664896 6.59608352,2.00873865 M7.5308835,3.12133947 C7.67614231,3.06342612 7.8823622,2.98623997 8.04800487,2.93212423 C8.2141238,2.87819836 8.33966551,2.84791252 8.40253162,2.83253226 C8.46530247,2.81734187 8.46530247,2.81734187 8.48349555,2.66781151 C8.50178387,2.51818621 8.53807476,2.21922043 8.5857006,1.9479771 C8.63332644,1.67682872 8.69228723,1.43378254 8.73753177,1.25434611 C8.78325258,1.07500462 8.8153524,0.958988046 8.83144993,0.901359519 C8.84754746,0.843446173 8.84754746,0.843446173 8.84745221,0.843636053 C8.84726171,0.844015813 8.84678545,0.844490512 8.77696597,0.939715244 C8.70695598,1.03503491 8.56712652,1.2252945 8.40234111,1.38175547 C8.23755571,1.53850127 8.04762386,1.66144845 7.90827066,1.7381599 C7.76910795,1.81487135 7.68023814,1.84468248 7.56555511,1.83651765 C7.45058634,1.82844775 7.30942335,1.78259178 7.18007157,1.67483498 C7.05100554,1.56707818 6.93384598,1.39761044 6.82687834,1.17545104 C6.72048222,0.953196711 6.62446852,0.678345667 6.55969738,0.489700063 C6.49483099,0.300769639 6.46139765,0.197949715 6.4443476,0.146587223 C6.42748805,0.0952247312 6.4275833,0.0949399114 6.42748805,0.0948449715 C6.42748805,0.0948449715 6.42748805,0.0948449715 6.39081616,0.260610057 C6.35471577,0.426754902 6.28222924,0.758664832 6.20764718,1.0685487 C6.13296986,1.37833763 6.05657801,1.66581569 5.96065957,1.88807002 C5.86445538,2.11003953 5.74920085,2.26659545 5.61165742,2.37862454 C5.474114,2.49036882 5.31428168,2.55796603 5.16178374,2.57723884 C5.0092858,2.59660658 4.86374124,2.56802966 4.6830488,2.47119096 C4.50254687,2.37435225 4.28632556,2.20925174 4.09658421,2.03987894 C3.90674762,1.87060108 3.74320048,1.69705092 3.60175174,1.53973548 C3.46001724,1.38279981 3.34057164,1.24190898 3.28084883,1.17117875 L3.22084028,1.10111309 C3.22084028,1.10111309 3.22093553,1.10111309 3.22998444,1.27172011 C3.23922385,1.44251701 3.25741692,1.78363612 3.23731882,2.04927799 C3.21712546,2.31472998 3.15911719,2.50432498 3.08396361,2.6542351 C3.00900054,2.80424016 2.91708267,2.91418058 2.79830383,2.98329684 C2.67971549,3.05250803 2.53493294,3.08080013 2.40634317,3.08051531 C2.27794391,3.08023049 2.16602318,3.05127381 2.11011045,3.03703283 L2.05410246,3.02241208 C2.05410246,3.02241208 2.05400721,3.02241208 2.3883406,3.32156774 C2.72276925,3.62062846 3.39115028,4.21884485 3.72557892,4.51790557 C4.06010282,4.81715617 4.06010282,4.81715617 4.17726239,4.79759855 C4.29489821,4.7782308 4.5298841,4.73911556 4.64771043,4.71955794 C4.76496525,4.70009526 4.76496525,4.70009526 4.79477902,4.61369994 C4.8247833,4.5274945 4.88479186,4.3552735 4.98404411,4.19036287 C5.08348686,4.02611682 5.22245906,3.86956091 5.3747665,3.77965281 C5.52726443,3.69002954 5.69357387,3.66695914 5.86093107,3.66002853 C6.02828827,3.65328779 6.19650273,3.6625919 6.28070521,3.66714902 C6.3647172,3.67189602 6.3647172,3.67189602 6.44949119,3.63126173 C6.53436044,3.59072239 6.70371792,3.50926395 6.84564292,3.44024263 C6.98756793,3.37112638 7.10167944,3.31425737 7.20112219,3.26640765 C7.30075545,3.21836806 7.38552944,3.17934775 7.5308835,3.12133947" id="Fill-4"></path>
                            <path d="M7.85422485,1.52780154 C7.80517024,1.55875195 7.73954183,1.59188598 7.65733963,1.59995587 C7.57523268,1.60774094 7.47645669,1.59008212 7.40149362,1.55447965 C7.32653055,1.51897213 7.27499939,1.46523614 7.23566045,1.41672184 C7.196131,1.36839743 7.16860327,1.32500989 7.15469652,1.30326865 C7.14107553,1.28143247 7.14098028,1.28124259 7.14078978,1.28124259 C7.14069452,1.28114765 7.14069452,1.28114765 7.17469937,1.23794999 C7.20879948,1.19522703 7.27699968,1.10892665 7.3631072,1.02338579 C7.44930996,0.937655047 7.5533248,0.852873707 7.60542747,0.810150746 C7.65762539,0.767807546 7.65762539,0.767807546 7.69344002,0.830562827 C7.7291594,0.893223169 7.80078866,1.01882867 7.85270083,1.13076283 C7.90461299,1.24288686 7.93661756,1.34143449 7.95252459,1.3907083 L7.96871737,1.43988718 C7.96871737,1.43988718 7.96862212,1.43979224 7.95233408,1.45422311 C7.9361413,1.46846409 7.90346997,1.49723089 7.85422485,1.52780154" id="Fill-7"></path>
                            <path d="M5.62102066,1.91618173 C5.5694895,1.99669077 5.48843032,2.10302347 5.40803791,2.17783612 C5.32755024,2.25321841 5.24763408,2.29708065 5.13618961,2.30581512 C5.0244594,2.31445466 4.88120087,2.28806136 4.76394605,2.24078128 C4.64659598,2.19350121 4.55534488,2.12552423 4.50962407,2.09134586 C4.46409377,2.05745231 4.46380801,2.05735738 4.46371276,2.0571675 C4.46361751,2.0571675 4.46361751,2.0571675 4.48485863,1.9860575 C4.50609976,1.91494751 4.54867726,1.77272752 4.61430567,1.59908242 C4.68002932,1.42543732 4.76899439,1.22046206 4.81347693,1.11783201 C4.85805471,1.01529691 4.85805471,1.01529691 4.9481628,1.07900159 C5.03827089,1.14280121 5.21867757,1.27011563 5.36193609,1.3885057 C5.50500412,1.50689577 5.61101923,1.61655137 5.66388392,1.67114182 C5.7169391,1.72592214 5.7169391,1.72592214 5.71684385,1.72601708 C5.71684385,1.72620696 5.7165581,1.72649178 5.7055089,1.75383448 C5.69455496,1.78127211 5.67255182,1.83576762 5.62102066,1.91618173" id="Fill-9"></path>
                            <path d="M2.89118374,2.61580343 C2.86241773,2.66612158 2.82050699,2.7265983 2.75183053,2.77216946 C2.68315407,2.81802544 2.58790239,2.84916573 2.50484293,2.85305827 C2.42206922,2.85723562 2.35139247,2.83454498 2.29357471,2.81062013 C2.23566168,2.78631551 2.19079814,2.76125137 2.16831875,2.74852942 C2.1459346,2.7360923 2.1457441,2.7360923 2.1455536,2.73599736 C2.14564885,2.73599736 2.14564885,2.73599736 2.15498351,2.68169173 C2.16441343,2.62767092 2.18355902,2.51991412 2.21851638,2.40370767 C2.25385476,2.28759615 2.3048144,2.16360463 2.33053236,2.10151393 C2.35615506,2.03970805 2.35615506,2.03970805 2.41759239,2.07796883 C2.47902972,2.11622961 2.60180914,2.19294106 2.70087089,2.26699419 C2.80002788,2.3412372 2.8748957,2.41253708 2.91242486,2.4485193 L2.94985877,2.48421671 C2.94985877,2.48421671 2.94985877,2.48431165 2.94233389,2.50462879 C2.93471376,2.52485099 2.91966399,2.56548528 2.89118374,2.61580343" id="Fill-11"></path>
                            <path d="M9.33575042,6.00944955 C9.31908137,5.99938592 9.34318005,6.00536713 9.2922204,5.98675891 C9.11057545,5.92058579 8.82948774,5.94527017 8.39561635,5.68143216 L8.28798195,5.78016966 C8.56821239,5.88783152 8.56316405,6.07771135 8.5575442,6.32351078 C8.68718174,6.16676498 9.04723308,6.10097163 9.33346438,6.10087669 L9.33575042,6.00944955 Z M7.22544947,4.98827586 C6.98112891,4.57984436 6.22883115,4.4505362 5.8149626,4.50759509 C5.87373289,4.59142703 6.0359465,4.69567106 6.04109009,4.86485398 C6.05975942,5.48452678 3.92383577,5.24708206 3.49101214,5.92523785 C4.32560735,5.3784789 6.87711408,5.69092615 6.2742662,4.71086144 C6.66651262,4.69187346 7.11419551,4.89675379 7.22544947,4.98827586 L7.22544947,4.98827586 Z M7.58426254,3.95523469 C7.76400246,3.8727319 7.95774438,3.7889949 8.10833728,3.73668301 C8.25883494,3.68437112 8.36627883,3.6633894 8.42000078,3.65294601 C8.47362747,3.64240768 8.47362747,3.64240768 8.50286974,3.69595379 C8.53201675,3.7494999 8.59040603,3.85640224 8.61841002,3.97279857 C8.64641402,4.08909996 8.64403273,4.21489534 8.63584108,4.29274607 C8.62764944,4.3705968 8.61364744,4.40097757 8.60669407,4.41607302 C8.59964544,4.43116846 8.59964544,4.43116846 8.55297212,4.34971002 C8.5062988,4.26834651 8.41295215,4.10533469 8.36627883,4.02397118 C8.31960551,3.94251274 8.31960551,3.94251274 8.23549827,3.95058263 C8.15148629,3.9588424 7.98346233,3.97507713 7.77562317,4.01817985 C7.56787926,4.06118763 7.32051064,4.13096846 7.19677871,4.16581141 C7.07304678,4.2007493 7.07304678,4.2007493 7.15591574,4.16011502 C7.2387847,4.11938579 7.40461788,4.03792735 7.58426254,3.95523469 L7.58426254,3.95523469 Z M7.53215988,6.64174936 C6.61079038,7.28952438 6.90264153,8.81606321 7.86896981,9.02122836 C8.66994118,9.19136068 9.10886092,9.08749642 9.71618562,9.80723589 C9.83639324,9.96512096 9.91288034,10.1982934 10.3042695,9.89011843 C10.1694884,9.5398851 10.4279062,9.24747017 10.4363836,8.8976166 L10.415714,8.9202123 C10.4130469,8.92325037 10.4007594,8.93787112 10.3971399,8.94166872 C10.2930298,9.05464721 10.1919678,9.05920433 10.0292779,9.06850844 C9.9953683,8.96901141 9.96841207,8.94100414 9.91469012,8.87976789 C9.70418391,8.95847308 9.32479648,8.82033551 9.29260141,8.60396745 C9.28783882,8.58488453 9.2835525,8.56561173 9.27955193,8.54614904 L9.33108309,8.55061122 C9.48005671,8.56314329 9.59797829,8.56902956 9.71085153,8.56874474 C9.82362952,8.56845992 9.93145442,8.56219389 10.0456612,8.53561071 C10.1599632,8.50921742 10.2807423,8.46260192 10.345704,8.42984765 C10.4106656,8.39709338 10.4198098,8.3781054 10.4016167,8.37022539 C10.3834236,8.36234538 10.3380838,8.36566827 10.2559769,8.35949718 C10.1739652,8.35323114 10.0551864,8.33747112 9.93736002,8.31734386 C9.8195337,8.29731154 9.70275514,8.27281704 9.59912131,8.22667624 C9.49548748,8.18044051 9.40518889,8.11265341 9.34537084,8.06394923 C9.33098783,8.05227163 9.31850986,8.04163836 9.3066034,8.03138485 C9.34117976,7.94166663 9.39499696,7.85982843 9.47319859,7.79299073 C9.57702292,7.70422191 9.60055009,7.70365227 9.76104917,7.74447643 C9.94078908,7.79014253 10.1671071,7.9330271 10.2995069,8.01182722 L10.3900913,7.87653785 C10.603836,8.01571976 10.6492711,8.3174388 10.6396507,8.56437751 C10.8656829,8.48500774 11.2102082,7.66225847 11.0858095,7.30015765 C11.1558195,7.22401584 11.1809659,7.2248703 11.2534525,7.1171135 C11.2969825,7.05245942 11.3603249,6.94147466 11.3828995,6.86495309 L9.70237413,5.91194626 L9.80981803,5.65427934 C8.11786245,4.77361672 9.81905744,4.49553772 8.68375268,3.2159376 C8.55278162,3.06830603 6.85482519,3.77940597 6.43438427,4.0218825 C5.02551669,3.85042102 5.15582099,4.93378035 5.03132704,4.9540975 C3.92621706,5.13419851 3.2166873,5.40401774 3.05104463,6.29009193 C3.41528705,6.14739724 3.60931472,6.14303001 4.00889552,6.22183013 C4.0051807,6.22572267 3.99984661,6.22657713 3.99794157,6.23379256 C3.7353327,6.4334512 3.50910996,6.63643273 3.31708257,6.84681957 C2.47972506,6.63197055 1.18658827,6.69577017 0.785959705,6.73260686 C5.36747022,7.51709534 9.18639579,10.3306396 11.3860428,12.8250909 C11.2049694,11.8703751 10.3932346,11.0973743 9.63055437,10.5383681 C8.55573442,9.75055676 8.01279985,9.47978813 7.21420977,8.90530673 C6.75252488,8.57330186 6.70299401,8.07856998 6.71709126,7.78957289 C6.76757465,6.74409459 7.53215988,6.64174936 7.53215988,6.64174936 L7.53215988,6.64174936 Z" id="Fill-13"></path>
                        </g>
                    </g>
                </g>
            </g>
        </g>
    </g>
</svg>