<svg xmlns="http://www.w3.org/2000/svg" viewBox="0 0 32 32">
    <path fill="#004385" fill-rule="evenodd" d="M26.609 25.108l-8.57-8.61c.467-.512.894-1.06 1.278-1.638a4.891 4.891 0 0 0 .72-2.676 4.198 4.198 0 0 0-1.18-3.177 4.64 4.64 0 0 0-3.335-1.038 4.754 4.754 0 0 0-3.236 1.099 3.501 3.501 0 0 0-.8 1.018L6.893 5.491a13.99 13.99 0 0 1 9.15-3.515c7.722.004 13.979 6.269 13.975 13.99a13.988 13.988 0 0 1-3.408 9.143zM13.184 11.684a1.999 1.999 0 0 1 .64-1.357 2.614 2.614 0 0 1 1.698-.56 2.32 2.32 0 0 1 1.758.639 2.58 2.58 0 0 1 .619 1.837 3.128 3.128 0 0 1-.46 1.72 10.78 10.78 0 0 1-.84 1.138l-3.415-3.417zm2.858 18.258C8.318 29.94 2.06 23.674 2.065 15.952A13.99 13.99 0 0 1 5.473 6.81l9.829 9.83a4.268 4.268 0 0 0-.78 1.059 6.834 6.834 0 0 0-.278 2.256H16.4a6.549 6.549 0 0 1 .12-1.518c.036-.168.097-.328.18-.479l8.489 8.49a13.984 13.984 0 0 1-9.148 3.495zM26.565 3.974c-6.032-5.299-15.06-5.299-21.092 0L4.055 5.372C-1.82 11.96-1.243 22.061 5.344 27.936c6.058 5.401 15.203 5.406 21.265.01l.699-.7.719-.7v-.02c5.824-6.631 5.17-16.729-1.462-22.552zM14.044 23.95h1.998v-1.998h-1.998v1.998z"/>
</svg>
