<svg viewBox="0 0 23 80" version="1.1" xmlns="http://www.w3.org/2000/svg">
    <g id="ICO" stroke="none" stroke-width="1" fill="none" fill-rule="evenodd">
        <g id="ChampionFX-ICO" transform="translate(-709.000000, -419.000000)" fill-rule="nonzero" fill="#BFD0E0">
            <g id="Pre-announcement">
                <g id="Content" transform="translate(309.000000, 167.000000)">
                    <g id="Hourglass" transform="translate(400.000000, 252.000000)">
                        <path d="M18.6666667,2.31111111 C19.9111111,2.31111111 20.9777778,3.37777778 20.9777778,4.62222222 L20.9777778,28.7111111 C20.9777778,30.0444444 20.4444444,31.2888889 19.5555556,32.1777778 L17.1555556,34.5777778 C16,35.7333333 15.2888889,37.3333333 15.2888889,39.0222222 C15.2888889,40.7111111 15.9111111,42.3111111 17.1555556,43.4666667 L19.5555556,45.8666667 C20.4444444,46.7555556 20.9777778,48 20.9777778,49.3333333 L20.9777778,75.8222222 C20.9777778,77.0666667 19.9111111,78.1333333 18.6666667,78.1333333 L3.91111111,78.1333333 C2.66666667,78.1333333 1.6,77.0666667 1.6,75.8222222 L1.6,49.4222222 C1.6,48.0888889 2.13333333,46.8444444 3.02222222,45.9555556 L5.51111111,43.4666667 C6.66666667,42.3111111 7.37777778,40.7111111 7.37777778,39.0222222 C7.37777778,37.3333333 6.75555556,35.7333333 5.51111111,34.5777778 L3.02222222,32.0888889 C2.13333333,31.2 1.6,29.9555556 1.6,28.6222222 L1.6,4.62222222 C1.6,3.37777778 2.66666667,2.31111111 3.91111111,2.31111111 L18.6666667,2.31111111 L18.6666667,2.31111111 Z M18.6666667,0.622222222 L3.91111111,0.622222222 C1.77777778,0.622222222 0,2.4 0,4.53333333 L0,28.5333333 C0,30.2222222 0.711111111,31.9111111 1.95555556,33.1555556 L4.44444444,35.6444444 C6.22222222,37.4222222 6.22222222,40.4444444 4.44444444,42.2222222 L1.95555556,44.7111111 C0.711111111,45.9555556 0,47.5555556 0,49.3333333 L0,75.7333333 C0,77.8666667 1.77777778,79.6444444 3.91111111,79.6444444 L18.6666667,79.6444444 C20.8,79.6444444 22.5777778,77.8666667 22.5777778,75.7333333 L22.5777778,49.2444444 C22.5777778,47.5555556 21.8666667,45.8666667 20.6222222,44.6222222 L18.2222222,42.2222222 C16.4444444,40.4444444 16.4444444,37.4222222 18.2222222,35.6444444 L20.6222222,33.2444444 C21.8666667,32 22.5777778,30.4 22.5777778,28.6222222 L22.5777778,4.62222222 C22.5777778,2.4 20.8,0.622222222 18.6666667,0.622222222 L18.6666667,0.622222222 Z" id="Shape"></path>
                        <path d="M16.5333333,76.8 L6.04444444,76.8 C4.35555556,76.8 3.02222222,75.4666667 3.02222222,73.7777778 L3.02222222,72.3555556 L11.2888889,67.5555556 L19.5555556,72.3555556 L19.5555556,73.7777778 C19.5555556,75.4666667 18.2222222,76.8 16.5333333,76.8 Z" id="Shape"></path>
                        <path d="M17.3333333,32.6222222 C18.4888889,31.5555556 19.3777778,30.4 19.3777778,28.8888889 L19.3777778,10.3111111 L3.2,10.3111111 L3.2,28.8 C3.2,30.3111111 4.08888889,31.2888889 5.24444444,32.5333333 C5.24444444,32.5333333 7.91111111,34.8444444 8.08888889,36 C8.26666667,36.8 10.7555556,37.2444444 10.8444444,37.7777778 L11.2888889,38.5777778 L11.6444444,37.7777778 C11.7333333,37.2444444 14.3111111,36.6222222 14.4888889,35.8222222 C14.7555556,34.6666667 17.3333333,32.6222222 17.3333333,32.6222222 Z" id="Shape"></path>
                    </g>
                </g>
            </g>
        </g>
    </g>
</svg>