<svg xmlns="http://www.w3.org/2000/svg" viewBox="0 0 30 30">
    <path fill="#004385" fill-rule="evenodd" d="M27 10.015a1 1 0 1 1 0-2 1 1 0 0 1 0 2zm-4.591 10H7.592l-1.756-7.61 3.376 1.448a2 2 0 0 0 2.538-.868L15 7.136l3.25 5.849a2 2 0 0 0 2.536.867l3.378-1.447-1.755 7.61zM8 24.015h14v-2H8v2zm7-22a1 1 0 1 1 0 2.002 1 1 0 0 1 0-2.002zm-12 8a1 1 0 1 1 0-2 1 1 0 0 1 0 2zm24-4a3 3 0 0 0-2.757 4.182L20 12.015l-3.55-6.388a3 3 0 1 0-2.9-5.252 3 3 0 0 0 0 5.252L10 12.015l-4.242-1.818A3 3 0 1 0 3 12.015c.226-.002.452-.03.674-.082L6 22.014v2a2 2 0 0 0 2 2H22a2 2 0 0 0 2-2v-2l2.326-10.08c.222.053.448.08.674.08a2.999 2.999 0 1 0 0-5.998z"/>
</svg>
