<?xml version="1.0" encoding="UTF-8"?>
<svg width="28px" height="35px" viewBox="0 0 28 35" version="1.1" xmlns="http://www.w3.org/2000/svg" xmlns:xlink="http://www.w3.org/1999/xlink">
    <!-- Generator: Sketch 45.1 (43504) - http://www.bohemiancoding.com/sketch -->
    <title>Logo / Logogram</title>
    <desc>Created with Sketch.</desc>
    <defs></defs>
    <g id="ICO" stroke="none" stroke-width="1" fill="none" fill-rule="evenodd">
        <g id="ChampionFX-ICO" transform="translate(-294.000000, -12.000000)" fill="#FFFFFF">
            <g id="Pre-announcement">
                <g id="Navigation-Bar" transform="translate(294.000000, 12.000000)">
                    <g id="Logo-/-Logogram">
                        <path d="M9.66801186,6.75320277 C9.3920801,6.9382695 9.37779161,7.3925032 9.63685827,7.76748859 C9.89522222,8.14154981 10.3287958,8.29496343 10.6051961,8.10966565 C10.8813621,7.92390579 10.8954163,7.46990314 10.6368181,7.09491774 C10.3782199,6.72016339 9.9444121,6.56674978 9.66801186,6.75320277 M16.2208056,4.6576282 C15.9366756,4.73618337 15.7942592,5.11278607 15.9036481,5.49839952 C16.013037,5.88493715 16.3325369,6.13423428 16.6169012,6.05591015 C16.9022025,5.97781708 17.0436819,5.60121437 16.934293,5.21490779 C16.8253726,4.82883225 16.5056384,4.57953513 16.2208056,4.6576282 M18.5196124,7.36523993 C18.162166,7.50640819 17.9536946,7.60136752 17.7086822,7.71827609 C17.4641382,7.83472257 17.1835217,7.97311829 16.8345079,8.14131876 C16.485494,8.30928819 16.0690197,8.50752446 15.8603141,8.60618051 C15.6518428,8.7050676 15.6518428,8.7050676 15.4452453,8.69351537 C15.2381794,8.68242523 14.824516,8.65978286 14.4129607,8.67618702 C14.0014054,8.69305328 13.5924268,8.74919712 13.2174125,8.96730323 C12.8428668,9.18610247 12.5011143,9.56709502 12.2565704,9.96680219 C12.0124949,10.3681267 11.8649253,10.7872416 11.7911405,10.9970301 C11.7178241,11.2072807 11.7178241,11.2072807 11.4294778,11.2546448 C11.139726,11.30224 10.5618621,11.3974304 10.2725788,11.4445635 C9.98446671,11.4921587 9.98446671,11.4921587 9.16182464,10.7639061 C8.33941682,10.0361156 6.69577235,8.58030351 5.87336452,7.85251301 C5.05119093,7.12449145 5.05142517,7.12449145 5.05142517,7.12449145 L5.18915681,7.16007232 C5.32665422,7.19472901 5.60188327,7.26519762 5.91763541,7.26589075 C6.23385602,7.26658389 6.589897,7.19773259 6.88152268,7.02930108 C7.17361683,6.8611006 7.39965601,6.59355095 7.58400091,6.22850047 C7.76881429,5.86368104 7.91146492,5.40228497 7.96112327,4.75628425 C8.01054738,4.10982144 7.96580802,3.27967817 7.94308698,2.86402893 C7.92083442,2.44884177 7.92060018,2.44884177 7.92060018,2.44884177 L8.0681698,2.61935269 C8.21503671,2.79148092 8.50877052,3.13435112 8.85731591,3.51626785 C9.20515858,3.89910876 9.60734435,4.3214583 10.0741797,4.73341083 C10.5407807,5.14559441 11.0724998,5.54738098 11.5163799,5.78304647 C11.9607284,6.01871197 12.3186433,6.0882564 12.6936575,6.0411233 C13.0686717,5.99422124 13.4617222,5.82971749 13.7999612,5.55777798 C14.1382001,5.28514535 14.4216275,4.9041528 14.6582073,4.36397051 C14.8940845,3.82309509 15.081943,3.12349202 15.2655852,2.36959347 C15.4489931,1.61546388 15.6272478,0.807731941 15.7160239,0.403403881 C15.8062053,0 15.8062053,0 15.8062053,0 C15.8064395,0.000231044605 15.8062053,0.000924178422 15.8476653,0.12591931 C15.8895938,0.250914442 15.9718112,0.501135749 16.1313269,0.960914514 C16.2906084,1.42000015 16.5267198,2.08887428 16.7883631,2.6297497 C17.0514118,3.17039408 17.3395239,3.5828087 17.6569157,3.84504432 C17.9750102,4.10727995 18.3221502,4.2188745 18.6048748,4.23851329 C18.8868968,4.25838312 19.1054403,4.18583512 19.4476613,3.99915108 C19.7903508,3.81246703 20.2574203,3.51326427 20.6626512,3.13180963 C21.067882,2.75104812 21.4117427,2.28803473 21.5839072,2.05606594 C21.7556033,1.8243282 21.7567745,1.82317298 21.757243,1.8222488 C21.7574772,1.82178671 21.7574772,1.82178671 21.7178911,1.96272392 C21.6783049,2.102968 21.5993669,2.38530451 21.4869329,2.82174777 C21.3756701,3.25842207 21.2306771,3.84989626 21.1135583,4.50975965 C20.9964396,5.16985409 20.9071951,5.89741355 20.8622215,6.26153985 C20.8174821,6.62543511 20.8174821,6.62543511 20.6631196,6.66240224 C20.5085229,6.69983147 20.1997979,6.7735347 19.7912877,6.90476803 C19.3839487,7.03646346 18.8768245,7.22430272 18.5196124,7.36523993 Z M19.314755,3.48722554 C19.1941226,3.56254609 19.032733,3.64318065 18.8305861,3.66281944 C18.6286733,3.6817651 18.3857691,3.6387908 18.2014242,3.55214908 C18.0170793,3.4657384 17.8903568,3.33496715 17.7936167,3.21690336 C17.6964081,3.09930165 17.6287135,2.99371427 17.5945148,2.94080505 C17.5610189,2.88766479 17.5607846,2.8872027 17.5603162,2.8872027 C17.5600819,2.88697166 17.5600819,2.88697166 17.6437047,2.78184636 C17.7275617,2.67787629 17.8952758,2.46785674 18.1070265,2.25968555 C18.3190114,2.05105228 18.5747987,1.84472944 18.7029266,1.74075937 C18.8312888,1.63771348 18.8312888,1.63771348 18.9193621,1.79043396 C19.0072011,1.9429234 19.1833477,2.24859541 19.3110072,2.520997 C19.4386666,2.79386068 19.5173704,3.03368498 19.556488,3.15359713 L19.5963084,3.27327824 C19.5963084,3.27327824 19.5960742,3.27304719 19.5560196,3.30816597 C19.5161992,3.34282267 19.4358557,3.41282918 19.314755,3.48722554 Z M13.8229867,4.43238282 C13.6962642,4.62830864 13.4969281,4.8870786 13.2992317,5.06914175 C13.101301,5.25259117 12.9047758,5.35933377 12.6307179,5.38058988 C12.3559573,5.40161494 12.0036641,5.33738454 11.7153178,5.22232432 C11.4267372,5.10726411 11.2023377,4.94183617 11.0899037,4.85866011 C10.9779382,4.77617719 10.9772355,4.77594614 10.9770012,4.77548405 C10.976767,4.77548405 10.976767,4.77548405 11.0290019,4.60243165 C11.0812369,4.42937924 11.1859411,4.08327442 11.3473307,3.66069383 C11.5089546,3.23811325 11.7277324,2.73928795 11.8371213,2.48952873 C11.9467444,2.24000055 11.9467444,2.24000055 12.1683331,2.39503148 C12.3899218,2.55029346 12.8335676,2.86012428 13.1858608,3.1482369 C13.5376855,3.43634952 13.7983918,3.70320604 13.9283936,3.83605669 C14.0588639,3.96936943 14.0588639,3.96936943 14.0586296,3.96960047 C14.0586296,3.97006256 14.0579269,3.97075569 14.0307554,4.03729654 C14.0038181,4.10406843 13.9497092,4.23668803 13.8229867,4.43238282 Z M7.10992765,6.13497362 C7.03918793,6.25742726 6.93612344,6.40460267 6.76723821,6.51550408 C6.59835298,6.62709863 6.36411549,6.70288126 6.15986039,6.71235409 C5.95630802,6.72252005 5.7825038,6.66730039 5.64032164,6.60907715 C5.49790525,6.54992973 5.38757939,6.48893395 5.33229934,6.45797398 C5.27725353,6.42770713 5.27678506,6.42770713 5.27631658,6.42747609 C5.27655082,6.42747609 5.27655082,6.42747609 5.29950609,6.29531857 C5.32269561,6.16385419 5.36977734,5.90161857 5.4557425,5.61881997 C5.54264461,5.33625242 5.66796167,5.03450816 5.73120579,4.88340499 C5.79421567,4.73299495 5.79421567,4.73299495 5.94529885,4.82610593 C6.09638203,4.9192169 6.39831416,5.10590095 6.64192115,5.28611574 C6.88576238,5.46679262 7.06987304,5.64030712 7.16216261,5.72787302 L7.25421795,5.81474579 C7.25421795,5.81474579 7.25421795,5.81497684 7.23571319,5.86442038 C7.21697419,5.91363289 7.17996466,6.01251998 7.10992765,6.13497362 Z M22.958038,14.3937092 C22.9170465,14.3692185 22.9763086,14.3837743 22.8509915,14.3384896 C22.4043006,14.1774515 21.7130658,14.2375231 20.646114,13.5954501 L20.3814256,13.8357365 C21.0705523,14.0977411 21.0581377,14.5598303 21.0443177,15.1580048 C21.363115,14.7765502 22.2485327,14.6164362 22.9524163,14.6162052 L22.958038,14.3937092 Z M17.7685064,11.9085935 C17.1676873,10.9146396 15.3176796,10.5999568 14.2999177,10.7388146 C14.4444422,10.942827 14.8433487,11.196514 14.8559975,11.6082355 C14.901908,13.1162636 9.64936655,12.5384211 8.5849914,14.1887727 C10.6373803,12.8581868 16.9118999,13.6185546 15.4294109,11.2334811 C16.3940008,11.1872722 17.494917,11.6858665 17.7685064,11.9085935 L17.7685064,11.9085935 Z M18.6508791,9.39459712 C19.0928852,9.19381936 19.5693243,8.99003802 19.9396537,8.86273244 C20.309749,8.73542686 20.5739689,8.684366 20.7060788,8.6589511 C20.8379545,8.63330515 20.8379545,8.63330515 20.9098654,8.7636143 C20.9815421,8.89392346 21.1251297,9.15407969 21.1939955,9.43734037 C21.2628613,9.72037001 21.2570054,10.0265041 21.2368609,10.2159607 C21.2167165,10.4054173 21.1822836,10.4793515 21.1651843,10.5160876 C21.1478507,10.5528237 21.1478507,10.5528237 21.0330743,10.3545875 C20.918298,10.1565822 20.6887452,9.75987864 20.5739689,9.56187342 C20.4591925,9.36363714 20.4591925,9.36363714 20.2523608,9.38327594 C20.0457633,9.40337682 19.6325684,9.44288544 19.1214622,9.54777969 C18.6105902,9.6524429 18.0022754,9.82226069 17.698001,9.90705406 C17.3937265,9.99207847 17.3937265,9.99207847 17.5975131,9.89319138 C17.8012997,9.79407324 18.2091072,9.59583697 18.6508791,9.39459712 L18.6508791,9.39459712 Z M18.5227512,15.9324663 C18.5227512,15.9324663 16.6425268,16.1815324 16.518381,18.7257956 C16.4837138,19.4290954 16.6055173,20.6330688 17.7408664,21.4410318 C19.7047135,22.8390827 21.0398672,23.4980219 23.6830031,25.4152301 C25.5585426,26.7756207 27.5547145,28.6567859 28,30.9801704 C22.5907536,24.9097045 13.19947,18.0626976 1.93288092,16.153576 C2.9180838,16.0639307 6.09809197,15.9086687 8.15727374,16.4315227 C8.62949652,15.9195278 9.18581056,15.4255545 9.83160332,14.9396677 C9.83628807,14.9221083 9.84940537,14.9200289 9.85854063,14.910556 C8.87591436,14.718789 8.3987726,14.7294171 7.50304843,15.0766771 C7.91038743,12.9203378 9.65522249,12.263709 12.3728459,11.8254174 C12.6789943,11.7759739 12.3585574,9.13952388 15.8231641,9.55679043 C16.8570884,8.96670251 21.0326059,7.23617842 21.3546824,7.59545278 C24.1465591,10.709472 19.9630775,11.3862016 24.123838,13.5293714 L23.8596181,14.1564264 L27.9922702,16.4756522 C27.9367559,16.6618741 27.7809879,16.9319653 27.6739414,17.0893067 C27.4956867,17.3515423 27.433848,17.3494629 27.2616834,17.5347607 C27.5675976,18.4159648 26.7203606,20.4181973 26.164515,20.6113506 C26.188173,20.0104036 26.0764417,19.2761439 25.5508128,18.9374325 L25.328053,19.266671 C25.0024628,19.074904 24.4459146,18.7271819 24.0039084,18.6160494 C23.6092182,18.5167002 23.5513616,18.5180865 23.2960427,18.7341132 C23.1037337,18.8967686 22.9713896,19.0959291 22.8863614,19.3142662 C22.915641,19.339219 22.9463262,19.365096 22.981696,19.3935145 C23.1287972,19.5120404 23.3508543,19.6770062 23.6057047,19.789525 C23.8605551,19.9018126 24.1477302,19.9614222 24.437482,20.0101726 C24.7272338,20.059154 25.0193279,20.0975074 25.2210064,20.1127564 C25.4229191,20.1277743 25.5344162,20.1196877 25.5791555,20.1388644 C25.6238949,20.1580411 25.6014081,20.20425 25.4416581,20.2839604 C25.2819082,20.3636708 24.984895,20.4771137 24.70381,20.5413441 C24.4229593,20.6060366 24.1578025,20.6212855 23.8804653,20.6219787 C23.6028938,20.6226718 23.3129078,20.608347 22.9465604,20.5778492 L22.8198379,20.5669901 C22.8296759,20.6143542 22.8402166,20.6612563 22.8519284,20.7076962 C22.9311007,21.2342469 23.8640686,21.5704168 24.3817335,21.3788808 C24.5138434,21.5279046 24.5801326,21.5960627 24.6635212,21.8381975 C25.0635988,21.8155551 25.3121248,21.804465 25.5681464,21.5295219 C25.5770474,21.5202801 25.607264,21.4846992 25.6138227,21.4773058 L25.6646522,21.4223172 C25.6438051,22.2737166 25.0083188,22.9853339 25.3397648,23.8376575 C24.377283,24.5876283 24.1891903,24.0201827 23.8935826,23.6359556 C22.4000843,21.8844064 21.320718,22.1371692 19.3510149,21.7231373 C16.9746756,21.2238499 16.2569719,17.5088837 18.5227512,15.9324663 Z M0,16.3912054 C10.2584309,16.6393473 26.0874977,28.7077312 27.473481,35 C26.1924361,33.3803773 25.0524023,32.1103251 22.909832,30.7261369 C23.3167025,32.1006212 23.6050488,32.9099705 23.2173858,34.2266937 C20.751802,30.5105723 19.4276574,30.6552062 17.7348231,27.4760324 C17.9144832,30.7351476 20.8855516,34.4166124 20.8548665,34.456121 C20.8351905,34.4813049 16.0808722,32.5638657 14.0914932,29.6485448 C14.0373843,30.8525183 14.4309033,32.1572272 15.3296725,33.2539959 C12.3785144,33.119528 9.77519893,29.4634781 9.87498411,26.2302399 C8.47026188,27.5691434 8.79702318,30.4035986 8.85370865,30.514269 C6.1068056,27.6726514 6.77063465,24.7300673 8.17816773,22.6629112 C7.15876617,22.9133636 5.93862309,23.9729341 5.62521332,24.5780399 C5.48420235,23.2860385 5.85195521,21.4626345 6.23188842,20.1389799 C6.64695726,20.2854622 7.06858474,20.4400311 7.46749118,20.5934447 C8.83637507,21.1204574 9.93846247,21.6299108 11.2010025,22.2400996 C12.4637768,22.8507505 13.8865354,23.5621368 14.5979146,23.9174834 C14.9251444,24.081063 15.0745879,24.1459865 15.1242463,24.1709393 C14.947397,24.019143 14.9368563,24.0018147 14.5000033,23.6841284 C9.92464245,20.3556998 5.46335522,18.1134119 0,16.3912054 Z" id="CHFX"></path>
                    </g>
                </g>
            </g>
        </g>
    </g>
</svg>