<svg xmlns="http://www.w3.org/2000/svg" viewBox="0 0 46 52">
    <g fill="#004385" fill-rule="evenodd">
        <path stroke="#004385" stroke-width="2" d="M8.274 16.664c3.777-5.11 8.94-8.765 14.565-8.765 5.065 0 9.769 2.962 13.416 7.292 1.91 2.267 3.517 4.905 4.734 7.65h-.006c1.005 2.265 1.74 4.604 2.156 6.87.01.05.017.1.027.152.236 1.336.363 2.645.363 3.896v.002c0 4.24-2.263 8.093-6 10.92-3.735 2.827-8.936 4.597-14.69 4.597-5.755 0-10.955-1.77-14.691-4.597C4.412 41.854 2.149 38 2.149 33.76v-.003c0-2.041.33-4.235.94-6.45l.005-.013c.098-.356.204-.713.317-1.07l.021-.067c.112-.35.23-.7.354-1.048l.015-.041a33.125 33.125 0 0 1 4.473-8.405m7.758-14.512h13.614c-.2 1.515-1.13 3.534-2.55 5.244a14.689 14.689 0 0 0-4.257-.646c-1.46 0-2.883.233-4.257.646-1.42-1.71-2.35-3.729-2.55-5.244M44.403 30.33c0-.004.003-.008.002-.014a.64.64 0 0 0-.014-.093l-.016-.089a27.07 27.07 0 0 0-.145-.83c-.018-.1-.039-.2-.059-.3-.178-.885-.4-1.776-.667-2.667-.036-.119-.07-.238-.107-.357a31.07 31.07 0 0 0-.256-.784c-.044-.132-.092-.264-.139-.396-.232-.655-.479-1.31-.755-1.958h-.008c-1.283-3.008-3.026-5.9-5.122-8.388-2.506-2.974-5.523-5.372-8.872-6.663 1.585-2.007 2.64-4.31 2.64-6.214a.575.575 0 0 0-.575-.574H15.368a.566.566 0 0 0-.108 0 .574.574 0 0 0-.467.574c0 1.904 1.055 4.207 2.64 6.214-3.908 1.504-7.374 4.512-10.093 8.19C3.42 21.283 1 27.986 1 33.761c0 4.65 2.487 8.839 6.448 11.836 3.96 2.996 9.401 4.83 15.391 4.83s11.431-1.834 15.391-4.83c3.96-2.997 6.448-7.186 6.448-11.836 0-1.114-.1-2.264-.275-3.43"/>
        <path fill-rule="nonzero" d="M22.538 17.154c-.85 0-1.538.689-1.538 1.538v.914c-1.014.197-1.943.6-2.716 1.226a5.19 5.19 0 0 0-1.9 4.014c0 1.752 1.038 3.147 2.188 3.846 1.15.7 2.357 1.01 3.39 1.419 1.412.56 3.644 1.052 3.653 2.427 0 .722-.263 1.177-.769 1.587-.506.41-1.306.721-2.308.721-1.581 0-2.794-.995-3.293-1.827-.415-.692-1.423-.944-2.115-.529-.692.416-.944 1.423-.529 2.116.836 1.393 2.383 2.67 4.399 3.125v.961a1.538 1.538 0 0 0 3.077 0v-.913a6.254 6.254 0 0 0 2.716-1.25 5.14 5.14 0 0 0 1.9-3.99c0-1.752-1.038-3.171-2.188-3.87-1.15-.7-2.357-1.011-3.39-1.419-1.402-.56-3.644-1.055-3.653-2.404 0-.722.262-1.2.769-1.61.506-.41 1.306-.698 2.307-.698 1.582 0 2.795.972 3.294 1.803.415.693 1.423.945 2.115.53.692-.416.944-1.424.529-2.116-.836-1.393-2.383-2.652-4.4-3.101v-.962c0-.85-.688-1.538-1.538-1.538z"/>
    </g>
</svg>
