<svg xmlns="http://www.w3.org/2000/svg" viewBox="0 0 32 32">
    <g fill="#004385" fill-rule="nonzero" stroke="#004385" stroke-width=".5">
        <path d="M9.077 31H1.494A.494.494 0 0 1 1 30.506v-7.583c0-.273.221-.494.494-.494h7.583c.273 0 .494.221.494.494v7.583a.494.494 0 0 1-.494.494zm-7.088-.989h6.593v-6.593H1.99v6.593zM19.791 31H12.21a.494.494 0 0 1-.495-.494v-7.583c0-.273.222-.494.495-.494h7.582c.273 0 .495.221.495.494v7.583a.494.494 0 0 1-.495.494zm-7.088-.989h6.594v-6.593h-6.594v6.593zM19.791 9.571H12.21a.494.494 0 0 1-.495-.494V1.495c0-.274.222-.495.495-.495h7.582c.273 0 .495.221.495.495v7.582a.494.494 0 0 1-.495.494zm-7.088-.988h6.594V1.989h-6.594v6.594zM30.506 31h-7.583a.494.494 0 0 1-.494-.494v-7.583c0-.273.221-.494.494-.494h7.583c.273 0 .494.221.494.494v7.583a.494.494 0 0 1-.494.494zm-7.088-.989h6.593v-6.593h-6.593v6.593z"/>
        <path d="M15.506 9.077h1v13.846h-1z"/>
        <path d="M27.209 22.923h-.989v-6.429H5.34v6.43h-.988V16c0-.273.221-.494.494-.494h21.868c.274 0 .495.221.495.494v6.923z"/>
    </g>
</svg>
