<svg viewBox="0 0 70 63" version="1.1" xmlns="http://www.w3.org/2000/svg">
    <g id="ICO" stroke="none" stroke-width="1" fill="none" fill-rule="evenodd">
        <g id="ChampionFX-ICO" transform="translate(-430.000000, -2968.000000)" fill="#004385">
            <g id="How-it-works" transform="translate(0.000000, 2768.000000)">
                <g id="Content" transform="translate(345.000000, 197.000000)">
                    <g id="Purchase" transform="translate(85.000000, 3.000000)">
                        <path d="M23.5869565,0.251802174 C17.4086728,0.251802174 11.7971989,1.4744663 7.53736413,3.6043837 C3.61817811,5.37996413 0.48718463,8.69139783 -1.52173925e-07,12.4732696 L-1.52173925e-07,49.7558478 C-1.52173925e-07,53.9322609 3.24114441,57.1791196 7.51358696,59.3142717 C11.7860598,61.4493478 17.3971761,62.6906304 23.5869565,62.6906304 C28.6421739,62.6906304 33.3132663,61.8509348 37.1875,60.3842065 C40.2047511,61.8586196 43.5977728,62.6906304 47.173913,62.6906304 C59.7533772,62.6906304 70,52.4439239 70,39.8645435 C70,27.2851098 59.7533696,17.038487 47.173913,17.038487 C47.208913,14.9007174 47.1501739,13.9809402 47.1501739,12.4732696 C46.5686185,8.09975326 42.7701598,5.20609022 39.636587,3.6043837 C35.3766761,1.4744663 29.7652402,0.251802174 23.5869565,0.251802174 Z M23.5869565,4.86457391 C29.1747446,4.86457391 34.2122185,6.03991957 37.6630435,7.76538913 C40.6825163,9.27509891 42.2450989,11.0611793 42.5849185,12.5921554 C42.8869457,15.3209152 39.9412391,17.5436283 37.6630435,18.6791424 C34.2122185,20.4044902 29.1747446,21.5799576 23.5869565,21.5799576 C17.9991685,21.5799576 12.9616946,20.4044902 9.51086957,18.6791424 C7.15332283,17.2064185 4.54731398,15.8482815 4.56521724,12.80615 C4.8013,11.2292783 6.34761522,9.34699348 9.51086957,7.76538913 C12.9616946,6.03991957 17.9991685,4.86457391 23.5869565,4.86457391 Z M4.56521724,21.0330446 C5.46875761,21.7020011 6.47240543,22.3076533 7.53736413,22.8401098 C11.7971989,24.970012 17.4086728,26.1927293 23.5869565,26.1927293 C25.535125,26.1927293 27.4133848,26.0512076 29.2221467,25.8122946 C28.0648641,27.2872402 27.0915293,28.9059141 26.3213315,30.639 C25.432012,30.7036739 24.5124478,30.7341087 23.5869565,30.7341087 C18.0123239,30.7341087 12.9745837,29.5770772 9.53464674,27.8571315 C6.09470978,26.1371098 4.56521724,24.0724902 4.56521724,22.3645663 L4.56521724,21.0330446 Z M47.173913,21.6036967 C57.2861435,21.6036967 65.4347826,29.7522826 65.4347826,39.8645435 C65.4347826,49.9767283 57.2861359,58.125413 47.173913,58.125413 C37.0616826,58.125413 28.9130435,49.9767283 28.9130435,39.8645435 C28.9130435,29.7522826 37.061675,21.6036967 47.173913,21.6036967 Z M4.56521724,30.1397174 C5.45669022,30.797337 6.43857717,31.3973587 7.48980978,31.9229674 C11.760525,34.0583478 17.395525,35.2993261 23.5869565,35.2993261 C24.006637,35.2993261 24.4119446,35.2901957 24.8233696,35.2757391 C24.5186185,36.7597391 24.3478261,38.2922826 24.3478261,39.8646957 C24.0954228,39.8723043 23.8420761,39.8646957 23.5869565,39.8646957 C18.0123239,39.8646957 12.9745837,38.7075652 9.53464674,36.9876196 C6.09470978,35.2676739 4.56521724,33.2030543 4.56521724,31.4951304 L4.56521724,30.1398696 L4.56521724,30.1397174 Z M4.56521724,39.2700761 C5.4628913,39.9322609 6.45632065,40.52475 7.51358696,41.0534022 C11.7843022,43.1887065 17.395525,44.4297609 23.5869565,44.4297609 C24.003487,44.4297609 24.4146989,44.417587 24.8233696,44.4061739 C25.1404696,45.9667174 25.6073011,47.4717174 26.2262228,48.9000217 C25.366387,48.9601304 24.480788,48.9951304 23.5869565,48.9951304 C18.0123239,48.9951304 12.9745837,47.8380761 9.53464674,46.1181304 C6.09470978,44.3979565 4.56521724,42.333337 4.56521724,40.625413 L4.56521724,39.2700761 L4.56521724,39.2700761 Z M4.56521724,48.4005109 C5.45669022,49.0582065 6.43857717,49.6582283 7.48980978,50.183837 C11.760525,52.3192174 17.395525,53.5601957 23.5869565,53.5601957 C25.344512,53.5601957 27.0535696,53.4474348 28.6990489,53.2510543 C29.7391957,54.6819457 30.9527217,55.9726848 32.2894022,57.1267717 C29.684025,57.7531957 26.715538,58.125413 23.5869565,58.125413 C18.0141652,58.125413 13.0006359,56.9447717 9.55842391,55.2245978 C6.11621196,53.5043478 4.56521724,51.4624783 4.56521724,49.7558478 L4.56521724,48.4005109 Z" id="Shape" fill-rule="nonzero"></path>
                        <g id="Logo-/-Logogram" transform="translate(36.000000, 28.000000)">
                            <path d="M-6.35011194e-05,11.3837543 C3.70268677,12.5632244 6.72629257,14.0988775 9.82721098,16.3783848 C10.123285,16.5959554 10.1304288,16.6078229 10.2502872,16.7117821 C10.2166316,16.6946929 10.1153473,16.6502294 9.89356965,16.5382003 C9.4114374,16.2948376 8.44717291,15.8076377 7.59133657,15.3894274 C6.73565898,14.9715335 5.98872707,14.6226293 5.06097571,14.2616994 C4.7906197,14.1566326 4.50486466,14.0507746 4.2235547,13.9504548 C3.96605766,14.8569727 3.71681577,16.105749 3.81238495,16.990589 C4.0247962,16.5761762 4.85173953,15.8505189 5.5426317,15.6789941 C4.58868614,17.0947064 4.13878071,19.1099643 6.00047478,21.0560742 C5.9620566,20.9802805 5.74059644,19.0390758 6.69263698,18.1221145 C6.62500828,20.3364297 8.38938689,22.8403116 10.3895134,22.9324033 C9.78037891,22.1812704 9.51367421,21.2877276 9.5503461,20.4631745 C10.8986336,22.4597608 14.1208392,23.772938 14.1341744,23.7556906 C14.154971,23.7286327 12.1413505,21.2073451 12.0195871,18.9753078 C13.1668936,21.1525964 14.0643232,21.0535425 15.7353551,23.598565 C15.998091,22.6967941 15.8026663,22.1425033 15.5269127,21.201174 C16.9790246,22.1491491 17.7516744,23.0189569 18.6198935,24.1281715 C17.6805532,19.8188489 6.95251531,11.5536967 -6.35011194e-05,11.3837543" id="Fill-1"></path>
                            <path d="M6.552363,4.78307274 C6.36535221,4.90981752 6.35566829,5.22090396 6.53124888,5.47771642 C6.70635322,5.73389595 7.00020465,5.83896279 7.18753295,5.71205977 C7.3747025,5.58484029 7.38422767,5.27391208 7.20896458,5.01709962 C7.03370149,4.76044539 6.73969131,4.65537856 6.552363,4.78307274 M10.9934725,3.34789774 C10.8009054,3.40169703 10.7043837,3.65961712 10.7785213,3.92370831 C10.8526588,4.18843243 11.0691976,4.35916603 11.2619235,4.30552498 C11.4552844,4.25204217 11.5511711,3.99412207 11.4770336,3.72955619 C11.4032135,3.46514853 11.1865159,3.29441493 10.9934725,3.34789774 M12.5514725,5.20223245 C12.7935705,5.1057102 13.1372703,4.97706662 13.4133414,4.88687371 C13.6902063,4.79699726 13.8994425,4.74652087 14.0042194,4.7208871 C14.1088375,4.69556979 14.1088375,4.69556979 14.1391592,4.44635252 C14.1696398,4.19697702 14.2301246,3.69870072 14.309501,3.24662851 C14.3888774,2.79471453 14.4871454,2.38963757 14.562553,2.09057685 C14.6387543,1.79167436 14.692254,1.59831341 14.7190832,1.50226587 C14.7459124,1.40574362 14.7459124,1.40574362 14.7457537,1.40606009 C14.7454362,1.40669302 14.7446424,1.40748419 14.6282766,1.56619207 C14.5115933,1.72505819 14.2785442,2.0421575 14.0039019,2.30292579 C13.7292595,2.56416878 13.4127064,2.76908075 13.1804511,2.89693316 C12.9485133,3.02478558 12.8003969,3.0744708 12.6092585,3.06086275 C12.4176439,3.04741292 12.1823722,2.9709863 11.9667859,2.79139163 C11.7516759,2.61179696 11.55641,2.32935073 11.3781306,1.95908507 C11.2008037,1.58866118 11.0407809,1.13057611 10.932829,0.816166772 C10.8247183,0.501282732 10.7689961,0.329916192 10.7405793,0.244312039 C10.7124801,0.158707885 10.7126388,0.158233186 10.7124801,0.158074953 C10.7124801,0.158074953 10.7124801,0.158074953 10.6513603,0.434350095 C10.5911929,0.71125817 10.4703821,1.26444139 10.3460786,1.78091451 C10.2216164,2.29722939 10.0942967,2.77635948 9.93443262,3.14678336 C9.7740923,3.51673255 9.58200141,3.77765908 9.35276237,3.96437424 C9.12352333,4.1506147 8.85713613,4.26327672 8.6029729,4.29539806 C8.34880967,4.32767763 8.1062354,4.28004944 7.80508134,4.11865159 C7.50424478,3.95725374 7.14387593,3.68208623 6.82764036,3.39979823 C6.51124603,3.11766846 6.23866747,2.8284182 6.00291957,2.56622581 C5.7666954,2.30466635 5.56761939,2.0698483 5.46808139,1.95196458 L5.36806713,1.83518849 C5.36806713,1.83518849 5.36822588,1.83518849 5.3833074,2.11953352 C5.39870642,2.40419502 5.4290282,2.97272686 5.39553136,3.41546331 C5.36187577,3.8578833 5.26519531,4.17387497 5.13993936,4.42372517 C5.0150009,4.67373361 4.86180445,4.85696764 4.66383971,4.9721614 C4.46619248,5.08751339 4.22488823,5.13466688 4.01057195,5.13419218 C3.79657318,5.13371748 3.61003864,5.08545636 3.51685074,5.06172138 L3.4235041,5.03735347 C3.4235041,5.03735347 3.42334535,5.03735347 3.98056767,5.53594624 C4.53794874,6.03438077 5.65191713,7.03140808 6.20929821,7.52984261 C6.76683803,8.02859361 6.76683803,8.02859361 6.96210398,7.99599758 C7.15816368,7.96371801 7.54980684,7.89852593 7.74618405,7.8659299 C7.94160874,7.83349209 7.94160874,7.83349209 7.99129837,7.68949989 C8.0413055,7.54582416 8.14131976,7.25878916 8.30674018,6.98393812 C8.4724781,6.71019471 8.70409843,6.44926818 8.95794416,6.29942136 C9.21210739,6.15004923 9.48928978,6.11159857 9.76821844,6.10004754 C10.0471471,6.08881299 10.3275046,6.10431984 10.467842,6.11191503 C10.607862,6.11982669 10.607862,6.11982669 10.749152,6.05210289 C10.8906007,5.98453732 11.1728632,5.84877324 11.4094049,5.73373772 C11.6459465,5.61854396 11.8361324,5.52376228 12.0018703,5.44401276 C12.1679257,5.36394676 12.3092157,5.29891292 12.5514725,5.20223245" id="Fill-4"></path>
                            <path d="M13.0903748,2.5463359 C13.0086171,2.59791991 12.8992364,2.6531433 12.7622327,2.66659312 C12.6253878,2.67956824 12.4607612,2.65013686 12.3358227,2.59079942 C12.2108843,2.53162021 12.124999,2.44206023 12.0594341,2.36120307 C11.9935517,2.28066238 11.9476721,2.20834981 11.9244942,2.17211441 C11.9017926,2.13572078 11.9016338,2.13540431 11.9013163,2.13540431 C11.9011575,2.13524608 11.9011575,2.13524608 11.9578323,2.06324998 C12.0146658,1.99204505 12.1283328,1.84821108 12.2718453,1.70564298 C12.4155166,1.56275841 12.5888747,1.42145618 12.6757124,1.35025124 C12.762709,1.27967924 12.762709,1.27967924 12.8224,1.38427138 C12.8819323,1.48870528 13.0013144,1.69804779 13.0878347,1.88460471 C13.174355,2.0714781 13.2276959,2.23572415 13.2542076,2.31784717 L13.2811956,2.39981197 C13.2811956,2.39981197 13.2810369,2.39965373 13.2538901,2.42370518 C13.2269022,2.44744015 13.17245,2.49538481 13.0903748,2.5463359" id="Fill-7"></path>
                            <path d="M9.36836777,3.19363621 C9.2824825,3.32781795 9.14738387,3.50503912 9.01339651,3.62972687 C8.8792504,3.75536402 8.7460568,3.82846775 8.56031602,3.84302521 C8.37409899,3.85742443 8.13533478,3.8134356 7.93991009,3.73463547 C7.74432664,3.65583535 7.59224146,3.54254039 7.51604012,3.48557644 C7.44015628,3.42908719 7.43968002,3.42892896 7.43952127,3.42861249 C7.43936251,3.42861249 7.43936251,3.42861249 7.47476439,3.31009584 C7.51016626,3.19157918 7.58112876,2.95454587 7.69050944,2.66513737 C7.80004887,2.37572887 7.94832399,2.03410343 8.02246154,1.86305335 C8.09675785,1.69216151 8.09675785,1.69216151 8.246938,1.79833598 C8.39711815,1.90466868 8.69779595,2.11685938 8.93656016,2.31417616 C9.17500686,2.51149295 9.35169872,2.69425228 9.43980653,2.78523636 C9.52823184,2.87653691 9.52823184,2.87653691 9.52807308,2.87669514 C9.52807308,2.87701161 9.52759683,2.87748631 9.5091815,2.92305746 C9.49092493,2.96878685 9.45425303,3.0596127 9.36836777,3.19363621" id="Fill-9"></path>
                            <path d="M4.81863957,4.35967238 C4.77069622,4.44353597 4.70084499,4.54433051 4.58638422,4.62028244 C4.47192346,4.69670907 4.31317066,4.74860955 4.17473822,4.75509711 C4.03678203,4.76205937 3.91898746,4.72424164 3.82262451,4.68436688 C3.72610281,4.64385918 3.65133024,4.60208562 3.61386458,4.58088237 C3.57655767,4.56015383 3.57624017,4.56015383 3.57592266,4.55999559 C3.57608141,4.55999559 3.57608141,4.55999559 3.59163919,4.46948621 C3.60735571,4.37945153 3.63926503,4.19985686 3.6975273,4.00617944 C3.75642459,3.81266026 3.84135734,3.60600772 3.8842206,3.50252321 C3.9269251,3.39951341 3.9269251,3.39951341 4.02932065,3.46328138 C4.13171621,3.52704936 4.33634857,3.65490177 4.50145148,3.77832366 C4.66671314,3.90206201 4.79149284,4.02089513 4.85404144,4.08086551 L4.91643129,4.14036118 C4.91643129,4.14036118 4.91643129,4.14051942 4.90388982,4.17438132 C4.8911896,4.20808499 4.86610665,4.27580879 4.81863957,4.35967238" id="Fill-11"></path>
                            <path d="M15.559584,10.0157493 C15.5318023,9.99897653 15.5719667,10.0089452 15.487034,9.97793152 C15.1842924,9.86764299 14.7158129,9.90878362 13.9926939,9.46905359 L13.8133032,9.63361611 C14.280354,9.81305254 14.2719401,10.1295189 14.2625737,10.5391846 C14.4786362,10.2779416 15.0787218,10.168286 15.555774,10.1681278 L15.559584,10.0157493 Z M12.0424158,8.31379311 C11.6352149,7.63307394 10.3813853,7.41756034 9.69160434,7.51265849 C9.78955482,7.65237839 10.0599108,7.82611843 10.0684835,8.10808996 C10.099599,9.14087797 6.53972628,8.74513677 5.81835356,9.87539642 C7.20934558,8.9641315 11.4618568,9.48487691 10.4571103,7.85143574 C11.1108544,7.8197891 11.8569925,8.16125631 12.0424158,8.31379311 L12.0424158,8.31379311 Z M12.6404376,6.59205781 C12.9400041,6.45455317 13.2629073,6.3149915 13.5138955,6.22780502 C13.7647249,6.14061853 13.943798,6.105649 14.0333346,6.08824335 C14.1227125,6.07067946 14.1227125,6.07067946 14.1714496,6.15992298 C14.2200279,6.2491665 14.3173434,6.42733707 14.3640167,6.62133095 C14.41069,6.8151666 14.4067212,7.02482557 14.3930685,7.15457679 C14.3794157,7.284328 14.3560791,7.33496262 14.3444901,7.3601217 C14.3327424,7.38528077 14.3327424,7.38528077 14.2549535,7.2495167 C14.1771647,7.11391086 14.0215869,6.84222448 13.943798,6.70661864 C13.8660092,6.57085456 13.8660092,6.57085456 13.7258305,6.58430439 C13.5858105,6.59807067 13.3057706,6.62512855 12.9593719,6.69696641 C12.6131321,6.76864605 12.2008511,6.88494744 11.9946312,6.94301902 C11.7884113,7.00124883 11.7884113,7.00124883 11.9265262,6.93352503 C12.0646412,6.86564299 12.3410298,6.72987892 12.6404376,6.59205781 L12.6404376,6.59205781 Z M12.5535998,11.0695823 C11.017984,12.1492073 11.5044025,14.6934387 13.1149497,15.0353806 C14.449902,15.3189345 15.1814349,15.1458274 16.1936427,16.3453931 C16.3939887,16.6085349 16.5214672,16.9971556 17.1737825,16.4835307 C16.9491473,15.8998085 17.3798436,15.4124503 17.3939726,14.829361 L17.3595233,14.8670205 C17.3550782,14.872084 17.3345991,14.8964519 17.3285665,14.9027812 C17.1550497,15.0910787 16.9866129,15.0986739 16.7154632,15.1141807 C16.6589472,14.9483524 16.6140201,14.9016736 16.5244835,14.7996132 C16.1736399,14.9307885 15.5413275,14.7005592 15.487669,14.3399458 C15.4797314,14.3081409 15.4725875,14.2760195 15.4659199,14.2435817 L15.5518051,14.2510187 C15.8000945,14.2719055 15.9966305,14.2817159 16.1847526,14.2812412 C16.3727159,14.2807665 16.552424,14.2703231 16.7427686,14.2260179 C16.933272,14.182029 17.1345705,14.1043365 17.24284,14.0497461 C17.3511094,13.9951556 17.3663496,13.963509 17.3360278,13.9503756 C17.3057061,13.9372423 17.2301397,13.9427805 17.0932948,13.9324953 C16.9566087,13.9220519 16.7586439,13.8957852 16.5622667,13.8622398 C16.3658895,13.8288526 16.1712586,13.7880284 15.9985355,13.7111271 C15.8258125,13.6340675 15.6753148,13.521089 15.5756181,13.4399154 C15.5516464,13.4204527 15.5308498,13.4027306 15.5110057,13.3856414 C15.5686329,13.236111 15.6583283,13.099714 15.7886643,12.9883179 C15.9617049,12.8403699 16.0009168,12.8394205 16.2684153,12.9074607 C16.5679818,12.9835709 16.9451785,13.2217118 17.1658448,13.3530454 L17.3168188,13.1275631 C17.67306,13.3595329 17.7487851,13.862398 17.7327511,14.2739625 C18.1094715,14.1416796 18.6836804,12.7704308 18.4763492,12.1669294 C18.5930325,12.0400264 18.6349432,12.0414505 18.7557541,11.8618558 C18.8283042,11.754099 18.9338748,11.5691244 18.9714992,11.4415885 L16.1706236,9.85324377 L16.3496967,9.4237989 C13.5297708,7.95602787 16.3650957,7.49256287 14.4729211,5.35989599 C14.254636,5.11384339 11.4247086,6.29900995 10.7239738,6.70313751 C8.37586115,6.41736837 8.59303498,8.22296726 8.38554507,8.25682916 C6.5436951,8.55699751 5.36114551,9.00669623 5.08507439,10.4834865 C5.69214509,10.2456621 6.01552454,10.2383833 6.68149253,10.3697169 C6.67530117,10.3762044 6.66641101,10.3776285 6.66323596,10.3896543 C6.22555449,10.7224187 5.8485166,11.0607212 5.52847095,11.4113659 C4.1328751,11.0532843 1.97764711,11.159617 1.30993284,11.2210114 C8.94578369,12.5284922 15.3106596,17.2177327 18.976738,21.3751514 C18.6749489,19.7839585 17.3220576,18.4956239 16.0509239,17.5639469 C14.2595574,16.2509279 13.3546664,15.7996469 12.023683,14.8421779 C11.2542081,14.2888364 11.1716567,13.4642833 11.1951521,12.9826215 C11.2792911,11.2401576 12.5535998,11.0695823 12.5535998,11.0695823 L12.5535998,11.0695823 Z" id="Fill-13"></path>
                        </g>
                    </g>
                </g>
            </g>
        </g>
    </g>
</svg>