<svg xmlns="http://www.w3.org/2000/svg" viewBox="0 0 30 30">
    <g fill="none" fill-rule="evenodd">
        <path fill="#FFF" d="M30 15c0 8.284-6.717 15-15 15-8.284 0-15-6.716-15-15C0 6.716 6.716 0 15 0c8.283 0 15 6.716 15 15"/>
        <path fill="#004385" d="M22.122 16.599c.028.165.046.332.046.503 0 2.455-3.005 4.452-6.7 4.452-3.694 0-6.698-1.997-6.698-4.452 0-.182.02-.359.052-.534a1.66 1.66 0 0 1 .838-3.09c.418 0 .817.166 1.122.448 1.182-.77 2.79-1.251 4.565-1.273l1.033-3.268a.233.233 0 0 1 .276-.157l2.705.637a1.358 1.358 0 1 1 1.263 1.85 1.36 1.36 0 0 1-1.359-1.357c0-.013.004-.024.004-.037l-2.51-.59-.927 2.93c1.698.061 3.23.539 4.363 1.288.308-.297.71-.472 1.144-.472.916 0 1.661.745 1.661 1.661 0 .621-.34 1.174-.878 1.46zm-9.887-.321a.99.99 0 0 0 1.976 0 .99.99 0 0 0-1.976 0zm5.662 2.93a.232.232 0 1 0-.328-.329c-.406.407-1.08.604-2.061.604l-.008.002-.009-.002c-.98 0-1.654-.197-2.06-.604a.233.233 0 0 0-.329.329c.497.498 1.28.74 2.39.74l.008-.002.008.002c1.11 0 1.891-.242 2.39-.74zm-.117-1.942a.99.99 0 0 0 0-1.977.99.99 0 0 0 0 1.977zm-7.384-3.065a1.196 1.196 0 0 0-.736-.259c-.66 0-1.195.537-1.195 1.196 0 .382.184.734.484.956.248-.711.753-1.357 1.447-1.893zm10.227-2.95a.894.894 0 1 0-.002-1.788.894.894 0 0 0 .002 1.788zm.716 2.691a1.19 1.19 0 0 0-.767.282c.69.54 1.19 1.19 1.43 1.905.328-.218.532-.584.532-.991 0-.66-.536-1.196-1.195-1.196z"/>
    </g>
</svg>
