<svg viewBox="0 0 76 52" version="1.1" xmlns="http://www.w3.org/2000/svg">
    <g id="ICO" stroke="none" stroke-width="1" fill="none" fill-rule="evenodd">
        <g id="ChampionFX-ICO" transform="translate(-1049.000000, -2080.000000)" stroke="#FFFFFF" fill="#FFFFFF">
            <g id="Who-is-behind-ChampionFX" transform="translate(0.000000, 1860.000000)">
                <path d="M1075.81346,223.884615 C1071.04135,223.884615 1067.15962,227.767308 1067.15962,232.538462 C1067.15962,237.309615 1071.04135,241.192308 1075.81346,241.192308 C1080.58558,241.192308 1084.46731,237.309615 1084.46731,232.538462 C1084.46731,227.767308 1080.58558,223.884615 1075.81346,223.884615 M1075.81346,244.076923 C1069.45096,244.076923 1064.275,238.900962 1064.275,232.538462 C1064.275,226.175962 1069.45096,221 1075.81346,221 C1082.17596,221 1087.35192,226.175962 1087.35192,232.538462 C1087.35192,238.900962 1082.17596,244.076923 1075.81346,244.076923 M1053.49904,268.115385 L1098.12788,268.115385 C1095.49135,257.431731 1086.35481,249.846154 1075.81346,249.846154 C1065.27212,249.846154 1056.13558,257.431731 1053.49904,268.115385 L1053.49904,268.115385 Z M1101.62692,271 L1050,271 L1050.30096,269.306731 C1052.59231,256.358654 1063.32115,246.961538 1075.81346,246.961538 C1088.30577,246.961538 1099.03462,256.358654 1101.32596,269.306731 L1101.62692,271 Z M1105.14038,236.832981 C1102.01154,236.832981 1099.46731,239.377212 1099.46731,242.506058 C1099.46731,245.633942 1102.01154,248.179135 1105.14038,248.179135 C1108.26827,248.179135 1110.8125,245.633942 1110.8125,242.506058 C1110.8125,239.377212 1108.26827,236.832981 1105.14038,236.832981 M1105.14038,251.06375 C1100.42212,251.06375 1096.58269,247.225288 1096.58269,242.506058 C1096.58269,237.787788 1100.42212,233.948365 1105.14038,233.948365 C1109.85865,233.948365 1113.69712,237.787788 1113.69712,242.506058 C1113.69712,247.225288 1109.85865,251.06375 1105.14038,251.06375 Z M1123.54019,269.306538 L1123.84019,270.999808 L1101.62673,270.999808 L1101.32577,269.306538 C1101.25462,268.905577 1101.17577,268.508462 1101.08827,268.115192 L1120.31519,268.115192 C1118.33923,261.053654 1112.19788,256.091154 1105.14019,256.091154 C1102.17962,256.091154 1099.38731,256.973846 1096.98923,258.508462 C1096.44788,257.705577 1095.86712,256.938269 1095.25077,256.204615 C1098.14115,254.305577 1101.53346,253.206538 1105.14019,253.206538 C1114.15077,253.206538 1121.89019,259.977692 1123.54019,269.306538 Z" id="Shared-resources"></path>
            </g>
        </g>
    </g>
</svg>