<svg xmlns="http://www.w3.org/2000/svg" viewBox="0 0 30 30">
    <g fill="none" fill-rule="evenodd">
        <path fill="#FFF" d="M30 15c0 8.284-6.716 15-15 15-8.284 0-15-6.716-15-15C0 6.716 6.716 0 15 0c8.284 0 15 6.716 15 15"/>
        <path fill="#004385" fill-rule="nonzero" d="M22.885 15.809a1.314 1.314 0 0 0-1.735-.664l-.633.283-1.62-3.62.632-.283a1.313 1.313 0 0 0-1.072-2.398l-.631.283-.283-.633a1.313 1.313 0 1 0-2.398 1.073l.283.632-3.621 1.62-.283-.633a1.313 1.313 0 1 0-2.397 1.072l.282.632-.632.283a1.312 1.312 0 1 0 1.073 2.398l.632-.283 1.619 3.621-.632.283a1.314 1.314 0 0 0 1.072 2.398l.632-.283.283.632c.296.663 1.073.96 1.735.663a1.313 1.313 0 0 0 .662-1.734l-.282-.633 3.621-1.62.283.631a1.312 1.312 0 1 0 2.397-1.07l-.282-.632.631-.284c.663-.296.96-1.072.664-1.734zm-8.386 2.311l-1.62-3.622L16.5 12.88l1.62 3.621-3.621 1.62z"/>
    </g>
</svg>
