<svg viewBox="0 0 38 50" version="1.1" xmlns="http://www.w3.org/2000/svg">
    <g id="ICO" stroke="none" stroke-width="1" fill="none" fill-rule="evenodd">
        <g id="ChampionFX-ICO" transform="translate(-701.000000, -2081.000000)" fill-rule="nonzero" fill="#FFFFFF">
            <g id="Who-is-behind-ChampionFX" transform="translate(0.000000, 1860.000000)">
                <path d="M737.923077,224.230769 C737.461538,223.846154 736.846154,223.769231 736.307692,223.846154 L732.307692,224.846154 C728.230769,225.846154 723.923077,225.615385 719.923077,224.153846 L719.846154,224.153846 C715.538462,222.538462 710.846154,222.230769 706.384615,223.076923 L704.846154,223.384615 L704.846154,222.923077 C704.846154,221.846154 704,221 702.923077,221 C701.846154,221 701,221.846154 701,222.923077 L701,225.769231 L701,247.307692 L701,269.076923 C701,270.153846 701.846154,271 702.923077,271 C704,271 704.846154,270.153846 704.846154,269.076923 L704.846154,248.846154 L707.076923,248.384615 C710.923077,247.615385 714.846154,247.923077 718.461538,249.307692 L718.615385,249.384615 C721.384615,250.384615 724.307692,250.923077 727.230769,250.923077 C729.230769,250.923077 731.307692,250.692308 733.307692,250.153846 L737.307692,249.153846 C738.153846,248.923077 738.769231,248.153846 738.769231,247.307692 L738.769231,225.769231 C738.692308,225.153846 738.384615,224.615385 737.923077,224.230769 Z M734.846154,245.769231 L732.307692,246.384615 C728.230769,247.384615 723.923077,247.153846 719.923077,245.692308 L719.846154,245.692308 C717.076923,244.692308 714.153846,244.153846 711.230769,244.153846 C709.615385,244.153846 708,244.307692 706.384615,244.615385 L704.846154,244.923077 L704.846154,227.307692 L707.076923,226.846154 C710.923077,226.076923 714.846154,226.384615 718.461538,227.692308 L718.615385,227.769231 C723.307692,229.461538 728.384615,229.769231 733.230769,228.538462 L734.846154,228.153846 L734.846154,245.769231 Z" id="Technology-leadership"></path>
            </g>
        </g>
    </g>
</svg>