<svg xmlns="http://www.w3.org/2000/svg" xmlns:xlink="http://www.w3.org/1999/xlink" viewBox="0 0 50 48">
    <defs>
        <path id="a" d="M0 7.372V.6h12.553v6.772z"/>
        <path id="c" d="M12.75.6v6.772H.2V.6z"/>
    </defs>
    <g fill="none" fill-rule="evenodd">
        <path fill="#004385" d="M24.63 20.4c-4.751 0-8.616 3.865-8.616 8.615 0 4.78 3.865 8.67 8.616 8.67 4.75 0 8.615-3.865 8.615-8.616 0-4.78-3.865-8.669-8.615-8.669m0 18.872c-5.626 0-10.203-4.601-10.203-10.257 0-5.625 4.577-10.202 10.203-10.202 5.626 0 10.202 4.6 10.202 10.256 0 5.626-4.576 10.203-10.202 10.203"/>
        <path fill="#004385" d="M24.63 23.4a.752.752 0 0 0-.753.753v.447c-.496.096-.95.293-1.328.599a2.54 2.54 0 0 0-.929 1.962c0 .857.508 1.54 1.07 1.881.563.342 1.152.494 1.658.694.69.275 1.782.514 1.786 1.187 0 .353-.13.576-.376.776-.248.2-.639.352-1.128.352a1.94 1.94 0 0 1-1.61-.893.784.784 0 0 0-1.036-.258.783.783 0 0 0-.258 1.034 3.399 3.399 0 0 0 2.151 1.527v.471a.752.752 0 0 0 1.505 0v-.446c.496-.1.95-.306 1.328-.612a2.512 2.512 0 0 0 .928-1.95c0-.858-.507-1.551-1.07-1.894-.561-.342-1.151-.493-1.657-.693-.685-.274-1.781-.516-1.786-1.176 0-.353.128-.586.376-.787.248-.2.639-.341 1.129-.341.773 0 1.365.475 1.61.882a.783.783 0 0 0 1.034.258.783.783 0 0 0 .259-1.034c-.409-.68-1.165-1.297-2.151-1.516v-.47a.752.752 0 0 0-.752-.753"/>
        <path fill="#014385" d="M14.946 44.439a18.56 18.56 0 0 0 9.683 2.716c3.544 0 6.858-.996 9.684-2.717v.459a18.941 18.941 0 0 1-9.684 2.654 18.94 18.94 0 0 1-9.683-2.654v-.458zM33.707 11.983a18.557 18.557 0 0 1 7.194 7.028 18.557 18.557 0 0 1 2.49 9.745l.396-.229a18.936 18.936 0 0 0-2.543-9.714 18.934 18.934 0 0 0-7.14-7.059l-.397.23zM15.552 11.983a18.552 18.552 0 0 0-7.194 7.028 18.557 18.557 0 0 0-2.49 9.745l-.397-.229a18.945 18.945 0 0 1 2.544-9.714 18.934 18.934 0 0 1 7.14-7.059l.397.23z"/>
        <g transform="translate(0 38.821)">
            <mask id="b" fill="#fff">
                <use xlink:href="#a"/>
            </mask>
            <path fill="#004385" d="M6.276.6C2.816.6 0 3.068 0 6.104c0 .228.017.462.051.696l.083.572h12.284l.083-.571c.034-.237.052-.472.052-.697C12.553 3.068 9.737.6 6.276.6" mask="url(#b)"/>
        </g>
        <path fill="#004385" d="M6.276 32.117a3.497 3.497 0 0 0-3.493 3.493 3.497 3.497 0 0 0 3.493 3.493A3.497 3.497 0 0 0 9.77 35.61a3.497 3.497 0 0 0-3.493-3.493"/>
        <g transform="translate(36.508 38.821)">
            <mask id="d" fill="#fff">
                <use xlink:href="#c"/>
            </mask>
            <path fill="#004385" d="M6.475.6C3.015.6.199 3.068.199 6.104c0 .228.016.462.051.697l.083.571h12.284l.082-.571c.035-.235.052-.469.052-.697C12.751 3.068 9.935.6 6.475.6" mask="url(#d)"/>
        </g>
        <path fill="#004385" d="M42.983 32.117a3.497 3.497 0 0 0-3.493 3.493 3.497 3.497 0 0 0 3.493 3.493 3.497 3.497 0 0 0 3.493-3.493 3.497 3.497 0 0 0-3.493-3.493M24.63 7.305c-3.461 0-6.277 2.469-6.277 5.503 0 .228.017.463.052.698l.082.57h12.285l.082-.57c.035-.235.052-.47.052-.698 0-3.034-2.816-5.503-6.277-5.503M24.63 0a3.497 3.497 0 0 0-3.493 3.493 3.497 3.497 0 0 0 3.493 3.494 3.497 3.497 0 0 0 3.492-3.494A3.497 3.497 0 0 0 24.63 0"/>
    </g>
</svg>
