<svg xmlns="http://www.w3.org/2000/svg" viewBox="0 0 31 30">
    <g fill="none" fill-rule="evenodd">
        <path fill="#FFF" d="M30.398 15c0 8.284-6.718 15-15 15-8.284 0-15-6.716-15-15 0-8.284 6.716-15 15-15 8.282 0 15 6.716 15 15"/>
        <path fill="#004385" d="M22.282 10.331a5.962 5.962 0 0 1-1.034.349 3.23 3.23 0 0 0 .851-1.356.169.169 0 0 0-.247-.197 5.953 5.953 0 0 1-1.58.653.42.42 0 0 1-.376-.093 3.231 3.231 0 0 0-2.14-.808c-.6 0-1.209.164-1.777.484a2.694 2.694 0 0 0-1.138 1.271 3.612 3.612 0 0 0-.298 1.852.114.114 0 0 1-.03.091.12.12 0 0 1-.088.04l-.012-.001a8.48 8.48 0 0 1-5.828-3.113.17.17 0 0 0-.278.021 3.238 3.238 0 0 0 .527 3.932 2.972 2.972 0 0 1-.738-.286.17.17 0 0 0-.252.145 3.242 3.242 0 0 0 1.89 2.984h-.069c-.182 0-.364-.017-.545-.051a.168.168 0 0 0-.192.217 3.237 3.237 0 0 0 2.56 2.204 5.963 5.963 0 0 1-3.343 1.016h-.374a.246.246 0 0 0-.242.186.256.256 0 0 0 .122.283 8.88 8.88 0 0 0 4.46 1.203c1.371 0 2.653-.273 3.812-.809a8.418 8.418 0 0 0 2.79-2.09 9.18 9.18 0 0 0 1.707-2.859 9.055 9.055 0 0 0 .58-3.131v-.049a.55.55 0 0 1 .206-.428c.497-.404.93-.878 1.286-1.411.094-.141-.055-.318-.21-.249"/>
    </g>
</svg>
