<svg viewBox="0 0 30 30" version="1.1" xmlns="http://www.w3.org/2000/svg">
    <g id="ICO" stroke="none" stroke-width="1" fill="none" fill-rule="evenodd">
        <g id="ChampionFX-ICO" transform="translate(-705.000000, -4680.000000)">
            <g id="Want-to-join-the-ICO" transform="translate(0.000000, 4393.000000)">
                <g id="Icon-/-Contact-/-Slack" transform="translate(705.000000, 287.000000)">
                    <g id="YOutube">
                        <path d="M30,15 C30,23.284 23.284,30 15,30 C6.716,30 0,23.284 0,15 C0,6.716 6.716,0 15,0 C23.284,0 30,6.716 30,15" id="Fill-1" fill="#FFFFFF"></path>
                        <path d="M14,17.853 L14,12.204 L18.284,15.029 L14,17.853 Z M23,12.137 C23,10.957 21.997,10 20.759,10 L10.241,10 C9.004,10 8,11.004 8,12.242 L8,17.758 C8,18.996 9.004,20 10.243,20 L20.759,20 C21.996,20 23,18.997 23,17.759 L23,12.137 Z" id="Fill-6" fill="#004385"></path>
                    </g>
                </g>
            </g>
        </g>
    </g>
</svg>