<svg xmlns="http://www.w3.org/2000/svg" viewBox="0 0 32 32">
  <defs>
    <style>.cls-1{fill:#004385;}</style>
  </defs>
  <g id="help-operator">
    <g id="group">
      <path id="path" class="cls-1" d="M29.83,29.43c-.3-5.72-5.44-8.09-5.44-8.09-1.23-.57-3.45-1.7-4.91-2.44A12.58,12.58,0,0,0,22,13a22.6,22.6,0,0,0,.19-4.81C21.82,3.07,16.6,3,16,3H16c-.5,0-5.77,0-6.13,5.25A22.6,22.6,0,0,0,10,13c0,.14.09.52.22,1A6.66,6.66,0,0,0,14,16.32a.87.87,0,0,1,.61-.25h2.27a.87.87,0,0,1,0,1.74H14.59a.87.87,0,0,1-.8-.52,8.76,8.76,0,0,1-3-1.3,9.26,9.26,0,0,0,1.7,2.91c-1.46.74-3.69,1.87-4.91,2.44,0,0-5.14,2.37-5.44,8.09,0,0-.09,1,1.71,1.31A60.85,60.85,0,0,0,16,32a60.85,60.85,0,0,0,12.11-1.26C29.92,30.38,29.83,29.43,29.83,29.43Z"/>
      <path id="path-2" class="cls-1" d="M8.06,14.9h.55V8.46s0,0,0,0v-1a5.49,5.49,0,0,1,1.56-4.09C12.3,1.27,16,1.3,16,1.31s3.66-.05,5.81,2a5.51,5.51,0,0,1,1.57,4.11V14.9h.55a2.44,2.44,0,0,0,2.44-2.44V10.11a2.44,2.44,0,0,0-1.69-2.32V7.46a6.77,6.77,0,0,0-2-5C20.2-.06,16.15,0,16,0S11.79-.05,9.26,2.43a6.75,6.75,0,0,0-2,5v.32a2.44,2.44,0,0,0-1.69,2.32v2.35A2.44,2.44,0,0,0,8.06,14.9Z"/>
    </g>
  </g>
</svg>