<svg xmlns="http://www.w3.org/2000/svg" viewBox="0 0 32 32">
  <defs>
    <style>.cls-1{fill:#004385;}</style>
  </defs>
  <g id="dollar-symbol">
    <g id="group">
      <path id="path" class="cls-1" d="M16,25.21A9.21,9.21,0,1,0,6.79,16,9.21,9.21,0,0,0,16,25.21Zm-3.21-5.56c.08-.3.16-.61.26-.9s.2-.39.52-.22A5.06,5.06,0,0,0,15.3,19a2.17,2.17,0,0,0,1.14-.15.88.88,0,0,0,.21-1.55A2.58,2.58,0,0,0,16,17a14.36,14.36,0,0,1-1.77-.8,2.5,2.5,0,0,1-1.42-2.4,2.64,2.64,0,0,1,1.93-2.45c.47-.17.48-.16.48-.66v-.5c0-.37.07-.44.44-.45H16c.79,0,.79,0,.8.79,0,.56,0,.56.56.65a4.75,4.75,0,0,1,1.23.37.36.36,0,0,1,.24.45v0c-.1.34-.19.69-.3,1s-.2.37-.51.21a3.87,3.87,0,0,0-1.95-.39,1.46,1.46,0,0,0-.52.11.74.74,0,0,0-.18,1.31,3.46,3.46,0,0,0,.84.48,14.85,14.85,0,0,1,1.54.7,2.77,2.77,0,0,1,.89,4.21,3,3,0,0,1-1.53,1,.43.43,0,0,0-.37.48h0c0,.27,0,.54,0,.82a.34.34,0,0,1-.29.38H15.5a.35.35,0,0,1-.38-.4c0-.2,0-.4,0-.59,0-.44,0-.46-.44-.52a5.36,5.36,0,0,1-1.56-.45C12.71,20.15,12.67,20,12.78,19.65Z"/>
      <path id="path-2" class="cls-1" d="M26,26a14.13,14.13,0,0,1-19.38.54H8.36V24.63h-5v5H5.21V27.83a16,16,0,0,0,22.09-.52l.67-.67-1.34-1.34Z"/>
      <path id="path-3" class="cls-1" d="M26.78,2.33V4.17a16,16,0,0,0-22.09.52L4,5.35,5.36,6.69,6,6a14.13,14.13,0,0,1,19.38-.54H23.64V7.37h5v-5Z"/>
    </g>
  </g>
</svg>