<svg xmlns="http://www.w3.org/2000/svg" viewBox="-17299 -17122 60 60">
  <defs>
    <style>
      .cls-1 {
        fill: #004385;
      }
    </style>
  </defs>
  <g id="speedometer-outline" transform="translate(-17299 -17122)">
    <g id="dashboard">
      <g id="group">
        <path id="path" class="cls-1" d="M13.125,41.786V41.25h-.4C12.847,41.437,13,41.6,13.125,41.786Zm23-23a1.821,1.821,0,0,0-2.241,1.369l-4.406,17.4a5.592,5.592,0,1,0,3.57.857l4.369-17.252A1.949,1.949,0,0,0,36.127,18.787ZM31.875,45h-3.75V41.25h3.75Zm15-3.214c.128-.184.277-.349.4-.536h-.4ZM30,9.375A20.625,20.625,0,0,0,9.375,30h3.75a16.875,16.875,0,0,1,33.75,0h3.75A20.625,20.625,0,0,0,30,9.375ZM30,0A30,30,0,1,0,60,30,30,30,0,0,0,30,0ZM46.875,50.094v.531H46.2a26.151,26.151,0,0,1-32.407,0h-.671v-.531a26.25,26.25,0,1,1,33.75,0Z"/>
      </g>
    </g>
  </g>
</svg>
