<svg xmlns="http://www.w3.org/2000/svg" viewBox="-21005 -14821 40 40">
  <defs>
    <style>
      .cls-1 {
        fill: #65a2d9;
      }

      .cls-2 {
        fill: #3a7ca5;
      }

      .cls-3 {
        fill: #fff;
      }

      .cls-4 {
        fill: #d1d1d1;
      }
    </style>
  </defs>
  <g id="Group_356" data-name="Group 356" transform="translate(-21005 -14821)">
    <ellipse id="Ellipse_103" data-name="Ellipse 103" class="cls-1" cx="20" cy="20" rx="20" ry="20"/>
    <path id="Path_629" data-name="Path 629" class="cls-2" d="M132.663,139.3a39.074,39.074,0,0,0-5.859,5.617c-4.172,5.031-9.266,12.164-16.2,11.1l12.391,12.375a20,20,0,0,0,18.961-19.8Z" transform="translate(-101.959 -128.417)"/>
    <path id="Path_630" data-name="Path 630" class="cls-3" d="M131.972,136.319a8.72,8.72,0,0,1-1.578.531,4.91,4.91,0,0,0,1.3-2.07.255.255,0,0,0-.375-.3,9.218,9.218,0,0,1-2.414,1,.481.481,0,0,1-.148.016.61.61,0,0,1-.422-.164,4.922,4.922,0,0,0-3.266-1.234,5.132,5.132,0,0,0-1.562.242,4.8,4.8,0,0,0-3.227,3.445,5.133,5.133,0,0,0-.117,1.82.168.168,0,0,1-.047.141.179.179,0,0,1-.133.063h-.016a12.984,12.984,0,0,1-8.9-4.75.256.256,0,0,0-.422.031,4.937,4.937,0,0,0,.8,6,4.484,4.484,0,0,1-1.125-.437.259.259,0,0,0-.383.227,4.952,4.952,0,0,0,2.883,4.555h-.109a4.245,4.245,0,0,1-.828-.078.262.262,0,0,0-.3.336,4.947,4.947,0,0,0,3.906,3.367,9.1,9.1,0,0,1-5.1,1.547h-.57a.371.371,0,0,0-.367.281.388.388,0,0,0,.188.43,13.512,13.512,0,0,0,6.8,1.836,13.739,13.739,0,0,0,5.82-1.234,12.844,12.844,0,0,0,4.258-3.187,14.048,14.048,0,0,0,3.492-9.148v-.078a.866.866,0,0,1,.313-.656,9.711,9.711,0,0,0,1.961-2.156.253.253,0,0,0-.312-.375Z" transform="translate(-100.886 -123.623)"/>
    <path id="Path_631" data-name="Path 631" class="cls-4" d="M266.625,136.319a8.72,8.72,0,0,1-1.578.531,4.911,4.911,0,0,0,1.3-2.07.255.255,0,0,0-.375-.3,9.217,9.217,0,0,1-2.414,1,.481.481,0,0,1-.148.016.61.61,0,0,1-.422-.164,4.922,4.922,0,0,0-3.266-1.234,5.132,5.132,0,0,0-1.562.242,4.786,4.786,0,0,0-2.656,2.07v16.055a13.067,13.067,0,0,0,1.422-.555,12.844,12.844,0,0,0,4.258-3.187,14.048,14.048,0,0,0,3.492-9.148V139.5a.866.866,0,0,1,.313-.656,9.711,9.711,0,0,0,1.961-2.156A.254.254,0,0,0,266.625,136.319Z" transform="translate(-235.539 -123.623)"/>
  </g>
</svg>
