<svg xmlns="http://www.w3.org/2000/svg" viewBox="0 0 32 32">
  <defs>
    <style>.cls-1{fill:#004385;}.cls-2{fill:#003264;}.cls-3{fill:#ffd652;}</style>
  </defs>
  <g id="Group_195" data-name="Group 195">
    <path id="Path_251" data-name="Path 251" class="cls-1" d="M29,3.4V23.34H3V3.4H29m.64-.64H2.36V23.49a.49.49,0,0,0,.49.49H29.14a.49.49,0,0,0,.49-.49h0V2.76Z"/>
    <path id="Path_249" data-name="Path 249" class="cls-2" d="M20.67,31.14l-4.17-3.8V23.49a.49.49,0,0,0-1,0v3.73l-4.18,3.93a.49.49,0,0,0,.67.72l3.51-3.29v2.67a.49.49,0,0,0,1,0V28.67L20,31.87a.49.49,0,0,0,.66-.73Z"/>
    <path id="Path_250" data-name="Path 250" class="cls-1" d="M29.63,2.46A2.47,2.47,0,0,0,27.17,0H4.83A2.47,2.47,0,0,0,2.36,2.46V3.54H29.63Z"/>
    <rect id="Rectangle_106" data-name="Rectangle 106" class="cls-2" x="2.36" y="2.76" width="27.27" height="0.78"/>
    <g id="Group_192" data-name="Group 192">
      <path id="Path_253" data-name="Path 253" class="cls-1" d="M11.79,13.24a.54.54,0,0,1-.26-.07L8.91,11.59a.49.49,0,1,1,.51-.84l2.63,1.58a.5.5,0,0,1,.17.67A.49.49,0,0,1,11.79,13.24Z"/>
      <path id="Path_254" data-name="Path 254" class="cls-1" d="M14.55,12.32a.51.51,0,0,1-.35-.14.49.49,0,0,1,0-.7h0l2.89-2.89a.5.5,0,0,1,.72.68l0,0L14.9,12.17A.49.49,0,0,1,14.55,12.32Z"/>
      <path id="Path_255" data-name="Path 255" class="cls-1" d="M20.07,7.85a.5.5,0,0,1-.12-1l2.63-.66a.49.49,0,0,1,.26,1h0l-2.63.66Z"/>
    </g>
    <path id="Path_256" data-name="Path 256" class="cls-1" d="M13.24,11.07A1.94,1.94,0,1,0,15.17,13,1.94,1.94,0,0,0,13.24,11.07Z"/>
    <path id="Path_257" data-name="Path 257" class="cls-2" d="M14,14.19a1.94,1.94,0,0,1-1.94-1.94,1.9,1.9,0,0,1,.24-.94,1.94,1.94,0,1,0,2.63,2.63A1.89,1.89,0,0,1,14,14.19Z"/>
    <path id="Path_258" data-name="Path 258" class="cls-1" d="M18.76,6.07A1.94,1.94,0,1,0,20.69,8h0A1.94,1.94,0,0,0,18.76,6.07Z"/>
    <path id="Path_259" data-name="Path 259" class="cls-2" d="M19.45,9.26a1.93,1.93,0,0,1-1.67-2.92A1.94,1.94,0,1,0,20.43,9,1.88,1.88,0,0,1,19.45,9.26Z"/>
    <path id="Path_260" data-name="Path 260" class="cls-1" d="M24.27,4.76A1.94,1.94,0,1,0,26.21,6.7h0A1.94,1.94,0,0,0,24.27,4.76Z"/>
    <path id="Path_261" data-name="Path 261" class="cls-2" d="M24.94,8A1.94,1.94,0,0,1,23,6a1.88,1.88,0,0,1,.28-1A1.94,1.94,0,1,0,25.94,7.7,1.9,1.9,0,0,1,24.94,8Z"/>
    <path id="SVGCleanerId_0" data-name="SVGCleanerId 0" class="cls-3" d="M7.72,8.84a1.94,1.94,0,1,0,1.94,1.94A1.94,1.94,0,0,0,7.72,8.84Z"/>
    <g id="Group_193" data-name="Group 193">
      <path id="SVGCleanerId_0-2" data-name="SVGCleanerId 0" class="cls-1" d="M7.72,8.84a1.94,1.94,0,1,0,1.94,1.94A1.94,1.94,0,0,0,7.72,8.84Z"/>
    </g>
    <path id="Path_262" data-name="Path 262" class="cls-2" d="M8.48,12A1.94,1.94,0,0,1,6.54,10a1.9,1.9,0,0,1,.24-.94,1.94,1.94,0,1,0,2.63,2.63A1.89,1.89,0,0,1,8.48,12Z"/>
    <g id="Group_194" data-name="Group 194">
      <path id="Path_263" data-name="Path 263" class="cls-1" d="M8.51,14.36H6.67a.49.49,0,0,0-.49.49h0v4.47a.49.49,0,0,0,.49.49H8.51A.49.49,0,0,0,9,19.32H9V14.85a.49.49,0,0,0-.49-.49Z"/>
      <path id="Path_264" data-name="Path 264" class="cls-1" d="M19.72,11.2H17.88a.49.49,0,0,0-.49.49h0v7.62a.49.49,0,0,0,.49.49h1.84a.49.49,0,0,0,.49-.49h0V11.69A.49.49,0,0,0,19.72,11.2Z"/>
      <path id="Path_265" data-name="Path 265" class="cls-1" d="M25.33,9.62H23.49a.49.49,0,0,0-.49.49h0v9.2a.49.49,0,0,0,.49.49h1.84a.49.49,0,0,0,.49-.49h0v-9.2A.5.5,0,0,0,25.33,9.62Z"/>
      <path id="Path_266" data-name="Path 266" class="cls-1" d="M14.11,15.67H12.28a.49.49,0,0,0-.49.49h0v3.16a.49.49,0,0,0,.49.49h1.84a.49.49,0,0,0,.49-.49h0V16.16A.49.49,0,0,0,14.11,15.67Z"/>
    </g>
    <path id="Path_267" data-name="Path 267" class="cls-2" d="M27.23,19.81H4.76a.49.49,0,1,1,0-1H27.23a.49.49,0,0,1,0,1h0Z"/>
    <path id="Path_268" data-name="Path 268" class="cls-1" d="M30.72,20.89H1.28a.49.49,0,0,0-.49.49h0v2.1a.49.49,0,0,0,.49.49H30.72a.49.49,0,0,0,.49-.49h0v-2.1A.5.5,0,0,0,30.72,20.89Z"/>
  </g>
</svg>