<?xml version="1.0" encoding="UTF-8"?>
<svg width="123px" height="80px" viewBox="0 0 123 80" version="1.1" xmlns="http://www.w3.org/2000/svg" xmlns:xlink="http://www.w3.org/1999/xlink">
    <!-- Generator: Sketch 46.2 (44496) - http://www.bohemiancoding.com/sketch -->
    <title>download_MAM</title>
    <desc>Created with Sketch.</desc>
    <defs></defs>
    <g id="MAM-Pro" stroke="none" stroke-width="1" fill="none" fill-rule="evenodd">
        <g transform="translate(-659.000000, -1242.000000)" id="How-it-works" fill-rule="nonzero" fill="#004385">
            <g transform="translate(185.000000, 1167.000000)">
                <path d="M595.4625,142.354278 L587.92875,142.354278 L587.92875,79.7421458 C587.92875,77.123131 585.863663,75 583.31625,75 L487.68375,75 C485.136337,75 483.07125,77.123131 483.07125,79.7421458 L483.07125,142.354278 L475.5375,142.354278 C474.688362,142.354278 474,143.061988 474,143.934993 L474,148.677139 C474,152.169159 476.753449,155 480.15,155 L590.85,155 C594.246551,155 597,152.169159 597,148.677139 L597,143.934993 C597,143.061988 596.311638,142.354278 595.4625,142.354278 Z M486.14625,79.7421458 C486.14625,78.8691409 486.834612,78.1614305 487.68375,78.1614305 L583.31625,78.1614305 C584.165388,78.1614305 584.85375,78.8691409 584.85375,79.7421458 L584.85375,142.354278 L486.14625,142.354278 L486.14625,79.7421458 Z M593.925,148.629717 C593.925,150.375727 592.548276,151.791148 590.85,151.791148 L480.15,151.791148 C478.451724,151.791148 477.075,150.375727 477.075,148.629717 L477.075,145.468287 L593.925,145.468287 L593.925,148.629717 Z M578.626875,86.9185932 L490.9125,86.9185932 C490.063362,86.9185932 489.375,87.6263035 489.375,88.4993084 L489.375,137.106303 C489.375,137.979308 490.063362,138.687018 490.9125,138.687018 L578.626875,138.687018 C579.476013,138.687018 580.164375,137.979308 580.164375,137.106303 L580.164375,88.4993084 C580.164375,87.6263035 579.476013,86.9185932 578.626875,86.9185932 Z M577.089375,135.525588 L492.45,135.525588 L492.45,90.0800237 L577.089375,90.0800237 L577.089375,135.525588 Z M577.227332,149.989236 C577.935841,149.280727 577.919697,148.115864 577.191274,147.387441 C576.462851,146.659018 575.297988,146.642874 574.589479,147.351382 C573.88097,148.059891 573.897114,149.224754 574.625537,149.953178 C575.35396,150.681601 576.518824,150.697744 577.227332,149.989236 Z M583.422904,149.973997 C584.131413,149.265488 584.115269,148.100625 583.386846,147.372202 C582.658423,146.643779 581.49356,146.627635 580.785051,147.336144 C580.076542,148.044652 580.092686,149.209516 580.821109,149.937939 C581.549532,150.666362 582.714396,150.682506 583.422904,149.973997 Z M536.308269,82.2085291 C536.396438,81.3639812 535.764029,80.6058553 534.895743,80.5152076 C534.027457,80.4245599 533.252096,81.0357168 533.163927,81.8802647 C533.075757,82.7248126 533.708167,83.4829384 534.576453,83.5735861 C535.444739,83.6642338 536.220099,83.053077 536.308269,82.2085291 Z M491.758125,147.033195 L497.21625,147.033195 L497.21625,150.77949 L491.758125,150.77949 L491.758125,147.033195 Z M523,123.293515 L549,123.293515 L549,125 L523,125 L523,123.293515 Z M534.873333,100 L536.606667,100 L536.606667,117.406143 L545.793333,109.6843 L546.92,110.964164 L536.303333,119.923208 C536.13,120.051195 535.956667,120.136519 535.74,120.136519 C535.523333,120.136519 535.35,120.051195 535.176667,119.923208 L524.56,110.964164 L525.686667,109.6843 L534.873333,117.448805 L534.873333,100 Z" id="download_MAM"></path>
            </g>
        </g>
    </g>
</svg>