<?xml version="1.0" encoding="UTF-8"?>
<svg width="48px" height="48px" viewBox="0 0 48 48" version="1.1" xmlns="http://www.w3.org/2000/svg" xmlns:xlink="http://www.w3.org/1999/xlink">
    <!-- Generator: Sketch 46.2 (44496) - http://www.bohemiancoding.com/sketch -->
    <title>access_available_tools</title>
    <desc>Created with Sketch.</desc>
    <defs></defs>
    <g id="MAM-Pro" stroke="none" stroke-width="1" fill="none" fill-rule="evenodd">
        <g transform="translate(-1063.000000, -418.000000)" id="Key-Features" fill-rule="nonzero" fill="#004385">
            <g transform="translate(185.000000, 331.000000)">
                <path d="M889.594785,124.137775 C886.197705,124.066566 883.493061,121.313395 883.48219,117.928641 C883.498444,114.563485 886.222502,111.839509 889.606567,111.823409 C892.98484,111.894465 895.689485,114.647636 895.700355,118.03239 C895.684102,121.397546 892.960043,124.121523 889.594785,124.137775 Z M894.245822,118.031219 C894.233442,120.589587 892.160256,122.665818 889.597159,122.683236 C887.012682,122.623877 884.945047,120.516022 884.936724,117.929813 C884.949119,115.368318 887.02736,113.29014 889.594785,113.277741 C892.164844,113.332041 894.237488,115.441873 894.245822,118.031219 Z M889.587636,125.372655 C894.998747,125.372655 901.176,127.843482 901.176,131.581922 L901.176,135 L878,135 L878,131.581922 C878,127.843548 884.17717,125.372655 889.587636,125.372655 Z M883,89 L883,119 L884.933818,119.063756 L884.933818,121 L881.103273,121 L881.103273,87 L926,87 L926,121 L894.242909,121 L894.242909,119.063756 L924,119 L924,89 L883,89 Z M903.852519,103.96894 L897.646701,103.96894 L893.509246,108.10627 L887.002182,108.10627 L887.002182,106.651768 L892.906754,106.651768 L897.044208,102.514439 L903.250027,102.514439 L906.137455,99.6270984 L910.592763,104.082271 L915.462744,94.3426035 L919.924731,93.2273367 L920.277451,94.6384249 L916.464529,95.5914591 L910.991237,106.53771 L906.137455,101.684074 L903.852519,103.96894 Z" id="access_available_tools"></path>
            </g>
        </g>
    </g>
</svg>