<?xml version="1.0" encoding="UTF-8"?>
<svg width="30px" height="12px" viewBox="0 0 30 12" version="1.1" xmlns="http://www.w3.org/2000/svg" xmlns:xlink="http://www.w3.org/1999/xlink">
    <!-- Generator: Sketch 46.2 (44496) - http://www.bohemiancoding.com/sketch -->
    <title>Arrow</title>
    <desc>Created with Sketch.</desc>
    <defs></defs>
    <g id="MAM-Pro" stroke="none" stroke-width="1" fill="none" fill-rule="evenodd">
        <g transform="translate(-522.000000, -1276.000000)" id="How-it-works" fill-rule="nonzero" fill="#000000">
            <g transform="translate(185.000000, 1167.000000)">
                <path d="M359.565684,109.028289 C359.318314,109.086852 359.1534,109.24302 359.1534,109.428468 L359.1534,112.61038 L338.12691,112.61038 C337.503903,112.61038 337,112.981277 337,113.44978 L337,116.553607 C337,117.012349 337.503903,117.393007 338.12691,117.393007 L359.1534,117.393007 L359.1534,120.574919 C359.1534,120.750607 359.318314,120.906775 359.565684,120.975098 C359.804375,121.033661 360.055138,120.987965 360.261987,120.848212 L366.510381,115.860614 C366.811475,115.691862 367,115.359261 367,114.996813 C367,114.634366 366.811475,114.301765 366.510381,114.133012 L360.28031,109.155175 C360.068583,109.010079 359.81014,108.964191 359.565684,109.028289 Z" id="Arrow"></path>
            </g>
        </g>
    </g>
</svg>