<?xml version="1.0" encoding="UTF-8"?>
<svg width="12px" height="30px" viewBox="0 0 12 30" version="1.1" xmlns="http://www.w3.org/2000/svg" xmlns:xlink="http://www.w3.org/1999/xlink">
    <!-- Generator: Sketch 46.2 (44496) - http://www.bohemiancoding.com/sketch -->
    <title>Arrow</title>
    <desc>Created with Sketch.</desc>
    <defs></defs>
    <g id="MAM-Pro" stroke="none" stroke-width="1" fill="none" fill-rule="evenodd">
        <g transform="translate(-897.000000, -1267.000000)" id="Arrow" fill-rule="nonzero" fill="#000000">
            <path d="M910.565684,1276.02829 C910.318314,1276.08685 910.1534,1276.24302 910.1534,1276.42847 L910.1534,1279.61038 L889.12691,1279.61038 C888.503903,1279.61038 888,1279.98128 888,1280.44978 L888,1283.55361 C888,1284.01235 888.503903,1284.39301 889.12691,1284.39301 L910.1534,1284.39301 L910.1534,1287.57492 C910.1534,1287.75061 910.318314,1287.90677 910.565684,1287.9751 C910.804375,1288.03366 911.055138,1287.98796 911.261987,1287.84821 L917.510381,1282.86061 C917.811475,1282.69186 918,1282.35926 918,1281.99681 C918,1281.63437 917.811475,1281.30176 917.510381,1281.13301 L911.28031,1276.15518 C911.068583,1276.01008 910.81014,1275.96419 910.565684,1276.02829 Z" transform="translate(903.000000, 1282.000000) rotate(90.000000) translate(-903.000000, -1282.000000) "></path>
        </g>
    </g>
</svg>