<?xml version="1.0" encoding="UTF-8"?>
<svg width="95px" height="48px" viewBox="0 0 95 48" version="1.1" xmlns="http://www.w3.org/2000/svg" xmlns:xlink="http://www.w3.org/1999/xlink">
    <!-- Generator: Sketch 46.2 (44496) - http://www.bohemiancoding.com/sketch -->
    <title>allow_expert_advisors_trading</title>
    <desc>Created with Sketch.</desc>
    <defs></defs>
    <g id="MAM-Pro" stroke="none" stroke-width="1" fill="none" fill-rule="evenodd">
        <g transform="translate(-1039.000000, -886.000000)" id="Key-Features" fill-rule="nonzero" fill="#004385">
            <g transform="translate(185.000000, 331.000000)">
                <g id="allow_expert_advisors_trading" transform="translate(854.000000, 555.000000)">
                    <path d="M20.9999979,0 C18.8070923,0 17,1.807039 17,3.99999778 L17,46.6666674 C17.0000736,47.4030162 17.5969838,47.9999264 18.3333326,48 L76.9999668,48 C77.7363156,47.9999264 78.3332258,47.4030162 78.3332994,46.6666674 L78.3332994,3.99999778 C78.3332994,1.807039 76.5262071,0 74.3333016,0 L20.9999979,0 Z M20.9999979,2.66666519 L74.3333016,2.66666519 C75.0951012,2.66666519 75.6666342,3.2381582 75.6666342,3.99999778 L75.6666342,11.9999933 L19.6666652,11.9999933 L19.6666652,3.99999778 C19.6666652,3.2381582 20.2381982,2.66666519 20.9999979,2.66666519 Z M24.3333294,5.33333037 C23.2287567,5.33333037 22.3333305,6.22872987 22.3333305,7.33332926 C22.3333305,8.43785531 23.2287567,9.33332815 24.3333294,9.33332815 C25.4378954,9.33332815 26.3333283,8.43785531 26.3333283,7.33332926 C26.3333283,6.22872987 25.4378954,5.33333037 24.3333294,5.33333037 Z M30.9999924,5.33333037 C29.8954196,5.33333037 28.9999935,6.22872987 28.9999935,7.33332926 C28.9999935,8.43785531 29.8954196,9.33332815 30.9999924,9.33332815 C32.1045584,9.33332815 32.9999912,8.43785531 32.9999912,7.33332926 C32.9999912,6.22872987 32.1045584,5.33333037 30.9999924,5.33333037 Z M37.6666553,5.33333037 C36.5620826,5.33333037 35.6666564,6.22872987 35.6666564,7.33332926 C35.6666564,8.43785531 36.5620826,9.33332815 37.6666553,9.33332815 C38.7712214,9.33332815 39.6666542,8.43785531 39.6666542,7.33332926 C39.6666542,6.22872987 38.7712214,5.33333037 37.6666553,5.33333037 Z M19.6666652,14.6666585 L75.6666342,14.6666585 L75.6666342,45.3333348 L19.6666652,45.3333348 L19.6666652,14.6666585 Z M38.9817724,26.2042 C39.2260325,26.2984 39.4883415,26.3548 39.7656911,26.3548 C40.0502602,26.3548 40.3203902,26.2966 40.5694634,26.1976 L48.2269593,33.835 C48.1270894,34.0846 48.0681301,34.3552 48.0681301,34.6408 C48.0687317,35.8438 49.0451707,36.8176 50.2514309,36.8182 C51.4576911,36.8176 52.4341301,35.8438 52.4347317,34.6408 C52.4347317,34.366 52.3781789,34.105 52.2849268,33.8632 L59.2048293,26.962 C59.4599187,27.0664 59.7384715,27.1258 60.0314634,27.1258 C61.2377236,27.1252 62.2141626,26.1514 62.2147642,24.9484 C62.2141626,23.7454 61.2377236,22.7716 60.0314634,22.771 C58.8252033,22.7716 57.8487642,23.7454 57.8481626,24.9484 C57.8481626,25.2166 57.9035122,25.4704 57.9925528,25.7074 L51.0594146,32.6212 C50.8091382,32.5216 50.5378049,32.4634 50.2514309,32.4628 C49.9758862,32.4628 49.7147805,32.5192 49.4717236,32.6122 L41.7973821,24.9592 C41.8918374,24.7156 41.9483902,24.454 41.9483902,24.1774 C41.9477886,22.9744 40.9713496,22.0006 39.7650894,22 C38.5588293,22.0006 37.5823902,22.9744 37.5817886,24.1774 C37.5817886,24.4612 37.6401463,24.7306 37.7394146,24.979 L33.9208943,28.7872 C33.6892683,28.7038 33.4432033,28.651 33.1833008,28.6504 C31.9770407,28.651 31.0006016,29.6248 31,30.8278 C31.0006016,32.0308 31.9770407,33.0046 33.1833008,33.0052 C34.389561,33.0046 35.366,32.0308 35.3666016,30.8278 C35.3666016,30.5272 35.3052358,30.2404 35.1945366,29.98 L38.9817724,26.2042 Z" id="Shape"></path>
                    <path d="M83.2694797,32.8235844 L83.0684645,32.8235844 C81.0073604,32.8235844 79.3301396,34.4281517 79.3301396,36.3999733 L79.3301396,41 L82.1220178,41 L82.1220178,36.3999733 C82.1220178,35.9005075 82.5463832,35.4945246 83.0684645,35.4945246 L86.2623731,35.4945246 C86.7746827,35.4945246 87.2081218,35.909188 87.2081218,36.3999733 L87.2081218,41 L90,41 L90,36.3999733 C90,34.4281517 88.3234772,32.8235844 86.2623731,32.8235844 L86.0613579,32.8235844 L86.0613579,25.1579861 L80.7721447,21 L79,23.0633013 L83.2694797,26.4200053 L83.2694797,32.8235844 Z" id="Combined-Shape" transform="translate(84.500000, 31.000000) rotate(-30.000000) translate(-84.500000, -31.000000) "></path>
                    <path d="M8.93864213,32.8235844 L8.73832487,32.8235844 C6.67722081,32.8235844 5,34.4281517 5,36.3999733 L5,41 L7.79187817,41 L7.79187817,36.3999733 C7.79187817,35.909188 8.22531726,35.4945246 8.73832487,35.4945246 L11.9322335,35.4945246 C12.4452411,35.4945246 12.8786802,35.909188 12.8786802,36.3999733 L12.8786802,41 L15.6705584,41 L15.6705584,36.3999733 C15.6705584,34.4281517 13.9933376,32.8235844 11.9322335,32.8235844 L11.7305203,32.8235844 L11.7305203,26.4200053 L16,23.0633013 L14.2264594,21 L8.93864213,25.1579861 L8.93864213,32.8235844 Z" id="Combined-Shape" transform="translate(10.500000, 31.000000) rotate(30.000000) translate(-10.500000, -31.000000) "></path>
                </g>
            </g>
        </g>
    </g>
</svg>