<?xml version="1.0" encoding="UTF-8"?>
<svg width="48px" height="48px" viewBox="0 0 48 48" version="1.1" xmlns="http://www.w3.org/2000/svg" xmlns:xlink="http://www.w3.org/1999/xlink">
    <!-- Generator: Sketch 46.2 (44496) - http://www.bohemiancoding.com/sketch -->
    <title>deposit_or_withdrawals_immediately_reflected</title>
    <desc>Created with Sketch.</desc>
    <defs></defs>
    <g id="MAM-Pro" stroke="none" stroke-width="1" fill="none" fill-rule="evenodd">
        <g transform="translate(-330.000000, -418.000000)" id="Key-Features" fill-rule="nonzero" fill="#004385">
            <g transform="translate(185.000000, 331.000000)">
                <path d="M166.090909,96.1069101 L168.695026,96.1069111 C169.882181,96.1041341 171.021513,96.5745005 171.860961,97.4139482 C172.700409,98.2533959 173.170775,99.392728 173.167998,100.579883 L171.713457,100.576481 C171.715328,99.7762731 171.398276,99.0083008 170.832442,98.4424671 C170.266608,97.8766334 169.498636,97.5595807 168.696727,97.5614545 L163.535302,97.5614512 C161.702807,97.5670236 160.21866,99.0511706 160.213085,100.88446 C160.208136,102.082068 160.842104,103.191455 161.870635,103.791817 L170.381062,108.654833 C172.029156,109.634481 173.046317,111.403388 173.063997,113.325333 C173.067808,114.754359 172.501817,116.125953 171.49134,117.136431 C170.480862,118.146908 169.109268,118.712899 167.682182,118.709091 L166.090909,118.70909 L166.090909,123.142545 L164.636364,123.142545 L164.636364,118.70909 L163.133338,118.709089 C161.946183,118.711866 160.80685,118.2415 159.967403,117.402052 C159.127955,116.562604 158.657589,115.423272 158.660366,114.236117 L160.114907,114.239519 C160.113035,115.039727 160.430088,115.807699 160.995922,116.373533 C161.561755,116.939367 162.329728,117.256419 163.131636,117.254545 L167.684121,117.254548 C168.726034,117.257327 169.726074,116.844658 170.462821,116.107912 C171.199567,115.371165 171.612236,114.371125 171.609485,113.333969 C171.596513,111.925049 170.849013,110.625099 169.648638,109.911456 L161.143207,105.051383 C159.660346,104.185877 158.751457,102.595402 158.758549,100.879243 C158.766554,98.2468804 160.898517,96.1149172 163.533091,96.1069091 L164.636364,96.1069095 L164.636364,92.7869091 L166.090909,92.7869091 L166.090909,96.1069101 Z M182.818182,120.557013 L186.759524,123.709747 L187.668112,122.57389 L182.154182,118.163221 L176.640252,122.57389 L177.548839,123.709747 L181.363636,120.658238 L181.363636,130.224727 L182.818182,130.224727 L182.818182,120.557013 Z M186.040696,114.025499 C190.110897,115.58827 193,119.533833 193,124.154182 C193,130.144162 188.144162,135 182.154182,135 C177.533833,135 173.58827,132.110897 172.025499,128.040696 C170.106854,128.619111 168.072233,128.93 165.965,128.93 C154.38635,128.93 145,119.54365 145,107.965 C145,96.3863503 154.38635,87 165.965,87 C177.54365,87 186.93,96.3863503 186.93,107.965 C186.93,110.072233 186.619111,112.106854 186.040696,114.025499 Z M184.316052,113.523842 C184.833923,111.791886 185.112108,109.956457 185.112108,108.056054 C185.112108,97.531686 176.580422,89 166.056054,89 C155.531686,89 147,97.531686 147,108.056054 C147,118.580422 155.531686,127.112108 166.056054,127.112108 C167.956457,127.112108 169.791886,126.833923 171.523842,126.316052 C171.382531,125.617435 171.308364,124.89447 171.308364,124.154182 C171.308364,118.164202 176.164202,113.308364 182.154182,113.308364 C182.89447,113.308364 183.617435,113.382531 184.316052,113.523842 Z" id="deposit_or_withdrawals_immediately_reflected"></path>
            </g>
        </g>
    </g>
</svg>