<?xml version="1.0" encoding="UTF-8"?>
<svg width="62px" height="48px" viewBox="0 0 62 48" version="1.1" xmlns="http://www.w3.org/2000/svg" xmlns:xlink="http://www.w3.org/1999/xlink">
    <!-- Generator: Sketch 46.2 (44496) - http://www.bohemiancoding.com/sketch -->
    <title>essential_information_for_open_positions</title>
    <desc>Created with Sketch.</desc>
    <defs></defs>
    <g id="MAM-Pro" stroke="none" stroke-width="1" fill="none" fill-rule="evenodd">
        <g transform="translate(-323.000000, -652.000000)" id="Key-Features" fill-rule="nonzero" fill="#004385">
            <g transform="translate(185.000000, 331.000000)">
                <path d="M198.873448,321 L139.127791,321 C138.504065,321 138,321.505518 138,322.127646 L138,342.880547 L138,343.030652 L138,367.872354 C138,368.495102 138.505305,369 139.127791,369 L198.872828,369 C199.495934,369 199.999999,368.495102 199.999999,367.872354 L199.999999,343.030652 L199.999999,342.880547 L199.999999,322.127646 C200.000619,321.505518 199.495934,321 198.873448,321 Z M197.745037,323.255912 L197.745037,327.930866 L140.255583,327.930866 L140.255583,323.255912 L197.745037,323.255912 Z M167.330633,366.744708 L161.583176,366.744708 L161.583176,353.310961 L167.330633,353.310961 L167.330633,366.744708 Z M179.302333,366.744708 L173.555495,366.744708 L173.555495,348.706097 L179.302333,348.706097 L179.302333,366.744708 Z M191.275272,366.744708 L185.527815,366.744708 L185.527815,358.60184 L191.275272,358.60184 L191.275272,366.744708 Z M197.745037,366.744708 L193.208452,366.744708 L193.208452,357.957382 C193.208452,357.246556 192.629986,356.668467 191.919459,356.668467 L184.883628,356.668467 C184.173101,356.668467 183.594636,357.246556 183.594636,357.957382 L183.594636,366.744708 L181.235512,366.744708 L181.235512,348.061639 C181.235512,347.350813 180.656426,346.772724 179.946519,346.772724 L172.911929,346.772724 C172.201402,346.772724 171.622936,347.350813 171.622936,348.061639 L171.622936,366.744708 L169.263192,366.744708 L169.263192,352.665883 C169.263192,351.955056 168.685347,351.376967 167.974819,351.376967 L160.938989,351.376967 C160.228462,351.376967 159.650616,351.955056 159.650616,352.665883 L159.650616,366.744088 L140.256203,366.744088 L140.256203,342.880547 L140.255583,342.880547 L140.255583,330.187398 L197.745657,330.187398 L197.745657,343.031272 L197.745657,343.031272 L197.745657,366.744708 L197.745037,366.744708 Z M195.268732,326.787714 C195.890567,326.787714 196.394663,326.283405 196.394663,325.661308 C196.394663,325.039212 195.890567,324.534903 195.268732,324.534903 C194.646898,324.534903 194.142801,325.039212 194.142801,325.661308 C194.142801,326.283405 194.646898,326.787714 195.268732,326.787714 Z M191.804758,326.787714 C192.426592,326.787714 192.930689,326.283405 192.930689,325.661308 C192.930689,325.039212 192.426592,324.534903 191.804758,324.534903 C191.182923,324.534903 190.678826,325.039212 190.678826,325.661308 C190.678826,326.283405 191.182923,326.787714 191.804758,326.787714 Z M188.341403,326.787714 C188.963238,326.787714 189.467334,326.283405 189.467334,325.661308 C189.467334,325.039212 188.963238,324.534903 188.341403,324.534903 C187.719568,324.534903 187.215472,325.039212 187.215472,325.661308 C187.215472,326.283405 187.719568,326.787714 188.341403,326.787714 Z M149.961829,340.164256 C148.920852,340.168625 147.919085,339.7547 147.181398,339.014457 C146.443712,338.274214 146.031217,337.268974 146.035572,336.224389 C146.035572,334.04846 147.793417,332.284522 149.961829,332.284522 C152.130241,332.284522 153.888086,334.04846 153.888086,336.224389 C153.888086,338.400317 152.130241,340.164256 149.961829,340.164256 Z M149.961829,340.739961 C153.361997,340.739961 157.273071,342.336411 157.273071,344.75525 L157.273071,346.958776 L142.650046,346.958776 L142.650046,344.679828 C142.650046,342.319158 146.5844,340.739961 149.961829,340.739961 Z M161.170251,336.099785 L179.141131,336.099785 C179.765477,336.099785 180.268302,335.595508 180.268302,334.971519 C180.268302,334.347531 179.764857,333.843253 179.141131,333.843253 L161.170251,333.843253 C160.547765,333.843253 160.04184,334.347531 160.04184,334.971519 C160.04184,335.595508 160.547765,336.099785 161.170251,336.099785 Z M191.241792,338.917039 L161.170251,338.917039 C160.547765,338.917039 160.04184,339.421317 160.04184,340.045305 C160.04184,340.669294 160.547765,341.173571 161.170251,341.173571 L191.241792,341.173571 C191.865518,341.173571 192.368343,340.669294 192.368343,340.045305 C192.368343,339.420696 191.865518,338.917039 191.241792,338.917039 Z" id="essential_information_for_open_positions"></path>
            </g>
        </g>
    </g>
</svg>