<?xml version="1.0" encoding="UTF-8"?>
<svg width="102px" height="42px" viewBox="0 0 102 42" version="1.1" xmlns="http://www.w3.org/2000/svg" xmlns:xlink="http://www.w3.org/1999/xlink">
    <!-- Generator: Sketch 46.2 (44496) - http://www.bohemiancoding.com/sketch -->
    <title>instant_daily_monthly_commissions</title>
    <desc>Created with Sketch.</desc>
    <defs></defs>
    <g id="MAM-Pro" stroke="none" stroke-width="1" fill="none" fill-rule="evenodd">
        <g transform="translate(-303.000000, -892.000000)" id="Key-Features" fill="#004385">
            <g transform="translate(185.000000, 331.000000)">
                <g id="instant_daily_monthly_commissions" transform="translate(118.000000, 561.000000)">
                    <path d="M34,0 L101,0 C101.552285,-1.01453063e-16 102,0.44771525 102,1 L102,41 C102,41.5522847 101.552285,42 101,42 L34,42 C33.4477153,42 33,41.5522847 33,41 L33,1 L33,1 C33,0.44771525 33.4477153,1.01453063e-16 34,0 L34,0 Z M100,40 L100,38.4643221 L99.9975265,38.4643221 L99.9975265,36.9319379 L100,36.9319379 L100,2 L38.0721126,2 L38.0721126,2.00247026 L36.5377053,2.00247026 L36.5377053,2 L35,2 L35,40 L100,40 Z M97.2259748,4 L37.7740252,4 C37.3466901,4 37,4.34858506 37,4.77825585 L37,37.2217442 C37,37.6514149 37.3466901,38 37.7740252,38 L90.1051096,38 L97.2259748,38 C97.6533099,38 98,37.6514149 98,37.2217442 L98,30.0744966 L98,4.77741991 C98,4.34774912 97.6533099,4 97.2259748,4 Z M38.3816069,5.64615975 L43.9032122,5.64615975 C43.5498828,8.5413686 41.2632415,10.8402834 38.3816069,11.1953798 L38.3816069,5.64615975 L38.3816069,5.64615975 Z M38.3816069,36.5914785 L38.3816069,31.0422584 C41.2624082,31.3973549 43.5498828,33.6954322 43.9032122,36.5914785 L38.3816069,36.5914785 Z M96.4201287,36.5914785 L90.8810235,36.5914785 C91.234353,33.6937572 93.5309941,31.390655 96.4201287,31.0372335 L96.4201287,36.5914785 Z M96.4201287,29.4702865 C92.6751703,29.8379454 89.6885368,32.8344907 89.3218742,36.5914785 L45.4673615,36.5914785 C45.1015322,32.8344907 42.1198987,29.8387828 38.3816069,29.4702865 L38.3816069,12.7673518 C42.1198987,12.3996929 45.1006989,9.40314757 45.4673615,5.64615975 L89.3227075,5.64615975 C89.6893701,9.40314757 92.6760036,12.3996929 96.420962,12.7673518 L96.420962,29.4702865 L96.4201287,29.4702865 Z M96.4201287,11.1953798 C93.5326607,10.8411208 91.2401862,8.54220609 90.8860235,5.64615975 L96.4201287,5.64615975 L96.4201287,11.1953798 Z" id="Shape" fill-rule="nonzero"></path>
                    <circle id="Oval" cx="67.137931" cy="21.137931" r="10.137931"></circle>
                    <path d="M28.67,12.5005341 C28.67,13.3289612 27.9984271,14.0005341 27.17,14.0005341 L1.5,14.0005341 C0.671572875,14.0005341 0,13.3289612 0,12.5005341 C0,11.672107 0.671572875,11.0005341 1.5,11.0005341 L27.13,11.0005341 C27.5347092,10.989738 27.9265975,11.1429943 28.2166136,11.4254775 C28.5066297,11.7079607 28.670144,12.0956809 28.67,12.5005341 Z" id="Path"></path>
                    <path d="M28.67,22.5005341 C28.67,23.3289612 27.9984271,24.0005341 27.17,24.0005341 L11.5,24.0005341 C10.6715729,24.0005341 10,23.3289612 10,22.5005341 C10,21.672107 10.6715729,21.0005341 11.5,21.0005341 L27.13,21.0005341 C27.5347092,20.989738 27.9265975,21.1429943 28.2166136,21.4254775 C28.5066297,21.7079607 28.670144,22.0956809 28.67,22.5005341 L28.67,22.5005341 Z" id="Path"></path>
                    <path d="M28.67,32.5005341 C28.67,33.3289612 27.9984271,34.0005341 27.17,34.0005341 L21.5,34.0005341 C20.6715729,34.0005341 20,33.3289612 20,32.5005341 C20,31.672107 20.6715729,31.0005341 21.5,31.0005341 L27.13,31.0005341 C27.5347092,30.989738 27.9265975,31.1429943 28.2166136,31.4254775 C28.5066297,31.7079607 28.670144,32.0956809 28.67,32.5005341 Z" id="Path"></path>
                </g>
            </g>
        </g>
    </g>
</svg>