<?xml version="1.0" encoding="UTF-8"?>
<svg width="81px" height="82px" viewBox="0 0 81 82" version="1.1" xmlns="http://www.w3.org/2000/svg" xmlns:xlink="http://www.w3.org/1999/xlink">
    <!-- Generator: Sketch 46.2 (44496) - http://www.bohemiancoding.com/sketch -->
    <title>manage_sub_accounts</title>
    <desc>Created with Sketch.</desc>
    <defs></defs>
    <g id="MAM-Pro" stroke="none" stroke-width="1" fill="none" fill-rule="evenodd">
        <g transform="translate(-1046.000000, -1241.000000)" id="How-it-works" stroke="#004385">
            <g transform="translate(185.000000, 1167.000000)">
                <g id="manage_sub_accounts" transform="translate(862.000000, 75.000000)">
                    <path d="M41.0020146,38.2089552 L2.02921179,38.2089552 C0.895240494,38.2089552 0,39.0532188 0,40.199005 L0,70.4115785 C0,71.5573647 0.895240494,72.4619328 1.96952909,72.4619328 C1.96952909,72.4619328 1.96952909,72.4619328 2.02921179,72.4619328 L16.1740116,72.4619328 L15.2787711,78.432082 L12.8317804,78.432082 C12.4140015,78.432082 12.0559053,78.7939092 12.0559053,79.216041 C12.0559053,79.6381728 12.4140015,80 12.8317804,80 L30.2591287,80 C30.6769076,80 31.0350038,79.6381728 31.0350038,79.216041 C31.0350038,78.7939092 30.6769076,78.432082 30.2591287,78.432082 C30.2591287,78.432082 30.2591287,78.432082 30.2591287,78.432082 L27.812138,78.432082 L26.9168975,72.4619328 L41.0616973,72.4619328 C42.1956686,72.4619328 43.0909091,71.5573647 43.0909091,70.471883 C43.0909091,70.471883 43.0909091,70.471883 43.0909091,70.4115785 L43.0909091,40.199005 C43.0312264,39.1135233 42.0763032,38.2089552 41.0020146,38.2089552 Z M16.7708386,78.432082 L17.6660791,72.4619328 L25.2457819,72.4619328 L26.1410224,78.432082 L16.7708386,78.432082 Z M41.4794762,70.8940148 L1.55175019,70.8940148 L1.55175019,64.863561 L41.4794762,64.863561 L41.4794762,70.8940148 Z M41.4794762,63.3559475 L1.55175019,63.3559475 L1.55175019,39.7165687 L41.4794762,39.7165687 L41.4794762,63.3559475 Z M21.4857718,69.0245741 C22.1422815,69.0245741 22.6794258,68.4818333 22.6794258,67.8184833 C22.6794258,67.1551334 22.1422815,66.6123926 21.4857718,66.6123926 C20.8292622,66.6123926 20.2921179,67.1551334 20.2921179,67.8184833 C20.2921179,68.4818333 20.8292622,69.0245741 21.4857718,69.0245741 Z" id="MT5" stroke-width="1.19402985" fill="#004385" fill-rule="nonzero"></path>
                    <path d="M76.9111055,0 L37.9383027,0 C36.8043314,0 35.9090909,0.844263531 35.9090909,1.99004975 L35.9090909,32.2026232 C35.9090909,33.3484095 36.8043314,34.2529775 37.87862,34.2529775 C37.87862,34.2529775 37.87862,34.2529775 37.9383027,34.2529775 L52.0831025,34.2529775 L51.187862,40.2231268 L48.7408713,40.2231268 C48.3230924,40.2231268 47.9649962,40.584954 47.9649962,41.0070858 C47.9649962,41.4292175 48.3230924,41.7910448 48.7408713,41.7910448 L66.1682196,41.7910448 C66.5859985,41.7910448 66.9440947,41.4292175 66.9440947,41.0070858 C66.9440947,40.584954 66.5859985,40.2231268 66.1682196,40.2231268 C66.1682196,40.2231268 66.1682196,40.2231268 66.1682196,40.2231268 L63.7212289,40.2231268 L62.8259884,34.2529775 L76.9707882,34.2529775 C78.1047595,34.2529775 79,33.3484095 79,32.2629278 C79,32.2629278 79,32.2629278 79,32.2026232 L79,1.99004975 C78.9403173,0.904568069 77.9853941,0 76.9111055,0 Z M52.6799295,40.2231268 L53.57517,34.2529775 L61.1548728,34.2529775 L62.0501133,40.2231268 L52.6799295,40.2231268 Z M77.3885671,32.6850596 L37.4608411,32.6850596 L37.4608411,26.6546058 L77.3885671,26.6546058 L77.3885671,32.6850596 Z M77.3885671,25.1469923 L37.4608411,25.1469923 L37.4608411,1.50761345 L77.3885671,1.50761345 L77.3885671,25.1469923 Z M57.3948628,30.8156189 C58.0513725,30.8156189 58.5885167,30.272878 58.5885167,29.6095281 C58.5885167,28.9461782 58.0513725,28.4034374 57.3948628,28.4034374 C56.7383531,28.4034374 56.2012088,28.9461782 56.2012088,29.6095281 C56.2012088,30.272878 56.7383531,30.8156189 57.3948628,30.8156189 Z" id="MT5" stroke-width="1.19402985" fill="#004385" fill-rule="nonzero"></path>
                    <polyline id="Shape" stroke-width="2.3880597" points="45.6931212 60.999403 59.0153939 60.999403 59.0153939 44.3868657"></polyline>
                    <polyline id="Shape" stroke-width="2.3880597" points="19.9846061 34.4143284 19.9846061 16.1456716 33.3068788 16.1456716"></polyline>
                </g>
            </g>
        </g>
    </g>
</svg>