<?xml version="1.0" encoding="UTF-8"?>
<svg width="49px" height="48px" viewBox="0 0 49 48" version="1.1" xmlns="http://www.w3.org/2000/svg" xmlns:xlink="http://www.w3.org/1999/xlink">
    <!-- Generator: Sketch 46.2 (44496) - http://www.bohemiancoding.com/sketch -->
    <title>multiple_exclusion_rules</title>
    <desc>Created with Sketch.</desc>
    <defs></defs>
    <g id="MAM-Pro" stroke="none" stroke-width="1" fill="none" fill-rule="evenodd">
        <g transform="translate(-696.000000, -652.000000)" id="Key-Features">
            <g transform="translate(185.000000, 331.000000)">
                <g id="multiple_exclusion_rules" transform="translate(511.000000, 321.000000)">
                    <path d="M29.8771667,16.2883902 C27.2605336,16.2883902 25.1393333,14.1597991 25.1393333,11.5340488 C25.1393333,8.90829849 27.2605336,6.77970732 29.8771667,6.77970732 C32.4937998,6.77970732 34.615,8.90829849 34.615,11.5340488 C34.615,14.1597991 32.4937998,16.2883902 29.8771667,16.2883902 Z M29.8771667,13.9469268 C31.2051353,13.9469268 32.2816667,12.8666445 32.2816667,11.5340488 C32.2816667,10.201453 31.2051353,9.12117073 29.8771667,9.12117073 C28.549198,9.12117073 27.4726667,10.201453 27.4726667,11.5340488 C27.4726667,12.8666445 28.549198,13.9469268 29.8771667,13.9469268 Z M29.8771667,17.2039024 C33.8278873,17.2039024 38.185,18.9411951 38.185,21.9582439 L38.185,24.9201951 L21.5681667,24.9201951 L21.5681667,21.9582439 C21.5681667,18.9411812 25.9261024,17.2039024 29.8771667,17.2039024 Z M35.8516667,21.9582439 C35.8516667,20.8249018 32.6426034,19.5453659 29.8771667,19.5453659 C27.1114701,19.5453659 23.9015,20.8250113 23.9015,21.9582439 L23.9015,22.5787317 L35.8516667,22.5787317 L35.8516667,21.9582439 Z M14,3.25814634 L14,35.1219512 L45.7531667,35.1219512 L45.7531667,3.25814634 L14,3.25814634 Z M48.0865,0.916682927 L48.0865,37.4634146 L11.6666667,37.4634146 L11.6666667,0.916682927 L48.0865,0.916682927 Z M19.9756667,29.2682927 L39.7786667,29.2682927 L39.7786667,26.9268293 L19.9756667,26.9268293 L19.9756667,29.2682927 Z M42.0513333,7.02439024 L37.1816667,7.02439024 L37.1816667,9.36585366 L42.0513333,9.36585366 L42.0513333,7.02439024 Z" id="Combined-Shape" fill="#004385" fill-rule="nonzero"></path>
                    <polygon id="Rectangle-path" fill="#F2F2F2" points="37.3333333 11.4532683 37.3333333 48 0.9135 48 0.9135 11.4532683"></polygon>
                    <path d="M19.124,26.8249756 C16.5073669,26.8249756 14.3861667,24.6963844 14.3861667,22.0706341 C14.3861667,19.4448839 16.5073669,17.3162927 19.124,17.3162927 C21.7406331,17.3162927 23.8618333,19.4448839 23.8618333,22.0706341 C23.8618333,24.6963844 21.7406331,26.8249756 19.124,26.8249756 Z M19.124,24.4835122 C20.4519687,24.4835122 21.5285,23.4032299 21.5285,22.0706341 C21.5285,20.7380384 20.4519687,19.6577561 19.124,19.6577561 C17.7960313,19.6577561 16.7195,20.7380384 16.7195,22.0706341 C16.7195,23.4032299 17.7960313,24.4835122 19.124,24.4835122 Z M19.124,27.7404878 C23.0747207,27.7404878 27.4318333,29.4777805 27.4318333,32.4948293 L27.4318333,35.4567805 L10.815,35.4567805 L10.815,32.4948293 C10.815,29.4777665 15.1729357,27.7404878 19.124,27.7404878 Z M25.0985,32.4948293 C25.0985,31.3614871 21.8894367,30.0819512 19.124,30.0819512 C16.3583035,30.0819512 13.1483333,31.3615967 13.1483333,32.4948293 L13.1483333,33.1153171 L25.0985,33.1153171 L25.0985,32.4948293 Z M3.24683333,45.6585366 L35,45.6585366 L35,13.7947317 L3.24683333,13.7947317 L3.24683333,45.6585366 Z M37.3333333,11.4532683 L37.3333333,48 L0.9135,48 L0.9135,11.4532683 L37.3333333,11.4532683 Z M9.22133333,39.804878 L29.0243333,39.804878 L29.0243333,37.4634146 L9.22133333,37.4634146 L9.22133333,39.804878 Z M31.297,17.5609756 L26.4273333,17.5609756 L26.4273333,19.902439 L31.297,19.902439 L31.297,17.5609756 Z" id="Combined-Shape" fill="#004385" fill-rule="nonzero"></path>
                </g>
            </g>
        </g>
    </g>
</svg>