<?xml version="1.0" encoding="UTF-8"?>
<svg width="43px" height="48px" viewBox="0 0 43 48" version="1.1" xmlns="http://www.w3.org/2000/svg" xmlns:xlink="http://www.w3.org/1999/xlink">
    <!-- Generator: Sketch 46.2 (44496) - http://www.bohemiancoding.com/sketch -->
    <title>trade_allocations_start_from_0.01</title>
    <desc>Created with Sketch.</desc>
    <defs></defs>
    <g id="MAM-Pro" stroke="none" stroke-width="1" fill="none" fill-rule="evenodd">
        <g transform="translate(-699.000000, -886.000000)" id="Key-Features" fill-rule="nonzero" fill="#004385">
            <g transform="translate(185.000000, 331.000000)">
                <path d="M535.5,567.703773 C533.821022,567.710818 532.205284,567.043484 531.01548,565.850058 C529.825675,564.656631 529.160366,563.035975 529.16739,561.351886 C529.16739,557.843836 532.002596,555 535.5,555 C538.997404,555 541.83261,557.843836 541.83261,561.351886 C541.83261,564.859936 538.997404,567.703773 535.5,567.703773 Z M535.5,568.63193 C540.984088,568.63193 547.292208,571.20574 547.292208,575.105413 L547.292208,578.657955 L523.70692,578.657955 L523.70692,574.983816 C523.70692,571.177924 530.052589,568.63193 535.5,568.63193 Z M557,582.993439 L557,603 L514,603 L514,582.993439 L557,582.993439 Z M515.74428,584.743029 L515.74428,601.25041 L555.25572,601.25041 L555.25572,584.743029 L515.74428,584.743029 Z M527.878367,586.644833 L527.878367,599.348606 L518.85346,599.348606 L518.85346,586.644833 L527.878367,586.644833 Z M520.597741,597.599016 L526.134086,597.599016 L526.134086,588.394423 L520.597741,588.394423 L520.597741,597.599016 Z M544.865914,586.644833 L544.865914,599.348606 L535.841007,599.348606 L535.841007,586.644833 L544.865914,586.644833 Z M537.585287,597.599016 L543.121633,597.599016 L543.121633,588.394423 L537.585287,588.394423 L537.585287,597.599016 Z M530.64654,597.256971 L533.073706,597.256971 L533.073706,599.691525 L530.64654,599.691525 L530.64654,597.256971 Z M550.402259,599.690651 L550.402259,588.394423 L547.634086,588.394423 L547.634086,586.644833 L552.14654,586.644833 L552.14654,599.690651 L550.402259,599.690651 Z" id="trade_allocations_start_from_0.01"></path>
            </g>
        </g>
    </g>
</svg>