<?xml version="1.0" encoding="UTF-8"?>
<svg width="84px" height="84px" viewBox="0 0 84 84" version="1.1" xmlns="http://www.w3.org/2000/svg" xmlns:xlink="http://www.w3.org/1999/xlink">
    <!-- Generator: Sketch 46.2 (44496) - http://www.bohemiancoding.com/sketch -->
    <title>talk_to_us</title>
    <desc>Created with Sketch.</desc>
    <defs></defs>
    <g id="MAM-Pro" stroke="none" stroke-width="1" fill="none" fill-rule="evenodd">
        <g transform="translate(-322.000000, -1240.000000)" id="How-it-works">
            <g transform="translate(185.000000, 1167.000000)">
                <g id="talk_to_us" transform="translate(139.000000, 75.000000)">
                    <path d="M26.0869565,53.9130435 C33.2906706,53.9130435 39.1304348,48.0732793 39.1304348,40.8695652 C39.1304348,33.6658511 33.2906706,27.826087 26.0869565,27.826087 C18.8832424,27.826087 13.0434783,33.6658511 13.0434783,40.8695652 C13.0625907,48.0653479 18.8911739,53.8939311 26.0869565,53.9130435 L26.0869565,53.9130435 Z" id="Shape" stroke="#004385" stroke-width="3"></path>
                    <path d="M26.0869565,60.4347826 C17.2869565,60.4347826 0,64.6782609 0,73.4782609 L0,80 L52.173913,80 L52.173913,73.4782609 C52.173913,64.6782609 34.8869565,60.4347826 26.0869565,60.4347826 Z" id="Shape" stroke="#004385" stroke-width="3"></path>
                    <path d="M41.7391304,0 L41.7391304,24.3478261 L46.9565217,24.3478261 L46.9565217,33.4956522 C46.9503752,33.9660936 47.2406868,34.3895891 47.6816917,34.5535024 C48.1226965,34.7174157 48.6191322,34.5863395 48.9217391,34.226087 L57.3913043,24.3478261 L80,24.3478261 L80,0 L41.7391304,0 Z" id="Shape" stroke="#004385" stroke-width="3"></path>
                    <rect id="Rectangle-path" fill="#004385" fill-rule="nonzero" x="50.4347826" y="10.4347826" width="3.47826087" height="3.47826087"></rect>
                    <rect id="Rectangle-path" fill="#004385" fill-rule="nonzero" x="59.1304348" y="10.4347826" width="3.47826087" height="3.47826087"></rect>
                    <rect id="Rectangle-path" fill="#004385" fill-rule="nonzero" x="67.826087" y="10.4347826" width="3.47826087" height="3.47826087"></rect>
                </g>
            </g>
        </g>
    </g>
</svg>