<?xml version="1.0" encoding="UTF-8"?>
<svg width="48px" height="48px" viewBox="0 0 48 48" version="1.1" xmlns="http://www.w3.org/2000/svg" xmlns:xlink="http://www.w3.org/1999/xlink">
    <!-- Generator: Sketch 46.2 (44496) - http://www.bohemiancoding.com/sketch -->
    <title>variety_allocation_methods</title>
    <desc>Created with Sketch.</desc>
    <defs></defs>
    <g id="MAM-Pro" stroke="none" stroke-width="1" fill="none" fill-rule="evenodd">
        <g transform="translate(-697.000000, -418.000000)" id="Key-Features" fill-rule="nonzero" fill="#004385">
            <g transform="translate(185.000000, 331.000000)">
                <path d="M547.889455,113.181818 L547.889455,111.727273 L542.545455,111.727273 L542.545455,110.272727 L549.344,110.272727 L549.344,120.834182 L542.545455,120.834182 L542.545455,119.379636 L547.889455,119.379636 L547.889455,117.545455 L543.272727,117.545455 L543.272727,116.090909 L547.889455,116.090909 L547.889455,114.636364 L543.272727,114.636364 L543.272727,113.181818 L547.889455,113.181818 Z M524.363636,117.545455 L524.363636,119.379636 L529.707636,119.379636 L529.707636,120.834182 L522.909091,120.834182 L522.909091,110.272727 L529.707636,110.272727 L529.707636,111.727273 L524.363636,111.727273 L524.363636,113.181818 L528.696,113.181818 L528.696,114.636364 L524.363636,114.636364 L524.363636,116.090909 L528.696,116.090909 L528.696,117.545455 L524.363636,117.545455 Z M557.516936,133.545455 L550.300917,126.329436 C546.555416,129.82514 541.527529,131.964364 536,131.964364 C530.472471,131.964364 525.444584,129.82514 521.699083,126.329436 L514.483064,133.545455 L518.798545,133.545455 L518.798545,135 L512,135 L512,128.201455 L513.454545,128.201455 L513.454545,132.516936 L520.670564,125.300917 C517.17486,121.555416 515.035636,116.527529 515.035636,111 C515.035636,105.472471 517.17486,100.444584 520.670564,96.699083 L513.454545,89.4830644 L513.454545,93.7985455 L512,93.7985455 L512,87 L518.798545,87 L518.798545,88.4545455 L514.483064,88.4545455 L521.699083,95.6705641 C525.444584,92.1748599 530.472471,90.0356364 536,90.0356364 C541.527529,90.0356364 546.555416,92.1748599 550.300917,95.6705641 L557.516936,88.4545455 L553.201455,88.4545455 L553.201455,87 L560,87 L560,93.7985455 L558.545455,93.7985455 L558.545455,89.4830644 L551.329436,96.699083 C554.82514,100.444584 556.964364,105.472471 556.964364,111 C556.964364,116.527529 554.82514,121.555416 551.329436,125.300917 L558.545455,132.516936 L558.545455,128.201455 L560,128.201455 L560,135 L553.201455,135 L553.201455,133.545455 L557.516936,133.545455 Z M536,129.719273 C546.338369,129.719273 554.719273,121.338369 554.719273,111 C554.719273,100.661631 546.338369,92.2807273 536,92.2807273 C525.661631,92.2807273 517.280727,100.661631 517.280727,111 C517.280727,121.338369 525.661631,129.719273 536,129.719273 Z M529.557793,112.169176 C528.69804,113.953617 528.611656,116.014338 529.320377,117.865345 C530.034315,119.729974 531.490909,121.214132 533.324069,121.95598 C535.051896,122.602804 536.955377,122.602804 538.672405,121.960121 C540.535349,121.228733 542.004499,119.747124 542.720131,117.878071 C543.431362,116.020511 543.333048,113.95071 542.450179,112.169568 L537.828885,104.948364 L534.269486,104.948364 L529.557793,112.169176 Z M538.624933,103.493818 L543.696208,111.418159 L543.733572,111.483824 C544.815126,113.637718 544.940324,116.147329 544.078511,118.398173 C543.216698,120.649017 541.447445,122.433273 539.19316,123.318202 C537.136506,124.088124 534.870767,124.088124 532.796354,123.311287 C530.571286,122.411167 528.820252,120.626997 527.961998,118.385448 C527.103743,116.143898 527.215439,113.646519 528.270373,111.490536 L528.31456,111.41275 L533.481787,103.493818 L538.624933,103.493818 Z M537.766444,103.493818 L539.989221,100.597091 L532.010779,100.597091 L534.233556,103.493818 L537.766444,103.493818 Z M529.061221,99.1425455 L542.938779,99.1425455 L538.483738,104.948364 L533.516262,104.948364 L529.061221,99.1425455 Z M534.602182,108.976727 L534.602182,111.000727 L536.056727,111.000727 L536.056727,108.976727 L534.602182,108.976727 Z M534.602182,118.083636 L534.602182,120.107636 L536.056727,120.107636 L536.056727,118.083636 L534.602182,118.083636 Z M538.851055,112.244349 C538.872203,111.715792 538.67158,111.202432 538.297647,110.828275 C537.923714,110.454118 537.410474,110.253187 536.881905,110.274019 L535.190545,110.273455 C534.064848,110.293333 533.167515,111.190666 533.147751,112.303449 C533.188866,113.084846 533.576612,113.749668 534.19092,114.143269 L537.059122,115.781447 C537.325016,115.92956 537.490422,116.1984 537.502412,116.494847 C537.505717,116.685905 537.425051,116.885717 537.278486,117.032212 C537.131921,117.178707 536.932069,117.259278 536.724881,117.2554 L535.190545,117.255273 C535.038336,117.260784 534.918762,117.214035 534.831636,117.126909 C534.74451,117.039783 534.697761,116.92021 534.702691,116.797094 L533.249309,116.738906 C533.22814,117.267676 533.428921,117.781232 533.803117,118.155428 C534.177314,118.529625 534.690869,118.730406 535.219639,118.709236 L536.711273,118.709818 C537.299872,118.720961 537.880756,118.486775 538.306758,118.060977 C538.73276,117.635179 538.967225,117.054408 538.956243,116.452194 C538.923299,115.633301 538.475389,114.905296 537.773466,114.514421 L534.943787,112.89928 C534.754853,112.777095 534.615502,112.538168 534.601081,112.276362 C534.607922,111.999594 534.873776,111.733741 535.20346,111.727885 L536.910545,111.728 C537.062255,111.722586 537.181755,111.769369 537.26882,111.856486 C537.355884,111.943603 537.402596,112.063131 537.397672,112.186197 L538.851055,112.244349 Z" id="variety_allocation_methods"></path>
            </g>
        </g>
    </g>
</svg>