<?xml version="1.0" encoding="UTF-8"?>
<svg width="61px" height="48px" viewBox="0 0 61 48" version="1.1" xmlns="http://www.w3.org/2000/svg" xmlns:xlink="http://www.w3.org/1999/xlink">
    <!-- Generator: Sketch 46.2 (44496) - http://www.bohemiancoding.com/sketch -->
    <title>view_all_information_to_manage_client_list</title>
    <desc>Created with Sketch.</desc>
    <defs></defs>
    <g id="MAM-Pro" stroke="none" stroke-width="1" fill="none" fill-rule="evenodd">
        <g transform="translate(-1056.000000, -652.000000)" id="Key-Features" fill-rule="nonzero" fill="#004385">
            <g transform="translate(185.000000, 331.000000)">
                <path d="M872.848485,322.84307 L872.848485,367.15693 L930.151515,367.15693 L930.151515,322.84307 L872.848485,322.84307 Z M932,321 L932,369 L871,369 L871,321 L932,321 Z M877.991894,356.900244 L889.002394,356.900244 L889.002394,347.203851 L877.991894,347.203851 L877.991894,356.900244 Z M890.850879,345.360781 L890.850879,358.743314 L876.143409,358.743314 L876.143409,345.360781 L890.850879,345.360781 Z M895.994288,356.900244 L907.004788,356.900244 L907.004788,347.203851 L895.994288,347.203851 L895.994288,356.900244 Z M908.853273,345.360781 L908.853273,358.743314 L894.145803,358.743314 L894.145803,345.360781 L908.853273,345.360781 Z M913.997606,356.900244 L925.008106,356.900244 L925.008106,347.203851 L913.997606,347.203851 L913.997606,356.900244 Z M926.856591,345.360781 L926.856591,358.743314 L912.149121,358.743314 L912.149121,345.360781 L926.856591,345.360781 Z M875.78203,363.390616 L891.213182,363.390616 L891.213182,361.547545 L875.78203,361.547545 L875.78203,363.390616 Z M893.784424,363.390616 L909.215576,363.390616 L909.215576,361.547545 L893.784424,361.547545 L893.784424,363.390616 Z M911.786818,363.390616 L927.21797,363.390616 L927.21797,361.547545 L911.786818,361.547545 L911.786818,363.390616 Z M901.499076,334.381612 C899.213303,334.381612 897.360318,332.534054 897.360318,330.254977 C897.360318,327.9759 899.213303,326.128343 901.499076,326.128343 C903.784848,326.128343 905.637833,327.9759 905.637833,330.254977 C905.637833,332.534054 903.784848,334.381612 901.499076,334.381612 Z M901.5,335.35936 C904.895783,335.35936 908.853273,337.023219 908.853273,339.614088 L908.853273,342.074587 L894.145803,342.074587 L894.145803,339.485995 C894.145803,336.893478 898.015991,335.35936 901.5,335.35936 Z" id="view_all_information_to_manage_client_list"></path>
            </g>
        </g>
    </g>
</svg>